<?xml version="1.0" encoding="utf-8"?>
<!-- Generator: Adobe Illustrator 23.1.1, SVG Export Plug-In . SVG Version: 6.00 Build 0)  -->
<svg version="1.1" id="Layer_1" xmlns="http://www.w3.org/2000/svg" xmlns:xlink="http://www.w3.org/1999/xlink" x="0px" y="0px"
	 viewBox="0 0 1920 1080" style="enable-background:new 0 0 1920 1080;" xml:space="preserve">
<style type="text/css">
	.st0{fill:#163056;}
</style>
<g>
	<g>
		<path class="st0" d="M956.03,1088.1c-1.36-58.68-0.98-117.4-1.04-176.09c-0.06-59.13-0.12-118.26-0.18-177.38
			c-0.12-117.65-0.24-235.31-0.37-352.96c-0.07-66.37-0.14-132.74-0.21-199.1c-0.01-7.72-12.01-7.73-12,0
			c0.12,118.26,0.25,236.51,0.37,354.77c0.12,117.65,0.24,235.31,0.37,352.96c0.07,65.93-0.46,131.9,1.06,197.81
			C944.21,1095.81,956.21,1095.84,956.03,1088.1L956.03,1088.1z"/>
	</g>
</g>
<g>
	<g>
		<path class="st0" d="M952.53,185.6c22.12-13.7,44.31-27.47,67.85-38.64c22.46-10.66,46.25-18.34,70.59-23.36
			c48.34-9.96,98.28-9,147.13-3.75c50.15,5.39,99.65,15.46,149.16,24.83c52.92,10.02,106.08,18.5,159.58,24.78
			c61.17,7.18,122.66,11.63,184.23,13.38c-2-2-4-4-6-6c-7.01,118.82,2.9,237.74,0.57,356.62c-2.32,118.01-15.04,235.46-21.11,353.28
			c-3.43,66.42-4.66,133.01-0.88,199.44c0.44,7.68,12.44,7.73,12,0c-6.71-117.99,2.6-235.97,11.22-353.6
			c4.32-58.85,8.43-117.74,10.21-176.73c1.79-59.44,0.46-118.88-0.95-178.31c-1.59-66.89-3.01-133.86,0.94-200.7
			c0.2-3.3-2.91-5.91-6-6c-110.09-3.12-219.69-15.16-327.94-35.34c-98.01-18.27-198.95-42.17-299.01-26.42
			c-27.62,4.35-54.57,12.04-80.22,23.18c-27.13,11.78-52.34,27.45-77.43,43C939.92,179.3,945.93,189.69,952.53,185.6L952.53,185.6z"
			/>
	</g>
</g>
<g>
	<g>
		<path class="st0" d="M952.11,182.98c-37.2-26.03-76.92-50.78-121.61-61.33c-48.53-11.45-98.74-5.47-147.12,3.53
			c-24.47,4.55-48.79,9.85-73.24,14.5c-24.69,4.7-49.45,9-74.28,12.9c-49.79,7.82-99.84,13.98-150.04,18.51
			c-50.22,4.53-100.59,7.42-151,8.66c-6.21,0.15-12.42,0.28-18.63,0.38c-7.71,0.13-7.74,12.13,0,12
			c49.94-0.84,99.85-3.27,149.63-7.33c49.87-4.06,99.6-9.75,149.11-16.99c49.62-7.26,98.82-16.55,147.97-26.45
			c47.47-9.56,96.69-18.69,145.18-11.78c45.65,6.51,86.24,28.68,123.99,54.12c4.69,3.16,9.35,6.38,13.99,9.62
			C952.39,197.78,958.4,187.38,952.11,182.98L952.11,182.98z"/>
	</g>
</g>
<g>
	<g>
		<path class="st0" d="M1715.34,175.11c16.49,9.31,32.76,19.01,48.79,29.1c16,10.07,31.75,20.53,47.25,31.35
			c8.77,6.13,17.46,12.37,26.06,18.73c1.17,0.87,3.28,0.97,4.62,0.6c1.39-0.38,2.9-1.46,3.59-2.76c1.66-3.13,0.55-6.21-2.15-8.21
			c-15.29-11.3-30.84-22.23-46.64-32.79c-15.7-10.49-31.66-20.6-47.85-30.32c-9.13-5.48-18.33-10.84-27.6-16.07
			c-2.73-1.54-6.68-0.74-8.21,2.15C1711.68,169.74,1712.42,173.46,1715.34,175.11L1715.34,175.11z"/>
	</g>
</g>
<g>
	<g>
		<path class="st0" d="M1841.29,252.6c1.42,107.6,2.93,215.2,4.46,322.8c1.52,107.41,3.04,214.83,4.56,322.24
			c0.86,60.42,1.71,120.85,2.57,181.27c0.11,7.72,12.11,7.74,12,0c-1.52-107.66-3.05-215.33-4.57-322.99
			c-1.52-107.39-3.05-214.77-4.55-322.16c-0.84-60.39-1.67-120.77-2.46-181.16C1853.19,244.88,1841.19,244.86,1841.29,252.6
			L1841.29,252.6z"/>
	</g>
</g>
<g>
	<g>
		<path class="st0" d="M1822.17,236c1.34,56.52,1.5,113.06,0.43,169.58c-1.06,56.36-3.33,112.69-6.81,168.95
			c-3.49,56.33-9.36,112.59-10.36,169.04c-0.5,28.09,0.79,56.03,3.07,84.03c2.24,27.56,4.59,55.16,3.11,82.83
			c-2.84,53.25-17.33,105.23-18.58,158.63c-0.16,6.71-0.09,13.41,0.2,20.11c0.16,3.85,6.16,3.87,6,0
			c-2.27-53.58,11.46-105.78,16.82-158.76c5.6-55.41-4.3-110.33-4.73-165.73c-0.43-56.49,5.33-112.79,9.11-169.09
			c3.78-56.21,6.35-112.51,7.71-168.83c1.37-56.5,1.52-113.03,0.47-169.53c-0.13-7.07-0.28-14.14-0.45-21.22
			C1828.07,232.14,1822.07,232.13,1822.17,236L1822.17,236z"/>
	</g>
</g>
<g>
	<g>
		<path class="st0" d="M1732.27,1114.21c-0.45-119.76,7.35-239.32,15.35-358.75c7.98-119.17,16.11-238.45,16.15-357.94
			c0.02-67.47-2.59-134.95-9.08-202.12c-0.37-3.81-6.37-3.85-6,0c11.53,119.21,10.63,239.16,5.09,358.68
			c-5.54,119.42-15.57,238.58-21.86,357.96c-3.55,67.33-5.89,134.74-5.63,202.17C1726.29,1118.07,1732.29,1118.08,1732.27,1114.21
			L1732.27,1114.21z"/>
	</g>
</g>
<g>
	<g>
		<path class="st0" d="M1765.9,1085.09c7.42-113.61,15.1-227.21,22.19-340.84c7.05-112.89,11.35-225.81,9.7-338.93
			c-0.94-64.2-3.54-128.38-7.74-192.45c-0.25-3.83-6.25-3.86-6,0c7.44,113.61,9.82,227.55,6.97,341.36
			c-2.83,113.03-11.21,225.85-18.57,338.65c-4.18,64.07-8.37,128.14-12.55,192.21C1759.65,1088.95,1765.65,1088.93,1765.9,1085.09
			L1765.9,1085.09z"/>
	</g>
</g>
<g>
	<g>
		<path class="st0" d="M1541.3,179.01c2.05-0.82,4.15-1.49,6.31-1.95c0.53-0.11,1.06-0.22,1.59-0.31c0.25-0.04,0.56-0.05,0.8-0.13
			c0.01,0-1.28,0.15-0.59,0.08c1.14-0.12,2.27-0.23,3.41-0.27c2.15-0.08,4.31,0.01,6.46,0.23c0.26,0.03,0.55,0.09,0.81,0.09
			c0.01,0-1.27-0.19-0.58-0.08c0.54,0.09,1.08,0.17,1.62,0.26c1.15,0.2,2.3,0.45,3.43,0.72c2.11,0.51,4.18,1.14,6.23,1.85
			c1,0.35,2,0.73,2.99,1.12c0.27,0.11,0.53,0.21,0.79,0.32c1.01,0.4-0.11-0.02-0.25-0.11c0.5,0.33,1.23,0.53,1.77,0.78
			c4.23,1.92,8.31,4.16,12.26,6.59c3.81,2.34,7.5,4.88,11.12,7.5c1.72,1.24,3.43,2.51,5.12,3.78c0.85,0.64,1.69,1.28,2.54,1.93
			c0.16,0.12,0.32,0.24,0.47,0.36c0.64,0.49-0.9-0.7-0.27-0.21c0.47,0.37,0.94,0.73,1.41,1.1c6.65,5.22,13.11,10.69,19.35,16.39
			c12.62,11.52,24.39,23.97,35.22,37.2c1.37,1.67,2.72,3.35,4.05,5.04c0.63,0.79,1.25,1.59,1.87,2.39c0.41,0.52-0.32-0.42-0.32-0.41
			c0.16,0.22,0.33,0.43,0.49,0.64c0.37,0.48,0.74,0.96,1.11,1.45c2.61,3.44,5.17,6.93,7.66,10.46c4.95,7.03,9.66,14.23,14.11,21.59
			c8.94,14.8,16.81,30.23,23.59,46.14c0.41,0.97-0.07-0.16-0.13-0.3c0.1,0.25,0.21,0.5,0.32,0.76c0.21,0.5,0.42,1.01,0.63,1.51
			c0.42,1.01,0.83,2.02,1.24,3.04c0.61,1.51,1.3,2.73,2.76,3.59c1.29,0.75,3.18,1.07,4.62,0.6c2.8-0.91,5.45-4.26,4.19-7.38
			c-6.76-16.79-14.64-33.11-23.74-48.76c-8.97-15.42-19.09-30.12-30.15-44.11c-10.82-13.68-22.63-26.57-35.34-38.52
			c-12.89-12.11-26.71-23.54-41.46-33.33c-15.79-10.48-35.04-19.34-54.38-15.18c-2.16,0.46-4.26,1.13-6.31,1.95
			c-1.51,0.61-2.73,1.3-3.59,2.76c-0.75,1.29-1.07,3.18-0.6,4.62C1534.82,177.62,1538.18,180.26,1541.3,179.01L1541.3,179.01z"/>
	</g>
</g>
<g>
	<g>
		<path class="st0" d="M1531.6,172.57c0.02,18.43,4.8,36.44,9.59,54.1c2.36,8.69,4.75,17.38,6.59,26.2
			c0.44,2.12,0.86,4.25,1.23,6.39c0.18,1.06,0.36,2.12,0.52,3.18c0.08,0.53,0.16,1.06,0.23,1.59c0.12,0.85-0.23-0.11-0.05-0.4
			c-0.1,0.17,0.1,0.81,0.13,0.99c0.53,4.25,0.84,8.53,0.85,12.81c0.01,2.35-0.07,4.69-0.26,7.03c-0.09,1.17-0.22,2.33-0.36,3.5
			c-0.13,1.08,0.01-0.35,0.06-0.43c-0.13,0.23-0.1,0.71-0.14,0.97c-0.09,0.58-0.19,1.16-0.29,1.74c-0.88,4.86-2.28,9.6-4.16,14.16
			c-0.79,1.91,0.17,4.47,1.54,5.84c1.63,1.63,3.66,1.9,5.84,1.54c1.5-0.25,3-0.47,4.5-0.68c1.36-0.19-1.45,0.18-0.09,0.01
			c0.38-0.05,0.75-0.1,1.13-0.14c0.88-0.11,1.76-0.21,2.64-0.3c3.14-0.34,6.29-0.58,9.45-0.75c6.31-0.33,12.63-0.31,18.94,0.04
			c3.15,0.17,6.3,0.43,9.44,0.76c1.38,0.15,2.76,0.32,4.14,0.49c1.36,0.17-1.45-0.21-0.09-0.01c0.38,0.05,0.75,0.1,1.13,0.16
			c0.87,0.13,1.75,0.26,2.62,0.4c6.23,0.99,12.41,2.29,18.5,3.89c6.08,1.6,12.08,3.5,17.97,5.7c1.29,0.48,2.58,0.98,3.86,1.49
			c0.7,0.28,1.4,0.56,2.09,0.85c0.34,0.14,0.69,0.32,1.04,0.43c-1.72-0.53-0.1-0.04,0.29,0.13c2.87,1.24,5.71,2.54,8.51,3.92
			c5.57,2.74,11.01,5.77,16.28,9.07c2.62,1.64,5.19,3.35,7.72,5.12c1.11,0.78,2.21,1.57,3.3,2.38c0.59,0.44,1.18,0.88,1.77,1.33
			c0.29,0.22,0.58,0.47,0.88,0.67c-1.5-1.01-0.08-0.05,0.24,0.19c5.37,4.23,10.49,8.79,15.29,13.66c2.38,2.42,4.69,4.92,6.91,7.49
			c1.11,1.28,2.19,2.58,3.25,3.9c0.53,0.66,1.02,1.36,1.57,1.99c-1.14-1.3-0.29-0.37-0.05-0.06c0.29,0.38,0.58,0.77,0.87,1.16
			c1.49,1.99,3.38,3.21,5.98,2.86c2.12-0.28,4.64-1.99,4.99-4.3c1.34-8.98,2.68-17.95,4.02-26.93c0.25-1.66,0.28-3.12-0.6-4.62
			c-0.73-1.24-2.16-2.43-3.59-2.76c-2.85-0.65-6.88,0.87-7.38,4.19c-1.34,8.98-2.68,17.95-4.02,26.93
			c3.66-0.48,7.31-0.96,10.97-1.43c-7.63-10.22-16.34-19.51-26.15-27.68c-9.89-8.23-20.61-15.44-32.01-21.41
			c-11.6-6.07-23.85-11-36.43-14.63c-12.63-3.65-25.66-5.97-38.76-7.01c-13.23-1.05-26.46-0.56-39.6,1.24
			c-1.57,0.21-3.13,0.45-4.69,0.71c2.46,2.46,4.92,4.92,7.38,7.38c7.05-17.04,6.42-35.7,3.12-53.51
			c-3.3-17.83-9.18-35.05-13.08-52.75c-0.54-2.44-1.03-4.88-1.48-7.33c-0.24-1.29-0.46-2.58-0.66-3.87
			c-0.1-0.61-0.19-1.22-0.28-1.83c-0.03-0.2-0.06-0.41-0.09-0.61c-0.03-0.2-0.06-0.41-0.09-0.61c-0.06-0.46-0.04-0.27,0.08,0.58
			c-0.4-1.02-0.32-2.57-0.43-3.67c-0.12-1.22-0.23-2.44-0.32-3.67c-0.18-2.57-0.28-5.15-0.28-7.73c0-3.14-2.76-6.15-6-6
			C1534.35,166.72,1531.6,169.21,1531.6,172.57L1531.6,172.57z"/>
	</g>
</g>
<g>
	<g>
		<path class="st0" d="M133.35,329.98c10.45-18.39,21.32-36.54,32.59-54.43c11.25-17.85,22.92-35.45,34.98-52.76
			c6.76-9.71,13.65-19.33,20.67-28.87c1.87-2.54,0.51-6.8-2.15-8.21c-3.13-1.65-6.22-0.56-8.21,2.15
			c-12.49,16.98-24.59,34.24-36.28,51.77c-11.72,17.57-23.04,35.42-33.94,53.51c-6.14,10.18-12.14,20.44-18.01,30.78
			c-1.55,2.73-0.74,6.68,2.15,8.21C127.99,333.64,131.69,332.89,133.35,329.98L133.35,329.98z"/>
	</g>
</g>
<g>
	<g>
		<path class="st0" d="M218.68,1098.41c0.51-116.93,0.93-233.86,1.34-350.79c0.41-116.73,0.81-233.46,1.22-350.19
			c0.23-65.66,0.46-131.33,0.69-196.99c0.03-7.72-11.97-7.73-12,0c-0.41,117-0.82,234.01-1.22,351.01
			c-0.41,116.7-0.8,233.4-1.23,350.1c-0.24,65.62-0.5,131.24-0.79,196.86C206.65,1106.13,218.65,1106.14,218.68,1098.41
			L218.68,1098.41z"/>
	</g>
</g>
<g>
	<g>
		<path class="st0" d="M168.39,256.88c-10.1,108.12-15.8,216.64-17.11,325.22c-1.31,108.49,1.73,217.02,9.08,325.27
			c4.13,60.79,9.64,121.48,16.48,182.03c0.43,3.79,6.43,3.84,6,0c-12.26-108.5-20.19-217.48-23.73-326.62
			c-3.5-108.27-2.69-216.67,2.49-324.87c2.89-60.43,7.16-120.79,12.79-181.03C174.75,253.04,168.75,253.06,168.39,256.88
			L168.39,256.88z"/>
	</g>
</g>
<g>
	<g>
		<path class="st0" d="M187.16,235.5c-1.87,109.64-4,219.27-5.55,328.91c-1.54,108.83-0.35,217.56,6.81,326.19
			c4.06,61.56,9.76,123.02,17.06,184.28c0.45,3.79,6.46,3.83,6,0c-12.95-108.67-20.85-217.94-23.54-327.35
			c-2.68-108.83,0.19-217.73,2.05-326.55c1.06-61.83,2.11-123.65,3.17-185.48C193.23,231.63,187.23,231.63,187.16,235.5
			L187.16,235.5z"/>
	</g>
</g>
<g>
	<g>
		<path class="st0" d="M138.7,310.84c4.58,107.98,4.36,216.16-0.79,324.11c-2.53,53.02-7.35,106.02-7.45,159.13
			c-0.05,26.76,1.65,53.33,4.38,79.94c2.69,26.22,5.56,52.49,4.6,78.89c-2.08,57.5-18.98,113.77-15.4,171.58
			c0.24,3.84,6.24,3.86,6,0c-3.2-51.58,9.9-102,14.25-153.1c4.51-52.94-6.41-105.17-7.64-158.01
			c-1.24-53.09,3.47-106.08,6.28-159.05c2.86-53.89,4.5-107.84,4.92-161.8c0.47-60.58-0.59-121.16-3.16-181.69
			C144.54,306.99,138.54,306.97,138.7,310.84L138.7,310.84z"/>
	</g>
</g>
<g>
	<g>
		<path class="st0" d="M118.41,326.64c-2.1,101.95-4.1,203.9-6.09,305.85c-1.99,101.78-3.98,203.55-5.97,305.33
			c-1.12,57.25-2.24,114.5-3.36,171.76c-0.15,7.72,11.85,7.72,12,0c1.99-102.01,3.99-204.03,5.98-306.04
			c1.99-101.75,3.97-203.5,5.98-305.25c1.13-57.22,2.28-114.43,3.45-171.65C130.57,318.91,118.57,318.91,118.41,326.64
			L118.41,326.64z"/>
	</g>
</g>
<g>
	<g>
		<path class="st0" d="M229.21,386.68c0.33-4.77,0.88-9.5,1.43-14.24c-0.02,0.15-0.2,1.42-0.04,0.34c0.04-0.28,0.08-0.56,0.12-0.83
			c0.08-0.56,0.16-1.11,0.24-1.67c0.18-1.18,0.36-2.36,0.56-3.53c0.39-2.35,0.82-4.7,1.29-7.03c1.83-9.2,4.24-18.29,7.2-27.2
			c1.47-4.45,3.08-8.85,4.83-13.19c0.42-1.04,0.84-2.07,1.27-3.1c0.41-0.99-0.05,0.13-0.12,0.28c0.12-0.25,0.22-0.52,0.33-0.77
			c0.28-0.64,0.55-1.28,0.83-1.92c0.96-2.17,1.95-4.33,2.97-6.47c4.02-8.41,8.56-16.58,13.6-24.43c2.51-3.91,5.15-7.74,7.9-11.49
			c0.7-0.95,1.4-1.89,2.12-2.83c0.25-0.33,1.23-1.73,0.33-0.43c0.35-0.51,0.77-0.99,1.15-1.47c1.42-1.79,2.86-3.56,4.34-5.3
			c5.92-7,12.29-13.61,19.06-19.79c3.34-3.05,6.78-6,10.31-8.83c0.84-0.68,1.69-1.34,2.54-2.01c0.82-0.64-0.13,0.11-0.25,0.2
			c0.22-0.16,0.43-0.33,0.64-0.49c0.54-0.41,1.07-0.82,1.61-1.22c1.83-1.37,3.69-2.72,5.57-4.03c7.38-5.16,15.09-9.86,23.06-14.06
			c3.97-2.09,8.01-4.06,12.11-5.89c0.98-0.44,1.96-0.87,2.94-1.29c0.25-0.11,0.49-0.21,0.74-0.32c0.75-0.32-1.08,0.45-0.32,0.14
			c0.62-0.26,1.24-0.51,1.86-0.77c2.04-0.83,4.1-1.63,6.17-2.4c8.45-3.13,17.11-5.71,25.9-7.7c2.15-0.49,4.3-0.93,6.46-1.35
			c3.09-0.6,5.13-4.46,4.19-7.38c-1.07-3.29-4.07-4.83-7.38-4.19c-18.3,3.53-36.05,9.63-52.8,17.78
			c-16.86,8.21-32.58,18.68-46.82,30.88c-14.47,12.4-27.19,26.75-37.98,42.45c-10.99,15.99-19.79,33.44-26.45,51.66
			c-6.69,18.29-10.95,37.39-12.9,56.76c-0.24,2.37-0.44,4.75-0.6,7.13c-0.22,3.14,2.91,6.14,6,6
			C226.64,392.52,228.98,390.04,229.21,386.68L229.21,386.68z"/>
	</g>
</g>
<g>
	<g>
		<path class="st0" d="M229.98,386.71c0.01-0.67,0.04-1.35,0.09-2.02c0.03-0.4,0.08-0.8,0.11-1.2c0.09-0.92,0.12,0.33-0.06,0.41
			c0.11-0.05,0.32-1.77,0.36-1.94c0.16-0.77,0.36-1.53,0.58-2.29c0.35-1.2,0.78-2.36,1.22-3.52c0.31-0.82-0.63,1.38-0.07,0.17
			c0.14-0.3,0.27-0.6,0.41-0.89c0.31-0.65,0.63-1.3,0.97-1.94c1.28-2.4,2.77-4.68,4.4-6.85c0.32-0.42,0.44-1.05-0.08,0.1
			c0.12-0.27,0.43-0.55,0.62-0.78c0.38-0.47,0.76-0.93,1.15-1.39c0.95-1.12,1.94-2.21,2.95-3.27c3.85-4.07,8.06-7.8,12.36-11.39
			c1.08-0.91,2.17-1.8,3.27-2.69c0.49-0.4,0.99-0.79,1.49-1.19c0.28-0.22,0.55-0.43,0.83-0.65c1.04-0.82-0.85,0.64,0.12-0.1
			c2.35-1.79,4.72-3.54,7.14-5.24c9.25-6.48,19.04-12.2,29.23-17.07c2.6-1.24,5.24-2.63,7.95-3.59c-0.14,0.05-1.27,0.53-0.29,0.12
			c0.38-0.16,0.77-0.32,1.15-0.48c0.58-0.24,1.15-0.47,1.73-0.7c1.35-0.54,2.7-1.06,4.06-1.57c5.29-1.98,10.66-3.74,16.1-5.26
			c6.08-1.7,12.24-3.1,18.45-4.2c1.48-0.26,2.97-0.5,4.46-0.73c0.81-0.12,1.62-0.24,2.44-0.35c1.08-0.15-0.25,0.01-0.37,0.05
			c0.48-0.16,1.12-0.15,1.63-0.21c3.12-0.38,6.25-0.68,9.39-0.91c2.44-0.18,4.5-1.37,5.48-3.69c0.97-2.3,0.39-4.71-1.24-6.55
			c-0.31-0.35-0.62-0.7-0.92-1.06c-0.11-0.13-0.22-0.27-0.33-0.41c-0.49-0.59,0.75,1.01,0.3,0.39c-0.54-0.75-1.07-1.49-1.56-2.27
			c-0.95-1.51-1.66-3.1-2.46-4.68c-0.03-0.06,0.51,1.26,0.28,0.65c-0.08-0.21-0.17-0.42-0.25-0.64c-0.14-0.37-0.28-0.75-0.41-1.12
			c-0.3-0.86-0.57-1.74-0.81-2.62c-0.47-1.74-0.81-3.5-1.09-5.27c-0.12-0.78,0.16,1.33,0.07,0.55c-0.02-0.18-0.04-0.35-0.06-0.53
			c-0.05-0.47-0.1-0.94-0.14-1.41c-0.08-0.95-0.13-1.9-0.16-2.85c-0.06-1.82-0.03-3.63,0.08-5.45c0.05-0.92,0.13-1.84,0.21-2.76
			c0.04-0.43,0.09-0.86,0.14-1.29c0.03-0.25,0.06-0.49,0.09-0.74c0.15-1.3-0.16,1.07-0.04,0.3c0.3-1.92,0.62-3.83,1.03-5.74
			c0.81-3.77,1.87-7.48,3.11-11.13c0.63-1.84,1.31-3.66,2.03-5.46c0.16-0.4,0.33-0.8,0.49-1.21c0.3-0.73-0.49,1.13-0.17,0.41
			c0.1-0.23,0.19-0.45,0.29-0.68c0.39-0.9,0.79-1.79,1.2-2.68c3.8-8.18,8.23-16.09,13.09-23.68c2.71-4.23,5.56-8.36,8.57-12.38
			c0.4-0.53,0.8-1.06,1.2-1.59c0.13-0.18,0.27-0.35,0.4-0.53c0.92-1.2-0.79,1.01,0.14-0.18c0.77-0.98,1.55-1.96,2.33-2.93
			c1.62-1.99,3.27-3.95,4.96-5.88c2.06-2.36,2.5-6.19,0-8.49c-2.26-2.08-6.28-2.52-8.49,0c-12.66,14.47-23.4,30.6-31.77,47.92
			c-3.65,7.55-6.66,15.46-8.59,23.63c-1.86,7.93-2.91,16.29-2.05,24.43c1.01,9.63,4.29,18.56,10.78,25.86
			c1.41-3.41,2.83-6.83,4.24-10.24c-23.9,1.74-47.15,7.84-68.98,17.71c-10.66,4.82-20.9,10.57-30.58,17.15
			c-9.94,6.76-19.59,14.3-28.12,22.8c-9.7,9.67-17.86,21.74-18.11,35.89c-0.05,3.14,2.8,6.14,6,6
			C227.28,392.56,229.92,390.08,229.98,386.71L229.98,386.71z"/>
	</g>
</g>
</svg>
