<svg xmlns="http://www.w3.org/2000/svg" viewBox="0 0 441.45 525.51"><defs><style>.cls-1{fill:#c49a6c;}.cls-2{fill:#e2a925;}.cls-3{fill:#b1862d;}.cls-4{fill:#b1802c;}.cls-5{fill:#b1872d;}</style></defs><title>chair</title><g id="Layer_2" data-name="Layer 2"><g id="Layer_1-2" data-name="Layer 1"><path class="cls-1" d="M117.88,424.76l-2.4,89.49a110.57,110.57,0,0,1,22-1.18L130.54,416"/><path class="cls-1" d="M115.38,424.76q-.93,34.8-1.87,69.6-.27,9.94-.53,19.89a2.53,2.53,0,0,0,3.16,2.41,110,110,0,0,1,21.3-1.09,2.51,2.51,0,0,0,2.5-2.5q-2.69-37.85-5.38-75.69Q133.8,426.67,133,416a2.56,2.56,0,0,0-2.5-2.5A2.52,2.52,0,0,0,128,416q2.69,37.84,5.38,75.69.77,10.71,1.52,21.41l2.5-2.5a115.81,115.81,0,0,0-22.63,1.26l3.16,2.41q.93-34.8,1.87-69.6.27-9.94.53-19.89c.09-3.21-4.91-3.21-5,0Z"/><path class="cls-1" d="M295.53,441.74A341.94,341.94,0,0,0,296.71,493a60.09,60.09,0,0,1,19.66-4.8q.08-25.44.14-50.88"/><path class="cls-1" d="M293,441.74A346.11,346.11,0,0,0,294.21,493a2.55,2.55,0,0,0,3.76,2.16,57.53,57.53,0,0,1,18.39-4.45,2.55,2.55,0,0,0,2.5-2.5q.08-25.44.14-50.88c0-3.22-5-3.22-5,0q-.08,25.44-.14,50.88l2.5-2.5a64.94,64.94,0,0,0-20.92,5.14L299.2,493A346.08,346.08,0,0,1,298,441.75c.17-3.23-4.83-3.22-5,0Z"/><path class="cls-1" d="M338.69,433.57l-2.4,89.49a110.57,110.57,0,0,1,22-1.18l-6.9-97.11"/><path class="cls-1" d="M336.19,433.57q-.93,34.8-1.87,69.6-.27,9.94-.53,19.89c-.05,1.78,1.63,2.64,3.16,2.41a110,110,0,0,1,21.3-1.09,2.51,2.51,0,0,0,2.5-2.5q-2.69-37.85-5.38-75.69-.76-10.71-1.52-21.41a2.56,2.56,0,0,0-2.5-2.5,2.52,2.52,0,0,0-2.5,2.5q2.68,37.85,5.38,75.69.76,10.71,1.52,21.41l2.5-2.5a115.81,115.81,0,0,0-22.63,1.26l3.16,2.41q.93-34.8,1.87-69.6.27-9.94.53-19.89c.1-3.21-4.9-3.21-5,0Z"/><path class="cls-1" d="M155.26,430.39q1.13,21.67,2.24,43.36c.15,2.9.66,6.37,3.29,7.57a8,8,0,0,0,4.49.2l15.32-2.28-2.34-41.78"/><path class="cls-1" d="M152.76,430.39q.83,15.83,1.64,31.64c.25,4.86.17,9.88.92,14.7.68,4.39,3.58,7.78,8.31,7.48,2.92-.18,5.86-.82,8.75-1.25l8.89-1.33a2.51,2.51,0,0,0,1.84-2.41l-2.34-41.78c-.18-3.2-5.18-3.22-5,0l2.34,41.78c.61-.8,1.22-1.61,1.84-2.41l-14.33,2.13c-1.39.21-3.41.75-4.41-.4a6.84,6.84,0,0,1-1.11-3.49c-.49-4.55-.5-9.2-.74-13.78l-.75-14.45q-.42-8.22-.85-16.45c-.16-3.19-5.16-3.21-5,0Z"/><path class="cls-1" d="M70.84,280.6a452.87,452.87,0,0,0,32.57,77.18c4.87-1.77,6.77-9.1,5.86-16.13s-4-13.86-7-20.45L73.34,258.42"/><path class="cls-1" d="M68.43,281.27a460.15,460.15,0,0,0,24.34,61.15q4.07,8.4,8.48,16.64a2.5,2.5,0,0,0,2.82,1.15c5.84-2.28,7.78-8.8,7.91-14.57.17-7.33-2.59-14.42-5.49-21-6.34-14.46-13.18-28.71-19.78-43.05L75.49,257.18a2.52,2.52,0,0,0-3.42-.9,2.57,2.57,0,0,0-.9,3.42l18.91,41.1q4.68,10.15,9.35,20.32c2.88,6.26,5.9,12.58,7.14,19.42a22.25,22.25,0,0,1-.14,9.3c-.56,2.23-1.77,4.79-3.7,5.54l2.82,1.15a448.42,448.42,0,0,1-26.44-59.25Q76,288.67,73.23,280c-1-3.07-5.78-1.76-4.8,1.32Z"/><path class="cls-1" d="M346.8,266.71l-.39,49.14c-.05,6.27.16,13.46,3.24,17.41,2.49,3.2,6,3.1,9.22,2.84q.08-22.16.16-44.3"/><path class="cls-1" d="M344.3,266.71q-.14,17.49-.28,35c0,5.66-.18,11.33-.11,17,.06,4.66.35,9.58,2.38,13.86a10.5,10.5,0,0,0,5.58,5.37,15.61,15.61,0,0,0,7,.67,2.55,2.55,0,0,0,2.5-2.5q.08-22.16.16-44.3c0-3.22-5-3.22-5,0q-.07,22.15-.16,44.3l2.5-2.5a12,12,0,0,1-5.19-.31,6.09,6.09,0,0,1-3.21-3.57c-1.56-3.8-1.55-8.21-1.56-12.25,0-10.8.16-21.6.25-32.39l.15-18.36c0-3.23-5-3.24-5,0Z"/><path class="cls-2" d="M139.11,286.59c-26.08-42.91-48.34-90-50.65-140.28S107.59,42.24,151.32,17.8c16.45-9.19,35.17-13.86,54-15C234,1,263.86,7.7,287.07,24.85c37.2,27.48,52,77.71,48.79,124S314.17,238.76,296,281.39"/><path class="cls-3" d="M141.27,285.33c-13.1-21.57-25.15-43.92-34.26-67.5-9-23.25-15.15-47.77-16.1-72.75a159.54,159.54,0,0,1,9.49-60.8c6.92-18.92,17.84-36.56,32.73-50.23C150.37,18.22,172.56,9.17,195.64,6.2c23.62-3,48.48-.48,70.34,9.3a105.9,105.9,0,0,1,47.49,42.43c10.78,17.9,16.95,38.45,19.24,59.16,2.62,23.63,0,47.4-5.48,70.44-6.15,25.77-15.76,50.57-26,75-2.46,5.89-5,11.76-7.48,17.63a2.58,2.58,0,0,0,.9,3.42,2.51,2.51,0,0,0,3.42-.9c10.63-24.88,21.28-49.85,29.08-75.8,7.32-24.34,12.24-49.83,11.53-75.34-.61-21.72-5.09-43.45-14.15-63.24s-23-37.21-41.31-49.09C262.79,5.88,238.07-.07,213.82,0c-25,.07-50.57,6.21-71.4,20.34-17.39,11.79-31,28.51-40.28,47.26a160.48,160.48,0,0,0-16,61.36c-1.49,24.28,2.59,48.79,9.74,71.95,7.65,24.78,18.9,48.34,31.66,70.86q4.59,8.12,9.44,16.07c1.69,2.76,6,.25,4.34-2.51Z"/><path class="cls-2" d="M137.85,283.07A232.58,232.58,0,0,0,87,355.29c-5.88,13.11-10.55,28.23-5.37,41.63,4.46,11.54,15.25,19.22,25.83,25.56a311.9,311.9,0,0,0,193,42.17c23.65-2.61,48.86-9.06,63.89-27.6,22.42-27.65,12.48-69.76-6.79-99.71a198.82,198.82,0,0,0-61.07-60.5"/><path class="cls-3" d="M136.08,281.3A235.28,235.28,0,0,0,95.6,333.06,192,192,0,0,0,81.2,363c-3.81,10.49-6.07,22.34-2.45,33.21,3.27,9.82,10.8,17.16,19.06,23,8.72,6.17,18.28,11.3,27.8,16.1a314.8,314.8,0,0,0,62.12,23.43,317,317,0,0,0,65.89,9.93,305.32,305.32,0,0,0,33.14-.33,227.9,227.9,0,0,0,31-3.85c18.9-3.86,37.77-11.73,49.74-27.5,11.61-15.29,13.88-35.08,10.9-53.58-3.15-19.59-11.88-37.89-23.22-54a203.13,203.13,0,0,0-44.6-45.88q-6.25-4.67-12.87-8.84c-2.73-1.72-5.24,2.6-2.52,4.32a197.49,197.49,0,0,1,46.58,41c12.36,14.93,22.75,31.7,28.44,50.33,5.19,17,6.86,36.25-.41,52.9a54.18,54.18,0,0,1-16.6,21.17,77.32,77.32,0,0,1-24.36,12.11A150.4,150.4,0,0,1,301.32,462,299,299,0,0,1,269.1,464a311,311,0,0,1-125.38-25.67,304.17,304.17,0,0,1-29-14.51c-8.56-4.87-17.37-10-24.07-17.31a32.83,32.83,0,0,1-7.13-11.85,36.09,36.09,0,0,1-1.23-15.7c1.33-10.73,6-20.91,10.77-30.51A230.44,230.44,0,0,1,128.82,296q5.22-5.74,10.82-11.13c2.3-2.22-1.24-5.75-3.56-3.52Z"/><path class="cls-4" d="M138.7,288.75a139.07,139.07,0,0,1,56.07-22.19,135.33,135.33,0,0,1,30.36-1.38,170,170,0,0,1,32.81,5.8c12.34,3.31,24.41,7.54,36.47,11.77a2.5,2.5,0,1,0,1.33-4.83c-21.84-7.67-44-15.34-67.15-17.47a142.82,142.82,0,0,0-92.4,24c-2.66,1.8-.16,6.13,2.51,4.32Z"/><path class="cls-2" d="M107.24,209.34a424.24,424.24,0,0,0-73.47,53.11c-14.37,13-27.94,27.64-31.07,44.86-.33,1.8-.49,3.77.75,5.35,1.8,2.29,5.74,2.8,9.12,2.75,17.88-.24,33.35-8.83,46.76-17.78a340.27,340.27,0,0,0,72.21-64.16"/><path class="cls-3" d="M106,207.18a440.51,440.51,0,0,0-54,36.59C43.71,250.3,35.68,257.13,28,264.34c-7.34,6.92-14.36,14.36-19.78,22.91A60.65,60.65,0,0,0,2,300.08a43.9,43.9,0,0,0-1.76,6.76c-.46,2.7-.42,5.39,1.42,7.59,3.05,3.65,8.79,3.64,13.11,3.41a65.55,65.55,0,0,0,15.53-2.74c9.58-2.89,18.48-7.69,26.87-13.08,8.94-5.74,17.57-12,25.94-18.53a334,334,0,0,0,45.33-42.6c1.64-1.86,3.25-3.75,4.84-5.65a2.57,2.57,0,0,0,0-3.54,2.53,2.53,0,0,0-3.54,0,329.09,329.09,0,0,1-42.39,42q-11.81,9.76-24.44,18.47c-8,5.51-16.15,10.83-25,14.79-8.49,3.79-18.37,6.63-27.75,5.88-1.51-.12-3.74-.41-4.74-1.71s-.18-3.92.18-5.44a49,49,0,0,1,4.84-12.3C15,285.09,21.3,277.92,28,271.3c7.17-7.09,14.83-13.71,22.63-20.09a426.32,426.32,0,0,1,51.08-35.75c2.25-1.35,4.51-2.67,6.79-4,2.79-1.58.27-5.91-2.53-4.3Z"/><path class="cls-2" d="M321.59,203.85c45.54,16.29,85,48,110.14,88.37C438,302.36,443,316.65,434.29,325c-7.78,7.52-20.89,4.47-30.57-.41C386,315.69,371,302.47,356.43,289.16Q327.87,263,300.59,235.59"/><path class="cls-3" d="M320.93,206.26a215.91,215.91,0,0,1,56.54,30.55,210.64,210.64,0,0,1,44.28,45c5.86,8.13,12.23,16.88,14.24,26.9.83,4.13.71,8.6-1.58,12.26a13.65,13.65,0,0,1-10.61,6c-10.54.85-20.64-5-29.23-10.42-10.14-6.36-19.4-14-28.34-21.92-19.55-17.37-38.44-35.53-57-54q-3.45-3.44-6.88-6.88c-2.27-2.28-5.81,1.25-3.54,3.54q28.85,29,59.1,56.55c9.27,8.42,18.78,16.64,29.14,23.72,9.39,6.42,19.88,12.87,31.4,14.23,5,.59,10.33,0,14.64-2.73a17.73,17.73,0,0,0,8.06-12.2c1.67-10.66-4-21-9.57-29.59a214.45,214.45,0,0,0-44.12-49,222.33,222.33,0,0,0-57.43-34c-2.57-1-5.17-2-7.78-3a2.52,2.52,0,0,0-3.08,1.75,2.56,2.56,0,0,0,1.75,3.09Z"/><path class="cls-5" d="M172.31,106.59c-5.26.31-10.28,5-9.89,10.25a11,11,0,0,0,4.16,7.41c5.89,4.93,16.39,3.74,19.66-3.23s-4.8-16.53-11.72-13.24"/><path class="cls-3" d="M172.31,104.09c-6.22.47-12.05,5.25-12.4,11.74-.33,6.21,4.92,11.55,10.55,13.23a16.27,16.27,0,0,0,14.82-2.79c4.38-3.63,5.23-9.49,2.76-14.47-2.71-5.46-9-8.8-14.78-6.18a2.52,2.52,0,0,0-.9,3.42,2.56,2.56,0,0,0,3.42.9,4.74,4.74,0,0,1,3.75.13,8.36,8.36,0,0,1,3.62,3.25c1.85,3,1.81,6.23-.6,8.68a9.1,9.1,0,0,1-4,2.3,12.48,12.48,0,0,1-4.78.38c-3.73-.49-7.47-2.8-8.6-6.73-1.27-4.4,2.9-8.54,7.16-8.86a2.56,2.56,0,0,0,2.5-2.5,2.51,2.51,0,0,0-2.5-2.5Z"/><path class="cls-5" d="M230.49,108.91c-4.47,5.66-1.74,15.48,5.07,17.82s15-4,14.34-11.23-10.23-11.83-16.17-7.75"/><path class="cls-3" d="M228.33,107.64c-6.3,8.17-.2,22.41,10.54,22.06a14.53,14.53,0,0,0,12.56-8.63,11.91,11.91,0,0,0-3.36-13.84c-4.26-3.59-10.74-4.89-15.59-1.65a2.56,2.56,0,0,0-.9,3.42,2.53,2.53,0,0,0,3.42.9,9.36,9.36,0,0,1,1.19-.68c-.48.24.17-.06.24-.09l.64-.2.65-.15c.69-.16-.49,0,.22,0a13.71,13.71,0,0,1,1.57,0c.07,0,.81.09.24,0l.56.1c.41.08.82.19,1.22.31l.65.23c.69.24-.4-.23.25.11.48.25.95.49,1.41.78l.57.39c.59.42-.31-.32.21.18.34.31.68.61,1,1l.3.34c.48.53-.23-.38.16.21.29.44.55.89.81,1.36s-.12-.43.1.23c.07.22.15.43.21.65s.12.44.16.67c0,.07.09.8.05.25a6.13,6.13,0,0,1-.18,2.55,8.54,8.54,0,0,1-3,4.47,10.36,10.36,0,0,1-2,1.29s-.75.35-.32.17c-.23.1-.47.18-.7.26a11.93,11.93,0,0,1-1.69.42c.51-.09-.28,0-.32,0a6.1,6.1,0,0,1-.74,0c-.25,0-.49,0-.74,0-.08,0-.49-.07-.07,0a6.26,6.26,0,0,1-2.53-.87c-.2-.11-.39-.23-.58-.36s-.62-.49-.22-.15a10.89,10.89,0,0,1-1-.93,6.84,6.84,0,0,1-1.34-1.89c-.11-.2-.21-.41-.31-.61s-.13-.28-.19-.42c.1.24.1.23,0,0-.17-.52-.34-1-.47-1.55,0-.23-.1-.45-.14-.68s-.05-.3-.07-.46c0,.28,0,.27,0,0,0-.46-.06-.92-.05-1.38,0-.23,0-.46,0-.69s0-.3,0-.46c0,.29,0,.28,0,0a14.06,14.06,0,0,1,.39-1.55c.07-.22.15-.43.24-.64-.21.48.19-.35.24-.43a10,10,0,0,1,.89-1.34,2.5,2.5,0,0,0-4.3-2.55Z"/><path class="cls-5" d="M177.21,160.24c-4.92.31-9.62,5-9.25,10.25a11.25,11.25,0,0,0,3.89,7.41c5.51,4.93,15.34,3.74,18.4-3.23s-4.49-16.53-11-13.24"/><path class="cls-3" d="M177.21,157.74a12.8,12.8,0,0,0-11.76,11.62c-.39,6.08,4.43,11.58,10,13.35a14.76,14.76,0,0,0,14.09-2.86c4.17-3.71,4.82-9.51,2.53-14.41-2.47-5.27-8.43-8.89-14-6.17a2.52,2.52,0,0,0-.9,3.42,2.56,2.56,0,0,0,3.42.9c.71-.34-.38.09.35-.14l.47-.13c.72-.18-.45,0,.29,0h.47c.06,0,.82.08.28,0a3.41,3.41,0,0,1,.46.1q.34.09.69.21c.48.17-.2-.13.3.13a8.08,8.08,0,0,1,3.33,3.2,8.38,8.38,0,0,1,1.27,4.51,6.93,6.93,0,0,1-1.54,4,8.19,8.19,0,0,1-3.83,2.53,10,10,0,0,1-2.15.44c-.44,0-.88,0-1.31,0l-.53,0-.53-.05-.12,0a9.34,9.34,0,0,1-4.5-1.88c.32.24-.36-.32-.33-.29l-.49-.46a10.26,10.26,0,0,1-.94-1,8.8,8.8,0,0,1-1.54-3.09c-1.1-4.2,2.59-8.47,6.56-8.79a2.56,2.56,0,0,0,2.5-2.5,2.5,2.5,0,0,0-2.49-2.51Z"/><path class="cls-5" d="M234.8,157.8c-4.92.31-9.62,5-9.25,10.25a11.25,11.25,0,0,0,3.89,7.41c5.51,4.93,15.34,3.74,18.4-3.23s-4.49-16.53-11-13.24"/><path class="cls-3" d="M234.8,155.3A12.8,12.8,0,0,0,223,166.92c-.39,6.08,4.43,11.58,10,13.35a14.76,14.76,0,0,0,14.09-2.86c4.17-3.71,4.82-9.51,2.53-14.41-2.47-5.27-8.43-8.89-14-6.17a2.52,2.52,0,0,0-.9,3.42,2.56,2.56,0,0,0,3.42.9c.71-.34-.38.09.35-.14l.47-.13c.72-.18-.45,0,.29,0h.47c.06,0,.82.08.28,0a3.41,3.41,0,0,1,.46.1q.35.09.69.21c.48.17-.2-.13.3.13a8.08,8.08,0,0,1,3.33,3.2A8.38,8.38,0,0,1,246,169a6.93,6.93,0,0,1-1.54,4,8.19,8.19,0,0,1-3.83,2.53,10,10,0,0,1-2.15.44c-.44,0-.88,0-1.31,0l-.53,0-.53-.05-.12,0a9.34,9.34,0,0,1-4.5-1.88c.32.24-.36-.32-.33-.29l-.49-.46a10.26,10.26,0,0,1-.94-1,8.8,8.8,0,0,1-1.54-3.09c-1.1-4.2,2.59-8.47,6.56-8.79a2.56,2.56,0,0,0,2.5-2.5,2.51,2.51,0,0,0-2.49-2.51Z"/></g></g></svg>