<?xml version="1.0" encoding="utf-8"?>
<!-- Generator: Adobe Illustrator 23.1.1, SVG Export Plug-In . SVG Version: 6.00 Build 0)  -->
<svg version="1.1" id="Layer_1" xmlns="http://www.w3.org/2000/svg" xmlns:xlink="http://www.w3.org/1999/xlink" x="0px" y="0px"
	 viewBox="0 0 595.28 841.89" style="enable-background:new 0 0 595.28 841.89;" xml:space="preserve">
<style type="text/css">
	.st0{fill:#C49A6C;}
	.st1{fill:#E2A925;}
	.st2{fill:#B1862D;}
	.st3{fill:#B1802C;}
	.st4{fill:#B1872D;}
</style>
<g>
	<path class="st0" d="M193.28,504.07c-0.8,29.83-1.6,59.66-2.4,89.49c7.26-1.12,14.63-1.52,21.96-1.18
		c-2.3-32.37-4.6-64.74-6.9-97.11"/>
	<g>
		<path class="st0" d="M190.78,504.07c-0.62,23.2-1.24,46.4-1.87,69.6c-0.18,6.63-0.36,13.26-0.53,19.89
			c-0.05,1.78,1.63,2.65,3.16,2.41c7.04-1.07,14.18-1.4,21.3-1.09c1.28,0.06,2.59-1.19,2.5-2.5c-1.79-25.23-3.59-50.46-5.38-75.69
			c-0.51-7.14-1.01-14.28-1.52-21.41c-0.1-1.35-1.08-2.5-2.5-2.5c-1.28,0-2.6,1.15-2.5,2.5c1.79,25.23,3.59,50.46,5.38,75.69
			c0.51,7.14,1.01,14.28,1.52,21.41c0.83-0.83,1.67-1.67,2.5-2.5c-7.58-0.34-15.13,0.12-22.63,1.26c1.05,0.8,2.11,1.61,3.16,2.41
			c0.62-23.2,1.24-46.4,1.87-69.6c0.18-6.63,0.36-13.26,0.53-19.89C195.86,500.85,190.86,500.85,190.78,504.07L190.78,504.07z"/>
	</g>
</g>
<g>
	<path class="st0" d="M370.93,521.05c-0.89,17.06-0.49,34.24,1.18,51.21c6.34-2.73,12.97-4.34,19.66-4.8
		c0.05-16.96,0.09-33.92,0.14-50.88"/>
	<g>
		<path class="st0" d="M368.43,521.05c-0.87,17.07-0.48,34.19,1.18,51.21c0.2,2.02,1.94,2.93,3.76,2.16
			c5.82-2.48,12.08-4,18.39-4.45c1.35-0.1,2.5-1.07,2.5-2.5c0.05-16.96,0.09-33.92,0.14-50.88c0.01-3.22-4.99-3.22-5,0
			c-0.05,16.96-0.09,33.92-0.14,50.88c0.83-0.83,1.67-1.67,2.5-2.5c-7.26,0.52-14.23,2.29-20.92,5.14c1.25,0.72,2.51,1.44,3.76,2.16
			c-1.66-17.01-2.05-34.14-1.18-51.21C373.59,517.83,368.59,517.84,368.43,521.05L368.43,521.05z"/>
	</g>
</g>
<g>
	<path class="st0" d="M414.09,512.88c-0.8,29.83-1.6,59.66-2.4,89.49c7.26-1.12,14.63-1.52,21.96-1.18
		c-2.3-32.37-4.6-64.74-6.9-97.11"/>
	<g>
		<path class="st0" d="M411.59,512.88c-0.62,23.2-1.24,46.4-1.87,69.6c-0.18,6.63-0.36,13.26-0.53,19.89
			c-0.05,1.78,1.63,2.64,3.16,2.41c7.04-1.07,14.18-1.4,21.3-1.09c1.28,0.06,2.59-1.19,2.5-2.5c-1.79-25.23-3.59-50.46-5.38-75.69
			c-0.51-7.14-1.01-14.28-1.52-21.41c-0.1-1.35-1.08-2.5-2.5-2.5c-1.28,0-2.6,1.15-2.5,2.5c1.79,25.23,3.59,50.46,5.38,75.69
			c0.51,7.14,1.01,14.28,1.52,21.41c0.83-0.83,1.67-1.67,2.5-2.5c-7.58-0.34-15.13,0.12-22.63,1.26c1.05,0.8,2.11,1.61,3.16,2.41
			c0.62-23.2,1.24-46.4,1.87-69.6c0.18-6.63,0.36-13.26,0.53-19.89C416.68,509.66,411.68,509.66,411.59,512.88L411.59,512.88z"/>
	</g>
</g>
<g>
	<path class="st0" d="M230.66,509.7c0.75,14.45,1.5,28.9,2.24,43.36c0.15,2.9,0.66,6.37,3.29,7.57c1.38,0.63,2.99,0.42,4.49,0.2
		c5.11-0.76,10.21-1.52,15.32-2.28c-0.78-13.93-1.56-27.85-2.34-41.78"/>
	<g>
		<path class="st0" d="M228.16,509.7c0.55,10.55,1.09,21.1,1.64,31.64c0.25,4.86,0.17,9.88,0.92,14.7c0.68,4.39,3.58,7.78,8.31,7.48
			c2.92-0.18,5.86-0.82,8.75-1.25c2.96-0.44,5.93-0.88,8.89-1.33c1.02-0.15,1.89-1.42,1.84-2.41c-0.78-13.93-1.56-27.85-2.34-41.78
			c-0.18-3.2-5.18-3.22-5,0c0.78,13.93,1.56,27.85,2.34,41.78c0.61-0.8,1.22-1.61,1.84-2.41c-4.78,0.71-9.55,1.42-14.33,2.13
			c-1.39,0.21-3.41,0.75-4.41-0.4c-0.72-0.83-0.98-2.32-1.11-3.49c-0.49-4.55-0.5-9.2-0.74-13.78c-0.25-4.82-0.5-9.63-0.75-14.45
			c-0.28-5.48-0.57-10.96-0.85-16.45C233,506.49,228,506.47,228.16,509.7L228.16,509.7z"/>
	</g>
</g>
<g>
	<path class="st0" d="M146.24,359.91c8.45,26.68,19.43,52.7,32.57,77.18c4.87-1.77,6.77-9.1,5.86-16.13
		c-0.91-7.03-4.01-13.86-7.04-20.45c-9.63-20.93-19.26-41.85-28.89-62.78"/>
	<g>
		<path class="st0" d="M143.83,360.58c6.64,20.93,14.78,41.38,24.34,61.15c2.71,5.6,5.54,11.15,8.48,16.64
			c0.48,0.89,1.83,1.54,2.82,1.15c5.84-2.28,7.78-8.8,7.91-14.57c0.17-7.33-2.59-14.42-5.49-21.02
			c-6.34-14.46-13.18-28.71-19.78-43.05c-3.74-8.13-7.48-16.26-11.22-24.39c-0.56-1.23-2.34-1.53-3.42-0.9
			c-1.26,0.74-1.46,2.19-0.9,3.42c6.3,13.7,12.61,27.4,18.91,41.1c3.12,6.77,6.23,13.55,9.35,20.32c2.88,6.26,5.9,12.58,7.14,19.42
			c0.55,3.05,0.62,6.28-0.14,9.3c-0.56,2.23-1.77,4.79-3.7,5.54c0.94,0.38,1.88,0.77,2.82,1.15
			c-10.23-19.08-19.07-38.89-26.44-59.25c-2.08-5.74-4.03-11.52-5.88-17.33C147.68,356.19,142.85,357.5,143.83,360.58L143.83,360.58
			z"/>
	</g>
</g>
<g>
	<path class="st0" d="M422.2,346.02c-0.13,16.38-0.26,32.76-0.39,49.14c-0.05,6.27,0.16,13.46,3.24,17.41
		c2.49,3.2,6.02,3.1,9.22,2.84c0.05-14.77,0.11-29.53,0.16-44.3"/>
	<g>
		<path class="st0" d="M419.7,346.02c-0.09,11.66-0.18,23.33-0.28,34.99c-0.04,5.66-0.18,11.33-0.11,17
			c0.06,4.66,0.35,9.58,2.38,13.86c1.15,2.42,3.07,4.38,5.58,5.37c2.22,0.88,4.65,0.85,6.99,0.67c1.35-0.1,2.49-1.06,2.5-2.5
			c0.05-14.77,0.11-29.53,0.16-44.3c0.01-3.22-4.99-3.22-5,0c-0.05,14.77-0.11,29.53-0.16,44.3c0.83-0.83,1.67-1.67,2.5-2.5
			c-1.71,0.13-3.55,0.32-5.19-0.31c-1.57-0.6-2.59-2.06-3.21-3.57c-1.56-3.8-1.55-8.21-1.56-12.25c-0.03-10.8,0.16-21.6,0.25-32.39
			c0.05-6.12,0.1-12.24,0.15-18.36C424.72,342.8,419.72,342.79,419.7,346.02L419.7,346.02z"/>
	</g>
</g>
<g>
	<path class="st1" d="M214.51,365.9c-26.08-42.91-48.34-90.05-50.65-140.28c-2.31-50.23,19.13-104.07,62.86-128.51
		c16.45-9.19,35.17-13.86,53.96-15.02c28.75-1.77,58.58,4.92,81.79,22.07c37.2,27.48,52.02,77.71,48.79,123.99
		c-3.23,46.28-21.69,89.92-39.91,132.55"/>
	<g>
		<path class="st2" d="M216.67,364.64c-13.1-21.57-25.15-43.92-34.26-67.5c-8.98-23.25-15.15-47.77-16.1-72.75
			c-0.79-20.63,2.39-41.41,9.49-60.8c6.92-18.92,17.84-36.56,32.73-50.23c17.24-15.83,39.43-24.88,62.51-27.85
			c23.62-3.04,48.48-0.48,70.34,9.3c19.94,8.92,36.25,23.76,47.49,42.43c10.78,17.9,16.95,38.45,19.24,59.16
			c2.62,23.63,0.02,47.4-5.48,70.44c-6.15,25.77-15.76,50.57-25.97,74.96c-2.46,5.89-4.97,11.76-7.48,17.63
			c-0.53,1.24-0.37,2.68,0.9,3.42c1.05,0.62,2.89,0.35,3.42-0.9c10.63-24.88,21.28-49.85,29.08-75.8
			c7.32-24.34,12.24-49.83,11.53-75.34c-0.61-21.72-5.09-43.45-14.15-63.24c-9.04-19.75-23.02-37.21-41.31-49.09
			c-20.46-13.29-45.18-19.24-69.43-19.17c-24.97,0.07-50.57,6.21-71.4,20.34c-17.39,11.79-30.98,28.51-40.28,47.26
			c-9.46,19.08-14.75,40.13-16.05,61.36c-1.49,24.28,2.59,48.79,9.74,71.95c7.65,24.78,18.9,48.34,31.66,70.86
			c3.06,5.41,6.22,10.76,9.44,16.07C214.02,369.91,218.35,367.4,216.67,364.64L216.67,364.64z"/>
	</g>
</g>
<g>
	<path class="st1" d="M213.25,362.38c-21.33,20.51-38.68,45.17-50.82,72.22c-5.88,13.11-10.55,28.23-5.37,41.63
		c4.46,11.54,15.25,19.22,25.83,25.56c57.54,34.48,126.38,49.52,192.97,42.17c23.65-2.61,48.86-9.06,63.89-27.6
		c22.42-27.65,12.48-69.76-6.79-99.71c-15.64-24.32-36.65-45.13-61.07-60.5"/>
	<g>
		<path class="st2" d="M211.48,360.61c-15.82,15.24-29.5,32.73-40.48,51.76c-5.51,9.55-10.62,19.55-14.4,29.93
			c-3.81,10.49-6.07,22.34-2.45,33.21c3.27,9.82,10.8,17.16,19.06,23.01c8.72,6.17,18.28,11.3,27.8,16.1
			c19.8,9.97,40.67,17.84,62.12,23.43c21.52,5.61,43.67,8.95,65.89,9.93c11.04,0.49,22.11,0.38,33.14-0.33
			c10.4-0.67,20.83-1.76,31.04-3.85c18.9-3.86,37.77-11.73,49.74-27.5c11.61-15.29,13.88-35.08,10.9-53.58
			c-3.15-19.59-11.88-37.89-23.22-54.02c-12.33-17.55-27.42-33.04-44.6-45.88c-4.17-3.11-8.46-6.06-12.87-8.84
			c-2.73-1.72-5.24,2.6-2.52,4.32c17.58,11.1,33.32,24.99,46.58,41c12.36,14.93,22.75,31.7,28.44,50.33
			c5.19,16.98,6.86,36.25-0.41,52.9c-3.64,8.34-9.4,15.62-16.6,21.17c-7.23,5.57-15.68,9.41-24.36,12.11
			c-8.96,2.79-18.25,4.47-27.56,5.54c-10.69,1.22-21.46,1.85-32.22,1.91c-21.48,0.13-42.96-1.99-64-6.31
			c-21.04-4.32-41.69-10.78-61.38-19.36c-9.92-4.32-19.61-9.16-29.01-14.51c-8.56-4.87-17.37-9.97-24.07-17.31
			c-3.13-3.43-5.69-7.42-7.13-11.85c-1.65-5.07-1.89-10.43-1.23-15.7c1.33-10.73,6.01-20.91,10.77-30.51
			c9.44-19.02,21.49-36.73,35.77-52.45c3.48-3.83,7.09-7.54,10.82-11.13C217.34,361.91,213.8,358.38,211.48,360.61L211.48,360.61z"
			/>
	</g>
</g>
<g>
	<g>
		<path class="st3" d="M214.1,368.06c16.8-11.42,36.02-18.97,56.07-22.19c10.02-1.61,20.24-2.05,30.36-1.38
			c11.11,0.73,22.07,2.92,32.81,5.8c12.34,3.31,24.41,7.54,36.47,11.77c1.27,0.45,2.74-0.51,3.08-1.75
			c0.38-1.38-0.47-2.63-1.75-3.08c-21.84-7.67-43.95-15.34-67.15-17.47c-20.6-1.89-41.68,0.96-61.11,8.03
			c-11.04,4.02-21.58,9.35-31.29,15.95C208.93,365.54,211.43,369.87,214.1,368.06L214.1,368.06z"/>
	</g>
</g>
<g>
	<path class="st1" d="M182.64,288.65c-26.94,15.48-51.62,33.32-73.47,53.11C94.8,354.77,81.23,369.4,78.1,386.62
		c-0.33,1.8-0.49,3.77,0.75,5.35c1.8,2.29,5.74,2.8,9.12,2.75c17.88-0.24,33.35-8.83,46.76-17.78
		c27.79-18.55,52.17-40.21,72.21-64.16"/>
	<g>
		<path class="st2" d="M181.37,286.49c-18.87,10.86-36.96,23.06-54.02,36.59c-8.24,6.53-16.27,13.36-23.92,20.57
			c-7.34,6.92-14.36,14.36-19.78,22.91c-2.55,4.02-4.7,8.32-6.24,12.83c-0.75,2.2-1.37,4.47-1.76,6.76
			c-0.46,2.7-0.42,5.39,1.42,7.59c3.05,3.65,8.79,3.64,13.11,3.41c5.26-0.27,10.49-1.22,15.53-2.74
			c9.58-2.89,18.48-7.69,26.87-13.08c8.94-5.74,17.57-11.99,25.94-18.53c16.36-12.78,31.62-27,45.33-42.6
			c1.64-1.86,3.25-3.75,4.84-5.65c0.87-1.03,1.01-2.52,0-3.54c-0.89-0.89-2.66-1.04-3.54,0c-12.8,15.27-27.05,29.29-42.39,41.99
			c-7.87,6.51-16.04,12.67-24.44,18.47c-7.97,5.51-16.15,10.83-25.03,14.79c-8.49,3.79-18.37,6.63-27.75,5.88
			c-1.51-0.12-3.74-0.41-4.74-1.71c-1.07-1.39-0.18-3.92,0.18-5.44c1.03-4.32,2.7-8.42,4.84-12.3c4.56-8.29,10.88-15.46,17.58-22.08
			c7.17-7.09,14.83-13.71,22.63-20.09c16.1-13.17,33.23-25.07,51.08-35.75c2.25-1.35,4.51-2.67,6.79-3.98
			C186.69,289.21,184.17,284.88,181.37,286.49L181.37,286.49z"/>
	</g>
</g>
<g>
	<path class="st1" d="M396.99,283.16c45.54,16.29,85.03,47.97,110.14,88.37c6.3,10.14,11.25,24.43,2.56,32.82
		c-7.78,7.52-20.89,4.47-30.57-0.41c-17.74-8.94-32.75-22.16-47.29-35.47c-19.04-17.43-37.66-35.29-55.84-53.57"/>
	<g>
		<path class="st2" d="M396.33,285.57c20.25,7.26,39.34,17.65,56.54,30.55c16.87,12.66,31.94,27.9,44.28,45
			c5.86,8.13,12.23,16.88,14.24,26.9c0.83,4.13,0.71,8.6-1.58,12.26c-2.3,3.66-6.39,5.68-10.61,6.02
			c-10.54,0.85-20.64-5.03-29.23-10.42c-10.14-6.36-19.4-13.98-28.34-21.92c-19.55-17.37-38.44-35.53-56.99-53.96
			c-2.3-2.29-4.59-4.58-6.88-6.88c-2.27-2.28-5.81,1.25-3.54,3.54c19.23,19.33,38.92,38.22,59.1,56.55
			c9.27,8.42,18.78,16.64,29.14,23.72c9.39,6.42,19.88,12.87,31.4,14.23c4.98,0.59,10.33-0.01,14.64-2.73
			c4.3-2.71,7.27-7.17,8.06-12.2c1.67-10.66-3.96-20.97-9.57-29.59c-12.04-18.49-27.02-35.05-44.12-49
			c-17.33-14.13-36.69-25.6-57.43-33.95c-2.57-1.04-5.17-2.02-7.78-2.96c-1.27-0.46-2.74,0.51-3.08,1.75
			C394.2,283.88,395.05,285.11,396.33,285.57L396.33,285.57z"/>
	</g>
</g>
<g>
	<path class="st4" d="M247.71,185.9c-5.26,0.31-10.28,4.96-9.89,10.25c0.21,2.91,1.93,5.55,4.16,7.41
		c5.89,4.93,16.39,3.74,19.66-3.23c3.27-6.96-4.8-16.53-11.72-13.24"/>
	<g>
		<path class="st2" d="M247.71,183.4c-6.22,0.47-12.05,5.25-12.4,11.74c-0.33,6.21,4.92,11.55,10.55,13.23
			c5.01,1.49,10.76,0.57,14.82-2.79c4.38-3.63,5.23-9.49,2.76-14.47c-2.71-5.46-8.98-8.8-14.78-6.18c-1.23,0.56-1.53,2.34-0.9,3.42
			c0.74,1.27,2.18,1.45,3.42,0.9c1.15-0.52,2.67-0.38,3.75,0.13c1.59,0.74,2.75,1.86,3.62,3.25c1.85,2.95,1.81,6.23-0.6,8.68
			c-1.11,1.12-2.49,1.86-4.02,2.3c-1.55,0.44-3.34,0.57-4.78,0.38c-3.73-0.49-7.47-2.8-8.6-6.73c-1.27-4.4,2.9-8.54,7.16-8.86
			c1.35-0.1,2.5-1.08,2.5-2.5C250.21,184.62,249.06,183.29,247.71,183.4L247.71,183.4z"/>
	</g>
</g>
<g>
	<path class="st4" d="M305.89,188.22c-4.47,5.66-1.74,15.48,5.07,17.82c6.81,2.33,15.03-4.03,14.34-11.23
		c-0.69-7.2-10.23-11.83-16.17-7.75"/>
	<g>
		<path class="st2" d="M303.73,186.95c-6.3,8.17-0.2,22.41,10.54,22.06c5.36-0.18,10.46-3.71,12.56-8.63
			c2.08-4.88,0.69-10.42-3.36-13.84c-4.26-3.59-10.74-4.89-15.59-1.65c-1.12,0.75-1.61,2.21-0.9,3.42c0.65,1.11,2.29,1.65,3.42,0.9
			c0.38-0.26,0.78-0.48,1.19-0.68c-0.48,0.24,0.17-0.06,0.24-0.09c0.21-0.07,0.43-0.14,0.64-0.2c0.22-0.06,0.44-0.1,0.65-0.15
			c0.69-0.16-0.49,0,0.22-0.03c0.53-0.03,1.04-0.05,1.57-0.02c0.07,0,0.81,0.09,0.24,0.01c0.19,0.03,0.37,0.06,0.56,0.1
			c0.41,0.08,0.82,0.19,1.22,0.31c0.22,0.07,0.43,0.15,0.65,0.23c0.69,0.24-0.4-0.23,0.25,0.11c0.48,0.25,0.95,0.49,1.41,0.78
			c0.19,0.12,0.38,0.26,0.57,0.39c0.59,0.42-0.31-0.32,0.21,0.18c0.34,0.31,0.68,0.61,0.99,0.95c0.1,0.11,0.2,0.23,0.3,0.34
			c0.48,0.53-0.23-0.38,0.16,0.21c0.29,0.44,0.55,0.89,0.81,1.36c0.34,0.61-0.12-0.43,0.1,0.23c0.07,0.22,0.15,0.43,0.21,0.65
			c0.06,0.22,0.12,0.44,0.16,0.67c0.01,0.07,0.09,0.8,0.05,0.25c0.09,1.21,0.07,1.6-0.18,2.55c-0.47,1.78-1.39,3.11-2.96,4.47
			c-0.45,0.39-1.17,0.87-2,1.29c0,0-0.75,0.35-0.32,0.17c-0.23,0.1-0.47,0.18-0.7,0.26c-0.55,0.18-1.11,0.32-1.69,0.42
			c0.51-0.09-0.28,0.03-0.32,0.03c-0.25,0.02-0.49,0.03-0.74,0.02c-0.25,0-0.49-0.02-0.74-0.03c-0.08,0-0.49-0.07-0.07,0
			c-1.23-0.2-1.72-0.41-2.53-0.87c-0.2-0.11-0.39-0.23-0.58-0.36c-0.05-0.03-0.62-0.49-0.22-0.15c-0.35-0.29-0.68-0.6-0.99-0.93
			c-0.63-0.67-0.79-0.88-1.34-1.89c-0.11-0.2-0.21-0.41-0.31-0.61c-0.07-0.14-0.13-0.28-0.19-0.42c0.1,0.24,0.1,0.23-0.01-0.05
			c-0.17-0.52-0.34-1.02-0.47-1.55c-0.05-0.23-0.1-0.45-0.14-0.68c-0.03-0.15-0.05-0.3-0.07-0.46c0.04,0.28,0.04,0.27,0.01-0.02
			c-0.02-0.46-0.06-0.92-0.05-1.38c0-0.23,0.02-0.46,0.03-0.69c0.01-0.15,0.03-0.3,0.04-0.46c-0.04,0.29-0.04,0.28,0.01-0.01
			c0.11-0.52,0.22-1.04,0.39-1.55c0.07-0.22,0.15-0.43,0.24-0.64c-0.21,0.48,0.19-0.35,0.24-0.43c0.26-0.47,0.56-0.92,0.89-1.34
			c0.82-1.07,0.16-2.8-0.9-3.42C305.86,185.3,304.56,185.88,303.73,186.95L303.73,186.95z"/>
	</g>
</g>
<g>
	<path class="st4" d="M252.61,239.55c-4.92,0.31-9.62,4.96-9.25,10.25c0.2,2.91,1.81,5.55,3.89,7.41c5.51,4.93,15.34,3.74,18.4-3.23
		c3.06-6.96-4.49-16.53-10.97-13.24"/>
	<g>
		<path class="st2" d="M252.61,237.05c-6.11,0.49-11.35,5.41-11.76,11.62c-0.39,6.08,4.43,11.58,9.99,13.35
			c4.79,1.52,10.32,0.5,14.09-2.86c4.17-3.71,4.82-9.51,2.53-14.41c-2.47-5.27-8.43-8.89-14.04-6.17c-1.22,0.59-1.54,2.32-0.9,3.42
			c0.73,1.24,2.2,1.49,3.42,0.9c0.71-0.34-0.38,0.09,0.35-0.14c0.16-0.05,0.31-0.09,0.47-0.13c0.72-0.18-0.45-0.01,0.29-0.05
			c0.16-0.01,0.32-0.01,0.47-0.01c0.06,0,0.82,0.08,0.28,0c0.16,0.02,0.31,0.06,0.46,0.1c0.23,0.06,0.46,0.13,0.69,0.21
			c0.48,0.17-0.2-0.13,0.3,0.13c1.46,0.76,2.49,1.79,3.33,3.2c0.85,1.43,1.3,2.92,1.27,4.51c-0.02,1.32-0.68,3-1.54,3.99
			c-1.11,1.28-2.39,2.08-3.83,2.53c-0.84,0.26-1.64,0.41-2.15,0.44c-0.44,0.03-0.88,0.04-1.31,0.03c-0.18-0.01-0.35-0.01-0.53-0.03
			c-0.18-0.01-0.35-0.03-0.53-0.05c0.23,0.03,0.19,0.03-0.12-0.02c-1.82-0.32-3.03-0.77-4.5-1.88c0.32,0.24-0.36-0.32-0.33-0.29
			c-0.17-0.15-0.33-0.3-0.49-0.46c-0.33-0.33-0.66-0.67-0.94-1.04c-0.71-0.92-1.24-1.97-1.54-3.09c-1.1-4.2,2.59-8.47,6.56-8.79
			c1.35-0.11,2.5-1.07,2.5-2.5C255.11,238.28,253.97,236.94,252.61,237.05L252.61,237.05z"/>
	</g>
</g>
<g>
	<path class="st4" d="M310.2,237.11c-4.92,0.31-9.62,4.96-9.25,10.25c0.2,2.91,1.81,5.55,3.89,7.41c5.51,4.93,15.34,3.74,18.4-3.23
		c3.06-6.96-4.49-16.53-10.97-13.24"/>
	<g>
		<path class="st2" d="M310.2,234.61c-6.11,0.49-11.35,5.41-11.76,11.62c-0.39,6.08,4.43,11.58,9.99,13.35
			c4.79,1.52,10.32,0.5,14.09-2.86c4.17-3.71,4.82-9.51,2.53-14.41c-2.47-5.27-8.43-8.89-14.04-6.17c-1.22,0.59-1.54,2.32-0.9,3.42
			c0.73,1.24,2.2,1.49,3.42,0.9c0.71-0.34-0.38,0.09,0.35-0.14c0.16-0.05,0.31-0.09,0.47-0.13c0.72-0.18-0.45-0.01,0.29-0.05
			c0.16-0.01,0.32-0.01,0.47-0.01c0.06,0,0.82,0.08,0.28,0c0.16,0.02,0.31,0.06,0.46,0.1c0.23,0.06,0.46,0.13,0.69,0.21
			c0.48,0.17-0.2-0.13,0.3,0.13c1.46,0.76,2.49,1.79,3.33,3.2c0.85,1.43,1.3,2.92,1.27,4.51c-0.02,1.32-0.68,3-1.54,3.99
			c-1.11,1.28-2.39,2.08-3.83,2.53c-0.84,0.26-1.64,0.41-2.15,0.44c-0.44,0.03-0.88,0.04-1.31,0.03c-0.18-0.01-0.35-0.01-0.53-0.03
			c-0.18-0.01-0.35-0.03-0.53-0.05c0.23,0.03,0.19,0.03-0.12-0.02c-1.82-0.32-3.03-0.77-4.5-1.88c0.32,0.24-0.36-0.32-0.33-0.29
			c-0.17-0.15-0.33-0.3-0.49-0.46c-0.33-0.33-0.66-0.67-0.94-1.04c-0.71-0.92-1.24-1.97-1.54-3.09c-1.1-4.2,2.59-8.47,6.56-8.79
			c1.35-0.11,2.5-1.07,2.5-2.5C312.7,235.84,311.55,234.5,310.2,234.61L310.2,234.61z"/>
	</g>
</g>
</svg>
