<?xml version="1.0" encoding="utf-8"?>
<!-- Generator: Adobe Illustrator 23.1.1, SVG Export Plug-In . SVG Version: 6.00 Build 0)  -->
<svg version="1.1" id="Layer_1" xmlns="http://www.w3.org/2000/svg" xmlns:xlink="http://www.w3.org/1999/xlink" x="0px" y="0px"
	 viewBox="0 0 595.28 841.89" style="enable-background:new 0 0 595.28 841.89;" xml:space="preserve">
<style type="text/css">
	.st0{fill:#205027;}
	.st1{fill:url(#SVGID_1_);}
	.st2{fill:#1F562A;}
	.st3{fill:#1B6131;}
	.st4{fill:#1E411D;}
	.st5{opacity:0.71;}
	.st6{fill:#E6E7E8;}
	.st7{opacity:0.96;}
	.st8{fill:url(#SVGID_2_);}
	.st9{opacity:0.69;}
	.st10{fill:#FFFFFF;}
	.st11{fill:url(#SVGID_3_);stroke:url(#SVGID_4_);stroke-miterlimit:10;}
	.st12{opacity:0.84;}
	.st13{fill:url(#SVGID_5_);}
	.st14{fill:none;stroke:url(#SVGID_6_);stroke-width:17;stroke-miterlimit:10;}
</style>
<g>
	<g>
		<path class="st0" d="M192.23,428.34c0.05,0.42,0.07,0.84,0.04,1.26c0.03-0.43-0.02,0.09-0.04,0.19c-0.05,0.2-0.11,0.39-0.17,0.59
			c-0.17,0.63,0.18-0.26-0.13,0.32c-0.08,0.15-0.15,0.3-0.24,0.45c-0.13,0.22-0.27,0.43-0.41,0.65c-0.04,0.07-0.23,0.33-0.08,0.12
			c-0.54,0.71-1.19,1.34-1.86,1.92c-0.75,0.66-1.12,0.92-2.01,1.54c-3.46,2.41-7.14,4.47-10.99,6.18c-1.23,0.55-1.52,2.35-0.9,3.42
			c0.74,1.27,2.18,1.45,3.42,0.9c4.19-1.87,8.24-4.14,11.94-6.86c3.36-2.47,6.99-6.12,6.41-10.69c-0.17-1.34-1.03-2.5-2.5-2.5
			C193.51,425.84,192.06,426.99,192.23,428.34L192.23,428.34z"/>
	</g>
</g>
<linearGradient id="SVGID_1_" gradientUnits="userSpaceOnUse" x1="115.67" y1="529.2398" x2="457.71" y2="529.2398" gradientTransform="matrix(1 0 0 -1 0 841.8898)">
	<stop  offset="0" style="stop-color:#DCE9F7"/>
	<stop  offset="0.5" style="stop-color:#B9D6EF"/>
	<stop  offset="1" style="stop-color:#78B7E3"/>
</linearGradient>
<circle class="st1" cx="286.69" cy="312.65" r="171.02"/>
<g>
	<path class="st2" d="M184.77,369.32c1.74,26.22-1.83,52.49-5.97,78.44c-0.16,1.03-0.29,2.19,0.36,3c0.57,0.71,1.55,0.9,2.45,1.04
		c14.14,2.25,28.27,4.51,42.41,6.76c-0.09-4.04-1.6-7.91-3.08-11.67c-7.68-19.45-15.36-38.89-23.04-58.34
		c-3.15-7.98-6.34-16.03-11.22-23.09"/>
	<g>
		<path class="st3" d="M182.27,369.32c1.12,17.13,0.01,34.32-2.06,51.34c-1.03,8.51-2.31,17-3.66,25.47
			c-0.29,1.85-0.75,3.89,0.27,5.62c1.01,1.71,2.79,2.26,4.63,2.55c4.27,0.69,8.55,1.36,12.82,2.04c9.7,1.55,19.4,3.09,29.09,4.64
			c1.52,0.24,3.23-0.64,3.16-2.41c-0.24-6.6-3.35-12.78-5.73-18.82c-2.53-6.41-5.06-12.81-7.59-19.22
			c-4.93-12.49-9.76-25.03-14.82-37.47c-2.66-6.54-5.54-13.01-9.55-18.85c-0.76-1.11-2.2-1.61-3.42-0.9c-1.1,0.64-1.66,2.3-0.9,3.42
			c3.41,4.98,6.05,10.42,8.36,15.99c2.48,5.99,4.8,12.05,7.18,18.08c4.88,12.35,9.75,24.69,14.63,37.04
			c1.39,3.53,2.8,7.06,4.18,10.59c1.27,3.26,2.53,6.6,2.65,10.13c1.05-0.8,2.11-1.61,3.16-2.41c-8.3-1.32-16.6-2.65-24.9-3.97
			c-4.11-0.66-8.22-1.31-12.33-1.97c-1.94-0.31-3.94-0.52-5.86-0.95c-0.19-0.04-0.56-0.08-0.67-0.22c0.02,0.03,0.22,0.26,0.25,0.12
			c0.16-0.79,0.19-1.65,0.31-2.45c2.59-16.37,4.93-32.82,5.84-49.38c0.51-9.33,0.55-18.69-0.06-28.03c-0.09-1.35-1.09-2.5-2.5-2.5
			C183.48,366.82,182.18,367.96,182.27,369.32L182.27,369.32z"/>
	</g>
</g>
<g>
	<path class="st2" d="M241.6,390.33c1.74,25.21-1.83,50.47-5.97,75.43c-0.16,0.99-0.29,2.11,0.36,2.88c0.57,0.68,1.55,0.86,2.45,1
		c14.14,2.17,28.27,4.33,42.41,6.5c-0.09-3.89-1.6-7.6-3.08-11.22c-7.68-18.7-15.36-37.4-23.04-56.1
		c-3.15-7.67-6.34-15.42-11.22-22.2"/>
	<g>
		<path class="st4" d="M239.1,390.33c1.13,16.71-0.03,33.47-2.15,50.06c-1.05,8.18-2.37,16.32-3.69,24.46
			c-0.32,2-0.48,4.12,1.08,5.68c1.32,1.32,3.17,1.49,4.92,1.75c4.19,0.64,8.38,1.29,12.57,1.93c9.45,1.45,18.9,2.9,28.35,4.35
			c1.52,0.23,3.23-0.63,3.16-2.41c-0.24-6.3-3.28-12.14-5.63-17.86c-2.52-6.13-5.04-12.26-7.55-18.39
			c-4.97-12.11-9.86-24.27-14.94-36.33c-2.67-6.33-5.56-12.58-9.57-18.19c-0.78-1.1-2.18-1.62-3.42-0.9
			c-1.09,0.63-1.68,2.32-0.9,3.42c7.04,9.88,11.02,21.73,15.6,32.87c4.94,12.03,9.88,24.06,14.82,36.1
			c1.34,3.26,2.69,6.52,4.02,9.78c1.23,3.04,2.44,6.19,2.57,9.51c1.05-0.8,2.11-1.61,3.16-2.41c-8.05-1.23-16.11-2.47-24.16-3.7
			c-4.11-0.63-8.22-1.26-12.33-1.89c-1.81-0.28-3.62-0.55-5.42-0.83c-0.63-0.1-1.27-0.18-1.85-0.4c0.41,0.15,0.11,0.73,0.25-0.01
			c0.09-0.47,0.12-0.97,0.2-1.45c2.63-15.94,5.02-31.96,5.95-48.1c0.52-9,0.56-18.02-0.05-27.02c-0.09-1.35-1.08-2.5-2.5-2.5
			C240.32,387.83,239.01,388.97,239.1,390.33L239.1,390.33z"/>
	</g>
</g>
<g class="st5">
	<path class="st6" d="M280.32,286.75c29.82,0.07,59.64,0.13,89.46,0.2c7.3,0.02,14.62,0.03,21.89-0.69
		c6.34-0.63,13.26-2.2,17.12-7.51c3.87-5.31,1.77-15.11-4.58-15.71c-1.36-0.13-2.89,0.13-3.97-0.76c-0.85-0.71-1.13-1.91-1.41-3.01
		c-2.47-9.65-9.94-17.71-19.07-20.59c-7.6-2.4-15.76-1.33-23.63-0.24c-3.53,0.49-7.1,0.99-10.41,2.35
		c-2.24,0.92-4.33,2.22-6.64,2.92c-4.9,1.48-10.1,0.08-15.18-0.32c-5.08-0.4-10.98,0.68-13.59,5.26c-0.81,1.43-1.32,3.2-2.7,4.02
		c-1.06,0.63-2.35,0.52-3.56,0.36c-6.05-0.81-14.3-1.15-15.95,4.99c-0.4,1.5-0.25,3.13-0.79,4.58c-0.64,1.71-2.11,2.88-3.52,3.96
		c-4.49,3.46-8.97,6.91-13.46,10.37c-0.92,0.71-1.88,1.46-2.34,2.55c-1.01,2.37,0.94,5.2,3.31,5.95s4.92,0.06,7.31-0.63"/>
	<g>
		<path class="st6" d="M280.32,288c27.15,0.06,54.31,0.12,81.46,0.18c6.72,0.02,13.45,0.11,20.17-0.08
			c5.68-0.17,11.59-0.36,17.1-1.86c4.45-1.21,9.09-3.62,11.41-7.8c1.9-3.42,1.99-7.81,0.46-11.38c-0.69-1.62-1.77-3.09-3.24-4.08
			c-0.71-0.48-1.53-0.84-2.36-1.03c-1.18-0.27-2.45-0.03-3.6-0.34c-1.33-0.35-1.47-1.91-1.77-3.04c-0.36-1.32-0.81-2.6-1.34-3.86
			c-0.95-2.26-2.16-4.4-3.62-6.37c-2.94-3.96-6.78-7.31-11.25-9.43c-5.25-2.49-11.08-3.13-16.83-2.87c-3.11,0.14-6.2,0.52-9.28,0.94
			c-3.06,0.41-6.15,0.78-9.14,1.57c-3.07,0.82-5.72,2.45-8.66,3.57c-3.03,1.16-6.23,1.1-9.41,0.76c-5.19-0.55-10.48-1.63-15.51,0.4
			c-2.13,0.86-4,2.21-5.29,4.13c-0.67,0.99-1.05,2.13-1.68,3.13c-0.84,1.33-1.99,1.42-3.46,1.27c-4.14-0.44-8.58-1.06-12.58,0.52
			c-1.73,0.68-3.26,1.8-4.2,3.43c-1.35,2.34-0.57,5.38-2.18,7.53c-0.73,0.98-1.78,1.74-2.74,2.48c-1.45,1.12-2.9,2.24-4.36,3.35
			c-2.64,2.03-5.28,4.07-7.92,6.1c-2.05,1.58-4.3,3.25-3.98,6.15c0.25,2.2,1.85,4.15,3.86,5.02c2.75,1.19,5.84,0.39,8.58-0.4
			c1.54-0.44,0.89-2.86-0.66-2.41c-2.56,0.74-6.03,1.82-8.19-0.36c-0.68-0.68-1.22-1.65-1.11-2.64c0.15-1.38,1.56-2.27,2.57-3.05
			c2.57-1.98,5.15-3.96,7.72-5.95c2.29-1.77,4.75-3.43,6.89-5.38c2.04-1.85,2.6-3.89,2.91-6.54c0.23-1.97,1.02-3.59,2.79-4.59
			c3.28-1.85,7.72-1.37,11.3-0.94c2.34,0.28,4.68,0.49,6.33-1.52c1.47-1.78,1.91-4.05,3.76-5.56c3.7-3.03,9-2.69,13.43-2.15
			c2.91,0.36,5.85,0.83,8.79,0.65c2.88-0.18,5.42-1.12,8-2.37c2.72-1.32,5.42-2.29,8.4-2.85c2.92-0.55,5.89-0.92,8.84-1.27
			c5.84-0.7,11.89-1.08,17.63,0.48c4.61,1.25,8.76,3.81,12.08,7.22c3.28,3.38,5.74,7.56,7.03,12.09c0.64,2.24,1.17,4.63,3.8,5.19
			c1.91,0.41,3.75-0.08,5.39,1.21c2.68,2.1,3.31,6.29,2.59,9.43c-0.99,4.33-4.91,7.11-8.91,8.52c-4.92,1.73-10.28,2.01-15.44,2.25
			c-6.19,0.29-12.4,0.21-18.59,0.2c-25.49-0.06-50.97-0.11-76.46-0.17c-3.17-0.01-6.33-0.01-9.5-0.02
			C278.71,285.5,278.71,288,280.32,288L280.32,288z"/>
	</g>
</g>
<g class="st7">
	
		<linearGradient id="SVGID_2_" gradientUnits="userSpaceOnUse" x1="146.8961" y1="593.5766" x2="271.93" y2="593.5766" gradientTransform="matrix(1 0 0 -1 0 841.8898)">
		<stop  offset="0" style="stop-color:#EFF0F5"/>
		<stop  offset="0.5" style="stop-color:#DBDEE7"/>
		<stop  offset="1" style="stop-color:#C9CDDB"/>
	</linearGradient>
	<path class="st8" d="M173.37,227.84c12.05-3.61,27.32,3.99,27.79,13.83c6.22-4.09,14.84-5.99,22.98-5.06
		c3.76,0.43,7.37,1.42,10.95,2.41c4.51,1.24,9.01,2.49,13.52,3.73c8.86,2.45,19.01,5.99,20.83,13.02c1.07,4.13-0.99,8.98,2.49,12.26
		c-4.95,1.49-10.42,1.53-15.75,1.55c-12.1,0.04-24.21,0.07-36.31,0.11c-17.94,0.05-36.24,0.07-53.31-4.14
		c-6.97-1.72-14.06-4.41-17.72-9.24c-3.66-4.83-2.16-12.18,4.57-14.39c2.69-0.88,5.98-0.94,8-2.55c1.56-1.24,1.9-3.07,2.68-4.69
		c1.39-2.88,4.42-5.28,8.16-6.45"/>
</g>
<g class="st9">
	<path class="st10" d="M234.2,223.72c4.13-1.17,8.49-2.35,12.67-1.36s8,4.94,7.23,9.17c6.02-5.77,15.06-6.7,23.37-7.33
		c4.96-0.37,9.93-0.75,14.89-1.12c2.14-0.16,4.55-0.24,6.15,1.2c2.8,2.53,0.98,7.54,3.15,10.63c1.3,1.86,3.75,2.56,5.28,4.24
		c2.79,3.05,1.32,8.38-2.05,10.77c-3.38,2.38-7.88,2.44-11.95,1.74s-8.04-2.09-12.17-2.28c-3.63-0.17-7.23,0.59-10.83,1.14
		c-14.63,2.23-29.79,0.95-43.84-3.71c-3.24-1.07-6.93-2.96-7.25-6.36c-0.37-3.86,3.84-6.43,7.51-7.71s8.03-2.92,8.83-6.72"/>
	<g>
		<path class="st10" d="M234.53,224.93c4.03-1.14,8.54-2.48,12.7-1.17c3.06,0.97,6.19,3.97,5.66,7.44
			c-0.18,1.19,1.11,2.13,2.09,1.22c4.31-4.04,10.17-5.57,15.88-6.33c6.79-0.9,13.68-1.17,20.51-1.68c2.64-0.2,6.26-0.73,7.28,2.43
			c0.77,2.36,0.31,4.94,1.2,7.28c1,2.63,3.35,3.56,5.41,5.19c2.1,1.66,2.31,4.38,1.24,6.71c-2.75,5.99-10.71,5.06-15.94,3.88
			c-3.24-0.73-6.47-1.62-9.8-1.77c-3.43-0.16-6.84,0.5-10.22,1.04c-13.81,2.2-28.06,1.27-41.46-2.73c-2.75-0.82-6.23-1.67-8.11-4.03
			c-1.97-2.46-0.27-5.13,1.97-6.63c4.47-2.99,11.94-3.19,13.44-9.43c0.38-1.56-2.03-2.23-2.41-0.66c-0.68,2.83-3.54,4.18-6.03,5.14
			c-2.69,1.04-5.37,1.9-7.61,3.8c-1.98,1.68-3.2,4.17-2.59,6.79c0.63,2.71,3.11,4.51,5.51,5.61c3.04,1.39,6.39,2.24,9.63,3.03
			c3.7,0.91,7.46,1.58,11.24,2.05c7.5,0.93,15.11,0.96,22.61,0.09c3.89-0.46,7.75-1.37,11.67-1.56c3.79-0.18,7.39,0.73,11.05,1.57
			c5.85,1.34,13.69,2.32,17.98-2.99c1.7-2.1,2.59-4.92,2.08-7.61c-0.56-2.94-2.81-4.34-5.11-5.88c-1.22-0.82-2.05-1.75-2.42-3.19
			c-0.35-1.4-0.34-2.87-0.52-4.3c-0.33-2.71-1.45-5.13-4.21-6.06c-1.72-0.58-3.61-0.43-5.39-0.29c-2.32,0.17-4.63,0.35-6.95,0.52
			c-4.03,0.3-8.08,0.54-12.1,0.97c-7.04,0.75-14.28,2.29-19.6,7.29c0.7,0.41,1.39,0.81,2.09,1.22c0.67-4.37-2.18-8.26-6.09-10.01
			c-4.9-2.19-10.44-0.72-15.34,0.66C232.32,222.95,232.97,225.37,234.53,224.93L234.53,224.93z"/>
	</g>
</g>
<linearGradient id="SVGID_3_" gradientUnits="userSpaceOnUse" x1="109.22" y1="317.29" x2="461.71" y2="317.29">
	<stop  offset="5.618000e-03" style="stop-color:#886441"/>
	<stop  offset="0.1404" style="stop-color:#634522"/>
	<stop  offset="0.309" style="stop-color:#735229"/>
	<stop  offset="0.6517" style="stop-color:#603B0F"/>
	<stop  offset="0.8034" style="stop-color:#886441"/>
	<stop  offset="1" style="stop-color:#603B0F"/>
	<stop  offset="1" style="stop-color:#5F4421"/>
</linearGradient>
<linearGradient id="SVGID_4_" gradientUnits="userSpaceOnUse" x1="108.72" y1="317.29" x2="462.21" y2="317.29">
	<stop  offset="5.618000e-03" style="stop-color:#886441"/>
	<stop  offset="0.1404" style="stop-color:#634522"/>
	<stop  offset="0.309" style="stop-color:#735229"/>
	<stop  offset="0.6517" style="stop-color:#603B0F"/>
	<stop  offset="0.8034" style="stop-color:#886441"/>
	<stop  offset="1" style="stop-color:#603B0F"/>
	<stop  offset="1" style="stop-color:#5F4421"/>
</linearGradient>
<rect x="109.22" y="308.89" class="st11" width="352.49" height="16.8"/>
<g class="st12">
	<path class="st10" d="M350.95,284.71c-0.13-4.64,5.07-7.97,9.69-7.65s8.66,3.13,12.42,5.84c2.18-7.21,8.37-13.06,15.69-14.83
		s15.5,0.62,20.73,6.04c3.07-1.3,6.28-2.62,9.61-2.44s6.81,2.34,7.33,5.64c0.21,1.32-0.06,2.72,0.39,3.99
		c0.36,1.01,1.15,1.83,1.5,2.85c1.08,3.1-2.38,6.06-5.64,6.47s-6.61-0.58-9.83,0.05c-2.17,0.42-4.14,1.55-6.21,2.32
		c-5.11,1.9-11,1.59-15.87-0.86c-1.41-0.71-2.74-1.58-4.24-2.07c-2.22-0.73-4.63-0.54-6.96-0.35c-13.73,1.13-27.46,2.25-41.18,3.38
		c0.85-5.46,6.56-9.67,12.03-8.86"/>
	<g>
		<path class="st10" d="M352.2,284.71c0-3.87,4.09-6.34,7.61-6.42c4.74-0.1,8.96,3.05,12.62,5.69c0.68,0.49,1.62-0.04,1.84-0.75
			c2.07-6.63,7.57-12.01,14.29-13.82c7.09-1.91,14.93,0.38,20.04,5.59c0.28,0.29,0.82,0.49,1.22,0.32c3.37-1.42,7.29-3.18,11-2.08
			c1.43,0.42,2.83,1.27,3.67,2.53c1.07,1.59,0.59,3.44,0.95,5.22c0.32,1.59,2,2.98,1.8,4.63c-0.19,1.53-1.68,2.68-2.98,3.26
			c-1.74,0.79-3.72,0.63-5.58,0.5c-1.99-0.14-3.97-0.3-5.95,0.04c-1.89,0.32-3.61,1.18-5.36,1.92c-1.73,0.74-3.55,1.28-5.43,1.5
			c-3.75,0.44-7.6-0.24-10.95-1.99c-1.62-0.84-3.19-1.82-5-2.23c-1.83-0.41-3.71-0.37-5.57-0.23c-4.26,0.31-8.52,0.7-12.79,1.05
			c-9.76,0.8-19.52,1.6-29.28,2.4c0.4,0.53,0.8,1.05,1.21,1.58c0.88-5.04,5.76-8.59,10.82-7.94c1.59,0.21,1.58-2.3,0-2.5
			c-6.06-0.78-12.18,3.76-13.23,9.78c-0.13,0.73,0.33,1.65,1.21,1.58c9.51-0.78,19.02-1.56,28.53-2.34
			c4.65-0.38,9.31-0.83,13.97-1.14c2.2-0.14,4.36-0.11,6.39,0.85c1.77,0.83,3.41,1.87,5.27,2.54c3.76,1.35,7.91,1.57,11.81,0.72
			c1.97-0.43,3.78-1.25,5.63-2.03c2.17-0.92,4.23-1.3,6.59-1.19c3.94,0.19,7.86,0.73,11.05-2.1c1.19-1.05,2.1-2.56,2.14-4.18
			c0.06-2.06-1.6-3.3-1.91-5.19c-0.35-2.12,0-4.02-1.29-5.9c-1.04-1.51-2.55-2.58-4.24-3.25c-4.4-1.74-9.07,0.07-13.16,1.79
			c0.41,0.11,0.81,0.21,1.22,0.32c-4.44-4.53-10.73-7.09-17.07-6.98c-6.22,0.1-12.16,2.91-16.35,7.48
			c-2.33,2.54-4.06,5.55-5.09,8.84c0.61-0.25,1.22-0.5,1.84-0.75c-4.37-3.15-9.53-6.71-15.21-5.91c-4.45,0.63-8.78,4.01-8.78,8.8
			C349.7,286.32,352.2,286.32,352.2,284.71L352.2,284.71z"/>
	</g>
</g>
<g>
	<g>
		<path class="st0" d="M184.06,365.95c-1.9,6.5-4.39,12.79-7.48,18.81c-0.62,1.2-0.31,2.71,0.9,3.42c1.12,0.65,2.8,0.31,3.42-0.9
			c3.28-6.4,5.97-13.1,7.98-20C189.79,364.18,184.96,362.86,184.06,365.95L184.06,365.95z"/>
	</g>
</g>
<g>
	<g>
		<path class="st0" d="M187.82,371.16c-1.69,5.2-3.69,9.79-6.36,14.62c-0.63,1.14-0.32,2.78,0.9,3.42c1.17,0.62,2.75,0.33,3.42-0.9
			c2.78-5.04,5.08-10.34,6.86-15.82c0.41-1.24-0.47-2.78-1.75-3.08C189.52,369.1,188.25,369.82,187.82,371.16L187.82,371.16z"/>
	</g>
</g>
<g>
	<g>
		<path class="st0" d="M203.22,410.68c-2.15,9.56-8.85,17.54-17.82,21.43c-1.24,0.54-1.52,2.35-0.9,3.42
			c0.75,1.28,2.18,1.44,3.42,0.9c10.05-4.36,17.72-13.75,20.12-24.42C208.74,408.87,203.92,407.53,203.22,410.68L203.22,410.68z"/>
	</g>
</g>
<g>
	<g>
		<path class="st0" d="M187.97,380.96c-3,4.75-6,9.5-9,14.25c-0.7,1.11-0.27,2.8,0.9,3.42c1.23,0.65,2.67,0.29,3.42-0.9
			c3-4.75,6-9.5,9-14.25c0.7-1.11,0.27-2.8-0.9-3.42C190.16,379.41,188.72,379.78,187.97,380.96L187.97,380.96z"/>
	</g>
</g>
<g>
	<g>
		<path class="st0" d="M187.15,388.8c-2.39,7.77-5.84,15.12-10.25,21.95c-1.75,2.71,2.58,5.22,4.32,2.52
			c4.63-7.17,8.25-14.98,10.76-23.15C192.92,387.05,188.1,385.73,187.15,388.8L187.15,388.8z"/>
	</g>
</g>
<g>
	<g>
		<path class="st0" d="M203.48,419.57c4.87,4.88,9.9,9.59,15.11,14.1c4.84,4.19,9.79,8.67,16.02,10.62c3.08,0.96,4.4-3.86,1.33-4.82
			c-5.64-1.76-10.18-6.16-14.53-9.95c-4.95-4.32-9.75-8.82-14.39-13.47C204.74,413.76,201.21,417.29,203.48,419.57L203.48,419.57z"
			/>
	</g>
</g>
<g>
	<g>
		<path class="st0" d="M185.81,372.45c6.49,8.97,15.15,16.22,25.23,20.82c1.23,0.56,2.69,0.35,3.42-0.9
			c0.63-1.07,0.34-2.86-0.9-3.42c-9.28-4.23-17.45-10.75-23.44-19.03c-0.79-1.09-2.17-1.63-3.42-0.9
			C185.63,369.66,185.01,371.35,185.81,372.45L185.81,372.45z"/>
	</g>
</g>
<g>
	<g>
		<path class="st0" d="M180.36,378.74c4.97,5.16,9.96,10.33,15.28,15.13c4.82,4.34,10.35,9.75,17.28,9.74c3.22,0,3.22-5,0-5
			c-2.81,0-5.24-1.39-7.46-3c-2.59-1.87-4.98-4.08-7.33-6.23c-4.93-4.53-9.59-9.36-14.23-14.18
			C181.66,372.89,178.12,376.43,180.36,378.74L180.36,378.74z"/>
	</g>
</g>
<g>
	<g>
		<path class="st0" d="M194.12,383.96c3.42,4.15,6.84,8.3,10.26,12.44c3.12,3.78,7.19,7.45,12.49,6.15c3.12-0.77,1.8-5.59-1.33-4.82
			c-3.71,0.91-6.67-3.71-8.65-6.11c-3.08-3.73-6.16-7.47-9.23-11.2c-0.86-1.04-2.65-0.89-3.54,0
			C193.09,381.46,193.26,382.92,194.12,383.96L194.12,383.96z"/>
	</g>
</g>
<g>
	<g>
		<path class="st0" d="M191.69,407.58c3.66,0.92,6.88,3.88,9.77,6.2c3.05,2.44,6.01,4.99,9.06,7.44
			c6.16,4.94,12.72,9.48,20.44,11.57c3.11,0.84,4.44-3.98,1.33-4.82c-7.37-1.99-13.62-6.52-19.46-11.28
			c-3.03-2.47-5.99-5.01-9.07-7.42c-3.24-2.54-6.66-5.47-10.73-6.5C189.89,401.97,188.56,406.79,191.69,407.58L191.69,407.58z"/>
	</g>
</g>
<g>
	<g>
		<path class="st0" d="M190.03,398.61c0.34,1.34-0.57,2.75-1.42,3.91c-1.11,1.51-2.42,2.9-3.63,4.33c-2.74,3.22-5.49,6.45-8.23,9.67
			c-0.87,1.03-1.01,2.53,0,3.54c0.9,0.9,2.66,1.03,3.54,0c3.09-3.63,6.18-7.27,9.27-10.9c2.84-3.34,6.51-7.08,5.29-11.87
			C194.07,394.16,189.24,395.48,190.03,398.61L190.03,398.61z"/>
	</g>
</g>
<g>
	<g>
		<path class="st0" d="M193.61,398.95c0.22,0.38-0.62,1.63-0.8,1.99c-0.64,1.21-1.31,2.41-2.01,3.59c-1.36,2.3-2.82,4.53-4.39,6.7
			c-3.09,4.27-6.64,8.2-10.48,11.81c-2.35,2.21,1.19,5.74,3.54,3.54c4.47-4.2,8.49-8.86,12.02-13.88c1.7-2.42,3.27-4.93,4.71-7.52
			c1.47-2.64,3.46-5.76,1.73-8.75C196.32,393.64,191.99,396.16,193.61,398.95L193.61,398.95z"/>
	</g>
</g>
<g>
	<g>
		<path class="st0" d="M196.02,401.29c-0.03,5.24-3.51,9.96-6.42,14.06c-3.17,4.47-6.81,8.61-10.76,12.41
			c-2.32,2.24,1.22,5.77,3.54,3.54c4.37-4.2,8.32-8.83,11.8-13.79c3.37-4.81,6.8-10.14,6.84-16.22
			C201.04,398.07,196.04,398.06,196.02,401.29L196.02,401.29z"/>
	</g>
</g>
<g>
	<g>
		<path class="st0" d="M197.91,407.68c-4.52,7.41-11.44,13.39-19.51,16.64c-1.25,0.5-2.13,1.67-1.75,3.08
			c0.33,1.19,1.82,2.25,3.08,1.75c9.33-3.75,17.25-10.34,22.5-18.94C203.91,407.45,199.58,404.93,197.91,407.68L197.91,407.68z"/>
	</g>
</g>
<g>
	<g>
		<path class="st0" d="M197.42,421.86c11.31,5.63,23.46,9.44,35.98,11.16c1.34,0.18,2.68-0.32,3.08-1.75
			c0.32-1.17-0.4-2.89-1.75-3.08c-12.08-1.66-23.86-5.22-34.79-10.66C197.07,416.12,194.53,420.43,197.42,421.86L197.42,421.86z"/>
	</g>
</g>
<g>
	<g>
		<path class="st0" d="M214.1,428.85c4.8,4.58,10.1,8.64,15.79,12.04c2.82,1.68,5.73,3.2,8.72,4.55c2.75,1.24,6.57,3.37,9.42,1.22
			c1.08-0.81,1.64-2.16,0.9-3.42c-0.62-1.06-2.34-1.72-3.42-0.9c-0.74,0.56-1.86-0.14-2.61-0.46c-1.32-0.55-2.61-1.14-3.89-1.76
			c-2.63-1.27-5.2-2.68-7.69-4.22c-4.93-3.04-9.5-6.59-13.69-10.59C215.31,423.09,211.77,426.62,214.1,428.85L214.1,428.85z"/>
	</g>
</g>
<g>
	<g>
		<path class="st0" d="M212.42,435.3c9.98,6.18,21.36,9.79,33.07,10.62c1.35,0.1,2.5-1.22,2.5-2.5c0-1.43-1.15-2.4-2.5-2.5
			c-10.82-0.76-21.33-4.23-30.54-9.94C212.2,429.28,209.68,433.6,212.42,435.3L212.42,435.3z"/>
	</g>
</g>
<g>
	<g>
		<path class="st0" d="M202.37,433.79c2.04-0.32,4.14,0.41,6.07,0.97c2.13,0.63,4.26,1.26,6.39,1.89c4.34,1.28,8.68,2.56,13.02,3.84
			c3.09,0.91,4.41-3.91,1.33-4.82c-4.66-1.37-9.31-2.75-13.97-4.12c-4.58-1.35-9.33-3.34-14.17-2.58c-1.34,0.21-2.07,1.88-1.75,3.08
			C199.69,433.47,201.03,434,202.37,433.79L202.37,433.79z"/>
	</g>
</g>
<g>
	<g>
		<path class="st0" d="M201.66,410.72c1.51,0.34,2.8,1.12,3.96,2.09c1.39,1.16,2.65,2.45,4.04,3.6c3.22,2.65,6.9,4.61,10.93,5.73
			c3.1,0.86,4.43-3.96,1.33-4.82c-3.56-0.99-6.84-2.75-9.62-5.22c-2.8-2.49-5.5-5.36-9.31-6.21c-1.32-0.29-2.71,0.4-3.08,1.75
			C199.57,408.9,200.34,410.43,201.66,410.72L201.66,410.72z"/>
	</g>
</g>
<g>
	<g>
		<path class="st0" d="M190.93,394.12c-3.14,3.23-6.18,6.55-9.14,9.95c-0.86,0.99-1.04,2.58,0,3.54c0.94,0.86,2.62,1.05,3.54,0
			c2.96-3.4,6-6.72,9.14-9.95c0.91-0.94,1.01-2.61,0-3.54C193.48,393.21,191.9,393.11,190.93,394.12L190.93,394.12z"/>
	</g>
</g>
<g>
	<g>
		<path class="st0" d="M217.84,432.53c8.54,2.87,17.05,5.83,25.53,8.9c1.27,0.46,2.74-0.52,3.08-1.75c0.38-1.39-0.47-2.61-1.75-3.08
			c-8.47-3.07-16.98-6.03-25.53-8.9C216.11,426.68,214.8,431.51,217.84,432.53L217.84,432.53z"/>
	</g>
</g>
<g>
	<g>
		<path class="st0" d="M199.18,432.76c4.64,1.4,8.36,4.78,12.51,7.16c4.53,2.6,9.47,4.5,14.56,5.62c3.14,0.69,4.48-4.13,1.33-4.82
			c-4.99-1.1-9.75-2.94-14.13-5.57c-4.26-2.56-8.1-5.77-12.94-7.22C197.43,427.01,196.11,431.84,199.18,432.76L199.18,432.76z"/>
	</g>
</g>
<g>
	<g>
		<path class="st0" d="M200.76,431.77c5.26,5.66,10.51,11.33,15.77,16.99c2.41,2.59,4.74,5.29,7.27,7.76c2.3,2.25,5.04,4.29,8.3,4.8
			c1.33,0.21,2.69-0.34,3.08-1.75c0.33-1.19-0.4-2.87-1.75-3.08c-2.81-0.44-4.86-2.23-6.78-4.21c-2.47-2.54-4.84-5.19-7.25-7.78
			c-5.03-5.42-10.06-10.85-15.1-16.27C202.1,425.87,198.57,429.41,200.76,431.77L200.76,431.77z"/>
	</g>
</g>
<g>
	<g>
		<path class="st0" d="M213.87,441.08c1.52,7.91,6.78,14.31,11.88,20.27c4.82,5.63,10.27,11.39,17.75,13.19
			c3.13,0.75,4.46-4.07,1.33-4.82c-6.61-1.6-11.3-6.95-15.54-11.91c-4.57-5.33-9.24-10.99-10.6-18.06
			c-0.26-1.33-1.85-2.08-3.08-1.75C214.23,438.38,213.62,439.75,213.87,441.08L213.87,441.08z"/>
	</g>
</g>
<g>
	<g>
		<path class="st0" d="M200.31,416.23c-5.37,5.34-11.51,9.77-18.26,13.21c-1.2,0.61-1.55,2.3-0.9,3.42c0.71,1.22,2.21,1.51,3.42,0.9
			c7.1-3.62,13.62-8.38,19.27-13.99C206.13,417.49,202.6,413.96,200.31,416.23L200.31,416.23z"/>
	</g>
</g>
<g>
	<g>
		<path class="st0" d="M196.34,426.3c-0.28,0.42-0.57,0.82-0.87,1.22c0.13-0.17,0.26-0.34,0.39-0.51c-1.07,1.38-2.31,2.62-3.7,3.69
			c0.17-0.13,0.34-0.26,0.51-0.39c-0.96,0.73-1.98,1.38-3.05,1.94c-1.16,0.6-1.6,2.32-0.9,3.42c0.76,1.18,2.18,1.54,3.42,0.9
			c3.45-1.8,6.36-4.51,8.51-7.74c0.72-1.09,0.25-2.81-0.9-3.42C198.51,424.74,197.12,425.13,196.34,426.3L196.34,426.3z"/>
	</g>
</g>
<g>
	<g>
		<path class="st0" d="M198.31,442.89c8.33,4,17.18,6.76,26.34,8.08c1.33,0.19,2.69-0.33,3.08-1.75c0.32-1.17-0.4-2.88-1.75-3.08
			c-8.71-1.26-17.21-3.77-25.14-7.58c-1.22-0.58-2.7-0.33-3.42,0.9C196.77,440.56,197.08,442.3,198.31,442.89L198.31,442.89z"/>
	</g>
</g>
<g>
	<g>
		<path class="st0" d="M186.2,430.72c6.82,7.84,15.98,13.51,26.01,16.19c3.11,0.83,4.44-3.99,1.33-4.82
			c-9.26-2.47-17.52-7.67-23.81-14.9c-0.89-1.02-2.63-0.91-3.54,0C185.18,428.2,185.31,429.7,186.2,430.72L186.2,430.72z"/>
	</g>
</g>
<g>
	<g>
		<path class="st0" d="M175.7,423.18c-1.19,3.27-2.38,6.53-3.57,9.8c-0.45,1.23,0.5,2.79,1.75,3.08c1.41,0.32,2.6-0.43,3.08-1.75
			c1.19-3.27,2.38-6.53,3.57-9.8c0.45-1.23-0.5-2.79-1.75-3.08C177.37,421.12,176.18,421.87,175.7,423.18L175.7,423.18z"/>
	</g>
</g>
<g>
	<g>
		<path class="st4" d="M241.07,449.19c0.02,0.07,0.11,0.63,0.06,0.26c-0.04-0.34,0,0.1,0,0.16c0.02,0.3,0.02,0.59,0,0.89
			c-0.01,0.08-0.09,0.63-0.02,0.26c0.07-0.34-0.03,0.1-0.04,0.16c-0.06,0.29-0.14,0.58-0.23,0.87c-0.05,0.16-0.12,0.32-0.17,0.48
			c-0.11,0.34,0.18-0.36,0.02-0.04c-0.14,0.27-0.26,0.55-0.41,0.81c-0.17,0.29-0.35,0.58-0.54,0.86c-0.08,0.11-0.16,0.22-0.24,0.33
			c0.2-0.28,0.11-0.14-0.05,0.05c-0.41,0.48-0.85,0.94-1.31,1.37c-0.23,0.21-0.47,0.42-0.71,0.62c-0.11,0.09-0.22,0.18-0.33,0.27
			c-0.36,0.3,0.16-0.11-0.08,0.06c-1.06,0.77-2.14,1.5-3.24,2.21s-1.65,2.25-0.9,3.42c0.71,1.1,2.24,1.66,3.42,0.9
			c2.63-1.7,5.27-3.46,7.21-5.96c2.06-2.66,3.09-5.97,2.39-9.31c-0.27-1.28-1.84-2.14-3.08-1.75
			C241.46,446.55,240.78,447.82,241.07,449.19L241.07,449.19z"/>
	</g>
</g>
<g>
	<g>
		<path class="st4" d="M240.14,395.59c-1.84,2.1-3.84,4.06-5.99,5.84c-0.26,0.22-0.52,0.43-0.79,0.64
			c-0.12,0.09-0.24,0.19-0.36,0.28c-0.22,0.17,0.24-0.18-0.12,0.09c-0.54,0.41-1.09,0.81-1.65,1.2c-1.18,0.82-2.39,1.59-3.62,2.31
			c-1.13,0.66-1.63,2.29-0.9,3.42c0.73,1.14,2.21,1.6,3.42,0.9c5.07-2.96,9.67-6.74,13.54-11.15c0.86-0.98,1.04-2.58,0-3.54
			C242.73,394.72,241.06,394.53,240.14,395.59L240.14,395.59z"/>
	</g>
</g>
<g>
	<g>
		<path class="st4" d="M240.44,402.8c-0.03,0.04-0.4,0.53-0.23,0.31c0.16-0.21-0.25,0.31-0.24,0.3c-0.22,0.27-0.44,0.54-0.67,0.81
			c-0.48,0.56-0.98,1.1-1.5,1.63s-1.06,1.03-1.61,1.52c-0.26,0.23-0.53,0.46-0.8,0.68c-0.15,0.12-0.3,0.25-0.45,0.37
			c-0.06,0.05-0.48,0.37-0.14,0.11c-1.15,0.86-2.35,1.66-3.61,2.37c-0.64,0.36-1.3,0.71-1.97,1.02c-0.35,0.17-0.71,0.33-1.06,0.48
			c0.24-0.11,0.12-0.05-0.05,0.02c-0.22,0.09-0.43,0.17-0.65,0.26c-1.22,0.47-2.19,1.7-1.75,3.08c0.38,1.18,1.77,2.25,3.08,1.75
			c6.42-2.48,11.88-6.64,15.97-12.17c0.78-1.06,0.21-2.84-0.9-3.42C242.55,401.21,241.27,401.67,240.44,402.8L240.44,402.8z"/>
	</g>
</g>
<g>
	<g>
		<path class="st4" d="M237.42,392.75c0.32,1.45-0.5,2.94-1.25,4.18c-0.99,1.64-2.14,3.2-3.28,4.74c-2.27,3.05-4.75,5.95-7.37,8.7
			c-2.22,2.33,1.31,5.87,3.54,3.54c3.08-3.24,5.94-6.69,8.58-10.3c2.59-3.55,5.63-7.53,4.6-12.19c-0.29-1.32-1.82-2.09-3.08-1.75
			C237.81,390.04,237.13,391.42,237.42,392.75L237.42,392.75z"/>
	</g>
</g>
<g>
	<g>
		<path class="st4" d="M238.16,396.97c0.18,1.16,0.01,2.65-0.33,3.92c-0.39,1.45-0.91,2.57-1.7,3.89c-1.6,2.64-3.76,4.85-5.94,7.1
			c-0.94,0.97-0.97,2.57,0,3.54c0.95,0.95,2.59,0.97,3.54,0c2.57-2.66,5.19-5.38,7.02-8.62c1.94-3.44,2.83-7.23,2.23-11.15
			c-0.2-1.34-1.88-2.07-3.08-1.75C238.48,394.29,237.96,395.63,238.16,396.97L238.16,396.97z"/>
	</g>
</g>
<g>
	<g>
		<path class="st4" d="M235.71,407.69c0.03,0.67,0.03,1.34-0.02,2.02c-0.02,0.35-0.06,0.71-0.1,1.06c0.03-0.26,0.02-0.16-0.01,0.04
			c-0.03,0.16-0.05,0.31-0.08,0.47c-0.13,0.66-0.29,1.31-0.48,1.96c-0.1,0.34-0.22,0.68-0.34,1.01c-0.05,0.15-0.11,0.3-0.17,0.44
			c-0.16,0.42,0.04-0.08-0.07,0.17c-0.56,1.23-1.22,2.4-2.02,3.49c-0.02,0.03-0.31,0.4-0.16,0.22c0.14-0.18-0.15,0.18-0.18,0.21
			c-0.23,0.27-0.46,0.54-0.71,0.8c-0.49,0.52-1.01,1.01-1.55,1.47c-1,0.85-0.94,2.67,0,3.54c1.06,0.98,2.47,0.91,3.54,0
			c4.84-4.11,7.61-10.55,7.35-16.88c-0.05-1.3-1.11-2.56-2.5-2.5C236.9,405.25,235.65,406.29,235.71,407.69L235.71,407.69z"/>
	</g>
</g>
<g>
	<g>
		<path class="st4" d="M239.05,399.25c6.1,3.77,12.59,6.86,19.34,9.28c1.27,0.46,2.74-0.51,3.08-1.75c0.38-1.39-0.47-2.62-1.75-3.08
			c-6.35-2.28-12.41-5.23-18.15-8.78C238.83,393.24,236.32,397.56,239.05,399.25L239.05,399.25z"/>
	</g>
</g>
<g>
	<g>
		<path class="st4" d="M238.86,404.37c4.87,3.57,9.75,7.13,14.63,10.68c1.06,0.77,2.83,0.22,3.42-0.9c0.69-1.3,0.24-2.6-0.9-3.42
			c-4.89-3.55-9.76-7.11-14.63-10.68c-1.06-0.78-2.83-0.21-3.42,0.9C237.27,402.25,237.73,403.54,238.86,404.37L238.86,404.37z"/>
	</g>
</g>
<g>
	<g>
		<path class="st4" d="M236,406.41c5.11,4.49,10.86,8.21,17.11,10.9c1.24,0.53,2.68,0.37,3.42-0.9c0.62-1.05,0.35-2.88-0.9-3.42
			c-5.9-2.54-11.39-5.98-16.1-10.12c-1.01-0.89-2.54-1-3.54,0C235.09,403.78,234.98,405.51,236,406.41L236,406.41z"/>
	</g>
</g>
<g>
	<g>
		<path class="st4" d="M238.39,413.54c5.91,7.47,13.07,15,23.23,15.49c1.35,0.07,2.5-1.2,2.5-2.5c0-1.41-1.15-2.43-2.5-2.5
			c-8.64-0.42-14.74-7.77-19.69-14.03c-0.84-1.06-2.66-0.88-3.54,0C237.35,411.05,237.55,412.47,238.39,413.54L238.39,413.54z"/>
	</g>
</g>
<g>
	<g>
		<path class="st4" d="M238.69,419.46c3.55,4.79,8.78,7.81,14.05,10.4c5.55,2.72,11.39,4.84,17.4,6.27
			c3.13,0.75,4.46-4.07,1.33-4.82c-5.44-1.3-10.76-3.13-15.8-5.57c-4.5-2.17-9.61-4.69-12.66-8.8c-0.8-1.08-2.16-1.63-3.42-0.9
			C238.52,416.66,237.89,418.37,238.69,419.46L238.69,419.46z"/>
	</g>
</g>
<g>
	<g>
		<path class="st4" d="M242.82,422.01c0.5,7.57-3.08,15.24-9.52,19.46c-2.68,1.76-0.18,6.09,2.52,4.32
			c7.82-5.13,12.62-14.39,12-23.78c-0.09-1.35-1.08-2.5-2.5-2.5C244.03,419.51,242.73,420.66,242.82,422.01L242.82,422.01z"/>
	</g>
</g>
<g>
	<g>
		<path class="st4" d="M248.39,428.08c-0.91,10.47-7.55,20.01-16.84,24.8c-2.86,1.48-0.33,5.79,2.52,4.32
			c10.93-5.64,18.26-16.92,19.32-29.12c0.12-1.35-1.23-2.5-2.5-2.5C249.44,425.58,248.51,426.73,248.39,428.08L248.39,428.08z"/>
	</g>
</g>
<g>
	<g>
		<path class="st4" d="M240.35,429.38c7.39,6.42,17.63,8.92,27.13,6.48c3.11-0.8,1.79-5.62-1.33-4.82
			c-7.7,1.98-16.25,0.04-22.27-5.19c-1.02-0.89-2.53-1-3.54,0C239.45,426.75,239.33,428.49,240.35,429.38L240.35,429.38z"/>
	</g>
</g>
<g>
	<g>
		<path class="st4" d="M245.53,415.4c3.79,1.85,7.92,2.84,12.14,2.82c1.31-0.01,2.56-1.14,2.5-2.5c-0.06-1.35-1.1-2.51-2.5-2.5
			c-0.92,0.01-1.84-0.03-2.76-0.13c-0.27-0.03-0.55-0.06-0.12-0.01c-0.26-0.03-0.52-0.08-0.78-0.12c-0.42-0.07-0.84-0.16-1.26-0.25
			c-0.87-0.2-1.72-0.44-2.56-0.73c-0.43-0.15-0.88-0.29-1.29-0.49c0.56,0.27-0.05-0.02-0.13-0.06c-0.24-0.11-0.48-0.22-0.71-0.34
			c-1.17-0.57-2.76-0.36-3.42,0.9C244.04,413.1,244.27,414.78,245.53,415.4L245.53,415.4z"/>
	</g>
</g>
<g>
	<g>
		<path class="st4" d="M233.92,422.17c3.49,5.03,7.46,9.73,11.91,13.94c4.2,3.96,9,7.78,15.02,8c3.22,0.12,3.21-4.88,0-5
			c-4.86-0.18-8.83-3.96-12.13-7.15c-3.89-3.75-7.41-7.87-10.49-12.31c-0.77-1.11-2.19-1.62-3.42-0.9
			C233.72,419.39,233.15,421.05,233.92,422.17L233.92,422.17z"/>
	</g>
</g>
<g>
	<g>
		<path class="st4" d="M246.04,432.46c2.29,0.91,3.87,3.25,5.3,5.14c1.89,2.5,3.87,4.94,6.09,7.15c4.31,4.28,10.42,9.09,16.9,7.49
			c3.12-0.77,1.8-5.59-1.33-4.82c-2.69,0.66-5.33-0.87-7.48-2.35c-2.35-1.62-4.42-3.61-6.33-5.71c-3.73-4.11-6.43-9.57-11.83-11.72
			c-1.25-0.5-2.75,0.55-3.08,1.75C243.9,430.81,244.78,431.96,246.04,432.46L246.04,432.46z"/>
	</g>
</g>
<g>
	<g>
		<path class="st4" d="M247.27,430.75c1.28,0.22,2.1,1.06,3,1.95c1.19,1.17,2.38,2.35,3.6,3.5c2.47,2.34,5.05,4.56,7.83,6.53
			c5.31,3.75,11.61,6.33,18.18,6.24c3.21-0.04,3.22-5.04,0-5c-6.21,0.08-11.89-2.7-16.76-6.36c-2.5-1.88-4.79-4.03-7.04-6.21
			c-2.16-2.09-4.36-4.93-7.48-5.47c-1.33-0.23-2.69,0.36-3.08,1.75C245.19,428.88,245.93,430.52,247.27,430.75L247.27,430.75z"/>
	</g>
</g>
<g>
	<g>
		<path class="st4" d="M246.89,431.09c0.04,10.23-10.97,15.32-18.87,18.91c-1.23,0.56-1.53,2.34-0.9,3.42
			c0.74,1.26,2.19,1.46,3.42,0.9c5.18-2.35,10.43-4.81,14.61-8.77c3.96-3.75,6.76-8.92,6.74-14.46
			C251.88,427.88,246.88,427.87,246.89,431.09L246.89,431.09z"/>
	</g>
</g>
<g>
	<g>
		<path class="st4" d="M241.5,422.33c0.02,2.34-1.01,4.45-2.2,6.42c-1.13,1.87-2.46,3.58-3.98,5.15c-3.04,3.11-6.76,5.55-10.86,7.01
			c-1.27,0.45-2.12,1.71-1.75,3.08c0.34,1.23,1.8,2.2,3.08,1.75c5.02-1.79,9.6-4.68,13.3-8.53c3.73-3.9,7.46-9.27,7.42-14.87
			C246.48,419.11,241.47,419.11,241.5,422.33L241.5,422.33z"/>
	</g>
</g>
<g>
	<g>
		<path class="st4" d="M238.95,416.84c-0.16-0.23,0.12-0.49-0.12-0.12c-0.15,0.24-0.44,0.71-0.66,1.03c-0.45,0.65-1,1.24-1.57,1.81
			c-1.31,1.29-2.81,2.31-4.43,3.17c-3.83,2.04-8.16,2.96-12.36,3.9c-1.32,0.3-2.09,1.82-1.75,3.08c0.37,1.36,1.75,2.04,3.08,1.75
			c5.14-1.16,10.42-2.39,14.95-5.21c1.98-1.23,3.86-2.75,5.33-4.57c1.59-1.97,3.57-4.86,1.84-7.35c-0.77-1.11-2.19-1.62-3.42-0.9
			C238.75,414.06,238.17,415.72,238.95,416.84L238.95,416.84z"/>
	</g>
</g>
<g>
	<g>
		<path class="st4" d="M245.23,445.39c2.46,0.02,4.77,0.89,7.06,1.73c2.46,0.9,4.94,1.73,7.45,2.48c5.04,1.5,10.18,2.66,15.37,3.51
			c1.33,0.22,2.69-0.35,3.08-1.75c0.33-1.19-0.41-2.86-1.75-3.08c-5.35-0.87-10.64-2.08-15.83-3.65c-2.5-0.76-4.97-1.61-7.43-2.5
			c-2.58-0.94-5.19-1.72-7.96-1.75C242.02,440.36,242.01,445.36,245.23,445.39L245.23,445.39z"/>
	</g>
</g>
<g>
	<g>
		<path class="st4" d="M247.65,427.19c4.89,3.08,9.78,6.17,14.68,9.25c1.11,0.7,2.8,0.27,3.42-0.9c0.65-1.23,0.29-2.68-0.9-3.42
			c-4.89-3.08-9.78-6.17-14.68-9.25c-1.11-0.7-2.8-0.27-3.42,0.9C246.1,425,246.46,426.44,247.65,427.19L247.65,427.19z"/>
	</g>
</g>
<g>
	<g>
		<path class="st4" d="M240.71,410.56c0.91,5.7,4.82,10.41,9.48,13.58c5.3,3.6,11.72,5.13,17.87,6.56c3.13,0.73,4.47-4.09,1.33-4.82
			c-9.36-2.19-22.05-5.42-23.85-16.65c-0.21-1.33-1.88-2.08-3.08-1.75C241.03,407.87,240.49,409.22,240.71,410.56L240.71,410.56z"/>
	</g>
</g>
<g>
	<g>
		<path class="st4" d="M242.47,446.82c1.49,4.8,5.68,7.66,10.61,7.89c5.53,0.26,11.12-0.01,16.66-0.02c3.22-0.01,3.22-5.01,0-5
			c-4.81,0.01-9.62,0.03-14.43,0.04c-1.85,0.01-3.73,0.1-5.37-0.88c-1.27-0.76-2.2-1.95-2.64-3.37
			C246.35,442.42,241.52,443.73,242.47,446.82L242.47,446.82z"/>
	</g>
</g>
<g>
	<g>
		<path class="st4" d="M246.77,441.89c1.98,13.28,8.93,25.84,19.09,34.62c2.86,2.47,7.06,6.47,11.05,4.09
			c2.76-1.64,0.25-5.97-2.52-4.32c-0.78,0.46-3.01-1.67-3.65-2.19c-1.51-1.22-2.96-2.53-4.33-3.9c-2.59-2.61-4.9-5.48-6.9-8.57
			c-4.11-6.39-6.8-13.55-7.92-21.06c-0.2-1.34-1.89-2.07-3.08-1.75C247.09,439.2,246.57,440.55,246.77,441.89L246.77,441.89z"/>
	</g>
</g>
<g>
	<g>
		<path class="st4" d="M253.05,451.39c-1.68,3.22,1.61,4.89,3.99,6.12c2.44,1.27,4.91,2.48,7.39,3.65
			c5.03,2.35,10.16,4.5,15.36,6.46c1.26,0.47,2.74-0.53,3.08-1.75c0.39-1.4-0.48-2.6-1.75-3.08c-4.21-1.58-8.36-3.3-12.46-5.16
			c-2-0.91-3.99-1.86-5.95-2.84c-0.98-0.49-1.97-0.99-2.94-1.49c-0.57-0.29-2.29-0.9-2.52-1.38c0.11,0.42,0.23,0.84,0.34,1.26
			c-0.01-0.09-0.01-0.18-0.02-0.28c-0.11,0.42-0.23,0.84-0.34,1.26c0.04-0.09,0.09-0.17,0.13-0.26
			C258.85,451.07,254.54,448.54,253.05,451.39L253.05,451.39z"/>
	</g>
</g>
<g>
	<g>
		<path class="st4" d="M257.62,460.59c6.26,3.23,12.6,6.31,19.01,9.21c1.23,0.56,2.69,0.35,3.42-0.9c0.63-1.07,0.34-2.86-0.9-3.42
			c-6.42-2.91-12.76-5.98-19.01-9.21c-1.2-0.62-2.71-0.31-3.42,0.9C256.07,458.3,256.41,459.97,257.62,460.59L257.62,460.59z"/>
	</g>
</g>
<g>
	<g>
		<path class="st4" d="M257.31,472.15c4.39,2.86,8.98,5.4,13.75,7.57c2.37,1.08,4.79,2.08,7.23,2.99c2.35,0.88,5.51,2.53,7.62,0.34
			c2.24-2.31-1.29-5.85-3.54-3.54c1.06-0.17,1.27-0.32,0.63-0.43c-0.28-0.09-0.57-0.19-0.85-0.29c-0.57-0.19-1.13-0.39-1.69-0.6
			c-0.98-0.36-1.96-0.73-2.94-1.12c-2.02-0.81-4.01-1.69-5.98-2.63c-4.05-1.95-7.95-4.17-11.71-6.62
			C257.13,466.07,254.62,470.4,257.31,472.15L257.31,472.15z"/>
	</g>
</g>
<g>
	<g>
		<path class="st4" d="M237.56,421.95c-0.11,0.36-0.22,0.72-0.35,1.07c-0.05,0.14-0.2,0.69-0.03,0.1c-0.04,0.15-0.13,0.29-0.2,0.43
			c-0.31,0.65-0.67,1.27-1.06,1.87c-0.09,0.13-0.18,0.26-0.27,0.39c-0.04,0.06-0.43,0.56-0.2,0.27c0.23-0.28-0.11,0.13-0.16,0.19
			c-0.12,0.14-0.24,0.29-0.37,0.43c-0.48,0.54-1,1.04-1.55,1.5c-0.11,0.1-0.23,0.23-0.36,0.3c0.51-0.28,0.02-0.02-0.09,0.06
			c-0.28,0.2-0.56,0.4-0.85,0.58c-0.61,0.39-1.25,0.72-1.9,1.03c-0.47,0.22,0.44-0.16-0.09,0.04c-0.15,0.05-0.29,0.11-0.44,0.17
			c-0.32,0.12-0.65,0.22-0.98,0.32c-0.36,0.1-0.73,0.19-1.09,0.27c-0.18,0.04-0.37,0.07-0.55,0.1c-0.53,0.1,0.5-0.06-0.08,0.01
			c-1.3,0.15-2.57,1.04-2.5,2.5c0.06,1.23,1.11,2.66,2.5,2.5c7.16-0.81,13.39-5.81,15.45-12.78c0.37-1.25-0.45-2.78-1.75-3.08
			C239.3,419.9,237.96,420.61,237.56,421.95L237.56,421.95z"/>
	</g>
</g>
<g>
	<g>
		<path class="st4" d="M244.13,435.71c2.32-0.3,4.44,0.99,6.52,1.84c2.26,0.93,4.58,1.73,6.93,2.41c4.77,1.38,9.69,2.21,14.64,2.59
			c1.35,0.1,2.5-1.22,2.5-2.5c0-1.44-1.15-2.4-2.5-2.5c-4.82-0.37-9.57-1.27-14.19-2.67c-2.28-0.69-4.53-1.5-6.72-2.44
			c-2.29-0.98-4.62-2.07-7.18-1.74c-1.34,0.17-2.5,1.03-2.5,2.5C241.63,434.43,242.78,435.89,244.13,435.71L244.13,435.71z"/>
	</g>
</g>
<g>
	<g>
		<path class="st4" d="M247.43,416.53c5.51,0.81,11.06,1.14,16.63,0.87c1.3-0.06,2.56-1.11,2.5-2.5c-0.06-1.3-1.1-2.57-2.5-2.5
			c-5.09,0.24-10.4,0.02-15.3-0.69c-1.29-0.19-2.75,0.32-3.08,1.75C245.41,414.64,246.04,416.32,247.43,416.53L247.43,416.53z"/>
	</g>
</g>
<g>
	<g>
		<path class="st4" d="M244.57,417.37c5.85,1.06,11.78,1.54,17.72,1.36c1.35-0.04,2.5-1.12,2.5-2.5c0-1.32-1.14-2.54-2.5-2.5
			c-5.5,0.16-11-0.21-16.39-1.19c-1.33-0.24-2.69,0.36-3.08,1.75C242.49,415.51,243.23,417.13,244.57,417.37L244.57,417.37z"/>
	</g>
</g>
<g>
	<g>
		<path class="st4" d="M247.44,406.91c3.45,0.77,6.86,1.68,10.23,2.74c1.25,0.39,2.78-0.46,3.08-1.75c0.31-1.36-0.41-2.66-1.75-3.08
			c-3.37-1.06-6.78-1.97-10.23-2.74c-1.27-0.28-2.77,0.38-3.08,1.75C245.41,405.1,246.08,406.6,247.44,406.91L247.44,406.91z"/>
	</g>
</g>
<g>
	<g>
		<path class="st4" d="M240.97,392.83c0.02,0.01,0.73,0.29,0.3,0.1c0.15,0.06,0.29,0.13,0.44,0.2c0.4,0.19,0.79,0.39,1.17,0.61
			c0.74,0.42,1.45,0.88,2.14,1.37c0.33,0.24,0.66,0.48,0.99,0.72c0.16,0.12,0.33,0.25,0.49,0.37c0.2,0.15-0.16-0.12,0.18,0.14
			c0.78,0.61,1.56,1.22,2.35,1.83c2.7,2.08,5.66,4.03,9.1,4.53c1.33,0.19,2.69-0.33,3.08-1.75c0.32-1.17-0.4-2.88-1.75-3.08
			c-0.82-0.12-1.62-0.31-2.4-0.6c-0.18-0.07-0.37-0.13-0.55-0.21c0.33,0.14,0-0.01-0.15-0.08c-0.39-0.19-0.77-0.39-1.14-0.6
			c-0.69-0.4-1.36-0.84-2.01-1.3c-0.33-0.23-0.66-0.47-0.98-0.72c-0.2-0.15-0.39-0.29-0.58-0.44c0.27,0.21-0.07-0.05-0.17-0.13
			c-2.89-2.25-5.69-4.51-9.17-5.78c-1.27-0.46-2.74,0.52-3.08,1.75C238.84,391.15,239.7,392.37,240.97,392.83L240.97,392.83z"/>
	</g>
</g>
<g>
	<g>
		<path class="st4" d="M247.13,408.55c4.88,1.33,9.82,2.43,14.81,3.3c1.28,0.22,2.76-0.34,3.08-1.75c0.28-1.22-0.37-2.83-1.75-3.08
			c-4.98-0.87-9.92-1.97-14.81-3.3c-1.26-0.34-2.77,0.43-3.08,1.75C245.08,406.79,245.78,408.18,247.13,408.55L247.13,408.55z"/>
	</g>
</g>
<g>
	<g>
		<path class="st4" d="M246.75,416.85c5.9,2.97,12.47,4.42,19.08,4.06c1.35-0.07,2.5-1.1,2.5-2.5c0-1.3-1.15-2.57-2.5-2.5
			c-5.74,0.31-11.4-0.79-16.55-3.38c-1.21-0.61-2.71-0.32-3.42,0.9C245.21,414.54,245.54,416.24,246.75,416.85L246.75,416.85z"/>
	</g>
</g>
<g>
	<g>
		<path class="st4" d="M243.73,415.39c4.01,1.88,7.22,5.05,11.16,7.06c4.03,2.06,8.65,3.22,13.09,1.82
			c3.06-0.97,1.75-5.79-1.33-4.82c-7.87,2.49-14-5.39-20.39-8.38c-1.22-0.57-2.7-0.34-3.42,0.9
			C242.2,413.05,242.51,414.81,243.73,415.39L243.73,415.39z"/>
	</g>
</g>
<g>
	<g>
		<path class="st4" d="M244.26,399.06c4.6,1.25,9.2,2.49,13.8,3.74c1.26,0.34,2.77-0.43,3.08-1.75c0.3-1.32-0.4-2.71-1.75-3.08
			c-4.6-1.25-9.2-2.49-13.8-3.74c-1.26-0.34-2.77,0.43-3.08,1.75C242.22,397.3,242.91,398.7,244.26,399.06L244.26,399.06z"/>
	</g>
</g>
<g>
	<g>
		<path class="st4" d="M249.14,416.35c4.02,0,8.05,0,12.07,0c1.31,0,2.56-1.15,2.5-2.5s-1.1-2.5-2.5-2.5c-4.02,0-8.05,0-12.07,0
			c-1.31,0-2.56,1.15-2.5,2.5C246.71,415.21,247.74,416.35,249.14,416.35L249.14,416.35z"/>
	</g>
</g>
<g>
	<g>
		<path class="st4" d="M252.34,410.32c3.2,0,6.39,0,9.59,0c1.31,0,2.56-1.15,2.5-2.5s-1.1-2.5-2.5-2.5c-3.2,0-6.39,0-9.59,0
			c-1.31,0-2.56,1.15-2.5,2.5S250.94,410.32,252.34,410.32L252.34,410.32z"/>
	</g>
</g>
<g>
	<g>
		<path class="st0" d="M288.82,432.87c0.05,0.42,0.07,0.84,0.04,1.26c0.03-0.43-0.02,0.09-0.04,0.19c-0.05,0.2-0.11,0.39-0.17,0.59
			c-0.17,0.63,0.18-0.26-0.13,0.32c-0.08,0.15-0.15,0.3-0.24,0.45c-0.13,0.22-0.27,0.43-0.41,0.65c-0.04,0.07-0.23,0.33-0.08,0.12
			c-0.54,0.71-1.19,1.34-1.86,1.92c-0.75,0.66-1.12,0.92-2.01,1.54c-3.46,2.41-7.14,4.47-10.99,6.18c-1.23,0.55-1.52,2.35-0.9,3.42
			c0.74,1.27,2.18,1.45,3.42,0.9c4.19-1.87,8.24-4.14,11.94-6.86c3.36-2.47,6.99-6.12,6.41-10.69c-0.17-1.34-1.03-2.5-2.5-2.5
			C290.1,430.37,288.66,431.52,288.82,432.87L288.82,432.87z"/>
	</g>
</g>
<g>
	<path class="st2" d="M294.24,394.03c1.74,26.22-1.83,52.49-5.97,78.44c-0.16,1.03-0.29,2.19,0.36,3c0.57,0.71,1.55,0.9,2.45,1.04
		c14.14,2.25,28.27,4.51,42.41,6.76c-0.09-4.04-1.6-7.91-3.08-11.67c-7.68-19.45-15.36-38.89-23.04-58.34
		c-3.15-7.98-6.34-16.03-11.22-23.09"/>
	<g>
		<path class="st3" d="M291.74,394.03c1.12,17.13,0.01,34.32-2.06,51.34c-1.03,8.51-2.31,17-3.66,25.47
			c-0.29,1.85-0.75,3.89,0.27,5.62c1.01,1.71,2.79,2.26,4.63,2.55c4.27,0.69,8.55,1.36,12.82,2.04c9.7,1.55,19.4,3.09,29.09,4.64
			c1.52,0.24,3.23-0.64,3.16-2.41c-0.24-6.6-3.35-12.78-5.73-18.82c-2.53-6.41-5.06-12.81-7.59-19.22
			c-4.93-12.49-9.76-25.03-14.82-37.47c-2.66-6.54-5.54-13.01-9.55-18.85c-0.76-1.11-2.2-1.61-3.42-0.9c-1.1,0.64-1.66,2.3-0.9,3.42
			c3.41,4.98,6.05,10.42,8.36,15.99c2.48,5.99,4.8,12.05,7.18,18.08c4.88,12.35,9.75,24.69,14.63,37.04
			c1.39,3.53,2.8,7.06,4.18,10.59c1.27,3.26,2.53,6.6,2.65,10.13c1.05-0.8,2.11-1.61,3.16-2.41c-8.3-1.32-16.6-2.65-24.9-3.97
			c-4.11-0.66-8.22-1.31-12.33-1.97c-1.94-0.31-3.94-0.52-5.86-0.95c-0.19-0.04-0.56-0.08-0.67-0.22c0.02,0.03,0.22,0.26,0.25,0.12
			c0.16-0.79,0.19-1.65,0.31-2.45c2.59-16.37,4.93-32.82,5.84-49.38c0.51-9.33,0.55-18.69-0.06-28.03c-0.09-1.35-1.09-2.5-2.5-2.5
			C292.95,391.53,291.65,392.68,291.74,394.03L291.74,394.03z"/>
	</g>
</g>
<g>
	<g>
		<path class="st0" d="M192.32,427.67c-1.9,6.5-4.39,12.79-7.48,18.81c-0.62,1.2-0.31,2.71,0.9,3.42c1.12,0.65,2.8,0.31,3.42-0.9
			c3.28-6.4,5.97-13.1,7.98-20C198.05,425.91,193.22,424.59,192.32,427.67L192.32,427.67z"/>
	</g>
</g>
<g>
	<g>
		<path class="st0" d="M199.3,430.71c-1.69,5.2-3.69,9.79-6.36,14.62c-0.63,1.14-0.32,2.78,0.9,3.42c1.17,0.62,2.75,0.33,3.42-0.9
			c2.78-5.04,5.08-10.34,6.86-15.82c0.41-1.24-0.47-2.78-1.75-3.08C201,428.65,199.73,429.38,199.3,430.71L199.3,430.71z"/>
	</g>
</g>
<g>
	<g>
		<path class="st0" d="M312.69,432c-2.15,9.56-8.85,17.54-17.82,21.43c-1.24,0.54-1.52,2.35-0.9,3.42c0.75,1.28,2.18,1.44,3.42,0.9
			c10.05-4.36,17.72-13.75,20.12-24.42C318.21,430.19,313.4,428.85,312.69,432L312.69,432z"/>
	</g>
</g>
<g>
	<g>
		<path class="st0" d="M298.33,386.67c-3,4.75-6,9.5-9,14.25c-0.7,1.11-0.27,2.8,0.9,3.42c1.23,0.65,2.67,0.29,3.42-0.9
			c3-4.75,6-9.5,9-14.25c0.7-1.11,0.27-2.8-0.9-3.42C300.52,385.12,299.08,385.49,298.33,386.67L298.33,386.67z"/>
	</g>
</g>
<g>
	<g>
		<path class="st0" d="M297.52,394.51c-2.39,7.77-5.84,15.12-10.25,21.95c-1.75,2.71,2.58,5.22,4.32,2.52
			c4.63-7.17,8.25-14.98,10.76-23.15C303.29,392.76,298.46,391.44,297.52,394.51L297.52,394.51z"/>
	</g>
</g>
<g>
	<g>
		<path class="st0" d="M309.9,434.66c4.87,4.88,9.9,9.59,15.11,14.1c4.84,4.19,9.79,8.67,16.02,10.62c3.08,0.96,4.4-3.86,1.33-4.82
			c-5.64-1.76-10.18-6.16-14.53-9.95c-4.95-4.32-9.75-8.82-14.39-13.47C311.16,428.85,307.62,432.38,309.9,434.66L309.9,434.66z"/>
	</g>
</g>
<g>
	<g>
		<path class="st0" d="M295.21,388.36c6.49,8.97,15.15,16.22,25.23,20.82c1.23,0.56,2.69,0.35,3.42-0.9
			c0.63-1.07,0.34-2.86-0.9-3.42c-9.28-4.23-17.45-10.75-23.44-19.03c-0.79-1.09-2.17-1.63-3.42-0.9
			C295.03,385.58,294.42,387.26,295.21,388.36L295.21,388.36z"/>
	</g>
</g>
<g>
	<g>
		<path class="st0" d="M292.26,397.21c4.97,5.16,9.96,10.33,15.28,15.13c4.82,4.34,10.35,9.75,17.28,9.74c3.22,0,3.22-5,0-5
			c-2.81,0-5.24-1.39-7.46-3c-2.59-1.87-4.98-4.08-7.33-6.23c-4.93-4.53-9.59-9.36-14.23-14.18
			C293.56,391.35,290.02,394.89,292.26,397.21L292.26,397.21z"/>
	</g>
</g>
<g>
	<g>
		<path class="st0" d="M298.89,394.73c3.42,4.15,6.84,8.3,10.26,12.44c3.12,3.78,7.19,7.45,12.49,6.15c3.12-0.77,1.8-5.59-1.33-4.82
			c-3.71,0.91-6.67-3.71-8.65-6.11c-3.08-3.73-6.16-7.47-9.23-11.2c-0.86-1.04-2.65-0.89-3.54,0
			C297.86,392.23,298.03,393.69,298.89,394.73L298.89,394.73z"/>
	</g>
</g>
<g>
	<g>
		<path class="st0" d="M290.36,407.67c3.66,0.92,6.88,3.88,9.77,6.2c3.05,2.44,6.01,4.99,9.06,7.44
			c6.16,4.94,12.72,9.48,20.44,11.57c3.11,0.84,4.44-3.98,1.33-4.82c-7.37-1.99-13.62-6.52-19.46-11.28
			c-3.03-2.47-5.99-5.01-9.07-7.42c-3.24-2.54-6.66-5.47-10.73-6.5C288.57,402.06,287.23,406.88,290.36,407.67L290.36,407.67z"/>
	</g>
</g>
<g>
	<g>
		<path class="st0" d="M300.4,404.32c0.34,1.34-0.57,2.75-1.42,3.91c-1.11,1.51-2.42,2.9-3.63,4.33c-2.74,3.22-5.49,6.45-8.23,9.67
			c-0.87,1.03-1.01,2.53,0,3.54c0.9,0.9,2.66,1.03,3.54,0c3.09-3.63,6.18-7.27,9.27-10.9c2.84-3.34,6.51-7.08,5.29-11.87
			C304.43,399.87,299.61,401.19,300.4,404.32L300.4,404.32z"/>
	</g>
</g>
<g>
	<g>
		<path class="st0" d="M303.97,404.66c0.22,0.38-0.62,1.63-0.8,1.99c-0.64,1.21-1.31,2.41-2.01,3.59c-1.36,2.3-2.82,4.53-4.39,6.7
			c-3.09,4.27-6.64,8.2-10.48,11.81c-2.35,2.21,1.19,5.74,3.54,3.54c4.47-4.2,8.49-8.86,12.02-13.88c1.7-2.42,3.27-4.93,4.71-7.52
			c1.47-2.64,3.46-5.76,1.73-8.75C306.68,399.35,302.36,401.87,303.97,404.66L303.97,404.66z"/>
	</g>
</g>
<g>
	<g>
		<path class="st0" d="M305.49,422.61c-0.03,5.24-3.51,9.96-6.42,14.06c-3.17,4.47-6.81,8.61-10.76,12.41
			c-2.32,2.24,1.22,5.77,3.54,3.54c4.37-4.2,8.32-8.83,11.8-13.79c3.37-4.81,6.8-10.14,6.84-16.22
			C310.51,419.39,305.51,419.38,305.49,422.61L305.49,422.61z"/>
	</g>
</g>
<g>
	<g>
		<path class="st0" d="M307.38,429c-4.52,7.41-11.44,13.39-19.51,16.64c-1.25,0.5-2.13,1.67-1.75,3.08
			c0.33,1.19,1.82,2.25,3.08,1.75c9.33-3.75,17.25-10.34,22.5-18.94C313.38,428.77,309.06,426.25,307.38,429L307.38,429z"/>
	</g>
</g>
<g>
	<g>
		<path class="st0" d="M298.31,423.48c11.31,5.63,23.46,9.44,35.98,11.16c1.34,0.18,2.68-0.32,3.08-1.75
			c0.32-1.17-0.4-2.89-1.75-3.08c-12.08-1.66-23.86-5.22-34.79-10.66C297.97,417.74,295.43,422.05,298.31,423.48L298.31,423.48z"/>
	</g>
</g>
<g>
	<g>
		<path class="st0" d="M305.4,429.29c4.8,4.58,10.1,8.64,15.79,12.04c2.82,1.68,5.73,3.2,8.72,4.55c2.75,1.24,6.57,3.37,9.42,1.22
			c1.08-0.81,1.64-2.16,0.9-3.42c-0.62-1.06-2.34-1.72-3.42-0.9c-0.74,0.56-1.86-0.14-2.61-0.46c-1.32-0.55-2.61-1.14-3.89-1.76
			c-2.63-1.27-5.2-2.68-7.69-4.22c-4.93-3.04-9.5-6.59-13.69-10.59C306.61,423.53,303.07,427.06,305.4,429.29L305.4,429.29z"/>
	</g>
</g>
<g>
	<g>
		<path class="st0" d="M303.81,428.4c9.98,6.18,21.36,9.79,33.07,10.62c1.35,0.1,2.5-1.22,2.5-2.5c0-1.43-1.15-2.4-2.5-2.5
			c-10.82-0.76-21.33-4.23-30.54-9.94C303.59,422.38,301.08,426.7,303.81,428.4L303.81,428.4z"/>
	</g>
</g>
<g>
	<g>
		<path class="st0" d="M298.07,453.93c2.04-0.32,4.14,0.41,6.07,0.97c2.13,0.63,4.26,1.26,6.39,1.89c4.34,1.28,8.68,2.56,13.02,3.84
			c3.09,0.91,4.41-3.91,1.33-4.82c-4.66-1.37-9.31-2.75-13.97-4.12c-4.58-1.35-9.33-3.34-14.17-2.58c-1.34,0.21-2.07,1.88-1.75,3.08
			C295.39,453.6,296.73,454.14,298.07,453.93L298.07,453.93z"/>
	</g>
</g>
<g>
	<g>
		<path class="st0" d="M304.97,414.21c1.51,0.34,2.8,1.12,3.96,2.09c1.39,1.16,2.65,2.45,4.04,3.6c3.22,2.65,6.9,4.61,10.93,5.73
			c3.1,0.86,4.43-3.96,1.33-4.82c-3.56-0.99-6.84-2.75-9.62-5.22c-2.8-2.49-5.5-5.36-9.31-6.21c-1.32-0.29-2.71,0.4-3.08,1.75
			C302.88,412.39,303.65,413.92,304.97,414.21L304.97,414.21z"/>
	</g>
</g>
<g>
	<g>
		<path class="st0" d="M301.29,399.83c-3.14,3.23-6.18,6.55-9.14,9.95c-0.86,0.99-1.04,2.58,0,3.54c0.94,0.86,2.62,1.05,3.54,0
			c2.96-3.4,6-6.72,9.14-9.95c0.91-0.94,1.01-2.61,0-3.54C303.84,398.92,302.27,398.82,301.29,399.83L301.29,399.83z"/>
	</g>
</g>
<g>
	<g>
		<path class="st0" d="M306.11,420.27c8.54,2.87,17.05,5.83,25.53,8.9c1.27,0.46,2.74-0.52,3.08-1.75c0.38-1.39-0.47-2.61-1.75-3.08
			c-8.47-3.07-16.98-6.03-25.53-8.9C304.38,414.42,303.07,419.25,306.11,420.27L306.11,420.27z"/>
	</g>
</g>
<g>
	<g>
		<path class="st0" d="M294.89,452.9c4.64,1.4,8.36,4.78,12.51,7.16c4.53,2.6,9.47,4.5,14.56,5.62c3.14,0.69,4.48-4.13,1.33-4.82
			c-4.99-1.1-9.75-2.94-14.13-5.57c-4.26-2.56-8.1-5.77-12.94-7.22C293.13,447.15,291.81,451.97,294.89,452.9L294.89,452.9z"/>
	</g>
</g>
<g>
	<g>
		<path class="st0" d="M296.46,451.91c5.26,5.66,10.51,11.33,15.77,16.99c2.41,2.59,4.74,5.29,7.27,7.76c2.3,2.25,5.04,4.29,8.3,4.8
			c1.33,0.21,2.69-0.34,3.08-1.75c0.33-1.19-0.4-2.87-1.75-3.08c-2.81-0.44-4.86-2.23-6.78-4.21c-2.47-2.54-4.84-5.19-7.25-7.78
			c-5.03-5.42-10.06-10.85-15.1-16.27C297.81,446.01,294.28,449.55,296.46,451.91L296.46,451.91z"/>
	</g>
</g>
<g>
	<g>
		<path class="st0" d="M308.84,447.6c1.52,7.91,6.78,14.31,11.88,20.27c4.82,5.63,10.27,11.39,17.75,13.19
			c3.13,0.75,4.46-4.07,1.33-4.82c-6.61-1.6-11.3-6.95-15.54-11.91c-4.57-5.33-9.24-10.99-10.6-18.06
			c-0.26-1.33-1.85-2.08-3.08-1.75C309.2,444.91,308.58,446.27,308.84,447.6L308.84,447.6z"/>
	</g>
</g>
<g>
	<g>
		<path class="st0" d="M309.79,437.55c-5.37,5.34-11.51,9.77-18.26,13.21c-1.2,0.61-1.55,2.3-0.9,3.42c0.71,1.22,2.21,1.51,3.42,0.9
			c7.1-3.62,13.62-8.38,19.27-13.99C315.61,438.81,312.07,435.28,309.79,437.55L309.79,437.55z"/>
	</g>
</g>
<g>
	<g>
		<path class="st0" d="M292.94,430.83c-0.28,0.42-0.57,0.82-0.87,1.22c0.13-0.17,0.26-0.34,0.39-0.51c-1.07,1.38-2.31,2.62-3.7,3.69
			c0.17-0.13,0.34-0.26,0.51-0.39c-0.96,0.73-1.98,1.38-3.05,1.94c-1.16,0.6-1.6,2.32-0.9,3.42c0.76,1.18,2.18,1.54,3.42,0.9
			c3.45-1.8,6.36-4.51,8.51-7.74c0.72-1.09,0.25-2.81-0.9-3.42C295.1,429.27,293.71,429.66,292.94,430.83L292.94,430.83z"/>
	</g>
</g>
<g>
	<g>
		<path class="st0" d="M281.9,450.86c6.82,7.84,15.98,13.51,26.01,16.19c3.11,0.83,4.44-3.99,1.33-4.82
			c-9.26-2.47-17.52-7.67-23.81-14.9c-0.89-1.02-2.63-0.91-3.54,0C280.89,448.33,281.01,449.84,281.9,450.86L281.9,450.86z"/>
	</g>
</g>
<g>
	<g>
		<path class="st0" d="M286.06,428.89c-1.19,3.27-2.38,6.53-3.57,9.8c-0.45,1.23,0.5,2.79,1.75,3.08c1.41,0.32,2.6-0.43,3.08-1.75
			c1.19-3.27,2.38-6.53,3.57-9.8c0.45-1.23-0.5-2.79-1.75-3.08C287.73,426.83,286.54,427.58,286.06,428.89L286.06,428.89z"/>
	</g>
</g>
<g>
	<g>
		<path class="st0" d="M311.33,442.33c5.18,6.63,12.08,11.66,19.85,14.85c1.25,0.51,2.75-0.56,3.08-1.75
			c0.39-1.43-0.49-2.56-1.75-3.08c-6.88-2.83-13-7.62-17.64-13.57c-0.83-1.06-2.66-0.87-3.54,0
			C310.27,439.85,310.49,441.26,311.33,442.33L311.33,442.33z"/>
	</g>
</g>
<g>
	<g>
		<path class="st0" d="M306.92,450.45c2.29,0.57,4.07,2.52,5.86,3.94c2.11,1.67,4.26,3.29,6.54,4.72c4.51,2.83,9.48,4.81,14.83,5.13
			c3.21,0.19,3.2-4.81,0-5c-4.89-0.29-9.35-2.47-13.37-5.14c-2.01-1.33-3.92-2.79-5.78-4.31c-2.08-1.69-4.09-3.51-6.75-4.17
			C305.13,444.86,303.8,449.68,306.92,450.45L306.92,450.45z"/>
	</g>
</g>
<g>
	<g>
		<path class="st0" d="M315.8,453.62c4.22,0.9,8.35,2.17,12.36,3.79c1.22,0.49,2.8-0.53,3.08-1.75c0.33-1.45-0.44-2.55-1.75-3.08
			c-4-1.62-8.13-2.89-12.36-3.79c-1.28-0.27-2.76,0.38-3.08,1.75C313.77,451.8,314.43,453.32,315.8,453.62L315.8,453.62z"/>
	</g>
</g>
<g>
	<g>
		<path class="st0" d="M298.93,420.31c0.08,0.65,0.11,1.29,0.09,1.94c-0.01,0.31-0.04,0.61-0.07,0.92c-0.03,0.32,0.09-0.5,0-0.02
			c-0.04,0.18-0.07,0.36-0.11,0.55c-0.13,0.6-0.31,1.2-0.53,1.78c-0.03,0.07-0.24,0.56-0.08,0.22s-0.07,0.14-0.1,0.21
			c-0.15,0.31-0.31,0.61-0.48,0.9c-0.15,0.27-0.32,0.53-0.49,0.79c-0.09,0.13-0.18,0.25-0.27,0.38c-0.34,0.49,0.22-0.25,0,0.01
			c-0.42,0.5-0.85,0.98-1.33,1.42c-0.22,0.21-0.46,0.43-0.71,0.6c0.52-0.36-0.26,0.16-0.4,0.25c-0.29,0.18-0.58,0.36-0.88,0.51
			c-0.14,0.07-0.27,0.14-0.41,0.21c-0.13,0.06-0.67,0.28-0.08,0.05c-1.21,0.49-2.2,1.69-1.75,3.08c0.38,1.16,1.78,2.27,3.08,1.75
			c3.14-1.28,5.73-3.44,7.47-6.36c1.62-2.72,2.45-6.03,2.06-9.18c-0.16-1.29-1.03-2.57-2.5-2.5
			C300.21,417.87,298.76,418.92,298.93,420.31L298.93,420.31z"/>
	</g>
</g>
<g>
	<g>
		<path class="st0" d="M301.65,426.27c-0.86,1.94-1.91,3.79-3.13,5.53c-0.14,0.19-0.27,0.38-0.41,0.57
			c-0.09,0.12-0.18,0.24-0.27,0.35c-0.21,0.28,0.28-0.35,0.07-0.09c-0.33,0.41-0.67,0.82-1.02,1.23c-0.72,0.82-1.48,1.6-2.27,2.35
			c-0.96,0.9-0.97,2.64,0,3.54c1.02,0.94,2.52,0.96,3.54,0c3.29-3.08,5.99-6.84,7.82-10.96c0.28-0.63,0.44-1.23,0.25-1.93
			c-0.16-0.58-0.61-1.21-1.15-1.49C303.99,424.8,302.22,424.99,301.65,426.27L301.65,426.27z"/>
	</g>
</g>
<g>
	<g>
		<path class="st0" d="M297.58,420.77c-0.01,0.09-0.02,0.18-0.03,0.26c0.03-0.22,0.06-0.44,0.09-0.66
			c-0.12,0.85-0.35,1.68-0.68,2.48c0.08-0.2,0.17-0.4,0.25-0.6c-0.34,0.79-0.77,1.54-1.3,2.22c0.13-0.17,0.26-0.34,0.39-0.51
			c-0.09,0.12-0.18,0.23-0.28,0.34c-0.44,0.52-0.73,1.07-0.73,1.77c0,0.61,0.27,1.35,0.73,1.77c0.48,0.44,1.1,0.76,1.77,0.73
			c0.63-0.03,1.34-0.23,1.77-0.73c0.78-0.93,1.47-1.91,1.95-3.03c0.27-0.64,0.54-1.27,0.71-1.94c0.18-0.69,0.28-1.4,0.36-2.11
			c0.07-0.59-0.33-1.36-0.73-1.77c-0.43-0.43-1.15-0.76-1.77-0.73c-0.65,0.03-1.32,0.24-1.77,0.73c-0.13,0.17-0.26,0.34-0.39,0.51
			C297.7,419.9,297.58,420.32,297.58,420.77L297.58,420.77z"/>
	</g>
</g>
<g>
	<g>
		<path class="st0" d="M307.92,437.82c-3.81,8.82-9.31,16.76-16.26,23.38c-2.33,2.22,1.2,5.76,3.54,3.54
			c7.24-6.89,13.08-15.22,17.05-24.39c0.54-1.24,0.37-2.68-0.9-3.42C310.28,436.31,308.46,436.57,307.92,437.82L307.92,437.82z"/>
	</g>
</g>
<g>
	<g>
		<path class="st0" d="M297.35,468.65c11.24-0.21,22.48-0.25,33.72-0.1c3.22,0.04,3.22-4.96,0-5c-11.24-0.15-22.48-0.11-33.72,0.1
			C294.14,463.71,294.13,468.71,297.35,468.65L297.35,468.65z"/>
	</g>
</g>
<g>
	<g>
		<path class="st0" d="M315.78,458.14c5.05,0.9,10.17,1.28,15.29,1.06c1.3-0.06,2.56-1.11,2.5-2.5c-0.06-1.31-1.1-2.56-2.5-2.5
			c-2.4,0.11-4.8,0.09-7.2-0.06c-2.49-0.16-4.44-0.4-6.76-0.81c-1.28-0.23-2.76,0.35-3.08,1.75
			C313.76,456.28,314.4,457.89,315.78,458.14L315.78,458.14z"/>
	</g>
</g>
<g>
	<g>
		<path class="st0" d="M311.98,465.12c-8.27,0.73-16.54,1.46-24.8,2.19c-1.34,0.12-2.5,1.06-2.5,2.5c0,1.26,1.15,2.62,2.5,2.5
			c8.27-0.73,16.54-1.46,24.8-2.19c1.34-0.12,2.5-1.06,2.5-2.5C314.48,466.36,313.33,465,311.98,465.12L311.98,465.12z"/>
	</g>
</g>
<g>
	<g>
		<path class="st0" d="M318.65,468.39c-4.58,0-9.17,0-13.75,0c-1.31,0-2.56,1.15-2.5,2.5s1.1,2.5,2.5,2.5c4.58,0,9.17,0,13.75,0
			c1.31,0,2.56-1.15,2.5-2.5S320.05,468.39,318.65,468.39L318.65,468.39z"/>
	</g>
</g>
<g>
	<g>
		<path class="st0" d="M300.11,435.92c7.75,13.1,23.55,16.42,37.61,17.14c3.22,0.17,3.21-4.84,0-5c-12.22-0.63-26.51-3.2-33.3-14.67
			C302.79,430.63,298.47,433.14,300.11,435.92L300.11,435.92z"/>
	</g>
</g>
<g>
	<g>
		<path class="st0" d="M193.32,396.76c5.42,5.99,12.58,10.34,20.38,12.45c3.11,0.84,4.44-3.98,1.33-4.82
			c-7.01-1.9-13.28-5.76-18.17-11.17c-0.91-1-2.61-0.92-3.54,0C192.32,394.22,192.41,395.75,193.32,396.76L193.32,396.76z"/>
	</g>
</g>
<g>
	<g>
		<path class="st0" d="M189.29,382.09c3.58,2.84,7.59,5,11.98,6.31c1.25,0.37,2.78-0.45,3.08-1.75c0.31-1.34-0.4-2.68-1.75-3.08
			c-0.97-0.29-1.93-0.62-2.87-1c-0.12-0.05-0.23-0.1-0.35-0.14c0.31,0.13,0.33,0.14,0.07,0.03c-0.23-0.1-0.46-0.21-0.69-0.31
			c-0.43-0.2-0.86-0.41-1.28-0.63c-0.87-0.45-1.72-0.95-2.54-1.48c-0.43-0.27-0.84-0.56-1.26-0.85c-0.21-0.15-0.41-0.3-0.61-0.45
			c-0.22-0.17-0.2-0.15,0.05,0.04c-0.1-0.08-0.2-0.16-0.3-0.24c-0.54-0.43-1.05-0.73-1.77-0.73c-0.61,0-1.35,0.27-1.77,0.73
			C188.46,379.46,188.19,381.22,189.29,382.09L189.29,382.09z"/>
	</g>
</g>
<g>
	<g>
		<path class="st0" d="M184.01,366.14c3.15,3.11,6.21,6.39,9.55,9.29c3.1,2.69,6.8,5.01,11.06,4.8c1.35-0.07,2.5-1.1,2.5-2.5
			c0-1.3-1.14-2.57-2.5-2.5c-1.54,0.08-2.78-0.24-4.13-0.95c-1.56-0.83-2.79-1.82-4.08-2.99c-3.06-2.78-5.93-5.78-8.87-8.69
			C185.25,360.34,181.72,363.87,184.01,366.14L184.01,366.14z"/>
	</g>
</g>
<g>
	<g>
		<path class="st0" d="M193.74,378.32c0.07,0.03,0.71,0.29,0.18,0.06c0.16,0.07,0.32,0.14,0.47,0.22c0.35,0.17,0.68,0.35,1.02,0.54
			c0.61,0.35,1.2,0.74,1.78,1.15c0.32,0.23,0.64,0.46,0.95,0.69c0.14,0.11,0.28,0.21,0.43,0.32c0.04,0.03,0.61,0.47,0.17,0.13
			c0.7,0.55,1.4,1.09,2.11,1.63c2.6,1.96,5.39,3.49,8.7,3.75c1.31,0.1,2.56-1.22,2.5-2.5c-0.06-1.44-1.1-2.39-2.5-2.5
			c-0.11-0.01-0.76-0.12-0.15,0c-0.13-0.03-0.27-0.05-0.4-0.07c-0.36-0.07-0.72-0.17-1.07-0.28c-0.16-0.05-0.32-0.11-0.47-0.17
			c-0.45-0.15,0.21,0.12-0.05-0.02c-0.33-0.17-0.67-0.32-1-0.5c-1.25-0.69-2.4-1.54-3.54-2.41c-0.32-0.24,0.46,0.36-0.09-0.07
			c-0.14-0.11-0.28-0.22-0.42-0.33c-0.39-0.31-0.79-0.61-1.18-0.91c-0.59-0.45-1.19-0.9-1.81-1.32c-1.34-0.92-2.76-1.66-4.29-2.22
			c-1.23-0.45-2.79,0.51-3.08,1.75C191.67,376.66,192.42,377.83,193.74,378.32L193.74,378.32z"/>
	</g>
</g>
<g>
	<g>
		<path class="st0" d="M198.34,435.17c-5.4,2.98-10.67,6.19-15.79,9.63c-1.08,0.73-1.66,2.24-0.9,3.42c0.7,1.08,2.26,1.68,3.42,0.9
			c5.12-3.44,10.39-6.65,15.79-9.63c1.15-0.63,1.62-2.3,0.9-3.42C201.01,434.9,199.57,434.49,198.34,435.17L198.34,435.17z"/>
	</g>
</g>
<g>
	<g>
		<path class="st0" d="M190.7,420.41c3.09,0.75,5.44,2.95,7.82,4.92c2.66,2.2,5.48,4.21,8.47,5.95c5.91,3.44,12.43,5.89,19.14,7.19
			c1.32,0.26,2.7-0.37,3.08-1.75c0.34-1.23-0.41-2.82-1.75-3.08c-6.6-1.28-12.91-3.65-18.68-7.12c-2.84-1.71-5.45-3.68-7.99-5.8
			c-2.63-2.2-5.37-4.32-8.76-5.15C188.9,414.83,187.57,419.65,190.7,420.41L190.7,420.41z"/>
	</g>
</g>
<g>
	<g>
		<path class="st0" d="M204.97,439.66c9.63,2.74,19.44,4.68,29.38,5.92c1.34,0.17,2.5-1.27,2.5-2.5c0-1.49-1.15-2.33-2.5-2.5
			c-9.48-1.18-18.86-3.13-28.05-5.74C203.2,433.96,201.88,438.78,204.97,439.66L204.97,439.66z"/>
	</g>
</g>
<g>
	<g>
		<path class="st0" d="M202.25,442.96c-0.01,0.12-0.03,0.23-0.04,0.35c0.03-0.22,0.06-0.44,0.09-0.66
			c-0.13,0.89-0.37,1.75-0.71,2.58c0.08-0.2,0.17-0.4,0.25-0.6c-0.37,0.86-0.84,1.67-1.4,2.41c0.13-0.17,0.26-0.34,0.39-0.51
			c-0.55,0.71-1.18,1.34-1.89,1.89c0.17-0.13,0.34-0.26,0.51-0.39c-0.15,0.12-0.31,0.23-0.47,0.34c-0.54,0.37-0.97,0.84-1.15,1.49
			c-0.16,0.6-0.09,1.4,0.25,1.93c0.69,1.07,2.27,1.69,3.42,0.9c1.61-1.11,2.97-2.5,3.98-4.18c1.02-1.71,1.56-3.57,1.78-5.54
			c0.06-0.6-0.33-1.36-0.73-1.77c-0.43-0.43-1.15-0.76-1.77-0.73c-0.65,0.03-1.32,0.24-1.77,0.73
			C202.51,441.71,202.32,442.26,202.25,442.96L202.25,442.96z"/>
	</g>
</g>
<g>
	<g>
		<path class="st0" d="M225.49,441.61c-6.51,7.5-15.31,12.57-25.06,14.46c-1.33,0.26-2.08,1.85-1.75,3.08
			c0.38,1.39,1.75,2,3.08,1.75c10.5-2.03,20.25-7.67,27.26-15.74c0.88-1.02,1-2.53,0-3.54
			C228.12,440.71,226.38,440.59,225.49,441.61L225.49,441.61z"/>
	</g>
</g>
<g>
	<g>
		<path class="st0" d="M206.38,446.32c-1.87,5.75-4.2,11.3-7,16.65c-0.63,1.2-0.31,2.72,0.9,3.42c1.13,0.66,2.79,0.3,3.42-0.9
			c2.99-5.72,5.51-11.7,7.51-17.85c0.42-1.28-0.49-2.73-1.75-3.08C208.1,444.2,206.8,445.03,206.38,446.32L206.38,446.32z"/>
	</g>
</g>
<g>
	<g>
		<path class="st0" d="M215.01,440.23c-1.15,1.95-0.98,4.53,0.36,6.36c1.32,1.8,3.23,2.81,5.31,3.48c4,1.29,8.3,1.15,12.45,0.96
			c1.3-0.06,2.56-1.11,2.5-2.5c-0.06-1.31-1.1-2.56-2.5-2.5c-1.62,0.07-3.24,0.14-4.86,0.11c-1.68-0.03-3.1-0.13-4.57-0.45
			c-0.76-0.16-1.5-0.37-2.23-0.63c-0.04-0.02-0.46-0.18-0.3-0.11s-0.25-0.12-0.29-0.14c-0.34-0.17-0.69-0.36-0.99-0.59
			c0.21,0.16-0.01-0.02-0.08-0.09c-0.12-0.12-0.24-0.24-0.35-0.37c0.26,0.33-0.26-0.6-0.1-0.16c-0.02-0.06-0.18-0.67-0.13-0.38
			c0.05,0.24,0-0.21,0-0.27c0-0.34-0.12,0.27,0.01-0.04c0.16-0.39-0.3,0.49,0.08-0.16c0.66-1.13,0.3-2.79-0.9-3.42
			C217.23,438.69,215.72,439.02,215.01,440.23L215.01,440.23z"/>
	</g>
</g>
<g>
	<g>
		<path class="st0" d="M190.28,408.92c2.46,1,4.6,2.73,6.71,4.3c2.24,1.67,4.54,3.24,6.95,4.66c4.88,2.88,10.11,5.18,15.5,6.9
			c3.07,0.98,4.39-3.84,1.33-4.82c-5.28-1.69-10.33-3.98-15.07-6.85c-4.77-2.89-8.89-6.91-14.09-9.01
			c-1.25-0.51-2.75,0.55-3.08,1.75C188.14,407.28,189.03,408.41,190.28,408.92L190.28,408.92z"/>
	</g>
</g>
<g>
	<g>
		<path class="st0" d="M188.53,419.13c6.42,4.16,13.17,7.79,20.2,10.82c7.13,3.08,14.84,6.45,22.76,5.02
			c1.33-0.24,2.08-1.86,1.75-3.08c-0.38-1.4-1.74-1.99-3.08-1.75c-3.45,0.62-6.96-0.16-10.25-1.21c-3.38-1.08-6.68-2.43-9.92-3.87
			c-6.57-2.92-12.9-6.36-18.94-10.27C188.35,413.06,185.84,417.39,188.53,419.13L188.53,419.13z"/>
	</g>
</g>
<g>
	<g>
		<path class="st0" d="M202.64,428.53c4.46,5.9,7.91,12.61,13.06,17.98c4.69,4.88,10.95,8.63,17.88,8.57c3.22-0.03,3.22-5.03,0-5
			c-5.91,0.05-11.03-3.48-14.89-7.68c-4.56-4.96-7.7-11.03-11.74-16.39c-0.81-1.08-2.16-1.64-3.42-0.9
			C202.48,425.73,201.82,427.45,202.64,428.53L202.64,428.53z"/>
	</g>
</g>
<g>
	<g>
		<path class="st0" d="M189.34,389.68c6.49,9.79,18.14,15.74,29.91,14.94c1.35-0.09,2.5-1.08,2.5-2.5c0-1.28-1.15-2.59-2.5-2.5
			c-9.98,0.68-20.04-4.08-25.59-12.46C191.89,384.48,187.56,386.98,189.34,389.68L189.34,389.68z"/>
	</g>
</g>
<g>
	<g>
		<path class="st0" d="M214.99,447.24c4.56,3.06,9.12,6.12,13.68,9.18c2.22,1.49,4.44,3.01,6.68,4.48c2.08,1.37,4.45,2.58,7.02,2.33
			c1.34-0.13,2.5-1.05,2.5-2.5c0-1.25-1.15-2.63-2.5-2.5c-2.17,0.21-3.95-1.27-5.66-2.42c-2.11-1.42-4.22-2.83-6.33-4.25
			c-4.29-2.88-8.57-5.75-12.86-8.63C214.84,441.12,212.33,445.45,214.99,447.24L214.99,447.24z"/>
	</g>
</g>
<g>
	<g>
		<path class="st0" d="M209.5,449.26c3.97,2.8,7.88,5.74,12,8.33c3.91,2.47,8.2,4.37,12.88,4.52c3.22,0.11,3.21-4.89,0-5
			c-4.07-0.13-7.71-2.11-11.05-4.28c-3.85-2.5-7.55-5.25-11.3-7.89c-1.1-0.78-2.78-0.2-3.42,0.9
			C207.87,447.09,208.39,448.48,209.5,449.26L209.5,449.26z"/>
	</g>
</g>
<g>
	<g>
		<path class="st0" d="M205.15,451.31c4.61,3.41,9.13,7.11,13.94,10.24c4.62,3,9.97,2.86,15.24,2.35c1.34-0.13,2.5-1.06,2.5-2.5
			c0-1.25-1.15-2.63-2.5-2.5c-2.36,0.23-4.73,0.44-7.1,0.25c-2.4-0.19-4.41-1.07-6.36-2.43c-4.47-3.13-8.8-6.49-13.19-9.73
			c-1.09-0.8-2.79-0.18-3.42,0.9C203.51,449.16,204.06,450.5,205.15,451.31L205.15,451.31z"/>
	</g>
</g>
<g>
	<g>
		<path class="st0" d="M206.2,455.07c6.41,4.07,13.46,7.15,20.8,9.11c3.11,0.83,4.44-3.99,1.33-4.82
			c-6.96-1.85-13.53-4.75-19.61-8.6c-1.14-0.72-2.76-0.24-3.42,0.9C204.6,452.85,205.05,454.34,206.2,455.07L206.2,455.07z"/>
	</g>
</g>
<g>
	<g>
		<path class="st0" d="M226.38,464.52c1.63,0,3.25,0,4.88,0c0.64,0,1.31-0.28,1.77-0.73c0.43-0.43,0.76-1.14,0.73-1.77
			c-0.03-0.65-0.24-1.32-0.73-1.77c-0.49-0.45-1.09-0.73-1.77-0.73c-1.63,0-3.25,0-4.88,0c-0.64,0-1.31,0.28-1.77,0.73
			c-0.43,0.43-0.76,1.15-0.73,1.77c0.03,0.65,0.24,1.32,0.73,1.77C225.1,464.24,225.7,464.52,226.38,464.52L226.38,464.52z"/>
	</g>
</g>
<g>
	<g>
		<path class="st4" d="M252.3,445.11c-5.16,9.33-13.28,16.66-23.05,20.92c-1.24,0.54-1.52,2.35-0.9,3.42
			c0.75,1.28,2.18,1.44,3.42,0.9c10.48-4.58,19.32-12.71,24.84-22.71C258.18,444.81,253.86,442.29,252.3,445.11L252.3,445.11z"/>
	</g>
</g>
<g>
	<g>
		<path class="st4" d="M243.28,449.87c-5.88,8.36-13.16,18.57-24.35,19.34c-1.35,0.09-2.5,1.08-2.5,2.5c0,1.28,1.15,2.59,2.5,2.5
			c13.25-0.92,21.63-11.81,28.67-21.82c0.78-1.1,0.2-2.78-0.9-3.42C245.45,448.25,244.06,448.77,243.28,449.87L243.28,449.87z"/>
	</g>
</g>
<g>
	<g>
		<path class="st4" d="M245.27,464.21c1.82,0.44,3.36,1.41,4.94,2.39c1.6,0.99,3.22,1.94,4.89,2.82c3.53,1.86,7.22,3.44,11,4.76
			c1.28,0.44,2.73-0.51,3.08-1.75c0.38-1.38-0.47-2.63-1.75-3.08c-3.61-1.26-7.1-2.79-10.47-4.61c-3.38-1.83-6.57-4.43-10.35-5.35
			C243.47,458.63,242.14,463.45,245.27,464.21L245.27,464.21z"/>
	</g>
</g>
<g>
	<g>
		<path class="st4" d="M242.73,455.93c7.87,3.29,14.41,9.46,23.06,10.86c1.33,0.22,2.69-0.35,3.08-1.75
			c0.33-1.19-0.41-2.86-1.75-3.08c-8.52-1.38-15.25-7.6-23.06-10.86c-1.25-0.52-2.75,0.56-3.08,1.75
			C240.58,454.3,241.48,455.41,242.73,455.93L242.73,455.93z"/>
	</g>
</g>
<g>
	<g>
		<path class="st4" d="M242.46,429.38c1.21,3.54-0.89,6.91-3.1,9.55c-2.75,3.27-5.66,6.42-8.5,9.61c-0.9,1.01-0.99,2.54,0,3.54
			c0.91,0.91,2.64,1.01,3.54,0c3.19-3.59,6.57-7.08,9.51-10.88c2.87-3.7,4.98-8.44,3.37-13.15c-0.44-1.28-1.72-2.12-3.08-1.75
			C242.97,426.64,242.02,428.09,242.46,429.38L242.46,429.38z"/>
	</g>
</g>
<g>
	<g>
		<path class="st4" d="M239.8,434.86c-3.74,0.12-6.68,2.32-9.42,4.64c-2.81,2.39-5.54,4.87-8.18,7.44c-0.94,0.91-0.99,2.63,0,3.54
			c1.01,0.93,2.53,0.97,3.54,0c2.43-2.36,4.93-4.65,7.5-6.86c1.21-1.04,1.99-1.74,3.2-2.51c0.33-0.21,0.66-0.41,1-0.59
			c0.15-0.08,0.3-0.15,0.46-0.23c-0.24,0.11-0.01,0,0.1-0.04c0.36-0.13,0.72-0.24,1.08-0.32c0.05-0.01,0.51-0.09,0.29-0.06
			c-0.25,0.03,0.45-0.01,0.43-0.01c1.31-0.04,2.56-1.12,2.5-2.5C242.24,436.04,241.2,434.81,239.8,434.86L239.8,434.86z"/>
	</g>
</g>
<g>
	<g>
		<path class="st4" d="M233.31,440.28c-0.5,0.85-1.05,1.68-1.65,2.46c0.13-0.17,0.26-0.34,0.39-0.51c-1.21,1.57-2.61,2.98-4.18,4.2
			c0.17-0.13,0.34-0.26,0.51-0.39c-0.33,0.25-0.66,0.5-1,0.73c-0.54,0.38-0.97,0.84-1.15,1.49c-0.16,0.6-0.09,1.4,0.25,1.93
			c0.69,1.06,2.27,1.7,3.42,0.9c3.14-2.18,5.79-4.98,7.72-8.29c0.66-1.13,0.3-2.79-0.9-3.42
			C235.53,438.75,234.01,439.07,233.31,440.28L233.31,440.28z"/>
	</g>
</g>
<g>
	<g>
		<path class="st4" d="M256.38,448.38c0.9,2.2,2.04,4.16,3.52,6.02c1.35,1.7,2.98,3.14,4.76,4.39c1.07,0.75,2.83,0.23,3.42-0.9
			c0.68-1.28,0.25-2.62-0.9-3.42c-0.2-0.14-0.39-0.28-0.58-0.42c-0.35-0.26,0.35,0.28,0.11,0.09c-0.09-0.08-0.19-0.15-0.28-0.22
			c-0.35-0.29-0.69-0.59-1.02-0.9c-0.68-0.64-1.31-1.32-1.89-2.04c-0.06-0.07-0.12-0.15-0.18-0.22c0.45,0.54,0.19,0.24,0.09,0.11
			c-0.14-0.19-0.28-0.38-0.42-0.58c-0.26-0.37-0.5-0.75-0.73-1.14c-0.24-0.41-0.47-0.83-0.69-1.25c-0.1-0.19-0.19-0.38-0.28-0.58
			c-0.05-0.11-0.1-0.22-0.15-0.33c-0.19-0.42,0.22,0.54,0.03,0.07c-0.26-0.63-0.54-1.14-1.15-1.49c-0.54-0.31-1.33-0.45-1.93-0.25
			s-1.19,0.57-1.49,1.15C256.34,447.01,256.13,447.77,256.38,448.38L256.38,448.38z"/>
	</g>
</g>
<g>
	<g>
		<path class="st4" d="M242.76,453.69c6.01,10.91,17.49,18.13,29.86,19.1c1.35,0.11,2.5-1.22,2.5-2.5c0-1.44-1.15-2.39-2.5-2.5
			c-10.62-0.83-20.42-7.33-25.55-16.63C245.52,448.35,241.2,450.87,242.76,453.69L242.76,453.69z"/>
	</g>
</g>
<g>
	<g>
		<path class="st4" d="M245.67,458.99c4.99,2.32,10.16,4.24,15.47,5.68c1.26,0.34,2.77-0.43,3.08-1.75c0.3-1.32-0.4-2.71-1.75-3.08
			c-2.51-0.68-4.98-1.46-7.42-2.34c-2.51-0.91-4.51-1.75-6.85-2.84c-1.18-0.55-2.75-0.37-3.42,0.9
			C244.19,456.68,244.4,458.41,245.67,458.99L245.67,458.99z"/>
	</g>
</g>
<g>
	<g>
		<path class="st4" d="M245.94,457.2c-1.05,2.37-2.37,4.62-3.93,6.69c-0.36,0.48-0.4,1.37-0.25,1.93c0.16,0.58,0.61,1.21,1.15,1.49
			c0.58,0.31,1.28,0.46,1.93,0.25c0.2-0.08,0.4-0.17,0.6-0.25c0.38-0.22,0.67-0.52,0.9-0.9c1.56-2.08,2.88-4.32,3.93-6.69
			c0.28-0.64,0.44-1.23,0.25-1.93c-0.16-0.58-0.61-1.21-1.15-1.49c-0.58-0.31-1.28-0.46-1.93-0.25
			C246.86,456.24,246.2,456.62,245.94,457.2L245.94,457.2z"/>
	</g>
</g>
<g>
	<g>
		<path class="st4" d="M260.35,457.48c-6.26,4.16-12.63,8.15-19.1,11.97c-2.77,1.64-0.26,5.96,2.52,4.32
			c6.47-3.82,12.84-7.82,19.1-11.97c1.12-0.75,1.61-2.21,0.9-3.42C263.12,457.26,261.48,456.73,260.35,457.48L260.35,457.48z"/>
	</g>
</g>
<g>
	<g>
		<path class="st4" d="M249.52,457.66c-1.03,1.82-2.16,3.58-3.4,5.27c-0.14,0.2-0.29,0.39-0.43,0.58c-0.07,0.1-0.15,0.19-0.22,0.29
			c-0.19,0.25,0.29-0.37,0,0c-0.32,0.4-0.64,0.8-0.97,1.2c-0.68,0.81-1.39,1.6-2.11,2.38c-0.9,0.95-1.01,2.6,0,3.54
			c0.97,0.89,2.58,1.02,3.54,0c3.05-3.24,5.73-6.85,7.92-10.72c0.64-1.14,0.31-2.78-0.9-3.42
			C251.75,456.14,250.2,456.44,249.52,457.66L249.52,457.66z"/>
	</g>
</g>
<g>
	<g>
		<path class="st4" d="M251.78,454.47c5.91,0.36,11.82,0.72,17.73,1.08c1.35,0.08,2.5-1.21,2.5-2.5c0-1.42-1.15-2.42-2.5-2.5
			c-5.91-0.36-11.82-0.72-17.73-1.08c-1.35-0.08-2.5,1.21-2.5,2.5C249.28,453.39,250.43,454.39,251.78,454.47L251.78,454.47z"/>
	</g>
</g>
<g>
	<g>
		<path class="st4" d="M262.86,446.63c0.98-0.03,1.96-0.03,2.93,0.02c0.53,0.03,1.05,0.06,1.58,0.11c0.22,0.02,0.45,0.04,0.67,0.07
			c0.15,0.02,0.3,0.03,0.45,0.05c-0.25-0.04-0.29-0.04-0.11-0.01c1.98,0.31,3.91,0.74,5.82,1.35c1.25,0.4,2.78-0.47,3.08-1.75
			c0.31-1.37-0.41-2.65-1.75-3.08c-4.07-1.3-8.4-1.9-12.68-1.76c-1.31,0.04-2.56,1.12-2.5,2.5
			C260.42,445.45,261.46,446.68,262.86,446.63L262.86,446.63z"/>
	</g>
</g>
<g>
	<g>
		<path class="st4" d="M260.03,447.6c4.93,1,9.77,2.35,14.51,4.04c1.23,0.44,2.79-0.5,3.08-1.75c0.32-1.4-0.43-2.6-1.75-3.08
			c-4.73-1.69-9.58-3.04-14.51-4.04c-1.28-0.26-2.76,0.37-3.08,1.75C258,445.77,258.66,447.32,260.03,447.6L260.03,447.6z"/>
	</g>
</g>
<g>
	<g>
		<path class="st4" d="M251.99,451c1.67-0.25,3.38,0.66,4.77,1.47c1.76,1.03,3.4,2.26,5.13,3.33c3.74,2.33,7.73,4.22,11.86,5.76
			c1.27,0.47,2.74-0.53,3.08-1.75c0.38-1.4-0.48-2.6-1.75-3.08c-4.24-1.58-8.28-3.65-12.05-6.14c-3.84-2.53-7.53-5.14-12.37-4.42
			c-1.34,0.2-2.07,1.89-1.75,3.08C249.31,450.69,250.65,451.2,251.99,451L251.99,451z"/>
	</g>
</g>
<g>
	<g>
		<path class="st4" d="M265.08,450.63c1.92,0,3.84,0,5.77,0c0.64,0,1.31-0.28,1.77-0.73c0.43-0.43,0.76-1.15,0.73-1.77
			c-0.06-1.35-1.1-2.5-2.5-2.5c-1.92,0-3.84,0-5.77,0c-0.64,0-1.31,0.28-1.77,0.73c-0.43,0.43-0.76,1.15-0.73,1.77
			C262.64,449.48,263.68,450.63,265.08,450.63L265.08,450.63z"/>
	</g>
</g>
<g>
	<g>
		<path class="st4" d="M246.33,437.22c3.3,5.62,7.35,11.79,14.09,13.48c1.27,0.32,2.77-0.41,3.08-1.75c0.3-1.3-0.39-2.74-1.75-3.08
			c-0.36-0.09-0.71-0.19-1.05-0.31c-0.17-0.06-0.34-0.12-0.51-0.19c-0.57-0.22,0.49,0.24-0.06-0.03c-0.65-0.32-1.27-0.66-1.87-1.06
			c-0.15-0.1-0.29-0.21-0.44-0.31c-0.42-0.29,0.36,0.31-0.07-0.05c-0.26-0.21-0.51-0.43-0.76-0.65c-0.55-0.49-1.06-1.02-1.55-1.57
			c-0.23-0.25-0.45-0.51-0.67-0.78c-0.12-0.14-0.24-0.29-0.35-0.44c-0.36-0.44,0.24,0.33-0.07-0.09c-0.45-0.61-0.89-1.23-1.31-1.86
			c-0.84-1.25-1.61-2.55-2.38-3.85c-0.66-1.13-2.28-1.63-3.42-0.9C246.09,434.53,245.62,436.01,246.33,437.22L246.33,437.22z"/>
	</g>
</g>
<linearGradient id="SVGID_5_" gradientUnits="userSpaceOnUse" x1="277.0685" y1="312.6518" x2="293.8685" y2="312.6518">
	<stop  offset="5.618000e-03" style="stop-color:#886441"/>
	<stop  offset="0.1404" style="stop-color:#634522"/>
	<stop  offset="0.309" style="stop-color:#735229"/>
	<stop  offset="0.6517" style="stop-color:#603B0F"/>
	<stop  offset="0.8034" style="stop-color:#886441"/>
	<stop  offset="1" style="stop-color:#603B0F"/>
	<stop  offset="1" style="stop-color:#5F4421"/>
</linearGradient>
<rect x="277.07" y="136.41" class="st13" width="16.8" height="352.49"/>
<g>
	<g>
		<path class="st0" d="M200.55,409.92c6.16,3,12.16,6.34,17.96,9.99c1.14,0.72,2.75,0.24,3.42-0.9c0.7-1.2,0.25-2.7-0.9-3.42
			c-5.8-3.65-11.8-6.99-17.96-9.99c-1.21-0.59-2.7-0.33-3.42,0.9C199.01,407.6,199.33,409.33,200.55,409.92L200.55,409.92z"/>
	</g>
</g>
<g>
	<g>
		<path class="st0" d="M197.43,401.49c-0.33-0.04,0.3,0.17,0.11,0.06c-0.09-0.05,0.42,0.24,0.44,0.25c0.26,0.16,0.41,0.3,0.71,0.59
			c0.67,0.65,1.25,1.39,1.86,2.1c1.36,1.6,2.85,3.1,4.44,4.47c3.23,2.79,6.82,5.12,10.72,6.86c1.23,0.55,2.69,0.36,3.42-0.9
			c0.62-1.07,0.34-2.87-0.9-3.42c-3.9-1.74-7.53-4.05-10.68-6.94c-1.57-1.44-2.96-3.02-4.34-4.64c-1.59-1.85-3.34-3.11-5.79-3.44
			c-1.34-0.18-2.5,1.28-2.5,2.5C194.93,400.49,196.08,401.31,197.43,401.49L197.43,401.49z"/>
	</g>
</g>
<g>
	<g>
		<path class="st0" d="M206.31,410.62c-0.08,0.04-0.7,0.06-0.7,0.04c0.03,0.1,0.51,0.29,0.6,0.36c0.35,0.26,0.66,0.6,0.98,0.89
			c0.82,0.75,1.7,1.44,2.6,2.08c1.74,1.25,3.63,2.22,5.61,3.02c3.85,1.56,8.13,2.19,12.27,1.8c1.34-0.13,2.5-1.06,2.5-2.5
			c0-1.25-1.15-2.63-2.5-2.5c-4.1,0.39-8.27-0.27-11.98-2.11c-1.79-0.89-3.48-1.99-4.96-3.33c-2.01-1.83-4.17-3.42-6.94-2.07
			c-1.21,0.59-1.54,2.32-0.9,3.42C203.61,410.96,205.09,411.22,206.31,410.62L206.31,410.62z"/>
	</g>
</g>
<g>
	<g>
		<path class="st0" d="M204.59,404.36c0.14-0.06,0.28-0.11,0.42-0.15c-0.26,0.02-0.3,0.02-0.11,0.01c0.12,0,0.89,0.06,0.36-0.02
			c0.47,0.07,0.93,0.21,1.39,0.33c1.12,0.3,2.25,0.6,3.37,0.9c2.25,0.6,4.49,1.2,6.74,1.79c1.26,0.34,2.77-0.42,3.08-1.75
			c0.3-1.31-0.39-2.72-1.75-3.08c-2.42-0.64-4.84-1.29-7.25-1.93c-1.18-0.32-2.36-0.66-3.55-0.94c-1.3-0.31-2.73-0.49-4,0.01
			c-1.21,0.48-2.19,1.69-1.75,3.08C201.89,403.79,203.29,404.87,204.59,404.36L204.59,404.36z"/>
	</g>
</g>
<g>
	<g>
		<path class="st0" d="M203.72,406.17c3.18,0.57,5.54,1.84,8.43,3.2c3.08,1.46,6.16,2.71,9.59,2.98c1.35,0.11,2.5-1.23,2.5-2.5
			c0-1.44-1.15-2.39-2.5-2.5c-0.18-0.01-0.37-0.03-0.55-0.05c0.27,0.03-0.06-0.01-0.15-0.02c-0.36-0.06-0.71-0.13-1.07-0.22
			c-0.75-0.18-1.49-0.41-2.22-0.68c-1.29-0.47-2.43-1.02-3.84-1.69c-2.85-1.36-5.74-2.78-8.87-3.35c-1.33-0.24-2.69,0.36-3.08,1.75
			C201.64,404.31,202.38,405.93,203.72,406.17L203.72,406.17z"/>
	</g>
</g>
<g>
	<g>
		<path class="st0" d="M200.69,389.85c0.35,0.19,0.7,0.4,1.04,0.62c0.13,0.09,0.27,0.18,0.4,0.27c0.04,0.03,0.54,0.39,0.33,0.24
			c-0.19-0.14,0.33,0.27,0.32,0.26c0.12,0.1,0.25,0.21,0.37,0.31c0.28,0.24,0.55,0.48,0.82,0.73c1.14,1.04,2.21,2.14,3.37,3.16
			c2.57,2.25,5.47,4.02,8.95,4.26c1.31,0.09,2.56-1.21,2.5-2.5c-0.06-1.43-1.1-2.4-2.5-2.5c-0.16-0.01-0.31-0.02-0.47-0.04
			c0.48,0.06-0.05-0.02-0.14-0.05c-0.34-0.07-0.68-0.17-1.01-0.28c-0.15-0.05-0.29-0.11-0.44-0.16c0.24,0.1,0.12,0.05-0.05-0.03
			c-0.32-0.16-0.63-0.32-0.94-0.5s-0.61-0.37-0.9-0.57c-0.13-0.09-0.26-0.18-0.39-0.28c-0.62-0.44,0.18,0.15-0.16-0.12
			c-0.56-0.44-1.1-0.92-1.63-1.41c-2.2-2.04-4.29-4.26-6.94-5.72c-1.15-0.63-2.78-0.32-3.42,0.9
			C199.18,387.6,199.47,389.18,200.69,389.85L200.69,389.85z"/>
	</g>
</g>
<g>
	<g>
		<path class="st0" d="M207.75,411.81c2.76,5.14,8.43,8.47,14.25,8.47c1.31,0,2.56-1.15,2.5-2.5s-1.1-2.5-2.5-2.5
			c-0.3,0-0.6-0.01-0.9-0.03c-0.15-0.01-0.3-0.02-0.45-0.04c-0.25-0.02-0.4-0.18,0.04,0.01c-0.23-0.1-0.55-0.09-0.8-0.14
			c-0.29-0.06-0.59-0.13-0.87-0.22c-0.26-0.07-0.52-0.15-0.77-0.24c-0.17-0.06-0.34-0.12-0.51-0.19c-0.33-0.13,0.03-0.05,0.1,0.04
			c-0.11-0.15-0.64-0.3-0.82-0.39c-0.27-0.14-0.53-0.28-0.79-0.44c-0.23-0.14-0.46-0.28-0.68-0.44c-0.12-0.08-0.25-0.17-0.37-0.26
			c-0.39-0.26,0.24,0.2,0,0.01c-0.44-0.37-0.87-0.74-1.27-1.15c-0.21-0.21-0.41-0.44-0.61-0.66c-0.1-0.11-0.19-0.23-0.29-0.35
			c-0.22-0.26,0.35,0.49,0.01,0c-0.35-0.5-0.67-1-0.95-1.53c-0.62-1.15-2.31-1.61-3.42-0.9
			C207.47,409.14,207.08,410.58,207.75,411.81L207.75,411.81z"/>
	</g>
</g>
<g>
	<g>
		<path class="st0" d="M209.32,420.92c4.91,0,9.82,0,14.73,0c1.31,0,2.56-1.15,2.5-2.5s-1.1-2.5-2.5-2.5c-4.91,0-9.82,0-14.73,0
			c-1.31,0-2.56,1.15-2.5,2.5C206.88,419.77,207.92,420.92,209.32,420.92L209.32,420.92z"/>
	</g>
</g>
<g>
	<g>
		<path class="st0" d="M210.58,419.36c7.96,0.78,15.89,1.81,23.78,3.1c1.33,0.22,2.69-0.35,3.08-1.75c0.33-1.19-0.41-2.86-1.75-3.08
			c-8.33-1.35-16.71-2.45-25.11-3.27c-1.35-0.13-2.5,1.24-2.5,2.5C208.08,418.32,209.23,419.23,210.58,419.36L210.58,419.36z"/>
	</g>
</g>
<g>
	<g>
		<path class="st0" d="M181.03,424.14c-0.93,1.81-2.02,3.52-3.23,5.15c-0.19,0.26-0.01,0,0.08-0.1c-0.07,0.08-0.14,0.18-0.21,0.27
			c-0.16,0.2-0.32,0.4-0.48,0.59c-0.32,0.39-0.66,0.77-1,1.15c-0.7,0.77-1.44,1.51-2.2,2.22c-0.96,0.89-0.97,2.65,0,3.54
			c1.03,0.94,2.51,0.95,3.54,0c3.16-2.94,5.84-6.45,7.82-10.29c0.6-1.16,0.34-2.77-0.9-3.42
			C183.31,422.64,181.67,422.9,181.03,424.14L181.03,424.14z"/>
	</g>
</g>
<g>
	<g>
		<path class="st0" d="M186.7,427.38c-0.7,1.49-1.56,2.9-2.57,4.21c0.13-0.17,0.26-0.34,0.39-0.51c-1.04,1.33-2.22,2.55-3.53,3.62
			c-0.47,0.38-0.73,1.19-0.73,1.77c0,0.61,0.27,1.35,0.73,1.77c0.48,0.44,1.1,0.76,1.77,0.73c0.7-0.03,1.23-0.29,1.77-0.73
			c2.73-2.24,4.99-5.14,6.49-8.33c0.29-0.62,0.44-1.24,0.25-1.93c-0.16-0.58-0.61-1.21-1.15-1.49
			C189.02,425.9,187.3,426.12,186.7,427.38L186.7,427.38z"/>
	</g>
</g>
<g>
	<g>
		<path class="st0" d="M226.45,461.78c0,0.95,0,1.91,0,2.86c-0.01,0.34,0.06,0.67,0.22,0.96c0.1,0.31,0.27,0.58,0.52,0.8
			c0.23,0.24,0.49,0.42,0.8,0.52c0.3,0.16,0.62,0.23,0.96,0.22c0.65-0.03,1.32-0.24,1.77-0.73c0.45-0.49,0.73-1.09,0.73-1.77
			c0-0.95,0-1.91,0-2.86c0.01-0.34-0.06-0.67-0.22-0.96c-0.1-0.31-0.27-0.58-0.52-0.8c-0.23-0.24-0.49-0.42-0.8-0.52
			c-0.3-0.16-0.62-0.23-0.96-0.22c-0.65,0.03-1.32,0.24-1.77,0.73C226.74,460.5,226.45,461.1,226.45,461.78L226.45,461.78z"/>
	</g>
</g>
<linearGradient id="SVGID_6_" gradientUnits="userSpaceOnUse" x1="105.95" y1="312.65" x2="464.99" y2="312.65">
	<stop  offset="5.618000e-03" style="stop-color:#886441"/>
	<stop  offset="0.1404" style="stop-color:#634522"/>
	<stop  offset="0.309" style="stop-color:#735229"/>
	<stop  offset="0.6517" style="stop-color:#603B0F"/>
	<stop  offset="0.8034" style="stop-color:#886441"/>
	<stop  offset="1" style="stop-color:#603B0F"/>
	<stop  offset="1" style="stop-color:#5F4421"/>
</linearGradient>
<circle class="st14" cx="285.47" cy="312.65" r="171.02"/>
</svg>
