<?xml version="1.0" encoding="utf-8"?>
<!-- Generator: Adobe Illustrator 23.1.1, SVG Export Plug-In . SVG Version: 6.00 Build 0)  -->
<svg version="1.1" id="Layer_1" xmlns="http://www.w3.org/2000/svg" xmlns:xlink="http://www.w3.org/1999/xlink" x="0px" y="0px"
	 viewBox="0 0 595.28 841.89" style="enable-background:new 0 0 595.28 841.89;" xml:space="preserve">
<style type="text/css">
	.st0{fill:#C49A6C;stroke:#8B5E3C;stroke-miterlimit:10;}
	.st1{fill:#BA3343;}
	.st2{fill:#BE1E2D;}
	.st3{fill:#29522B;}
	.st4{fill:#1F512F;}
	.st5{fill:#471319;}
	.st6{fill:#32569E;}
	.st7{fill:#2B3990;}
	.st8{fill:#3677A3;}
	.st9{fill:#1B75BC;}
	.st10{fill:#57407D;}
	.st11{fill:#2B2B5B;}
	.st12{fill:#751F2A;}
	.st13{fill:#5B1B20;}
	.st14{fill:#45469D;}
	.st15{fill:#EF4136;}
	.st16{fill:#B54526;}
	.st17{fill:#47363B;}
</style>
<rect x="108.55" y="262.9" class="st0" width="353.41" height="24.6"/>
<g>
	<path class="st1" d="M139.24,242.27c0.1,6.74,0.21,13.47,0.31,20.21c37.54,0.02,75.09,0.04,112.63,0.05c1.04,0,2.16-0.03,2.97-0.62
		c1.02-0.76,1.11-2.12,1.12-3.32c0.03-4.06,0.06-8.11,0.09-12.17c0.01-0.71-0.02-1.49-0.55-2c-0.53-0.51-1.38-0.58-2.16-0.62
		c-37.32-1.86-74.74-2.01-112.08-0.46"/>
	<g>
		<path class="st2" d="M136.74,242.27c0.1,6.74,0.21,13.47,0.31,20.21c0.02,1.35,1.13,2.5,2.5,2.5c16.86,0.01,33.72,0.02,50.58,0.02
			c16.78,0.01,33.56,0.02,50.33,0.02c4.15,0,8.36,0.21,12.5-0.01c1.93-0.1,3.83-0.72,4.89-2.46c0.91-1.49,0.9-3.26,0.91-4.95
			c0.02-2.11,0.03-4.22,0.05-6.33c0.01-1.95,0.21-3.99-0.03-5.92c-0.6-4.9-6.49-4.14-10.12-4.31c-16.76-0.77-33.53-1.19-50.31-1.27
			c-16.86-0.08-33.72,0.19-50.57,0.8c-2.07,0.08-4.15,0.16-6.22,0.24c-3.21,0.13-3.22,5.13,0,5c32.03-1.32,64.11-1.41,96.15-0.23
			c4.15,0.15,8.3,0.33,12.45,0.52c0.83,0.04,1.66,0.08,2.49,0.12c0.24,0.01,1.19,0.2,1.39,0.07c0.04,0.01,0.08,0.01,0.11,0.02
			c0.26,0.06,0.17-0.05-0.28-0.33c-0.05,0-0.05,5.28-0.05,5.76c-0.01,1.78-0.03,3.57-0.04,5.35c-0.01,0.79,0.33,2.47-0.41,2.87
			c-0.59,0.31-2.03,0.04-2.68,0.04c-0.83,0-1.66,0-2.49,0c-2.16,0-4.32,0-6.48,0c-15.95-0.01-31.9-0.02-47.84-0.02
			c-18.11-0.01-36.21-0.02-54.32-0.03c0.83,0.83,1.67,1.67,2.5,2.5c-0.1-6.74-0.21-13.47-0.31-20.21
			C141.69,239.05,136.69,239.04,136.74,242.27L136.74,242.27z"/>
	</g>
</g>
<g>
	<path class="st3" d="M262.96,162.5c-2.1,33.07-2.77,66.22-2.01,99.35c3.93,0.63,7.92,0.91,11.9,0.85c0.71-0.01,1.46-0.05,2.03-0.47
		c0.77-0.56,0.95-1.61,1.08-2.56c3.96-30.4,5.78-61.09,5.44-91.74c-0.01-1.06-0.07-2.23-0.79-3c-0.71-0.76-1.85-0.9-2.89-0.99
		c-4.5-0.41-9.01-0.81-13.51-1.22"/>
	<g>
		<path class="st4" d="M260.46,162.5c-1.63,25.79-2.41,51.64-2.31,77.48c0.03,7.29,0.13,14.58,0.29,21.87
			c0.02,0.99,0.75,2.24,1.84,2.41c4.3,0.67,8.92,1.3,13.28,0.9c2.23-0.2,3.89-1.4,4.56-3.58c0.64-2.05,0.66-4.44,0.92-6.57
			c1.12-9.08,2.04-18.18,2.78-27.3c1.46-18.16,2.17-36.37,2.11-54.59c-0.01-2.38,0.22-4.94-0.22-7.29c-0.43-2.27-2.21-3.83-4.45-4.2
			c-2.41-0.4-4.9-0.49-7.33-0.71c-2.57-0.23-5.15-0.46-7.72-0.7c-1.35-0.12-2.5,1.24-2.5,2.5c0,1.45,1.15,2.38,2.5,2.5
			c4.02,0.36,8.04,0.72,12.06,1.09c0.73,0.07,1.46,0.14,2.18,0.24c0.15,0.02,0.27,0.08,0.39,0.15c-0.05-0.03-0.21-0.47-0.07-0.05
			c0.07,0.2,0.06,0.18,0.09,0.39c0.29,1.96,0.07,4.11,0.07,6.09c0.03,8.24-0.1,16.48-0.39,24.72c-0.57,16.56-1.78,33.09-3.6,49.56
			c-0.26,2.38-0.54,4.75-0.83,7.12c-0.14,1.15-0.28,2.29-0.43,3.43c-0.06,0.47-0.11,0.94-0.18,1.41c-0.03,0.18-0.06,0.36-0.1,0.54
			c-0.02,0.12-0.05,0.24-0.09,0.35c-0.08,0.2-0.07,0.23,0.01,0.07c-0.08-0.23,0.59-0.16-0.11-0.14c-0.52,0.01-1.03,0.02-1.55,0.02
			c-1.12,0-2.23-0.03-3.34-0.09c-2.24-0.11-4.48-0.33-6.7-0.68c0.61,0.8,1.22,1.61,1.84,2.41c-0.59-25.84-0.31-51.69,0.84-77.51
			c0.32-7.28,0.72-14.56,1.18-21.84C265.66,159.28,260.66,159.29,260.46,162.5L260.46,162.5z"/>
	</g>
</g>
<g>
	<path class="st5" d="M279.39,138.69c3.03,40.53,2.84,81.31-0.57,121.81c5.66,1.73,11.62,2.48,17.53,2.2
		c1.18-0.06,2.56-0.26,3.15-1.29c0.32-0.56,0.32-1.24,0.32-1.88c-0.31-41.72-0.62-83.44-0.93-125.15
		c-4.71,2.39-10.07,3.51-15.34,3.2"/>
	<g>
		<path d="M276.89,138.69c2.36,31.64,2.77,63.41,1.21,95.1c-0.44,8.91-1.04,17.81-1.78,26.71c-0.09,1.1,0.84,2.11,1.84,2.41
			c4.61,1.38,9.41,2.17,14.22,2.32c2.1,0.06,4.57,0.26,6.58-0.46c2.38-0.85,3.33-2.83,3.35-5.25c0.1-10.13-0.15-20.28-0.23-30.42
			c-0.15-20.19-0.3-40.39-0.45-60.58c-0.08-11.39-0.17-22.77-0.25-34.16c-0.01-1.99-2.09-2.99-3.76-2.16
			c-4.38,2.18-9.21,3.11-14.08,2.86c-3.22-0.16-3.21,4.84,0,5c5.76,0.29,11.45-0.97,16.61-3.54c-1.25-0.72-2.51-1.44-3.76-2.16
			c0.14,19.28,0.29,38.56,0.43,57.84c0.14,19.36,0.29,38.73,0.43,58.09c0.02,2.66,0.04,5.32,0.06,7.98c0,0.32,0.21,1.73-0.01,2.03
			c0,0,0.04-0.25,0.03-0.25c-0.77,0.35-2.01,0.19-2.84,0.2c-5.1,0.05-10.12-0.7-15-2.16c0.61,0.8,1.22,1.61,1.84,2.41
			c2.65-31.61,3.37-63.39,2.1-95.09c-0.36-8.92-0.87-17.82-1.53-26.72c-0.1-1.35-1.08-2.5-2.5-2.5
			C278.12,136.19,276.79,137.34,276.89,138.69L276.89,138.69z"/>
	</g>
</g>
<g>
	<path class="st6" d="M305.28,155.69c-2.39,34.36-3.11,68.84-2.17,103.28c9.47,2.52,19.31,3.69,29.11,3.47
		c0.18-35.75,0.37-71.51,0.55-107.26c0-0.95,0-1.95-0.48-2.77c-1.08-1.88-3.79-1.78-5.93-1.43c-7.82,1.27-15.64,2.54-23.46,3.8"/>
	<g>
		<path class="st7" d="M302.78,155.69c-1.85,26.77-2.71,53.6-2.55,80.43c0.04,7.62,0.17,15.24,0.38,22.85
			c0.03,1.09,0.75,2.13,1.84,2.41c9.7,2.55,19.74,3.76,29.77,3.56c1.36-0.03,2.49-1.12,2.5-2.5c0.1-19.29,0.2-38.58,0.3-57.87
			c0.05-9.65,0.1-19.29,0.15-28.94c0.02-4.82,0.05-9.65,0.07-14.47c0.01-2.26,0.14-4.55,0.02-6.81c-0.11-2.17-0.95-4.16-2.92-5.24
			c-1.93-1.05-4.22-0.91-6.31-0.6c-2.56,0.38-5.11,0.82-7.66,1.24c-5.38,0.87-10.75,1.74-16.13,2.61c-1.33,0.22-2.08,1.87-1.75,3.08
			c0.39,1.42,1.74,1.96,3.08,1.75c4.48-0.73,8.96-1.45,13.44-2.18c2.28-0.37,4.56-0.74,6.84-1.11c1.69-0.27,3.49-0.77,5.21-0.61
			c0.41,0.04,0.93,0.1,1.09,0.38c0.27,0.48,0.12,1.43,0.11,2.01c-0.01,2.33-0.02,4.66-0.04,6.98c-0.02,4.57-0.05,9.15-0.07,13.72
			c-0.09,18.29-0.19,36.59-0.28,54.88c-0.05,10.39-0.11,20.79-0.16,31.18c0.83-0.83,1.67-1.67,2.5-2.5
			c-9.61,0.19-19.15-0.93-28.44-3.38c0.61,0.8,1.22,1.61,1.84,2.41c-0.73-26.82-0.45-53.66,0.83-80.46
			c0.37-7.61,0.81-15.21,1.34-22.81c0.09-1.35-1.22-2.5-2.5-2.5C303.85,153.19,302.88,154.34,302.78,155.69L302.78,155.69z"/>
	</g>
</g>
<g>
	<path class="st8" d="M257.35,217.05c0.47,7.65,0.03,15.36-1.32,22.91c-24.99-0.89-49.99-1.78-74.98-2.68
		c-1.54-0.06-3.25-0.18-4.33-1.28c-0.94-0.96-1.14-2.4-1.3-3.74c-0.36-3.11-0.72-6.22-1.08-9.33c-0.14-1.22-0.25-2.58,0.51-3.55
		c0.84-1.08,2.38-1.23,3.74-1.3c24.74-1.2,49.51-1.96,74.28-2.27"/>
	<g>
		<path class="st9" d="M254.85,217.05c0.44,7.44,0.06,14.9-1.23,22.24c0.8-0.61,1.61-1.22,2.41-1.84
			c-22.84-0.82-45.69-1.63-68.53-2.45c-2.5-0.09-5.12,0.04-7.6-0.29c-0.67-0.09-1.34-0.21-1.65-0.87c-0.41-0.9-0.4-2.11-0.51-3.07
			c-0.32-2.8-0.73-5.61-0.97-8.41c-0.03-0.38-0.21-1.19,0.08-1.51c0.44-0.5,2.44-0.32,2.97-0.34c11.46-0.55,22.92-1.01,34.39-1.36
			c12.88-0.4,25.76-0.68,38.64-0.84c3.22-0.04,3.22-5.04,0-5c-24.44,0.31-48.87,1.04-73.28,2.22c-2.57,0.12-5.49,0.29-7,2.74
			c-1.47,2.4-0.65,5.49-0.35,8.1c0.32,2.74,0.36,5.72,1.08,8.39c0.74,2.76,2.84,4.43,5.62,4.83c2.81,0.41,5.73,0.32,8.57,0.42
			c3.06,0.11,6.12,0.22,9.19,0.33c6.04,0.22,12.08,0.43,18.13,0.65c13.74,0.49,27.48,0.98,41.22,1.47c1.01,0.04,2.23-0.8,2.41-1.84
			c1.37-7.79,1.88-15.68,1.41-23.57C259.67,213.85,254.66,213.83,254.85,217.05L254.85,217.05z"/>
	</g>
</g>
<g>
	<path class="st10" d="M332.45,177.83c10.18-0.64,20.36-1.29,30.54-1.93c1.28-0.08,2.63-0.15,3.75,0.46c2.1,1.13,2.43,3.95,2.5,6.33
		c0.76,24.1,0.96,48.22,0.6,72.34c-0.02,1.49-0.08,3.08-0.96,4.28c-1.15,1.58-3.3,1.97-5.23,2.2c-7.04,0.85-14.14,1.22-21.22,1.12
		c-1.48-0.02-3.11-0.13-4.16-1.17c-1.03-1.02-1.17-2.61-1.24-4.06c-1.23-24.41-1.61-48.87-1.12-73.31"/>
	<g>
		<path class="st11" d="M332.45,180.33c7.39-0.47,14.78-0.94,22.17-1.4c1.81-0.11,3.61-0.23,5.42-0.34c0.9-0.06,1.81-0.12,2.71-0.17
			c0.81-0.05,1.77-0.22,2.55,0.04c1.77,0.6,1.45,4.19,1.5,5.73c0.46,14.96,0.7,29.93,0.72,44.9c0.01,7.48-0.03,14.97-0.12,22.45
			c-0.02,1.67,0.14,3.48-0.12,5.13c-0.19,1.17-0.77,1.69-1.9,2c-1.36,0.38-2.78,0.48-4.18,0.62c-1.97,0.21-3.94,0.38-5.91,0.51
			c-3.7,0.25-7.41,0.37-11.12,0.35c-1.12,0-2.67,0.23-3.75-0.22c-1.03-0.43-0.87-2.13-0.92-3.02c-0.38-7.47-0.67-14.95-0.88-22.43
			c-0.48-16.79-0.55-33.59-0.22-50.38c0.06-3.22-4.94-3.22-5,0c-0.32,16.13-0.27,32.26,0.16,48.39c0.22,8.15,0.52,16.29,0.94,24.43
			c0.18,3.53,1.08,7.04,5.02,7.94c1.75,0.4,3.6,0.31,5.38,0.31c1.98,0,3.96-0.04,5.93-0.12c3.95-0.15,7.9-0.45,11.83-0.9
			c3.6-0.41,7.53-1.04,9.03-4.85c0.59-1.51,0.63-3.15,0.65-4.76c0.03-2.16,0.06-4.32,0.08-6.49c0.04-3.99,0.07-7.98,0.08-11.97
			c0.05-16.13-0.16-32.26-0.61-48.39c-0.1-3.53,0.35-7.86-1.48-11.05c-2.3-4.02-6.97-3.25-10.87-3.01
			c-9.03,0.57-18.06,1.14-27.09,1.72c-1.35,0.09-2.5,1.09-2.5,2.5C329.95,179.12,331.1,180.42,332.45,180.33L332.45,180.33z"/>
	</g>
</g>
<g>
	<path class="st12" d="M362.66,146.63c2.57,35.09,5.15,70.19,7.72,105.28c0.17,2.32,0.45,4.88,2.15,6.46
		c1.33,1.24,3.23,1.6,5.03,1.88c5.69,0.89,11.42,1.57,17.16,2.02c0.29-40.06,0.3-80.12,0.05-120.19
		c-10.18,0.45-20.36,0.9-30.53,1.35"/>
	<g>
		<path class="st13" d="M360.16,146.63c1.35,18.46,2.71,36.92,4.06,55.37c0.68,9.27,1.36,18.54,2.04,27.81
			c0.33,4.55,0.67,9.1,1,13.66c0.17,2.32,0.34,4.64,0.51,6.95c0.14,1.94,0.2,3.96,0.75,5.84c0.61,2.1,1.89,3.99,3.84,5.05
			c2.07,1.12,4.44,1.35,6.73,1.69c5.19,0.76,10.4,1.36,15.63,1.78c1.36,0.11,2.49-1.23,2.5-2.5c0.22-31.25,0.28-62.5,0.18-93.75
			c-0.03-8.81-0.07-17.62-0.13-26.43c-0.01-1.31-1.14-2.56-2.5-2.5c-10.18,0.45-20.36,0.9-30.53,1.35c-3.2,0.14-3.22,5.14,0,5
			c10.18-0.45,20.36-0.9,30.53-1.35c-0.83-0.83-1.67-1.67-2.5-2.5c0.2,31.25,0.23,62.5,0.1,93.75c-0.04,8.81-0.09,17.62-0.15,26.43
			c0.83-0.83,1.67-1.67,2.5-2.5c-4.37-0.35-8.73-0.81-13.08-1.42c-1.9-0.27-3.88-0.45-5.73-0.98c-1.44-0.41-2.22-1.18-2.62-2.62
			c-0.47-1.72-0.46-3.56-0.59-5.32c-0.16-2.15-0.32-4.3-0.47-6.46c-0.33-4.47-0.66-8.94-0.98-13.41
			c-1.29-17.63-2.59-35.26-3.88-52.89c-0.73-10.02-1.47-20.03-2.2-30.05c-0.1-1.35-1.08-2.5-2.5-2.5
			C361.39,144.13,360.07,145.28,360.16,146.63L360.16,146.63z"/>
	</g>
</g>
<g>
	<path class="st14" d="M396.05,162.51c5.72-0.01,11.43-0.02,17.15-0.03c0.97,0,2.04,0.04,2.74,0.7c0.76,0.72,0.79,1.89,0.78,2.93
		c-0.35,31.33-0.91,62.65-1.66,93.97c-5.68-0.86-13.17,2.16-16.2-2.72c-0.94-1.52-1.04-3.39-1.11-5.17
		c-1.08-27.62-2.17-55.24-3.25-82.85"/>
	<g>
		<path class="st7" d="M396.05,165.01c3.76-0.01,7.51-0.02,11.27-0.02c1.8,0,3.59-0.01,5.39-0.01c0.4,0,0.82,0.03,1.23,0.01
			c0.46-0.02,0.41,0.29,0.23-0.05c0.14,0.27,0.05,0.85,0.05,1.16c0.01,7.62-0.18,15.25-0.29,22.87
			c-0.22,15.08-0.48,30.16-0.79,45.24c-0.18,8.62-0.37,17.23-0.58,25.85c1.05-0.8,2.11-1.61,3.16-2.41
			c-2.72-0.38-5.36-0.16-8.08-0.01c-1.09,0.06-2.19,0.1-3.28,0.02c-0.92-0.07-1.85-0.26-2.62-0.8c-1.82-1.28-1.5-4.95-1.59-7.2
			c-0.14-3.66-0.29-7.32-0.43-10.98c-0.58-14.81-1.16-29.61-1.74-44.42c-0.33-8.32-0.65-16.64-0.98-24.96c-0.13-3.21-5.13-3.22-5,0
			c0.61,15.47,1.22,30.95,1.82,46.42c0.3,7.65,0.6,15.31,0.9,22.96c0.15,3.91,0.31,7.82,0.46,11.73c0.13,3.41,0.11,7.03,2.65,9.65
			c4.4,4.53,11.24,1.67,16.56,2.41c1.61,0.22,3.12-0.62,3.16-2.41c0.39-16.07,0.72-32.15,1-48.22c0.14-7.96,0.27-15.91,0.38-23.87
			c0.06-3.98,0.11-7.96,0.16-11.93c0.02-1.82,0.05-3.65,0.07-5.47c0.02-1.94,0.2-3.96-0.02-5.89c-0.24-2.06-1.37-3.85-3.46-4.44
			c-2.01-0.57-4.34-0.27-6.4-0.27c-4.41,0.01-8.82,0.02-13.23,0.03C392.83,160.02,392.82,165.02,396.05,165.01L396.05,165.01z"/>
	</g>
</g>
<g>
	<path class="st15" d="M419.9,181.82c7.24,0,14.47-0.01,21.71-0.01c0.99,0,2.09,0.04,2.82,0.71c0.87,0.8,0.87,2.16,0.8,3.34
		c-1.44,23.88-2.88,47.77-4.32,71.65c-0.05,0.83-0.15,1.75-0.78,2.29c-0.55,0.47-1.35,0.49-2.07,0.49
		c-6.58-0.01-13.16-0.02-19.73-0.04c-0.75,0-1.59-0.03-2.14-0.55c-0.58-0.54-0.64-1.43-0.66-2.22c-0.59-25.22-0.35-50.46,0.71-75.66
		"/>
	<g>
		<path class="st16" d="M419.9,184.32c6.58,0,13.16-0.01,19.74-0.01c0.78,0,1.57-0.05,2.35,0c0.29,0.02,0.65-0.04,0.89,0.14
			c-0.35-0.26-0.12,0.38-0.12,0.68c0,0.9-0.09,1.81-0.15,2.72c-0.19,3.23-0.39,6.47-0.58,9.7c-0.79,13.1-1.58,26.21-2.37,39.31
			c-0.39,6.55-0.79,13.1-1.18,19.65c0,0.03-0.24,1.7-0.19,1.75c0.19-0.18,0.38-0.36,0.57-0.55c-0.02,0.01-0.03,0.03-0.05,0.04
			c-0.07-0.07-1.14,0.02-1.23,0.02c-1.64,0-3.29-0.01-4.93-0.01c-3.29-0.01-6.58-0.01-9.87-0.02c-1.48,0-2.96-0.03-4.44-0.01
			c0.21,0-0.5-0.03-0.53,0.01c-0.02,0-0.03,0-0.05,0c0.35,0.55,0.45,0.58,0.28,0.09c0.19-0.57-0.02-1.51-0.03-2.12
			c-0.07-3.24-0.13-6.47-0.17-9.71c-0.09-6.64-0.12-13.28-0.1-19.92c0.06-14.77,0.4-29.54,1.02-44.3c0.13-3.22-4.87-3.21-5,0
			c-0.6,14.34-0.94,28.7-1.01,43.05c-0.04,7.22,0,14.44,0.1,21.66c0.05,3.48,0.1,6.97,0.19,10.45c0.04,1.55,0.14,3.18,1.29,4.36
			c1.36,1.4,3.19,1.41,5,1.41c3.45,0.01,6.91,0.01,10.36,0.02c1.73,0,3.45,0.01,5.18,0.01c1.68,0,3.68,0.28,5.32-0.24
			c3.67-1.15,3.26-5.45,3.44-8.52c0.22-3.65,0.44-7.3,0.66-10.95c0.86-14.26,1.72-28.53,2.58-42.79c0.24-3.98,0.48-7.96,0.72-11.94
			c0.21-3.48,0.56-7.87-3.8-8.85c-1.8-0.41-3.8-0.19-5.63-0.19c-1.97,0-3.95,0-5.92,0c-4.11,0-8.22,0.01-12.33,0.01
			C416.69,179.32,416.68,184.32,419.9,184.32L419.9,184.32z"/>
	</g>
</g>
<g>
	<g>
		<path class="st17" d="M290.73,169.74c1.18-0.77,2.88-0.67,3.64,0.64c0.84,1.44,0.08,2.86-1.15,3.72c-2.91,2.04-6.54,3.3-9.96,4.18
			c-1.24,0.32-1.13,2.04,0,2.41c1.92,0.63,3.94,0.74,5.92,0.32c1.65-0.35,3.66-1.09,4.63-2.56c0.86-1.3,0.78-3.34-1.05-3.74
			c-1.96-0.44-3.03,1.67-3.6,3.15c-0.8,2.09-1.26,4.3-1.4,6.53c-0.05,0.83-0.09,1.74,0.54,2.38c0.26,0.26,0.58,0.35,0.9,0.51
			c0.06,0.03,0.38,0.07,0.4,0.11c-0.19-0.37-0.45,0.92-0.42,0.78c-0.3,1.06-0.68,2.1-1.13,3.1c-0.39,0.86-1.13,1.83-1.06,2.82
			c0.06,0.87,0.58,1.38,1.32,1.74c0.31,0.15,0.48,0.13,0.61,0.47c0.13,0.35-0.07,0.85-0.2,1.18c-0.46,1.09-1.15,2-1.27,3.21
			c-0.09,0.91,0.14,1.81,0.59,2.6c1,1.73,2.92,2.79,4.7,3.55c1.46,0.63,2.74-1.52,1.26-2.16c-1.35-0.58-3.21-1.38-3.88-2.79
			c-0.74-1.54,1.03-3.18,1.26-4.7c0.2-1.36-0.27-3.04-1.73-3.51c-0.33-0.16-0.35-0.14-0.05,0.06c0.14-0.27,0.28-0.54,0.41-0.81
			c0.2-0.41,0.38-0.82,0.56-1.24c0.42-1,0.8-2.03,1.08-3.08c0.2-0.76,0.34-1.59,0.04-2.34c-0.14-0.35-0.33-0.63-0.63-0.87
			c-0.27-0.22-0.7-0.26-0.94-0.46c-0.22-0.07-0.18-0.04,0.1,0.1c0.01-0.29,0.03-0.59,0.05-0.88c0.04-0.55,0.11-1.09,0.2-1.63
			c0.17-1.01,0.42-2.01,0.73-2.98c0.16-0.48,0.31-0.98,0.53-1.44c0.15-0.32,0.81-1.3,0.07-1.18c-0.06,0.01-0.71,0.68-0.83,0.75
			c-0.41,0.25-0.87,0.44-1.32,0.59c-1.89,0.65-3.84,0.61-5.73-0.01c0,0.8,0,1.61,0,2.41c2.69-0.69,5.3-1.65,7.78-2.88
			c2.01-1,4.43-2.17,5.23-4.44c1.57-4.5-3.54-8.34-7.47-5.79C288.13,168.45,289.38,170.62,290.73,169.74L290.73,169.74z"/>
	</g>
</g>
<g>
	<g>
		<path class="st17" d="M314.34,179.92c-1.78,0.91-1.6,3.52-0.06,4.58c0.91,0.63,2.03,0.73,3.11,0.69c1.6-0.06,3.2-0.2,4.79-0.3
			c-0.4-0.53-0.8-1.05-1.21-1.58c-1.24,6.18-4.4,11.73-9.08,15.95c-0.83,0.75-0.15,2.12,0.88,2.13c3.08,0.05,6.17,0.1,9.25,0.15
			c-0.21-0.78-0.42-1.55-0.63-2.33c-2.85,2.09-5.94,5.26-6.71,8.85c-0.44,2.03,0.42,3.87,1.1,5.74c0.76,2.1,1.52,4.2,2.28,6.3
			c0.54,1.5,2.96,0.85,2.41-0.66c-0.62-1.73-1.25-3.45-1.87-5.18c-0.55-1.52-1.6-3.4-1.56-5.05c0.03-1.53,1.13-3.08,2-4.27
			c1.01-1.37,2.25-2.58,3.62-3.59c0.96-0.7,0.69-2.31-0.63-2.33c-3.08-0.05-6.17-0.1-9.25-0.15c0.29,0.71,0.59,1.42,0.88,2.13
			c4.97-4.48,8.4-10.49,9.72-17.05c0.15-0.74-0.34-1.64-1.21-1.58c-1.47,0.09-2.95,0.2-4.42,0.28c-0.49,0.03-1.05,0.1-1.54-0.02
			c-0.2-0.05-0.93-0.42-0.63-0.58C317.03,181.34,315.77,179.19,314.34,179.92L314.34,179.92z"/>
	</g>
</g>
<g>
	<g>
		<path class="st17" d="M349.14,196.74c0.18,0.47,0.32,1.03-0.01,1.47c-0.23,0.32-0.78,0.55-1.15,0.25
			c-0.97-0.81,0.89-2.06,1.57-2.23c2.16-0.57,4.28,0.9,5.29,2.71c1.2,2.16,1.22,4.63,1.39,7.02c0.16,2.26,1.23,4.71,3.85,4.67
			c-0.42-0.42-0.83-0.83-1.25-1.25c0.45,4.48,0.57,10.08-3.33,13.2c-1.66,1.33-3.94,1.7-5.41,3.3c-1.28,1.39-1.79,3.4-0.81,5.09
			c0.69,1.18,2.84,0.38,2.28-0.96c-0.96-2.31-3.12-3.54-5.6-3.13c-0.55,0.09-0.9,0.7-0.92,1.21c-0.17,4.4,1.54,8.67,4.67,11.75
			c1.15,1.13,2.92-0.64,1.77-1.77c-2.69-2.65-4.09-6.22-3.94-9.98c-0.31,0.4-0.61,0.8-0.92,1.21c1.01-0.16,2.13,0.44,2.52,1.39
			c0.76-0.32,1.52-0.64,2.28-0.96c-1.16-2,2.34-3.31,3.58-3.92c1.71-0.84,3.09-2.02,4.18-3.59c2.57-3.74,2.57-8.47,2.14-12.81
			c-0.07-0.67-0.52-1.26-1.25-1.25c-1.82,0.02-1.4-3.78-1.53-4.96c-0.19-1.78-0.56-3.54-1.37-5.16c-1.44-2.86-4.56-4.86-7.82-4.3
			c-1.5,0.26-2.93,1.16-3.63,2.54c-0.71,1.41-0.58,3.2,0.76,4.18c2.95,2.18,6.25-1.29,5.07-4.37
			C350.98,194.59,348.56,195.23,349.14,196.74L349.14,196.74z"/>
	</g>
</g>
<g>
	<g>
		<path class="st17" d="M374.35,174.26c0.6,2.39,0.57,4.77-0.05,7.14c-0.43,1.64-0.88,3.5,0.48,4.85c0.57,0.56,1.3,0.81,1.97,1.21
			c0.8,0.48,1.38,1.19,1.77,2.03c0.78,1.69,0.73,3.63,0.45,5.43c-0.16,1.04-0.4,2.07-0.6,3.11c-0.17,0.86-0.47,1.85-0.27,2.74
			c0.41,1.82,2.69,2.08,4.2,2.26c0.7,0.09,1.65,0.1,2.21,0.59c0.71,0.64,0.41,1.77,0.07,2.52c-0.8,1.81-2.3,3.12-2.68,5.15
			c-0.3,1.57,2.11,2.25,2.41,0.66c0.37-1.98,2.01-3.35,2.71-5.2c0.63-1.65,0.61-3.61-0.74-4.9c-1.28-1.23-3.06-1.11-4.67-1.43
			c-0.27-0.05-0.9-0.11-1.05-0.36c-0.16-0.25,0.27-1.51,0.33-1.82c0.22-1.09,0.45-2.17,0.6-3.28c0.48-3.47-0.07-7.58-3.32-9.59
			c-0.79-0.49-1.78-0.62-1.82-1.71c-0.03-1.03,0.56-2.19,0.73-3.21c0.38-2.31,0.27-4.61-0.3-6.89
			C376.37,172.04,373.96,172.7,374.35,174.26L374.35,174.26z"/>
	</g>
</g>
<g>
	<g>
		<path class="st17" d="M405.85,187.77c1.14,3.02-0.67,6.44-4.06,6.64c-0.18,0.01-0.37,0.01-0.55,0c-0.25-0.07-0.29,0.04-0.1,0.32
			c0,0,0.64-0.36,0.74-0.37c0.72-0.1,1.33,0.34,1.68,0.94c0.94,1.62,0.07,3.58-0.63,5.1c-0.76,1.64-0.89,2.87-0.05,4.51
			c0.83,1.61,1.73,3.16,2.47,4.81c1.51,3.35,2.62,6.88,3.38,10.47c0.34,1.57,2.75,0.91,2.41-0.66c-0.88-4.11-2.22-8.1-4.02-11.89
			c-0.42-0.89-0.87-1.77-1.34-2.63c-0.25-0.45-0.52-0.9-0.76-1.35c-0.4-0.76-0.32-1.2,0.05-1.98c0.8-1.7,1.54-3.48,1.33-5.4
			c-0.34-3.08-3.82-5.95-6.7-3.59c-1.07,0.88-1.65,2.69-0.4,3.7c1.22,0.98,3.45,0.58,4.78,0.07c3.7-1.43,5.56-5.61,4.16-9.33
			C407.7,185.61,405.29,186.26,405.85,187.77L405.85,187.77z"/>
	</g>
</g>
<g>
	<g>
		<path class="st17" d="M428.22,203.6c-0.97,1.02-0.96,2.43-0.19,3.58c0.91,1.37,2.48,1.53,3.95,1.83c0.4,0.08,1.07,0.17,1.32,0.54
			c0.3,0.43,0.17,0.54-0.19,0.93c-0.54,0.59-1.24,1.07-1.9,1.52c-1.42,0.96-2.94,1.75-4.37,2.71c-1.13,0.75-2.88,1.79-3.31,3.15
			c-0.51,1.66,1.22,2.32,2.41,2.82c0.84,0.35,1.75,0.64,2.54,1.09c0.93,0.52,0.75,1.4,0.53,2.3c-0.48,1.91-1.08,3.79-1.62,5.68
			c-0.44,1.55,1.97,2.21,2.41,0.66c0.54-1.89,1.15-3.78,1.62-5.68c0.35-1.42,0.49-3.01-0.52-4.2c-1.03-1.22-2.87-1.66-4.29-2.26
			c-0.2-0.08-0.41-0.17-0.61-0.26c-0.36-0.23-0.39-0.02-0.1,0.63c0.05,0.01,0.81-0.75,0.87-0.8c0.67-0.56,1.41-1.04,2.16-1.5
			c1.4-0.87,2.85-1.65,4.18-2.63c1.14-0.84,2.58-1.85,2.87-3.32c0.29-1.5-0.82-2.8-2.11-3.4c-0.71-0.33-1.48-0.41-2.24-0.56
			c-0.16-0.03-2.18-0.49-1.65-1.05C431.1,204.2,429.33,202.43,428.22,203.6L428.22,203.6z"/>
	</g>
</g>
<g>
	<g>
		<path class="st17" d="M203.48,226.84c1.35-0.31,2.68-0.36,4.05-0.22c-0.36-0.21-0.72-0.41-1.08-0.62c0.34,0.76-1.7,2.52-2.16,2.99
			c-0.93,0.94-1.93,1.83-3,2.62c-2.06,1.52-4.32,2.74-6.73,3.62c0.41,0.7,0.81,1.39,1.22,2.09c2.39-2.88,5.75-4.4,9.3-5.38
			c1.85-0.51,3.73-0.88,5.62-1.21c0.9-0.16,1.82-0.34,2.74-0.28c1.08,0.07,1.56,0.6,2.4,1.15c1.59,1.04,2.7,0.09,3.77-1.07
			c1.25-1.33,3.36-0.74,5-0.89c2.16-0.2,4.26-0.99,6.33-1.6c2.39-0.71,4.79-1.42,7.18-2.12c1.54-0.46,0.88-2.87-0.66-2.41
			c-2.39,0.71-4.79,1.42-7.18,2.12c-2.14,0.63-4.35,1.52-6.61,1.55c-1.74,0.03-3.62-0.15-5.11,0.93c-0.36,0.26-0.63,0.56-0.91,0.89
			c-0.4,0.46-0.23,0.49-0.66,0.33c-0.38-0.14-0.75-0.6-1.12-0.8c-0.36-0.19-0.77-0.33-1.17-0.42c-1.85-0.42-3.77,0.03-5.6,0.37
			c-1.89,0.35-3.77,0.75-5.61,1.31c-3.6,1.09-7.05,2.82-9.48,5.76c-0.71,0.86-0.07,2.56,1.22,2.09c4.19-1.53,8.02-3.94,11.11-7.17
			c1.23-1.29,3.1-3.12,2.53-5.1c-0.63-2.19-4.43-1.31-6.06-0.93C201.25,224.79,201.92,227.2,203.48,226.84L203.48,226.84z"/>
	</g>
</g>
<g>
	<g>
		<path class="st17" d="M184.38,251.43c-0.35,0.08-1.57,0.3-1.64-0.04c-0.11-0.54,2.04-1.15,2.4-1.2c2.08-0.31,3.53,0.98,5.08,2.11
			c3.31,2.4,7.35,3.23,11.29,3.92c4.23,0.74,8.59,1.46,12.77,0.1c1.97-0.64,3.85-1.58,5.96-1.68c2.11-0.09,4.13,0.48,5.92,1.6
			c1.37,0.85,2.63-1.31,1.26-2.16c-3.26-2.03-7.18-2.45-10.82-1.25c-2.16,0.71-4.16,1.62-6.47,1.75c-2.21,0.13-4.42-0.17-6.6-0.53
			c-3.94-0.66-8.16-1.26-11.54-3.54c-1.62-1.09-3.01-2.43-5.02-2.76c-1.66-0.27-3.45,0.04-4.88,0.95c-1.39,0.88-2.55,2.62-1.44,4.19
			c0.97,1.37,2.92,1.29,4.37,0.95C186.61,253.48,185.95,251.07,184.38,251.43L184.38,251.43z"/>
	</g>
</g>
<g>
	<g>
		<path class="st17" d="M266.73,194.11c-0.17,0.96,0.02,1.77,0.75,2.46c0.66,0.63,1.46,0.66,2.23,1.05
			c1.77,0.89-1.28,4.06-1.96,4.98c-1.47,1.97-2.93,3.94-4.4,5.91c-0.78,1.05-1.57,2.1-2.35,3.15c-0.52,0.71-1.05,1.43-0.93,2.37
			c0.2,1.59,2,2.57,3.3,3.18c1.37,0.64,2.87,1.04,4.15,1.86c1.8,1.16,1.49,2.91,1.35,4.81c-0.13,1.7,0.16,3.58,1.57,4.7
			c1.25,0.99,3.03-0.77,1.77-1.77c-1.51-1.2-0.66-3.53-0.69-5.16c-0.03-1.64-0.64-3.1-1.91-4.15c-1.09-0.9-2.41-1.4-3.7-1.92
			c-0.66-0.27-1.33-0.53-1.96-0.87c-0.26-0.14-0.53-0.29-0.77-0.47c-0.48-0.34-0.52-0.41-0.31-0.92c0.39-0.93,1.45-1.95,2.05-2.76
			c0.68-0.92,1.37-1.84,2.05-2.76c1.37-1.84,2.74-3.67,4.11-5.52c0.95-1.29,1.98-2.91,1.67-4.6c-0.14-0.76-0.52-1.39-1.13-1.86
			c-0.21-0.16-2.47-1.08-2.48-1.05C269.42,193.2,267.01,192.53,266.73,194.11L266.73,194.11z"/>
	</g>
</g>
</svg>
