<svg xmlns="http://www.w3.org/2000/svg" viewBox="0 0 171.42 256.09"><defs><style>.cls-1{fill:#726658;}.cls-2{fill:#c2b59b;}.cls-3{fill:#fff;}</style></defs><title>goodreads</title><g id="Layer_2" data-name="Layer 2"><g id="Layer_1-2" data-name="Layer 1"><path class="cls-1" d="M4.2,14.57a487.57,487.57,0,0,0,139-11.33c5.11-1.17,11.89-1.68,14.15,3.05.93,1.94.7,4.22.45,6.36L150.56,75"/><path class="cls-2" d="M4.2,17.07a488.37,488.37,0,0,0,89.41-2.66q22.44-2.75,44.57-7.5a87.63,87.63,0,0,1,8.89-1.84c2.18-.24,4.67-.31,6.44.67a3.35,3.35,0,0,1,1.68,1.81c.59,1.43.32,3.18.16,4.67-.41,3.78-.87,7.55-1.31,11.32l-6,51.5a2.51,2.51,0,0,0,2.5,2.5,2.56,2.56,0,0,0,2.5-2.5q2.73-23.52,5.45-47l1.38-11.88c.42-3.65,1.31-7.63-.39-11.08C156.87-.31,150.19-.43,145.09.35c-3.4.52-6.75,1.45-10.12,2.16q-5.44,1.16-10.92,2.18-11.42,2.14-22.93,3.75Q78.68,11.56,56,12.54a488.75,488.75,0,0,1-51.78-.47c-3.23-.2-3.21,4.8,0,5Z"/><path class="cls-2" d="M2.41,18.2c28.47-1,55.66,9.56,81.17,20.66q39,17,76.63,36.26c2.5,1.28,5.08,2.64,6.7,4.74,2.58,3.33,2.18,7.71,1.7,11.71a906.32,906.32,0,0,0-4.68,162c-12.52-.22-24.63-3.67-36.53-7.08L27.25,217.77c-2.48-.71-5.09-1.5-6.79-3.22-2.26-2.3-2.33-5.63-2.29-8.66A1160.36,1160.36,0,0,0,5.87,22.39"/><path class="cls-2" d="M2.41,20.7c22-.76,43.36,5.51,63.64,13.52,21.09,8.33,41.72,18,62.15,27.81Q143.67,69.47,159,77.29c2.08,1.07,4.46,2.15,6,4a9.15,9.15,0,0,1,1.57,5.92,75.28,75.28,0,0,1-.75,7.78c-.34,3-.66,5.91-1,8.86q-3.69,35.07-4.64,70.35t.85,70.71q.23,4.32.48,8.65l2.5-2.5c-10.91-.23-21.52-2.92-32-5.88-10.81-3.06-21.61-6.19-32.41-9.29L34.14,217.15c-2.6-.75-5.22-1.44-7.8-2.25-1.82-.57-3.87-1.31-4.83-3.1s-.86-3.7-.84-5.54c0-2.75.06-5.5.08-8.26q.09-16.89-.3-33.78Q19.66,130.56,16.91,97T9.48,30.05c-.39-2.77-.79-5.55-1.19-8.32A2.53,2.53,0,0,0,5.21,20a2.57,2.57,0,0,0-1.75,3.08q5,33.77,7.92,67.77T15.3,159q.48,17,.45,34c0,2.79,0,5.59,0,8.38,0,2.51-.19,5.07,0,7.58a11.87,11.87,0,0,0,2.44,6.71,13.06,13.06,0,0,0,6,3.72c5.31,1.83,10.85,3.16,16.25,4.71L57,228.91l33.07,9.49L123.38,248c10.68,3.06,21.35,6.24,32.42,7.56q4,.48,8.13.57a2.52,2.52,0,0,0,2.5-2.5q-2.18-35.93-1.5-71.94T169.11,110q.88-9,1.95-18c.59-5,.86-10.23-2.62-14.28a20.43,20.43,0,0,0-6.21-4.43c-2.6-1.36-5.23-2.68-7.85-4q-7.87-4-15.81-7.85c-20.91-10.21-42.07-20-63.54-29C54.55,24,33.11,16.63,10.74,15.73c-2.77-.11-5.55-.11-8.32,0-3.22.1-3.23,5.1,0,5Z"/><path class="cls-1" d="M107.45,76.21A45.51,45.51,0,0,0,52.66,113c-1,6.33-1.23,13.38,2.17,19.1,3.54,6,10.3,8.82,17,9.43,11.65,1.08,22.8-6.05,29.57-15C110,115,111.78,100,113.49,86.2h-10q1.79,37.35,3.57,74.69a136.62,136.62,0,0,1,0,17.64c-.06.7-.12,1.4-.2,2.09,0,.31-.07.62-.11.93.12-.93,0-.12,0,.06-.26,1.54-.53,3.06-.9,4.58-.3,1.23-.65,2.46-1.07,3.66q-.27.78-.57,1.56c-.12.29-.33,1.11,0,0a7.1,7.1,0,0,1-.46,1,35.21,35.21,0,0,1-3.48,5.89c-.2.27-.54,1,0,0a5.2,5.2,0,0,1-.46.57c-.35.42-.72.83-1.09,1.24a29.75,29.75,0,0,1-2.5,2.39s-1,.8-.34.29-.31.22-.36.26c-.39.28-.79.55-1.2.8s-1,.62-1.56.9a11,11,0,0,0-1.62.78c.67-.5.6-.23.19-.1s-.57.21-.86.3c-.54.18-1.09.34-1.64.47l-.84.19s-1.39.2-.61.12-.63,0-.62,0q-.65,0-1.29,0l-.86,0c-1.35-.06,1,.24-.37,0-.7-.15-1.37-.35-2.06-.56-1.25-.39.5.33-.1-.05-.31-.19-.65-.34-1-.53s-.65-.31-.76-.5c.23.41.58.48,0,0A15.64,15.64,0,0,1,79,203.47c-.06-.07-.48-.55-.47-.56.37.48.45.57.23.28s-.21-.3-.31-.46a17.06,17.06,0,0,1-.93-1.6c-.14-.28-.26-.56-.4-.84s-.1-.22.14.34c-.07-.17-.13-.35-.2-.52a22.2,22.2,0,0,1-1-3.77c.15.88,0,.09,0-.09,0-.47-.08-.94-.1-1.42,0-.87,0-1.74,0-2.61s.12-1.74.22-2.61c0,.21-.14.92,0-.09.07-.47.15-.94.23-1.42.31-1.73.7-3.44,1.11-5.14.61-2.54-.8-5.54-3.49-6.15a5.07,5.07,0,0,0-6.15,3.49c-1.58,6.57-2.76,13.44-1.21,20.14,1.29,5.57,4.75,11,9.84,13.84,6,3.34,13.17,2.68,19.31.05a31.75,31.75,0,0,0,12.49-10.22c7.35-9.63,9.08-22,9-33.78,0-6.45-.47-12.89-.78-19.33q-.48-10-.95-19.93-1.07-22.42-2.14-44.85c-.12-2.61-2.21-5.12-5-5-3,.13-4.65,2.21-5,5l-.54,4.25c0,.21-.14,1,0,0l-.12.85c-.12.85-.24,1.71-.37,2.56-.42,2.76-.91,5.52-1.52,8.24a75.68,75.68,0,0,1-2.24,8c-.23.67-.47,1.33-.73,2-.1.26-.21.52-.31.79-.51,1.26.29-.59-.07.17-.64,1.34-1.25,2.68-2,4-.6,1.08-1.24,2.13-1.94,3.15l-.52.74c-.18.25-.61,1,0,0A13.06,13.06,0,0,1,92,122.29a33.46,33.46,0,0,1-2.57,2.62c-.36.33-.73.66-1.11,1a7.29,7.29,0,0,1-.86.7c.68-.43.28-.22-.16.1-.89.64-1.81,1.24-2.76,1.79-.52.3-1.06.59-1.6.87l-.65.32c-.13.06-1.46.61-.72.33l-.4.15-.67.24c-.56.19-1.13.37-1.7.53s-1,.26-1.55.37l-.87.17-.52.08c-.38.06-.23,0,.46-.06-1-.12-2.24.17-3.31.13a9.21,9.21,0,0,0-1.57-.11c1-.15.66.1.12,0l-1-.2c-.52-.12-1-.25-1.54-.41-.29-.09-2-.75-.92-.28a18.5,18.5,0,0,1-1.83-.93c-.24-.14-.47-.28-.69-.43s-.92-.77-.29-.2c-.41-.37-1.21-.92-1.44-1.44.35.81.24.36.08.08s-.35-.54-.51-.82-.3-.57-.45-.85c-.44-.87,0,0,0,.13a6.41,6.41,0,0,1-.66-2.23c-.06-.26-.1-.51-.15-.77-.26-1.25,0,.76,0,0,0-.59-.11-1.18-.13-1.78a32.24,32.24,0,0,1,.1-3.93c0-.39.08-.78.11-1.16s.06-1,0,.17a17.47,17.47,0,0,1,.32-1.92c.25-1.28.56-2.54.92-3.79s.71-2.23,1.14-3.32c.08-.21.48-1.44.09-.25a7.65,7.65,0,0,1,.32-.71c.3-.65.61-1.29.94-1.93q.85-1.65,1.86-3.21c.35-.55.71-1.09,1.09-1.62l.46-.63c.76-1.07-.66.79.17-.23a41.51,41.51,0,0,1,5.42-5.59l.6-.5c.34-.28.91-.68.23-.19.65-.47,1.31-1,2-1.39a40.7,40.7,0,0,1,3.84-2.22c.6-.3,1.21-.58,1.82-.87,1.19-.54-.65.24.11-.05.44-.17.88-.35,1.32-.51a42.29,42.29,0,0,1,4.24-1.3c.65-.16,1.31-.31,2-.44q.49-.1,1-.18c.15,0,1.46-.24.73-.13s.5-.06.54-.06l1.21-.11c.74-.06,1.48-.1,2.22-.11a40.89,40.89,0,0,1,4.43.13l1,.1c1.35.13-1.07-.18.27,0,.8.13,1.59.27,2.38.44,2.55.54,5.53-.75,6.15-3.49.56-2.5-.77-5.57-3.51-6.15Z"/><path class="cls-3" d="M3.35,17.89c46.36,2.69,94.72,5,137.3-13.48q.16,32.42-.57,64.83"/><path class="cls-2" d="M3.35,20.39c18.32,1.06,36.66,2.06,55,1.77s36.5-1.85,54.28-6a171.21,171.21,0,0,0,29.28-9.62l-3.76-2.16q.14,25.19-.29,50.37-.12,7.23-.29,14.46c-.07,3.22,4.93,3.22,5,0q.57-25.18.6-50.37c0-4.82,0-9.64,0-14.46,0-2.06-2.08-2.89-3.76-2.16-16.25,7-33.72,11.07-51.27,13.08C70.15,17.39,52,17.48,34,16.88c-10.21-.34-20.42-.91-30.62-1.5-3.21-.18-3.2,4.82,0,5Z"/></g></g></svg>