<?xml version="1.0" encoding="utf-8"?>
<!-- Generator: Adobe Illustrator 23.1.1, SVG Export Plug-In . SVG Version: 6.00 Build 0)  -->
<svg version="1.1" id="Layer_1" xmlns="http://www.w3.org/2000/svg" xmlns:xlink="http://www.w3.org/1999/xlink" x="0px" y="0px"
	 viewBox="0 0 595.28 841.89" style="enable-background:new 0 0 595.28 841.89;" xml:space="preserve">
<style type="text/css">
	.st0{fill:#726658;}
	.st1{fill:#C2B59B;}
	.st2{fill:#FFFFFF;}
</style>
<g>
	<path class="st0" d="M168.78,250.75c46.55,2.91,93.52-0.92,138.99-11.33c5.11-1.17,11.89-1.68,14.15,3.05
		c0.93,1.94,0.7,4.22,0.45,6.36c-2.41,20.8-4.82,41.6-7.23,62.39"/>
	<g>
		<path class="st1" d="M168.78,253.25c29.81,1.85,59.77,0.96,89.41-2.66c14.96-1.83,29.84-4.31,44.57-7.5
			c2.94-0.64,5.9-1.51,8.89-1.84c2.18-0.24,4.67-0.31,6.44,0.67c0.8,0.44,1.31,0.91,1.68,1.81c0.59,1.43,0.32,3.18,0.16,4.67
			c-0.41,3.78-0.87,7.55-1.31,11.32c-1.99,17.17-3.98,34.33-5.97,51.5c-0.16,1.34,1.26,2.5,2.5,2.5c1.48,0,2.34-1.15,2.5-2.5
			c1.82-15.68,3.63-31.36,5.45-47.04c0.46-3.96,0.92-7.92,1.38-11.88c0.42-3.65,1.31-7.63-0.39-11.08
			c-2.64-5.35-9.32-5.47-14.42-4.69c-3.4,0.52-6.75,1.45-10.12,2.16c-3.63,0.77-7.27,1.5-10.92,2.18
			c-7.61,1.43-15.26,2.68-22.93,3.75c-14.96,2.08-30.03,3.43-45.13,4.1c-17.25,0.76-34.54,0.6-51.78-0.47
			C165.56,248.05,165.58,253.05,168.78,253.25L168.78,253.25z"/>
	</g>
</g>
<g>
	<path class="st1" d="M166.99,254.38c28.47-1.04,55.66,9.56,81.17,20.66c26.01,11.32,51.57,23.42,76.63,36.26
		c2.5,1.28,5.08,2.64,6.7,4.74c2.58,3.33,2.18,7.71,1.7,11.71c-6.4,53.79-7.96,108.02-4.68,162.02
		c-12.52-0.22-24.63-3.67-36.53-7.08c-33.38-9.58-66.77-19.16-100.15-28.74c-2.48-0.71-5.09-1.5-6.79-3.22
		c-2.26-2.3-2.33-5.63-2.29-8.66c0.77-61.32-3.35-122.68-12.3-183.5"/>
	<g>
		<path class="st1" d="M166.99,256.88c22-0.76,43.36,5.51,63.64,13.52c21.09,8.33,41.72,17.99,62.15,27.81
			c10.31,4.96,20.57,10.03,30.75,15.26c2.08,1.07,4.46,2.15,5.95,4.03c1.33,1.68,1.59,3.84,1.57,5.92c-0.03,2.6-0.45,5.2-0.75,7.78
			c-0.34,2.95-0.66,5.91-0.98,8.86c-2.46,23.38-4.01,46.85-4.64,70.35c-0.64,23.57-0.35,47.16,0.85,70.71
			c0.15,2.88,0.31,5.76,0.48,8.65c0.83-0.83,1.67-1.67,2.5-2.5c-10.91-0.23-21.52-2.92-31.97-5.88
			c-10.81-3.06-21.61-6.19-32.41-9.29c-21.8-6.26-43.61-12.51-65.41-18.77c-2.6-0.75-5.22-1.44-7.8-2.25
			c-1.82-0.57-3.87-1.31-4.83-3.1c-0.89-1.67-0.86-3.7-0.84-5.54c0.02-2.75,0.06-5.5,0.08-8.26c0.06-11.26-0.04-22.52-0.3-33.78
			c-0.53-22.44-1.71-44.87-3.54-67.24c-1.83-22.38-4.32-44.7-7.43-66.93c-0.39-2.77-0.79-5.55-1.19-8.32
			c-0.2-1.34-1.89-2.07-3.08-1.75c-1.43,0.39-1.94,1.73-1.75,3.08c3.31,22.51,5.95,45.11,7.92,67.77
			c1.98,22.69,3.29,45.44,3.92,68.21c0.32,11.34,0.47,22.68,0.45,34.03c0,2.79-0.02,5.59-0.04,8.38c-0.02,2.51-0.19,5.07,0.03,7.58
			c0.22,2.45,0.85,4.78,2.44,6.71c1.54,1.88,3.79,2.94,6.04,3.72c5.31,1.83,10.85,3.16,16.25,4.71c5.51,1.58,11.02,3.16,16.53,4.74
			c11.02,3.16,22.04,6.32,33.07,9.49c11.1,3.19,22.2,6.37,33.31,9.56c10.68,3.06,21.35,6.24,32.42,7.56
			c2.7,0.32,5.41,0.51,8.13,0.57c1.29,0.03,2.58-1.17,2.5-2.5c-1.45-23.95-1.96-47.95-1.5-71.94c0.45-23.91,1.85-47.81,4.18-71.61
			c0.59-6,1.24-11.99,1.95-17.97c0.59-4.98,0.86-10.23-2.62-14.28c-1.67-1.94-3.97-3.26-6.21-4.43c-2.6-1.36-5.23-2.68-7.85-4
			c-5.25-2.65-10.52-5.27-15.81-7.85c-20.91-10.21-42.07-20.02-63.54-28.99c-20.48-8.56-41.92-15.89-64.29-16.79
			c-2.77-0.11-5.55-0.11-8.32-0.02C163.78,251.99,163.77,256.99,166.99,256.88L166.99,256.88z"/>
	</g>
</g>
<g>
	<g>
		<path class="st0" d="M272.03,312.39c-12.21-2.58-25.49-0.24-35.78,6.96c-9.89,6.93-17.06,17.82-19.01,29.8
			c-1.03,6.33-1.23,13.38,2.17,19.1c3.54,5.96,10.3,8.82,16.95,9.43c11.65,1.08,22.8-6.05,29.57-15.02
			c8.65-11.44,10.43-26.5,12.14-40.28c-3.33,0-6.67,0-10,0c1.19,24.9,2.4,49.79,3.57,74.69c0.28,5.87,0.51,11.77,0.03,17.64
			c-0.06,0.7-0.12,1.4-0.2,2.09c-0.03,0.31-0.07,0.62-0.11,0.93c0.12-0.93,0.01-0.12-0.02,0.06c-0.26,1.54-0.53,3.06-0.9,4.58
			c-0.3,1.23-0.65,2.46-1.07,3.66c-0.18,0.52-0.37,1.04-0.57,1.56c-0.12,0.29-0.33,1.11,0.01,0c-0.1,0.35-0.31,0.69-0.46,1.01
			c-0.97,2.07-2.13,4.05-3.48,5.89c-0.2,0.27-0.54,0.98,0,0.01c-0.11,0.19-0.33,0.41-0.46,0.57c-0.35,0.42-0.72,0.83-1.09,1.24
			c-0.78,0.84-1.62,1.64-2.5,2.39c-0.05,0.04-0.97,0.8-0.34,0.29c0.63-0.51-0.31,0.22-0.36,0.26c-0.39,0.28-0.79,0.55-1.2,0.8
			c-0.51,0.32-1.03,0.62-1.56,0.9c-0.5,0.26-1.18,0.44-1.62,0.78c0.67-0.5,0.6-0.23,0.19-0.1c-0.29,0.09-0.57,0.21-0.86,0.3
			c-0.54,0.18-1.09,0.34-1.64,0.47c-0.28,0.07-0.56,0.13-0.84,0.19c0,0-1.39,0.2-0.61,0.12c0.78-0.09-0.63,0.04-0.62,0.04
			c-0.43,0.02-0.86,0.03-1.29,0.03c-0.29-0.01-0.57-0.03-0.86-0.04c-1.35-0.06,0.95,0.24-0.37-0.04c-0.7-0.15-1.37-0.35-2.06-0.56
			c-1.25-0.39,0.5,0.33-0.1-0.05c-0.31-0.19-0.65-0.34-0.96-0.53c-0.19-0.12-0.65-0.31-0.76-0.5c0.23,0.41,0.58,0.48,0.02,0
			c-0.5-0.44-0.97-0.91-1.41-1.41c-0.06-0.07-0.48-0.55-0.47-0.56c0.37,0.48,0.45,0.57,0.23,0.28c-0.11-0.15-0.21-0.3-0.31-0.46
			c-0.34-0.52-0.65-1.05-0.93-1.6c-0.14-0.28-0.26-0.56-0.4-0.84c-0.15-0.34-0.1-0.22,0.14,0.34c-0.07-0.17-0.13-0.35-0.2-0.52
			c-0.45-1.23-0.74-2.48-0.97-3.77c0.15,0.88,0.01,0.09,0-0.09c-0.03-0.47-0.08-0.94-0.1-1.42c-0.04-0.87-0.03-1.74,0.01-2.61
			c0.04-0.87,0.12-1.74,0.22-2.61c-0.02,0.21-0.14,0.92,0.01-0.09c0.07-0.47,0.15-0.94,0.23-1.42c0.31-1.73,0.7-3.44,1.11-5.14
			c0.61-2.54-0.8-5.54-3.49-6.15c-2.57-0.59-5.5,0.77-6.15,3.49c-1.58,6.57-2.76,13.44-1.21,20.14c1.29,5.57,4.75,11.03,9.84,13.84
			c6.04,3.34,13.17,2.68,19.31,0.05c5.06-2.17,9.18-5.89,12.49-10.22c7.35-9.63,9.08-21.98,9-33.78
			c-0.04-6.45-0.47-12.89-0.78-19.33c-0.32-6.64-0.64-13.29-0.95-19.93c-0.71-14.95-1.43-29.9-2.14-44.85c-0.12-2.61-2.21-5.12-5-5
			c-2.99,0.13-4.65,2.21-5,5c-0.18,1.42-0.36,2.83-0.54,4.25c-0.03,0.21-0.14,0.98,0.01-0.05c-0.04,0.28-0.08,0.57-0.12,0.85
			c-0.12,0.85-0.24,1.71-0.37,2.56c-0.42,2.76-0.91,5.52-1.52,8.24c-0.61,2.7-1.34,5.38-2.24,7.99c-0.23,0.67-0.47,1.33-0.73,1.99
			c-0.1,0.26-0.21,0.52-0.31,0.79c-0.51,1.26,0.29-0.59-0.07,0.17c-0.64,1.34-1.25,2.68-1.97,3.98c-0.6,1.08-1.24,2.13-1.94,3.15
			c-0.17,0.25-0.35,0.5-0.52,0.74c-0.18,0.25-0.61,0.98,0.01,0c-0.32,0.5-0.78,0.96-1.17,1.41c-0.81,0.92-1.67,1.8-2.57,2.62
			c-0.36,0.33-0.73,0.66-1.11,0.97c-0.27,0.23-0.55,0.51-0.86,0.7c0.68-0.43,0.28-0.22-0.16,0.1c-0.89,0.64-1.81,1.24-2.76,1.79
			c-0.52,0.3-1.06,0.59-1.6,0.87c-0.22,0.11-0.43,0.22-0.65,0.32c-0.13,0.06-1.46,0.61-0.72,0.33c0.77-0.29-0.34,0.12-0.4,0.15
			c-0.22,0.08-0.45,0.16-0.67,0.24c-0.56,0.19-1.13,0.37-1.7,0.53c-0.51,0.14-1.03,0.26-1.55,0.37c-0.29,0.06-0.58,0.12-0.87,0.17
			c-0.17,0.03-0.35,0.06-0.52,0.08c-0.38,0.06-0.23,0.04,0.46-0.06c-1.04-0.12-2.24,0.17-3.31,0.13c-0.47-0.02-1.1-0.18-1.57-0.11
			c0.96-0.15,0.66,0.1,0.12,0.01c-0.35-0.06-0.69-0.13-1.04-0.2c-0.52-0.12-1.03-0.25-1.54-0.41c-0.29-0.09-1.97-0.75-0.92-0.28
			c-0.62-0.28-1.24-0.58-1.83-0.93c-0.24-0.14-0.47-0.28-0.69-0.43c-0.36-0.23-0.92-0.77-0.29-0.2c-0.41-0.37-1.21-0.92-1.44-1.44
			c0.35,0.81,0.24,0.36,0.08,0.08c-0.17-0.27-0.35-0.54-0.51-0.82c-0.16-0.28-0.3-0.57-0.45-0.85c-0.44-0.87-0.02,0.05,0.05,0.13
			c-0.39-0.47-0.53-1.64-0.66-2.23c-0.06-0.26-0.1-0.51-0.15-0.77c-0.26-1.25,0.05,0.76-0.02-0.04c-0.05-0.59-0.11-1.18-0.13-1.78
			c-0.05-1.31-0.01-2.62,0.1-3.93c0.03-0.39,0.08-0.78,0.11-1.16c0.02-0.25,0.06-0.98-0.03,0.17c0.05-0.64,0.2-1.3,0.32-1.92
			c0.25-1.28,0.56-2.54,0.92-3.79c0.33-1.12,0.71-2.23,1.14-3.32c0.08-0.21,0.48-1.44,0.09-0.25c0.08-0.24,0.22-0.49,0.32-0.71
			c0.3-0.65,0.61-1.29,0.94-1.93c0.57-1.1,1.19-2.17,1.86-3.21c0.35-0.55,0.71-1.09,1.09-1.62c0.15-0.21,0.31-0.42,0.46-0.63
			c0.76-1.07-0.66,0.79,0.17-0.23c1.64-2.02,3.43-3.91,5.42-5.59c0.2-0.17,0.4-0.33,0.6-0.5c0.34-0.28,0.91-0.68,0.23-0.19
			c0.65-0.47,1.31-0.95,1.98-1.39c1.24-0.81,2.52-1.55,3.84-2.22c0.6-0.3,1.21-0.58,1.82-0.87c1.19-0.54-0.65,0.24,0.11-0.05
			c0.44-0.17,0.88-0.35,1.32-0.51c1.39-0.51,2.81-0.94,4.24-1.3c0.65-0.16,1.31-0.31,1.97-0.44c0.33-0.07,0.66-0.13,0.99-0.18
			c0.15-0.03,1.46-0.24,0.73-0.13c-0.81,0.13,0.5-0.06,0.54-0.06c0.4-0.04,0.8-0.08,1.21-0.11c0.74-0.06,1.48-0.1,2.22-0.11
			c1.48-0.04,2.96,0.01,4.43,0.13c0.34,0.03,0.67,0.07,1,0.1c1.35,0.13-1.07-0.18,0.27,0.03c0.8,0.13,1.59,0.27,2.38,0.44
			c2.55,0.54,5.53-0.75,6.15-3.49C276.1,316.04,274.77,312.97,272.03,312.39L272.03,312.39z"/>
	</g>
</g>
<g>
	<path class="st2" d="M167.93,254.07c46.36,2.69,94.72,5.04,137.3-13.48c0.11,21.61-0.08,43.23-0.57,64.83"/>
	<g>
		<path class="st1" d="M167.93,256.57c18.32,1.06,36.66,2.06,55.01,1.77c18.21-0.29,36.5-1.85,54.28-5.97
			c10.03-2.33,19.83-5.53,29.28-9.62c-1.25-0.72-2.51-1.44-3.76-2.16c0.09,16.79-0.01,33.58-0.29,50.37
			c-0.08,4.82-0.18,9.64-0.29,14.46c-0.07,3.22,4.93,3.22,5,0c0.38-16.79,0.59-33.58,0.6-50.37c0.01-4.82-0.01-9.64-0.03-14.46
			c-0.01-2.06-2.08-2.89-3.76-2.16c-16.25,7.04-33.72,11.07-51.27,13.08c-17.97,2.06-36.1,2.15-54.15,1.55
			c-10.21-0.34-20.42-0.91-30.62-1.5C164.72,251.38,164.73,256.38,167.93,256.57L167.93,256.57z"/>
	</g>
</g>
</svg>
