<?xml version="1.0" encoding="utf-8"?>
<!-- Generator: Adobe Illustrator 23.1.1, SVG Export Plug-In . SVG Version: 6.00 Build 0)  -->
<svg version="1.1" id="Layer_1" xmlns="http://www.w3.org/2000/svg" xmlns:xlink="http://www.w3.org/1999/xlink" x="0px" y="0px"
	 viewBox="0 0 595.28 841.89" style="enable-background:new 0 0 595.28 841.89;" xml:space="preserve">
<style type="text/css">
	.st0{fill:#3E3F7C;}
	.st1{fill:#2B3990;}
	.st2{fill:#262262;stroke:#2B3990;stroke-miterlimit:10;}
	.st3{fill:#A19FCF;}
	.st4{fill:#262262;}
	.st5{fill:#E6E7E8;}
	.st6{fill:#D1D3D4;}
	.st7{fill:#4E4F97;}
	.st8{fill:#A19FCE;}
	.st9{fill:#6361AB;}
</style>
<g>
	<path class="st0" d="M337.48,634.97c-15.02-0.29-30.05-0.26-45.07,0.09c-5.43,0.13-10.94,0.31-16.09,1.46
		c-6.82,1.53-12.86,4.94-15.17,9.44c-2.31,4.5-0.29,10.01,5.53,12.81c3.04,1.47,6.8,2.12,10.47,2.66
		c16.84,2.49,34.26,3.27,51.45,2.31c11.68-0.65,25.27-3.17,29.16-10.46c2.1-3.95,0.56-8.52-3.24-11.88s-9.61-5.57-15.75-6.64"/>
	<g>
		<path class="st1" d="M337.48,632.47c-8.83-0.17-17.66-0.23-26.5-0.18c-8.73,0.05-17.53-0.03-26.24,0.58
			c-7.66,0.54-15.55,2.11-21.68,7.03c-2.35,1.89-4.43,4.51-5.07,7.52c-0.64,3.03,0,6.21,1.78,8.74c4.62,6.55,13.45,7.27,20.73,8.24
			c8.59,1.15,17.24,1.85,25.91,2.11c8.4,0.26,16.87,0.21,25.25-0.49c6.78-0.57,13.7-1.61,19.94-4.44
			c5.61-2.54,10.57-7.46,9.41-14.11c-1.3-7.47-9.26-11.69-15.81-13.75c-1.89-0.59-3.82-1.04-5.76-1.39
			c-1.33-0.24-2.69,0.36-3.08,1.75c-0.33,1.21,0.41,2.83,1.75,3.08c3.43,0.62,6.88,1.52,10.03,3.05c2.68,1.31,5.37,3.04,6.94,5.64
			c3.01,4.97-0.79,8.8-4.97,10.92c-5.15,2.6-11.22,3.54-16.9,4.11c-7.51,0.74-15.11,0.83-22.65,0.72c-7.95-0.12-15.9-0.6-23.81-1.45
			c-3.72-0.4-7.44-0.86-11.13-1.48c-3.29-0.55-6.87-1.21-9.63-3.21c-1.77-1.28-3.12-3.32-3.24-5.19c-0.15-2.21,0.96-4.15,2.69-5.82
			c4.65-4.46,11.69-5.92,17.88-6.47c8.92-0.78,17.98-0.63,26.93-0.69c9.08-0.06,18.16,0,27.24,0.17
			C340.69,637.53,340.69,632.53,337.48,632.47L337.48,632.47z"/>
	</g>
</g>
<rect x="302.89" y="246.95" class="st2" width="13.15" height="402.49"/>
<g>
	<path class="st3" d="M321.04,220.71c20.9,0.59,41.85-2.11,61.88-7.96c2.18-0.64,4.44-1.37,6.02-3.03
		c3.5-3.69,1.76-10.38-2.23-13.62c-3.99-3.24-9.33-3.94-14.37-4.41c-45.54-4.19-91.24,0.83-136.58,5.84
		c-11.2,1.24-22.88,2.65-32.2,9.02c20.79,12.39,46,12.71,69.91,12.67c15.07-0.02,30.13-0.04,45.2-0.06"/>
	<g>
		<path class="st4" d="M321.04,223.21c18.86,0.51,37.81-1.6,56.09-6.28c2.22-0.57,4.44-1.17,6.64-1.83c1.92-0.57,3.9-1.23,5.53-2.43
			c3.15-2.31,4.4-5.97,3.87-9.78c-0.52-3.69-2.56-6.98-5.52-9.21c-3.25-2.44-7.27-3.49-11.24-4.04c-9.35-1.28-18.91-1.62-28.34-1.87
			c-9.74-0.26-19.49-0.17-29.24,0.17c-19.52,0.69-38.98,2.4-58.4,4.41c-9.42,0.98-18.85,1.97-28.26,3.08
			c-8.41,0.99-16.86,2.32-24.6,5.95c-1.84,0.86-3.6,1.87-5.29,3c-1.53,1.03-1.69,3.32,0,4.32c12.65,7.49,27.11,10.75,41.62,12.08
			c15.33,1.41,30.81,0.93,46.19,0.91c9.52-0.01,19.04-0.03,28.56-0.04c3.22,0,3.22-5,0-5c-16.41,0.02-32.83,0.09-49.24,0.06
			c-14.2-0.03-28.58-0.33-42.47-3.62c-7.77-1.84-15.25-4.64-22.14-8.71c0,1.44,0,2.88,0,4.32c6.54-4.41,14.19-6.35,21.9-7.54
			c8.55-1.32,17.22-2.05,25.82-2.97c18.51-1.99,37.06-3.79,55.65-4.77c18.48-0.98,37.02-1.16,55.49,0.08
			c4.19,0.28,8.46,0.48,12.62,1.15c3.41,0.55,7.16,1.51,9.62,4.11c1.78,1.88,2.88,4.87,2.26,7.29c-0.84,3.27-4.86,3.99-7.75,4.81
			c-17.13,4.83-34.87,7.32-52.67,7.42c-2.23,0.01-4.47-0.02-6.7-0.08C317.82,218.13,317.82,223.13,321.04,223.21L321.04,223.21z"/>
	</g>
</g>
<g>
	<path class="st5" d="M299.38,219.77c-0.18-4.61-4.03-7.97-7.78-10.14c-3.74-2.17-7.97-4.04-10.18-7.98
		c-3.67-6.55,0.35-15.38,6.13-19.78c4.34-3.31,9.95-5.1,15.04-3.47c7.79,2.49,11.99,12.41,11.16,21.21
		c-0.83,8.8-5.51,16.58-10.54,23.52"/>
	<g>
		<path class="st6" d="M301.88,219.77c-0.23-3.89-2.28-7.2-5.24-9.66c-2.9-2.41-6.35-3.85-9.44-5.97c-2.6-1.78-4.54-4.32-4.68-7.56
			c-0.13-3.25,1.14-6.35,2.96-8.99c3.67-5.31,11.7-9.47,17.9-6.17c5.5,2.92,7.91,9.82,7.97,15.73c0.09,9.19-5.11,17.53-10.3,24.71
			c-0.79,1.09-0.19,2.79,0.9,3.42c1.26,0.74,2.63,0.2,3.42-0.9c5.4-7.47,10.17-15.75,10.92-25.13c0.58-7.31-2-15.74-7.87-20.45
			c-7.19-5.77-17.01-3.67-23.56,2.06c-5.82,5.09-9.46,14.07-5.91,21.43c2.09,4.33,6.41,6.69,10.43,8.94
			c3.24,1.82,7.26,4.42,7.51,8.53C297.08,222.97,302.08,222.99,301.88,219.77L301.88,219.77z"/>
	</g>
</g>
<g>
	<path class="st7" d="M204.64,206.04c12.49,8.99,24.98,17.99,37.47,26.98c14.76,10.63,29.74,21.37,46.49,27.61
		c16.76,6.24,35.79,7.56,51.67-0.59c19.77-10.14,31.14-32.55,47.91-47.67c-46.7,6.72-94,9-141.17,6.83
		c-15.32-0.71-31.95-2.47-43.25-13.75"/>
	<g>
		<path class="st4" d="M203.38,208.2c13.6,9.79,27.18,19.61,40.8,29.37c12.53,8.99,25.33,17.82,39.61,23.82
			c13.55,5.7,28.59,8.49,43.19,5.78c6.88-1.28,13.48-3.92,19.34-7.75c5.36-3.5,10.13-7.83,14.51-12.48
			c8.92-9.46,16.37-20.22,25.58-29.42c1.16-1.16,2.34-2.28,3.55-3.38c0.82-0.74,0.93-2.11,0.39-3.03c-0.61-1.04-1.71-1.31-2.82-1.15
			c-25.65,3.68-51.49,6-77.38,6.99c-12.9,0.49-25.8,0.65-38.71,0.48c-11.83-0.16-23.79-0.25-35.56-1.53
			c-11-1.2-22.25-4.23-30.33-12.21c-2.29-2.26-5.83,1.27-3.54,3.54c7.62,7.52,17.8,11.26,28.21,12.92
			c11.55,1.84,23.4,1.93,35.06,2.18c26.38,0.57,52.78-0.25,79.08-2.46c14.88-1.25,29.72-2.96,44.51-5.08
			c-0.81-1.39-1.62-2.79-2.43-4.18c-9.47,8.57-16.94,19.01-25.32,28.59c-8.3,9.49-17.78,18.23-30.14,21.88
			c-13.63,4.01-28.35,2.07-41.49-2.78c-14.07-5.2-26.72-13.64-38.88-22.26c-13.28-9.42-26.44-19.01-39.66-28.53
			c-1.68-1.21-3.36-2.42-5.04-3.63c-1.1-0.79-2.78-0.19-3.42,0.9C201.74,206.03,202.28,207.4,203.38,208.2L203.38,208.2z"/>
	</g>
</g>
<g>
	<path class="st8" d="M317.47,347.58c-5.07,0.89-10.85-1.58-15.04,1.96c-1.92,1.62-3.07,4.21-4.07,6.74
		c-1.74,4.42-3.25,9.12-3.29,14c-0.04,4.89,1.64,10.04,5.09,12.65c1.87,1.41,4.08,1.98,6.24,2.5c3.62,0.87,7.7,1.57,10.74-0.94
		c2.5-2.06,3.63-5.78,4.19-9.36c0.62-3.92,0.73-7.92,0.82-11.9c0.07-2.97,0.11-6.01-0.72-8.8c-0.83-2.79-2.74-5.33-5.19-5.74"/>
	<g>
		<path class="st9" d="M316.8,345.17c-3.58,0.57-7.22-0.43-10.83,0.13c-4.05,0.63-6.91,3.5-8.64,7.08
			c-3.53,7.3-6.21,16.26-3.92,24.31c1.03,3.61,3.09,7.04,6.38,9c1.76,1.05,3.76,1.63,5.73,2.11c1.92,0.47,3.9,0.88,5.88,0.93
			c4.12,0.11,7.77-1.78,9.87-5.36c2.11-3.59,2.65-7.94,3.01-12.02c0.43-4.94,0.78-10.19,0.08-15.11c-0.59-4.16-2.93-9.03-7.46-9.96
			c-1.32-0.27-2.7,0.38-3.08,1.75c-0.34,1.24,0.42,2.8,1.75,3.08c2.75,0.56,3.69,4.09,3.96,6.5c0.42,3.72,0.12,7.64-0.09,11.37
			c-0.27,4.88-0.55,14.52-7.27,14.75c-1.48,0.05-2.92-0.2-4.36-0.53c-1.53-0.34-3.13-0.68-4.56-1.33c-2.57-1.16-4.1-3.52-4.91-6.15
			c-2-6.52,0.2-13.49,2.73-19.54c1.2-2.88,2.76-5.58,6.11-6.04c1.75-0.24,3.57-0.03,5.32,0.07c1.9,0.1,3.74,0.08,5.63-0.22
			c1.33-0.21,2.08-1.88,1.75-3.08C319.49,345.49,318.14,344.96,316.8,345.17L316.8,345.17z"/>
	</g>
</g>
</svg>
