<?xml version="1.0" encoding="utf-8"?>
<!-- Generator: Adobe Illustrator 23.1.1, SVG Export Plug-In . SVG Version: 6.00 Build 0)  -->
<svg version="1.1" id="Layer_1" xmlns="http://www.w3.org/2000/svg" xmlns:xlink="http://www.w3.org/1999/xlink" x="0px" y="0px"
	 viewBox="0 0 192.22 491.28" style="enable-background:new 0 0 192.22 491.28;" xml:space="preserve">
<style type="text/css">
	.st0{fill:#3E3F7C;}
	.st1{fill:#2B3990;}
	.st2{fill:#262262;stroke:#2B3990;stroke-miterlimit:10;}
	.st3{fill:#A19FCF;}
	.st4{fill:#262262;}
	.st5{fill:#E6E7E8;}
	.st6{fill:#D1D3D4;}
	.st7{fill:#4E4F97;}
</style>
<title>lamp-off</title>
<g>
	<g id="Layer_1-2">
		<path class="st0" d="M136.41,459.59c-15.02-0.29-30.04-0.26-45.07,0.09c-5.4-0.03-10.79,0.46-16.09,1.46
			c-6.82,1.53-12.86,4.94-15.17,9.44s-0.29,10,5.53,12.81c3,1.47,6.8,2.12,10.47,2.66c17.03,2.5,34.27,3.27,51.45,2.31
			c11.68-0.65,25.27-3.17,29.16-10.46c2.1-3.95,0.56-8.52-3.24-11.88s-9.61-5.57-15.75-6.64"/>
		<path class="st1" d="M136.41,457.09c-8.83-0.17-17.67-0.23-26.5-0.18c-8.73,0-17.53,0-26.24,0.58c-7.66,0.54-15.55,2.11-21.68,7
			c-2.49,1.86-4.27,4.51-5.07,7.51c-0.64,3.03,0,6.2,1.78,8.74c4.62,6.55,13.45,7.27,20.73,8.24c8.59,1.15,17.24,1.85,25.91,2.11
			c8.42,0.32,16.85,0.15,25.25-0.49c6.78-0.57,13.7-1.61,19.94-4.44c5.61-2.54,10.57-7.46,9.41-14.11
			c-1.3-7.47-9.26-11.69-15.81-13.75c-1.89-0.58-3.81-1.05-5.76-1.39c-1.33-0.33-2.68,0.44-3.08,1.75c-0.35,1.33,0.43,2.7,1.75,3.08
			c3.46,0.56,6.82,1.59,10,3.05c2.68,1.31,5.37,3,6.94,5.64c3,5-0.79,8.8-5,10.92c-5.15,2.6-11.22,3.54-16.9,4.11
			c-7.53,0.66-15.09,0.91-22.65,0.72c-7.95-0.12-15.88-0.6-23.81-1.45c-3.72-0.4-7.44-0.86-11.13-1.48
			c-3.29-0.55-6.87-1.21-9.63-3.21c-1.76-1.2-2.93-3.08-3.24-5.19c-0.15-2.21,1-4.15,2.69-5.82c4.65-4.46,11.69-5.92,17.88-6.47
			c8.92-0.78,18-0.63,26.93-0.69s18.16,0,27.24,0.17c3.2,0.07,3.2-4.93,0-5L136.41,457.09z"/>
		<rect x="101.82" y="71.57" class="st2" width="13.15" height="402.49"/>
		<path class="st3" d="M120,45.33c20.92,0.57,41.8-2.13,61.88-8c2.18-0.64,4.44-1.37,6-3c3.5-3.69,1.76-10.38-2.23-13.62
			s-9.33-3.94-14.37-4.41c-45.54-4.19-91.24,0.83-136.58,5.84c-11.2,1.24-22.88,2.65-32.2,9c20.79,12.39,46,12.71,69.91,12.67
			l45.2-0.06"/>
		<path class="st4" d="M120,47.83c18.9,0.51,37.77-1.6,56.09-6.28c2.22-0.57,4.44-1.17,6.64-1.83c1.97-0.49,3.84-1.31,5.53-2.43
			c3.04-2.26,4.54-6.05,3.87-9.78c-0.54-3.68-2.53-7-5.52-9.21c-3.25-2.44-7.27-3.49-11.24-4c-9.41-1.15-18.89-1.79-28.37-1.91
			c-9.74-0.26-19.49-0.17-29.24,0.17c-19.52,0.69-39,2.4-58.4,4.41c-9.42,1-18.85,2-28.26,3.08C22.69,21,14.24,22.37,6.5,26
			c-1.84,0.86-3.61,1.87-5.29,3c-1.19,0.74-1.56,2.3-0.82,3.5c0.21,0.33,0.49,0.62,0.82,0.82c12.65,7.49,27.11,10.75,41.62,12.08
			c15.33,1.41,30.81,0.93,46.19,0.91h28.56c3.22,0,3.22-5,0-5c-16.41,0-32.83,0.09-49.24,0.06c-14.2,0-28.58-0.33-42.47-3.62
			C18.09,35.97,10.63,33.02,3.73,29v4.32c6.54-4.41,14.19-6.35,21.9-7.54c8.55-1.32,17.22-2.05,25.82-3C70,20.82,88.51,19,107.1,18
			c18.48-1.08,37.01-1.06,55.49,0.08c4.19,0.28,8.46,0.48,12.62,1.15c3.41,0.55,7.16,1.51,9.62,4.11c1.88,1.93,2.72,4.64,2.26,7.29
			c-0.84,3.27-4.86,4-7.75,4.81c-17.14,4.83-34.86,7.32-52.67,7.42c-2.23,0-4.47,0-6.7-0.08c-3.22-0.07-3.22,4.93,0,5L120,47.83z"/>
		<path class="st5" d="M98.31,44.39c-0.18-4.61-4-8-7.78-10.14s-8-4-10.18-8c-3.67-6.55,0.35-15.38,6.13-19.78
			c4.34-3.31,10-5.1,15-3.47c7.79,2.49,12,12.41,11.16,21.21s-5.51,16.58-10.54,23.52"/>
		<path class="st6" d="M100.81,44.39c-0.31-3.81-2.22-7.32-5.24-9.66c-2.9-2.41-6.35-3.85-9.44-6c-2.6-1.78-4.54-4.32-4.68-7.56
			c0-3.25,1.05-6.4,3-9C88.08,6.9,96.11,2.74,102.31,6c5.5,2.92,7.91,9.82,8,15.73c0.09,9.19-5.11,17.53-10.3,24.71
			c-0.68,1.19-0.28,2.72,0.9,3.42c1.2,0.67,2.71,0.27,3.42-0.9c5.4-7.47,10.17-15.75,10.92-25.13c0.58-7.31-2-15.74-7.87-20.45
			c-7.19-5.77-17-3.67-23.56,2.06c-5.82,5.13-9.49,14.11-5.94,21.47c2.09,4.33,6.41,6.69,10.43,8.94c3.24,1.82,7.26,4.42,7.51,8.53
			c0.19,3.21,5.19,3.23,5,0L100.81,44.39z"/>
		<path class="st7" d="M3.57,30.66L41,57.64C55.8,68.27,70.78,79,87.53,85.25s35.79,7.56,51.67-0.59
			C159,74.52,170.34,52.11,187.11,37c-46.74,6.71-94,9-141.17,6.82C30.62,43.11,14,41.35,2.69,30.07"/>
		<path class="st4" d="M2.31,32.82c13.6,9.79,27.2,19.58,40.8,29.37C55.64,71.18,68.44,80,82.72,86c13.55,5.7,28.59,8.49,43.19,5.78
			c6.9-1.29,13.47-3.94,19.34-7.78c5.31-3.57,10.18-7.76,14.51-12.48c8.92-9.46,16.37-20.22,25.58-29.42
			c1.16-1.16,2.34-2.28,3.55-3.38c0.78-0.8,0.94-2.02,0.39-3c-0.6-0.95-1.73-1.41-2.82-1.15c-25.65,3.68-51.48,6.01-77.38,7
			c-12.9,0.49-25.8,0.65-38.71,0.48c-11.83-0.16-23.79-0.25-35.56-1.53c-11-1.2-22.25-4.23-30.33-12.21
			c-2.29-2.26-5.83,1.27-3.54,3.54c7.62,7.52,17.8,11.26,28.21,12.92C40.7,46.61,52.55,46.7,64.21,47
			c26.38,0.57,52.78-0.25,79.08-2.46c14.88-1.25,29.72-2.94,44.51-5.08l-2.43-4.18c-9.47,8.57-16.94,19-25.32,28.59
			s-17.78,18.18-30.14,21.83c-13.63,4-28.35,2.07-41.49-2.78c-14.07-5.2-26.72-13.64-38.88-22.26c-13.28-9.42-26.44-19-39.66-28.53
			l-5-3.63c-1.19-0.68-2.72-0.28-3.42,0.9c-0.67,1.19-0.28,2.71,0.89,3.42L2.31,32.82z"/>
	</g>
</g>
</svg>
