<svg xmlns="http://www.w3.org/2000/svg" viewBox="0 0 192.28 491.27"><defs><style>.cls-1{fill:#3e427e;}.cls-2{fill:#294090;}.cls-3,.cls-5{fill:#292660;}.cls-3{stroke:#294090;stroke-miterlimit:10;}.cls-4{fill:#a19fcf;}.cls-6{fill:#faed24;}.cls-7{fill:#fbb043;}.cls-8{fill:#4e529a;}</style></defs><title>lamp-on</title><g id="Layer_2" data-name="Layer 2"><g id="Layer_1-2" data-name="Layer 1"><g id="Layer_1-2-2-2" data-name="Layer 1-2-2-2"><path class="cls-1" d="M136.38,459.63q-22.53-.44-45.07.09a84.42,84.42,0,0,0-16.09,1.46c-6.82,1.53-12.86,4.94-15.17,9.44s-.29,10,5.53,12.81c3,1.47,6.8,2.12,10.47,2.66a255.94,255.94,0,0,0,51.45,2.31c11.68-.65,25.27-3.17,29.16-10.46,2.1-3.95.56-8.52-3.24-11.88s-9.61-5.57-15.75-6.64"/><path class="cls-2" d="M136.38,457.13q-13.23-.25-26.5-.18c-8.73,0-17.53,0-26.24.58-7.66.54-15.55,2.11-21.68,7A13.82,13.82,0,0,0,56.89,472a11.29,11.29,0,0,0,1.78,8.74C63.29,487.29,72.12,488,79.4,489a252.72,252.72,0,0,0,25.91,2.11,221.59,221.59,0,0,0,25.25-.49c6.78-.57,13.7-1.61,19.94-4.44,5.61-2.54,10.57-7.46,9.41-14.11-1.3-7.47-9.26-11.69-15.81-13.75a47.36,47.36,0,0,0-5.76-1.39,2.5,2.5,0,1,0-1.33,4.83,38.83,38.83,0,0,1,10,3.05c2.68,1.31,5.37,3,6.94,5.64,3,5-.79,8.8-5,10.92-5.15,2.6-11.22,3.54-16.9,4.11a199.09,199.09,0,0,1-22.65.72q-11.91-.19-23.81-1.43c-3.72-.4-7.44-.86-11.13-1.48-3.29-.55-6.87-1.21-9.63-3.21a7.61,7.61,0,0,1-3.24-5.19c-.15-2.21,1-4.15,2.69-5.82,4.7-4.46,11.7-5.92,17.88-6.47,8.92-.78,18-.63,26.93-.69s18.16,0,27.24.17c3.21.07,3.21-4.93,0-5Z"/><rect class="cls-3" x="101.8" y="71.62" width="13.15" height="402.49"/><path class="cls-4" d="M120,45.38a201,201,0,0,0,61.88-8c2.18-.64,4.44-1.37,6-3,3.5-3.69,1.76-10.38-2.23-13.62s-9.33-3.94-14.37-4.41c-45.54-4.19-91.24.83-136.58,5.84-11.2,1.24-22.88,2.65-32.2,9,20.79,12.39,46,12.71,69.91,12.67l45.2-.06"/><path class="cls-5" d="M120,47.88a204.26,204.26,0,0,0,56.09-6.28c2.22-.57,4.44-1.17,6.64-1.83a17.77,17.77,0,0,0,5.53-2.43,10,10,0,0,0,3.87-9.78,14,14,0,0,0-5.52-9.21c-3.25-2.44-7.27-3.49-11.24-4A261.07,261.07,0,0,0,147,12.44c-9.74-.26-19.49-.17-29.24.17-19.52.69-39,2.4-58.4,4.41-9.42,1-18.85,2-28.26,3.08-8.41,1-16.86,2.32-24.6,6a40.62,40.62,0,0,0-5.29,3,2.54,2.54,0,0,0-.82,3.5h0a2.67,2.67,0,0,0,.82.82C13.83,40.91,28.29,44.17,42.8,45.5c15.33,1.41,30.81.93,46.19.91h28.56c3.22,0,3.22-5,0-5-16.41,0-32.83.09-49.24.06-14.2,0-28.58-.33-42.47-3.62A79.07,79.07,0,0,1,3.7,29v4.32C10.24,29,17.89,27,25.6,25.82c8.55-1.32,17.22-2.05,25.82-3C70,20.87,88.48,19,107.07,18.09a462.75,462.75,0,0,1,55.49.08c4.19.28,8.46.48,12.62,1.15,3.41.55,7.16,1.51,9.62,4.11a8.39,8.39,0,0,1,2.26,7.29c-.84,3.27-4.86,4-7.75,4.81A198.3,198.3,0,0,1,126.64,43c-2.23,0-4.47,0-6.7-.08-3.21-.08-3.21,4.92,0,5Z"/><path class="cls-6" d="M98.29,44.43c-.18-4.61-4-8-7.78-10.14s-8-4-10.18-8c-3.67-6.55.35-15.38,6.13-19.78,4.34-3.31,10-5.1,15-3.47,7.79,2.49,12,12.41,11.16,21.21s-5.51,16.58-10.54,23.52"/><path class="cls-7" d="M100.79,44.43a13.6,13.6,0,0,0-5.24-9.66c-2.9-2.41-6.35-3.85-9.44-6-2.6-1.78-4.54-4.32-4.68-7.56a15.14,15.14,0,0,1,3-9C88.06,6.94,96.09,2.78,102.29,6c5.5,2.92,7.91,9.82,8,15.73.09,9.27-5.11,17.57-10.3,24.75a2.51,2.51,0,0,0,.9,3.42,2.55,2.55,0,0,0,3.42-.9c5.4-7.47,10.17-15.75,10.92-25.13.58-7.31-2-15.74-7.87-20.45-7.19-5.77-17-3.67-23.56,2.06C78,10.61,74.31,19.59,77.86,27c2.11,4.33,6.41,6.69,10.43,8.94,3.24,1.82,7.26,4.42,7.51,8.53.19,3.21,5.19,3.23,5,0Z"/><path class="cls-8" d="M3.55,30.7,41,57.7C55.78,68.31,70.76,79,87.51,85.29s35.79,7.56,51.67-.59C159,74.56,170.32,52.15,187.09,37A749.86,749.86,0,0,1,46,43.86c-15.37-.71-32-2.47-43.3-13.75"/><path class="cls-5" d="M2.29,32.86l40.8,29.37C55.62,71.22,68.42,80,82.7,86c13.55,5.7,28.59,8.49,43.19,5.78A53.19,53.19,0,0,0,145.23,84a80.4,80.4,0,0,0,14.51-12.48c8.92-9.46,16.37-20.22,25.58-29.42,1.16-1.16,2.34-2.28,3.55-3.38a2.5,2.5,0,0,0,.39-3,2.61,2.61,0,0,0-2.82-1.15,745.34,745.34,0,0,1-77.38,7q-19.35.74-38.71.48c-11.83-.16-23.79-.25-35.56-1.53-11-1.2-22.25-4.23-30.33-12.21C2.17,26.09-1.37,29.62,1,31.89c7.62,7.52,17.8,11.26,28.21,12.92,11.5,1.84,23.35,1.93,35,2.23a750.69,750.69,0,0,0,79.08-2.46q22.32-1.87,44.51-5.08l-2.43-4.18c-9.47,8.57-16.94,19-25.32,28.59s-17.79,18.18-30.15,21.83c-13.63,4-28.35,2.07-41.49-2.78C74.33,77.76,61.68,69.32,49.52,60.7c-13.28-9.42-26.44-19-39.66-28.53l-5-3.63a2.53,2.53,0,0,0-3.42.9,2.56,2.56,0,0,0,.89,3.42Z"/></g></g></g></svg>