<svg xmlns="http://www.w3.org/2000/svg" viewBox="0 0 192.22 491.28"><defs><style>.cls-1{fill:#3e3f7c;}.cls-2{fill:#2b3990;}.cls-3,.cls-5{fill:#262262;}.cls-3{stroke:#2b3990;stroke-miterlimit:10;}.cls-4{fill:#a19fcf;}.cls-6{fill:#fff200;}.cls-7{fill:#fbb040;}.cls-8{fill:#4e4f97;}.cls-9{fill:#a19fce;}.cls-10{fill:#6361ab;}</style></defs><title>lamp-on</title><g id="Layer_2" data-name="Layer 2"><g id="Layer_1-2" data-name="Layer 1"><path class="cls-1" d="M136.41,459.59q-22.53-.43-45.07.09a83.76,83.76,0,0,0-16.09,1.46c-6.82,1.53-12.86,4.94-15.17,9.44s-.29,10,5.53,12.81c3,1.47,6.8,2.12,10.47,2.66a256,256,0,0,0,51.45,2.31c11.68-.65,25.27-3.17,29.16-10.46,2.1-3.95.56-8.52-3.24-11.88s-9.61-5.57-15.75-6.64"/><path class="cls-2" d="M136.41,457.09q-13.25-.25-26.5-.18c-8.73,0-17.53,0-26.24.58-7.66.54-15.55,2.11-21.68,7A13.8,13.8,0,0,0,56.92,472a11.19,11.19,0,0,0,1.78,8.74c4.62,6.55,13.45,7.27,20.73,8.24a252.26,252.26,0,0,0,25.91,2.11,221.59,221.59,0,0,0,25.25-.49c6.78-.57,13.7-1.61,19.94-4.44,5.61-2.54,10.57-7.46,9.41-14.11-1.3-7.47-9.26-11.69-15.81-13.75a47.81,47.81,0,0,0-5.76-1.39,2.58,2.58,0,0,0-3.08,1.75,2.53,2.53,0,0,0,1.75,3.08,38.66,38.66,0,0,1,10,3.05c2.68,1.31,5.37,3,6.94,5.64,3,5-.79,8.8-5,10.92-5.15,2.6-11.22,3.54-16.9,4.11a201.42,201.42,0,0,1-22.65.72q-11.92-.18-23.81-1.45c-3.72-.4-7.44-.86-11.13-1.48-3.29-.55-6.87-1.21-9.63-3.21a7.6,7.6,0,0,1-3.24-5.19c-.15-2.21,1-4.15,2.69-5.82,4.65-4.46,11.69-5.92,17.88-6.47,8.92-.78,18-.63,26.93-.69s18.16,0,27.24.17c3.21.07,3.21-4.93,0-5Z"/><rect class="cls-3" x="101.83" y="71.58" width="13.15" height="402.49"/><path class="cls-4" d="M120,45.34a200.88,200.88,0,0,0,61.88-8c2.18-.64,4.44-1.37,6-3,3.5-3.69,1.76-10.38-2.23-13.62s-9.33-3.94-14.37-4.41c-45.54-4.19-91.24.83-136.58,5.84-11.2,1.24-22.88,2.65-32.2,9,20.79,12.39,46,12.71,69.91,12.67l45.2-.06"/><path class="cls-5" d="M120,47.84a204.31,204.31,0,0,0,56.09-6.28c2.22-.57,4.44-1.17,6.64-1.83a17.67,17.67,0,0,0,5.53-2.43,10,10,0,0,0,3.87-9.78,14,14,0,0,0-5.52-9.21c-3.25-2.44-7.27-3.49-11.24-4A260.48,260.48,0,0,0,147,12.4c-9.74-.26-19.49-.17-29.24.17-19.52.69-39,2.4-58.4,4.41-9.42,1-18.85,2-28.26,3.08-8.41,1-16.86,2.32-24.6,6a40,40,0,0,0-5.29,3,2.54,2.54,0,0,0,0,4.32c12.65,7.49,27.11,10.75,41.62,12.08,15.33,1.41,30.81.93,46.19.91l28.56,0c3.22,0,3.22-5,0-5-16.41,0-32.83.09-49.24.06-14.2,0-28.58-.33-42.47-3.62A79.15,79.15,0,0,1,3.73,29v4.32c6.54-4.41,14.19-6.35,21.9-7.54,8.55-1.32,17.22-2.05,25.82-3C70,20.83,88.51,19,107.1,18.05a462.75,462.75,0,0,1,55.49.08c4.19.28,8.46.48,12.62,1.15,3.41.55,7.16,1.51,9.62,4.11a8.38,8.38,0,0,1,2.26,7.29c-.84,3.27-4.86,4-7.75,4.81a198.3,198.3,0,0,1-52.67,7.42c-2.23,0-4.47,0-6.7-.08-3.21-.08-3.21,4.92,0,5Z"/><path class="cls-6" d="M98.32,44.39c-.18-4.61-4-8-7.78-10.14s-8-4-10.18-8c-3.67-6.55.35-15.38,6.13-19.78,4.34-3.31,10-5.1,15-3.47,7.79,2.49,12,12.41,11.16,21.21s-5.51,16.58-10.54,23.52"/><path class="cls-7" d="M100.82,44.39a13.64,13.64,0,0,0-5.24-9.66c-2.9-2.41-6.35-3.85-9.44-6-2.6-1.78-4.54-4.32-4.68-7.56a15,15,0,0,1,3-9C88.09,6.9,96.12,2.74,102.32,6c5.5,2.92,7.91,9.82,8,15.73.09,9.19-5.11,17.53-10.3,24.71a2.51,2.51,0,0,0,.9,3.42,2.55,2.55,0,0,0,3.42-.9c5.4-7.47,10.17-15.75,10.92-25.13.58-7.31-2-15.74-7.87-20.45-7.19-5.77-17-3.67-23.56,2.06C78,10.57,74.34,19.55,77.89,26.91,80,31.24,84.3,33.6,88.32,35.85c3.24,1.82,7.26,4.42,7.51,8.53.19,3.21,5.19,3.23,5,0Z"/><path class="cls-8" d="M3.58,30.66l37.47,27C55.81,68.27,70.79,79,87.54,85.25s35.79,7.56,51.67-.59C159,74.52,170.35,52.11,187.12,37A749.62,749.62,0,0,1,46,43.82C30.63,43.11,14,41.35,2.7,30.07"/><path class="cls-5" d="M2.32,32.82q20.4,14.68,40.8,29.37C55.65,71.18,68.45,80,82.73,86c13.55,5.7,28.59,8.49,43.19,5.78A53.2,53.2,0,0,0,145.26,84a81.09,81.09,0,0,0,14.51-12.48c8.92-9.46,16.37-20.22,25.58-29.42,1.16-1.16,2.34-2.28,3.55-3.38a2.52,2.52,0,0,0,.39-3,2.62,2.62,0,0,0-2.82-1.15,745.57,745.57,0,0,1-77.38,7q-19.35.74-38.71.48c-11.83-.16-23.79-.25-35.56-1.53-11-1.2-22.25-4.23-30.33-12.21C2.2,26.05-1.34,29.58,1,31.85c7.62,7.52,17.8,11.26,28.21,12.92C40.71,46.61,52.56,46.7,64.22,47a750.78,750.78,0,0,0,79.08-2.46q22.32-1.87,44.51-5.08l-2.43-4.18c-9.47,8.57-16.94,19-25.32,28.59S142.28,82.05,129.92,85.7c-13.63,4-28.35,2.07-41.49-2.78-14.07-5.2-26.72-13.64-38.88-22.26-13.28-9.42-26.44-19-39.66-28.53l-5-3.63a2.52,2.52,0,0,0-3.42.9,2.54,2.54,0,0,0,.89,3.42Z"/><path class="cls-9" d="M116.41,172.2c-5.07.89-10.85-1.58-15,2-1.92,1.62-3.07,4.21-4.07,6.74-1.74,4.42-3.25,9.12-3.29,14s1.64,10,5.09,12.65a16.3,16.3,0,0,0,6.24,2.5c3.62.87,7.7,1.57,10.74-.94,2.5-2.06,3.63-5.78,4.19-9.36a89.1,89.1,0,0,0,.82-11.9,28.67,28.67,0,0,0-.72-8.8c-.83-2.79-2.74-5.33-5.19-5.74"/><path class="cls-10" d="M115.74,169.79c-3.58.57-7.22-.43-10.83.13-4,.63-6.91,3.5-8.64,7.08-3.53,7.3-6.21,16.26-3.92,24.31a15,15,0,0,0,6.38,9,20.57,20.57,0,0,0,5.73,2.11,27.93,27.93,0,0,0,5.88.93,10.78,10.78,0,0,0,9.87-5.36c2.11-3.59,2.65-7.94,3-12a67.57,67.57,0,0,0,.08-15.11c-.59-4.16-2.93-9-7.46-10a2.57,2.57,0,0,0-3.08,1.75,2.53,2.53,0,0,0,1.75,3.08c2.75.56,3.69,4.09,4,6.5a68.53,68.53,0,0,1-.09,11.37c-.27,4.88-.55,14.52-7.27,14.75a16.9,16.9,0,0,1-4.36-.53,23.16,23.16,0,0,1-4.56-1.33,9.43,9.43,0,0,1-4.91-6.15c-2-6.52.2-13.49,2.73-19.54,1.2-2.88,2.76-5.58,6.11-6a27.82,27.82,0,0,1,5.32.07,26.52,26.52,0,0,0,5.63-.22,2.53,2.53,0,0,0,1.75-3.08,2.57,2.57,0,0,0-3.08-1.74Z"/></g></g></svg>