<svg xmlns="http://www.w3.org/2000/svg" viewBox="0 0 134.54 194.55"><defs><style>.cls-1{isolation:isolate;}.cls-2{font-size:37px;fill:#444244;font-family:Solway-Regular, Solway;}.cls-3{letter-spacing:0.01em;}.cls-4{letter-spacing:0em;}.cls-5{fill:#434244;}</style></defs><title>light-message_1</title><g id="Layer_2" data-name="Layer 2"><g id="Layer_1-2" data-name="Layer 1"><g class="cls-1"><text class="cls-2" transform="translate(9.22 31.45)">tu<tspan class="cls-3" x="39.74" y="0">r</tspan><tspan class="cls-4" x="56.98" y="0">n</tspan><tspan x="0" y="44.4">on the </tspan><tspan x="0" y="88.8">light!</tspan></text></g><path class="cls-5" d="M58.18,132.64a22.34,22.34,0,0,1-9.78,18.62,27.41,27.41,0,0,1-11.11,4.15,31.54,31.54,0,0,1-6.14.26,17.08,17.08,0,0,1-5.55-.95c-1.07-.44-2-1.23-1.7-2.2.36-1.14,1.85-1.36,3-1.23,3.46.38,6.48,3,8.18,5.91a12.64,12.64,0,0,1,1.66,8.67,15.65,15.65,0,0,1-5.43,8.57c-7.15,6.16-17.55,7.77-26.65,6.72a2.52,2.52,0,0,0-2.5,2.5,2.56,2.56,0,0,0,2.5,2.5c10.3,1.19,21.44-1.08,29.61-7.71a20.27,20.27,0,0,0,7.3-11.25,17.82,17.82,0,0,0-2.17-12.52c-2.35-4-6.43-7.42-11.1-8.21A8.65,8.65,0,0,0,21,148.14,6.52,6.52,0,0,0,19,154.52c1.37,5.17,7.88,6,12.32,6.16a34.74,34.74,0,0,0,15.17-2.76,27.53,27.53,0,0,0,16.65-25.28c0-3.21-5-3.22-5,0Z"/><path class="cls-5" d="M4.46,176.25l-3,5.37a11.27,11.27,0,0,0-1.36,2.79,3.67,3.67,0,0,0,1.27,3.64,33.65,33.65,0,0,0,5.3,3.09l5.6,3.09a2.5,2.5,0,1,0,2.53-4.31l-9.43-5.2c-.15-.09-.3-.16-.44-.25s-.53-.37-.28-.15.12.09,0,0-.11-.08.11.24.44.91.12,1.16a4.09,4.09,0,0,0,.59-1.07l.63-1.12,2.67-4.75a2.5,2.5,0,1,0-4.32-2.52Z"/></g></g></svg>