<?xml version="1.0" encoding="utf-8"?>
<!-- Generator: Adobe Illustrator 23.1.1, SVG Export Plug-In . SVG Version: 6.00 Build 0)  -->
<svg version="1.1" id="Layer_1" xmlns="http://www.w3.org/2000/svg" xmlns:xlink="http://www.w3.org/1999/xlink" x="0px" y="0px"
	 viewBox="0 0 595.28 841.89" style="enable-background:new 0 0 595.28 841.89;" xml:space="preserve">
<style type="text/css">
	.st0{fill:#3F3C98;}
	.st1{fill:#291D5E;}
	.st2{fill:#726AA1;}
	.st3{fill:#8580B7;}
	.st4{fill:#8B9E62;}
	.st5{fill:#8B9E61;}
	.st6{fill:#262262;}
</style>
<g>
	<path class="st0" d="M268.48,475.85c-1.06-2.17-0.21-4.98,1.4-6.7c1.61-1.72,3.82-2.58,5.97-3.32c5.53-1.93,11.59-3.43,17.05-1.31
		c6.3,2.45,10.58,9.98,9.78,17.22c-1.04,9.43-9.12,15.8-16.66,20.57c-7.54,4.77-15.94,10.02-18.55,19.08
		c-0.53-4.81-0.96-10.13,1.64-14.07c2.1-3.19,5.69-4.68,8.78-6.69c8.45-5.51,13.83-16.21,13.54-26.93c-0.02-0.73-0.08-1.52-0.5-2.1
		c-0.45-0.62-1.21-0.85-1.92-1.01c-7.81-1.71-16.38,1.78-21.24,8.64"/>
	<g>
		<path class="st1" d="M270.64,474.58c-0.46-1.05,0.1-2.48,0.73-3.34c0.91-1.24,2.43-1.99,3.82-2.53c3.46-1.36,7.25-2.55,10.99-2.72
			c3.27-0.14,6.56,0.6,9.06,2.81c2.27,2,3.83,4.64,4.58,7.56c1.58,6.11-1.22,11.96-5.43,16.29c-4.45,4.58-10.06,7.56-15.27,11.15
			c-6.19,4.27-11.85,9.49-14.06,16.91c1.64,0.22,3.27,0.44,4.91,0.66c-0.32-2.95-0.74-6.13-0.15-9.08c0.57-2.83,2.01-4.9,4.41-6.51
			c2.5-1.68,5.16-3.03,7.52-4.93c2.32-1.87,4.29-4.11,5.99-6.55c3.51-5.03,5.55-11.02,6.08-17.1c0.26-2.95,0.59-6.85-2.49-8.46
			c-2.49-1.3-6.06-1.28-8.79-0.95c-6.89,0.83-12.89,4.56-16.94,10.15c-0.79,1.09-0.19,2.79,0.9,3.42c1.26,0.74,2.63,0.2,3.42-0.9
			c2.9-4.02,7.35-6.72,12.21-7.6c1.08-0.2,2.19-0.25,3.29-0.22c0.6,0.01,1.21,0.05,1.8,0.13c0.15,0.02,1.79,0.45,1.84,0.4
			c0.02,0.02,0.05,0.04,0.07,0.06c-0.31-0.48-0.38-0.48-0.21,0c-0.02,0.1,0.02,0.53,0.01,0.44c0.04,0.65,0.01,1.31-0.01,1.96
			c-0.05,1.34-0.18,2.68-0.43,4c-0.95,5.11-3.13,10.08-6.52,14.04c-1.65,1.92-3.52,3.62-5.66,4.98c-2.34,1.49-4.82,2.74-6.93,4.58
			c-5.27,4.61-5.11,11.75-4.41,18.13c0.3,2.68,4.06,3.54,4.91,0.66c2-6.72,7.66-11.22,13.28-14.95c6.01-3.98,12.39-7.62,16.92-13.38
			c4.71-6,6.73-13.84,3.74-21.11c-1.46-3.54-3.76-6.62-6.93-8.81c-3.42-2.36-7.75-3.12-11.83-2.73c-2.56,0.24-5.06,0.8-7.51,1.55
			c-2.26,0.7-4.62,1.44-6.69,2.62c-4.21,2.41-6.59,7.23-4.55,11.86c0.54,1.24,2.35,1.52,3.42,0.9
			C271.02,477.26,271.19,475.82,270.64,474.58L270.64,474.58z"/>
	</g>
</g>
<g>
	<path class="st2" d="M172.54,450.36c-3.85,18.5-5.48,37.55-4.84,56.51c0.28,8.44,1.04,16.98,3.81,24.87s7.77,15.12,14.75,18.79
		c4.77,2.51,10.13,3.23,15.39,3.91c18.42,2.4,38.6,4.37,54.08-6.77c3.71-2.67,7.06-6.11,9.02-10.45c2.06-4.55,2.47-9.74,2.73-14.81
		c1.08-20.99,0.19-42.09-2.65-62.88"/>
	<g>
		<path class="st1" d="M170.13,449.7c-3.98,19.23-5.67,38.96-4.88,58.58c0.38,9.41,1.46,18.93,5.24,27.64
			c3.1,7.14,8.31,13.9,15.5,17.27c4.19,1.96,8.68,2.81,13.23,3.43c4.15,0.56,8.32,1.09,12.49,1.5c8.22,0.8,16.5,1.05,24.69-0.22
			c8.11-1.25,15.88-4.3,22.34-9.41c3.22-2.55,6.08-5.74,7.9-9.46c2.06-4.22,2.78-8.84,3.14-13.48c1.49-19.64,0.66-39.64-1.6-59.19
			c-0.29-2.5-0.61-5-0.95-7.5c-0.18-1.34-1.9-2.07-3.08-1.75c-1.44,0.4-1.93,1.73-1.75,3.08c2.55,18.8,3.47,37.84,2.8,56.8
			c-0.28,8.06-0.09,17.16-5.57,23.7c-4.84,5.78-11.94,9.4-19.15,11.27c-7.45,1.93-15.22,2.08-22.87,1.62
			c-3.87-0.23-7.73-0.63-11.58-1.09c-4.02-0.49-8.1-0.91-12.05-1.83c-3.73-0.87-7.3-2.31-10.27-4.79c-2.78-2.32-5.02-5.16-6.82-8.28
			c-4.21-7.31-5.74-15.83-6.37-24.15c-1.38-18.46-0.14-37.3,3.08-55.51c0.41-2.31,0.85-4.61,1.33-6.9c0.27-1.32-0.38-2.7-1.75-3.08
			C171.97,447.61,170.41,448.37,170.13,449.7L170.13,449.7z"/>
	</g>
</g>
<g>
	<path class="st3" d="M244.56,435.21c-15.12,0.01-30.25,0.02-45.37,0.03c-7.97,0.01-16.5,0.19-23.06,5.13
		c-2.37,1.79-4.45,4.29-5.1,7.36c-1.36,6.37,3.76,12.24,9.07,15.3c5.25,3.02,11.08,4.68,16.9,5.96c14.55,3.19,29.52,4.12,44.31,2.76
		c5.08-0.47,10.26-1.24,14.76-3.84c4.5-2.6,8.24-7.36,8.59-12.9c0.35-5.61-2.84-10.91-6.99-14.24c-4.15-3.33-9.19-5.04-14.11-6.7"/>
	<g>
		<path class="st1" d="M244.56,432.71c-8.72,0.01-17.45,0.01-26.17,0.02c-8.26,0.01-16.58-0.24-24.83,0.1
			c-7.16,0.3-14.48,1.67-20.06,6.48c-2.8,2.41-4.71,5.68-5.11,9.37c-0.37,3.42,0.88,6.93,2.86,9.68c4.5,6.24,11.82,9.44,19.01,11.52
			c8.02,2.32,16.41,3.63,24.72,4.38c8.44,0.77,16.94,0.79,25.39,0.07c7.5-0.64,15.36-1.9,21.02-7.31
			c5.31-5.08,7.29-12.67,4.43-19.53c-2.99-7.16-9.41-11.3-16.39-14.01c-1.71-0.66-3.45-1.25-5.19-1.84
			c-3.06-1.03-4.37,3.8-1.33,4.82c5.95,2,12.48,4.2,16.36,9.48c3.58,4.87,3.96,11.04,0.12,15.89c-4.13,5.21-10.88,6.7-17.18,7.33
			c-7.67,0.77-15.42,0.89-23.12,0.41c-7.65-0.48-15.25-1.57-22.71-3.29c-6.38-1.47-13.53-3.41-18.48-7.94
			c-2.07-1.89-3.82-4.2-4.42-6.99c-0.56-2.62,0.44-5.25,2.21-7.19c4.19-4.6,10.72-5.92,16.67-6.27c8.4-0.49,16.89-0.16,25.3-0.16
			c8.97-0.01,17.95-0.01,26.92-0.02C247.77,437.71,247.78,432.71,244.56,432.71L244.56,432.71z"/>
	</g>
</g>
<g>
	<path class="st4" d="M173.96,448.82c10.11,2.31,20.31-3.1,30.67-3.71c6.33-0.37,12.67,1.06,19.01,0.68
		c5.14-0.31,10.37-1.79,15.34-0.47c3.42,0.91,6.41,3.09,9.87,3.83c2.68,0.58,5.49,0.26,8.16,0.85c2.67,0.59,5.4,2.59,5.39,5.3
		c-0.01,1.91-1.36,3.54-2.79,4.83c-9.26,8.4-23.04,9.19-35.59,9.01c-15.35-0.22-31.51-1.46-44.27-9.91
		c-3.82-2.53-7.58-7.13-5.52-11.2"/>
	<g>
		<path class="st5" d="M173.3,451.23c6.52,1.42,13.01,0.1,19.38-1.42c3.09-0.74,6.18-1.52,9.33-1.96c3.46-0.48,6.95-0.32,10.42-0.05
			c3.57,0.28,7.14,0.67,10.72,0.51c3.46-0.16,6.86-0.89,10.32-1.01c3.21-0.12,5.9,0.63,8.78,1.98c3.06,1.43,5.91,2.49,9.31,2.72
			c2.51,0.17,5.71-0.11,7.63,1.86c1.77,1.82-0.47,3.77-1.92,5.02c-4.14,3.55-9.41,5.46-14.69,6.53c-5.58,1.13-11.32,1.29-17,1.25
			c-6.08-0.04-12.17-0.25-18.21-0.93c-6.56-0.75-13.21-2.15-19.27-4.8c-2.91-1.27-6.04-2.79-8.46-4.88
			c-1.69-1.46-4.41-4.25-3.25-6.74c0.57-1.22,0.35-2.69-0.9-3.42c-1.08-0.63-2.85-0.33-3.42,0.9c-3.2,6.9,3.08,12.74,8.54,15.94
			c5.67,3.32,11.99,5.45,18.41,6.74c6.7,1.35,13.56,1.88,20.38,2.09c6.26,0.2,12.58,0.28,18.82-0.44
			c6.28-0.72,12.57-2.19,18.06-5.43c2.68-1.58,5.4-3.57,7.2-6.14c1.98-2.82,1.8-6.41-0.52-8.96c-2.35-2.59-5.78-3.25-9.11-3.45
			c-1.59-0.1-3.19-0.09-4.75-0.47c-1.72-0.43-3.3-1.22-4.9-1.96c-3.31-1.53-6.57-2.48-10.26-2.4c-3.78,0.07-7.49,0.93-11.27,1.05
			c-4.4,0.14-8.77-0.5-13.16-0.72c-4.08-0.2-8.08,0.19-12.08,0.99c-7.43,1.5-15.14,4.46-22.8,2.8
			C171.49,445.73,170.15,450.55,173.3,451.23L173.3,451.23z"/>
	</g>
</g>
<g>
	<g>
		<path class="st6" d="M188.37,522.33c3.57-4.14,7.76-7.58,12.58-10.17c-1.22-0.94-2.45-1.88-3.67-2.82
			c-1.37,7.86-2.73,15.72-4.1,23.57c-0.29,1.65,1.12,3.85,3.08,3.08c4.96-1.98,9.75-4.33,14.32-7.12c2.74-1.67,0.23-6-2.52-4.32
			c-4.19,2.55-8.56,4.8-13.12,6.61c1.03,1.03,2.05,2.05,3.08,3.08c1.37-7.86,2.73-15.72,4.1-23.57c0.37-2.12-1.64-3.92-3.67-2.82
			c-5.16,2.77-9.77,6.52-13.59,10.95c-0.88,1.02-1,2.53,0,3.54C185.74,523.24,187.48,523.36,188.37,522.33L188.37,522.33z"/>
	</g>
</g>
<g>
	<g>
		<path class="st6" d="M192.7,526.62c1.74,0.28,3.46,0.26,5.17-0.23c1.7-0.5,3.2-1.37,4.53-2.53c0.46-0.4,0.73-1.17,0.73-1.77
			c0-0.61-0.27-1.35-0.73-1.77c-1.06-0.97-2.48-0.92-3.54,0c-0.15,0.13-0.3,0.26-0.46,0.38c0.17-0.13,0.34-0.26,0.51-0.39
			c-0.63,0.48-1.31,0.87-2.04,1.18c0.2-0.08,0.4-0.17,0.6-0.25c-0.72,0.29-1.47,0.5-2.24,0.61c0.22-0.03,0.44-0.06,0.66-0.09
			c-0.73,0.09-1.46,0.1-2.19,0.01c0.22,0.03,0.44,0.06,0.66,0.09c-0.11-0.02-0.23-0.03-0.34-0.05c-0.68-0.11-1.31-0.11-1.93,0.25
			c-0.52,0.3-1.01,0.9-1.15,1.49c-0.15,0.64-0.11,1.36,0.25,1.93C191.54,525.98,192.08,526.52,192.7,526.62L192.7,526.62z"/>
	</g>
</g>
<g>
	<g>
		<path class="st6" d="M211.17,513.72c0.71-0.47,1.43-0.93,2.15-1.38c0.41-0.25,0.82-0.49,1.24-0.73c0.17-0.1,0.41-0.18,0.55-0.31
			c0.17-0.08,0.19-0.1,0.06-0.06c-0.38,0.13-0.72-0.05-1.02-0.55c-0.6-0.04-0.92-0.27-0.96-0.68c-0.02-0.15-0.02-0.14-0.01,0
			c-0.04,0.18,0,0.42,0.01,0.6c0,0.44,0.01,0.87,0.01,1.31c0.01,0.93,0.01,1.85,0.02,2.78c0.02,3.6,0.05,7.19,0.07,10.79
			c0.01,1.95,2.1,3.04,3.76,2.16c3.44-1.82,6.64-4,9.67-6.43c1.05-0.85,0.88-2.65,0-3.54c-1.04-1.04-2.48-0.85-3.54,0
			c-2.62,2.11-5.61,4.04-8.66,5.65c1.25,0.72,2.51,1.44,3.76,2.16c-0.03-4.47-0.06-8.93-0.09-13.4c-0.01-1.07,0.11-2.26-0.16-3.3
			c-0.39-1.46-1.62-2.47-3.14-2.52c-1.24-0.04-2.39,0.74-3.42,1.34c-0.96,0.57-1.91,1.16-2.84,1.78c-1.12,0.75-1.61,2.21-0.9,3.42
			C208.4,513.93,210.05,514.47,211.17,513.72L211.17,513.72z"/>
	</g>
</g>
<g>
	<g>
		<path class="st6" d="M212.81,520.43c0.56,0.02,1.15-0.06,1.69-0.22c0.36-0.11,0.72-0.27,1.06-0.43c0.17-0.08,0.33-0.17,0.48-0.27
			c0.47-0.31,0.94-0.67,1.3-1.1c0.37-0.44,0.73-0.9,0.97-1.43c0.18-0.29,0.28-0.6,0.3-0.93c0.07-0.33,0.06-0.66-0.04-1
			c-0.08-0.33-0.23-0.61-0.45-0.85c-0.18-0.27-0.41-0.49-0.7-0.64c-0.58-0.31-1.28-0.46-1.93-0.25c-0.2,0.08-0.4,0.17-0.6,0.25
			c-0.38,0.22-0.67,0.52-0.9,0.9c-0.13,0.29-0.29,0.56-0.48,0.81c0.13-0.17,0.26-0.34,0.39-0.51c-0.19,0.24-0.41,0.46-0.65,0.66
			c0.17-0.13,0.34-0.26,0.51-0.39c-0.25,0.2-0.53,0.36-0.82,0.48c0.2-0.08,0.4-0.17,0.6-0.25c-0.26,0.11-0.53,0.19-0.82,0.23
			c0.22-0.03,0.44-0.06,0.66-0.09c-0.19,0.03-0.37,0.03-0.56,0.03c-0.34-0.01-0.67,0.06-0.96,0.22c-0.31,0.1-0.58,0.27-0.8,0.52
			c-0.24,0.23-0.42,0.49-0.52,0.8c-0.16,0.3-0.23,0.62-0.22,0.96c0.03,0.65,0.24,1.32,0.73,1.77
			C211.54,520.16,212.12,520.41,212.81,520.43L212.81,520.43z"/>
	</g>
</g>
<g>
	<g>
		<path class="st6" d="M225.78,505.14c0.15-0.22,0.29-0.44,0.45-0.65c-0.19,0.25,0.11-0.13,0.17-0.21c0.3-0.35,0.62-0.69,0.96-1
			c0.15-0.14,0.31-0.27,0.46-0.41c0.2-0.16-0.19,0.11,0.17-0.12c0.4-0.26,0.79-0.51,1.22-0.72c-1.25-0.72-2.51-1.44-3.76-2.16
			c0.01,3.12,0.02,6.24,0.02,9.36c0,1.49-0.03,2.98,0.01,4.47c0.05,1.87,0.7,3.83,2.67,4.44c2.73,0.85,5.46-1.72,7.25-3.47
			c1.97-1.92,3.62-4.21,4.91-6.63c0.62-1.15,0.33-2.77-0.9-3.42c-1.16-0.61-2.76-0.33-3.42,0.9c-0.53,1-1.12,1.97-1.77,2.89
			c-0.15,0.21-0.3,0.42-0.45,0.62c0.23-0.3-0.26,0.32-0.31,0.38c-0.34,0.41-0.7,0.82-1.07,1.2c-0.34,0.35-0.68,0.69-1.04,1.02
			c-0.21,0.19-0.42,0.37-0.63,0.55c-0.07,0.06-0.7,0.55-0.33,0.27c-0.36,0.27-0.73,0.54-1.12,0.78c-0.12,0.07-0.23,0.13-0.35,0.19
			c0.08-0.04,0.15-0.07,0.23-0.11c-0.28,0.07-0.25,0.07,0.11,0c0.32-0.02,0.58,0.11,0.78,0.38c0.3,0.09,0.47,0.27,0.52,0.54
			c-0.06-0.26-0.07-0.3-0.05-0.13c0.02,0.18,0.02,0.12,0-0.15c-0.01-0.16-0.01-0.33-0.01-0.49c-0.01-0.6,0-1.21,0-1.81
			c0-1.31-0.01-2.62-0.01-3.93c-0.01-2.62-0.01-5.24-0.02-7.85c-0.01-1.97-2.1-3.01-3.76-2.16c-2.17,1.11-3.89,2.89-5.23,4.91
			c-0.72,1.09-0.25,2.81,0.9,3.42C223.61,506.7,225.01,506.31,225.78,505.14L225.78,505.14z"/>
	</g>
</g>
<g>
	<g>
		<path class="st6" d="M227.19,512.18c1.31-1.05,2.61-2.09,3.92-3.14c0.24-0.23,0.42-0.49,0.52-0.8c0.16-0.3,0.23-0.62,0.22-0.96
			c0-0.61-0.27-1.35-0.73-1.77c-0.48-0.44-1.1-0.76-1.77-0.73c-0.22,0.03-0.44,0.06-0.66,0.09c-0.42,0.12-0.79,0.33-1.1,0.64
			c-1.31,1.05-2.61,2.09-3.92,3.14c-0.24,0.23-0.42,0.49-0.52,0.8c-0.16,0.3-0.23,0.62-0.22,0.96c0,0.61,0.27,1.35,0.73,1.77
			c0.48,0.44,1.1,0.76,1.77,0.73c0.22-0.03,0.44-0.06,0.66-0.09C226.51,512.7,226.87,512.49,227.19,512.18L227.19,512.18z"/>
	</g>
</g>
<g>
	<g>
		<path class="st6" d="M251.95,498.32c3.22,0,3.22-5,0-5C248.74,493.32,248.73,498.32,251.95,498.32L251.95,498.32z"/>
	</g>
</g>
<g>
	<g>
		<path class="st6" d="M243.36,505.83c3.22,0,3.22-5,0-5C240.14,500.83,240.13,505.83,243.36,505.83L243.36,505.83z"/>
	</g>
</g>
<g>
	<g>
		<path class="st6" d="M247.79,502.37c3.22,0,3.22-5,0-5C244.57,497.37,244.57,502.37,247.79,502.37L247.79,502.37z"/>
	</g>
</g>
</svg>
