<svg xmlns="http://www.w3.org/2000/svg" viewBox="0 0 140.17 127.29"><defs><style>.cls-1{fill:#3f3c98;}.cls-2{fill:#291d5e;}.cls-3{fill:#726aa1;}.cls-4{fill:#8580b7;}.cls-5{fill:#8b9e62;}.cls-6{fill:#8b9e61;}.cls-7{fill:#262262;}</style></defs><title>mug</title><g id="Layer_2" data-name="Layer 2"><g id="Layer_1-2" data-name="Layer 1"><path class="cls-1" d="M103.42,44.35c-1.06-2.17-.21-5,1.4-6.7a14.11,14.11,0,0,1,6-3.32c5.53-1.93,11.59-3.43,17-1.31,6.3,2.45,10.58,10,9.78,17.22-1,9.43-9.12,15.8-16.66,20.57s-15.94,10-18.55,19.08c-.53-4.81-1-10.13,1.64-14.07,2.1-3.19,5.69-4.68,8.78-6.69,8.45-5.51,13.83-16.21,13.54-26.93a3.74,3.74,0,0,0-.5-2.1,3.07,3.07,0,0,0-1.92-1c-7.81-1.71-16.38,1.78-21.24,8.64"/><path class="cls-2" d="M105.58,43.08a3.73,3.73,0,0,1,.73-3.34,8.4,8.4,0,0,1,3.82-2.53,35.18,35.18,0,0,1,11-2.72,12.59,12.59,0,0,1,9.06,2.81,15,15,0,0,1,4.58,7.56c1.58,6.11-1.22,12-5.43,16.29-4.45,4.58-10.06,7.56-15.27,11.15-6.19,4.27-11.85,9.49-14.06,16.91l4.91.66c-.32-3-.74-6.13-.15-9.08a9.78,9.78,0,0,1,4.41-6.51c2.5-1.68,5.16-3,7.52-4.93a31.34,31.34,0,0,0,6-6.55,35.34,35.34,0,0,0,6.08-17.1c.26-3,.59-6.85-2.49-8.46-2.49-1.3-6.06-1.28-8.79-1a24.49,24.49,0,0,0-16.94,10.15,2.52,2.52,0,0,0,.9,3.42,2.55,2.55,0,0,0,3.42-.9,19.32,19.32,0,0,1,12.21-7.6,15.74,15.74,0,0,1,3.29-.22,15.4,15.4,0,0,1,1.8.13c.15,0,1.79.45,1.84.4l.07.06q-.46-.72-.21,0a4,4,0,0,0,0,.44c0,.65,0,1.31,0,2a26.88,26.88,0,0,1-.43,4,30.12,30.12,0,0,1-6.52,14,25.6,25.6,0,0,1-5.66,5,55,55,0,0,0-6.93,4.58c-5.27,4.61-5.11,11.75-4.41,18.13.3,2.68,4.06,3.54,4.91.66,2-6.72,7.66-11.22,13.28-15,6-4,12.39-7.62,16.92-13.38,4.71-6,6.73-13.84,3.74-21.11a19.63,19.63,0,0,0-6.93-8.81A17.9,17.9,0,0,0,120,29.54a37.67,37.67,0,0,0-7.51,1.55,33.43,33.43,0,0,0-6.69,2.62c-4.21,2.41-6.59,7.23-4.55,11.86a2.5,2.5,0,0,0,4.33-2.49Z"/><path class="cls-3" d="M7.48,18.86A238.45,238.45,0,0,0,2.64,75.37c.28,8.44,1,17,3.81,24.87S14.22,115.36,21.2,119c4.77,2.51,10.13,3.23,15.39,3.91,18.42,2.4,38.6,4.37,54.08-6.77a26.74,26.74,0,0,0,9-10.45c2.06-4.55,2.47-9.74,2.73-14.81A337.12,337.12,0,0,0,99.77,28"/><path class="cls-2" d="M5.07,18.2A241.56,241.56,0,0,0,.19,76.78c.38,9.41,1.46,18.93,5.24,27.64,3.1,7.14,8.31,13.9,15.5,17.27a45.14,45.14,0,0,0,13.23,3.43c4.15.56,8.32,1.09,12.49,1.5a98.55,98.55,0,0,0,24.69-.22A47.45,47.45,0,0,0,93.68,117a28.09,28.09,0,0,0,7.9-9.46c2.06-4.22,2.78-8.84,3.14-13.48a312.26,312.26,0,0,0-1.6-59.19q-.44-3.75-1-7.5c-.18-1.34-1.9-2.07-3.08-1.75a2.58,2.58,0,0,0-1.75,3.08,335,335,0,0,1,2.8,56.8c-.28,8.06-.09,17.16-5.57,23.7-4.84,5.78-11.94,9.4-19.15,11.27-7.45,1.93-15.22,2.08-22.87,1.62-3.87-.23-7.73-.63-11.58-1.09a113.75,113.75,0,0,1-12-1.83,24.38,24.38,0,0,1-10.27-4.79,30.56,30.56,0,0,1-6.82-8.28C7.62,98.78,6.09,90.26,5.46,81.94A224.51,224.51,0,0,1,8.54,26.43q.62-3.46,1.33-6.9a2.57,2.57,0,0,0-1.75-3.08,2.51,2.51,0,0,0-3,1.75Z"/><path class="cls-4" d="M79.5,3.71l-45.37,0c-8,0-16.5.19-23.06,5.13A12.87,12.87,0,0,0,6,16.23C4.61,22.6,9.73,28.47,15,31.53s11.08,4.68,16.9,6a145.06,145.06,0,0,0,44.31,2.76C81.33,39.78,86.51,39,91,36.41s8.24-7.36,8.59-12.9-2.84-10.91-7-14.24-9.19-5-14.11-6.7"/><path class="cls-2" d="M79.5,1.21l-26.17,0c-8.26,0-16.58-.24-24.83.1C21.34,1.63,14,3,8.44,7.81a14.47,14.47,0,0,0-5.11,9.37,14.36,14.36,0,0,0,2.86,9.68c4.5,6.24,11.82,9.44,19,11.52a131.89,131.89,0,0,0,24.72,4.38,144.5,144.5,0,0,0,25.39.07c7.5-.64,15.36-1.9,21-7.31A17.56,17.56,0,0,0,100.76,16c-3-7.16-9.41-11.3-16.39-14C82.66,1.32,80.92.73,79.18.14c-3.06-1-4.37,3.8-1.33,4.82,6,2,12.48,4.2,16.36,9.48,3.58,4.87,4,11,.12,15.89C90.2,35.54,83.45,37,77.15,37.66A142.78,142.78,0,0,1,54,38.07a140.16,140.16,0,0,1-22.71-3.29c-6.38-1.47-13.53-3.41-18.48-7.94a13.55,13.55,0,0,1-4.42-7,8.23,8.23,0,0,1,2.21-7.19c4.19-4.6,10.72-5.92,16.67-6.27,8.4-.49,16.89-.16,25.3-.16l26.92,0c3.19,0,3.2-5,0-5Z"/><path class="cls-5" d="M8.9,17.32c10.11,2.31,20.31-3.1,30.67-3.71,6.33-.37,12.67,1.06,19,.68C63.72,14,69,12.5,73.92,13.82c3.42.91,6.41,3.09,9.87,3.83,2.68.58,5.49.26,8.16.85s5.4,2.59,5.39,5.3c0,1.91-1.36,3.54-2.79,4.83-9.26,8.4-23,9.19-35.59,9-15.35-.22-31.51-1.46-44.27-9.91-3.82-2.53-7.58-7.13-5.52-11.2"/><path class="cls-6" d="M8.24,19.73c6.52,1.42,13,.1,19.38-1.42,3.09-.74,6.18-1.52,9.33-2a48.4,48.4,0,0,1,10.42-.05,87.34,87.34,0,0,0,10.72.51c3.46-.16,6.86-.89,10.32-1a18.21,18.21,0,0,1,8.78,2A25.38,25.38,0,0,0,86.5,20.5c2.51.17,5.71-.11,7.63,1.86s-.47,3.77-1.92,5c-4.14,3.55-9.41,5.46-14.69,6.53a82.71,82.71,0,0,1-17,1.25,173,173,0,0,1-18.21-.93A67.28,67.28,0,0,1,23,29.43a33.47,33.47,0,0,1-8.46-4.88c-1.69-1.46-4.41-4.25-3.25-6.74a2.57,2.57,0,0,0-.9-3.42,2.52,2.52,0,0,0-3.42.9c-3.2,6.9,3.08,12.74,8.54,15.94A59.61,59.61,0,0,0,34,38a122.26,122.26,0,0,0,20.38,2.09,128.54,128.54,0,0,0,18.82-.44c6.28-.72,12.57-2.19,18.06-5.43a22.79,22.79,0,0,0,7.2-6.14,7,7,0,0,0-.52-9c-2.35-2.59-5.78-3.25-9.11-3.45A27,27,0,0,1,84,15.17a28,28,0,0,1-4.9-2,22.68,22.68,0,0,0-10.26-2.4c-3.78.07-7.49.93-11.27,1-4.4.14-8.77-.5-13.16-.72a49,49,0,0,0-12.08,1c-7.43,1.5-15.14,4.46-22.8,2.8-3.14-.7-4.48,4.12-1.33,4.8Z"/><path class="cls-7" d="M23.31,90.83A44.18,44.18,0,0,1,35.89,80.66l-3.67-2.82q-2.05,11.79-4.1,23.57c-.29,1.65,1.12,3.85,3.08,3.08a95,95,0,0,0,14.32-7.12c2.74-1.67.23-6-2.52-4.32a87.11,87.11,0,0,1-13.12,6.61L33,102.74Q35,90.95,37.06,79.17a2.53,2.53,0,0,0-3.67-2.82,48,48,0,0,0-13.59,11,2.57,2.57,0,0,0,0,3.54,2.49,2.49,0,0,0,3.51,0Z"/><path class="cls-7" d="M27.64,95.12a11.73,11.73,0,0,0,5.17-.23,12,12,0,0,0,4.53-2.53,2.51,2.51,0,0,0,0-3.54,2.56,2.56,0,0,0-3.54,0c-.15.13-.3.26-.46.38l.51-.39a9.42,9.42,0,0,1-2,1.18l.6-.25a9.65,9.65,0,0,1-2.24.61l.66-.09a8.92,8.92,0,0,1-2.19,0l.66.09-.34,0a2.75,2.75,0,0,0-1.93.25,2.49,2.49,0,0,0,.61,4.56Z"/><path class="cls-7" d="M46.11,82.22c.71-.47,1.43-.93,2.15-1.38l1.24-.73a3.26,3.26,0,0,0,.55-.31q.26-.12.06-.06c-.38.13-.72,0-1-.55-.6,0-.92-.27-1-.68,0-.15,0-.14,0,0a2.41,2.41,0,0,0,0,.6c0,.44,0,.87,0,1.31,0,.93,0,1.85,0,2.78,0,3.6.05,7.19.07,10.79A2.53,2.53,0,0,0,52,96.15a61.3,61.3,0,0,0,9.67-6.43,2.53,2.53,0,0,0,0-3.54,2.56,2.56,0,0,0-3.54,0,54.64,54.64,0,0,1-8.66,5.65L53.22,94l-.09-13.4a14,14,0,0,0-.16-3.3,3.33,3.33,0,0,0-3.14-2.52,6.81,6.81,0,0,0-3.42,1.34c-1,.57-1.91,1.16-2.84,1.78a2.51,2.51,0,0,0,2.54,4.33Z"/><path class="cls-7" d="M47.75,88.93a5.38,5.38,0,0,0,1.69-.22,8.11,8.11,0,0,0,1.06-.43A3.72,3.72,0,0,0,51,88a6,6,0,0,0,1.3-1.1,6.32,6.32,0,0,0,1-1.43,2,2,0,0,0,.3-.93,2,2,0,0,0,0-1,2.8,2.8,0,0,0-1.15-1.49,2.5,2.5,0,0,0-1.93-.25l-.6.25a2.5,2.5,0,0,0-.9.9,4.12,4.12,0,0,1-.48.81l.39-.51a4.5,4.5,0,0,1-.65.66l.51-.39a3.39,3.39,0,0,1-.82.48l.6-.25a3.22,3.22,0,0,1-.82.23l.66-.09a3.51,3.51,0,0,1-.56,0,1.86,1.86,0,0,0-1,.22,1.77,1.77,0,0,0-.8.52,1.92,1.92,0,0,0-.52.8,1.88,1.88,0,0,0-.22,1A2.53,2.53,0,0,0,46,88.2a2.6,2.6,0,0,0,1.76.73Z"/><path class="cls-7" d="M60.72,73.64c.15-.22.29-.44.45-.65-.19.25.11-.13.17-.21a11.34,11.34,0,0,1,1-1l.46-.41c.2-.16-.19.11.17-.12a11.48,11.48,0,0,1,1.22-.72l-3.76-2.16q0,4.68,0,9.36c0,1.49,0,3,0,4.47,0,1.87.7,3.83,2.67,4.44,2.73.85,5.46-1.72,7.25-3.47a27,27,0,0,0,4.91-6.63A2.5,2.5,0,1,0,70.93,74a26.59,26.59,0,0,1-1.77,2.89l-.45.62c.23-.3-.26.32-.31.38-.34.41-.7.82-1.07,1.2s-.68.69-1,1l-.63.55c-.07.06-.7.55-.33.27-.36.27-.73.54-1.12.78l-.35.19.23-.11c-.28.07-.25.07.11,0a.86.86,0,0,1,.78.38.67.67,0,0,1,.52.54c-.06-.26-.07-.3,0-.13s0,.12,0-.15,0-.33,0-.49c0-.6,0-1.21,0-1.81,0-1.31,0-2.62,0-3.93,0-2.62,0-5.24,0-7.85a2.53,2.53,0,0,0-3.76-2.16,14.16,14.16,0,0,0-5.23,4.91,2.49,2.49,0,1,0,4.3,2.52Z"/><path class="cls-7" d="M62.13,80.68l3.92-3.14a1.92,1.92,0,0,0,.52-.8,1.88,1.88,0,0,0,.22-1A2.55,2.55,0,0,0,66.06,74a2.51,2.51,0,0,0-1.77-.73l-.66.09a2.5,2.5,0,0,0-1.1.64l-3.92,3.14a1.92,1.92,0,0,0-.52.8,1.88,1.88,0,0,0-.22,1,2.55,2.55,0,0,0,.73,1.77,2.51,2.51,0,0,0,1.77.73l.66-.09a2.56,2.56,0,0,0,1.1-.64Z"/><path class="cls-7" d="M86.89,66.82c3.22,0,3.22-5,0-5s-3.22,5,0,5Z"/><path class="cls-7" d="M78.3,74.33c3.22,0,3.22-5,0-5s-3.23,5,0,5Z"/><path class="cls-7" d="M82.73,70.87c3.22,0,3.22-5,0-5s-3.22,5,0,5Z"/></g></g></svg>