<?xml version="1.0" encoding="utf-8"?>
<!-- Generator: Adobe Illustrator 23.1.1, SVG Export Plug-In . SVG Version: 6.00 Build 0)  -->
<svg version="1.1" id="Layer_1" xmlns="http://www.w3.org/2000/svg" xmlns:xlink="http://www.w3.org/1999/xlink" x="0px" y="0px"
	 viewBox="0 0 595.28 841.89" style="enable-background:new 0 0 595.28 841.89;" xml:space="preserve">
<style type="text/css">
	.st0{fill:#205027;}
	.st1{fill:url(#SVGID_1_);stroke:#414042;stroke-miterlimit:10;}
	.st2{fill:#1F562A;}
	.st3{fill:#1B6131;}
	.st4{fill:#1E411D;}
	.st5{opacity:0.71;}
	.st6{fill:#E6E7E8;}
	.st7{opacity:0.84;}
	.st8{fill:#FFFFFF;}
	.st9{fill:url(#SVGID_2_);}
	.st10{fill:none;stroke:url(#SVGID_3_);stroke-width:17;stroke-miterlimit:10;}
	.st11{fill:#FCF7B7;}
	.st12{fill:#FDF7B6;}
	.st13{opacity:0.86;}
	.st14{opacity:0.82;}
	.st15{opacity:0.73;}
	.st16{opacity:0.77;}
	.st17{fill:url(#SVGID_4_);}
	.st18{opacity:0.83;}
</style>
<g>
	<g>
		<path class="st0" d="M203.95,536.71c0.05,0.42,0.07,0.84,0.04,1.26c0.03-0.43-0.02,0.09-0.04,0.19c-0.05,0.2-0.11,0.4-0.17,0.59
			c-0.17,0.63,0.18-0.26-0.13,0.32c-0.08,0.15-0.15,0.3-0.24,0.45c-0.13,0.22-0.27,0.43-0.41,0.65c-0.04,0.07-0.23,0.33-0.08,0.12
			c-0.54,0.71-1.19,1.34-1.86,1.92c-0.75,0.66-1.12,0.92-2.01,1.54c-3.46,2.41-7.14,4.47-10.99,6.18c-1.23,0.55-1.52,2.35-0.9,3.42
			c0.74,1.27,2.18,1.45,3.42,0.9c4.19-1.87,8.24-4.14,11.94-6.86c3.36-2.47,6.99-6.12,6.41-10.69c-0.17-1.34-1.03-2.5-2.5-2.5
			C205.22,534.21,203.78,535.36,203.95,536.71L203.95,536.71z"/>
	</g>
</g>
<linearGradient id="SVGID_1_" gradientUnits="userSpaceOnUse" x1="655.7378" y1="421.0227" x2="654.7664" y2="421.0227">
	<stop  offset="0.2022" style="stop-color:#414042"/>
	<stop  offset="0.2068" style="stop-color:#414042"/>
	<stop  offset="0.6256" style="stop-color:#3F3E40"/>
	<stop  offset="0.7764" style="stop-color:#393839"/>
	<stop  offset="0.8839" style="stop-color:#2D2C2E"/>
	<stop  offset="0.9703" style="stop-color:#1D1C1D"/>
	<stop  offset="1" style="stop-color:#151515"/>
</linearGradient>
<circle class="st1" cx="297.18" cy="421.02" r="171.02"/>
<g>
	<path class="st2" d="M196.48,477.69c1.74,26.22-1.83,52.49-5.97,78.44c-0.16,1.03-0.29,2.19,0.36,3c0.57,0.71,1.55,0.9,2.45,1.04
		c14.14,2.25,28.27,4.51,42.41,6.76c-0.09-4.04-1.6-7.91-3.08-11.67c-7.68-19.45-15.36-38.89-23.04-58.34
		c-3.15-7.98-6.34-16.03-11.22-23.09"/>
	<g>
		<path class="st3" d="M193.98,477.69c1.12,17.13,0.01,34.32-2.06,51.34c-1.03,8.51-2.31,17-3.66,25.47
			c-0.29,1.85-0.75,3.89,0.27,5.62c1.01,1.71,2.79,2.26,4.63,2.55c4.27,0.69,8.55,1.36,12.82,2.04c9.7,1.55,19.4,3.09,29.09,4.64
			c1.52,0.24,3.23-0.64,3.16-2.41c-0.24-6.6-3.35-12.78-5.73-18.82c-2.53-6.41-5.06-12.81-7.59-19.22
			c-4.93-12.49-9.76-25.03-14.82-37.47c-2.66-6.54-5.54-13.01-9.55-18.85c-0.76-1.11-2.2-1.61-3.42-0.9c-1.1,0.64-1.66,2.3-0.9,3.42
			c3.41,4.98,6.05,10.42,8.36,15.99c2.49,5.99,4.8,12.05,7.18,18.08c4.88,12.35,9.75,24.69,14.63,37.04
			c1.39,3.53,2.8,7.06,4.18,10.59c1.27,3.26,2.53,6.6,2.65,10.13c1.05-0.8,2.11-1.61,3.16-2.41c-8.3-1.32-16.6-2.65-24.9-3.97
			c-4.11-0.66-8.22-1.31-12.33-1.97c-1.94-0.31-3.94-0.52-5.86-0.95c-0.19-0.04-0.56-0.08-0.67-0.22c0.02,0.03,0.22,0.26,0.25,0.12
			c0.16-0.79,0.19-1.65,0.31-2.45c2.59-16.37,4.93-32.82,5.84-49.38c0.51-9.33,0.55-18.69-0.06-28.03c-0.09-1.35-1.09-2.5-2.5-2.5
			C195.2,475.19,193.89,476.34,193.98,477.69L193.98,477.69z"/>
	</g>
</g>
<g>
	<path class="st2" d="M253.32,498.7c1.74,25.21-1.83,50.47-5.97,75.43c-0.16,0.99-0.29,2.11,0.36,2.88c0.57,0.68,1.55,0.86,2.45,1
		c14.14,2.17,28.27,4.33,42.41,6.5c-0.09-3.89-1.6-7.6-3.08-11.22c-7.68-18.7-15.36-37.4-23.04-56.1
		c-3.15-7.67-6.34-15.42-11.22-22.2"/>
	<g>
		<path class="st4" d="M250.82,498.7c1.13,16.71-0.03,33.47-2.15,50.06c-1.05,8.18-2.37,16.32-3.69,24.46
			c-0.32,2-0.48,4.12,1.08,5.68c1.32,1.32,3.17,1.49,4.92,1.75c4.19,0.64,8.38,1.29,12.57,1.93c9.45,1.45,18.9,2.9,28.35,4.35
			c1.52,0.23,3.23-0.63,3.16-2.41c-0.24-6.3-3.28-12.14-5.63-17.86c-2.52-6.13-5.04-12.26-7.55-18.39
			c-4.97-12.11-9.86-24.27-14.94-36.33c-2.67-6.33-5.56-12.58-9.57-18.19c-0.78-1.1-2.18-1.62-3.42-0.9
			c-1.09,0.63-1.68,2.32-0.9,3.42c7.04,9.88,11.02,21.73,15.6,32.87c4.94,12.03,9.88,24.06,14.82,36.1
			c1.34,3.26,2.69,6.52,4.02,9.78c1.23,3.04,2.44,6.19,2.57,9.51c1.05-0.8,2.11-1.61,3.16-2.41c-8.05-1.23-16.11-2.47-24.16-3.7
			c-4.11-0.63-8.22-1.26-12.33-1.89c-1.81-0.28-3.62-0.55-5.42-0.83c-0.63-0.1-1.27-0.18-1.85-0.4c0.41,0.15,0.11,0.73,0.25-0.01
			c0.09-0.47,0.12-0.97,0.2-1.45c2.63-15.94,5.02-31.96,5.95-48.1c0.52-9,0.56-18.02-0.05-27.02c-0.09-1.35-1.08-2.5-2.5-2.5
			C252.03,496.2,250.72,497.35,250.82,498.7L250.82,498.7z"/>
	</g>
</g>
<g class="st5">
	<path class="st6" d="M306.69,502.09c22.36,0.04,44.72,0.09,67.08,0.13c5.48,0.01,10.96,0.02,16.42-0.44
		c4.76-0.4,9.94-1.4,12.84-4.79c2.9-3.39,1.33-9.65-3.43-10.03c-1.02-0.08-2.17,0.08-2.97-0.49c-0.64-0.45-0.84-1.22-1.05-1.92
		c-1.85-6.16-7.46-11.3-14.3-13.14c-5.7-1.53-11.82-0.85-17.72-0.15c-2.65,0.31-5.32,0.63-7.81,1.5c-1.68,0.59-3.25,1.42-4.98,1.86
		c-3.67,0.94-7.57,0.05-11.38-0.2c-3.81-0.26-8.24,0.43-10.19,3.36c-0.61,0.91-0.99,2.04-2.03,2.56c-0.79,0.4-1.77,0.33-2.67,0.23
		c-4.53-0.52-10.72-0.73-11.96,3.19c-0.3,0.96-0.19,2-0.6,2.93c-0.48,1.09-1.58,1.84-2.64,2.53c-3.36,2.21-6.73,4.41-10.09,6.62
		c-0.69,0.45-1.41,0.93-1.75,1.63c-0.75,1.52,0.71,3.32,2.48,3.8c1.78,0.48,3.69,0.04,5.48-0.4"/>
	<g>
		<path class="st6" d="M306.69,503.34c19.79,0.04,39.58,0.08,59.37,0.11c4.9,0.01,9.81,0.06,14.71-0.01
			c4.38-0.06,8.82-0.16,13.15-0.87c3.51-0.58,7.26-1.75,9.74-4.44c1.93-2.1,2.58-5.17,1.63-7.87c-1.03-2.94-3.45-4.48-6.49-4.58
			c-1.06-0.04-1.59-0.1-1.95-1.16c-0.29-0.86-0.57-1.71-0.94-2.54c-0.69-1.55-1.61-2.96-2.67-4.28c-5.24-6.52-13.41-8.72-21.48-8.43
			c-4.53,0.16-9.24,0.6-13.68,1.54c-2.25,0.48-4.25,1.44-6.4,2.2c-2.22,0.79-4.48,0.86-6.81,0.68c-4-0.3-8.04-1.13-11.98,0.1
			c-1.58,0.49-3.12,1.3-4.22,2.57c-0.51,0.59-0.86,1.26-1.27,1.92c-0.64,1.03-1.38,1.17-2.55,1.07c-3.15-0.26-6.48-0.72-9.55,0.33
			c-1.32,0.45-2.56,1.18-3.35,2.37c-1.04,1.56-0.51,3.74-1.9,5.04c-1.62,1.52-3.81,2.61-5.66,3.83c-2.01,1.32-4.04,2.61-6.03,3.95
			c-1.41,0.95-2.7,2.24-2.34,4.09c0.32,1.62,1.7,2.87,3.21,3.4c2.09,0.74,4.4,0.21,6.48-0.3c1.56-0.38,0.9-2.79-0.66-2.41
			c-1.82,0.45-4.49,1.22-6.03-0.29c-1.64-1.6,1.48-2.91,2.6-3.64c1.82-1.19,3.63-2.38,5.45-3.57c1.62-1.06,3.51-2.03,4.89-3.42
			c0.54-0.55,0.98-1.18,1.22-1.91c0.31-0.91,0.22-1.93,0.56-2.83c0.45-1.19,1.63-1.75,2.79-2.06c2.97-0.79,5.92-0.08,8.91-0.03
			c1.77,0.03,3.08-0.73,4.03-2.2c0.87-1.36,1.56-2.41,3.09-3.11c3.33-1.53,7.2-0.89,10.7-0.53c2.05,0.21,4.1,0.36,6.14,0.08
			c2.07-0.28,3.89-1.11,5.81-1.86c4.01-1.57,8.51-1.86,12.76-2.25c7.74-0.71,15.76-0.15,21.67,5.47c1.21,1.16,2.28,2.45,3.14,3.89
			c0.81,1.37,1.25,2.78,1.8,4.26c0.63,1.67,1.87,2.4,3.62,2.52c1.38,0.09,2.58,0.08,3.63,1.11c1.68,1.65,1.83,4.63,0.51,6.53
			c-1.89,2.73-5.63,3.75-8.71,4.3c-3.98,0.7-8.11,0.77-12.14,0.84c-4.48,0.08-8.97,0.03-13.45,0.02
			c-18.22-0.03-36.44-0.07-54.65-0.1c-2.24,0-4.47-0.01-6.71-0.01C305.08,500.84,305.08,503.34,306.69,503.34L306.69,503.34z"/>
	</g>
</g>
<g class="st7">
	<path class="st8" d="M245.06,299.77c-0.13-4.64,5.07-7.97,9.69-7.65c4.63,0.32,8.66,3.13,12.42,5.84
		c2.18-7.21,8.37-13.06,15.69-14.83c7.32-1.77,15.5,0.62,20.73,6.04c3.07-1.3,6.28-2.62,9.61-2.44c3.33,0.18,6.81,2.34,7.33,5.64
		c0.21,1.32-0.06,2.72,0.39,3.99c0.36,1.01,1.15,1.83,1.5,2.85c1.08,3.1-2.38,6.06-5.64,6.47c-3.26,0.41-6.61-0.58-9.83,0.05
		c-2.17,0.42-4.14,1.55-6.21,2.32c-5.11,1.9-11,1.59-15.87-0.86c-1.41-0.71-2.74-1.58-4.24-2.07c-2.22-0.73-4.63-0.54-6.96-0.35
		c-13.73,1.13-27.46,2.25-41.18,3.38c0.85-5.46,6.56-9.67,12.03-8.86"/>
	<g>
		<path class="st8" d="M246.31,299.77c0-3.87,4.09-6.34,7.61-6.42c4.74-0.1,8.96,3.05,12.62,5.69c0.68,0.49,1.62-0.04,1.84-0.75
			c2.07-6.63,7.57-12.01,14.29-13.82c7.09-1.91,14.93,0.38,20.04,5.59c0.28,0.29,0.82,0.49,1.22,0.32c3.37-1.42,7.29-3.18,11-2.08
			c1.43,0.42,2.83,1.27,3.67,2.53c1.07,1.59,0.59,3.44,0.95,5.22c0.32,1.59,2,2.98,1.8,4.63c-0.19,1.53-1.68,2.68-2.98,3.26
			c-1.74,0.79-3.72,0.63-5.58,0.5c-1.99-0.14-3.97-0.3-5.95,0.04c-1.89,0.32-3.61,1.18-5.36,1.92c-1.73,0.74-3.55,1.28-5.43,1.5
			c-3.75,0.44-7.6-0.24-10.95-1.99c-1.62-0.84-3.19-1.82-5-2.23c-1.83-0.41-3.71-0.37-5.57-0.23c-4.26,0.31-8.52,0.7-12.79,1.05
			c-9.76,0.8-19.52,1.6-29.28,2.4c0.4,0.53,0.8,1.05,1.21,1.58c0.88-5.04,5.76-8.59,10.82-7.94c1.59,0.21,1.58-2.3,0-2.5
			c-6.06-0.78-12.18,3.76-13.23,9.78c-0.13,0.73,0.33,1.65,1.21,1.58c9.51-0.78,19.02-1.56,28.53-2.34
			c4.65-0.38,9.31-0.83,13.97-1.14c2.2-0.14,4.36-0.11,6.39,0.85c1.77,0.83,3.41,1.87,5.27,2.54c3.76,1.35,7.91,1.57,11.81,0.72
			c1.97-0.43,3.78-1.25,5.63-2.03c2.17-0.92,4.23-1.3,6.59-1.19c3.94,0.19,7.86,0.73,11.05-2.1c1.19-1.05,2.1-2.56,2.14-4.18
			c0.06-2.06-1.6-3.3-1.91-5.19c-0.35-2.12,0-4.02-1.29-5.9c-1.04-1.51-2.55-2.58-4.24-3.25c-4.4-1.74-9.07,0.07-13.16,1.79
			c0.41,0.11,0.81,0.21,1.22,0.32c-4.44-4.53-10.73-7.09-17.07-6.98c-6.22,0.1-12.16,2.91-16.35,7.48
			c-2.33,2.54-4.06,5.55-5.09,8.84c0.61-0.25,1.22-0.5,1.84-0.75c-4.37-3.15-9.53-6.71-15.21-5.91c-4.45,0.63-8.78,4.01-8.78,8.8
			C243.81,301.38,246.31,301.38,246.31,299.77L246.31,299.77z"/>
	</g>
</g>
<g>
	<g>
		<path class="st0" d="M195.77,474.32c-1.9,6.5-4.39,12.79-7.48,18.81c-0.62,1.2-0.31,2.71,0.9,3.42c1.12,0.65,2.8,0.31,3.42-0.9
			c3.28-6.4,5.97-13.1,7.98-20C201.5,472.55,196.68,471.23,195.77,474.32L195.77,474.32z"/>
	</g>
</g>
<g>
	<g>
		<path class="st0" d="M199.53,479.53c-1.69,5.2-3.69,9.79-6.36,14.62c-0.63,1.14-0.32,2.78,0.9,3.42c1.17,0.62,2.75,0.33,3.42-0.9
			c2.78-5.04,5.08-10.34,6.86-15.82c0.41-1.24-0.47-2.78-1.75-3.08C201.23,477.47,199.96,478.2,199.53,479.53L199.53,479.53z"/>
	</g>
</g>
<g>
	<g>
		<path class="st0" d="M214.93,519.05c-2.15,9.56-8.85,17.54-17.82,21.43c-1.24,0.54-1.52,2.35-0.9,3.42
			c0.75,1.28,2.18,1.44,3.42,0.9c10.05-4.36,17.72-13.75,20.12-24.42C220.46,517.24,215.64,515.91,214.93,519.05L214.93,519.05z"/>
	</g>
</g>
<g>
	<g>
		<path class="st0" d="M199.68,489.33c-3,4.75-6,9.5-9,14.25c-0.7,1.11-0.27,2.8,0.9,3.42c1.23,0.65,2.67,0.29,3.42-0.9
			c3-4.75,6-9.5,9-14.25c0.7-1.11,0.27-2.8-0.9-3.42C201.87,487.78,200.43,488.15,199.68,489.33L199.68,489.33z"/>
	</g>
</g>
<g>
	<g>
		<path class="st0" d="M198.87,497.17c-2.39,7.77-5.84,15.12-10.25,21.95c-1.75,2.71,2.58,5.22,4.32,2.52
			c4.63-7.17,8.25-14.98,10.76-23.15C204.64,495.42,199.81,494.1,198.87,497.17L198.87,497.17z"/>
	</g>
</g>
<g>
	<g>
		<path class="st0" d="M215.2,527.95c4.87,4.88,9.9,9.59,15.11,14.1c4.84,4.19,9.79,8.67,16.02,10.62c3.08,0.96,4.4-3.86,1.33-4.82
			c-5.64-1.76-10.18-6.16-14.53-9.95c-4.95-4.32-9.75-8.82-14.39-13.47C216.46,522.13,212.92,525.67,215.2,527.95L215.2,527.95z"/>
	</g>
</g>
<g>
	<g>
		<path class="st0" d="M197.52,480.83c6.49,8.97,15.15,16.22,25.23,20.82c1.23,0.56,2.69,0.35,3.42-0.9
			c0.63-1.07,0.34-2.86-0.9-3.42c-9.28-4.23-17.45-10.75-23.44-19.03c-0.79-1.09-2.17-1.63-3.42-0.9
			C197.34,478.04,196.73,479.73,197.52,480.83L197.52,480.83z"/>
	</g>
</g>
<g>
	<g>
		<path class="st0" d="M192.07,487.12c4.97,5.16,9.96,10.33,15.28,15.13c4.82,4.34,10.35,9.75,17.28,9.74c3.22,0,3.22-5,0-5
			c-2.81,0-5.24-1.39-7.46-3c-2.59-1.87-4.98-4.08-7.33-6.23c-4.93-4.53-9.59-9.36-14.23-14.18
			C193.37,481.26,189.84,484.8,192.07,487.12L192.07,487.12z"/>
	</g>
</g>
<g>
	<g>
		<path class="st0" d="M205.83,492.34c3.42,4.15,6.84,8.3,10.26,12.44c3.12,3.78,7.19,7.45,12.49,6.15c3.12-0.77,1.8-5.59-1.33-4.82
			c-3.71,0.91-6.67-3.71-8.65-6.11c-3.08-3.73-6.16-7.47-9.23-11.2c-0.86-1.04-2.65-0.89-3.54,0
			C204.8,489.83,204.97,491.29,205.83,492.34L205.83,492.34z"/>
	</g>
</g>
<g>
	<g>
		<path class="st0" d="M203.4,515.95c3.66,0.92,6.88,3.88,9.77,6.2c3.05,2.44,6.01,4.99,9.06,7.44c6.16,4.93,12.72,9.48,20.44,11.57
			c3.11,0.84,4.44-3.98,1.33-4.82c-7.37-1.99-13.62-6.52-19.46-11.28c-3.03-2.47-5.99-5.01-9.07-7.42
			c-3.24-2.54-6.66-5.47-10.73-6.5C201.61,510.34,200.28,515.16,203.4,515.95L203.4,515.95z"/>
	</g>
</g>
<g>
	<g>
		<path class="st0" d="M201.75,506.98c0.34,1.34-0.57,2.75-1.42,3.91c-1.11,1.51-2.42,2.9-3.63,4.33c-2.74,3.22-5.49,6.45-8.23,9.67
			c-0.87,1.03-1.01,2.53,0,3.54c0.9,0.9,2.66,1.03,3.54,0c3.09-3.63,6.18-7.27,9.27-10.9c2.84-3.34,6.51-7.08,5.29-11.87
			C205.78,502.53,200.96,503.85,201.75,506.98L201.75,506.98z"/>
	</g>
</g>
<g>
	<g>
		<path class="st0" d="M205.33,507.32c0.22,0.38-0.62,1.63-0.8,1.99c-0.64,1.21-1.31,2.41-2.01,3.59c-1.36,2.3-2.82,4.53-4.39,6.7
			c-3.09,4.27-6.64,8.2-10.48,11.81c-2.35,2.21,1.19,5.74,3.54,3.54c4.47-4.2,8.49-8.86,12.02-13.88c1.7-2.42,3.27-4.93,4.71-7.52
			c1.47-2.64,3.46-5.76,1.73-8.75C208.03,502.01,203.71,504.53,205.33,507.32L205.33,507.32z"/>
	</g>
</g>
<g>
	<g>
		<path class="st0" d="M207.73,509.66c-0.03,5.24-3.51,9.96-6.42,14.06c-3.17,4.47-6.81,8.61-10.76,12.41
			c-2.32,2.24,1.22,5.77,3.54,3.54c4.37-4.2,8.32-8.83,11.8-13.79c3.37-4.81,6.8-10.14,6.84-16.22
			C212.75,506.44,207.75,506.44,207.73,509.66L207.73,509.66z"/>
	</g>
</g>
<g>
	<g>
		<path class="st0" d="M209.62,516.05c-4.52,7.41-11.44,13.39-19.51,16.64c-1.25,0.5-2.13,1.67-1.75,3.08
			c0.33,1.19,1.82,2.25,3.08,1.75c9.33-3.75,17.25-10.34,22.5-18.94C215.62,515.82,211.3,513.31,209.62,516.05L209.62,516.05z"/>
	</g>
</g>
<g>
	<g>
		<path class="st0" d="M209.13,530.24c11.31,5.63,23.46,9.44,35.98,11.16c1.34,0.18,2.68-0.32,3.08-1.75
			c0.32-1.17-0.4-2.89-1.75-3.08c-12.08-1.66-23.86-5.22-34.79-10.66C208.78,524.49,206.25,528.8,209.13,530.24L209.13,530.24z"/>
	</g>
</g>
<g>
	<g>
		<path class="st0" d="M225.82,537.22c4.8,4.58,10.1,8.64,15.79,12.04c2.82,1.68,5.73,3.2,8.72,4.55c2.75,1.24,6.57,3.37,9.42,1.22
			c1.08-0.81,1.64-2.16,0.9-3.42c-0.62-1.06-2.34-1.72-3.42-0.9c-0.74,0.56-1.86-0.14-2.61-0.46c-1.32-0.55-2.61-1.14-3.89-1.76
			c-2.63-1.27-5.2-2.68-7.69-4.22c-4.93-3.04-9.5-6.59-13.69-10.59C227.02,531.47,223.48,535,225.82,537.22L225.82,537.22z"/>
	</g>
</g>
<g>
	<g>
		<path class="st0" d="M224.13,543.67c9.98,6.18,21.36,9.79,33.07,10.62c1.35,0.1,2.5-1.22,2.5-2.5c0-1.43-1.15-2.4-2.5-2.5
			c-10.82-0.76-21.33-4.23-30.54-9.94C223.91,537.65,221.4,541.98,224.13,543.67L224.13,543.67z"/>
	</g>
</g>
<g>
	<g>
		<path class="st0" d="M214.08,542.16c2.04-0.32,4.14,0.41,6.07,0.97c2.13,0.63,4.26,1.26,6.39,1.89c4.34,1.28,8.68,2.56,13.02,3.84
			c3.09,0.91,4.41-3.91,1.33-4.82c-4.66-1.37-9.31-2.75-13.97-4.12c-4.58-1.35-9.33-3.34-14.17-2.58c-1.34,0.21-2.07,1.88-1.75,3.08
			C211.4,541.84,212.75,542.37,214.08,542.16L214.08,542.16z"/>
	</g>
</g>
<g>
	<g>
		<path class="st0" d="M213.38,519.09c1.51,0.34,2.8,1.12,3.96,2.09c1.39,1.16,2.65,2.45,4.04,3.6c3.22,2.65,6.9,4.61,10.93,5.73
			c3.1,0.86,4.43-3.96,1.33-4.82c-3.56-0.99-6.84-2.75-9.62-5.22c-2.8-2.49-5.5-5.36-9.31-6.21c-1.32-0.29-2.71,0.4-3.08,1.75
			C211.29,517.27,212.05,518.8,213.38,519.09L213.38,519.09z"/>
	</g>
</g>
<g>
	<g>
		<path class="st0" d="M202.64,502.49c-3.14,3.23-6.18,6.55-9.14,9.95c-0.86,0.99-1.04,2.58,0,3.54c0.94,0.86,2.62,1.05,3.54,0
			c2.96-3.4,6-6.72,9.14-9.95c0.91-0.94,1.01-2.61,0-3.54C205.2,501.59,203.62,501.49,202.64,502.49L202.64,502.49z"/>
	</g>
</g>
<g>
	<g>
		<path class="st0" d="M229.56,540.9c8.54,2.87,17.05,5.83,25.53,8.9c1.27,0.46,2.74-0.52,3.08-1.75c0.38-1.39-0.47-2.61-1.75-3.08
			c-8.47-3.07-16.98-6.03-25.53-8.9C227.83,535.05,226.52,539.88,229.56,540.9L229.56,540.9z"/>
	</g>
</g>
<g>
	<g>
		<path class="st0" d="M210.9,541.13c4.64,1.4,8.36,4.78,12.51,7.16c4.53,2.6,9.47,4.5,14.56,5.62c3.14,0.69,4.48-4.13,1.33-4.82
			c-4.99-1.1-9.75-2.94-14.13-5.57c-4.26-2.56-8.1-5.77-12.94-7.22C209.14,535.39,207.82,540.21,210.9,541.13L210.9,541.13z"/>
	</g>
</g>
<g>
	<g>
		<path class="st0" d="M212.47,540.14c5.26,5.66,10.51,11.33,15.77,16.99c2.41,2.59,4.74,5.29,7.27,7.76c2.3,2.25,5.04,4.29,8.3,4.8
			c1.33,0.21,2.69-0.34,3.08-1.75c0.33-1.19-0.4-2.87-1.75-3.08c-2.81-0.44-4.86-2.23-6.78-4.21c-2.47-2.54-4.84-5.19-7.25-7.78
			c-5.03-5.42-10.06-10.85-15.1-16.27C213.82,534.24,210.29,537.78,212.47,540.14L212.47,540.14z"/>
	</g>
</g>
<g>
	<g>
		<path class="st0" d="M225.59,549.45c1.52,7.91,6.78,14.31,11.88,20.27c4.82,5.63,10.27,11.39,17.75,13.19
			c3.13,0.75,4.46-4.07,1.33-4.82c-6.61-1.6-11.3-6.95-15.54-11.91c-4.57-5.33-9.24-10.99-10.6-18.06
			c-0.26-1.33-1.85-2.08-3.08-1.75C225.95,546.76,225.33,548.12,225.59,549.45L225.59,549.45z"/>
	</g>
</g>
<g>
	<g>
		<path class="st0" d="M212.03,524.6c-5.37,5.34-11.51,9.77-18.26,13.21c-1.2,0.61-1.55,2.3-0.9,3.42c0.71,1.22,2.21,1.51,3.42,0.9
			c7.1-3.62,13.62-8.38,19.27-13.99C217.85,525.87,214.31,522.33,212.03,524.6L212.03,524.6z"/>
	</g>
</g>
<g>
	<g>
		<path class="st0" d="M208.06,534.67c-0.28,0.42-0.57,0.82-0.87,1.22c0.13-0.17,0.26-0.34,0.39-0.51c-1.07,1.38-2.31,2.62-3.7,3.69
			c0.17-0.13,0.34-0.26,0.51-0.39c-0.96,0.73-1.98,1.38-3.05,1.94c-1.16,0.6-1.6,2.32-0.9,3.42c0.76,1.18,2.18,1.54,3.42,0.9
			c3.45-1.8,6.36-4.51,8.51-7.74c0.72-1.09,0.25-2.81-0.9-3.42C210.22,533.11,208.83,533.51,208.06,534.67L208.06,534.67z"/>
	</g>
</g>
<g>
	<g>
		<path class="st0" d="M210.02,551.26c8.33,4,17.18,6.76,26.34,8.08c1.33,0.19,2.69-0.33,3.08-1.75c0.32-1.17-0.4-2.88-1.75-3.08
			c-8.71-1.26-17.21-3.77-25.14-7.58c-1.22-0.58-2.7-0.33-3.42,0.9C208.48,548.93,208.8,550.68,210.02,551.26L210.02,551.26z"/>
	</g>
</g>
<g>
	<g>
		<path class="st0" d="M197.91,539.09c6.82,7.84,15.98,13.51,26.01,16.19c3.11,0.83,4.44-3.99,1.33-4.82
			c-9.26-2.47-17.52-7.67-23.81-14.9c-0.89-1.02-2.63-0.91-3.54,0C196.9,536.57,197.02,538.07,197.91,539.09L197.91,539.09z"/>
	</g>
</g>
<g>
	<g>
		<path class="st0" d="M187.42,531.56c-1.19,3.27-2.38,6.53-3.57,9.8c-0.45,1.23,0.5,2.79,1.75,3.08c1.41,0.32,2.6-0.43,3.08-1.75
			c1.19-3.27,2.38-6.53,3.57-9.8c0.45-1.23-0.5-2.79-1.75-3.08C189.08,529.49,187.9,530.24,187.42,531.56L187.42,531.56z"/>
	</g>
</g>
<g>
	<g>
		<path class="st4" d="M252.78,557.56c0.02,0.07,0.11,0.63,0.06,0.26c-0.04-0.34,0,0.1,0,0.16c0.02,0.3,0.02,0.59,0,0.89
			c-0.01,0.08-0.09,0.63-0.02,0.26c0.07-0.34-0.03,0.1-0.04,0.16c-0.06,0.29-0.14,0.58-0.23,0.87c-0.05,0.16-0.12,0.32-0.17,0.48
			c-0.11,0.34,0.18-0.36,0.02-0.04c-0.14,0.27-0.26,0.55-0.41,0.81c-0.17,0.29-0.35,0.58-0.54,0.86c-0.08,0.11-0.16,0.22-0.24,0.33
			c0.2-0.28,0.11-0.14-0.05,0.05c-0.41,0.48-0.85,0.94-1.31,1.37c-0.23,0.21-0.47,0.42-0.71,0.62c-0.11,0.09-0.22,0.18-0.33,0.27
			c-0.36,0.3,0.16-0.11-0.08,0.06c-1.06,0.77-2.14,1.5-3.24,2.21c-1.1,0.71-1.65,2.25-0.9,3.42c0.71,1.1,2.24,1.66,3.42,0.9
			c2.63-1.7,5.27-3.46,7.21-5.96c2.06-2.66,3.09-5.97,2.39-9.31c-0.27-1.28-1.84-2.14-3.08-1.75
			C253.17,554.92,252.49,556.19,252.78,557.56L252.78,557.56z"/>
	</g>
</g>
<g>
	<g>
		<path class="st4" d="M251.85,503.96c-1.84,2.1-3.84,4.06-5.99,5.84c-0.26,0.22-0.52,0.43-0.79,0.64
			c-0.12,0.09-0.24,0.19-0.36,0.28c-0.22,0.17,0.24-0.18-0.12,0.09c-0.54,0.41-1.09,0.81-1.65,1.2c-1.18,0.82-2.39,1.59-3.62,2.31
			c-1.13,0.66-1.63,2.29-0.9,3.42c0.73,1.14,2.21,1.6,3.42,0.9c5.07-2.96,9.67-6.74,13.54-11.15c0.86-0.98,1.04-2.58,0-3.54
			C254.44,503.09,252.77,502.91,251.85,503.96L251.85,503.96z"/>
	</g>
</g>
<g>
	<g>
		<path class="st4" d="M252.15,511.17c-0.03,0.04-0.4,0.53-0.23,0.31c0.16-0.21-0.25,0.31-0.24,0.3c-0.22,0.27-0.44,0.54-0.67,0.81
			c-0.48,0.56-0.98,1.1-1.5,1.63c-0.52,0.53-1.06,1.03-1.61,1.52c-0.26,0.23-0.53,0.46-0.8,0.68c-0.15,0.12-0.3,0.25-0.45,0.37
			c-0.06,0.05-0.48,0.37-0.14,0.11c-1.15,0.86-2.35,1.66-3.61,2.37c-0.64,0.36-1.3,0.71-1.97,1.02c-0.35,0.17-0.71,0.33-1.06,0.48
			c0.24-0.11,0.12-0.05-0.05,0.02c-0.22,0.09-0.43,0.17-0.65,0.26c-1.22,0.47-2.19,1.7-1.75,3.08c0.38,1.18,1.77,2.25,3.08,1.75
			c6.42-2.48,11.88-6.64,15.97-12.17c0.78-1.05,0.21-2.84-0.9-3.42C254.27,509.58,252.99,510.04,252.15,511.17L252.15,511.17z"/>
	</g>
</g>
<g>
	<g>
		<path class="st4" d="M249.14,501.12c0.32,1.45-0.5,2.94-1.25,4.18c-0.99,1.64-2.14,3.2-3.28,4.74c-2.27,3.05-4.75,5.95-7.37,8.7
			c-2.22,2.33,1.31,5.87,3.54,3.54c3.08-3.24,5.94-6.69,8.58-10.3c2.59-3.55,5.63-7.53,4.6-12.19c-0.29-1.32-1.82-2.09-3.08-1.75
			C249.52,498.42,248.84,499.8,249.14,501.12L249.14,501.12z"/>
	</g>
</g>
<g>
	<g>
		<path class="st4" d="M249.88,505.34c0.18,1.16,0.01,2.65-0.33,3.92c-0.39,1.45-0.91,2.57-1.7,3.89c-1.6,2.64-3.76,4.85-5.94,7.1
			c-0.94,0.97-0.97,2.57,0,3.54c0.95,0.95,2.59,0.97,3.54,0c2.57-2.66,5.19-5.38,7.02-8.62c1.94-3.44,2.83-7.23,2.23-11.15
			c-0.2-1.34-1.88-2.07-3.08-1.75C250.2,502.66,249.68,504,249.88,505.34L249.88,505.34z"/>
	</g>
</g>
<g>
	<g>
		<path class="st4" d="M247.42,516.07c0.03,0.67,0.03,1.34-0.02,2.02c-0.02,0.35-0.06,0.71-0.1,1.06c0.03-0.26,0.02-0.16-0.01,0.04
			c-0.03,0.16-0.05,0.31-0.08,0.47c-0.13,0.66-0.29,1.31-0.48,1.96c-0.1,0.34-0.22,0.68-0.34,1.01c-0.05,0.15-0.11,0.3-0.17,0.44
			c-0.16,0.42,0.04-0.08-0.07,0.17c-0.56,1.23-1.22,2.4-2.02,3.49c-0.02,0.03-0.31,0.4-0.16,0.22c0.14-0.18-0.15,0.18-0.18,0.21
			c-0.23,0.27-0.46,0.54-0.71,0.8c-0.49,0.52-1.01,1.01-1.55,1.47c-1,0.85-0.94,2.67,0,3.54c1.06,0.98,2.47,0.91,3.54,0
			c4.84-4.11,7.61-10.55,7.35-16.88c-0.05-1.3-1.11-2.56-2.5-2.5C248.61,513.62,247.36,514.67,247.42,516.07L247.42,516.07z"/>
	</g>
</g>
<g>
	<g>
		<path class="st4" d="M250.77,507.62c6.1,3.77,12.59,6.86,19.34,9.28c1.27,0.46,2.74-0.51,3.08-1.75c0.38-1.39-0.47-2.62-1.75-3.08
			c-6.35-2.28-12.41-5.23-18.15-8.78C250.54,501.61,248.03,505.93,250.77,507.62L250.77,507.62z"/>
	</g>
</g>
<g>
	<g>
		<path class="st4" d="M250.57,512.74c4.87,3.57,9.75,7.13,14.63,10.68c1.06,0.77,2.83,0.22,3.42-0.9c0.69-1.3,0.24-2.6-0.9-3.42
			c-4.89-3.55-9.76-7.11-14.63-10.68c-1.06-0.78-2.83-0.21-3.42,0.9C248.99,510.62,249.44,511.91,250.57,512.74L250.57,512.74z"/>
	</g>
</g>
<g>
	<g>
		<path class="st4" d="M247.71,514.78c5.11,4.49,10.86,8.21,17.11,10.9c1.24,0.53,2.68,0.37,3.42-0.9c0.62-1.05,0.35-2.88-0.9-3.42
			c-5.9-2.54-11.39-5.98-16.1-10.12c-1.01-0.89-2.54-1-3.54,0C246.8,512.16,246.69,513.89,247.71,514.78L247.71,514.78z"/>
	</g>
</g>
<g>
	<g>
		<path class="st4" d="M250.11,521.91c5.91,7.47,13.07,15,23.23,15.49c1.35,0.07,2.5-1.2,2.5-2.5c0-1.41-1.15-2.43-2.5-2.5
			c-8.64-0.42-14.74-7.77-19.69-14.03c-0.84-1.06-2.66-0.88-3.54,0C249.06,519.42,249.27,520.85,250.11,521.91L250.11,521.91z"/>
	</g>
</g>
<g>
	<g>
		<path class="st4" d="M250.41,527.83c3.55,4.79,8.78,7.81,14.05,10.4c5.55,2.72,11.39,4.84,17.4,6.27
			c3.13,0.75,4.46-4.07,1.33-4.82c-5.44-1.3-10.76-3.13-15.8-5.57c-4.5-2.17-9.61-4.69-12.66-8.8c-0.8-1.08-2.16-1.63-3.42-0.9
			C250.24,525.04,249.6,526.74,250.41,527.83L250.41,527.83z"/>
	</g>
</g>
<g>
	<g>
		<path class="st4" d="M254.53,530.39c0.5,7.57-3.08,15.24-9.52,19.46c-2.68,1.76-0.18,6.09,2.52,4.32
			c7.82-5.13,12.62-14.4,12-23.78c-0.09-1.35-1.08-2.5-2.5-2.5C255.75,527.89,254.44,529.03,254.53,530.39L254.53,530.39z"/>
	</g>
</g>
<g>
	<g>
		<path class="st4" d="M260.11,536.46c-0.91,10.47-7.55,20.01-16.84,24.8c-2.86,1.48-0.33,5.79,2.52,4.32
			c10.93-5.64,18.26-16.92,19.32-29.12c0.12-1.35-1.23-2.5-2.5-2.5C261.16,533.96,260.23,535.11,260.11,536.46L260.11,536.46z"/>
	</g>
</g>
<g>
	<g>
		<path class="st4" d="M252.07,537.75c7.39,6.42,17.63,8.92,27.13,6.48c3.11-0.8,1.79-5.62-1.33-4.82
			c-7.7,1.98-16.25,0.04-22.27-5.19c-1.02-0.89-2.53-1-3.54,0C251.16,535.12,251.04,536.87,252.07,537.75L252.07,537.75z"/>
	</g>
</g>
<g>
	<g>
		<path class="st4" d="M257.24,523.77c3.79,1.85,7.92,2.84,12.14,2.82c1.31-0.01,2.56-1.14,2.5-2.5c-0.06-1.35-1.1-2.51-2.5-2.5
			c-0.92,0.01-1.84-0.03-2.76-0.13c-0.27-0.03-0.55-0.06-0.12-0.01c-0.26-0.03-0.52-0.08-0.78-0.12c-0.42-0.07-0.84-0.16-1.26-0.25
			c-0.87-0.2-1.72-0.44-2.56-0.73c-0.43-0.15-0.88-0.29-1.29-0.49c0.56,0.27-0.05-0.02-0.13-0.06c-0.24-0.11-0.48-0.22-0.71-0.34
			c-1.17-0.57-2.76-0.36-3.42,0.9C255.75,521.47,255.99,523.16,257.24,523.77L257.24,523.77z"/>
	</g>
</g>
<g>
	<g>
		<path class="st4" d="M245.63,530.54c3.49,5.03,7.46,9.73,11.91,13.94c4.2,3.96,9,7.78,15.02,8c3.22,0.12,3.21-4.88,0-5
			c-4.86-0.18-8.83-3.96-12.13-7.15c-3.89-3.75-7.41-7.87-10.49-12.31c-0.77-1.11-2.19-1.62-3.42-0.9
			C245.43,527.76,244.86,529.42,245.63,530.54L245.63,530.54z"/>
	</g>
</g>
<g>
	<g>
		<path class="st4" d="M257.75,540.83c2.29,0.91,3.87,3.25,5.3,5.14c1.89,2.5,3.87,4.94,6.09,7.15c4.31,4.28,10.42,9.09,16.9,7.49
			c3.12-0.77,1.8-5.59-1.33-4.82c-2.69,0.66-5.33-0.87-7.48-2.35c-2.35-1.62-4.42-3.61-6.33-5.71c-3.73-4.11-6.43-9.57-11.83-11.72
			c-1.25-0.5-2.75,0.55-3.08,1.75C255.62,539.18,256.49,540.33,257.75,540.83L257.75,540.83z"/>
	</g>
</g>
<g>
	<g>
		<path class="st4" d="M258.98,539.13c1.28,0.22,2.1,1.06,3,1.95c1.19,1.17,2.38,2.35,3.6,3.5c2.47,2.34,5.05,4.56,7.83,6.53
			c5.31,3.75,11.61,6.33,18.18,6.24c3.21-0.04,3.22-5.04,0-5c-6.21,0.08-11.89-2.7-16.76-6.36c-2.5-1.88-4.79-4.03-7.04-6.21
			c-2.16-2.09-4.36-4.93-7.48-5.47c-1.33-0.23-2.69,0.36-3.08,1.75C256.9,537.26,257.64,538.9,258.98,539.13L258.98,539.13z"/>
	</g>
</g>
<g>
	<g>
		<path class="st4" d="M258.61,539.47c0.04,10.23-10.97,15.32-18.87,18.91c-1.23,0.56-1.53,2.34-0.9,3.42
			c0.74,1.26,2.19,1.46,3.42,0.9c5.18-2.35,10.43-4.81,14.61-8.77c3.96-3.75,6.76-8.92,6.74-14.46
			C263.59,536.25,258.59,536.24,258.61,539.47L258.61,539.47z"/>
	</g>
</g>
<g>
	<g>
		<path class="st4" d="M253.21,530.7c0.02,2.34-1.01,4.45-2.2,6.42c-1.13,1.87-2.46,3.58-3.98,5.15c-3.04,3.11-6.76,5.55-10.86,7.01
			c-1.27,0.45-2.12,1.71-1.75,3.08c0.34,1.23,1.8,2.2,3.08,1.75c5.02-1.79,9.6-4.68,13.3-8.53c3.73-3.9,7.46-9.27,7.42-14.87
			C258.19,527.49,253.19,527.48,253.21,530.7L253.21,530.7z"/>
	</g>
</g>
<g>
	<g>
		<path class="st4" d="M250.66,525.21c-0.16-0.23,0.12-0.49-0.12-0.12c-0.15,0.24-0.44,0.71-0.66,1.03c-0.45,0.65-1,1.24-1.57,1.81
			c-1.31,1.29-2.81,2.31-4.43,3.17c-3.83,2.04-8.16,2.96-12.36,3.9c-1.32,0.3-2.09,1.82-1.75,3.08c0.37,1.36,1.75,2.04,3.08,1.75
			c5.14-1.16,10.42-2.39,14.95-5.21c1.98-1.23,3.86-2.75,5.33-4.57c1.59-1.97,3.57-4.86,1.84-7.35c-0.77-1.11-2.19-1.62-3.42-0.9
			C250.46,522.43,249.89,524.1,250.66,525.21L250.66,525.21z"/>
	</g>
</g>
<g>
	<g>
		<path class="st4" d="M256.95,553.76c2.46,0.02,4.77,0.89,7.06,1.73c2.46,0.9,4.94,1.73,7.45,2.48c5.04,1.5,10.18,2.66,15.37,3.51
			c1.33,0.22,2.69-0.35,3.08-1.75c0.33-1.19-0.41-2.86-1.75-3.08c-5.35-0.87-10.64-2.08-15.83-3.65c-2.5-0.76-4.97-1.61-7.43-2.5
			c-2.58-0.94-5.19-1.72-7.96-1.75C253.73,548.74,253.73,553.74,256.95,553.76L256.95,553.76z"/>
	</g>
</g>
<g>
	<g>
		<path class="st4" d="M259.36,535.56c4.89,3.08,9.78,6.17,14.68,9.25c1.11,0.7,2.8,0.27,3.42-0.9c0.65-1.23,0.29-2.67-0.9-3.42
			c-4.89-3.08-9.78-6.17-14.68-9.25c-1.11-0.7-2.8-0.27-3.42,0.9C257.81,533.37,258.18,534.82,259.36,535.56L259.36,535.56z"/>
	</g>
</g>
<g>
	<g>
		<path class="st4" d="M252.42,518.93c0.91,5.7,4.82,10.41,9.48,13.58c5.3,3.6,11.72,5.13,17.87,6.56c3.13,0.73,4.47-4.09,1.33-4.82
			c-9.36-2.19-22.05-5.42-23.85-16.65c-0.21-1.33-1.88-2.08-3.08-1.75C252.75,516.24,252.21,517.59,252.42,518.93L252.42,518.93z"/>
	</g>
</g>
<g>
	<g>
		<path class="st4" d="M254.19,555.19c1.49,4.8,5.68,7.66,10.61,7.89c5.53,0.26,11.12-0.01,16.66-0.02c3.22-0.01,3.22-5.01,0-5
			c-4.81,0.01-9.62,0.03-14.43,0.04c-1.85,0.01-3.73,0.1-5.37-0.88c-1.27-0.76-2.2-1.95-2.64-3.37
			C258.06,550.8,253.23,552.1,254.19,555.19L254.19,555.19z"/>
	</g>
</g>
<g>
	<g>
		<path class="st4" d="M258.49,550.26c1.98,13.28,8.93,25.84,19.09,34.62c2.86,2.47,7.06,6.47,11.05,4.09
			c2.76-1.64,0.25-5.97-2.52-4.32c-0.78,0.46-3.01-1.67-3.65-2.19c-1.51-1.22-2.96-2.53-4.33-3.9c-2.59-2.61-4.9-5.48-6.9-8.57
			c-4.11-6.39-6.8-13.55-7.92-21.06c-0.2-1.34-1.89-2.07-3.08-1.75C258.8,547.58,258.28,548.92,258.49,550.26L258.49,550.26z"/>
	</g>
</g>
<g>
	<g>
		<path class="st4" d="M264.76,559.77c-1.68,3.22,1.61,4.89,3.99,6.12c2.44,1.27,4.91,2.48,7.39,3.65
			c5.03,2.35,10.16,4.5,15.36,6.46c1.26,0.47,2.74-0.53,3.08-1.75c0.39-1.4-0.48-2.6-1.75-3.08c-4.21-1.58-8.36-3.3-12.46-5.16
			c-2-0.91-3.99-1.86-5.95-2.84c-0.98-0.49-1.97-0.99-2.94-1.49c-0.57-0.29-2.29-0.9-2.52-1.38c0.11,0.42,0.23,0.84,0.34,1.26
			c-0.01-0.09-0.01-0.18-0.02-0.28c-0.11,0.42-0.23,0.84-0.34,1.26c0.04-0.09,0.09-0.17,0.13-0.26
			C270.57,559.44,266.26,556.91,264.76,559.77L264.76,559.77z"/>
	</g>
</g>
<g>
	<g>
		<path class="st4" d="M269.33,568.97c6.26,3.23,12.6,6.31,19.01,9.21c1.23,0.56,2.69,0.35,3.42-0.9c0.63-1.07,0.34-2.86-0.9-3.42
			c-6.42-2.91-12.76-5.98-19.01-9.21c-1.2-0.62-2.71-0.31-3.42,0.9C267.78,566.67,268.13,568.35,269.33,568.97L269.33,568.97z"/>
	</g>
</g>
<g>
	<g>
		<path class="st4" d="M269.02,580.53c4.39,2.86,8.98,5.4,13.75,7.57c2.37,1.08,4.79,2.08,7.23,2.99c2.35,0.88,5.51,2.53,7.62,0.34
			c2.24-2.31-1.29-5.85-3.54-3.54c1.06-0.17,1.27-0.32,0.63-0.43c-0.28-0.09-0.57-0.19-0.85-0.29c-0.57-0.19-1.13-0.39-1.69-0.6
			c-0.98-0.36-1.96-0.73-2.94-1.12c-2.02-0.81-4.01-1.69-5.98-2.63c-4.05-1.95-7.95-4.17-11.71-6.62
			C268.84,574.45,266.33,578.77,269.02,580.53L269.02,580.53z"/>
	</g>
</g>
<g>
	<g>
		<path class="st4" d="M249.28,530.32c-0.11,0.36-0.22,0.72-0.35,1.07c-0.05,0.14-0.2,0.69-0.03,0.1c-0.04,0.15-0.13,0.29-0.2,0.43
			c-0.31,0.65-0.67,1.27-1.06,1.87c-0.09,0.13-0.18,0.26-0.27,0.39c-0.04,0.06-0.43,0.56-0.2,0.27c0.23-0.28-0.11,0.13-0.16,0.19
			c-0.12,0.14-0.24,0.29-0.37,0.43c-0.48,0.54-1,1.04-1.55,1.5c-0.11,0.1-0.23,0.23-0.36,0.3c0.51-0.28,0.02-0.02-0.09,0.06
			c-0.28,0.2-0.56,0.4-0.85,0.58c-0.61,0.39-1.25,0.72-1.9,1.03c-0.47,0.22,0.44-0.16-0.09,0.04c-0.15,0.05-0.29,0.11-0.44,0.17
			c-0.32,0.12-0.65,0.22-0.98,0.32c-0.36,0.1-0.73,0.19-1.09,0.27c-0.18,0.04-0.37,0.07-0.55,0.1c-0.53,0.1,0.5-0.06-0.08,0.01
			c-1.3,0.15-2.57,1.04-2.5,2.5c0.06,1.23,1.11,2.66,2.5,2.5c7.16-0.81,13.39-5.81,15.45-12.78c0.37-1.25-0.45-2.78-1.75-3.08
			C251.01,528.27,249.68,528.98,249.28,530.32L249.28,530.32z"/>
	</g>
</g>
<g>
	<g>
		<path class="st4" d="M255.84,544.08c2.32-0.3,4.44,0.99,6.52,1.84c2.26,0.93,4.58,1.73,6.93,2.41c4.77,1.38,9.69,2.21,14.64,2.59
			c1.35,0.1,2.5-1.22,2.5-2.5c0-1.44-1.15-2.4-2.5-2.5c-4.82-0.37-9.57-1.27-14.19-2.67c-2.28-0.69-4.53-1.5-6.72-2.44
			c-2.29-0.98-4.62-2.07-7.18-1.74c-1.34,0.17-2.5,1.03-2.5,2.5C253.34,542.8,254.5,544.26,255.84,544.08L255.84,544.08z"/>
	</g>
</g>
<g>
	<g>
		<path class="st4" d="M259.14,524.9c5.51,0.81,11.06,1.14,16.63,0.87c1.3-0.06,2.56-1.11,2.5-2.5c-0.06-1.3-1.1-2.57-2.5-2.5
			c-5.09,0.24-10.4,0.02-15.3-0.69c-1.29-0.19-2.75,0.32-3.08,1.75C257.13,523.01,257.76,524.7,259.14,524.9L259.14,524.9z"/>
	</g>
</g>
<g>
	<g>
		<path class="st4" d="M256.28,525.75c5.85,1.06,11.78,1.54,17.72,1.36c1.35-0.04,2.5-1.12,2.5-2.5c0-1.32-1.14-2.54-2.5-2.5
			c-5.5,0.16-11-0.21-16.39-1.19c-1.33-0.24-2.69,0.36-3.08,1.75C254.2,523.88,254.94,525.51,256.28,525.75L256.28,525.75z"/>
	</g>
</g>
<g>
	<g>
		<path class="st4" d="M259.16,515.28c3.45,0.77,6.86,1.68,10.23,2.74c1.25,0.39,2.78-0.46,3.08-1.75c0.31-1.36-0.41-2.66-1.75-3.08
			c-3.37-1.06-6.78-1.97-10.23-2.74c-1.27-0.28-2.77,0.38-3.08,1.75C257.12,513.47,257.79,514.98,259.16,515.28L259.16,515.28z"/>
	</g>
</g>
<g>
	<g>
		<path class="st4" d="M252.69,501.21c0.02,0.01,0.73,0.29,0.3,0.1c0.15,0.06,0.29,0.13,0.44,0.2c0.4,0.19,0.79,0.39,1.17,0.61
			c0.74,0.42,1.45,0.88,2.14,1.37c0.33,0.24,0.66,0.48,0.99,0.72c0.16,0.12,0.33,0.25,0.49,0.37c0.2,0.15-0.16-0.12,0.18,0.14
			c0.78,0.61,1.56,1.22,2.35,1.83c2.7,2.08,5.66,4.03,9.1,4.53c1.33,0.19,2.69-0.33,3.08-1.75c0.32-1.17-0.4-2.88-1.75-3.08
			c-0.82-0.12-1.62-0.31-2.4-0.6c-0.18-0.07-0.37-0.13-0.55-0.21c0.33,0.14,0-0.01-0.15-0.08c-0.39-0.19-0.77-0.39-1.14-0.6
			c-0.69-0.4-1.36-0.84-2.01-1.3c-0.33-0.23-0.66-0.47-0.98-0.72c-0.2-0.15-0.39-0.29-0.58-0.44c0.27,0.21-0.07-0.05-0.17-0.13
			c-2.89-2.25-5.69-4.51-9.17-5.78c-1.27-0.46-2.74,0.52-3.08,1.75C250.56,499.52,251.41,500.74,252.69,501.21L252.69,501.21z"/>
	</g>
</g>
<g>
	<g>
		<path class="st4" d="M258.85,516.92c4.88,1.33,9.82,2.43,14.81,3.3c1.28,0.22,2.76-0.34,3.08-1.75c0.28-1.22-0.37-2.83-1.75-3.08
			c-4.98-0.87-9.92-1.97-14.81-3.3c-1.26-0.34-2.77,0.43-3.08,1.75C256.8,515.16,257.49,516.55,258.85,516.92L258.85,516.92z"/>
	</g>
</g>
<g>
	<g>
		<path class="st4" d="M258.47,525.22c5.9,2.97,12.47,4.42,19.08,4.06c1.35-0.07,2.5-1.1,2.5-2.5c0-1.3-1.15-2.57-2.5-2.5
			c-5.74,0.31-11.4-0.79-16.55-3.38c-1.21-0.61-2.71-0.32-3.42,0.9C256.92,522.91,257.26,524.61,258.47,525.22L258.47,525.22z"/>
	</g>
</g>
<g>
	<g>
		<path class="st4" d="M255.45,523.76c4.01,1.88,7.22,5.05,11.16,7.06c4.03,2.06,8.65,3.22,13.09,1.82
			c3.06-0.97,1.75-5.79-1.33-4.82c-7.87,2.49-14-5.39-20.39-8.38c-1.22-0.57-2.7-0.34-3.42,0.9
			C253.92,521.42,254.22,523.18,255.45,523.76L255.45,523.76z"/>
	</g>
</g>
<g>
	<g>
		<path class="st4" d="M255.98,507.44c4.6,1.25,9.2,2.49,13.8,3.74c1.26,0.34,2.77-0.43,3.08-1.75c0.3-1.32-0.4-2.71-1.75-3.08
			c-4.6-1.25-9.2-2.49-13.8-3.74c-1.26-0.34-2.77,0.43-3.08,1.75C253.93,505.68,254.63,507.07,255.98,507.44L255.98,507.44z"/>
	</g>
</g>
<g>
	<g>
		<path class="st4" d="M260.86,524.73c4.02,0,8.05,0,12.07,0c1.31,0,2.56-1.15,2.5-2.5c-0.06-1.35-1.1-2.5-2.5-2.5
			c-4.02,0-8.05,0-12.07,0c-1.31,0-2.56,1.15-2.5,2.5C258.42,523.58,259.46,524.73,260.86,524.73L260.86,524.73z"/>
	</g>
</g>
<g>
	<g>
		<path class="st4" d="M264.05,518.69c3.2,0,6.39,0,9.59,0c1.31,0,2.56-1.15,2.5-2.5c-0.06-1.35-1.1-2.5-2.5-2.5
			c-3.2,0-6.39,0-9.59,0c-1.31,0-2.56,1.15-2.5,2.5C261.62,517.55,262.65,518.69,264.05,518.69L264.05,518.69z"/>
	</g>
</g>
<g>
	<g>
		<path class="st0" d="M300.54,541.24c0.05,0.42,0.07,0.84,0.04,1.26c0.03-0.43-0.02,0.09-0.04,0.19c-0.05,0.2-0.11,0.39-0.17,0.59
			c-0.17,0.63,0.18-0.26-0.13,0.32c-0.08,0.15-0.15,0.3-0.24,0.45c-0.13,0.22-0.27,0.43-0.41,0.65c-0.04,0.07-0.23,0.33-0.08,0.12
			c-0.54,0.71-1.19,1.34-1.86,1.92c-0.75,0.66-1.12,0.92-2.01,1.54c-3.46,2.41-7.14,4.47-10.99,6.18c-1.23,0.55-1.52,2.35-0.9,3.42
			c0.74,1.27,2.18,1.45,3.42,0.9c4.19-1.87,8.24-4.14,11.94-6.86c3.36-2.47,6.99-6.12,6.41-10.69c-0.17-1.34-1.03-2.5-2.5-2.5
			C301.82,538.74,300.37,539.89,300.54,541.24L300.54,541.24z"/>
	</g>
</g>
<g>
	<path class="st2" d="M305.95,502.4c1.74,26.22-1.83,52.49-5.97,78.44c-0.16,1.03-0.29,2.19,0.36,3c0.57,0.71,1.55,0.9,2.45,1.04
		c14.14,2.25,28.27,4.51,42.41,6.76c-0.09-4.04-1.6-7.91-3.08-11.67c-7.68-19.45-15.36-38.89-23.04-58.34
		c-3.15-7.98-6.34-16.03-11.22-23.09"/>
	<g>
		<path class="st3" d="M303.45,502.4c1.12,17.13,0.01,34.32-2.06,51.34c-1.03,8.51-2.31,17-3.66,25.47
			c-0.29,1.85-0.75,3.89,0.27,5.62c1.01,1.71,2.79,2.26,4.63,2.55c4.27,0.69,8.55,1.36,12.82,2.04c9.7,1.55,19.4,3.09,29.09,4.64
			c1.52,0.24,3.23-0.64,3.16-2.41c-0.24-6.6-3.35-12.78-5.73-18.82c-2.53-6.41-5.06-12.81-7.59-19.22
			c-4.93-12.49-9.76-25.03-14.82-37.47c-2.66-6.54-5.54-13.01-9.55-18.85c-0.76-1.11-2.2-1.61-3.42-0.9c-1.1,0.64-1.66,2.3-0.9,3.42
			c3.41,4.98,6.05,10.42,8.36,15.99c2.48,5.99,4.8,12.05,7.18,18.08c4.88,12.35,9.75,24.69,14.63,37.04
			c1.39,3.53,2.8,7.06,4.18,10.59c1.27,3.26,2.53,6.6,2.65,10.13c1.05-0.8,2.11-1.61,3.16-2.41c-8.3-1.32-16.6-2.65-24.9-3.97
			c-4.11-0.66-8.22-1.31-12.33-1.97c-1.94-0.31-3.94-0.52-5.86-0.95c-0.19-0.04-0.56-0.08-0.67-0.22c0.02,0.03,0.22,0.26,0.25,0.12
			c0.16-0.79,0.19-1.65,0.31-2.45c2.59-16.37,4.93-32.82,5.84-49.38c0.51-9.33,0.55-18.69-0.06-28.03c-0.09-1.35-1.09-2.5-2.5-2.5
			C304.67,499.9,303.37,501.05,303.45,502.4L303.45,502.4z"/>
	</g>
</g>
<g>
	<g>
		<path class="st0" d="M204.03,536.05c-1.9,6.5-4.39,12.79-7.48,18.81c-0.62,1.2-0.31,2.71,0.9,3.42c1.12,0.65,2.8,0.31,3.42-0.9
			c3.28-6.4,5.97-13.1,7.98-20C209.76,534.28,204.94,532.96,204.03,536.05L204.03,536.05z"/>
	</g>
</g>
<g>
	<g>
		<path class="st0" d="M211.01,539.09c-1.69,5.2-3.69,9.79-6.36,14.62c-0.63,1.14-0.32,2.78,0.9,3.42c1.17,0.62,2.75,0.33,3.42-0.9
			c2.78-5.04,5.08-10.34,6.86-15.82c0.41-1.24-0.47-2.78-1.75-3.08C212.71,537.03,211.44,537.75,211.01,539.09L211.01,539.09z"/>
	</g>
</g>
<g>
	<g>
		<path class="st0" d="M324.4,540.37c-2.15,9.56-8.85,17.54-17.82,21.43c-1.24,0.54-1.52,2.35-0.9,3.42
			c0.75,1.28,2.18,1.44,3.42,0.9c10.05-4.36,17.72-13.75,20.12-24.42C329.93,538.56,325.11,537.23,324.4,540.37L324.4,540.37z"/>
	</g>
</g>
<g>
	<g>
		<path class="st0" d="M306.85,492.95c-3,4.75-6,9.5-9,14.25c-0.7,1.11-0.27,2.8,0.9,3.42c1.23,0.65,2.67,0.29,3.42-0.9
			c3-4.75,6-9.5,9-14.25c0.7-1.11,0.27-2.8-0.9-3.42C309.03,491.41,307.59,491.77,306.85,492.95L306.85,492.95z"/>
	</g>
</g>
<g>
	<g>
		<path class="st0" d="M309.23,502.88c-2.39,7.77-5.84,15.12-10.25,21.95c-1.75,2.71,2.58,5.22,4.32,2.52
			c4.63-7.17,8.25-14.98,10.76-23.15C315,501.13,310.18,499.81,309.23,502.88L309.23,502.88z"/>
	</g>
</g>
<g>
	<g>
		<path class="st0" d="M321.61,543.04c4.87,4.88,9.9,9.59,15.11,14.1c4.84,4.19,9.79,8.67,16.02,10.62c3.08,0.96,4.4-3.86,1.33-4.82
			c-5.64-1.76-10.18-6.16-14.53-9.95c-4.95-4.32-9.75-8.82-14.39-13.47C322.87,537.22,319.33,540.75,321.61,543.04L321.61,543.04z"
			/>
	</g>
</g>
<g>
	<g>
		<path class="st0" d="M306.93,496.74c6.49,8.97,15.15,16.22,25.23,20.82c1.23,0.56,2.69,0.35,3.42-0.9
			c0.63-1.07,0.34-2.86-0.9-3.42c-9.28-4.23-17.45-10.75-23.44-19.03c-0.79-1.09-2.17-1.63-3.42-0.9
			C306.75,493.95,306.13,495.64,306.93,496.74L306.93,496.74z"/>
	</g>
</g>
<g>
	<g>
		<path class="st0" d="M303.97,505.58c4.97,5.16,9.96,10.33,15.28,15.13c4.82,4.34,10.35,9.75,17.28,9.74c3.22,0,3.22-5,0-5
			c-2.81,0-5.24-1.39-7.46-3c-2.59-1.87-4.98-4.08-7.33-6.23c-4.93-4.53-9.59-9.36-14.23-14.18
			C305.27,499.73,301.74,503.26,303.97,505.58L303.97,505.58z"/>
	</g>
</g>
<g>
	<g>
		<path class="st0" d="M310.6,503.11c3.42,4.15,6.84,8.3,10.26,12.44c3.12,3.78,7.19,7.45,12.49,6.15c3.12-0.77,1.8-5.59-1.33-4.82
			c-3.71,0.91-6.67-3.71-8.65-6.11c-3.08-3.73-6.16-7.47-9.23-11.2c-0.86-1.04-2.65-0.89-3.54,0
			C309.57,500.6,309.74,502.06,310.6,503.11L310.6,503.11z"/>
	</g>
</g>
<g>
	<g>
		<path class="st0" d="M302.07,516.04c3.66,0.92,6.88,3.88,9.77,6.2c3.05,2.44,6.01,4.99,9.06,7.44
			c6.16,4.94,12.72,9.48,20.44,11.57c3.11,0.84,4.44-3.98,1.33-4.82c-7.37-1.99-13.62-6.52-19.46-11.28
			c-3.03-2.47-5.99-5.01-9.07-7.42c-3.24-2.54-6.66-5.47-10.73-6.5C300.28,510.43,298.95,515.25,302.07,516.04L302.07,516.04z"/>
	</g>
</g>
<g>
	<g>
		<path class="st0" d="M312.11,512.69c0.34,1.34-0.57,2.75-1.42,3.91c-1.11,1.51-2.42,2.9-3.63,4.33c-2.74,3.22-5.49,6.45-8.23,9.67
			c-0.87,1.03-1.01,2.53,0,3.54c0.9,0.9,2.66,1.03,3.54,0c3.09-3.63,6.18-7.27,9.27-10.9c2.84-3.34,6.51-7.08,5.29-11.87
			C316.14,508.24,311.32,509.56,312.11,512.69L312.11,512.69z"/>
	</g>
</g>
<g>
	<g>
		<path class="st0" d="M315.69,513.03c0.22,0.38-0.62,1.63-0.8,1.99c-0.64,1.21-1.31,2.41-2.01,3.59c-1.36,2.3-2.82,4.53-4.39,6.7
			c-3.09,4.27-6.64,8.2-10.48,11.81c-2.35,2.21,1.19,5.74,3.54,3.54c4.47-4.2,8.49-8.86,12.02-13.88c1.7-2.42,3.27-4.93,4.71-7.52
			c1.47-2.64,3.46-5.76,1.73-8.75C318.39,507.73,314.07,510.24,315.69,513.03L315.69,513.03z"/>
	</g>
</g>
<g>
	<g>
		<path class="st0" d="M317.2,530.98c-0.03,5.24-3.51,9.96-6.42,14.06c-3.17,4.47-6.81,8.61-10.76,12.41
			c-2.32,2.24,1.22,5.77,3.54,3.54c4.37-4.2,8.32-8.83,11.8-13.79c3.37-4.81,6.8-10.14,6.84-16.22
			C322.22,527.76,317.22,527.76,317.2,530.98L317.2,530.98z"/>
	</g>
</g>
<g>
	<g>
		<path class="st0" d="M319.1,537.37c-4.52,7.41-11.44,13.39-19.51,16.64c-1.25,0.5-2.13,1.67-1.75,3.08
			c0.33,1.19,1.82,2.25,3.08,1.75c9.33-3.75,17.25-10.34,22.5-18.94C325.09,537.14,320.77,534.63,319.1,537.37L319.1,537.37z"/>
	</g>
</g>
<g>
	<g>
		<path class="st0" d="M310.03,531.86c11.31,5.63,23.46,9.44,35.98,11.16c1.34,0.18,2.68-0.32,3.08-1.75
			c0.32-1.17-0.4-2.89-1.75-3.08c-12.08-1.66-23.86-5.22-34.79-10.66C309.68,526.11,307.14,530.42,310.03,531.86L310.03,531.86z"/>
	</g>
</g>
<g>
	<g>
		<path class="st0" d="M317.12,537.66c4.8,4.58,10.1,8.64,15.79,12.04c2.82,1.68,5.73,3.2,8.72,4.55c2.75,1.24,6.57,3.37,9.42,1.22
			c1.08-0.81,1.64-2.16,0.9-3.42c-0.62-1.06-2.34-1.72-3.42-0.9c-0.74,0.56-1.86-0.14-2.61-0.46c-1.32-0.55-2.61-1.14-3.89-1.76
			c-2.63-1.27-5.2-2.68-7.69-4.22c-4.93-3.04-9.5-6.59-13.69-10.59C318.33,531.91,314.78,535.44,317.12,537.66L317.12,537.66z"/>
	</g>
</g>
<g>
	<g>
		<path class="st0" d="M315.53,536.77c9.98,6.18,21.36,9.79,33.07,10.62c1.35,0.1,2.5-1.22,2.5-2.5c0-1.43-1.15-2.4-2.5-2.5
			c-10.82-0.76-21.33-4.23-30.54-9.94C315.31,530.75,312.79,535.08,315.53,536.77L315.53,536.77z"/>
	</g>
</g>
<g>
	<g>
		<path class="st0" d="M309.79,562.3c2.04-0.32,4.14,0.41,6.07,0.97c2.13,0.63,4.26,1.26,6.39,1.89c4.34,1.28,8.68,2.56,13.02,3.84
			c3.09,0.91,4.41-3.91,1.33-4.82c-4.66-1.37-9.31-2.75-13.97-4.12c-4.58-1.35-9.33-3.34-14.17-2.58c-1.34,0.21-2.07,1.88-1.75,3.08
			C307.1,561.98,308.45,562.51,309.79,562.3L309.79,562.3z"/>
	</g>
</g>
<g>
	<g>
		<path class="st0" d="M316.69,522.58c1.51,0.34,2.8,1.12,3.96,2.09c1.39,1.16,2.65,2.45,4.04,3.6c3.22,2.65,6.9,4.61,10.93,5.73
			c3.1,0.86,4.43-3.96,1.33-4.82c-3.56-0.99-6.84-2.75-9.62-5.22c-2.8-2.49-5.5-5.36-9.31-6.21c-1.32-0.29-2.71,0.4-3.08,1.75
			C314.59,520.76,315.36,522.29,316.69,522.58L316.69,522.58z"/>
	</g>
</g>
<g>
	<g>
		<path class="st0" d="M313.01,508.2c-3.14,3.23-6.18,6.55-9.14,9.95c-0.86,0.99-1.04,2.58,0,3.54c0.94,0.86,2.62,1.05,3.54,0
			c2.96-3.4,6-6.72,9.14-9.95c0.91-0.94,1.01-2.61,0-3.54C315.56,507.3,313.98,507.2,313.01,508.2L313.01,508.2z"/>
	</g>
</g>
<g>
	<g>
		<path class="st0" d="M317.82,528.64c8.54,2.87,17.05,5.83,25.53,8.9c1.27,0.46,2.74-0.52,3.08-1.75c0.38-1.39-0.47-2.61-1.75-3.08
			c-8.47-3.07-16.98-6.03-25.53-8.9C316.1,522.8,314.78,527.62,317.82,528.64L317.82,528.64z"/>
	</g>
</g>
<g>
	<g>
		<path class="st0" d="M306.6,561.27c4.64,1.4,8.36,4.78,12.51,7.16c4.53,2.6,9.47,4.5,14.56,5.62c3.14,0.69,4.48-4.13,1.33-4.82
			c-4.99-1.1-9.75-2.94-14.13-5.57c-4.26-2.56-8.1-5.77-12.94-7.22C304.84,555.52,303.52,560.35,306.6,561.27L306.6,561.27z"/>
	</g>
</g>
<g>
	<g>
		<path class="st0" d="M308.18,560.28c5.26,5.66,10.51,11.33,15.77,16.99c2.41,2.59,4.74,5.29,7.27,7.76c2.3,2.25,5.04,4.29,8.3,4.8
			c1.33,0.21,2.69-0.34,3.08-1.75c0.33-1.19-0.4-2.87-1.75-3.08c-2.81-0.44-4.86-2.23-6.78-4.21c-2.47-2.54-4.84-5.19-7.25-7.78
			c-5.03-5.42-10.06-10.85-15.1-16.27C309.52,554.38,305.99,557.92,308.18,560.28L308.18,560.28z"/>
	</g>
</g>
<g>
	<g>
		<path class="st0" d="M320.56,555.97c1.52,7.91,6.78,14.31,11.88,20.27c4.82,5.63,10.27,11.39,17.75,13.19
			c3.13,0.75,4.46-4.07,1.33-4.82c-6.61-1.6-11.3-6.95-15.54-11.91c-4.57-5.33-9.24-10.99-10.6-18.06
			c-0.26-1.33-1.85-2.08-3.08-1.75C320.91,553.28,320.3,554.64,320.56,555.97L320.56,555.97z"/>
	</g>
</g>
<g>
	<g>
		<path class="st0" d="M321.5,545.92c-5.37,5.34-11.51,9.77-18.26,13.21c-1.2,0.61-1.55,2.3-0.9,3.42c0.71,1.22,2.21,1.51,3.42,0.9
			c7.1-3.62,13.62-8.38,19.27-13.99C327.32,547.19,323.79,543.65,321.5,545.92L321.5,545.92z"/>
	</g>
</g>
<g>
	<g>
		<path class="st0" d="M304.65,539.2c-0.28,0.42-0.57,0.82-0.87,1.22c0.13-0.17,0.26-0.34,0.39-0.51c-1.07,1.38-2.31,2.62-3.7,3.69
			c0.17-0.13,0.34-0.26,0.51-0.39c-0.96,0.73-1.98,1.38-3.05,1.94c-1.16,0.6-1.6,2.32-0.9,3.42c0.76,1.18,2.18,1.54,3.42,0.9
			c3.45-1.8,6.36-4.51,8.51-7.74c0.72-1.09,0.25-2.81-0.9-3.42C306.82,537.64,305.43,538.04,304.65,539.2L304.65,539.2z"/>
	</g>
</g>
<g>
	<g>
		<path class="st0" d="M293.61,559.23c6.82,7.84,15.98,13.51,26.01,16.19c3.11,0.83,4.44-3.99,1.33-4.82
			c-9.26-2.47-17.52-7.67-23.81-14.9c-0.89-1.02-2.63-0.91-3.54,0C292.6,556.71,292.72,558.21,293.61,559.23L293.61,559.23z"/>
	</g>
</g>
<g>
	<g>
		<path class="st0" d="M297.78,537.27c-1.19,3.27-2.38,6.53-3.57,9.8c-0.45,1.23,0.5,2.79,1.75,3.08c1.41,0.32,2.6-0.43,3.08-1.75
			c1.19-3.27,2.38-6.53,3.57-9.8c0.45-1.23-0.5-2.79-1.75-3.08C299.44,535.2,298.26,535.95,297.78,537.27L297.78,537.27z"/>
	</g>
</g>
<g>
	<g>
		<path class="st0" d="M323.04,550.7c5.18,6.63,12.08,11.66,19.85,14.85c1.25,0.51,2.75-0.56,3.08-1.75
			c0.39-1.43-0.49-2.56-1.75-3.08c-6.88-2.83-13-7.62-17.64-13.57c-0.83-1.06-2.66-0.87-3.54,0
			C321.99,548.22,322.21,549.64,323.04,550.7L323.04,550.7z"/>
	</g>
</g>
<g>
	<g>
		<path class="st0" d="M318.64,558.83c2.29,0.57,4.07,2.52,5.86,3.94c2.11,1.67,4.26,3.29,6.54,4.72c4.51,2.83,9.48,4.81,14.83,5.13
			c3.21,0.19,3.2-4.81,0-5c-4.89-0.29-9.35-2.47-13.37-5.14c-2.01-1.33-3.92-2.79-5.78-4.31c-2.08-1.69-4.09-3.51-6.75-4.17
			C316.84,553.23,315.51,558.05,318.64,558.83L318.64,558.83z"/>
	</g>
</g>
<g>
	<g>
		<path class="st0" d="M327.51,561.99c4.22,0.9,8.35,2.17,12.36,3.79c1.22,0.49,2.8-0.53,3.08-1.75c0.33-1.45-0.44-2.55-1.75-3.08
			c-4-1.62-8.13-2.89-12.36-3.79c-1.28-0.27-2.76,0.38-3.08,1.75C325.48,560.17,326.15,561.7,327.51,561.99L327.51,561.99z"/>
	</g>
</g>
<g>
	<g>
		<path class="st0" d="M310.64,528.69c0.08,0.65,0.11,1.29,0.09,1.94c-0.01,0.31-0.04,0.61-0.07,0.92c-0.03,0.32,0.09-0.5,0-0.02
			c-0.04,0.18-0.07,0.36-0.11,0.55c-0.13,0.6-0.31,1.2-0.53,1.78c-0.03,0.07-0.24,0.56-0.08,0.22c0.16-0.34-0.07,0.14-0.1,0.21
			c-0.15,0.31-0.31,0.61-0.48,0.91c-0.15,0.27-0.32,0.53-0.49,0.79c-0.09,0.13-0.18,0.25-0.27,0.38c-0.34,0.49,0.22-0.25,0,0.01
			c-0.42,0.5-0.85,0.98-1.33,1.42c-0.22,0.21-0.46,0.43-0.71,0.6c0.52-0.36-0.26,0.16-0.4,0.25c-0.29,0.18-0.58,0.36-0.88,0.51
			c-0.14,0.07-0.27,0.14-0.41,0.21c-0.13,0.06-0.67,0.28-0.08,0.05c-1.21,0.49-2.2,1.69-1.75,3.08c0.38,1.16,1.78,2.27,3.08,1.75
			c3.14-1.28,5.73-3.44,7.47-6.36c1.62-2.72,2.45-6.03,2.06-9.18c-0.16-1.29-1.03-2.57-2.5-2.5
			C311.93,526.24,310.47,527.3,310.64,528.69L310.64,528.69z"/>
	</g>
</g>
<g>
	<g>
		<path class="st0" d="M313.37,534.64c-0.86,1.94-1.91,3.79-3.13,5.53c-0.14,0.19-0.27,0.38-0.41,0.57
			c-0.09,0.12-0.18,0.24-0.27,0.35c-0.21,0.28,0.28-0.35,0.07-0.09c-0.33,0.41-0.67,0.82-1.02,1.23c-0.72,0.82-1.48,1.6-2.27,2.35
			c-0.96,0.9-0.97,2.64,0,3.54c1.02,0.94,2.52,0.96,3.54,0c3.29-3.08,5.99-6.84,7.82-10.96c0.28-0.63,0.44-1.23,0.25-1.93
			c-0.16-0.58-0.61-1.21-1.15-1.49C315.7,533.17,313.93,533.36,313.37,534.64L313.37,534.64z"/>
	</g>
</g>
<g>
	<g>
		<path class="st0" d="M309.3,529.15c-0.01,0.09-0.02,0.18-0.03,0.26c0.03-0.22,0.06-0.44,0.09-0.66c-0.12,0.85-0.35,1.68-0.68,2.48
			c0.08-0.2,0.17-0.4,0.25-0.6c-0.34,0.79-0.77,1.54-1.3,2.22c0.13-0.17,0.26-0.34,0.39-0.51c-0.09,0.12-0.18,0.23-0.28,0.34
			c-0.44,0.52-0.73,1.07-0.73,1.77c0,0.61,0.27,1.35,0.73,1.77c0.48,0.44,1.1,0.76,1.77,0.73c0.63-0.03,1.34-0.23,1.77-0.73
			c0.78-0.93,1.47-1.91,1.95-3.03c0.27-0.64,0.54-1.27,0.71-1.94c0.18-0.69,0.28-1.4,0.36-2.11c0.07-0.59-0.33-1.36-0.73-1.77
			c-0.43-0.43-1.15-0.76-1.77-0.73c-0.65,0.03-1.32,0.24-1.77,0.73c-0.13,0.17-0.26,0.34-0.39,0.51
			C309.41,528.27,309.3,528.7,309.3,529.15L309.3,529.15z"/>
	</g>
</g>
<g>
	<g>
		<path class="st0" d="M319.63,546.19c-3.81,8.82-9.31,16.76-16.26,23.38c-2.33,2.22,1.2,5.76,3.54,3.54
			c7.24-6.89,13.08-15.22,17.05-24.39c0.54-1.24,0.37-2.68-0.9-3.42C322,544.68,320.17,544.95,319.63,546.19L319.63,546.19z"/>
	</g>
</g>
<g>
	<g>
		<path class="st0" d="M309.06,577.02c11.24-0.21,22.48-0.25,33.72-0.1c3.22,0.04,3.22-4.96,0-5c-11.24-0.15-22.48-0.11-33.72,0.1
			C305.85,572.08,305.84,577.08,309.06,577.02L309.06,577.02z"/>
	</g>
</g>
<g>
	<g>
		<path class="st0" d="M327.49,566.51c5.05,0.9,10.17,1.28,15.29,1.06c1.3-0.06,2.56-1.11,2.5-2.5c-0.06-1.31-1.1-2.56-2.5-2.5
			c-2.4,0.11-4.8,0.09-7.2-0.06c-2.49-0.16-4.44-0.4-6.76-0.81c-1.28-0.23-2.76,0.35-3.08,1.75
			C325.47,564.66,326.12,566.27,327.49,566.51L327.49,566.51z"/>
	</g>
</g>
<g>
	<g>
		<path class="st0" d="M323.69,573.5c-8.27,0.73-16.54,1.46-24.8,2.19c-1.34,0.12-2.5,1.06-2.5,2.5c0,1.26,1.15,2.62,2.5,2.5
			c8.27-0.73,16.54-1.46,24.8-2.19c1.35-0.12,2.5-1.06,2.5-2.5C326.19,574.74,325.05,573.38,323.69,573.5L323.69,573.5z"/>
	</g>
</g>
<g>
	<g>
		<path class="st0" d="M330.36,576.77c-4.58,0-9.17,0-13.75,0c-1.31,0-2.56,1.15-2.5,2.5c0.06,1.35,1.1,2.5,2.5,2.5
			c4.58,0,9.17,0,13.75,0c1.31,0,2.56-1.15,2.5-2.5C332.8,577.91,331.76,576.77,330.36,576.77L330.36,576.77z"/>
	</g>
</g>
<g>
	<g>
		<path class="st0" d="M311.83,544.29c7.75,13.1,23.55,16.42,37.61,17.14c3.22,0.17,3.21-4.84,0-5c-12.22-0.63-26.51-3.2-33.3-14.67
			C314.51,539,310.18,541.52,311.83,544.29L311.83,544.29z"/>
	</g>
</g>
<g>
	<g>
		<path class="st0" d="M205.03,505.13c5.42,5.99,12.58,10.34,20.38,12.45c3.11,0.84,4.44-3.98,1.33-4.82
			c-7.01-1.9-13.28-5.76-18.17-11.17c-0.91-1-2.61-0.92-3.54,0C204.04,502.59,204.13,504.13,205.03,505.13L205.03,505.13z"/>
	</g>
</g>
<g>
	<g>
		<path class="st0" d="M201,490.47c3.58,2.84,7.59,5,11.98,6.31c1.25,0.37,2.78-0.45,3.08-1.75c0.31-1.34-0.4-2.68-1.75-3.08
			c-0.97-0.29-1.93-0.62-2.87-1c-0.12-0.05-0.23-0.1-0.35-0.14c0.31,0.13,0.33,0.14,0.07,0.03c-0.23-0.1-0.46-0.21-0.69-0.31
			c-0.43-0.2-0.86-0.41-1.28-0.63c-0.87-0.45-1.72-0.95-2.54-1.48c-0.43-0.27-0.84-0.56-1.26-0.85c-0.21-0.15-0.41-0.3-0.61-0.45
			c-0.22-0.17-0.2-0.15,0.05,0.04c-0.1-0.08-0.2-0.16-0.3-0.24c-0.54-0.43-1.05-0.73-1.77-0.73c-0.61,0-1.35,0.27-1.77,0.73
			C200.17,487.83,199.91,489.6,201,490.47L201,490.47z"/>
	</g>
</g>
<g>
	<g>
		<path class="st0" d="M195.73,474.51c3.15,3.11,6.21,6.39,9.55,9.29c3.1,2.69,6.8,5.01,11.06,4.8c1.35-0.07,2.5-1.1,2.5-2.5
			c0-1.3-1.14-2.57-2.5-2.5c-1.54,0.08-2.78-0.24-4.13-0.95c-1.56-0.83-2.79-1.82-4.08-2.99c-3.06-2.78-5.93-5.78-8.87-8.69
			C196.97,468.71,193.43,472.25,195.73,474.51L195.73,474.51z"/>
	</g>
</g>
<g>
	<g>
		<path class="st0" d="M205.45,486.69c0.07,0.03,0.71,0.29,0.18,0.06c0.16,0.07,0.32,0.14,0.47,0.22c0.35,0.17,0.68,0.35,1.02,0.54
			c0.61,0.35,1.2,0.74,1.78,1.15c0.32,0.23,0.64,0.46,0.95,0.69c0.14,0.11,0.28,0.21,0.43,0.32c0.04,0.03,0.61,0.47,0.17,0.13
			c0.7,0.55,1.4,1.09,2.11,1.63c2.6,1.96,5.39,3.49,8.7,3.75c1.31,0.1,2.56-1.22,2.5-2.5c-0.06-1.44-1.1-2.39-2.5-2.5
			c-0.11-0.01-0.76-0.12-0.15,0c-0.13-0.03-0.27-0.05-0.4-0.07c-0.36-0.07-0.72-0.17-1.07-0.28c-0.16-0.05-0.32-0.11-0.47-0.17
			c-0.45-0.15,0.21,0.12-0.05-0.02c-0.33-0.17-0.67-0.32-1-0.5c-1.25-0.69-2.4-1.54-3.54-2.41c-0.32-0.24,0.46,0.36-0.09-0.07
			c-0.14-0.11-0.28-0.22-0.42-0.33c-0.39-0.31-0.79-0.61-1.18-0.91c-0.59-0.45-1.19-0.9-1.81-1.32c-1.34-0.92-2.76-1.66-4.29-2.22
			c-1.23-0.45-2.79,0.51-3.08,1.75C203.38,485.03,204.14,486.2,205.45,486.69L205.45,486.69z"/>
	</g>
</g>
<g>
	<g>
		<path class="st0" d="M210.05,543.54c-5.4,2.98-10.67,6.19-15.79,9.63c-1.08,0.73-1.66,2.24-0.9,3.42c0.7,1.08,2.26,1.68,3.42,0.9
			c5.12-3.44,10.39-6.65,15.79-9.63c1.15-0.63,1.62-2.3,0.9-3.42C212.73,543.28,211.28,542.86,210.05,543.54L210.05,543.54z"/>
	</g>
</g>
<g>
	<g>
		<path class="st0" d="M202.41,528.79c3.09,0.75,5.44,2.95,7.82,4.92c2.66,2.2,5.48,4.21,8.47,5.95c5.91,3.44,12.43,5.89,19.14,7.19
			c1.32,0.26,2.7-0.37,3.08-1.75c0.34-1.23-0.41-2.82-1.75-3.08c-6.6-1.28-12.91-3.65-18.68-7.12c-2.84-1.71-5.45-3.68-7.99-5.8
			c-2.63-2.2-5.37-4.32-8.76-5.15C200.62,523.2,199.28,528.02,202.41,528.79L202.41,528.79z"/>
	</g>
</g>
<g>
	<g>
		<path class="st0" d="M216.69,548.03c9.63,2.74,19.44,4.68,29.38,5.92c1.34,0.17,2.5-1.27,2.5-2.5c0-1.49-1.15-2.33-2.5-2.5
			c-9.48-1.18-18.86-3.13-28.05-5.74C214.92,542.33,213.59,547.16,216.69,548.03L216.69,548.03z"/>
	</g>
</g>
<g>
	<g>
		<path class="st0" d="M213.96,551.33c-0.01,0.12-0.03,0.23-0.04,0.35c0.03-0.22,0.06-0.44,0.09-0.66
			c-0.13,0.89-0.37,1.75-0.71,2.58c0.08-0.2,0.17-0.4,0.25-0.6c-0.37,0.86-0.84,1.67-1.4,2.41c0.13-0.17,0.26-0.34,0.39-0.51
			c-0.55,0.71-1.18,1.34-1.89,1.89c0.17-0.13,0.34-0.26,0.51-0.39c-0.15,0.12-0.31,0.23-0.47,0.34c-0.54,0.37-0.97,0.84-1.15,1.49
			c-0.16,0.6-0.09,1.4,0.25,1.93c0.69,1.07,2.27,1.69,3.42,0.9c1.61-1.11,2.97-2.5,3.98-4.18c1.02-1.71,1.56-3.57,1.78-5.54
			c0.06-0.6-0.33-1.36-0.73-1.77c-0.43-0.43-1.15-0.76-1.77-0.73c-0.65,0.03-1.32,0.24-1.77,0.73
			C214.22,550.08,214.04,550.63,213.96,551.33L213.96,551.33z"/>
	</g>
</g>
<g>
	<g>
		<path class="st0" d="M237.21,549.99c-6.51,7.5-15.31,12.57-25.06,14.46c-1.33,0.26-2.08,1.85-1.75,3.08
			c0.38,1.39,1.75,2,3.08,1.75c10.5-2.03,20.25-7.67,27.26-15.74c0.88-1.02,1-2.53,0-3.54C239.84,549.08,238.1,548.96,237.21,549.99
			L237.21,549.99z"/>
	</g>
</g>
<g>
	<g>
		<path class="st0" d="M218.1,554.7c-1.87,5.75-4.2,11.3-7,16.65c-0.63,1.2-0.31,2.72,0.9,3.42c1.13,0.66,2.79,0.3,3.42-0.9
			c2.99-5.72,5.51-11.7,7.51-17.85c0.42-1.28-0.49-2.73-1.75-3.08C219.82,552.58,218.51,553.41,218.1,554.7L218.1,554.7z"/>
	</g>
</g>
<g>
	<g>
		<path class="st0" d="M226.73,548.6c-1.15,1.95-0.98,4.53,0.36,6.36c1.32,1.8,3.23,2.81,5.31,3.48c4,1.29,8.3,1.15,12.45,0.96
			c1.3-0.06,2.56-1.11,2.5-2.5c-0.06-1.31-1.1-2.56-2.5-2.5c-1.62,0.07-3.24,0.14-4.86,0.11c-1.68-0.03-3.1-0.13-4.57-0.45
			c-0.76-0.16-1.5-0.37-2.23-0.63c-0.04-0.02-0.46-0.18-0.3-0.11c0.16,0.07-0.25-0.12-0.29-0.14c-0.34-0.17-0.69-0.36-0.99-0.59
			c0.21,0.16-0.01-0.02-0.08-0.09c-0.12-0.12-0.24-0.24-0.35-0.37c0.26,0.33-0.26-0.6-0.1-0.16c-0.02-0.06-0.18-0.67-0.13-0.38
			c0.05,0.24,0-0.21,0-0.27c0-0.34-0.12,0.27,0.01-0.04c0.16-0.39-0.3,0.49,0.08-0.16c0.66-1.13,0.3-2.79-0.9-3.42
			C228.95,547.07,227.43,547.39,226.73,548.6L226.73,548.6z"/>
	</g>
</g>
<g>
	<g>
		<path class="st0" d="M202,517.3c2.46,1,4.6,2.73,6.71,4.3c2.24,1.67,4.54,3.24,6.95,4.66c4.88,2.88,10.11,5.18,15.5,6.9
			c3.07,0.98,4.39-3.84,1.33-4.82c-5.28-1.69-10.33-3.98-15.07-6.85c-4.77-2.89-8.89-6.91-14.09-9.01
			c-1.25-0.51-2.75,0.55-3.08,1.75C199.86,515.65,200.74,516.79,202,517.3L202,517.3z"/>
	</g>
</g>
<g>
	<g>
		<path class="st0" d="M200.25,527.51c6.42,4.16,13.17,7.79,20.2,10.82c7.13,3.08,14.84,6.45,22.76,5.02
			c1.33-0.24,2.08-1.86,1.75-3.08c-0.38-1.4-1.74-1.99-3.08-1.75c-3.45,0.62-6.96-0.16-10.25-1.21c-3.38-1.08-6.68-2.43-9.92-3.87
			c-6.57-2.92-12.9-6.36-18.93-10.27C200.06,521.44,197.55,525.76,200.25,527.51L200.25,527.51z"/>
	</g>
</g>
<g>
	<g>
		<path class="st0" d="M214.35,536.9c4.46,5.9,7.91,12.61,13.06,17.98c4.69,4.88,10.95,8.63,17.88,8.57c3.22-0.03,3.22-5.03,0-5
			c-5.91,0.05-11.03-3.48-14.89-7.68c-4.56-4.96-7.7-11.03-11.74-16.39c-0.81-1.08-2.16-1.64-3.42-0.9
			C214.19,534.1,213.53,535.82,214.35,536.9L214.35,536.9z"/>
	</g>
</g>
<g>
	<g>
		<path class="st0" d="M201.06,498.05c6.49,9.79,18.14,15.74,29.91,14.94c1.35-0.09,2.5-1.08,2.5-2.5c0-1.28-1.15-2.59-2.5-2.5
			c-9.98,0.68-20.04-4.08-25.59-12.46C203.6,492.86,199.27,495.36,201.06,498.05L201.06,498.05z"/>
	</g>
</g>
<g>
	<g>
		<path class="st0" d="M226.71,555.61c4.56,3.06,9.12,6.12,13.68,9.18c2.22,1.49,4.44,3.01,6.68,4.48c2.08,1.37,4.45,2.58,7.02,2.33
			c1.34-0.13,2.5-1.05,2.5-2.5c0-1.25-1.15-2.63-2.5-2.5c-2.17,0.21-3.95-1.27-5.66-2.42c-2.11-1.42-4.22-2.83-6.33-4.25
			c-4.29-2.88-8.57-5.75-12.86-8.63C226.55,549.49,224.05,553.82,226.71,555.61L226.71,555.61z"/>
	</g>
</g>
<g>
	<g>
		<path class="st0" d="M221.21,557.63c3.97,2.8,7.88,5.74,12,8.33c3.91,2.47,8.2,4.37,12.88,4.52c3.22,0.11,3.21-4.89,0-5
			c-4.07-0.13-7.71-2.11-11.05-4.28c-3.85-2.5-7.55-5.25-11.3-7.89c-1.1-0.78-2.78-0.2-3.42,0.9
			C219.58,555.46,220.1,556.85,221.21,557.63L221.21,557.63z"/>
	</g>
</g>
<g>
	<g>
		<path class="st0" d="M216.86,559.68c4.61,3.41,9.13,7.11,13.94,10.24c4.62,3,9.97,2.86,15.24,2.35c1.34-0.13,2.5-1.06,2.5-2.5
			c0-1.25-1.15-2.63-2.5-2.5c-2.36,0.23-4.73,0.44-7.1,0.25c-2.4-0.19-4.41-1.07-6.36-2.43c-4.47-3.13-8.8-6.49-13.19-9.73
			c-1.09-0.8-2.79-0.18-3.42,0.9C215.22,557.53,215.77,558.88,216.86,559.68L216.86,559.68z"/>
	</g>
</g>
<g>
	<g>
		<path class="st0" d="M217.91,563.44c6.41,4.07,13.46,7.15,20.8,9.11c3.11,0.83,4.44-3.99,1.33-4.82
			c-6.96-1.85-13.53-4.75-19.61-8.6c-1.14-0.72-2.76-0.24-3.42,0.9C216.31,561.23,216.77,562.72,217.91,563.44L217.91,563.44z"/>
	</g>
</g>
<g>
	<g>
		<path class="st0" d="M238.1,572.89c1.63,0,3.25,0,4.88,0c0.64,0,1.31-0.28,1.77-0.73c0.43-0.43,0.76-1.15,0.73-1.77
			c-0.03-0.65-0.24-1.32-0.73-1.77c-0.49-0.45-1.09-0.73-1.77-0.73c-1.63,0-3.25,0-4.88,0c-0.64,0-1.31,0.28-1.77,0.73
			c-0.43,0.43-0.76,1.15-0.73,1.77c0.03,0.65,0.24,1.32,0.73,1.77C236.82,572.61,237.42,572.89,238.1,572.89L238.1,572.89z"/>
	</g>
</g>
<g>
	<g>
		<path class="st4" d="M264.02,553.48c-5.16,9.33-13.28,16.66-23.05,20.92c-1.24,0.54-1.52,2.35-0.9,3.42
			c0.75,1.28,2.18,1.44,3.42,0.9c10.48-4.58,19.32-12.71,24.84-22.71C269.89,553.19,265.58,550.66,264.02,553.48L264.02,553.48z"/>
	</g>
</g>
<g>
	<g>
		<path class="st4" d="M254.99,558.25c-5.88,8.36-13.16,18.57-24.35,19.34c-1.35,0.09-2.5,1.08-2.5,2.5c0,1.28,1.15,2.59,2.5,2.5
			c13.25-0.92,21.63-11.81,28.67-21.82c0.78-1.1,0.2-2.78-0.9-3.42C257.16,556.62,255.77,557.14,254.99,558.25L254.99,558.25z"/>
	</g>
</g>
<g>
	<g>
		<path class="st4" d="M256.98,572.58c1.82,0.44,3.36,1.41,4.94,2.39c1.6,0.99,3.22,1.94,4.89,2.82c3.53,1.86,7.22,3.44,11,4.76
			c1.28,0.44,2.73-0.51,3.08-1.75c0.38-1.38-0.47-2.63-1.75-3.08c-3.61-1.26-7.1-2.79-10.47-4.61c-3.38-1.83-6.57-4.43-10.35-5.35
			C255.19,567,253.85,571.82,256.98,572.58L256.98,572.58z"/>
	</g>
</g>
<g>
	<g>
		<path class="st4" d="M254.44,564.31c7.87,3.29,14.41,9.46,23.06,10.86c1.33,0.22,2.69-0.35,3.08-1.75
			c0.33-1.19-0.41-2.86-1.75-3.08c-8.52-1.38-15.25-7.6-23.06-10.86c-1.25-0.52-2.75,0.56-3.08,1.75
			C252.3,562.67,253.19,563.78,254.44,564.31L254.44,564.31z"/>
	</g>
</g>
<g>
	<g>
		<path class="st4" d="M254.18,537.75c1.21,3.54-0.89,6.91-3.1,9.55c-2.75,3.27-5.66,6.42-8.5,9.61c-0.9,1.01-0.99,2.54,0,3.54
			c0.91,0.91,2.64,1.01,3.54,0c3.19-3.59,6.57-7.08,9.51-10.88c2.87-3.7,4.98-8.44,3.37-13.15c-0.44-1.28-1.72-2.12-3.08-1.75
			C254.68,535.02,253.74,536.47,254.18,537.75L254.18,537.75z"/>
	</g>
</g>
<g>
	<g>
		<path class="st4" d="M251.51,543.23c-3.74,0.12-6.68,2.32-9.42,4.64c-2.81,2.39-5.54,4.87-8.18,7.44c-0.94,0.91-0.99,2.63,0,3.54
			c1.01,0.93,2.53,0.97,3.54,0c2.43-2.36,4.93-4.65,7.5-6.86c1.21-1.04,1.99-1.74,3.2-2.51c0.33-0.21,0.66-0.41,1-0.59
			c0.15-0.08,0.3-0.15,0.46-0.23c-0.24,0.11-0.01,0,0.1-0.04c0.36-0.13,0.72-0.24,1.08-0.32c0.05-0.01,0.51-0.09,0.29-0.06
			c-0.25,0.03,0.45-0.01,0.43-0.01c1.31-0.04,2.56-1.12,2.5-2.5C253.95,544.41,252.91,543.18,251.51,543.23L251.51,543.23z"/>
	</g>
</g>
<g>
	<g>
		<path class="st4" d="M245.02,548.65c-0.5,0.85-1.05,1.68-1.65,2.46c0.13-0.17,0.26-0.34,0.39-0.51c-1.21,1.57-2.61,2.98-4.18,4.2
			c0.17-0.13,0.34-0.26,0.51-0.39c-0.33,0.25-0.66,0.5-1,0.73c-0.54,0.38-0.97,0.84-1.15,1.49c-0.16,0.6-0.09,1.4,0.25,1.93
			c0.69,1.06,2.27,1.7,3.42,0.9c3.14-2.18,5.79-4.98,7.72-8.29c0.66-1.13,0.3-2.79-0.9-3.42
			C247.25,547.12,245.73,547.44,245.02,548.65L245.02,548.65z"/>
	</g>
</g>
<g>
	<g>
		<path class="st4" d="M268.09,556.76c0.9,2.2,2.04,4.16,3.52,6.02c1.35,1.7,2.98,3.14,4.76,4.39c1.07,0.75,2.83,0.23,3.42-0.9
			c0.68-1.28,0.25-2.62-0.9-3.42c-0.2-0.14-0.39-0.28-0.58-0.42c-0.35-0.26,0.35,0.28,0.11,0.09c-0.09-0.08-0.19-0.15-0.28-0.22
			c-0.35-0.29-0.69-0.59-1.02-0.9c-0.68-0.64-1.31-1.32-1.89-2.04c-0.06-0.07-0.12-0.15-0.18-0.22c0.45,0.54,0.19,0.24,0.09,0.11
			c-0.14-0.19-0.28-0.38-0.42-0.58c-0.26-0.37-0.5-0.75-0.73-1.14c-0.24-0.41-0.47-0.83-0.69-1.25c-0.1-0.19-0.19-0.38-0.28-0.58
			c-0.05-0.11-0.1-0.22-0.15-0.33c-0.19-0.42,0.22,0.54,0.03,0.07c-0.26-0.63-0.54-1.14-1.15-1.49c-0.54-0.31-1.33-0.45-1.93-0.25
			c-0.6,0.2-1.19,0.57-1.49,1.15C268.05,555.38,267.84,556.15,268.09,556.76L268.09,556.76z"/>
	</g>
</g>
<g>
	<g>
		<path class="st4" d="M254.47,562.07c6.01,10.91,17.49,18.13,29.86,19.1c1.35,0.11,2.5-1.22,2.5-2.5c0-1.44-1.15-2.39-2.5-2.5
			c-10.62-0.83-20.42-7.33-25.55-16.63C257.24,556.73,252.92,559.24,254.47,562.07L254.47,562.07z"/>
	</g>
</g>
<g>
	<g>
		<path class="st4" d="M257.38,567.37c4.99,2.32,10.16,4.24,15.47,5.68c1.26,0.34,2.77-0.43,3.08-1.75c0.3-1.32-0.4-2.71-1.75-3.08
			c-2.51-0.68-4.98-1.46-7.42-2.34c-2.51-0.91-4.51-1.75-6.85-2.84c-1.18-0.55-2.75-0.37-3.42,0.9
			C255.9,565.05,256.12,566.78,257.38,567.37L257.38,567.37z"/>
	</g>
</g>
<g>
	<g>
		<path class="st4" d="M257.66,565.58c-1.05,2.37-2.37,4.62-3.93,6.69c-0.36,0.48-0.4,1.37-0.25,1.93c0.16,0.58,0.61,1.21,1.15,1.49
			c0.58,0.31,1.28,0.46,1.93,0.25c0.2-0.08,0.4-0.17,0.6-0.25c0.38-0.22,0.67-0.52,0.9-0.9c1.56-2.08,2.88-4.32,3.93-6.69
			c0.28-0.64,0.44-1.23,0.25-1.93c-0.16-0.58-0.61-1.21-1.15-1.49c-0.58-0.31-1.28-0.46-1.93-0.25
			C258.57,564.61,257.92,564.99,257.66,565.58L257.66,565.58z"/>
	</g>
</g>
<g>
	<g>
		<path class="st4" d="M272.06,565.85c-6.26,4.16-12.63,8.15-19.1,11.97c-2.77,1.64-0.26,5.96,2.52,4.32
			c6.47-3.82,12.84-7.82,19.1-11.97c1.12-0.75,1.61-2.21,0.9-3.42C274.83,565.63,273.19,565.1,272.06,565.85L272.06,565.85z"/>
	</g>
</g>
<g>
	<g>
		<path class="st4" d="M261.23,566.03c-1.03,1.82-2.16,3.58-3.4,5.27c-0.14,0.2-0.29,0.39-0.43,0.58c-0.07,0.1-0.15,0.19-0.22,0.29
			c-0.19,0.25,0.29-0.37,0,0c-0.32,0.4-0.64,0.8-0.97,1.2c-0.68,0.81-1.39,1.6-2.11,2.38c-0.9,0.95-1.01,2.6,0,3.54
			c0.97,0.89,2.58,1.02,3.54,0c3.05-3.24,5.73-6.85,7.92-10.72c0.64-1.14,0.31-2.78-0.9-3.42
			C263.47,564.51,261.92,564.82,261.23,566.03L261.23,566.03z"/>
	</g>
</g>
<g>
	<g>
		<path class="st4" d="M263.49,562.85c5.91,0.36,11.82,0.72,17.73,1.08c1.35,0.08,2.5-1.21,2.5-2.5c0-1.42-1.15-2.42-2.5-2.5
			c-5.91-0.36-11.82-0.72-17.73-1.08c-1.35-0.08-2.5,1.21-2.5,2.5C260.99,561.77,262.14,562.76,263.49,562.85L263.49,562.85z"/>
	</g>
</g>
<g>
	<g>
		<path class="st4" d="M274.57,555.01c0.98-0.03,1.96-0.03,2.93,0.02c0.53,0.03,1.05,0.06,1.58,0.11c0.22,0.02,0.45,0.04,0.67,0.07
			c0.15,0.02,0.3,0.03,0.45,0.05c-0.25-0.04-0.29-0.04-0.11-0.01c1.98,0.31,3.91,0.74,5.82,1.34c1.25,0.4,2.78-0.47,3.08-1.75
			c0.31-1.37-0.41-2.65-1.75-3.08c-4.07-1.3-8.4-1.9-12.68-1.76c-1.31,0.04-2.56,1.12-2.5,2.5
			C272.13,553.82,273.17,555.05,274.57,555.01L274.57,555.01z"/>
	</g>
</g>
<g>
	<g>
		<path class="st4" d="M271.75,555.97c4.93,1,9.77,2.35,14.51,4.04c1.23,0.44,2.79-0.5,3.08-1.75c0.32-1.4-0.43-2.6-1.75-3.08
			c-4.73-1.69-9.58-3.04-14.51-4.04c-1.28-0.26-2.76,0.37-3.08,1.75C269.72,554.14,270.38,555.69,271.75,555.97L271.75,555.97z"/>
	</g>
</g>
<g>
	<g>
		<path class="st4" d="M263.71,559.38c1.67-0.25,3.38,0.66,4.77,1.47c1.76,1.03,3.4,2.26,5.13,3.33c3.74,2.33,7.73,4.22,11.86,5.76
			c1.27,0.47,2.74-0.53,3.08-1.75c0.38-1.4-0.48-2.6-1.75-3.08c-4.24-1.58-8.28-3.65-12.05-6.14c-3.84-2.53-7.53-5.14-12.37-4.42
			c-1.34,0.2-2.07,1.89-1.75,3.08C261.03,559.06,262.37,559.58,263.71,559.38L263.71,559.38z"/>
	</g>
</g>
<g>
	<g>
		<path class="st4" d="M276.79,559c1.92,0,3.84,0,5.77,0c0.64,0,1.31-0.28,1.77-0.73c0.43-0.43,0.76-1.15,0.73-1.77
			c-0.06-1.35-1.1-2.5-2.5-2.5c-1.92,0-3.84,0-5.77,0c-0.64,0-1.31,0.28-1.77,0.73c-0.43,0.43-0.76,1.15-0.73,1.77
			C274.35,557.86,275.39,559,276.79,559L276.79,559z"/>
	</g>
</g>
<g>
	<g>
		<path class="st4" d="M258.04,545.59c3.3,5.62,7.35,11.79,14.09,13.48c1.27,0.32,2.77-0.41,3.08-1.75c0.3-1.3-0.39-2.74-1.75-3.08
			c-0.36-0.09-0.71-0.19-1.05-0.31c-0.17-0.06-0.34-0.12-0.51-0.19c-0.57-0.22,0.49,0.24-0.06-0.03c-0.65-0.32-1.27-0.66-1.87-1.06
			c-0.15-0.1-0.29-0.21-0.44-0.31c-0.42-0.29,0.36,0.31-0.07-0.05c-0.26-0.21-0.51-0.43-0.76-0.65c-0.55-0.49-1.06-1.02-1.55-1.57
			c-0.23-0.25-0.45-0.51-0.67-0.78c-0.12-0.14-0.24-0.29-0.35-0.44c-0.36-0.44,0.24,0.33-0.07-0.09c-0.45-0.61-0.89-1.23-1.31-1.86
			c-0.84-1.25-1.61-2.55-2.38-3.85c-0.66-1.13-2.28-1.63-3.42-0.9C257.8,542.91,257.33,544.38,258.04,545.59L258.04,545.59z"/>
	</g>
</g>
<linearGradient id="SVGID_2_" gradientUnits="userSpaceOnUse" x1="288.7812" y1="421.0227" x2="305.5825" y2="421.0227">
	<stop  offset="5.618000e-03" style="stop-color:#886441"/>
	<stop  offset="0.1404" style="stop-color:#634522"/>
	<stop  offset="0.309" style="stop-color:#735229"/>
	<stop  offset="0.6517" style="stop-color:#603B0F"/>
	<stop  offset="0.8034" style="stop-color:#886441"/>
	<stop  offset="1" style="stop-color:#603B0F"/>
	<stop  offset="1" style="stop-color:#5F4421"/>
</linearGradient>
<polygon class="st9" points="288.78,597.27 288.78,244.78 305.58,244.78 305.58,597.27 "/>
<g>
	<g>
		<path class="st0" d="M212.27,518.3c6.16,3,12.16,6.34,17.96,9.99c1.14,0.72,2.75,0.24,3.42-0.9c0.7-1.2,0.25-2.7-0.9-3.42
			c-5.8-3.65-11.8-6.99-17.96-9.99c-1.21-0.59-2.7-0.33-3.42,0.9C210.73,515.98,211.05,517.7,212.27,518.3L212.27,518.3z"/>
	</g>
</g>
<g>
	<g>
		<path class="st0" d="M209.14,509.87c-0.33-0.04,0.3,0.17,0.11,0.06c-0.09-0.05,0.42,0.24,0.44,0.25c0.26,0.16,0.41,0.3,0.71,0.59
			c0.67,0.65,1.25,1.39,1.86,2.1c1.36,1.6,2.85,3.1,4.44,4.47c3.23,2.79,6.82,5.12,10.72,6.86c1.23,0.55,2.69,0.36,3.42-0.9
			c0.62-1.07,0.34-2.87-0.9-3.42c-3.9-1.74-7.53-4.05-10.68-6.94c-1.57-1.44-2.96-3.02-4.34-4.64c-1.59-1.85-3.34-3.11-5.79-3.44
			c-1.34-0.18-2.5,1.28-2.5,2.5C206.64,508.87,207.8,509.69,209.14,509.87L209.14,509.87z"/>
	</g>
</g>
<g>
	<g>
		<path class="st0" d="M218.03,518.99c-0.08,0.04-0.7,0.06-0.7,0.04c0.03,0.1,0.51,0.29,0.6,0.36c0.35,0.26,0.66,0.6,0.98,0.89
			c0.82,0.75,1.7,1.44,2.6,2.08c1.74,1.25,3.63,2.22,5.61,3.02c3.85,1.56,8.13,2.19,12.27,1.8c1.34-0.13,2.5-1.06,2.5-2.5
			c0-1.25-1.15-2.63-2.5-2.5c-4.1,0.39-8.27-0.27-11.98-2.11c-1.79-0.89-3.48-1.99-4.96-3.33c-2.01-1.83-4.17-3.42-6.94-2.07
			c-1.21,0.59-1.54,2.32-0.9,3.42C215.33,519.33,216.81,519.59,218.03,518.99L218.03,518.99z"/>
	</g>
</g>
<g>
	<g>
		<path class="st0" d="M216.3,512.73c0.14-0.06,0.28-0.11,0.42-0.15c-0.26,0.02-0.3,0.02-0.11,0.01c0.12,0,0.89,0.06,0.36-0.02
			c0.47,0.07,0.93,0.21,1.39,0.33c1.12,0.3,2.25,0.6,3.37,0.9c2.25,0.6,4.49,1.2,6.74,1.79c1.26,0.34,2.77-0.42,3.08-1.75
			c0.3-1.31-0.39-2.72-1.75-3.08c-2.42-0.64-4.84-1.29-7.25-1.93c-1.18-0.32-2.36-0.66-3.55-0.94c-1.3-0.31-2.73-0.49-4,0.01
			c-1.21,0.48-2.19,1.69-1.75,3.08C213.61,512.16,215,513.25,216.3,512.73L216.3,512.73z"/>
	</g>
</g>
<g>
	<g>
		<path class="st0" d="M215.43,514.54c3.18,0.57,5.54,1.84,8.43,3.2c3.08,1.46,6.16,2.71,9.59,2.98c1.35,0.11,2.5-1.23,2.5-2.5
			c0-1.44-1.15-2.39-2.5-2.5c-0.18-0.01-0.37-0.03-0.55-0.05c0.27,0.03-0.06-0.01-0.15-0.02c-0.36-0.06-0.71-0.13-1.07-0.22
			c-0.75-0.18-1.49-0.41-2.22-0.68c-1.29-0.47-2.43-1.02-3.84-1.69c-2.85-1.36-5.74-2.78-8.87-3.35c-1.33-0.24-2.69,0.36-3.08,1.75
			C213.35,512.68,214.1,514.3,215.43,514.54L215.43,514.54z"/>
	</g>
</g>
<g>
	<g>
		<path class="st0" d="M212.41,498.23c0.35,0.19,0.7,0.4,1.04,0.62c0.13,0.09,0.27,0.18,0.4,0.27c0.04,0.03,0.54,0.39,0.33,0.24
			c-0.19-0.14,0.33,0.27,0.32,0.26c0.12,0.1,0.25,0.21,0.37,0.31c0.28,0.24,0.55,0.48,0.82,0.73c1.14,1.04,2.21,2.14,3.37,3.16
			c2.57,2.25,5.47,4.02,8.95,4.26c1.31,0.09,2.56-1.21,2.5-2.5c-0.06-1.43-1.1-2.4-2.5-2.5c-0.16-0.01-0.31-0.02-0.47-0.04
			c0.48,0.06-0.05-0.02-0.14-0.05c-0.34-0.07-0.68-0.17-1.01-0.28c-0.15-0.05-0.29-0.11-0.44-0.16c0.24,0.1,0.12,0.05-0.05-0.03
			c-0.32-0.16-0.63-0.32-0.94-0.5c-0.31-0.18-0.61-0.37-0.9-0.57c-0.13-0.09-0.26-0.18-0.39-0.28c-0.62-0.44,0.18,0.15-0.16-0.12
			c-0.56-0.44-1.1-0.92-1.63-1.41c-2.2-2.04-4.29-4.26-6.94-5.72c-1.15-0.63-2.78-0.32-3.42,0.9
			C210.89,495.98,211.18,497.55,212.41,498.23L212.41,498.23z"/>
	</g>
</g>
<g>
	<g>
		<path class="st0" d="M219.46,520.18c2.76,5.14,8.43,8.47,14.25,8.47c1.31,0,2.56-1.15,2.5-2.5c-0.06-1.35-1.1-2.5-2.5-2.5
			c-0.3,0-0.6-0.01-0.9-0.03c-0.15-0.01-0.3-0.02-0.45-0.04c-0.25-0.02-0.4-0.18,0.04,0.01c-0.23-0.1-0.55-0.09-0.8-0.14
			c-0.29-0.06-0.59-0.13-0.87-0.22c-0.26-0.07-0.52-0.15-0.77-0.24c-0.17-0.06-0.34-0.12-0.51-0.19c-0.33-0.13,0.03-0.05,0.1,0.04
			c-0.11-0.15-0.64-0.3-0.82-0.39c-0.27-0.14-0.53-0.28-0.79-0.44c-0.23-0.14-0.46-0.28-0.68-0.44c-0.12-0.08-0.25-0.17-0.37-0.26
			c-0.39-0.26,0.24,0.2,0,0.01c-0.44-0.37-0.87-0.74-1.27-1.15c-0.21-0.21-0.41-0.44-0.61-0.66c-0.1-0.11-0.19-0.23-0.29-0.35
			c-0.22-0.26,0.35,0.49,0.01,0c-0.35-0.5-0.67-1-0.95-1.53c-0.62-1.15-2.31-1.61-3.42-0.9
			C219.19,517.52,218.8,518.95,219.46,520.18L219.46,520.18z"/>
	</g>
</g>
<g>
	<g>
		<path class="st0" d="M221.03,529.29c4.91,0,9.82,0,14.73,0c1.31,0,2.56-1.15,2.5-2.5c-0.06-1.35-1.1-2.5-2.5-2.5
			c-4.91,0-9.82,0-14.73,0c-1.31,0-2.56,1.15-2.5,2.5C218.59,528.14,219.63,529.29,221.03,529.29L221.03,529.29z"/>
	</g>
</g>
<g>
	<g>
		<path class="st0" d="M222.29,527.73c7.96,0.78,15.89,1.81,23.78,3.1c1.33,0.22,2.69-0.35,3.08-1.75c0.33-1.19-0.41-2.86-1.75-3.08
			c-8.33-1.35-16.71-2.45-25.11-3.27c-1.35-0.13-2.5,1.24-2.5,2.5C219.79,526.69,220.94,527.6,222.29,527.73L222.29,527.73z"/>
	</g>
</g>
<g>
	<g>
		<path class="st0" d="M192.74,532.51c-0.93,1.81-2.02,3.52-3.23,5.15c-0.19,0.26-0.01,0,0.08-0.1c-0.07,0.08-0.14,0.18-0.21,0.27
			c-0.16,0.2-0.32,0.4-0.48,0.59c-0.32,0.39-0.66,0.77-1,1.15c-0.7,0.77-1.44,1.51-2.2,2.22c-0.96,0.89-0.97,2.65,0,3.54
			c1.03,0.94,2.51,0.95,3.54,0c3.16-2.94,5.84-6.45,7.82-10.29c0.6-1.16,0.34-2.77-0.9-3.42
			C195.02,531.01,193.39,531.27,192.74,532.51L192.74,532.51z"/>
	</g>
</g>
<g>
	<g>
		<path class="st0" d="M198.42,535.76c-0.7,1.49-1.56,2.9-2.57,4.21c0.13-0.17,0.26-0.34,0.39-0.51c-1.04,1.33-2.22,2.55-3.53,3.62
			c-0.47,0.38-0.73,1.19-0.73,1.77c0,0.61,0.27,1.35,0.73,1.77c0.48,0.44,1.1,0.76,1.77,0.73c0.7-0.03,1.23-0.29,1.77-0.73
			c2.73-2.24,4.99-5.14,6.49-8.33c0.29-0.62,0.44-1.24,0.25-1.93c-0.16-0.58-0.61-1.21-1.15-1.49
			C200.73,534.27,199.01,534.49,198.42,535.76L198.42,535.76z"/>
	</g>
</g>
<g>
	<g>
		<path class="st0" d="M238.17,570.16c0,0.95,0,1.91,0,2.86c-0.01,0.34,0.06,0.67,0.22,0.96c0.1,0.31,0.27,0.58,0.52,0.8
			c0.23,0.24,0.49,0.42,0.8,0.52c0.3,0.16,0.62,0.23,0.96,0.22c0.65-0.03,1.32-0.24,1.77-0.73c0.45-0.49,0.73-1.09,0.73-1.77
			c0-0.95,0-1.91,0-2.86c0.01-0.34-0.06-0.67-0.22-0.96c-0.1-0.31-0.27-0.58-0.52-0.8c-0.23-0.24-0.49-0.42-0.8-0.52
			c-0.3-0.16-0.62-0.23-0.96-0.22c-0.65,0.03-1.32,0.24-1.77,0.73C238.45,568.88,238.17,569.48,238.17,570.16L238.17,570.16z"/>
	</g>
</g>
<linearGradient id="SVGID_3_" gradientUnits="userSpaceOnUse" x1="117.6591" y1="421.0227" x2="476.7046" y2="421.0227">
	<stop  offset="5.618000e-03" style="stop-color:#886441"/>
	<stop  offset="0.1404" style="stop-color:#634522"/>
	<stop  offset="0.309" style="stop-color:#735229"/>
	<stop  offset="0.6517" style="stop-color:#603B0F"/>
	<stop  offset="0.8034" style="stop-color:#886441"/>
	<stop  offset="1" style="stop-color:#603B0F"/>
	<stop  offset="1" style="stop-color:#5F4421"/>
</linearGradient>
<circle class="st10" cx="297.18" cy="421.02" r="171.02"/>
<g>
	<path class="st11" d="M236.72,304.79c-5.95-1.78-12.5,0.08-17.6,3.81c-5.1,3.74-8.9,9.18-11.96,14.92
		c-3.34,6.27-5.93,13.14-6.38,20.33c-0.45,7.19,1.45,14.76,6.11,19.98c3.84,4.31,9.16,6.69,14.41,8.68c6.43,2.44,13,4.47,19.65,6.07
		c-12.36-6.87-19.6-22.22-19.09-37.1s8.05-28.93,18.75-38.47"/>
	<g>
		<path class="st12" d="M237.05,303.58c-7.54-2.15-15.35,0.86-21.01,5.91c-5.87,5.24-9.98,12.53-12.96,19.73
			c-3.09,7.48-4.6,15.74-2.86,23.75c1.65,7.6,6.25,13.61,13.06,17.34c3.92,2.14,8.2,3.67,12.41,5.12c4.9,1.69,9.88,3.14,14.92,4.36
			c1.35,0.33,2.23-1.57,0.96-2.28c-9.39-5.29-15.34-15.16-17.55-25.52c-2.38-11.19-0.05-22.91,5.39-32.88
			c3.12-5.73,7.22-10.85,12.07-15.21c1.2-1.08-0.57-2.84-1.77-1.77c-9.03,8.11-15.69,19.07-18.12,31.01
			c-2.32,11.43-0.53,23.59,5.59,33.59c3.25,5.31,7.69,9.87,13.12,12.94c0.32-0.76,0.64-1.52,0.96-2.28
			c-7.89-1.91-15.84-4.26-23.28-7.54c-3.22-1.42-6.37-3.14-8.95-5.58c-2.53-2.39-4.37-5.41-5.51-8.69
			c-2.47-7.14-1.79-14.83,0.54-21.9c2.3-6.97,5.98-14.01,10.86-19.53c5.3-5.99,13.27-10.47,21.43-8.15
			C237.94,306.43,238.6,304.02,237.05,303.58L237.05,303.58z"/>
	</g>
</g>
<g class="st13">
	<g>
		<path class="st12" d="M378.16,335.03c2.74-0.62,5.47-1.25,8.21-1.87c1.26-0.29,1.11-2.05,0-2.41c-5.02-1.65-10.77-0.77-15.04,2.34
			c-1.1,0.8-0.49,2.65,0.96,2.28c1.84-0.46,3.77,0.45,4.67,2.09c0.53,0.97,1.99,0.7,2.28-0.3c0.56-1.89,1.13-3.78,1.69-5.67
			c-0.82-0.11-1.64-0.22-2.46-0.33c0.08,2.24-0.25,4.41-1,6.52c0.82,0.11,1.64,0.22,2.46,0.33c0-1.77,0.01-3.53,0.01-5.3
			c0-1.38-2.16-1.74-2.46-0.33c-0.33,1.54,0.32,3.16,1.76,3.89c0.79,0.4,1.51,0.02,1.84-0.75c0.9-2.15,1.81-4.29,2.71-6.44
			c-0.7,0.18-1.39,0.37-2.09,0.55c0.79,0.96,1.36,2.1,1.67,3.3c0.12,0.46,0.26,1.06,0.01,1.45c-0.07,0.11-0.04,0.04-0.09,0.06
			c-0.19,0.08-0.2,0.07-0.45,0.05c-0.54-0.05-1.16-0.48-1.34-1.13c-0.37-1.35,0.34-2.86,0.85-4.08c0.26-0.62-0.28-1.37-0.87-1.54
			c-0.72-0.2-1.28,0.25-1.54,0.87c-0.8,1.94-1.53,4.19-0.55,6.21c0.65,1.33,2.27,2.25,3.74,2.17c1.99-0.11,3.06-1.81,2.83-3.7
			c-0.24-2.01-1.23-3.88-2.5-5.43c-0.67-0.81-1.77-0.21-2.09,0.55c-0.9,2.15-1.81,4.29-2.71,6.44c0.61-0.25,1.22-0.5,1.84-0.75
			c-0.41-0.21-0.72-0.58-0.61-1.07c-0.82-0.11-1.64-0.22-2.46-0.33c0,1.77-0.01,3.53-0.01,5.3c0,1.46,2,1.63,2.46,0.33
			c0.81-2.3,1.18-4.74,1.09-7.18c-0.05-1.4-2.05-1.71-2.46-0.33c-0.56,1.89-1.13,3.78-1.69,5.67c0.76-0.1,1.52-0.2,2.28-0.3
			c-1.44-2.63-4.6-3.96-7.49-3.24c0.32,0.76,0.64,1.52,0.96,2.28c3.78-2.75,8.66-3.55,13.11-2.09c0-0.8,0-1.61,0-2.41
			c-2.74,0.62-5.47,1.25-8.21,1.87C375.93,332.98,376.59,335.39,378.16,335.03L378.16,335.03z"/>
	</g>
</g>
<g class="st14">
	<g>
		<path class="st12" d="M358.66,382.09c2.89-0.37,5.53-1.7,7.39-3.97c0.69-0.84,0.25-2.07-0.88-2.13c-3.06-0.17-5.99-1.13-8.59-2.74
			c-1.1-0.68-2.28,0.65-1.71,1.71c2.19,4.1,4.39,8.21,6.58,12.31c0.43,0.8,1.73,0.82,2.16,0c1.66-3.23,1.58-7.12-0.29-10.24
			c-0.36-0.59-1.11-0.77-1.71-0.45c-2.79,1.51-5.15,3.64-6.98,6.23c0.78,0.21,1.55,0.42,2.33,0.63c0.26-4.46,2.07-8.75,5.09-12.04
			c-0.7-0.41-1.39-0.81-2.09-1.22c-0.46,3.06-0.92,6.12-1.38,9.17c-0.1,0.67,0.17,1.34,0.87,1.54c0.59,0.16,1.44-0.2,1.54-0.87
			c0.46-3.06,0.92-6.12,1.38-9.17c0.17-1.12-1.16-2.23-2.09-1.22c-3.48,3.8-5.52,8.67-5.82,13.81c-0.08,1.34,1.67,1.56,2.33,0.63
			c1.59-2.24,3.68-4.03,6.08-5.33c-0.57-0.15-1.14-0.3-1.71-0.45c1.41,2.34,1.55,5.28,0.29,7.72c0.72,0,1.44,0,2.16,0
			c-2.19-4.1-4.39-8.21-6.58-12.31c-0.57,0.57-1.14,1.14-1.71,1.71c2.98,1.84,6.35,2.88,9.85,3.08c-0.29-0.71-0.59-1.42-0.88-2.13
			c-1.41,1.72-3.39,2.95-5.63,3.23c-0.67,0.09-1.25,0.51-1.25,1.25C357.41,381.45,357.99,382.18,358.66,382.09L358.66,382.09z"/>
	</g>
</g>
<g class="st15">
	<g>
		<path class="st12" d="M403.19,340.5c-1.02,0.84-0.82,2.39-0.02,3.3c1.02,1.17,2.68,0.95,3.99,0.49c2.84-0.99,5.66-2.02,8.49-3.03
			c0.96-0.34,1.31-1.74,0.3-2.28c-3.49-1.88-7.38-2.91-11.34-2.98c-0.7-0.01-1.21,0.58-1.25,1.25c-0.19,3.66,1.39,7.37,4.18,9.75
			c0.67,0.57,1.86,0.43,2.09-0.55c0.6-2.61,0.8-5.29,0.55-7.95c-0.05-0.55-0.35-1.05-0.92-1.21c-0.49-0.13-1.2,0.07-1.41,0.57
			c-0.67,1.55-1.33,3.09-2,4.64c-0.27,0.62-0.18,1.34,0.45,1.71c0.53,0.31,1.44,0.17,1.71-0.45c0.67-1.55,1.33-3.09,2-4.64
			c-0.78-0.21-1.55-0.42-2.33-0.63c0.22,2.45,0.08,4.89-0.46,7.29c0.7-0.18,1.39-0.37,2.09-0.55c-2.34-1.99-3.61-4.91-3.45-7.98
			c-0.42,0.42-0.83,0.83-1.25,1.25c3.52,0.06,6.98,0.96,10.08,2.63c0.1-0.76,0.2-1.52,0.3-2.28c-2.13,0.76-4.27,1.52-6.4,2.29
			c-0.97,0.35-1.99,0.85-3.01,1.02c-0.17,0.03-0.32,0-0.49,0c-0.14,0-0.13-0.11-0.03,0.02c-0.07-0.13-0.09-0.15-0.04-0.05
			c-0.04-0.15-0.04-0.16-0.02-0.03c-0.05,0.1-0.22,0.33-0.03,0.17c0.52-0.43,0.44-1.32,0-1.77
			C404.44,339.98,403.71,340.07,403.19,340.5L403.19,340.5z"/>
	</g>
</g>
<g class="st16">
	<g>
		<path class="st12" d="M352.57,449.55c2.74-0.62,5.47-1.25,8.21-1.87c1.26-0.29,1.11-2.05,0-2.41c-5.02-1.65-10.77-0.77-15.04,2.34
			c-1.1,0.8-0.49,2.65,0.96,2.28c1.84-0.46,3.77,0.45,4.67,2.09c0.53,0.97,1.99,0.7,2.28-0.3c0.56-1.89,1.13-3.78,1.69-5.67
			c-0.82-0.11-1.64-0.22-2.46-0.33c0.08,2.24-0.25,4.41-1,6.52c0.82,0.11,1.64,0.22,2.46,0.33c0-1.77,0.01-3.53,0.01-5.3
			c0-1.38-2.16-1.74-2.46-0.33c-0.33,1.54,0.32,3.16,1.76,3.89c0.79,0.4,1.51,0.02,1.84-0.75c0.9-2.15,1.81-4.29,2.71-6.44
			c-0.7,0.18-1.39,0.37-2.09,0.55c0.79,0.96,1.36,2.1,1.67,3.3c0.12,0.46,0.26,1.06,0.01,1.45c-0.07,0.11-0.04,0.04-0.09,0.06
			c-0.19,0.08-0.2,0.07-0.45,0.05c-0.54-0.05-1.16-0.48-1.34-1.13c-0.37-1.35,0.34-2.86,0.85-4.08c0.26-0.62-0.28-1.37-0.87-1.54
			c-0.72-0.2-1.28,0.25-1.54,0.87c-0.8,1.94-1.53,4.19-0.55,6.21c0.65,1.33,2.27,2.25,3.74,2.17c1.99-0.11,3.06-1.81,2.83-3.7
			c-0.24-2.01-1.23-3.88-2.5-5.43c-0.67-0.81-1.77-0.21-2.09,0.55c-0.9,2.15-1.81,4.29-2.71,6.44c0.61-0.25,1.22-0.5,1.84-0.75
			c-0.41-0.21-0.72-0.58-0.61-1.07c-0.82-0.11-1.64-0.22-2.46-0.33c0,1.77-0.01,3.53-0.01,5.3c0,1.46,2,1.63,2.46,0.33
			c0.81-2.3,1.18-4.74,1.09-7.18c-0.05-1.4-2.05-1.71-2.46-0.33c-0.56,1.89-1.13,3.78-1.69,5.67c0.76-0.1,1.52-0.2,2.28-0.3
			c-1.44-2.63-4.6-3.96-7.49-3.24c0.32,0.76,0.64,1.52,0.96,2.28c3.78-2.75,8.66-3.55,13.11-2.09c0-0.8,0-1.61,0-2.41
			c-2.74,0.62-5.47,1.25-8.21,1.87C350.33,447.5,351,449.91,352.57,449.55L352.57,449.55z"/>
	</g>
</g>
<g class="st16">
	<g>
		<path class="st12" d="M385.2,414.28c2.74-0.62,5.47-1.25,8.21-1.87c1.26-0.29,1.11-2.05,0-2.41c-5.02-1.65-10.77-0.77-15.04,2.34
			c-1.1,0.8-0.49,2.65,0.96,2.28c1.84-0.46,3.77,0.45,4.67,2.09c0.53,0.97,1.99,0.7,2.28-0.3c0.56-1.89,1.13-3.78,1.69-5.67
			c-0.82-0.11-1.64-0.22-2.46-0.33c0.08,2.24-0.25,4.41-1,6.52c0.82,0.11,1.64,0.22,2.46,0.33c0-1.77,0.01-3.53,0.01-5.3
			c0-1.38-2.16-1.74-2.46-0.33c-0.33,1.54,0.32,3.16,1.76,3.89c0.79,0.4,1.51,0.02,1.84-0.75c0.9-2.15,1.81-4.29,2.71-6.44
			c-0.7,0.18-1.39,0.37-2.09,0.55c0.79,0.96,1.36,2.1,1.67,3.3c0.12,0.46,0.26,1.06,0.01,1.45c-0.07,0.11-0.04,0.04-0.09,0.06
			c-0.19,0.08-0.2,0.07-0.45,0.05c-0.54-0.05-1.16-0.48-1.34-1.13c-0.37-1.35,0.34-2.86,0.85-4.08c0.26-0.62-0.28-1.37-0.87-1.54
			c-0.72-0.2-1.28,0.25-1.54,0.87c-0.8,1.94-1.53,4.19-0.55,6.21c0.65,1.33,2.27,2.25,3.74,2.17c1.99-0.11,3.06-1.81,2.83-3.7
			c-0.24-2.01-1.23-3.88-2.5-5.43c-0.67-0.81-1.77-0.21-2.09,0.55c-0.9,2.15-1.81,4.29-2.71,6.44c0.61-0.25,1.22-0.5,1.84-0.75
			c-0.41-0.21-0.72-0.58-0.61-1.07c-0.82-0.11-1.64-0.22-2.46-0.33c0,1.77-0.01,3.53-0.01,5.3c0,1.46,2,1.63,2.46,0.33
			c0.81-2.3,1.18-4.74,1.09-7.18c-0.05-1.4-2.05-1.71-2.46-0.33c-0.56,1.89-1.13,3.78-1.69,5.67c0.76-0.1,1.52-0.2,2.28-0.3
			c-1.44-2.63-4.6-3.96-7.49-3.24c0.32,0.76,0.64,1.52,0.96,2.28c3.78-2.75,8.66-3.55,13.11-2.09c0-0.8,0-1.61,0-2.41
			c-2.74,0.62-5.47,1.25-8.21,1.87C382.97,412.22,383.63,414.64,385.2,414.28L385.2,414.28z"/>
	</g>
</g>
<linearGradient id="SVGID_4_" gradientUnits="userSpaceOnUse" x1="120.9366" y1="425.6631" x2="473.427" y2="425.6631">
	<stop  offset="5.618000e-03" style="stop-color:#886441"/>
	<stop  offset="0.1404" style="stop-color:#634522"/>
	<stop  offset="0.309" style="stop-color:#735229"/>
	<stop  offset="0.6517" style="stop-color:#603B0F"/>
	<stop  offset="0.8034" style="stop-color:#886441"/>
	<stop  offset="1" style="stop-color:#603B0F"/>
	<stop  offset="1" style="stop-color:#5F4421"/>
</linearGradient>
<rect x="120.94" y="417.26" class="st17" width="352.49" height="16.8"/>
<g class="st5">
	<g>
		<path class="st12" d="M413.53,459.83c2.89-0.37,5.53-1.7,7.39-3.97c0.69-0.84,0.25-2.07-0.88-2.13c-3.06-0.17-5.99-1.13-8.59-2.74
			c-1.1-0.68-2.28,0.65-1.71,1.71c2.19,4.1,4.39,8.21,6.58,12.31c0.43,0.8,1.73,0.82,2.16,0c1.66-3.23,1.58-7.12-0.29-10.24
			c-0.36-0.59-1.11-0.77-1.71-0.45c-2.79,1.51-5.15,3.64-6.98,6.23c0.78,0.21,1.55,0.42,2.33,0.63c0.26-4.46,2.07-8.75,5.09-12.04
			c-0.7-0.41-1.39-0.81-2.09-1.22c-0.46,3.06-0.92,6.12-1.38,9.17c-0.1,0.67,0.17,1.34,0.87,1.54c0.59,0.16,1.44-0.2,1.54-0.87
			c0.46-3.06,0.92-6.12,1.38-9.17c0.17-1.12-1.16-2.23-2.09-1.22c-3.48,3.8-5.52,8.67-5.82,13.81c-0.08,1.34,1.67,1.56,2.33,0.63
			c1.59-2.24,3.68-4.03,6.08-5.33c-0.57-0.15-1.14-0.3-1.71-0.45c1.41,2.34,1.55,5.28,0.29,7.72c0.72,0,1.44,0,2.16,0
			c-2.19-4.1-4.39-8.21-6.58-12.31c-0.57,0.57-1.14,1.14-1.71,1.71c2.98,1.84,6.35,2.88,9.85,3.08c-0.29-0.71-0.59-1.42-0.88-2.13
			c-1.41,1.72-3.39,2.95-5.63,3.23c-0.67,0.09-1.25,0.51-1.25,1.25C412.28,459.19,412.86,459.91,413.53,459.83L413.53,459.83z"/>
	</g>
</g>
<g class="st18">
	<g>
		<path class="st12" d="M409.74,396.65c2.74-0.62,5.47-1.25,8.21-1.87c1.26-0.29,1.11-2.05,0-2.41c-5.02-1.65-10.77-0.77-15.04,2.34
			c-1.1,0.8-0.49,2.65,0.96,2.28c1.84-0.46,3.77,0.45,4.67,2.09c0.53,0.97,1.99,0.7,2.28-0.3c0.56-1.89,1.13-3.78,1.69-5.67
			c-0.82-0.11-1.64-0.22-2.46-0.33c0.08,2.24-0.25,4.41-1,6.52c0.82,0.11,1.64,0.22,2.46,0.33c0-1.77,0.01-3.53,0.01-5.3
			c0-1.38-2.16-1.74-2.46-0.33c-0.33,1.54,0.32,3.16,1.76,3.89c0.79,0.4,1.51,0.02,1.84-0.75c0.9-2.15,1.81-4.29,2.71-6.44
			c-0.7,0.18-1.39,0.37-2.09,0.55c0.79,0.96,1.36,2.1,1.67,3.3c0.12,0.46,0.26,1.06,0.01,1.45c-0.07,0.11-0.04,0.04-0.09,0.06
			c-0.19,0.08-0.2,0.07-0.45,0.05c-0.54-0.05-1.16-0.48-1.34-1.13c-0.37-1.35,0.34-2.86,0.85-4.08c0.26-0.62-0.28-1.37-0.87-1.54
			c-0.72-0.2-1.28,0.25-1.54,0.87c-0.8,1.94-1.53,4.19-0.55,6.21c0.65,1.33,2.27,2.25,3.74,2.17c1.99-0.11,3.06-1.81,2.83-3.7
			c-0.24-2.01-1.23-3.88-2.5-5.43c-0.67-0.81-1.77-0.21-2.09,0.55c-0.9,2.15-1.81,4.29-2.71,6.44c0.61-0.25,1.22-0.5,1.84-0.75
			c-0.41-0.21-0.72-0.58-0.61-1.07c-0.82-0.11-1.64-0.22-2.46-0.33c0,1.77-0.01,3.53-0.01,5.3c0,1.46,2,1.63,2.46,0.33
			c0.81-2.3,1.18-4.74,1.09-7.18c-0.05-1.4-2.05-1.71-2.46-0.33c-0.56,1.89-1.13,3.78-1.69,5.67c0.76-0.1,1.52-0.2,2.28-0.3
			c-1.44-2.63-4.6-3.96-7.49-3.24c0.32,0.76,0.64,1.52,0.96,2.28c3.78-2.75,8.66-3.55,13.11-2.09c0-0.8,0-1.61,0-2.41
			c-2.74,0.62-5.47,1.25-8.21,1.87C407.51,394.59,408.18,397,409.74,396.65L409.74,396.65z"/>
	</g>
</g>
</svg>
