<svg xmlns="http://www.w3.org/2000/svg" xmlns:xlink="http://www.w3.org/1999/xlink" viewBox="0 0 359.04 359.04"><defs><style>.cls-1{fill:#205027;}.cls-2{stroke:#414042;fill:url(#linear-gradient);}.cls-11,.cls-2{stroke-miterlimit:10;}.cls-3{fill:#1f562a;}.cls-4{fill:#1b6131;}.cls-5{fill:#1e411d;}.cls-6{opacity:0.71;}.cls-7{fill:#e6e7e8;}.cls-8{opacity:0.84;}.cls-9{fill:#fff;}.cls-10{fill:url(#linear-gradient-2);}.cls-11{fill:none;stroke-width:17px;stroke:url(#linear-gradient-3);}.cls-12{fill:#fcf7b7;}.cls-13{fill:#fdf7b6;}.cls-14{opacity:0.86;}.cls-15{opacity:0.82;}.cls-16{opacity:0.73;}.cls-17{opacity:0.77;}.cls-18{fill:url(#linear-gradient-4);}.cls-19{opacity:0.83;}</style><linearGradient id="linear-gradient" x1="538.08" y1="179.37" x2="537.11" y2="179.37" gradientTransform="matrix(1, 0, 0, -1, 0, 358.89)" gradientUnits="userSpaceOnUse"><stop offset="0.2" stop-color="#414042"/><stop offset="0.21" stop-color="#414042"/><stop offset="0.63" stop-color="#3f3e40"/><stop offset="0.78" stop-color="#393839"/><stop offset="0.88" stop-color="#2d2c2e"/><stop offset="0.97" stop-color="#1d1c1d"/><stop offset="1" stop-color="#151515"/></linearGradient><linearGradient id="linear-gradient-2" x1="171.12" y1="179.36" x2="187.92" y2="179.36" gradientTransform="matrix(1, 0, 0, -1, 0, 358.89)" gradientUnits="userSpaceOnUse"><stop offset="0.01" stop-color="#886441"/><stop offset="0.14" stop-color="#634522"/><stop offset="0.31" stop-color="#735229"/><stop offset="0.65" stop-color="#603b0f"/><stop offset="0.8" stop-color="#886441"/><stop offset="1" stop-color="#603b0f"/><stop offset="1" stop-color="#5f4421"/></linearGradient><linearGradient id="linear-gradient-3" x1="0" y1="179.37" x2="359.04" y2="179.37" xlink:href="#linear-gradient-2"/><linearGradient id="linear-gradient-4" x1="3.28" y1="174.73" x2="355.77" y2="174.73" xlink:href="#linear-gradient-2"/></defs><title>night</title><g id="Layer_2" data-name="Layer 2"><g id="Layer_1-2" data-name="Layer 1"><path class="cls-1" d="M86.29,295.21a6.64,6.64,0,0,1,0,1.26c0-.43,0,.09,0,.19s-.11.4-.17.59c-.17.63.18-.26-.13.32-.08.15-.15.3-.24.45s-.27.43-.41.65c0,.07-.23.33-.08.12a13,13,0,0,1-1.86,1.92,18.29,18.29,0,0,1-2,1.54,66.28,66.28,0,0,1-11,6.18,2.53,2.53,0,0,0-.9,3.42,2.56,2.56,0,0,0,3.42.9,64.61,64.61,0,0,0,11.94-6.86c3.36-2.47,7-6.12,6.41-10.69a2.58,2.58,0,0,0-2.5-2.5,2.52,2.52,0,0,0-2.48,2.51Z"/><circle class="cls-2" cx="179.52" cy="179.52" r="171.02"/><path class="cls-3" d="M78.82,236.19c1.74,26.22-1.83,52.49-6,78.44a3.82,3.82,0,0,0,.36,3,3.73,3.73,0,0,0,2.45,1l42.41,6.76c-.09-4-1.6-7.91-3.08-11.67L92,255.42c-3.15-8-6.34-16-11.22-23.09"/><path class="cls-4" d="M76.32,236.19c1.12,17.13,0,34.32-2.06,51.34-1,8.51-2.31,17-3.66,25.47-.29,1.85-.75,3.89.27,5.62s2.79,2.26,4.63,2.55c4.27.69,8.55,1.36,12.82,2l29.09,4.64a2.53,2.53,0,0,0,3.16-2.41c-.24-6.6-3.35-12.78-5.73-18.82l-7.59-19.22c-4.93-12.49-9.76-25-14.82-37.47-2.66-6.54-5.54-13-9.55-18.85a2.57,2.57,0,0,0-3.42-.9,2.53,2.53,0,0,0-.9,3.42,87.18,87.18,0,0,1,8.36,16c2.49,6,4.8,12,7.18,18.08l14.63,37c1.39,3.53,2.8,7.06,4.18,10.59,1.27,3.26,2.53,6.6,2.65,10.13l3.16-2.41-24.9-4-12.33-2c-1.94-.31-3.94-.52-5.86-.95-.19,0-.56-.08-.67-.22,0,0,.22.26.25.12.16-.79.19-1.65.31-2.45,2.59-16.37,4.93-32.82,5.84-49.38a234,234,0,0,0-.06-28,2.49,2.49,0,1,0-5,0Z"/><path class="cls-3" d="M135.66,257.2c1.74,25.21-1.83,50.47-6,75.43a3.53,3.53,0,0,0,.36,2.88,3.85,3.85,0,0,0,2.45,1l42.41,6.5c-.09-3.89-1.6-7.6-3.08-11.22l-23-56.1c-3.15-7.67-6.34-15.42-11.22-22.2"/><path class="cls-5" d="M133.16,257.2c1.13,16.71,0,33.47-2.15,50.06-1,8.18-2.37,16.32-3.69,24.46-.32,2-.48,4.12,1.08,5.68,1.32,1.32,3.17,1.49,4.92,1.75l12.57,1.93,28.35,4.35c1.52.23,3.23-.63,3.16-2.41-.24-6.3-3.28-12.14-5.63-17.86q-3.78-9.2-7.55-18.39c-5-12.11-9.86-24.27-14.94-36.33-2.67-6.33-5.56-12.58-9.57-18.19a2.57,2.57,0,0,0-3.42-.9,2.52,2.52,0,0,0-.9,3.42c7,9.88,11,21.73,15.6,32.87l14.82,36.1c1.34,3.26,2.69,6.52,4,9.78,1.23,3,2.44,6.19,2.57,9.51l3.16-2.41-24.16-3.7L139.07,335l-5.42-.83a9.36,9.36,0,0,1-1.85-.4c.41.15.11.73.25,0,.09-.47.12-1,.2-1.45,2.63-15.94,5-32,5.95-48.1a215.58,215.58,0,0,0,0-27,2.55,2.55,0,0,0-2.5-2.5,2.48,2.48,0,0,0-2.49,2.48Z"/><g class="cls-6"><path class="cls-7" d="M189,260.59l67.08.13c5.48,0,11,0,16.42-.44,4.76-.4,9.94-1.4,12.84-4.79s1.33-9.65-3.43-10c-1-.08-2.17.08-3-.49a3.3,3.3,0,0,1-1.05-1.92c-1.85-6.16-7.46-11.3-14.3-13.14-5.7-1.53-11.82-.85-17.72-.15a36.45,36.45,0,0,0-7.81,1.5c-1.68.59-3.25,1.42-5,1.86-3.67.94-7.57,0-11.38-.2s-8.24.43-10.19,3.36c-.61.91-1,2-2,2.56a4.81,4.81,0,0,1-2.67.23c-4.53-.52-10.72-.73-12,3.19a26.23,26.23,0,0,1-.6,2.93,6.58,6.58,0,0,1-2.64,2.53l-10.09,6.62A4.6,4.6,0,0,0,179.8,256c-.75,1.52.71,3.32,2.48,3.8a11.15,11.15,0,0,0,5.48-.4"/><path class="cls-7" d="M189,261.84l59.37.11c4.9,0,9.81.06,14.71,0a88.93,88.93,0,0,0,13.15-.87c3.51-.58,7.26-1.75,9.74-4.44a7.87,7.87,0,0,0,1.63-7.87,6.7,6.7,0,0,0-6.49-4.58c-1.06,0-1.59-.1-1.95-1.16-.29-.86-.57-1.71-.94-2.54a19.55,19.55,0,0,0-2.67-4.28c-5.24-6.52-13.41-8.72-21.48-8.43a80.6,80.6,0,0,0-13.68,1.54,51.41,51.41,0,0,0-6.4,2.2,16.18,16.18,0,0,1-6.81.68c-4-.3-8-1.13-12,.1a9.06,9.06,0,0,0-4.22,2.57,14.5,14.5,0,0,0-1.27,1.92,2.28,2.28,0,0,1-2.55,1.07c-3.15-.26-6.48-.72-9.55.33a6.34,6.34,0,0,0-3.35,2.37c-1,1.56-.51,3.74-1.9,5a41.33,41.33,0,0,1-5.66,3.83c-2,1.32-4,2.61-6,4-1.41.95-2.7,2.24-2.34,4.09a4.82,4.82,0,0,0,3.21,3.4c2.09.74,4.4.21,6.48-.3,1.56-.38.9-2.79-.66-2.41-1.82.45-4.49,1.22-6-.29s1.48-2.91,2.6-3.64l5.45-3.57a29.17,29.17,0,0,0,4.89-3.42,5,5,0,0,0,1.22-1.91c.31-.91.22-1.93.56-2.83a3.76,3.76,0,0,1,2.79-2.06c3-.79,5.92-.08,8.91,0a4.43,4.43,0,0,0,4-2.2,7,7,0,0,1,3.09-3.11c3.33-1.53,7.2-.89,10.7-.53a25.75,25.75,0,0,0,6.14.08,25.24,25.24,0,0,0,5.81-1.86c4-1.57,8.51-1.86,12.76-2.25,7.74-.71,15.76-.15,21.67,5.47a18.67,18.67,0,0,1,3.14,3.89,25.31,25.31,0,0,1,1.8,4.26,3.75,3.75,0,0,0,3.62,2.52c1.38.09,2.58.08,3.63,1.11a5.31,5.31,0,0,1,.51,6.53c-1.89,2.73-5.63,3.75-8.71,4.3a78.23,78.23,0,0,1-12.14.84c-4.48.08-9,0-13.45,0l-54.65-.1H189a1.24,1.24,0,0,0,0,2.48Z"/></g><g class="cls-8"><path class="cls-9" d="M127.4,58.27c-.13-4.64,5.07-8,9.69-7.65s8.66,3.13,12.42,5.84a21.71,21.71,0,0,1,36.42-8.79c3.07-1.3,6.28-2.62,9.61-2.44s6.81,2.34,7.33,5.64c.21,1.32-.06,2.72.39,4,.36,1,1.15,1.83,1.5,2.85,1.08,3.1-2.38,6.06-5.64,6.47s-6.61-.58-9.83,0c-2.17.42-4.14,1.55-6.21,2.32a20.14,20.14,0,0,1-15.87-.86A31.33,31.33,0,0,0,163,63.62a17.69,17.69,0,0,0-7-.35l-41.18,3.38a11,11,0,0,1,12-8.86"/><path class="cls-9" d="M128.65,58.27c0-3.87,4.09-6.34,7.61-6.42,4.74-.1,9,3,12.62,5.69a1.27,1.27,0,0,0,1.84-.75,20.46,20.46,0,0,1,34.33-8.23,1.2,1.2,0,0,0,1.22.32c3.37-1.42,7.29-3.18,11-2.08a6.64,6.64,0,0,1,3.67,2.53c1.07,1.59.59,3.44.95,5.22.32,1.59,2,3,1.8,4.63s-1.68,2.68-3,3.26a11.46,11.46,0,0,1-5.58.5,24.67,24.67,0,0,0-5.95,0,24.5,24.5,0,0,0-5.36,1.92,19.65,19.65,0,0,1-5.43,1.5,19,19,0,0,1-10.95-2,21.34,21.34,0,0,0-5-2.23,18.91,18.91,0,0,0-5.57-.23c-4.26.31-8.52.7-12.79,1L114.8,65.4,116,67A9.83,9.83,0,0,1,126.83,59c1.59.21,1.58-2.3,0-2.5a12.27,12.27,0,0,0-13.23,9.78,1.27,1.27,0,0,0,1.21,1.58l28.53-2.34c4.65-.38,9.31-.83,14-1.14a12.66,12.66,0,0,1,6.39.85c1.77.83,3.41,1.87,5.27,2.54a21.58,21.58,0,0,0,11.81.72,32.34,32.34,0,0,0,5.63-2A14.47,14.47,0,0,1,193,65.31c3.94.19,7.86.73,11.05-2.1A6,6,0,0,0,206.19,59c.06-2.06-1.6-3.3-1.91-5.19-.35-2.12,0-4-1.29-5.9a9.16,9.16,0,0,0-4.24-3.25c-4.4-1.74-9.07.07-13.16,1.79l1.22.32a23.55,23.55,0,0,0-17.07-7,22.87,22.87,0,0,0-16.35,7.48,23.39,23.39,0,0,0-5.09,8.84l1.84-.75c-4.37-3.15-9.53-6.71-15.21-5.91-4.45.63-8.78,4-8.78,8.8a1.25,1.25,0,0,0,2.5,0Z"/></g><path class="cls-1" d="M78.11,232.82a106.69,106.69,0,0,1-7.48,18.81,2.56,2.56,0,0,0,.9,3.42,2.53,2.53,0,0,0,3.42-.9,113.5,113.5,0,0,0,8-20c.91-3.1-3.91-4.42-4.82-1.33Z"/><path class="cls-1" d="M81.87,238a81.18,81.18,0,0,1-6.36,14.62,2.5,2.5,0,1,0,4.32,2.52,90.92,90.92,0,0,0,6.86-15.82,2.53,2.53,0,0,0-1.75-3.08A2.57,2.57,0,0,0,81.87,238Z"/><path class="cls-1" d="M97.27,277.55A30.86,30.86,0,0,1,79.45,299a2.52,2.52,0,0,0-.9,3.42,2.57,2.57,0,0,0,3.42.9,35.51,35.51,0,0,0,20.12-24.42c.71-3.14-4.11-4.47-4.82-1.33Z"/><path class="cls-1" d="M82,247.83l-9,14.25a2.52,2.52,0,0,0,.9,3.42,2.55,2.55,0,0,0,3.42-.9l9-14.25a2.52,2.52,0,0,0-.9-3.42,2.56,2.56,0,0,0-3.42.9Z"/><path class="cls-1" d="M81.21,255.67a88.22,88.22,0,0,1-10.25,22c-1.75,2.71,2.58,5.22,4.32,2.52A93.12,93.12,0,0,0,86,257c.94-3.07-3.89-4.39-4.83-1.32Z"/><path class="cls-1" d="M97.54,286.45q7.3,7.32,15.11,14.1c4.84,4.19,9.79,8.67,16,10.62,3.08,1,4.4-3.86,1.33-4.82-5.64-1.76-10.18-6.16-14.53-10q-7.43-6.48-14.39-13.47c-2.28-2.3-5.82,1.24-3.54,3.52Z"/><path class="cls-1" d="M79.86,239.33a64.13,64.13,0,0,0,25.23,20.82,2.57,2.57,0,0,0,3.42-.9,2.51,2.51,0,0,0-.9-3.42,59.21,59.21,0,0,1-23.44-19,2.57,2.57,0,0,0-3.42-.9,2.54,2.54,0,0,0-.89,3.43Z"/><path class="cls-1" d="M74.41,245.62c5,5.16,10,10.33,15.28,15.13,4.82,4.34,10.35,9.75,17.28,9.74,3.22,0,3.22-5,0-5-2.81,0-5.24-1.39-7.46-3a83.72,83.72,0,0,1-7.33-6.23c-4.93-4.53-9.59-9.36-14.23-14.18-2.24-2.32-5.77,1.22-3.54,3.54Z"/><path class="cls-1" d="M88.17,250.84l10.26,12.44c3.12,3.78,7.19,7.45,12.49,6.15,3.12-.77,1.8-5.59-1.33-4.82-3.71.91-6.67-3.71-8.65-6.11l-9.23-11.2a2.53,2.53,0,0,0-3.54,0,2.56,2.56,0,0,0,0,3.54Z"/><path class="cls-1" d="M85.74,274.45c3.66.92,6.88,3.88,9.77,6.2,3,2.44,6,5,9.06,7.44,6.16,4.93,12.72,9.48,20.44,11.57,3.11.84,4.44-4,1.33-4.82-7.37-2-13.62-6.52-19.46-11.28-3-2.47-6-5-9.07-7.42-3.24-2.54-6.66-5.47-10.73-6.5-3.13-.8-4.46,4-1.34,4.81Z"/><path class="cls-1" d="M84.09,265.48c.34,1.34-.57,2.75-1.42,3.91-1.11,1.51-2.42,2.9-3.63,4.33l-8.23,9.67a2.57,2.57,0,0,0,0,3.54,2.53,2.53,0,0,0,3.54,0L83.62,276c2.84-3.34,6.51-7.08,5.29-11.87-.79-3.13-5.61-1.81-4.82,1.32Z"/><path class="cls-1" d="M87.67,265.82c.22.38-.62,1.63-.8,2-.64,1.21-1.31,2.41-2,3.59q-2,3.45-4.39,6.7A83.37,83.37,0,0,1,70,289.91c-2.35,2.21,1.19,5.74,3.54,3.54a90.32,90.32,0,0,0,12-13.88,84.56,84.56,0,0,0,4.71-7.52c1.47-2.64,3.46-5.76,1.73-8.75-1.62-2.79-5.94-.27-4.32,2.52Z"/><path class="cls-1" d="M90.07,268.16c0,5.24-3.51,10-6.42,14.06a87.65,87.65,0,0,1-10.76,12.41c-2.32,2.24,1.22,5.77,3.54,3.54a94,94,0,0,0,11.8-13.79c3.37-4.81,6.8-10.14,6.84-16.22,0-3.22-5-3.22-5,0Z"/><path class="cls-1" d="M92,274.55a41.1,41.1,0,0,1-19.51,16.64,2.59,2.59,0,0,0-1.75,3.08A2.53,2.53,0,0,0,73.78,296a46.68,46.68,0,0,0,22.5-18.94c1.68-2.76-2.64-5.27-4.32-2.53Z"/><path class="cls-1" d="M91.47,288.74a116.34,116.34,0,0,0,36,11.16,2.59,2.59,0,0,0,3.08-1.75,2.52,2.52,0,0,0-1.75-3.08A112.44,112.44,0,0,1,94,284.41c-2.87-1.42-5.4,2.89-2.52,4.33Z"/><path class="cls-1" d="M108.16,295.72a89.2,89.2,0,0,0,15.79,12,86.94,86.94,0,0,0,8.72,4.55c2.75,1.24,6.57,3.37,9.42,1.22a2.58,2.58,0,0,0,.9-3.42,2.52,2.52,0,0,0-3.42-.9c-.74.56-1.86-.14-2.61-.46-1.32-.55-2.61-1.14-3.89-1.76a84.41,84.41,0,0,1-7.69-4.22,82.61,82.61,0,0,1-13.69-10.59c-2.33-2.21-5.87,1.32-3.53,3.54Z"/><path class="cls-1" d="M106.47,302.17a72.57,72.57,0,0,0,33.07,10.62,2.52,2.52,0,0,0,2.5-2.5,2.55,2.55,0,0,0-2.5-2.5A67,67,0,0,1,109,297.85c-2.75-1.7-5.26,2.63-2.53,4.32Z"/><path class="cls-1" d="M96.42,300.66c2-.32,4.14.41,6.07,1l6.39,1.89,13,3.84c3.09.91,4.41-3.91,1.33-4.82l-14-4.12c-4.58-1.35-9.33-3.34-14.17-2.58a2.53,2.53,0,0,0-1.75,3.08,2.57,2.57,0,0,0,3.08,1.74Z"/><path class="cls-1" d="M95.72,277.59a9.41,9.41,0,0,1,4,2.09c1.39,1.16,2.65,2.45,4,3.6A29.65,29.65,0,0,0,114.65,289c3.1.86,4.43-4,1.33-4.82a24.18,24.18,0,0,1-9.62-5.22c-2.8-2.49-5.5-5.36-9.31-6.21A2.56,2.56,0,0,0,94,274.51a2.53,2.53,0,0,0,1.75,3.08Z"/><path class="cls-1" d="M85,261q-4.71,4.85-9.14,9.95a2.5,2.5,0,1,0,3.54,3.54q4.44-5.1,9.14-10A2.5,2.5,0,0,0,85,261Z"/><path class="cls-1" d="M111.9,299.4q12.81,4.31,25.53,8.9a2.53,2.53,0,0,0,3.08-1.75,2.56,2.56,0,0,0-1.75-3.08q-12.7-4.61-25.53-8.9c-3.06-1-4.37,3.81-1.33,4.83Z"/><path class="cls-1" d="M93.24,299.63c4.64,1.4,8.36,4.78,12.51,7.16a51.61,51.61,0,0,0,14.56,5.62c3.14.69,4.48-4.13,1.33-4.82A47,47,0,0,1,107.51,302c-4.26-2.56-8.1-5.77-12.94-7.22-3.09-.91-4.41,3.91-1.33,4.83Z"/><path class="cls-1" d="M94.81,298.64l15.77,17c2.41,2.59,4.74,5.29,7.27,7.76,2.3,2.25,5,4.29,8.3,4.8a2.58,2.58,0,0,0,3.08-1.75,2.52,2.52,0,0,0-1.75-3.08c-2.81-.44-4.86-2.23-6.78-4.21-2.47-2.54-4.84-5.19-7.25-7.78q-7.55-8.13-15.1-16.27c-2.19-2.36-5.72,1.18-3.54,3.54Z"/><path class="cls-1" d="M107.93,308c1.52,7.91,6.78,14.31,11.88,20.27,4.82,5.63,10.27,11.39,17.75,13.19,3.13.75,4.46-4.07,1.33-4.82-6.61-1.6-11.3-6.95-15.54-11.91-4.57-5.33-9.24-11-10.6-18.06a2.5,2.5,0,1,0-4.82,1.33Z"/><path class="cls-1" d="M94.37,283.1a72.54,72.54,0,0,1-18.26,13.21,2.5,2.5,0,0,0,2.52,4.32,77.23,77.23,0,0,0,19.27-14c2.29-2.27-1.25-5.81-3.53-3.54Z"/><path class="cls-1" d="M90.4,293.17c-.28.42-.57.82-.87,1.22l.39-.51a20.52,20.52,0,0,1-3.7,3.69l.51-.39a21.55,21.55,0,0,1-3,1.94,2.53,2.53,0,0,0-.9,3.42,2.57,2.57,0,0,0,3.42.9,23.19,23.19,0,0,0,8.51-7.74,2.5,2.5,0,0,0-4.31-2.53Z"/><path class="cls-1" d="M92.36,309.76a90.71,90.71,0,0,0,26.34,8.08,2.59,2.59,0,0,0,3.08-1.75A2.53,2.53,0,0,0,120,313a86.69,86.69,0,0,1-25.14-7.58,2.57,2.57,0,0,0-3.42.9,2.52,2.52,0,0,0,.89,3.43Z"/><path class="cls-1" d="M80.25,297.59a52.63,52.63,0,0,0,26,16.19c3.11.83,4.44-4,1.33-4.82a47.92,47.92,0,0,1-23.81-14.9,2.53,2.53,0,0,0-3.54,0,2.55,2.55,0,0,0,0,3.53Z"/><path class="cls-1" d="M69.76,290.06l-3.57,9.8a2.52,2.52,0,0,0,1.75,3.08A2.57,2.57,0,0,0,71,301.19l3.57-9.8a2.52,2.52,0,0,0-1.75-3.08,2.57,2.57,0,0,0-3.08,1.75Z"/><path class="cls-5" d="M135.12,316.06c0,.07.11.63.06.26s0,.1,0,.16a6.61,6.61,0,0,1,0,.89c0,.08-.09.63,0,.26s0,.1,0,.16c-.06.29-.14.58-.23.87s-.12.32-.17.48c-.11.34.18-.36,0,0s-.26.55-.41.81-.35.58-.54.86l-.24.33c.2-.28.11-.14-.05,0a17,17,0,0,1-1.31,1.37l-.71.62-.33.27c-.36.3.16-.11-.08.06-1.06.77-2.14,1.5-3.24,2.21a2.5,2.5,0,0,0,2.52,4.32,27.81,27.81,0,0,0,7.21-6,11.37,11.37,0,0,0,2.39-9.31,2.53,2.53,0,0,0-3.08-1.75,2.56,2.56,0,0,0-1.75,3.08Z"/><path class="cls-5" d="M134.19,262.46a52.44,52.44,0,0,1-6,5.84l-.79.64-.36.28-.12.09q-.81.62-1.65,1.2c-1.18.82-2.39,1.59-3.62,2.31a2.5,2.5,0,1,0,2.52,4.32A54.84,54.84,0,0,0,137.72,266a2.5,2.5,0,1,0-3.53-3.53Z"/><path class="cls-5" d="M134.49,269.67l-.23.31c.16-.21-.25.31-.24.3l-.67.81c-.48.56-1,1.1-1.5,1.63s-1.06,1-1.61,1.52l-.8.68-.45.37-.14.11a33.5,33.5,0,0,1-3.61,2.37c-.64.36-1.3.71-2,1-.35.17-.71.33-1.06.48.24-.11.12,0,0,0l-.65.26a2.56,2.56,0,0,0-1.75,3.08,2.54,2.54,0,0,0,3.08,1.75,35.73,35.73,0,0,0,16-12.17,2.51,2.51,0,0,0-.9-3.42,2.55,2.55,0,0,0-3.42.88Z"/><path class="cls-5" d="M131.48,259.62c.32,1.45-.5,2.94-1.25,4.18-1,1.64-2.14,3.2-3.28,4.74a94.1,94.1,0,0,1-7.37,8.7c-2.22,2.33,1.31,5.87,3.54,3.54a104.31,104.31,0,0,0,8.58-10.3c2.59-3.55,5.63-7.53,4.6-12.19a2.5,2.5,0,1,0-4.82,1.33Z"/><path class="cls-5" d="M132.22,263.84a10.22,10.22,0,0,1-.33,3.92,14.43,14.43,0,0,1-1.7,3.89,41.22,41.22,0,0,1-5.94,7.1,2.5,2.5,0,0,0,3.54,3.54,44,44,0,0,0,7-8.62A17.16,17.16,0,0,0,137,262.52a2.52,2.52,0,0,0-3.08-1.75,2.56,2.56,0,0,0-1.74,3.07Z"/><path class="cls-5" d="M129.76,274.57a17,17,0,0,1,0,2c0,.35-.06.71-.1,1.06,0-.26,0-.16,0,0s0,.31-.08.47c-.13.66-.29,1.31-.48,2-.1.34-.22.68-.34,1,0,.15-.11.3-.17.44-.16.42,0-.08-.07.17a19.56,19.56,0,0,1-2,3.49s-.31.4-.16.22-.15.18-.18.21c-.23.27-.46.54-.71.8a19.53,19.53,0,0,1-1.55,1.47,2.52,2.52,0,0,0,0,3.54,2.56,2.56,0,0,0,3.54,0,21.36,21.36,0,0,0,7.35-16.88,2.54,2.54,0,0,0-2.5-2.5,2.5,2.5,0,0,0-2.5,2.48Z"/><path class="cls-5" d="M133.11,266.12a102.65,102.65,0,0,0,19.34,9.28,2.52,2.52,0,0,0,3.08-1.75,2.56,2.56,0,0,0-1.75-3.08,96.44,96.44,0,0,1-18.15-8.78c-2.75-1.68-5.26,2.64-2.52,4.33Z"/><path class="cls-5" d="M132.91,271.24q7.31,5.36,14.63,10.68A2.51,2.51,0,0,0,151,281a2.56,2.56,0,0,0-.9-3.42q-7.34-5.33-14.63-10.68a2.51,2.51,0,0,0-3.42.9,2.58,2.58,0,0,0,.9,3.42Z"/><path class="cls-5" d="M130.05,273.28a64.79,64.79,0,0,0,17.11,10.9,2.58,2.58,0,0,0,3.42-.9,2.51,2.51,0,0,0-.9-3.42,61,61,0,0,1-16.1-10.12,2.56,2.56,0,0,0-3.54,0,2.54,2.54,0,0,0,0,3.54Z"/><path class="cls-5" d="M132.45,280.41c5.91,7.47,13.07,15,23.23,15.49a2.5,2.5,0,0,0,0-5c-8.64-.42-14.74-7.77-19.69-14a2.52,2.52,0,0,0-3.54,0,2.56,2.56,0,0,0,0,3.54Z"/><path class="cls-5" d="M132.75,286.33c3.55,4.79,8.78,7.81,14.05,10.4A83.51,83.51,0,0,0,164.2,303c3.13.75,4.46-4.07,1.33-4.82a77.66,77.66,0,0,1-15.8-5.57c-4.5-2.17-9.61-4.69-12.66-8.8a2.58,2.58,0,0,0-3.42-.9,2.52,2.52,0,0,0-.9,3.42Z"/><path class="cls-5" d="M136.87,288.89a21.75,21.75,0,0,1-9.52,19.46c-2.68,1.76-.18,6.09,2.52,4.32a26.8,26.8,0,0,0,12-23.78,2.55,2.55,0,0,0-2.5-2.5,2.52,2.52,0,0,0-2.5,2.5Z"/><path class="cls-5" d="M142.45,295a31.49,31.49,0,0,1-16.84,24.8c-2.86,1.48-.33,5.79,2.52,4.32A36.57,36.57,0,0,0,147.45,295a2.51,2.51,0,0,0-2.5-2.5,2.55,2.55,0,0,0-2.5,2.5Z"/><path class="cls-5" d="M134.41,296.25a30.18,30.18,0,0,0,27.13,6.48c3.11-.8,1.79-5.62-1.33-4.82a24.93,24.93,0,0,1-22.27-5.19,2.56,2.56,0,0,0-3.54,0,2.51,2.51,0,0,0,0,3.53Z"/><path class="cls-5" d="M139.58,282.27a27.34,27.34,0,0,0,12.14,2.82,2.5,2.5,0,0,0,0-5A23.18,23.18,0,0,1,149,280c-.27,0-.55-.06-.12,0-.26,0-.52-.08-.78-.12-.42-.07-.84-.16-1.26-.25a24.94,24.94,0,0,1-2.56-.73,11.8,11.8,0,0,1-1.29-.49c.56.27,0,0-.13-.06l-.71-.34a2.55,2.55,0,0,0-3.42.9,2.52,2.52,0,0,0,.89,3.41Z"/><path class="cls-5" d="M128,289A89,89,0,0,0,139.88,303c4.2,4,9,7.78,15,8,3.22.12,3.21-4.88,0-5-4.86-.18-8.83-4-12.13-7.15a82.14,82.14,0,0,1-10.49-12.31,2.56,2.56,0,0,0-3.42-.9A2.53,2.53,0,0,0,128,289Z"/><path class="cls-5" d="M140.09,299.33c2.29.91,3.87,3.25,5.3,5.14a67,67,0,0,0,6.09,7.15c4.31,4.28,10.42,9.09,16.9,7.49,3.12-.77,1.8-5.59-1.33-4.82-2.69.66-5.33-.87-7.48-2.35a37.33,37.33,0,0,1-6.33-5.71c-3.73-4.11-6.43-9.57-11.83-11.72a2.53,2.53,0,0,0-3.08,1.75,2.58,2.58,0,0,0,1.76,3.07Z"/><path class="cls-5" d="M141.32,297.63a5.69,5.69,0,0,1,3,1.95c1.19,1.17,2.38,2.35,3.6,3.5a71.87,71.87,0,0,0,7.83,6.53c5.31,3.75,11.61,6.33,18.18,6.24,3.21,0,3.22-5,0-5-6.21.08-11.89-2.7-16.76-6.36a75.33,75.33,0,0,1-7-6.21c-2.16-2.09-4.36-4.93-7.48-5.47a2.58,2.58,0,0,0-3.08,1.75,2.52,2.52,0,0,0,1.75,3.07Z"/><path class="cls-5" d="M141,298c0,10.23-11,15.32-18.87,18.91a2.52,2.52,0,0,0-.9,3.42,2.57,2.57,0,0,0,3.42.9c5.18-2.35,10.43-4.81,14.61-8.77,4-3.75,6.76-8.92,6.74-14.46,0-3.22-5-3.23-5,0Z"/><path class="cls-5" d="M135.55,289.2a12.38,12.38,0,0,1-2.2,6.42,28.79,28.79,0,0,1-14.84,12.16,2.58,2.58,0,0,0-1.75,3.08,2.53,2.53,0,0,0,3.08,1.75,34.47,34.47,0,0,0,13.3-8.53c3.73-3.9,7.46-9.27,7.42-14.87,0-3.22-5-3.23-5,0Z"/><path class="cls-5" d="M133,283.71c-.16-.23.12-.49-.12-.12s-.44.71-.66,1a13.4,13.4,0,0,1-1.57,1.81,18.76,18.76,0,0,1-4.43,3.17c-3.83,2-8.16,3-12.36,3.9a2.5,2.5,0,0,0,1.33,4.83c5.14-1.16,10.42-2.39,14.95-5.21a21.22,21.22,0,0,0,5.33-4.57c1.59-2,3.57-4.86,1.84-7.35a2.56,2.56,0,0,0-3.42-.9,2.52,2.52,0,0,0-.89,3.41Z"/><path class="cls-5" d="M139.29,312.26a21.2,21.2,0,0,1,7.06,1.73q3.69,1.35,7.45,2.48A124.33,124.33,0,0,0,169.17,320a2.58,2.58,0,0,0,3.08-1.75,2.53,2.53,0,0,0-1.75-3.08,122.65,122.65,0,0,1-15.83-3.65c-2.5-.76-5-1.61-7.43-2.5a24,24,0,0,0-8-1.75c-3.21,0-3.21,5,0,5Z"/><path class="cls-5" d="M141.7,294.06l14.68,9.25a2.52,2.52,0,0,0,3.42-.9,2.55,2.55,0,0,0-.9-3.42l-14.68-9.25a2.52,2.52,0,0,0-3.42.9,2.56,2.56,0,0,0,.9,3.42Z"/><path class="cls-5" d="M134.76,277.43c.91,5.7,4.82,10.41,9.48,13.58,5.3,3.6,11.72,5.13,17.87,6.56,3.13.73,4.47-4.09,1.33-4.82-9.36-2.19-22.05-5.42-23.85-16.65a2.53,2.53,0,0,0-3.08-1.75,2.57,2.57,0,0,0-1.75,3.08Z"/><path class="cls-5" d="M136.53,313.69a11.26,11.26,0,0,0,10.61,7.89c5.53.26,11.12,0,16.66,0,3.22,0,3.22-5,0-5l-14.43,0c-1.85,0-3.73.1-5.37-.88a6,6,0,0,1-2.64-3.37c-1-3.05-5.79-1.75-4.83,1.34Z"/><path class="cls-5" d="M140.83,308.76a57.55,57.55,0,0,0,19.09,34.62c2.86,2.47,7.06,6.47,11.05,4.09,2.76-1.64.25-6-2.52-4.32-.78.46-3-1.67-3.65-2.19a55.22,55.22,0,0,1-4.33-3.9,53,53,0,0,1-14.82-29.63,2.53,2.53,0,0,0-3.08-1.75,2.56,2.56,0,0,0-1.74,3.08Z"/><path class="cls-5" d="M147.1,318.27c-1.68,3.22,1.61,4.89,4,6.12s4.91,2.48,7.39,3.65q7.54,3.52,15.36,6.46a2.5,2.5,0,1,0,1.33-4.83q-6.31-2.37-12.46-5.16c-2-.91-4-1.86-6-2.84l-2.94-1.49c-.57-.29-2.29-.9-2.52-1.38.11.42.23.84.34,1.26,0-.09,0-.18,0-.28-.11.42-.23.84-.34,1.26,0-.09.09-.17.13-.26,1.5-2.84-2.81-5.37-4.31-2.51Z"/><path class="cls-5" d="M151.67,327.47q9.39,4.84,19,9.21a2.57,2.57,0,0,0,3.42-.9,2.51,2.51,0,0,0-.9-3.42q-9.63-4.37-19-9.21a2.5,2.5,0,0,0-2.52,4.32Z"/><path class="cls-5" d="M151.36,339a104.4,104.4,0,0,0,13.75,7.57c2.37,1.08,4.79,2.08,7.23,3s5.51,2.53,7.62.34-1.29-5.85-3.54-3.54c1.06-.17,1.27-.32.63-.43l-.85-.29c-.57-.19-1.13-.39-1.69-.6-1-.36-2-.73-2.94-1.12q-3-1.21-6-2.63a104.47,104.47,0,0,1-11.71-6.62c-2.7-1.75-5.21,2.57-2.52,4.33Z"/><path class="cls-5" d="M131.62,288.82c-.11.36-.22.72-.35,1.07-.05.14-.2.69,0,.1a2.39,2.39,0,0,1-.2.43,16.36,16.36,0,0,1-1.06,1.87l-.27.39c0,.06-.43.56-.2.27l-.16.19c-.12.14-.24.29-.37.43a14.63,14.63,0,0,1-1.55,1.5,2,2,0,0,1-.36.3c.51-.28,0,0-.09.06-.28.2-.56.4-.85.58a17.43,17.43,0,0,1-1.9,1c-.47.22.44-.16-.09,0l-.44.17c-.32.12-.65.22-1,.32s-.73.19-1.09.27l-.55.1c-.53.1.5-.06-.08,0a2.55,2.55,0,0,0-2.5,2.5c.06,1.23,1.11,2.66,2.5,2.5a18.26,18.26,0,0,0,15.45-12.78,2.51,2.51,0,0,0-4.83-1.35Z"/><path class="cls-5" d="M138.18,302.58c2.32-.3,4.44,1,6.52,1.84a67.59,67.59,0,0,0,6.93,2.41,72.7,72.7,0,0,0,14.64,2.59,2.52,2.52,0,0,0,2.5-2.5,2.55,2.55,0,0,0-2.5-2.5,66.43,66.43,0,0,1-14.19-2.67,64.17,64.17,0,0,1-6.72-2.44c-2.29-1-4.62-2.07-7.18-1.74a2.58,2.58,0,0,0-2.5,2.5c0,1.23,1.16,2.69,2.5,2.51Z"/><path class="cls-5" d="M141.48,283.4a85.66,85.66,0,0,0,16.63.87,2.5,2.5,0,0,0,0-5,81.83,81.83,0,0,1-15.3-.69,2.57,2.57,0,0,0-3.08,1.75c-.26,1.18.37,2.87,1.75,3.07Z"/><path class="cls-5" d="M138.62,284.25a84.92,84.92,0,0,0,17.72,1.36,2.5,2.5,0,1,0,0-5A78.83,78.83,0,0,1,140,279.42a2.58,2.58,0,0,0-3.08,1.75,2.53,2.53,0,0,0,1.75,3.08Z"/><path class="cls-5" d="M141.5,273.78q5.17,1.16,10.23,2.74a2.53,2.53,0,0,0,3.08-1.75,2.56,2.56,0,0,0-1.75-3.08Q148,270.1,142.83,269a2.5,2.5,0,0,0-1.33,4.83Z"/><path class="cls-5" d="M135,259.71s.73.29.3.1l.44.2c.4.19.79.39,1.17.61a25.07,25.07,0,0,1,2.14,1.37l1,.72.49.37.18.14,2.35,1.83c2.7,2.08,5.66,4,9.1,4.53a2.59,2.59,0,0,0,3.08-1.75,2.53,2.53,0,0,0-1.75-3.08,11.71,11.71,0,0,1-2.4-.6c-.18-.07-.37-.13-.55-.21.33.14,0,0-.15-.08q-.58-.28-1.14-.6c-.69-.4-1.36-.84-2-1.3-.33-.23-.66-.47-1-.72l-.58-.44-.17-.13c-2.89-2.25-5.69-4.51-9.17-5.78a2.5,2.5,0,0,0-1.34,4.82Z"/><path class="cls-5" d="M141.19,275.42q7.32,2,14.81,3.3a2.57,2.57,0,0,0,3.08-1.75,2.54,2.54,0,0,0-1.75-3.08q-7.47-1.31-14.81-3.3a2.5,2.5,0,1,0-1.33,4.83Z"/><path class="cls-5" d="M140.81,283.72a37.89,37.89,0,0,0,19.08,4.06,2.55,2.55,0,0,0,2.5-2.5,2.53,2.53,0,0,0-2.5-2.5,32.69,32.69,0,0,1-16.55-3.38,2.55,2.55,0,0,0-3.42.9,2.51,2.51,0,0,0,.89,3.42Z"/><path class="cls-5" d="M137.79,282.26c4,1.88,7.22,5.05,11.16,7.06s8.65,3.22,13.09,1.82c3.06-1,1.75-5.79-1.33-4.82-7.87,2.49-14-5.39-20.39-8.38a2.57,2.57,0,0,0-3.42.9,2.51,2.51,0,0,0,.89,3.42Z"/><path class="cls-5" d="M138.32,265.94l13.8,3.74a2.5,2.5,0,1,0,1.33-4.83l-13.8-3.74a2.5,2.5,0,0,0-1.33,4.83Z"/><path class="cls-5" d="M143.2,283.23h12.07a2.5,2.5,0,0,0,0-5H143.2a2.5,2.5,0,0,0,0,5Z"/><path class="cls-5" d="M146.39,277.19H156a2.5,2.5,0,0,0,0-5h-9.59a2.5,2.5,0,0,0,0,5Z"/><path class="cls-1" d="M182.88,299.74a6.64,6.64,0,0,1,0,1.26c0-.43,0,.09,0,.19s-.11.39-.17.59c-.17.63.18-.26-.13.32-.08.15-.15.3-.24.45s-.27.43-.41.65-.23.33-.08.12a13,13,0,0,1-1.86,1.92,18.29,18.29,0,0,1-2,1.54A66.28,66.28,0,0,1,167,313a2.53,2.53,0,0,0-.9,3.42,2.56,2.56,0,0,0,3.42.9,64.61,64.61,0,0,0,11.94-6.86c3.36-2.47,7-6.12,6.41-10.69a2.58,2.58,0,0,0-2.5-2.5,2.52,2.52,0,0,0-2.48,2.51Z"/><path class="cls-3" d="M188.29,260.9c1.74,26.22-1.83,52.49-6,78.44a3.82,3.82,0,0,0,.36,3,3.73,3.73,0,0,0,2.45,1l42.41,6.76c-.09-4-1.6-7.91-3.08-11.67l-23-58.34c-3.15-8-6.34-16-11.22-23.09"/><path class="cls-4" d="M185.79,260.9c1.12,17.13,0,34.32-2.06,51.34-1,8.51-2.31,17-3.66,25.47-.29,1.85-.75,3.89.27,5.62s2.79,2.26,4.63,2.55c4.27.69,8.55,1.36,12.82,2l29.09,4.64a2.53,2.53,0,0,0,3.16-2.41c-.24-6.6-3.35-12.78-5.73-18.82l-7.59-19.22c-4.93-12.49-9.76-25-14.82-37.47-2.66-6.54-5.54-13-9.55-18.85a2.57,2.57,0,0,0-3.42-.9,2.53,2.53,0,0,0-.9,3.42,87.18,87.18,0,0,1,8.36,16c2.48,6,4.8,12.05,7.18,18.08l14.63,37c1.39,3.53,2.8,7.06,4.18,10.59,1.27,3.26,2.53,6.6,2.65,10.13l3.16-2.41-24.9-4-12.33-2c-1.94-.31-3.94-.52-5.86-1-.19,0-.56-.08-.67-.22,0,0,.22.26.25.12.16-.79.19-1.65.31-2.45,2.59-16.37,4.93-32.82,5.84-49.38a234,234,0,0,0-.06-28,2.49,2.49,0,1,0-5,0Z"/><path class="cls-1" d="M86.37,294.55a106.69,106.69,0,0,1-7.48,18.81,2.56,2.56,0,0,0,.9,3.42,2.53,2.53,0,0,0,3.42-.9,113.5,113.5,0,0,0,8-20c.91-3.1-3.91-4.42-4.82-1.33Z"/><path class="cls-1" d="M93.35,297.59A81.18,81.18,0,0,1,87,312.21a2.5,2.5,0,1,0,4.32,2.52,90.92,90.92,0,0,0,6.86-15.82,2.53,2.53,0,0,0-1.75-3.08,2.56,2.56,0,0,0-3.07,1.76Z"/><path class="cls-1" d="M206.74,298.87a30.86,30.86,0,0,1-17.82,21.43,2.52,2.52,0,0,0-.9,3.42,2.57,2.57,0,0,0,3.42.9,35.51,35.51,0,0,0,20.12-24.42c.71-3.14-4.11-4.47-4.82-1.33Z"/><path class="cls-1" d="M189.19,251.45l-9,14.25a2.52,2.52,0,0,0,.9,3.42,2.55,2.55,0,0,0,3.42-.9l9-14.25a2.52,2.52,0,0,0-.9-3.42,2.56,2.56,0,0,0-3.42.9Z"/><path class="cls-1" d="M191.57,261.38a88.22,88.22,0,0,1-10.25,21.95c-1.75,2.71,2.58,5.22,4.32,2.52A93.12,93.12,0,0,0,196.4,262.7c.94-3.07-3.88-4.39-4.83-1.32Z"/><path class="cls-1" d="M204,301.54q7.31,7.32,15.11,14.1c4.84,4.19,9.79,8.67,16,10.62,3.08,1,4.4-3.86,1.33-4.82-5.64-1.76-10.18-6.16-14.53-9.95Q214.46,305,207.49,298c-2.28-2.3-5.82,1.23-3.54,3.52Z"/><path class="cls-1" d="M189.27,255.24a64.13,64.13,0,0,0,25.23,20.82,2.57,2.57,0,0,0,3.42-.9,2.51,2.51,0,0,0-.9-3.42,59.21,59.21,0,0,1-23.44-19,2.57,2.57,0,0,0-3.42-.9,2.53,2.53,0,0,0-.89,3.43Z"/><path class="cls-1" d="M186.31,264.08c5,5.16,10,10.33,15.28,15.13,4.82,4.34,10.35,9.75,17.28,9.74,3.22,0,3.22-5,0-5-2.81,0-5.24-1.39-7.46-3a83.72,83.72,0,0,1-7.33-6.23c-4.93-4.53-9.59-9.36-14.23-14.18-2.24-2.31-5.77,1.22-3.54,3.54Z"/><path class="cls-1" d="M192.94,261.61l10.26,12.44c3.12,3.78,7.19,7.45,12.49,6.15,3.12-.77,1.8-5.59-1.33-4.82-3.71.91-6.67-3.71-8.65-6.11l-9.23-11.2a2.53,2.53,0,0,0-3.54,0,2.56,2.56,0,0,0,0,3.54Z"/><path class="cls-1" d="M184.41,274.54c3.66.92,6.88,3.88,9.77,6.2,3,2.44,6,5,9.06,7.44,6.16,4.94,12.72,9.48,20.44,11.57,3.11.84,4.44-4,1.33-4.82-7.37-2-13.62-6.52-19.46-11.28-3-2.47-6-5-9.07-7.42-3.24-2.54-6.66-5.47-10.73-6.5-3.13-.8-4.46,4-1.34,4.81Z"/><path class="cls-1" d="M194.45,271.19c.34,1.34-.57,2.75-1.42,3.91-1.11,1.51-2.42,2.9-3.63,4.33l-8.23,9.67a2.57,2.57,0,0,0,0,3.54,2.53,2.53,0,0,0,3.54,0l9.27-10.9c2.84-3.34,6.51-7.08,5.29-11.87-.79-3.13-5.61-1.81-4.82,1.32Z"/><path class="cls-1" d="M198,271.53c.22.38-.62,1.63-.8,2-.64,1.21-1.31,2.41-2,3.59q-2,3.45-4.39,6.7a83.37,83.37,0,0,1-10.48,11.81c-2.35,2.21,1.19,5.74,3.54,3.54a90.32,90.32,0,0,0,12-13.88,84.56,84.56,0,0,0,4.71-7.52c1.47-2.64,3.46-5.76,1.73-8.75-1.62-2.78-5.94-.27-4.32,2.52Z"/><path class="cls-1" d="M199.54,289.48c0,5.24-3.51,10-6.42,14.06A87.65,87.65,0,0,1,182.36,316c-2.32,2.24,1.22,5.77,3.54,3.54a94,94,0,0,0,11.8-13.79c3.37-4.81,6.8-10.14,6.84-16.22,0-3.22-5-3.22-5,0Z"/><path class="cls-1" d="M201.44,295.87a41.1,41.1,0,0,1-19.51,16.64,2.59,2.59,0,0,0-1.75,3.08,2.53,2.53,0,0,0,3.08,1.75,46.68,46.68,0,0,0,22.5-18.94c1.67-2.76-2.65-5.27-4.32-2.53Z"/><path class="cls-1" d="M192.37,290.36a116.34,116.34,0,0,0,36,11.16,2.59,2.59,0,0,0,3.08-1.75,2.52,2.52,0,0,0-1.75-3.08A112.44,112.44,0,0,1,194.89,286c-2.87-1.42-5.41,2.89-2.52,4.33Z"/><path class="cls-1" d="M199.46,296.16a89.2,89.2,0,0,0,15.79,12,86.94,86.94,0,0,0,8.72,4.55c2.75,1.24,6.57,3.37,9.42,1.22a2.58,2.58,0,0,0,.9-3.42,2.52,2.52,0,0,0-3.42-.9c-.74.56-1.86-.14-2.61-.46-1.32-.55-2.61-1.14-3.89-1.76a84.41,84.41,0,0,1-7.69-4.22A82.61,82.61,0,0,1,203,292.62c-2.32-2.21-5.87,1.32-3.53,3.54Z"/><path class="cls-1" d="M197.87,295.27a72.57,72.57,0,0,0,33.07,10.62,2.52,2.52,0,0,0,2.5-2.5,2.55,2.55,0,0,0-2.5-2.5A67,67,0,0,1,200.4,291c-2.75-1.7-5.27,2.63-2.53,4.32Z"/><path class="cls-1" d="M192.13,320.8c2-.32,4.14.41,6.07,1l6.39,1.89,13,3.84c3.09.91,4.41-3.91,1.33-4.82l-14-4.12c-4.58-1.35-9.33-3.34-14.17-2.58a2.53,2.53,0,0,0-1.75,3.08,2.56,2.56,0,0,0,3.08,1.74Z"/><path class="cls-1" d="M199,281.08a9.41,9.41,0,0,1,4,2.09c1.39,1.16,2.65,2.45,4,3.6A29.65,29.65,0,0,0,218,292.5c3.1.86,4.43-4,1.33-4.82a24.18,24.18,0,0,1-9.62-5.22c-2.8-2.49-5.5-5.36-9.31-6.21a2.56,2.56,0,0,0-3.08,1.75,2.52,2.52,0,0,0,1.75,3.08Z"/><path class="cls-1" d="M195.35,266.7q-4.71,4.85-9.14,9.95a2.5,2.5,0,0,0,3.54,3.54q4.44-5.1,9.14-9.95a2.5,2.5,0,0,0-3.54-3.54Z"/><path class="cls-1" d="M200.16,287.14q12.81,4.31,25.53,8.9a2.53,2.53,0,0,0,3.08-1.75,2.56,2.56,0,0,0-1.75-3.08q-12.71-4.6-25.53-8.9c-3.05-1-4.37,3.81-1.33,4.83Z"/><path class="cls-1" d="M188.94,319.77c4.64,1.4,8.36,4.78,12.51,7.16A51.61,51.61,0,0,0,216,332.55c3.14.69,4.48-4.13,1.33-4.82a47,47,0,0,1-14.13-5.57c-4.26-2.56-8.1-5.77-12.94-7.22-3.09-.92-4.41,3.91-1.33,4.83Z"/><path class="cls-1" d="M190.52,318.78l15.77,17c2.41,2.59,4.74,5.29,7.27,7.76,2.3,2.25,5,4.29,8.3,4.8a2.58,2.58,0,0,0,3.08-1.75,2.52,2.52,0,0,0-1.75-3.08c-2.81-.44-4.86-2.23-6.78-4.21-2.47-2.54-4.84-5.19-7.25-7.78q-7.54-8.13-15.1-16.27c-2.2-2.36-5.73,1.18-3.54,3.54Z"/><path class="cls-1" d="M202.9,314.47c1.52,7.91,6.78,14.31,11.88,20.27,4.82,5.63,10.27,11.39,17.75,13.19,3.13.75,4.46-4.07,1.33-4.82-6.61-1.6-11.3-6.95-15.54-11.91-4.57-5.33-9.24-11-10.6-18.06a2.5,2.5,0,1,0-4.82,1.33Z"/><path class="cls-1" d="M203.84,304.42a72.54,72.54,0,0,1-18.26,13.21A2.5,2.5,0,1,0,188.1,322a77.23,77.23,0,0,0,19.27-14c2.29-2.27-1.24-5.81-3.53-3.54Z"/><path class="cls-1" d="M187,297.7c-.28.42-.57.82-.87,1.22l.39-.51a20.52,20.52,0,0,1-3.7,3.69l.51-.39a21.55,21.55,0,0,1-3,1.94,2.53,2.53,0,0,0-.9,3.42,2.57,2.57,0,0,0,3.42.9,23.19,23.19,0,0,0,8.51-7.74,2.52,2.52,0,0,0-.9-3.42,2.55,2.55,0,0,0-3.41.89Z"/><path class="cls-1" d="M176,317.73a52.63,52.63,0,0,0,26,16.19c3.11.83,4.44-4,1.33-4.82a47.92,47.92,0,0,1-23.81-14.9,2.53,2.53,0,0,0-3.54,0,2.55,2.55,0,0,0,0,3.53Z"/><path class="cls-1" d="M180.12,295.77l-3.57,9.8a2.52,2.52,0,0,0,1.75,3.08,2.57,2.57,0,0,0,3.08-1.75l3.57-9.8A2.52,2.52,0,0,0,183.2,294a2.57,2.57,0,0,0-3.08,1.75Z"/><path class="cls-1" d="M205.38,309.2a48.38,48.38,0,0,0,19.85,14.85,2.53,2.53,0,0,0,3.08-1.75,2.57,2.57,0,0,0-1.75-3.08,43.73,43.73,0,0,1-17.64-13.57,2.53,2.53,0,0,0-3.54,0,2.59,2.59,0,0,0,0,3.55Z"/><path class="cls-1" d="M201,317.33c2.29.57,4.07,2.52,5.86,3.94a73.78,73.78,0,0,0,6.54,4.72,31.51,31.51,0,0,0,14.83,5.13c3.21.19,3.2-4.81,0-5-4.89-.29-9.35-2.47-13.37-5.14a71.65,71.65,0,0,1-5.78-4.31c-2.08-1.69-4.09-3.51-6.75-4.17-3.13-.77-4.46,4.05-1.33,4.83Z"/><path class="cls-1" d="M209.85,320.49a74.43,74.43,0,0,1,12.36,3.79,2.51,2.51,0,0,0,3.08-1.75,2.58,2.58,0,0,0-1.75-3.08,73.85,73.85,0,0,0-12.36-3.79,2.5,2.5,0,0,0-1.33,4.83Z"/><path class="cls-1" d="M193,287.19a12.6,12.6,0,0,1,.09,1.94c0,.31,0,.61-.07.92s.09-.5,0,0c0,.18-.07.36-.11.55a12.52,12.52,0,0,1-.53,1.78c0,.07-.24.56-.08.22l-.1.21c-.15.31-.31.61-.48.91s-.32.53-.49.79l-.27.38c-.34.49.22-.25,0,0a14.89,14.89,0,0,1-1.33,1.42,5.78,5.78,0,0,1-.71.6c.52-.36-.26.16-.4.25-.29.18-.58.36-.88.51l-.41.21c-.13.06-.67.28-.08.05a2.57,2.57,0,0,0-1.75,3.08c.38,1.16,1.78,2.27,3.08,1.75a15.28,15.28,0,0,0,7.47-6.36,14.74,14.74,0,0,0,2.06-9.18,2.56,2.56,0,0,0-2.5-2.5c-1.22,0-2.68,1.09-2.51,2.48Z"/><path class="cls-1" d="M195.71,293.14a32.76,32.76,0,0,1-3.13,5.53l-.41.57-.27.35c-.21.28.28-.35.07-.09q-.5.62-1,1.23c-.72.82-1.48,1.6-2.27,2.35a2.53,2.53,0,0,0,0,3.54,2.55,2.55,0,0,0,3.54,0,34,34,0,0,0,7.82-11,2.75,2.75,0,0,0,.25-1.93,2.53,2.53,0,0,0-1.15-1.49c-1.1-.57-2.87-.38-3.43.9Z"/><path class="cls-1" d="M191.64,287.65l0,.26.09-.66a10.26,10.26,0,0,1-.68,2.48l.25-.6a10.09,10.09,0,0,1-1.3,2.22l.39-.51c-.09.12-.18.23-.28.34a2.66,2.66,0,0,0-.73,1.77,2.55,2.55,0,0,0,.73,1.77,2.51,2.51,0,0,0,3.54,0,12.25,12.25,0,0,0,1.95-3,13.67,13.67,0,0,0,.71-1.94,15,15,0,0,0,.36-2.11,2.52,2.52,0,0,0-.73-1.77,2.51,2.51,0,0,0-3.54,0l-.39.51a2.47,2.47,0,0,0-.34,1.27Z"/><path class="cls-1" d="M202,304.69a71.23,71.23,0,0,1-16.26,23.38c-2.33,2.22,1.2,5.76,3.54,3.54a74.8,74.8,0,0,0,17.05-24.39,2.57,2.57,0,0,0-.9-3.42,2.53,2.53,0,0,0-3.43.89Z"/><path class="cls-1" d="M191.4,335.52q16.86-.31,33.72-.1c3.22,0,3.22-5,0-5q-16.86-.23-33.72.1c-3.21.06-3.22,5.06,0,5Z"/><path class="cls-1" d="M209.83,325a70,70,0,0,0,15.29,1.06,2.5,2.5,0,1,0,0-5,66.52,66.52,0,0,1-7.2-.06,57.59,57.59,0,0,1-6.76-.81,2.57,2.57,0,0,0-3.08,1.75,2.53,2.53,0,0,0,1.75,3.06Z"/><path class="cls-1" d="M206,332l-24.8,2.19a2.57,2.57,0,0,0-2.5,2.5,2.52,2.52,0,0,0,2.5,2.5L206,337a2.56,2.56,0,0,0,2.5-2.5A2.51,2.51,0,0,0,206,332Z"/><path class="cls-1" d="M212.7,335.27H199a2.5,2.5,0,0,0,0,5H212.7a2.5,2.5,0,1,0,0-5Z"/><path class="cls-1" d="M194.17,302.79c7.75,13.1,23.55,16.42,37.61,17.14,3.22.17,3.21-4.84,0-5-12.22-.63-26.51-3.2-33.3-14.67-1.63-2.76-6-.24-4.31,2.53Z"/><path class="cls-1" d="M87.37,263.63a42.62,42.62,0,0,0,20.38,12.45c3.11.84,4.44-4,1.33-4.82a37.75,37.75,0,0,1-18.17-11.17,2.54,2.54,0,0,0-3.54,0,2.56,2.56,0,0,0,0,3.54Z"/><path class="cls-1" d="M83.34,249a35.63,35.63,0,0,0,12,6.31,2.5,2.5,0,1,0,1.33-4.83c-1-.29-1.93-.62-2.87-1l-.35-.14.07,0-.69-.31c-.43-.2-.86-.41-1.28-.63-.87-.45-1.72-1-2.54-1.48-.43-.27-.84-.56-1.26-.85l-.61-.45,0,0-.3-.24a2.71,2.71,0,0,0-1.77-.73,2.55,2.55,0,0,0-1.77.73c-.82.91-1.08,2.68,0,3.55Z"/><path class="cls-1" d="M78.07,233c3.15,3.11,6.21,6.39,9.55,9.29,3.1,2.69,6.8,5,11.06,4.8a2.55,2.55,0,0,0,2.5-2.5,2.52,2.52,0,0,0-2.5-2.5,7.52,7.52,0,0,1-4.13-.95,19.74,19.74,0,0,1-4.08-3c-3.06-2.78-5.93-5.78-8.87-8.69-2.29-2.26-5.83,1.28-3.53,3.54Z"/><path class="cls-1" d="M87.79,245.19c.07,0,.71.29.18.06l.47.22c.35.17.68.35,1,.54.61.35,1.2.74,1.78,1.15l1,.69.43.32.17.13,2.11,1.63a16.59,16.59,0,0,0,8.7,3.75,2.51,2.51,0,0,0,2.5-2.5,2.56,2.56,0,0,0-2.5-2.5c-.11,0-.76-.12-.15,0l-.4-.07a9.9,9.9,0,0,1-1.07-.28l-.47-.17c-.45-.15.21.12-.05,0s-.67-.32-1-.5a29.05,29.05,0,0,1-3.54-2.41l-.09-.07-.42-.33-1.18-.91c-.59-.45-1.19-.9-1.81-1.32a19.18,19.18,0,0,0-4.29-2.22,2.53,2.53,0,0,0-3.08,1.75,2.55,2.55,0,0,0,1.74,3.06Z"/><path class="cls-1" d="M92.39,302q-8.1,4.47-15.79,9.63A2.5,2.5,0,0,0,79.12,316q7.68-5.16,15.79-9.63a2.52,2.52,0,0,0,.9-3.42,2.55,2.55,0,0,0-3.42-.9Z"/><path class="cls-1" d="M84.75,287.29c3.09.75,5.44,2.95,7.82,4.92a63.19,63.19,0,0,0,8.47,6,61.42,61.42,0,0,0,19.14,7.19,2.57,2.57,0,0,0,3.08-1.75,2.52,2.52,0,0,0-1.75-3.08,57.32,57.32,0,0,1-18.68-7.12,64.05,64.05,0,0,1-8-5.8c-2.63-2.2-5.37-4.32-8.76-5.15-3.12-.75-4.46,4.07-1.33,4.84Z"/><path class="cls-1" d="M99,306.53a195.77,195.77,0,0,0,29.38,5.92,2.51,2.51,0,0,0,2.5-2.5,2.56,2.56,0,0,0-2.5-2.5,187.55,187.55,0,0,1-28-5.74c-3.1-.88-4.43,4-1.33,4.82Z"/><path class="cls-1" d="M96.3,309.83c0,.12,0,.23,0,.35l.09-.66a11,11,0,0,1-.71,2.58l.25-.6a11.57,11.57,0,0,1-1.4,2.41l.39-.51A10.57,10.57,0,0,1,93,315.29l.51-.39c-.15.12-.31.23-.47.34a2.67,2.67,0,0,0-1.15,1.49,2.6,2.6,0,0,0,.25,1.93,2.54,2.54,0,0,0,3.42.9,13,13,0,0,0,5.76-9.72A2.5,2.5,0,0,0,97,308.07a2.83,2.83,0,0,0-.74,1.76Z"/><path class="cls-1" d="M119.55,308.49A44.29,44.29,0,0,1,94.49,323,2.54,2.54,0,0,0,92.74,326a2.56,2.56,0,0,0,3.08,1.75A48.66,48.66,0,0,0,123.08,312a2.57,2.57,0,0,0,0-3.54,2.5,2.5,0,0,0-3.53,0Z"/><path class="cls-1" d="M100.44,313.2a107.61,107.61,0,0,1-7,16.65,2.5,2.5,0,1,0,4.32,2.52,116,116,0,0,0,7.51-17.85,2.5,2.5,0,1,0-4.83-1.32Z"/><path class="cls-1" d="M109.07,307.1a5.89,5.89,0,0,0,.36,6.36,10.12,10.12,0,0,0,5.31,3.48c4,1.29,8.3,1.15,12.45,1a2.5,2.5,0,0,0,0-5c-1.62.07-3.24.14-4.86.11a22.77,22.77,0,0,1-4.57-.45,17.17,17.17,0,0,1-2.23-.63s-.46-.18-.3-.11l-.29-.14a6.16,6.16,0,0,1-1-.59c.21.16,0,0-.08-.09s-.24-.24-.35-.37c.26.33-.26-.6-.1-.16,0-.06-.18-.67-.13-.38s0-.21,0-.27c0-.34-.12.27,0,0s-.3.49.08-.16a2.5,2.5,0,1,0-4.31-2.52Z"/><path class="cls-1" d="M84.34,275.8a31.78,31.78,0,0,1,6.71,4.3,77.26,77.26,0,0,0,7,4.66,76,76,0,0,0,15.5,6.9c3.07,1,4.39-3.84,1.33-4.82A70.63,70.63,0,0,1,99.76,280c-4.77-2.89-8.89-6.91-14.09-9a2.52,2.52,0,0,0-3.08,1.75,2.56,2.56,0,0,0,1.75,3.07Z"/><path class="cls-1" d="M82.59,286a136.55,136.55,0,0,0,20.2,10.82c7.13,3.08,14.84,6.45,22.76,5a2.53,2.53,0,0,0,1.75-3.08,2.56,2.56,0,0,0-3.08-1.75c-3.45.62-7-.16-10.25-1.21a97.92,97.92,0,0,1-9.92-3.87,137.31,137.31,0,0,1-18.93-10.27c-2.72-1.73-5.23,2.59-2.53,4.34Z"/><path class="cls-1" d="M96.69,295.4c4.46,5.9,7.91,12.61,13.06,18,4.69,4.88,11,8.63,17.88,8.57,3.22,0,3.22-5,0-5-5.91.05-11-3.48-14.89-7.68-4.56-5-7.7-11-11.74-16.39a2.58,2.58,0,0,0-3.42-.9,2.52,2.52,0,0,0-.89,3.42Z"/><path class="cls-1" d="M83.4,256.55a33.71,33.71,0,0,0,29.91,14.94,2.55,2.55,0,0,0,2.5-2.5,2.53,2.53,0,0,0-2.5-2.5A28.67,28.67,0,0,1,87.72,254c-1.78-2.67-6.11-.17-4.32,2.52Z"/><path class="cls-1" d="M109.05,314.11l13.68,9.18c2.22,1.49,4.44,3,6.68,4.48,2.08,1.37,4.45,2.58,7,2.33a2.57,2.57,0,0,0,2.5-2.5,2.52,2.52,0,0,0-2.5-2.5c-2.17.21-4-1.27-5.66-2.42l-6.33-4.25-12.86-8.63c-2.69-1.81-5.19,2.52-2.53,4.31Z"/><path class="cls-1" d="M103.55,316.13c4,2.8,7.88,5.74,12,8.33,3.91,2.47,8.2,4.37,12.88,4.52,3.22.11,3.21-4.89,0-5-4.07-.13-7.71-2.11-11.05-4.28-3.85-2.5-7.55-5.25-11.3-7.89a2.5,2.5,0,0,0-2.53,4.32Z"/><path class="cls-1" d="M99.2,318.18c4.61,3.41,9.13,7.11,13.94,10.24,4.62,3,10,2.86,15.24,2.35a2.57,2.57,0,0,0,2.5-2.5,2.52,2.52,0,0,0-2.5-2.5,40.13,40.13,0,0,1-7.1.25,12.56,12.56,0,0,1-6.36-2.43c-4.47-3.13-8.8-6.49-13.19-9.73a2.52,2.52,0,0,0-3.42.9,2.55,2.55,0,0,0,.89,3.42Z"/><path class="cls-1" d="M100.25,321.94a75,75,0,0,0,20.8,9.11c3.11.83,4.44-4,1.33-4.82a70.36,70.36,0,0,1-19.61-8.6,2.5,2.5,0,1,0-2.52,4.31Z"/><path class="cls-1" d="M120.44,331.39h4.88a2.61,2.61,0,0,0,1.77-.73,2.51,2.51,0,0,0,0-3.54,2.59,2.59,0,0,0-1.77-.73h-4.88a2.61,2.61,0,0,0-1.77.73,2.51,2.51,0,0,0,0,3.54,2.59,2.59,0,0,0,1.77.73Z"/><path class="cls-5" d="M146.36,312a48.42,48.42,0,0,1-23.05,20.92,2.52,2.52,0,0,0-.9,3.42,2.57,2.57,0,0,0,3.42.9,52.77,52.77,0,0,0,24.84-22.71c1.56-2.82-2.75-5.35-4.31-2.53Z"/><path class="cls-5" d="M137.33,316.75c-5.88,8.36-13.16,18.57-24.35,19.34a2.55,2.55,0,0,0-2.5,2.5,2.53,2.53,0,0,0,2.5,2.5c13.25-.92,21.63-11.81,28.67-21.82a2.52,2.52,0,0,0-.9-3.42,2.55,2.55,0,0,0-3.42.9Z"/><path class="cls-5" d="M139.32,331.08a17.11,17.11,0,0,1,4.94,2.39c1.6,1,3.22,1.94,4.89,2.82a80.61,80.61,0,0,0,11,4.76,2.5,2.5,0,1,0,1.33-4.83A71.72,71.72,0,0,1,151,331.61c-3.38-1.83-6.57-4.43-10.35-5.35-3.13-.76-4.47,4.06-1.34,4.82Z"/><path class="cls-5" d="M136.78,322.81c7.87,3.29,14.41,9.46,23.06,10.86a2.58,2.58,0,0,0,3.08-1.75,2.53,2.53,0,0,0-1.75-3.08c-8.52-1.38-15.25-7.6-23.06-10.86a2.52,2.52,0,0,0-3.08,1.75,2.58,2.58,0,0,0,1.75,3.08Z"/><path class="cls-5" d="M136.52,296.25c1.21,3.54-.89,6.91-3.1,9.55-2.75,3.27-5.66,6.42-8.5,9.61a2.56,2.56,0,0,0,0,3.54,2.54,2.54,0,0,0,3.54,0c3.19-3.59,6.57-7.08,9.51-10.88s5-8.44,3.37-13.15a2.57,2.57,0,0,0-3.08-1.75,2.53,2.53,0,0,0-1.74,3.08Z"/><path class="cls-5" d="M133.85,301.73c-3.74.12-6.68,2.32-9.42,4.64s-5.54,4.87-8.18,7.44a2.53,2.53,0,0,0,0,3.54,2.55,2.55,0,0,0,3.54,0q3.64-3.54,7.5-6.86a26,26,0,0,1,3.2-2.51c.33-.21.66-.41,1-.59l.46-.23c-.24.11,0,0,.1,0a8.83,8.83,0,0,1,1.08-.32c.05,0,.51-.09.29-.06s.45,0,.43,0a2.5,2.5,0,1,0,0-5Z"/><path class="cls-5" d="M127.36,307.15a24,24,0,0,1-1.65,2.46l.39-.51a23.41,23.41,0,0,1-4.18,4.2l.51-.39c-.33.25-.66.5-1,.73a2.71,2.71,0,0,0-1.15,1.49,2.6,2.6,0,0,0,.25,1.93,2.54,2.54,0,0,0,3.42.9,26.15,26.15,0,0,0,7.72-8.29,2.5,2.5,0,1,0-4.31-2.52Z"/><path class="cls-5" d="M150.43,315.26a24.24,24.24,0,0,0,3.52,6,22.58,22.58,0,0,0,4.76,4.39,2.51,2.51,0,0,0,3.42-.9,2.56,2.56,0,0,0-.9-3.42l-.58-.42c-.35-.26.35.28.11.09l-.28-.22q-.53-.44-1-.9a20.21,20.21,0,0,1-1.89-2l-.18-.22c.45.54.19.24.09.11l-.42-.58c-.26-.37-.5-.75-.73-1.14s-.47-.83-.69-1.25c-.1-.19-.19-.38-.28-.58l-.15-.33c-.19-.42.22.54,0,.07a2.72,2.72,0,0,0-1.15-1.49,2.5,2.5,0,0,0-3.42.9,2.41,2.41,0,0,0-.24,1.91Z"/><path class="cls-5" d="M136.81,320.57a37.7,37.7,0,0,0,29.86,19.1,2.51,2.51,0,0,0,2.5-2.5,2.55,2.55,0,0,0-2.5-2.5A32.58,32.58,0,0,1,141.12,318c-1.54-2.81-5.86-.3-4.31,2.53Z"/><path class="cls-5" d="M139.72,325.87a96.85,96.85,0,0,0,15.47,5.68,2.5,2.5,0,1,0,1.33-4.83q-3.77-1-7.42-2.34c-2.51-.91-4.51-1.75-6.85-2.84a2.51,2.51,0,0,0-2.53,4.33Z"/><path class="cls-5" d="M140,324.08a34,34,0,0,1-3.93,6.69,2.5,2.5,0,0,0,.9,3.42,2.5,2.5,0,0,0,1.93.25l.6-.25a2.5,2.5,0,0,0,.9-.9,34.32,34.32,0,0,0,3.93-6.69,2.75,2.75,0,0,0,.25-1.93,2.53,2.53,0,0,0-1.15-1.49,2.5,2.5,0,0,0-1.93-.25,2.36,2.36,0,0,0-1.5,1.15Z"/><path class="cls-5" d="M154.4,324.35q-9.39,6.24-19.1,12c-2.77,1.64-.26,6,2.52,4.32q9.7-5.73,19.1-12a2.56,2.56,0,0,0,.9-3.42,2.52,2.52,0,0,0-3.42-.9Z"/><path class="cls-5" d="M143.57,324.53a53.14,53.14,0,0,1-3.4,5.27c-.14.2-.29.39-.43.58l-.22.29h0l-1,1.2c-.68.81-1.39,1.6-2.11,2.38a2.5,2.5,0,0,0,3.54,3.54,55.75,55.75,0,0,0,7.92-10.72,2.51,2.51,0,0,0-4.33-2.54Z"/><path class="cls-5" d="M145.83,321.35l17.73,1.08a2.5,2.5,0,0,0,0-5l-17.73-1.08a2.53,2.53,0,0,0-2.5,2.5,2.55,2.55,0,0,0,2.5,2.5Z"/><path class="cls-5" d="M156.91,313.51c1,0,2,0,2.93,0,.53,0,1,.06,1.58.11l.67.07.45.05c-.25,0-.29,0-.11,0a39.91,39.91,0,0,1,5.82,1.34,2.53,2.53,0,0,0,3.08-1.75,2.56,2.56,0,0,0-1.75-3.08,37.81,37.81,0,0,0-12.68-1.76,2.53,2.53,0,0,0-2.5,2.5,2.56,2.56,0,0,0,2.51,2.51Z"/><path class="cls-5" d="M154.09,314.47a105.8,105.8,0,0,1,14.51,4,2.53,2.53,0,0,0,3.08-1.75,2.58,2.58,0,0,0-1.75-3.08,105.4,105.4,0,0,0-14.51-4,2.5,2.5,0,1,0-1.33,4.83Z"/><path class="cls-5" d="M146.05,317.88c1.67-.25,3.38.66,4.77,1.47,1.76,1,3.4,2.26,5.13,3.33a65.94,65.94,0,0,0,11.86,5.76,2.53,2.53,0,0,0,3.08-1.75,2.57,2.57,0,0,0-1.75-3.08,59.72,59.72,0,0,1-12-6.14c-3.84-2.53-7.53-5.14-12.37-4.42a2.53,2.53,0,0,0-1.75,3.08,2.58,2.58,0,0,0,3.08,1.75Z"/><path class="cls-5" d="M159.13,317.5h5.77a2.61,2.61,0,0,0,1.77-.73,2.5,2.5,0,0,0-1.77-4.27h-5.77a2.61,2.61,0,0,0-1.77.73,2.5,2.5,0,0,0,1.77,4.27Z"/><path class="cls-5" d="M140.38,304.09c3.3,5.62,7.35,11.79,14.09,13.48a2.5,2.5,0,1,0,1.33-4.83c-.36-.09-.71-.19-1.05-.31l-.51-.19c-.57-.22.49.24-.06,0a16.36,16.36,0,0,1-1.87-1.06l-.44-.31c-.42-.29.36.31-.07,0-.26-.21-.51-.43-.76-.65a19.14,19.14,0,0,1-1.55-1.57c-.23-.25-.45-.51-.67-.78s-.24-.29-.35-.44c-.36-.44.24.33-.07-.09-.45-.61-.89-1.23-1.31-1.86-.84-1.25-1.61-2.55-2.38-3.85a2.53,2.53,0,0,0-3.42-.9,2.56,2.56,0,0,0-.91,3.44Z"/><polygon class="cls-10" points="171.12 355.77 171.12 3.28 187.92 3.28 187.92 355.77 171.12 355.77"/><path class="cls-1" d="M94.61,276.8a189.62,189.62,0,0,1,18,10,2.5,2.5,0,1,0,2.52-4.32,189.62,189.62,0,0,0-18-10,2.57,2.57,0,0,0-3.42.9,2.53,2.53,0,0,0,.9,3.42Z"/><path class="cls-1" d="M91.48,268.37c-.33,0,.3.17.11.06l.44.25a3.8,3.8,0,0,1,.71.59c.67.65,1.25,1.39,1.86,2.1A40.74,40.74,0,0,0,99,275.84a43.58,43.58,0,0,0,10.72,6.86,2.57,2.57,0,0,0,3.42-.9,2.52,2.52,0,0,0-.9-3.42,39.64,39.64,0,0,1-10.68-6.94,51.46,51.46,0,0,1-4.34-4.64,9,9,0,0,0-5.79-3.44c-1.34-.18-2.5,1.28-2.5,2.5a2.59,2.59,0,0,0,2.51,2.51Z"/><path class="cls-1" d="M100.37,277.49a3,3,0,0,1-.7,0c0,.1.51.29.6.36.35.26.66.6,1,.89a27.22,27.22,0,0,0,2.6,2.08,27.14,27.14,0,0,0,17.88,4.82,2.57,2.57,0,0,0,2.5-2.5,2.52,2.52,0,0,0-2.5-2.5,22.21,22.21,0,0,1-12-2.11,21.88,21.88,0,0,1-5-3.33c-2-1.83-4.17-3.42-6.94-2.07a2.5,2.5,0,1,0,2.52,4.32Z"/><path class="cls-1" d="M98.64,271.23l.42-.15H99c.12,0,.89.06.36,0a13.36,13.36,0,0,1,1.39.33l3.37.9,6.74,1.79a2.5,2.5,0,1,0,1.33-4.83l-7.25-1.93c-1.18-.32-2.36-.66-3.55-.94a6.74,6.74,0,0,0-4,0,2.57,2.57,0,0,0-1.75,3.08,2.49,2.49,0,0,0,3,1.75Z"/><path class="cls-1" d="M97.77,273c3.18.57,5.54,1.84,8.43,3.2a27.34,27.34,0,0,0,9.59,3,2.52,2.52,0,0,0,2.5-2.5,2.55,2.55,0,0,0-2.5-2.5l-.55-.05-.15,0c-.36-.06-.71-.13-1.07-.22a19.57,19.57,0,0,1-2.22-.68c-1.29-.47-2.43-1-3.84-1.69a35.92,35.92,0,0,0-8.87-3.35A2.58,2.58,0,0,0,96,270,2.55,2.55,0,0,0,97.77,273Z"/><path class="cls-1" d="M94.75,256.73c.35.19.7.4,1,.62l.4.27.33.24c-.19-.14.33.27.32.26l.37.31.82.73c1.14,1,2.21,2.14,3.37,3.16,2.57,2.25,5.47,4,8.95,4.26a2.51,2.51,0,0,0,2.5-2.5,2.56,2.56,0,0,0-2.5-2.5l-.47,0c.48.06,0,0-.14-.05a8.89,8.89,0,0,1-1-.28l-.44-.16c.24.1.12.05-.05,0s-.63-.32-.94-.5-.61-.37-.9-.57l-.39-.28c-.62-.44.18.15-.16-.12-.56-.44-1.1-.92-1.63-1.41-2.2-2-4.29-4.26-6.94-5.72a2.5,2.5,0,0,0-2.53,4.31Z"/><path class="cls-1" d="M101.8,278.68a16.43,16.43,0,0,0,14.25,8.47,2.5,2.5,0,1,0,0-5l-.9,0-.45,0c-.25,0-.4-.18,0,0a4.18,4.18,0,0,0-.8-.14,8.52,8.52,0,0,1-.87-.22c-.26-.07-.52-.15-.77-.24l-.51-.19c-.33-.13,0-.05.1,0-.11-.15-.64-.3-.82-.39s-.53-.28-.79-.44-.46-.28-.68-.44l-.37-.26c-.39-.26.24.2,0,0-.44-.37-.87-.74-1.27-1.15-.21-.21-.41-.44-.61-.66s-.19-.23-.29-.35.35.49,0,0a14.37,14.37,0,0,1-.95-1.53,2.53,2.53,0,0,0-3.42-.9,2.6,2.6,0,0,0-.9,3.45Z"/><path class="cls-1" d="M103.37,287.79H118.1a2.5,2.5,0,0,0,0-5H103.37a2.5,2.5,0,0,0,0,5Z"/><path class="cls-1" d="M104.63,286.23q11.94,1.17,23.78,3.1a2.58,2.58,0,0,0,3.08-1.75,2.53,2.53,0,0,0-1.75-3.08q-12.5-2-25.11-3.27a2.51,2.51,0,0,0-2.5,2.5,2.55,2.55,0,0,0,2.5,2.5Z"/><path class="cls-1" d="M75.08,291a37.07,37.07,0,0,1-3.23,5.15c-.19.26,0,0,.08-.1l-.21.27-.48.59c-.32.39-.66.77-1,1.15-.7.77-1.44,1.51-2.2,2.22a2.53,2.53,0,0,0,0,3.54,2.56,2.56,0,0,0,3.54,0,37.8,37.8,0,0,0,7.82-10.29A2.5,2.5,0,0,0,75.08,291Z"/><path class="cls-1" d="M80.76,294.26a22.7,22.7,0,0,1-2.57,4.21l.39-.51a22.81,22.81,0,0,1-3.53,3.62,2.49,2.49,0,0,0-.73,1.77,2.55,2.55,0,0,0,.73,1.77,2.51,2.51,0,0,0,1.77.73,2.86,2.86,0,0,0,1.77-.73,24.21,24.21,0,0,0,6.49-8.33,2.69,2.69,0,0,0,.25-1.93,2.51,2.51,0,0,0-4.57-.6Z"/><path class="cls-1" d="M120.51,328.66v2.86a1.86,1.86,0,0,0,.22,1,1.77,1.77,0,0,0,.52.8,1.92,1.92,0,0,0,.8.52,1.88,1.88,0,0,0,1,.22,2.53,2.53,0,0,0,1.77-.73,2.59,2.59,0,0,0,.73-1.77v-2.86a1.86,1.86,0,0,0-.22-1,1.77,1.77,0,0,0-.52-.8,1.92,1.92,0,0,0-.8-.52,1.88,1.88,0,0,0-1-.22,2.53,2.53,0,0,0-1.77.73,2.59,2.59,0,0,0-.73,1.77Z"/><circle class="cls-11" cx="179.52" cy="179.52" r="171.02"/><path class="cls-12" d="M119.06,63.29c-6-1.78-12.5.08-17.6,3.81s-8.9,9.18-12,14.92c-3.34,6.27-5.93,13.14-6.38,20.33s1.45,14.76,6.11,20c3.84,4.31,9.16,6.69,14.41,8.68a162.68,162.68,0,0,0,19.65,6.07c-12.36-6.87-19.6-22.22-19.09-37.1s8-28.93,18.75-38.47"/><path class="cls-13" d="M119.39,62.08c-7.54-2.15-15.35.86-21,5.91-5.87,5.24-10,12.53-13,19.73-3.09,7.48-4.6,15.74-2.86,23.75a25.56,25.56,0,0,0,13.06,17.34A80.41,80.41,0,0,0,108,133.93q7.35,2.53,14.92,4.36a1.25,1.25,0,0,0,1-2.28c-9.39-5.29-15.34-15.16-17.55-25.52-2.38-11.19,0-22.91,5.39-32.88A57.36,57.36,0,0,1,123.82,62.4c1.2-1.08-.57-2.84-1.77-1.77a57.78,57.78,0,0,0-18.12,31,46.76,46.76,0,0,0,5.59,33.59,36.8,36.8,0,0,0,13.12,12.94l1-2.28a138.69,138.69,0,0,1-23.28-7.54,31,31,0,0,1-8.95-5.58,21.69,21.69,0,0,1-5.51-8.69c-2.47-7.14-1.79-14.83.54-21.9A56.8,56.8,0,0,1,97.26,72.65c5.3-6,13.27-10.47,21.43-8.15a1.26,1.26,0,0,0,.7-2.42Z"/><g class="cls-14"><path class="cls-13" d="M260.5,93.53l8.21-1.87a1.26,1.26,0,0,0,0-2.41,16.93,16.93,0,0,0-15,2.34,1.25,1.25,0,0,0,1,2.28A4.22,4.22,0,0,1,259.3,96a1.26,1.26,0,0,0,2.28-.3c.56-1.89,1.13-3.78,1.69-5.67l-2.46-.33a17.42,17.42,0,0,1-1,6.52l2.46.33c0-1.77,0-3.53,0-5.3,0-1.38-2.16-1.74-2.46-.33a3.49,3.49,0,0,0,1.76,3.89,1.28,1.28,0,0,0,1.84-.75c.9-2.15,1.81-4.29,2.71-6.44l-2.09.55a8.6,8.6,0,0,1,1.67,3.3,2,2,0,0,1,0,1.45c-.07.11,0,0-.09.06a.66.66,0,0,1-.45,0,1.61,1.61,0,0,1-1.34-1.13c-.37-1.35.34-2.86.85-4.08a1.26,1.26,0,0,0-.87-1.54,1.29,1.29,0,0,0-1.54.87c-.8,1.94-1.53,4.19-.55,6.21a4.13,4.13,0,0,0,3.74,2.17,3.08,3.08,0,0,0,2.83-3.7,10.77,10.77,0,0,0-2.5-5.43c-.67-.81-1.77-.21-2.09.55-.9,2.15-1.81,4.29-2.71,6.44l1.84-.75a1,1,0,0,1-.61-1.07l-2.46-.33c0,1.77,0,3.53,0,5.3a1.26,1.26,0,0,0,2.46.33,19.47,19.47,0,0,0,1.09-7.18,1.26,1.26,0,0,0-2.46-.33c-.56,1.89-1.13,3.78-1.69,5.67l2.28-.3A6.77,6.77,0,0,0,254,91.45l1,2.28A14.58,14.58,0,0,1,268,91.64V89.23l-8.21,1.87c-1.54.38-.88,2.79.69,2.43Z"/></g><g class="cls-15"><path class="cls-13" d="M241,140.59a11.26,11.26,0,0,0,7.39-4,1.27,1.27,0,0,0-.88-2.13,18.21,18.21,0,0,1-8.59-2.74,1.26,1.26,0,0,0-1.71,1.71l6.58,12.31a1.26,1.26,0,0,0,2.16,0,10.57,10.57,0,0,0-.29-10.24,1.28,1.28,0,0,0-1.71-.45,20.46,20.46,0,0,0-7,6.23l2.33.63a19.56,19.56,0,0,1,5.09-12l-2.09-1.22-1.38,9.17a1.3,1.3,0,0,0,.87,1.54,1.26,1.26,0,0,0,1.54-.87l1.38-9.17c.17-1.12-1.16-2.23-2.09-1.22a22.34,22.34,0,0,0-5.82,13.81c-.08,1.34,1.67,1.56,2.33.63a17.8,17.8,0,0,1,6.08-5.33l-1.71-.45a8,8,0,0,1,.29,7.72H246l-6.58-12.31-1.71,1.71a21,21,0,0,0,9.85,3.08l-.88-2.13a8.76,8.76,0,0,1-5.63,3.23,1.29,1.29,0,0,0-1.25,1.25c0,.61.58,1.34,1.25,1.25Z"/></g><g class="cls-16"><path class="cls-13" d="M285.53,99a2.34,2.34,0,0,0,0,3.3c1,1.17,2.68,1,4,.49,2.84-1,5.66-2,8.49-3a1.26,1.26,0,0,0,.3-2.28,24.86,24.86,0,0,0-11.34-3,1.28,1.28,0,0,0-1.25,1.25,12.17,12.17,0,0,0,4.18,9.75A1.27,1.27,0,0,0,292,105a25,25,0,0,0,.55-8,1.31,1.31,0,0,0-.92-1.21,1.25,1.25,0,0,0-1.41.57l-2,4.64a1.29,1.29,0,0,0,.45,1.71,1.26,1.26,0,0,0,1.71-.45l2-4.64L290,97a23.49,23.49,0,0,1-.46,7.29l2.09-.55a9.76,9.76,0,0,1-3.45-8L287,97A22.05,22.05,0,0,1,297,99.63l.3-2.28-6.4,2.29a18.09,18.09,0,0,1-3,1,2.67,2.67,0,0,1-.49,0c-.14,0-.13-.11,0,0-.07-.13-.09-.15,0-.05,0-.15,0-.16,0,0s-.22.33,0,.17a1.27,1.27,0,0,0,0-1.77,1.29,1.29,0,0,0-1.78,0Z"/></g><g class="cls-17"><path class="cls-13" d="M234.91,208.05l8.21-1.87a1.26,1.26,0,0,0,0-2.41,16.93,16.93,0,0,0-15,2.34,1.25,1.25,0,0,0,1,2.28,4.22,4.22,0,0,1,4.67,2.09,1.26,1.26,0,0,0,2.28-.3c.56-1.89,1.13-3.78,1.69-5.67l-2.46-.33a17.42,17.42,0,0,1-1,6.52l2.46.33c0-1.77,0-3.53,0-5.3,0-1.38-2.16-1.74-2.46-.33a3.49,3.49,0,0,0,1.76,3.89,1.28,1.28,0,0,0,1.84-.75c.9-2.15,1.81-4.29,2.71-6.44l-2.09.55a8.6,8.6,0,0,1,1.67,3.3,2,2,0,0,1,0,1.45c-.07.11,0,0-.09.06a.66.66,0,0,1-.45,0,1.61,1.61,0,0,1-1.34-1.13c-.37-1.35.34-2.86.85-4.08a1.26,1.26,0,0,0-.87-1.54,1.29,1.29,0,0,0-1.54.87c-.8,1.94-1.53,4.19-.55,6.21a4.13,4.13,0,0,0,3.74,2.17,3.08,3.08,0,0,0,2.83-3.7,10.77,10.77,0,0,0-2.5-5.43c-.67-.81-1.77-.21-2.09.55-.9,2.15-1.81,4.29-2.71,6.44l1.84-.75a1,1,0,0,1-.61-1.07l-2.46-.33c0,1.77,0,3.53,0,5.3a1.26,1.26,0,0,0,2.46.33,19.47,19.47,0,0,0,1.09-7.18,1.26,1.26,0,0,0-2.46-.33c-.56,1.89-1.13,3.78-1.69,5.67l2.28-.3a6.77,6.77,0,0,0-7.49-3.24l1,2.28a14.58,14.58,0,0,1,13.11-2.09v-2.41l-8.21,1.87c-1.55.38-.88,2.79.69,2.43Z"/></g><g class="cls-17"><path class="cls-13" d="M267.54,172.78l8.21-1.87a1.26,1.26,0,0,0,0-2.41,16.93,16.93,0,0,0-15,2.34,1.25,1.25,0,0,0,1,2.28,4.22,4.22,0,0,1,4.67,2.09,1.26,1.26,0,0,0,2.28-.3c.56-1.89,1.13-3.78,1.69-5.67l-2.46-.33a17.42,17.42,0,0,1-1,6.52l2.46.33c0-1.77,0-3.53,0-5.3,0-1.38-2.16-1.74-2.46-.33a3.49,3.49,0,0,0,1.76,3.89,1.28,1.28,0,0,0,1.84-.75c.9-2.15,1.81-4.29,2.71-6.44l-2.09.55a8.6,8.6,0,0,1,1.67,3.3,2,2,0,0,1,0,1.45c-.07.11,0,0-.09.06a.66.66,0,0,1-.45.05,1.61,1.61,0,0,1-1.34-1.13c-.37-1.35.34-2.86.85-4.08a1.26,1.26,0,0,0-.87-1.54,1.29,1.29,0,0,0-1.54.87c-.8,1.94-1.53,4.19-.55,6.21a4.13,4.13,0,0,0,3.74,2.17,3.08,3.08,0,0,0,2.83-3.7,10.77,10.77,0,0,0-2.5-5.43c-.67-.81-1.77-.21-2.09.55-.9,2.15-1.81,4.29-2.71,6.44l1.84-.75a1,1,0,0,1-.61-1.07l-2.46-.33c0,1.77,0,3.53,0,5.3a1.26,1.26,0,0,0,2.46.33,19.47,19.47,0,0,0,1.09-7.18,1.26,1.26,0,0,0-2.46-.33c-.56,1.89-1.13,3.78-1.69,5.67l2.28-.3A6.77,6.77,0,0,0,261,170.7l1,2.28a14.58,14.58,0,0,1,13.11-2.09v-2.41l-8.21,1.87c-1.54.37-.88,2.79.69,2.43Z"/></g><rect class="cls-18" x="3.28" y="175.76" width="352.49" height="16.8"/><g class="cls-6"><path class="cls-13" d="M295.87,218.33a11.26,11.26,0,0,0,7.39-4,1.27,1.27,0,0,0-.88-2.13,18.21,18.21,0,0,1-8.59-2.74,1.26,1.26,0,0,0-1.71,1.71l6.58,12.31a1.26,1.26,0,0,0,2.16,0,10.57,10.57,0,0,0-.29-10.24,1.28,1.28,0,0,0-1.71-.45,20.46,20.46,0,0,0-7,6.23l2.33.63a19.56,19.56,0,0,1,5.09-12l-2.09-1.22-1.38,9.17a1.3,1.3,0,0,0,.87,1.54,1.26,1.26,0,0,0,1.54-.87l1.38-9.17c.17-1.12-1.16-2.23-2.09-1.22a22.34,22.34,0,0,0-5.82,13.81c-.08,1.34,1.67,1.56,2.33.63a17.8,17.8,0,0,1,6.08-5.33l-1.71-.45a8,8,0,0,1,.29,7.72h2.16l-6.58-12.31-1.71,1.71a21,21,0,0,0,9.85,3.08l-.88-2.13a8.76,8.76,0,0,1-5.63,3.23,1.29,1.29,0,0,0-1.25,1.25,1.26,1.26,0,0,0,1.25,1.25Z"/></g><g class="cls-19"><path class="cls-13" d="M292.08,155.15l8.21-1.87a1.26,1.26,0,0,0,0-2.41,16.93,16.93,0,0,0-15,2.34,1.25,1.25,0,0,0,1,2.28,4.22,4.22,0,0,1,4.67,2.09,1.26,1.26,0,0,0,2.28-.3c.56-1.89,1.13-3.78,1.69-5.67l-2.46-.33a17.42,17.42,0,0,1-1,6.52l2.46.33c0-1.77,0-3.53,0-5.3,0-1.38-2.16-1.74-2.46-.33a3.49,3.49,0,0,0,1.76,3.89,1.28,1.28,0,0,0,1.84-.75c.9-2.15,1.81-4.29,2.71-6.44l-2.09.55a8.6,8.6,0,0,1,1.67,3.3,2,2,0,0,1,0,1.45c-.07.11,0,0-.09.06a.66.66,0,0,1-.45.05,1.61,1.61,0,0,1-1.34-1.13c-.37-1.35.34-2.86.85-4.08a1.26,1.26,0,0,0-.87-1.54,1.29,1.29,0,0,0-1.54.87c-.8,1.94-1.53,4.19-.55,6.21a4.13,4.13,0,0,0,3.74,2.17,3.08,3.08,0,0,0,2.83-3.7,10.77,10.77,0,0,0-2.5-5.43c-.67-.81-1.77-.21-2.09.55-.9,2.15-1.81,4.29-2.71,6.44l1.84-.75a1,1,0,0,1-.61-1.07l-2.46-.33c0,1.77,0,3.53,0,5.3a1.26,1.26,0,0,0,2.46.33,19.47,19.47,0,0,0,1.09-7.18,1.26,1.26,0,0,0-2.46-.33c-.56,1.89-1.13,3.78-1.69,5.67l2.28-.3a6.77,6.77,0,0,0-7.49-3.24l1,2.28a14.58,14.58,0,0,1,13.11-2.09v-2.41l-8.21,1.87c-1.54.37-.87,2.78.69,2.43Z"/></g></g></g></svg>