<svg xmlns="http://www.w3.org/2000/svg" viewBox="0 0 190.31 171.55"><defs><style>.cls-1,.cls-2{fill:#ed1c24;}.cls-1{stroke:#ed1c24;stroke-miterlimit:10;}.cls-3{fill:#939598;}</style></defs><title>pinterest</title><g id="Layer_2" data-name="Layer 2"><g id="Layer_1-2" data-name="Layer 1"><ellipse class="cls-1" cx="80.38" cy="74.43" rx="38.44" ry="11.18"/><path class="cls-2" d="M57.45,79.62q-.08,11.72-.14,23.43c0,2.54,0,5.23,1.29,7.42,2.11,3.6,6.77,4.63,10.92,5.06a104,104,0,0,0,28.13-.94,5.93,5.93,0,0,0,3.16-1.22c1.09-1,1.27-2.66,1.38-4.15a318.89,318.89,0,0,0,.62-33,2.8,2.8,0,0,0-3.38-3.4L66,72.74c-2.73,0-5.84.15-7.61,2.24"/><path class="cls-2" d="M55,79.62q-.06,9.22-.11,18.45c0,5.19-.88,11.42,3,15.53,3.28,3.46,8.39,4.14,12.88,4.55a103.15,103.15,0,0,0,17.75.09c3-.24,5.94-.61,8.88-1.08,2.76-.45,5.37-1.24,6.56-4,1.08-2.53.91-5.65,1.06-8.34.17-3,.29-5.91.38-8.87q.26-9,0-18c-.07-2.61,0-5.54-2.65-7a8.32,8.32,0,0,0-4-.66H93.94l-20.45,0c-3.09,0-6.21-.14-9.3,0-2.78.15-5.61.8-7.56,2.93-2.16,2.37,1.36,5.92,3.54,3.54,1.17-1.29,2.92-1.44,4.57-1.49,2.5-.08,5,0,7.5,0l16.21,0,8,0c1.25,0,2.51,0,3.75,0,.25,0,.09,0,0-.15a2.38,2.38,0,0,1,.13,1c.24,5.33.22,10.69.13,16s-.32,10.68-.68,16a8.32,8.32,0,0,1-.41,2.93c-.31.65-.94.74-1.61.88a64.62,64.62,0,0,1-7.33,1,104.22,104.22,0,0,1-15.8.36c-3.86-.21-8.49-.22-11.91-2.3a6,6,0,0,1-2.79-4.66,67.26,67.26,0,0,1-.08-8.4q.06-9.22.11-18.45c0-3.23-5-3.23-5,0Z"/><path class="cls-3" d="M76,119.79a181.39,181.39,0,0,0,4.45,49.31Q84.7,145.22,89,121.35a12.45,12.45,0,0,0-11.7-3.25"/><path class="cls-3" d="M73.46,119.79a184.55,184.55,0,0,0,4.54,50c.54,2.31,4.38,2.45,4.82,0q2.37-13.15,4.73-26.31,1.15-6.45,2.32-12.91c.39-2.19.79-4.39,1.18-6.58.2-1.14.69-2.47.22-3.58a6.68,6.68,0,0,0-2.5-2.39,14.83,14.83,0,0,0-12.15-2.31c-3.12.77-1.8,5.59,1.33,4.82a10.18,10.18,0,0,1,9.27,2.61c-.21-.81-.43-1.62-.64-2.43Q82.29,144.56,78,168.43h4.82a180,180,0,0,1-4.36-48.64c.16-3.22-4.84-3.21-5,0Z"/><ellipse class="cls-1" cx="80.48" cy="117.71" rx="43.84" ry="10.36"/><path class="cls-2" d="M61.93,133.82a45.81,45.81,0,0,1-9-.27l2,.27a48.68,48.68,0,0,1-12.07-3.31l1.79.76a53.68,53.68,0,0,1-8.89-4.8c-.7-.47-1.4-1-2.08-1.46-1.55-1.15,1.07.87.07.07-.28-.23-.57-.45-.85-.69-1.36-1.12-2.67-2.3-3.91-3.54s-2.36-2.46-3.45-3.76l-.81-1c-.87-1.06,1.18,1.57.17.22-.51-.68-1-1.37-1.49-2.07a54.09,54.09,0,0,1-5-9.08c.25.6.5,1.19.76,1.79a57.15,57.15,0,0,1-3.9-14.48l.27,2a64.58,64.58,0,0,1,.09-16.84l-.27,2a72.72,72.72,0,0,1,4.93-17.9c-.25.6-.5,1.19-.76,1.79a74.81,74.81,0,0,1,5.81-11.07c1.11-1.73,2.33-3.36,3.53-5-1.41,2-.29.39.05,0s.59-.72.89-1.07c.72-.86,1.47-1.71,2.23-2.53A83.43,83.43,0,0,1,41,35.38a8.41,8.41,0,0,1,1.24-1c-.05,0-1.53,1.17-.58.45l.47-.36c.9-.67,1.81-1.33,2.73-2Q47.4,30.76,50,29.18a102.14,102.14,0,0,1,12.62-6.37l-1.79.76a115.33,115.33,0,0,1,29-7.81l-2,.27a125.54,125.54,0,0,1,33.09,0l-2-.27a117.33,117.33,0,0,1,29.29,7.77l-1.79-.76a79.87,79.87,0,0,1,9,4.47q2.17,1.26,4.24,2.68c.68.47,1.35,1,2,1.46.46.35.21.15-.76-.59l.6.47.88.73c1.26,1.06,2.47,2.17,3.62,3.35.53.54,1,1.1,1.54,1.66.29.33.58.67.86,1s1.24,1.76-.11-.19a47,47,0,0,1,5,8.54c-.25-.6-.5-1.19-.76-1.79a40,40,0,0,1,2.63,9.91l-.27-2a44,44,0,0,1,0,11.06l.27-2a45,45,0,0,1-3,11.09c.25-.6.5-1.19.76-1.79a43.49,43.49,0,0,1-4,7.42c-.13.19-1.36,1.86-1.35,1.87s1.28-1.62.34-.47c-.2.25-.41.49-.61.73a43.3,43.3,0,0,1-3,3.19c-1,1-2.08,1.87-3.16,2.76-.7.57,1.46-1.09.46-.36l-.93.68c-.57.41-1.15.8-1.74,1.18a50.25,50.25,0,0,1-7.61,4l1.79-.76a52.32,52.32,0,0,1-12.93,3.54l2-.27a51.87,51.87,0,0,1-8.81.42,7.56,7.56,0,0,0-7.5,7.5,7.66,7.66,0,0,0,7.5,7.5,57.9,57.9,0,0,0,40.27-14.44,50.51,50.51,0,0,0,16.6-39.07,46.93,46.93,0,0,0-6.1-21.78A54.68,54.68,0,0,0,169,18.22a80.7,80.7,0,0,0-18.76-9.94,115.79,115.79,0,0,0-21.63-6.06,133.71,133.71,0,0,0-49.81.24A112.11,112.11,0,0,0,39.75,17.92C27.59,25.76,17,36.24,10,49S-.88,76.46.17,91a66.68,66.68,0,0,0,5.42,22.11,60.49,60.49,0,0,0,11.12,16.68A61.57,61.57,0,0,0,32.49,142a58.18,58.18,0,0,0,20.4,6.52,45.05,45.05,0,0,0,9,.27,7.92,7.92,0,0,0,5.3-2.2,7.65,7.65,0,0,0,2.2-5.3C69.26,137.49,66.12,133.52,61.93,133.82Z"/></g></g></svg>