<?xml version="1.0" encoding="utf-8"?>
<!-- Generator: Adobe Illustrator 23.1.1, SVG Export Plug-In . SVG Version: 6.00 Build 0)  -->
<svg version="1.1" id="Layer_1" xmlns="http://www.w3.org/2000/svg" xmlns:xlink="http://www.w3.org/1999/xlink" x="0px" y="0px"
	 viewBox="0 0 595.28 841.89" style="enable-background:new 0 0 595.28 841.89;" xml:space="preserve">
<style type="text/css">
	.st0{fill:#ED1C24;stroke:#ED1C24;stroke-miterlimit:10;}
	.st1{fill:#ED1C24;}
	.st2{fill:#939598;}
</style>
<ellipse class="st0" cx="258.8" cy="307.31" rx="38.44" ry="11.18"/>
<g>
	<path class="st1" d="M235.87,312.5c-0.05,7.81-0.1,15.62-0.14,23.43c-0.02,2.54,0,5.23,1.29,7.42c2.11,3.6,6.77,4.63,10.92,5.06
		c9.36,0.96,18.86,0.65,28.13-0.94c1.13-0.19,2.33-0.44,3.16-1.22c1.09-1.02,1.27-2.66,1.38-4.15c0.78-10.98,0.98-22.01,0.62-33.01
		c-0.03-1.01-0.13-2.14-0.89-2.8c-0.66-0.57-1.62-0.6-2.49-0.6c-11.14-0.02-22.28-0.04-33.43-0.07c-2.73-0.01-5.84,0.15-7.61,2.24"
		/>
	<g>
		<path class="st1" d="M233.37,312.5c-0.04,6.15-0.08,12.3-0.11,18.45c-0.03,5.19-0.88,11.42,3.01,15.53
			c3.28,3.46,8.39,4.14,12.88,4.55c5.9,0.54,11.84,0.57,17.75,0.09c2.97-0.24,5.94-0.61,8.88-1.08c2.76-0.45,5.37-1.24,6.56-4.03
			c1.08-2.53,0.91-5.65,1.06-8.34c0.17-2.95,0.29-5.91,0.38-8.87c0.17-6,0.17-12,0.01-17.99c-0.07-2.61-0.03-5.54-2.65-6.97
			c-1.24-0.68-2.67-0.65-4.04-0.66c-1.58,0-3.16-0.01-4.74-0.01c-6.82-0.01-13.64-0.03-20.45-0.04c-3.09-0.01-6.21-0.14-9.3,0.02
			c-2.78,0.15-5.61,0.8-7.56,2.93c-2.16,2.37,1.36,5.92,3.54,3.54c1.17-1.29,2.92-1.44,4.57-1.49c2.5-0.08,5.01-0.01,7.5,0
			c5.4,0.01,10.81,0.02,16.21,0.03c2.66,0.01,5.32,0.01,7.98,0.02c1.25,0,2.51-0.04,3.75,0.03c0.25,0.01,0.09,0.01-0.01-0.15
			c0.17,0.26,0.11,0.74,0.13,1.03c0.24,5.33,0.22,10.69,0.13,16.02c-0.09,5.34-0.32,10.68-0.68,16.01c-0.06,0.91,0,2.07-0.41,2.93
			c-0.31,0.65-0.94,0.74-1.61,0.88c-2.4,0.52-4.89,0.79-7.33,1.03c-5.25,0.52-10.54,0.64-15.8,0.36c-3.86-0.21-8.49-0.22-11.91-2.3
			c-1.72-1.04-2.55-2.69-2.79-4.66c-0.34-2.76-0.09-5.63-0.08-8.4c0.04-6.15,0.08-12.3,0.11-18.45
			C238.39,309.28,233.39,309.28,233.37,312.5L233.37,312.5z"/>
	</g>
</g>
<g>
	<path class="st2" d="M254.38,352.67c-0.77,16.61,0.74,33.41,4.45,49.31c2.86-15.92,5.73-31.83,8.59-47.75
		c-3.36-3.12-7.68-4.32-11.7-3.25"/>
	<g>
		<path class="st2" d="M251.88,352.67c-0.76,16.76,0.75,33.62,4.54,49.97c0.54,2.31,4.38,2.45,4.82,0
			c1.58-8.77,3.15-17.54,4.73-26.31c0.77-4.3,1.55-8.61,2.32-12.91c0.39-2.19,0.79-4.39,1.18-6.58c0.2-1.14,0.69-2.47,0.22-3.58
			c-0.44-1.04-1.61-1.76-2.5-2.39c-3.52-2.51-7.97-3.34-12.15-2.31c-3.12,0.77-1.8,5.59,1.33,4.82c3.38-0.83,6.72,0.32,9.27,2.61
			c-0.21-0.81-0.43-1.62-0.64-2.43c-2.86,15.92-5.73,31.83-8.59,47.75c1.61,0,3.21,0,4.82,0c-3.69-15.93-5.09-32.31-4.36-48.64
			C257.03,349.45,252.03,349.46,251.88,352.67L251.88,352.67z"/>
	</g>
</g>
<ellipse class="st0" cx="258.9" cy="350.59" rx="43.84" ry="10.36"/>
<g>
	<g>
		<path class="st1" d="M240.35,366.7c-3,0.21-6,0.11-8.99-0.27c0.66,0.09,1.33,0.18,1.99,0.27c-4.16-0.57-8.19-1.7-12.07-3.31
			c0.6,0.25,1.19,0.5,1.79,0.76c-3.11-1.32-6.08-2.92-8.89-4.8c-0.7-0.47-1.4-0.96-2.08-1.46c-1.55-1.15,1.07,0.87,0.07,0.07
			c-0.28-0.23-0.57-0.45-0.85-0.69c-1.36-1.12-2.67-2.3-3.91-3.54c-1.21-1.2-2.36-2.46-3.45-3.76c-0.27-0.33-0.54-0.66-0.81-0.99
			c-0.87-1.06,1.18,1.57,0.17,0.22c-0.51-0.68-1.01-1.37-1.49-2.07c-1.95-2.86-3.61-5.9-4.98-9.08c0.25,0.6,0.5,1.19,0.76,1.79
			c-1.95-4.63-3.22-9.5-3.9-14.48c0.09,0.66,0.18,1.33,0.27,1.99c-0.72-5.6-0.66-11.25,0.09-16.84c-0.09,0.66-0.18,1.33-0.27,1.99
			c0.86-6.16,2.54-12.16,4.93-17.9c-0.25,0.6-0.5,1.19-0.76,1.79c1.63-3.84,3.56-7.55,5.81-11.07c1.11-1.73,2.33-3.36,3.53-5.03
			c-1.41,1.96-0.29,0.39,0.05-0.04c0.29-0.36,0.59-0.72,0.89-1.07c0.72-0.86,1.47-1.71,2.23-2.53c2.77-3.01,5.76-5.82,8.94-8.39
			c0.37-0.3,0.81-0.77,1.24-0.99c-0.05,0.03-1.53,1.17-0.58,0.45c0.16-0.12,0.32-0.24,0.47-0.36c0.9-0.67,1.81-1.33,2.73-1.97
			c1.69-1.17,3.41-2.28,5.17-3.33c4.05-2.42,8.27-4.53,12.62-6.37c-0.6,0.25-1.19,0.5-1.79,0.76c9.28-3.89,19.05-6.45,29.01-7.81
			c-0.66,0.09-1.33,0.18-1.99,0.27c10.98-1.46,22.11-1.44,33.09,0.02c-0.66-0.09-1.33-0.18-1.99-0.27
			c10.02,1.37,19.95,3.87,29.29,7.77c-0.6-0.25-1.19-0.5-1.79-0.76c3.1,1.31,6.13,2.78,9.04,4.47c1.45,0.84,2.86,1.73,4.24,2.68
			c0.68,0.47,1.35,0.96,2.02,1.46c0.46,0.35,0.21,0.15-0.76-0.59c0.2,0.16,0.4,0.31,0.6,0.47c0.3,0.24,0.59,0.48,0.88,0.73
			c1.26,1.06,2.47,2.17,3.62,3.35c0.53,0.54,1.04,1.1,1.54,1.66c0.29,0.33,0.58,0.67,0.86,1.01c0.37,0.44,1.24,1.76-0.11-0.19
			c1.91,2.74,3.66,5.45,4.97,8.54c-0.25-0.6-0.5-1.19-0.76-1.79c1.31,3.18,2.17,6.5,2.63,9.91c-0.09-0.66-0.18-1.33-0.27-1.99
			c0.46,3.68,0.44,7.38-0.03,11.06c0.09-0.66,0.18-1.33,0.27-1.99c-0.52,3.81-1.52,7.53-2.99,11.09c0.25-0.6,0.5-1.19,0.76-1.79
			c-1.1,2.59-2.42,5.09-4,7.42c-0.13,0.19-1.36,1.86-1.35,1.87c-0.03-0.03,1.28-1.62,0.34-0.47c-0.2,0.25-0.41,0.49-0.61,0.73
			c-0.95,1.11-1.96,2.18-3.02,3.19c-1.01,0.97-2.08,1.87-3.16,2.76c-0.7,0.57,1.46-1.09,0.46-0.36c-0.31,0.23-0.61,0.45-0.93,0.68
			c-0.57,0.41-1.15,0.8-1.74,1.18c-2.41,1.56-4.96,2.89-7.61,4.02c0.6-0.25,1.19-0.5,1.79-0.76c-4.15,1.73-8.48,2.92-12.93,3.54
			c0.66-0.09,1.33-0.18,1.99-0.27c-2.92,0.39-5.86,0.53-8.81,0.42c-3.92-0.15-7.68,3.56-7.5,7.5c0.19,4.19,3.3,7.34,7.5,7.5
			c14.65,0.56,29.31-4.72,40.27-14.44c10.93-9.7,17.14-24.48,16.6-39.07c-0.28-7.62-2.27-15.16-6.1-21.78
			c-3.79-6.56-9.13-11.84-15.16-16.32c-5.72-4.25-12.16-7.34-18.76-9.94c-6.97-2.74-14.26-4.72-21.63-6.06
			c-16.52-3.02-33.32-2.98-49.81,0.24c-13.75,2.68-27.28,7.86-39.07,15.46c-12.16,7.84-22.78,18.32-29.8,31.05
			c-6.98,12.66-10.83,27.49-9.78,41.99c0.56,7.72,2.33,15.03,5.42,22.11c2.68,6.14,6.58,11.77,11.12,16.68
			c4.51,4.88,9.93,9.13,15.78,12.29c6.41,3.47,13.2,5.58,20.4,6.52c2.99,0.39,5.99,0.48,8.99,0.27c2.01-0.14,3.85-0.74,5.3-2.2
			c1.3-1.3,2.28-3.44,2.2-5.3C247.68,370.37,244.54,366.4,240.35,366.7L240.35,366.7z"/>
	</g>
</g>
</svg>
