<svg xmlns="http://www.w3.org/2000/svg" viewBox="0 0 1184.01 1217.09"><defs><style>.cls-1{fill:#d1b2c9;}.cls-2{fill:#fef1f6;}.cls-3{fill:#3e2e1b;}.cls-4{fill:#c59c6d;}.cls-5{fill:#576d47;}.cls-6{fill:#501310;}.cls-7{fill:#4d1413;}.cls-8{fill:#668b4c;}.cls-9{fill:#557b38;}.cls-10{fill:#76955f;}.cls-11{fill:#455d34;}.cls-12{fill:#2c3e1f;}.cls-13{fill:#29461f;}.cls-14{fill:#232f1b;}</style></defs><title>plants1</title><g id="Layer_2" data-name="Layer 2"><g id="Layer_1-2" data-name="Layer 1"><path class="cls-1" d="M865.89,784.9a532.59,532.59,0,0,1,19.92,153.34c-.45,27.23-3.09,54.84-12.52,80.19-11,29.57-30.81,54.77-53.63,75.47-59.84,54.3-140.89,79.06-219.74,76s-155.47-32.35-223-75.46c-21.69-13.84-43.15-29.76-56.67-52.39-10.71-17.93-15.73-39-19.41-59.8a565.41,565.41,0,0,1,6.32-226.67"/><path class="cls-1" d="M864.45,785.3A532.53,532.53,0,0,1,884,907.84c1.61,39.53.79,81.7-15.46,118.48-14.5,32.81-39.72,60.13-68.06,81.63a294.59,294.59,0,0,1-93.38,47,328.73,328.73,0,0,1-102.87,13.58c-37.67-1-75-8.13-110.81-19.81-36.17-11.82-70.74-28.25-103.29-47.89-15.51-9.36-31-19.22-44.55-31.3-13.91-12.38-25-27.11-31.91-44.48-7.08-17.82-10.5-36.95-13.39-55.83a558.82,558.82,0,0,1-5.93-61.66,564.57,564.57,0,0,1,8.26-122.18q2.64-14.77,6.07-29.4c.44-1.88-2.45-2.68-2.89-.8a567.23,567.23,0,0,0-12,186.28c2,20,4.84,40,9.43,59.61,4.31,18.34,10.89,36.23,22.35,51.38,10.73,14.18,24.56,25.59,39.12,35.64A510.18,510.18,0,0,0,465.91,1142c35.58,14.11,72.94,23.89,111.05,27.8a340.21,340.21,0,0,0,107-5.76,306.31,306.31,0,0,0,97.53-39.39c30.12-18.91,57.7-43.59,77-73.64a167.42,167.42,0,0,0,22.13-51.84c4.67-19.58,6.24-39.77,6.62-59.84a534.52,534.52,0,0,0-12.43-124.9q-3.32-15.08-7.52-29.92a1.5,1.5,0,0,0-2.89.78Z"/><path class="cls-2" d="M708.05,639.31c-94.44-2.22-189-4.43-283.3,3.16-26.41,2.13-53.76,5.44-76.94,25.41s-41,61.28-35.56,101.89c6.47,48,40,72.71,69.89,87.1,140.64,67.67,294.54,65.62,434.43-5.77,21.64-11,46.6-31,48-66.61,1-24.81-10.53-46.31-22.43-62.7-34.1-46.95-78-76.14-123.18-81.94"/><path class="cls-1" d="M708.05,637.81c-53.44-1.25-106.9-2.51-160.36-2-26.73.26-53.45,1-80.15,2.34q-20.31,1.05-40.6,2.63a290.61,290.61,0,0,0-31.14,3.69C375,648.41,355,657.2,340.43,672.93,326.65,687.78,317.57,707,313,726.66c-4.9,21.17-4.45,43.74,2.67,64.36a104.43,104.43,0,0,0,29.72,43.87c12.85,11.38,27.79,19.57,43.29,26.74A511.48,511.48,0,0,0,456,887.25a472.93,472.93,0,0,0,277.16-.68,515.17,515.17,0,0,0,67.25-25.92c16.58-7.74,33.25-15.86,46-29.4a72.19,72.19,0,0,0,19.69-51.2c-.44-21.87-10.3-42-23-59.42-24.55-33.7-57.59-63-97.71-76.27a144.58,144.58,0,0,0-26.47-6c-1.91-.25-1.89,2.75,0,3,39.76,5.23,74.91,28.09,101.88,56.92,14.57,15.58,28.62,33.31,36.38,53.38,7.67,19.83,8.36,42.47-1.61,61.65-7.7,14.81-20.73,25.93-35.1,34-19.75,11.1-41.14,20-62.39,27.74A482.68,482.68,0,0,1,623.54,903.7a469.85,469.85,0,0,1-135.61-11.08,494.68,494.68,0,0,1-66.19-20.26c-18.86-7.24-38-15.1-55.29-25.7-14.31-8.79-27.27-20-36.68-34-11.2-16.67-16.79-36.57-17-56.58a124.22,124.22,0,0,1,16-61.92c10.27-18.19,25.43-32.4,44.92-40.28,20.14-8.14,42.25-9.34,63.67-10.87,25.76-1.84,51.56-3,77.38-3.62,51.8-1.29,103.62-.56,155.42.56q18.95.4,37.89.87c1.94,0,1.94-3,0-3Z"/><path class="cls-1" d="M865.79,737.24a1.5,1.5,0,0,0,0-3,1.5,1.5,0,0,0,0,3Z"/><path class="cls-3" d="M290.41,719c.58,36.1,13.62,68.49,30,88.37s35.72,29.24,54.84,37.07c100.09,41,203.18,49.08,305.62,57,14.85,1.15,29.89,2.27,44.45-3.24,15.38-5.82,29.66-18.81,43.55-32.33,21.14-20.57,41.83-42.66,62.51-64.74,5.72-6.11,11.61-12.49,15.53-22.33s5.32-24.14,1.55-34.16c-5.56-14.75-17.45-11.85-27.17-12.8-9.48-.92-18.54-7-27.7-11.61-20.84-10.42-42.55-13.08-64.09-15.68-33.69-4.07-67.58-8.14-101.13-1.23-21.92,4.51-43.66,13.71-65.72,13.45-20.31-.24-40.46-8.51-60.77-7.33-6.73.39-13.57,1.8-20.14-.9-7.65-3.14-14.3-11.55-21.48-17.36-20.36-16.46-43.7-11.2-65.72-5.63L289.23,712.19"/><path class="cls-3" d="M289.28,719c.74,38.09,14.6,78.74,44.67,103.59,14.88,12.3,32.71,19.83,50.54,26.76A610,610,0,0,0,451,870.8c43.71,11.43,88.46,18.37,133.33,23.29,22.5,2.46,45,4.43,67.61,6.24,11.18.9,22.37,1.81,33.56,2.61s22.51,1.15,33.45-1.57c20.92-5.21,37.3-21.6,52.23-36.19,17-16.6,33.35-33.82,49.61-51.12,7.05-7.5,14.74-14.76,20.74-23.16A55,55,0,0,0,851.36,765c1-8.6.48-18.65-4.6-26-3.91-5.66-10-7.48-16.59-7.84-3.48-.19-7,0-10.46-.58-5.47-.89-10.55-3.32-15.42-5.87-9.77-5.1-19.3-10-29.9-13.14-21.49-6.44-44.48-8.26-66.7-10.6-23.22-2.45-46.73-3.76-69.93-.38-22.84,3.33-44.46,13-67.55,14.85-22.86,1.8-44.58-8.07-67.36-7.12-5.6.23-11.32,1.42-16.9.36-5.39-1-9.72-4.35-13.71-7.94-7.5-6.74-14.18-13.81-23.68-17.78-17.88-7.47-37.5-2.71-55.46,1.83l-69.83,17.66-34.38,8.69a1.13,1.13,0,0,0,.6,2.17L357.71,696l34.38-8.69c9.38-2.37,18.81-4.85,28.47-5.74s19.59-.08,28.52,4c9.57,4.37,16,12.24,24,18.78a29,29,0,0,0,10.81,6.09c5.06,1.34,10.3.72,15.43.3,11.19-.92,22.17.9,33.12,3,10.62,2.05,21.33,4.29,32.21,4.13s21.32-2.41,31.68-5.1c10.6-2.76,21.07-6,31.8-8.28a188.76,188.76,0,0,1,35.48-3.75c23-.4,46,2.5,68.84,5.28,22,2.68,43.82,6.29,63.64,16.77,8.32,4.4,16.7,9.58,26.32,10.25,6.39.45,13.65-.49,19.12,3.57,7.64,5.66,8.48,17.4,7.82,26.07a53.29,53.29,0,0,1-10,27.39c-6.17,8.51-14.09,15.91-21.27,23.56q-11.89,12.65-23.93,25.16t-24.55,24.75c-7.95,7.77-16,15.53-24.91,22.2-8.54,6.39-17.87,11.64-28.38,13.89-11,2.35-22.29,1.66-33.39.82-22-1.67-44.06-3.39-66.07-5.4-44.1-4-88.14-9.39-131.5-18.52-21.85-4.6-43.51-10.16-64.8-16.89-20.34-6.43-40.84-13.56-60-22.93-17.32-8.45-32.72-20.24-43.86-36.11C306,785.51,299,767.9,295.07,749.9A159.4,159.4,0,0,1,291.49,719a1.11,1.11,0,0,0-2.21,0Z"/><path class="cls-4" d="M453.36,11.25c-4.22,45-12.48,89.56-22.95,133.53C419.84,189.18,407,233,393.71,276.65s-27.2,87.2-39.94,131.07c-12.64,43.53-24.18,87.43-32.82,131.94-8.69,44.79-14.5,90.25-15.6,135.89q-.19,8.34-.19,16.7c0,9.65,15,9.67,15,0,0-45,4.62-89.81,12.54-134.07,8-44.59,19.05-88.57,31.41-132.14,12.46-43.92,26.24-87.45,39.66-131.08s26.51-87.39,37.56-131.7c11.11-44.58,20.07-89.72,25.29-135.39q.94-8.3,1.72-16.62c.38-4-3.72-7.5-7.5-7.5-4.35,0-7.1,3.45-7.48,7.5Z"/><path class="cls-4" d="M536.63,15l88.45,149.05c26.52,44.69,53.17,89.33,78.59,134.66,24.87,44.34,48.6,89.35,69.81,135.57,21.09,46,39.59,93.18,53.92,141.71,14.29,48.37,24.43,98,28.67,148.34.55,6.48,1,13,1.36,19.45.54,9.6,15.54,9.66,15,0a746.11,746.11,0,0,0-25.17-152.72c-13.38-49.45-31.3-97.55-51.88-144.42s-44-92.61-68.75-137.5-50.89-89.11-77.08-133.23Q605.14,101.1,560.73,26.26L549.58,7.47c-4.92-8.3-17.89-.77-13,7.56Z"/><path class="cls-5" d="M528.81,738.23C492,629.61,412.64,542.62,320.21,487.68S122.9,407.61,18.32,397.8C204.2,470.28,368.87,607.65,482.86,785.34"/><path class="cls-5" d="M530.25,737.83a438.55,438.55,0,0,0-54.51-108,484.08,484.08,0,0,0-79.13-88.53,518.69,518.69,0,0,0-99.82-68.49c-40.41-21.35-83.36-37.69-127.4-49.81S80.33,403,35,398q-8.34-.92-16.68-1.7c-1.81-.17-1.85,2.38-.4,3a901.14,901.14,0,0,1,106.15,49.69,949.22,949.22,0,0,1,99.65,63.19,986.17,986.17,0,0,1,92.52,76,1020.42,1020.42,0,0,1,83.45,87.27,1032.91,1032.91,0,0,1,73.65,98q4.16,6.28,8.23,12.62c1,1.62,3.64.12,2.59-1.51a1043.32,1043.32,0,0,0-72.26-99.2,1021.12,1021.12,0,0,0-83.11-89.52,997,997,0,0,0-91.51-77.47A955.27,955.27,0,0,0,137.44,453,911.2,911.2,0,0,0,32,401.62q-6.6-2.7-13.24-5.29c-.13,1-.27,2-.4,2.95,45.11,4.25,90,11.3,134,22.33,44.15,11.08,87.35,26.18,128.23,46.27a523.64,523.64,0,0,1,103.23,66.39,485.73,485.73,0,0,1,81.06,85.4,439.5,439.5,0,0,1,57.58,105.09q2.6,6.88,5,13.85c.63,1.84,3.53,1.06,2.9-.78Z"/><path class="cls-6" d="M513.65,737.25c-34.56-75.58-98.3-139.13-170.92-190S188.35,457,107.07,417.93c148.23,74.42,276.7,180.24,371.15,305.68"/><path class="cls-6" d="M514.29,736.88c-13.12-28.62-30.26-55.25-50-79.75-20.46-25.42-43.66-48.58-68.45-69.78a745.26,745.26,0,0,0-82-60.33C283,507.21,251,489.22,218.45,472.21s-65.6-33.07-98.69-49l-12.33-5.93c-.86-.41-1.62.86-.76,1.3q43.21,21.72,84.46,47.1,40.5,25,78.76,53.35T343.8,579.2q34.76,31,66.63,65t60.35,70.9c2.28,2.95,4.53,5.91,6.78,8.89.57.76,1.88,0,1.3-.76q-27.8-36.9-59-71.06-31.68-34.71-66.48-66.38T281,525.49q-38.22-29.1-78.89-54.75-41-25.87-84.16-48.12-5.23-2.7-10.51-5.35l-.76,1.3c33.11,15.92,66.23,31.85,98.9,48.65,32.34,16.63,64.26,34.11,95.17,53.29,29.4,18.24,57.89,38,84.63,60a549.65,549.65,0,0,1,69.83,68c20.51,24.09,38.61,50.35,52.77,78.69q2.59,5.19,5,10.47c.42.87,1.71.11,1.31-.76Z"/><path class="cls-5" d="M476.55,721l-164-20.83C251.94,692.43,187.4,685.43,132.78,715,103.45,730.81,79.44,756.05,56,780.89c-22.73,24-46.43,49.8-54.45,83.17C125.18,766.91,287,729.58,436.24,763.78"/><path class="cls-5" d="M476.55,719.45,356.1,704.16c-36.76-4.67-73.64-10.47-110.72-11.93-34.18-1.35-69.11,1.66-100.81,15.36-32.76,14.15-58.53,39.51-82.79,65-22.48,23.6-46.61,47.91-58.09,79.12a111.83,111.83,0,0,0-3.64,12,1.52,1.52,0,0,0,2.51,1.46A527.81,527.81,0,0,1,247.79,758.81,511.09,511.09,0,0,1,336.73,753,493.49,493.49,0,0,1,425,762.88q5.46,1.13,10.89,2.37c1.88.43,2.68-2.46.8-2.89a497.93,497.93,0,0,0-88.82-12,512.07,512.07,0,0,0-89.42,3.93,526.9,526.9,0,0,0-87.78,19.3,533.42,533.42,0,0,0-83.48,34A528,528,0,0,0,9.2,856.29Q4.79,859.61.45,863L3,864.48c8-32.56,30.85-58,53.27-81.68,23.86-25.24,48.31-51.45,79.51-67.69,30.83-16,65.84-20.65,100.21-20.13,36,.54,71.83,6.06,107.5,10.59L462,720.63l14.53,1.84c1.91.22,1.9-2.78,0-3Z"/><path class="cls-7" d="M503.91,719c-59.45-6.16-119-12.34-178.68-11.33S205.61,717,149.5,739.11c-45,17.75-88.34,45.37-117.14,87.7,75.14-65,171.76-95.85,267.27-95.59,67.13.18,134.69,14.95,201.05,4.17"/><path class="cls-6" d="M503.91,718.25c-36.25-3.76-72.52-7.52-108.91-9.66-35.35-2.08-70.83-2.62-106.17-.1-33.81,2.41-67.5,7.6-100.17,16.72-29.59,8.26-58.56,19.62-85,35.34-25,14.82-47.61,33.68-65.32,56.75q-3.42,4.46-6.59,9.11c-.51.74.57,1.43,1.18.91a379.8,379.8,0,0,1,75.94-50.92,403.89,403.89,0,0,1,84.37-31.5,429.54,429.54,0,0,1,88.67-12.64C316,731,350,734.19,384,736.9c34.73,2.77,69.77,5,104.49.93q6.24-.74,12.43-1.73c.95-.15.55-1.6-.4-1.45-35.22,5.66-71,4.19-106.45,1.53-34.64-2.6-69.28-6.32-104.06-5.65a433.61,433.61,0,0,0-88.12,10.74,409,409,0,0,0-84.66,29.33,381.88,381.88,0,0,0-76.46,48.19c-3,2.44-6,4.93-8.91,7.46l1.18.91c16.71-24.46,38.83-44.68,63.71-60.6,25.52-16.33,53.68-28.24,82.6-37.08,32.33-9.87,65.78-15.75,99.42-18.71,34.76-3.06,69.72-3,104.55-1.33,35.94,1.75,71.76,5.25,107.54,8.93l13.07,1.35c.94.13.94-1.37,0-1.47Z"/><path class="cls-8" d="M621.78,767.45l-242.15-.3c-24.54,0-49.49,0-73,7.56C236,797.4,197.44,879.8,178.09,957.15c117.54-124.79,274.48-204.72,437.77-223"/><path class="cls-5" d="M621.78,766l-127.29-.16c-42.15,0-84.32-.42-126.47-.13-19.4.14-39.07,1.05-57.84,6.39a130.12,130.12,0,0,0-39.4,19c-24.09,17-42.47,41-56.67,66.64-15.27,27.51-26.2,57.34-34.49,87.63q-1.56,5.68-3,11.41a1.51,1.51,0,0,0,2.51,1.46,744.08,744.08,0,0,1,72.71-67.52,734.72,734.72,0,0,1,80.49-56.76A723.28,723.28,0,0,1,418.57,789a697,697,0,0,1,91.11-32.56,668.83,668.83,0,0,1,94.2-19.33q6-.78,12-1.45c1.9-.21,1.92-3.22,0-3a672.62,672.62,0,0,0-94.94,17.63,695.57,695.57,0,0,0-91.95,31A723.22,723.22,0,0,0,341.39,825,741.84,741.84,0,0,0,185.71,947q-4.38,4.5-8.7,9.08l2.51,1.46c7.61-30.35,17.68-60.28,31.83-88.24C224.68,843,241.89,817.91,265,799.2A131.43,131.43,0,0,1,301.57,778c17.8-6.64,36.77-8.66,55.65-9.19,20.31-.57,40.67-.17,61-.15l62.53.08,125.51.16,15.52,0a1.51,1.51,0,0,0,0-3Z"/><path class="cls-9" d="M597.17,736c-8.48,19-21.36,36-33.06,53.45-30.57,45.63-53.94,96.75-56.54,150.7s17.89,111,62.94,147.2C541.64,971.78,606.3,854.59,594.66,737"/><path class="cls-10" d="M596.52,735.59c-5.77,12.85-13.44,24.7-21.35,36.32s-15.84,23-23.09,35C538,830,526,854.61,517.84,880.49c-7.78,24.6-12.12,50.52-11.09,76.36a189.09,189.09,0,0,0,15.32,67.6A167.14,167.14,0,0,0,563,1081.92c2.26,2,4.59,4,7,5.93a.75.75,0,0,0,1.25-.73,269.62,269.62,0,0,1-7.45-68.22c.27-22.88,2.86-45.66,6.43-68.24,3.61-22.91,8.22-45.64,12.57-68.41,4.31-22.52,8.4-45.12,11.05-67.91s3.85-45.85,2.29-68.79q-.3-4.31-.72-8.61c-.09-1-1.59-1-1.5,0,2.24,22.89,1.63,45.95-.64,68.81-2.31,23.29-6.31,46.38-10.65,69.37-4.3,22.8-9,45.54-12.77,68.43-3.74,22.52-6.66,45.23-7.4,68.06-.74,22.59.71,45.3,5.39,67.45q.9,4.25,1.95,8.46l1.25-.73a164.52,164.52,0,0,1-44.09-55.36,185,185,0,0,1-18.25-67c-2-25.37,1.25-50.93,8.13-75.38,7.3-26,18.6-50.66,32.09-74,6.86-11.85,14.36-23.27,22.11-34.55,7.86-11.44,15.83-22.87,22.34-35.15q2.37-4.45,4.43-9.07c.43-.87-.87-1.64-1.26-.76Z"/><path class="cls-11" d="M586.74,735.42c61.61,94.93,105.65,203.33,128.7,316.84,25.15-52,23.61-115.74,6.47-171.52s-48.51-105-81.61-151.43"/><path class="cls-5" d="M585.45,736.18q18.06,27.86,34,57t29.85,59.71q13.94,30.63,25.59,62.22t21,63.73q9.4,32.48,16.44,65.59.87,4.11,1.71,8.22a1.52,1.52,0,0,0,2.74.36,197.79,197.79,0,0,0,17.85-63.4A255.69,255.69,0,0,0,733,922.39a309.07,309.07,0,0,0-18-66,448.32,448.32,0,0,0-30.59-62.54c-11.67-20.05-24.55-39.37-37.89-58.34-1.63-2.32-3.27-4.63-4.92-7-1.11-1.56-3.71-.06-2.59,1.51,13.27,18.64,26.17,37.57,38,57.17a472.43,472.43,0,0,1,31.65,61.41,320.8,320.8,0,0,1,19.75,64.67A261.37,261.37,0,0,1,732.48,980c-1.58,21.94-6.31,43.79-15,64q-1.6,3.75-3.37,7.42l2.74.36q-6.76-33.28-15.93-66-9.09-32.46-20.51-64.21t-25-62.4q-13.54-30.54-29.31-60t-33.64-57.61q-2.21-3.46-4.44-6.91c-1-1.6-3.64-.1-2.58,1.53Z"/><path class="cls-11" d="M592.79,763.09C628,690.18,614.88,600,573.49,523.66s-108.4-140.32-180.86-195.4c67.23,102.56,115.79,214.2,142.86,328.42"/><path class="cls-5" d="M594.08,763.85c14.12-29.4,20.6-61.87,20.52-94.41-.08-34-7-67.86-18.68-99.74s-28.32-62-47.93-89.77-42.09-53.4-66.27-77.24a880.51,880.51,0,0,0-78.52-68.17q-4.89-3.79-9.83-7.55c-1.21-.92-2.84.85-2.05,2a1080.33,1080.33,0,0,1,70.1,124A1026.08,1026.08,0,0,1,513.25,582.7q11.84,36.76,20.77,74.38c.45,1.88,3.34,1.08,2.89-.8a995.78,995.78,0,0,0-41.42-132.35,1054,1054,0,0,0-59.87-127.32Q416.06,361.3,393.9,327.5l-2,2.05A928.53,928.53,0,0,1,470.51,396c24.39,23.24,47.29,48.16,67.44,75.18,20,26.81,37.42,55.73,50.16,86.69,12.81,31.12,21.19,64.28,23.08,97.93,1.81,32.35-2.54,65.13-14.73,95.26q-2.31,5.72-5,11.26c-.81,1.74,1.77,3.27,2.61,1.53Z"/><path class="cls-5" d="M665,742.44C640.21,678.9,680.23,606,740.86,567.39s136.91-49.93,210.62-55.54c78.17-6,160.09-6.08,231,24.56-137.11-33-290.41-4.27-402.11,75.38-45.22,32.24-86.56,80.57-76.08,132"/><path class="cls-5" d="M666.44,742c-13.58-35.17-6.93-73.76,11-106.07,19.68-35.36,50.94-62.08,86.79-80.14,39.76-20,83.79-30.21,127.66-36.31,22.52-3.14,45.19-5.19,67.87-6.78,23.27-1.64,46.6-2.67,69.93-2.48,45.93.37,92.38,5.46,135.81,21.07q8.17,2.94,16.16,6.37c.39-.91.77-1.83,1.16-2.74a495.43,495.43,0,0,0-115.33-13.5,520.77,520.77,0,0,0-115.91,13.07,499.46,499.46,0,0,0-108.51,38.21c-34.18,16.75-67.73,37.38-95.19,63.94-25.48,24.65-48.47,57.76-46.7,94.79a88,88,0,0,0,1.6,12.74c.38,1.89,3.27,1.09,2.89-.8C698.4,706.57,718.4,672,742.89,646c25.88-27.38,58.47-48.37,91.73-65.66a491.9,491.9,0,0,1,105.91-40.1A517.1,517.1,0,0,1,1054,524.62a495.45,495.45,0,0,1,114.09,10.07q7,1.47,14,3.15c1.57.38,2.78-2,1.16-2.74-43.13-18.55-90-25.87-136.7-27.5-23.64-.82-47.31-.23-70.92,1.12-23.29,1.33-46.58,3.22-69.75,6-44.57,5.35-89.28,14.26-130.49,32.57-37.76,16.77-71.42,41.88-94.17,76.78-20.12,30.86-30.89,69-21.85,105.48a112.11,112.11,0,0,0,4.22,13.29c.65,1.78,3.55,1,2.86-.8Z"/><path class="cls-5" d="M648.41,730.2l190.77-8.52c46.68-2.08,94-4.09,139.51,10.44s89.83,47.72,115.11,102.31c-125.42-88.78-272.35-117.52-410.52-80.28"/><path class="cls-5" d="M648.41,731.7l106.92-4.77c35.23-1.57,70.45-3.4,105.69-4.65,34-1.21,68.41-1,101.66,7a193.75,193.75,0,0,1,71.52,33.23,190,190,0,0,1,53.34,62.75c1.74,3.28,3.39,6.62,5,10l2-2.05a554.88,554.88,0,0,0-76-45.24,513.15,513.15,0,0,0-79.25-31.07A484,484,0,0,0,857.45,740a462.39,462.39,0,0,0-164.54,10.19q-5,1.23-10,2.59a1.5,1.5,0,0,0,.8,2.89,459.46,459.46,0,0,1,163.6-13.75,476.74,476.74,0,0,1,81.23,15,505.44,505.44,0,0,1,79.57,29.35,546,546,0,0,1,75.83,43.2c3.07,2.08,6.11,4.2,9.14,6.33,1.35,1,2.62-.84,2-2a195,195,0,0,0-50.7-66.91,192.25,192.25,0,0,0-66.54-36.48c-32.71-10.22-67.22-12.08-101.27-11.44-35.55.66-71.1,2.84-106.61,4.43l-108.25,4.83-13.31.59c-1.92.07-1.93,3.07,0,3Z"/><path class="cls-6" d="M647.58,733.49c63.57-10.11,127.71-19.76,192.43-18.81s130.72,13.15,185.44,43.74c-58.1-18.85-120.88-22.37-182.6-25.57q-56.15-2.91-112.3-5.67c-26.46-1.3-54.63-2.24-77.45,9.31"/><path class="cls-6" d="M647.68,733.86c26.32-4.19,52.66-8.28,79.11-11.58,26.13-3.26,52.37-5.75,78.69-6.77a576.11,576.11,0,0,1,74.9,1.67,430.78,430.78,0,0,1,71.23,12.34,323.41,323.41,0,0,1,65.91,25.07q3.9,2,7.74,4.17l.29-.69a441.88,441.88,0,0,0-71.32-16.18c-24.31-3.6-48.82-5.7-73.34-7.27-25.35-1.62-50.73-2.8-76.1-4.09-26.06-1.33-52.12-2.7-78.19-3.91-22.19-1-45.58-1.71-66.66,6.43-2.39.92-4.74,2-7,3.12-.43.22,0,.86.38.65,20.51-10.27,44.26-10.56,66.69-9.73,25.39.94,50.77,2.46,76.14,3.75s50.59,2.49,75.87,4c24.4,1.45,48.79,3.3,73,6.52s48.22,7.8,71.62,14.74c2.92.86,5.82,1.77,8.72,2.7a.38.38,0,0,0,.29-.69,314.35,314.35,0,0,0-64.87-26.81,416.61,416.61,0,0,0-70.33-13.84,551.74,551.74,0,0,0-75-3c-26.58.64-53.1,2.87-79.5,6s-52.49,7-78.65,11.16l-9.87,1.56c-.46.09-.26.81.21.74Z"/><path class="cls-8" d="M627.9,732.27c-25.67-47.14-25.51-106.9-8.17-159S670,476,707.12,436.51A654.82,654.82,0,0,1,858.85,316.45C796,360.87,753.79,432.17,729.12,507S695.63,660.82,687,739.11"/><path class="cls-5" d="M629.19,731.52c-15.69-29-21.47-62.34-19.9-95,1.62-33.71,11.09-66.53,25.81-96.8s34.2-57.75,56-83.14a640.33,640.33,0,0,1,73.45-72.37,647.25,647.25,0,0,1,84.18-60.06q5.38-3.23,10.84-6.34l-1.51-2.59a297,297,0,0,0-60.34,57.61,391.16,391.16,0,0,0-45.06,72.06A513.46,513.46,0,0,0,721,528.09c-9.31,32.29-16,65.27-21.28,98.44s-9.19,66.74-12.92,100.22q-.69,6.19-1.37,12.39c-.21,1.92,2.79,1.9,3,0,3.69-33.34,7.39-66.69,12.34-99.88,4.92-33,11.09-65.78,19.69-98a532.07,532.07,0,0,1,30.09-85,403.78,403.78,0,0,1,42.54-72.58c16.63-22.36,36-42.81,58.17-59.79q4.1-3.14,8.3-6.11c1.55-1.1.19-3.57-1.51-2.59a657.11,657.11,0,0,0-162.2,131.4c-22.54,25.24-43,52.6-58.81,82.59s-26.6,62.22-29.94,95.89c-3.25,32.83.57,66.77,14.07,97.06,1.65,3.71,3.46,7.35,5.39,10.92.93,1.7,3.52.19,2.6-1.51Z"/><path class="cls-6" d="M658,753.05c-19-37.65-13.53-81.17-4.27-121.58,25-109,77.47-216.69,170.86-291.34C713.34,449.3,657.37,600.88,674.39,747"/><path class="cls-6" d="M658.66,752.67c-14.95-29.83-14.55-64-9.18-96.17,4.9-29.42,12.9-58.55,22.36-86.82a571.44,571.44,0,0,1,34.24-81.38A487.86,487.86,0,0,1,754,413a433.73,433.73,0,0,1,62.37-65.13q4.32-3.65,8.73-7.18l-1.06-1.06a527.56,527.56,0,0,0-58.62,68.29A516.13,516.13,0,0,0,720,484.11a501.52,501.52,0,0,0-31,81.26,480.17,480.17,0,0,0-16.13,84.87,455.79,455.79,0,0,0-.28,86.15q.5,5.29,1.1,10.58c.11.95,1.61,1,1.5,0a455.72,455.72,0,0,1-1.78-85.5,475.78,475.78,0,0,1,14.13-85.06,497,497,0,0,1,29.3-82,513.84,513.84,0,0,1,43.42-76.46,522.5,522.5,0,0,1,57-69.31q3.93-4,8-8c.71-.69-.32-1.65-1.06-1.06a431.4,431.4,0,0,0-65.32,65,482.11,482.11,0,0,0-49.52,74.52,564.7,564.7,0,0,0-35.77,81.22,610.69,610.69,0,0,0-23.82,86.82c-6.06,31.4-8.59,65,3,95.49a114.57,114.57,0,0,0,4.74,10.77c.43.86,1.72.1,1.29-.76Z"/><path class="cls-5" d="M513,796.07c-73.65,57.65-124.75,139.65-141.47,227-12.17,63.59-6.62,128.47-1,192.51C399.75,1032,486.83,855.52,618.2,713.6"/><path class="cls-5" d="M511.9,795a399.64,399.64,0,0,0-61.63,60.06,391.52,391.52,0,0,0-46.39,70.3,367.37,367.37,0,0,0-29.43,77.51c-8,31.63-11.26,64.25-11.68,96.82-.45,34.5,2.15,68.94,5.1,103.29q.54,6.32,1.1,12.62c.14,1.55,2.66,2.19,2.95.4a912.89,912.89,0,0,1,23.6-106.3,946.29,946.29,0,0,1,36.16-103.46,969.41,969.41,0,0,1,48.18-99.41A996.39,996.39,0,0,1,610,724.8q4.61-5.1,9.27-10.15c1.31-1.42-.81-3.54-2.12-2.12a1009,1009,0,0,0-71.61,86.63,993.45,993.45,0,0,0-61.41,94,976.14,976.14,0,0,0-49.79,99.17,952.11,952.11,0,0,0-37.72,103,915.84,915.84,0,0,0-25.33,106.41q-1.17,6.72-2.25,13.45l2.95.4c-3-34-5.92-68.1-6.22-102.27-.3-33.32,2-66.8,9.17-99.4a360.26,360.26,0,0,1,27.15-78.19,386.33,386.33,0,0,1,44.27-71,398.74,398.74,0,0,1,59.39-60.91q4.11-3.39,8.3-6.68c1.48-1.16-.66-3.27-2.16-2.09Z"/><path class="cls-12" d="M602,735.61c29-8.79,56.51,15.52,74.12,38.21,83.47,107.53,132.39,237,139.25,368.49,52.19-72.47,72.82-164.85,47.82-248.45S765.31,738.12,673.49,715.22"/><path class="cls-13" d="M602.29,736.7c30.59-9,57.5,17.77,74.45,39.76a678.42,678.42,0,0,1,53.69,81.1,668.83,668.83,0,0,1,41.4,87.74,654.92,654.92,0,0,1,27.68,90.91,630.47,630.47,0,0,1,14,94.6q.4,5.76.71,11.51a1.14,1.14,0,0,0,2.1.57,315.81,315.81,0,0,0,48.56-101.57c9.58-35.5,12.55-72.81,7.63-109.29a249.13,249.13,0,0,0-33.18-94.64A272.7,272.7,0,0,0,686.27,717.61q-6.19-1.87-12.49-3.45a1.13,1.13,0,0,0-.6,2.17,265.79,265.79,0,0,1,90.53,42.25A271.25,271.25,0,0,1,831.38,829a247.86,247.86,0,0,1,36.82,90.33c6.82,36.06,5.58,73.43-2.45,109.19a310.09,310.09,0,0,1-43.63,102.06q-3.75,5.7-7.73,11.23l2.1.57a634.86,634.86,0,0,0-12.43-95.75,653.24,653.24,0,0,0-26.84-93.34,670.92,670.92,0,0,0-40.56-89.08A678.35,678.35,0,0,0,683,781c-9.19-12.19-18.84-24-31-33.38-11.37-8.78-25.21-15.66-39.93-14.86a44.84,44.84,0,0,0-10.35,1.82,1.11,1.11,0,0,0,.59,2.14Z"/><path class="cls-6" d="M648.92,708.64c98.91,97.83,163.48,236.1,177.72,380.56,11.72-70.65-6.66-144.51-39.24-207.26S708.84,766.05,661.65,715.52"/><path class="cls-6" d="M647.86,709.7a570.83,570.83,0,0,1,53.87,61.65,608.89,608.89,0,0,1,45,68.93,633.68,633.68,0,0,1,36,75.55,644.68,644.68,0,0,1,25.88,79.69A633.3,633.3,0,0,1,824,1078.85c.4,3.44.76,6.89,1.11,10.34.15,1.53,2.65,2.21,3,.4a285.48,285.48,0,0,0,1.14-82.4A358.93,358.93,0,0,0,809,926.81a440,440,0,0,0-36.56-74.41,636.1,636.1,0,0,0-48.11-67.77c-17.35-21.57-35.78-42.26-54.58-62.57q-3.53-3.81-7.07-7.6c-1.32-1.41-3.44.71-2.12,2.12,18.65,20,37,40.23,54.41,61.3a674.57,674.57,0,0,1,49,66.55,452.79,452.79,0,0,1,38.26,73.15,367.44,367.44,0,0,1,22.46,79,290.78,290.78,0,0,1,2,81.95q-.63,5.15-1.49,10.25l3,.4a638.92,638.92,0,0,0-14-83.8,646,646,0,0,0-24.87-81.06A641,641,0,0,0,754.39,848,614.93,614.93,0,0,0,710,777.45a579.15,579.15,0,0,0-52.75-62.58q-3.59-3.68-7.24-7.29a1.5,1.5,0,0,0-2.12,2.12Z"/><path class="cls-13" d="M674.79,714.27a64.19,64.19,0,0,0-24.36,2c-8.09,2.26-15.65,6.21-23.24,9.71l-13.67,6.31c-1.31.61-.17,2.55,1.14,1.94,7.74-3.58,15.47-7.18,23.22-10.73,7.47-3.42,15.09-6.17,23.3-7a63.19,63.19,0,0,1,13.61.07c1.43.18,1.42-2.07,0-2.23Z"/><path class="cls-12" d="M579.59,749.51c0-36.79-17.82-70.74-36.5-101.79A1144.38,1144.38,0,0,0,468,537.85c-14.23-18.4-29.11-36.45-46.78-51.15-33.8-28.13-75.78-42.49-116.8-56.22,44.84,22.58,77.2,65.36,106.06,108.06q39,57.76,73.56,118.76c13.81,24.41,27.36,50.13,30,78.43"/><path class="cls-13" d="M580.71,749.51c-.09-28.55-10.75-55.58-24.07-80.4-6.95-13-14.64-25.53-22.42-38Q522,611.58,509.05,592.54c-17-24.94-34.79-49.54-54.09-72.76a267.52,267.52,0,0,0-30.15-31.45,208.14,208.14,0,0,0-34.07-23.78c-24.06-13.57-50.15-23-76.23-31.84l-9.84-3.31a1.13,1.13,0,0,0-.87,2.06c20.11,10.17,37.77,24.44,53.4,40.58,15.93,16.46,29.83,34.75,42.94,53.5,14.77,21.12,28.84,42.75,42.52,64.59q21.15,33.78,40.77,68.48c12,21.32,23.77,43.49,28.15,67.84q.82,4.62,1.27,9.29c.14,1.43,2.39,1.44,2.25,0-2.36-24.73-12.84-47.55-24.62-69.1-12.79-23.4-26.48-46.35-40.51-69q-20.84-33.69-43.2-66.44c-13.07-19-26.78-37.76-42.41-54.81-15.26-16.65-32.47-31.76-52.17-43-2.39-1.36-4.81-2.65-7.26-3.89l-.87,2.06c26,8.71,52.17,17.55,76.64,30.13a221.26,221.26,0,0,1,34.93,22,228.4,228.4,0,0,1,30.95,29.74c9.75,11.1,18.81,22.81,27.72,34.59Q488,566.08,500.92,584.7c17.07,24.54,33.45,49.71,48.29,75.67,13.89,24.28,26.25,50.52,28.77,78.74.31,3.46.46,6.92.47,10.39a1.13,1.13,0,0,0,2.26,0Z"/><path class="cls-14" d="M553.84,734.38c-90.72-12.36-182,36.82-228.38,104s-54.82,148.65-48.87,226.34c31.79-128.34,131.26-243.51,266-308"/><path class="cls-5" d="M554.24,732.94a226.23,226.23,0,0,0-95.69,8.19,260.73,260.73,0,0,0-83.74,43.48,242.41,242.41,0,0,0-61.32,69.92c-17.17,29.59-28.18,62.39-34.12,96s-7,67.71-5.12,101.63q.35,6.32.83,12.61c.12,1.61,2.52,2.13,2.95.4a400.61,400.61,0,0,1,26.17-73.47,445.34,445.34,0,0,1,39.95-68.27,485.73,485.73,0,0,1,52.51-62,519.5,519.5,0,0,1,63.79-54.22,541.55,541.55,0,0,1,73.37-44.44q4.73-2.38,9.51-4.66c1.74-.83.22-3.42-1.51-2.59a545.2,545.2,0,0,0-75.08,43.59,527.58,527.58,0,0,0-65,53.16A493.48,493.48,0,0,0,347.31,914a450.15,450.15,0,0,0-41.76,68,407.86,407.86,0,0,0-28.05,73.27q-1.25,4.53-2.37,9.09l2.95.4c-2.56-33.58-2.49-67.52,2.2-100.92s14-66,29.33-96a240.57,240.57,0,0,1,57.57-73.21,257.66,257.66,0,0,1,80.34-46.75c30.07-10.79,62.26-15.78,94.17-13.34q5.89.45,11.75,1.24c1.89.25,2.7-2.64.8-2.89Z"/><path class="cls-6" d="M566.34,743.8c-35.63,12.84-62,44.46-84.05,76.67C424.44,905,384.43,1003.12,366,1105.59c0-14.16,5.73-27.54,11.55-40.3a1617.55,1617.55,0,0,1,194.2-321.48"/><path class="cls-6" d="M566.24,743.44c-24.14,8.78-43.92,26-60.42,45.28-17.71,20.68-32.68,43.84-46.66,67.14a729.28,729.28,0,0,0-39.59,75.74,745.55,745.55,0,0,0-51.94,163.2c-.7,3.56-1.36,7.12-2,10.69l.74.1c.05-14.2,5.71-27.41,11.5-40.11q8.47-18.63,17.44-37,17.79-36.6,37.4-72.28T473.57,886q21.35-34.62,44.41-68.12,22.9-33.27,47.49-65.35,3.25-4.24,6.53-8.46c.29-.38-.23-.91-.53-.53q-24.9,32.06-48.16,65.35-23.46,33.6-45.19,68.37T436.35,948q-20,35.84-38.08,72.65-9.12,18.51-17.76,37.23c-5.65,12.24-11.86,24.67-14.09,38.09a60.61,60.61,0,0,0-.82,9.61c0,.41.66.53.74.1A745.15,745.15,0,0,1,415.6,942.44a733,733,0,0,1,38-75.58c13.75-23.82,28.61-47.35,45.69-69,15.89-20.1,34.68-39,58.15-50q4.44-2.08,9.05-3.75c.44-.17.24-.9-.21-.73Z"/><path class="cls-4" d="M500.82,9.46q15.93,87.21,29.54,174.82Q544,272.06,555.3,360.18q11.38,88.92,20.43,178.11,9,88.94,15.7,178.09t11.06,178.73q.54,11.19,1.06,22.38c.44,9.61,15.44,9.67,15,0Q614.44,827.58,608,737.8q-6.43-89.62-15.24-179.07Q584,469.5,572.86,380.51T548.32,203.12Q534.94,115,519.21,27.25q-2-10.89-3.94-21.77c-.73-4-5.57-6.24-9.23-5.24-4.18,1.15-6,5.23-5.22,9.22Z"/><path class="cls-1" d="M866.75,792.34a1.5,1.5,0,0,0,0-3,1.5,1.5,0,0,0,0,3Z"/><path class="cls-1" d="M866.75,786.06a1.5,1.5,0,0,0,0-3,1.5,1.5,0,0,0,0,3Z"/></g></g></svg>