<svg xmlns="http://www.w3.org/2000/svg" viewBox="0 0 348.09 450.18"><defs><style>.cls-1{fill:#9cd4b1;}.cls-2{fill:#158946;}.cls-3{fill:#0c123c;}.cls-4{fill:#285eac;}.cls-5{fill:#c49a6c;stroke:#c49a6c;stroke-miterlimit:10;}.cls-6{fill:#142e54;}.cls-7{fill:#3c2415;}.cls-8{fill:#16562b;}.cls-9{fill:#246b35;}.cls-10{fill:#133f1e;}.cls-11{fill:#c9de7a;}.cls-12{fill:#b7d98a;}.cls-13{fill:#ad232d;}.cls-14{fill:#72151c;}.cls-15{fill:#9e5e69;}.cls-16{fill:#0d492a;}.cls-17{fill:#729b82;}.cls-18{fill:#67997c;}.cls-19{fill:#69aa84;}.cls-20{fill:#56896a;}.cls-21{fill:#58bc77;}.cls-22{fill:#0d8341;}.cls-23{fill:#3d6e51;}.cls-24{fill:#7ac298;}.cls-25{fill:#6db189;}.cls-26{fill:#5f8c71;}.cls-27{fill:#7fb293;}.cls-28{fill:#90cea6;}.cls-29{fill:#8dc9a6;}.cls-30{fill:#8eb39d;}.cls-31{fill:#77c697;}.cls-32{fill:#70c492;}.cls-33{fill:#0d351c;}</style></defs><title>plants 2</title><g id="Layer_2" data-name="Layer 2"><g id="Layer_1-2" data-name="Layer 1"><path class="cls-1" d="M247.9,92.35A40.45,40.45,0,0,1,250,79.68a11,11,0,0,1,2-3.87,7.47,7.47,0,0,1,4.34-2.14,12.09,12.09,0,0,1,6.74.4,9.21,9.21,0,0,1,5.14,5.18,25.56,25.56,0,0,0-15.84,6.18,7.78,7.78,0,0,0-3,4.36"/><path class="cls-2" d="M248.53,92.35a40.82,40.82,0,0,1,1.13-9.27c.65-2.65,1.39-6.17,3.86-7.75a11.33,11.33,0,0,1,8.35-1,8.66,8.66,0,0,1,5.74,5.09l.6-.79a25.71,25.71,0,0,0-11.53,3.12c-3.11,1.68-7.07,4.18-7.91,7.87-.18.78,1,1.12,1.21.33a7.6,7.6,0,0,1,2.83-4.08,27.15,27.15,0,0,1,4.8-3.21,24.23,24.23,0,0,1,10.6-2.78c.36,0,.76-.4.6-.79a10,10,0,0,0-5.92-5.75,13,13,0,0,0-9.19.48c-3,1.36-4,4.54-4.86,7.47a42.12,42.12,0,0,0-1.56,11,.63.63,0,0,0,1.25,0Z"/><path class="cls-3" d="M101.8,415.9c3.56-.29,6.61,3.4,6.54,7s-2.58,6.86-5.67,8.7-6.69,2.52-10.22,3.08a207.77,207.77,0,0,1-41.76,2.37c-8.82-.39-17.81-1.4-25.8-5.21-2.6-1.24-5.39-3.28-5.45-6.2-.09-4.15,5-6.06,9-6.76"/><path class="cls-4" d="M101.8,418.4c2.61-.12,4.31,2.69,4,5.09-.38,3-2.93,5.31-5.53,6.59-3.39,1.68-7.44,2.08-11.14,2.62-4.2.61-8.42,1.07-12.65,1.41a207.6,207.6,0,0,1-25.8.47c-7.81-.35-15.8-1.16-23.08-4.21-2.13-.89-6.73-2.95-5.47-5.76a5.91,5.91,0,0,1,2.49-2,17.88,17.88,0,0,1,4.48-1.31,2.53,2.53,0,0,0,1.75-3.08,2.56,2.56,0,0,0-3.08-1.75c-3.28.6-7,1.79-9.13,4.47-2.68,3.31-1.91,7.81,1.19,10.57s7.83,4.4,12,5.52a76.62,76.62,0,0,0,14,2.23,193.37,193.37,0,0,0,29.77-.09c5.08-.38,10.15-1,15.19-1.7,4.51-.66,9.24-1.31,13.22-3.7s7.27-6.77,6.88-11.56c-.37-4.62-4.13-9.05-9-8.83-3.2.15-3.22,5.15,0,5Z"/><rect class="cls-5" x="216.85" y="250.57" width="5.95" height="150.7"/><rect class="cls-5" x="183.69" y="273.07" width="5.95" height="150.7"/><polygon class="cls-5" points="293.66 344.11 185.89 358.28 185.28 352.73 293.05 338.56 293.66 344.11"/><polygon class="cls-5" points="258.76 364.37 223.03 337.51 226.17 332.47 261.91 359.33 258.76 364.37"/><path class="cls-6" d="M103.37,327.63q-30-3.18-60.29-3.35c-9.9-.06-20.18.21-29.08,4.62a21.93,21.93,0,0,0-9.61,8.46c-2.15,3.79-2.63,8.72-.53,12.54,3.5,6.37,12,7.25,19.18,7.37,23.5.38,47.06.77,70.44-1.7,7.83-.83,17.31-3.44,19.08-11.25,1.48-6.54-3.83-12.86-9.82-15.69"/><path class="cls-4" d="M103.37,325.13q-29.55-3.11-59.3-3.34c-8.73-.06-17.74,0-26.11,2.8C10.23,327.17,2.12,332.43.38,341a14.41,14.41,0,0,0,2.23,11.57,16.56,16.56,0,0,0,8.8,5.78A41.27,41.27,0,0,0,22,359.74c4.78.13,9.56.16,14.33.22,9.86.12,19.73.14,29.59-.14,9.55-.27,19.17-.7,28.65-1.89,6.63-.83,14.1-2.66,18.26-8.34,4.81-6.56,1.8-15-3.94-19.89a23.22,23.22,0,0,0-4.92-3.23,2.56,2.56,0,0,0-3.42.9,2.52,2.52,0,0,0,.9,3.42c5.13,2.48,10.89,8.42,8.15,14.48-2.3,5.09-9.07,6.75-14.23,7.55-4,.62-8.17.87-12.23,1.16-4.5.33-9,.56-13.53.73-9.12.34-18.24.39-27.36.32-4.6,0-9.21-.1-13.81-.17-3.71-.06-7.44,0-11.13-.41-5.68-.63-12.2-3.14-12.32-9.83-.13-7.47,6.74-12.42,13.05-14.77,7.57-2.82,15.72-3.08,23.7-3.07q27.39.06,54.7,2.67l6.9.69a2.52,2.52,0,0,0,2.5-2.5,2.55,2.55,0,0,0-2.49-2.51Z"/><path class="cls-3" d="M2.53,349.34c-.62,18.71,6.11,37.12,16.25,52.74,4.68,7.2,10.24,14,17.54,18.43,14.06,8.44,31.66,6.35,47.82,4,4.53-.66,9.28-1.41,12.93-4.21,4-3.09,6.05-8.14,7.64-13a162.89,162.89,0,0,0,7.75-61.39"/><path class="cls-4" d="M0,349.34c-.46,15.17,3.72,30.12,10.57,43.57a103.81,103.81,0,0,0,11.9,18.53,46.11,46.11,0,0,0,16.59,13.32c13.42,6,28.47,4.57,42.63,2.59,6.86-1,14.38-1.76,19.25-7.29s6.74-13.35,8.61-20.25a165.49,165.49,0,0,0,5.69-47.8c-.06-2-.16-4.09-.29-6.13a2.56,2.56,0,0,0-2.5-2.5,2.52,2.52,0,0,0-2.5,2.5,161.24,161.24,0,0,1-3.53,45.74q-1.29,5.75-3,11.39a60.85,60.85,0,0,1-3.34,9.29A15.5,15.5,0,0,1,94.49,419c-2.83,1.71-6.18,2.31-9.4,2.81-12.87,2-26.8,4-39.51.06-13.22-4.09-21.72-15.52-28.27-27.07C9.47,381,4.55,365.35,5,349.34c.1-3.22-4.9-3.21-5,0Z"/><path class="cls-7" d="M106.92,341.85A119.2,119.2,0,0,1,63,339.71c-6.79-1.62-13.53-3.86-20.5-3.89-10.85-.05-21,5.2-30.56,10.32-1.48.79-3.16,1.9-3.18,3.6,0,2.16,2.55,3.2,4.63,3.61,29.41,5.74,59.71,1.28,89.33-3.19,2.1-.32,4.34-.7,5.86-2.21s1.71-4.53-.16-5.55"/><path class="cls-7" d="M106.26,339.44a118,118,0,0,1-44.91-2.71c-7.33-1.86-14.75-4-22.4-3.24-7.3.71-14.13,3.38-20.67,6.57-1.62.79-3.23,1.62-4.83,2.46a36.2,36.2,0,0,0-4.26,2.38c-2.77,2-4.11,5.69-1.48,8.42,2.23,2.32,5.81,2.64,8.8,3.13q5.79,1,11.64,1.47c15.39,1.36,30.89.43,46.22-1.33,8.74-1,17.44-2.28,26.14-3.58,3.52-.53,7.78-.74,10.21-3.73,2.22-2.73,2.1-7.07-1-9-2.74-1.71-5.25,2.62-2.52,4.32.06,0,.11.11.1.14a2.29,2.29,0,0,1-.16,1.09,2.19,2.19,0,0,1-.56.65,4.45,4.45,0,0,1-1.51.71c-3.08.94-6.49,1.14-9.67,1.61-7,1-14,2-21,2.83-14.05,1.62-28.25,2.53-42.39,1.62-3.45-.22-6.9-.54-10.33-1-1.59-.22-3.18-.46-4.76-.74a20.2,20.2,0,0,1-4.68-1,8.32,8.32,0,0,1-.76-.44c-.27-.19-.22-.28-.15-.05-.05-.18,0-.25-.05-.19a7.52,7.52,0,0,1,2.34-1.65c2.85-1.52,5.71-3,8.64-4.4,5.66-2.67,11.75-4.92,18.05-5.31,6.92-.42,13.57,1.61,20.21,3.28a124,124,0,0,0,47.11,2.6c1.34-.18,2.07-1.9,1.75-3.08a2.61,2.61,0,0,0-3.09-1.75Z"/><path class="cls-8" d="M19.79,352.71c.75-7,1.42-14.41-1.6-20.72-2.89-6-9-10.72-9.41-17.41-.41-6.41,4.62-11.79,6.11-18,.94-3.95.43-8.09-.08-12.12q-2.25-17.61-4.51-35.22c5.19-.36,8.35,5.86,8.86,11.13s0,11.19,3.37,15.22c1.62,1.93,4,3.15,5.48,5.15,1.93,2.54,2.27,5.94,2.39,9.15a99.13,99.13,0,0,1-1,18.22,14,14,0,0,0-.12,5.66c.47,1.75,1.65,3.19,2.52,4.77,5.77,10.37-1.77,24.71,4.33,34.88"/><path class="cls-9" d="M22.29,352.71c.75-7.1,1.33-14.49-1.59-21.21a42.19,42.19,0,0,0-5-7.88c-1.62-2.22-3.34-4.55-4.08-7.24-1.68-6.09,3.24-11.83,5.13-17.28a26.06,26.06,0,0,0,1-10.93c-.37-4-1-8.05-1.5-12.06L12.79,249.2l-2.5,2.5a3.8,3.8,0,0,1,2.88,1,9.4,9.4,0,0,1,2.37,3.43c1.33,3.12,1.23,6.44,1.47,9.76.26,3.71.82,7.59,3.11,10.65s6,4.47,7.1,8.21.82,8.35.67,12.34c-.16,4.45-.89,8.78-1.32,13.2a11.26,11.26,0,0,0,1.22,6.45,48.58,48.58,0,0,1,2.55,4.56,24.89,24.89,0,0,1,1.24,9.85c-.24,7.89-1.84,16.31,2.36,23.51,1.62,2.78,5.94.26,4.32-2.52-3.55-6.1-1.95-13.75-1.7-20.43a32.13,32.13,0,0,0-1.05-10.74,22.3,22.3,0,0,0-2.44-5.15,7.86,7.86,0,0,1-1.52-5.33c.19-2.24.63-4.46.86-6.7s.42-4.79.49-7.2c.14-4.24.33-8.87-.81-13a12.87,12.87,0,0,0-3-5.4c-1.31-1.41-3-2.44-4.3-3.81-2.47-2.54-2.69-6.36-2.89-9.7-.24-4.19-.5-8.23-2.53-12-1.82-3.4-5.08-6.13-9.11-5.95-1.22,0-2.68,1.11-2.5,2.5q1.53,12,3.07,24c.52,4.06,1.05,8.12,1.56,12.18.45,3.59.89,7.36,0,10.91-1.64,6.26-6.53,11.52-6.1,18.32.41,6.46,5,10.94,8.32,16.11,4.23,6.66,3.5,14.51,2.7,22a2.5,2.5,0,0,0,5,0Z"/><path class="cls-10" d="M27.8,350.59c-2-16.53-3.95-33.3-1.53-49.76.8-5.46,2.09-10.89,1.95-16.41-.21-8.3-3.62-16.14-5.4-24.24-3.52-16-.65-32.66,2.23-48.8,3.84,2.45,4.54,7.74,4.86,12.34q1.8,26.1,3.61,52.19c.38,5.46.77,11,2.65,16.14,1.24,3.39,3.1,6.52,4.32,9.91,2.88,8,2,16.79,2.75,25.27A67.46,67.46,0,0,0,51,353.38"/><path class="cls-9" d="M30.3,350.59c-1.11-9.25-2.21-18.52-2.55-27.84a131.71,131.71,0,0,1,.17-13.91c.31-4.58,1-9.08,1.78-13.6a50.74,50.74,0,0,0,.81-13.8,77.43,77.43,0,0,0-2.88-13,103.83,103.83,0,0,1-3.15-12.91,76.59,76.59,0,0,1-.77-13.28c.2-10.17,2-20.22,3.75-30.21l-3.67,1.49c2.68,1.8,3.22,5.65,3.5,8.61.46,4.9.7,9.83,1,14.74q1.08,15.52,2.15,31.06c.34,4.93.55,9.88,1.14,14.79a45,45,0,0,0,3.81,13.89A69,69,0,0,1,38.25,303a35.1,35.1,0,0,1,1.54,6.71c.61,4.65.53,9.37.75,14.05a72.44,72.44,0,0,0,8.3,30.84c1.51,2.84,5.83.32,4.32-2.52a65.61,65.61,0,0,1-7.53-26.71c-.3-4.87-.2-9.77-.72-14.63a43.29,43.29,0,0,0-3.91-14,59.16,59.16,0,0,1-2.7-6.23,40,40,0,0,1-1.59-7.09c-.66-4.88-.83-9.83-1.17-14.74q-1.09-15.78-2.18-31.56c-.37-5.4-.53-10.86-1.19-16.23-.56-4.53-1.86-9-5.84-11.68a2.51,2.51,0,0,0-3.67,1.49c-1.62,9.1-3.23,18.25-3.77,27.5a82.9,82.9,0,0,0,2.6,26.89c1.18,4.3,2.59,8.55,3.48,12.93a39.36,39.36,0,0,1,.35,13.17c-.62,4.6-1.56,9.13-2.05,13.75a121.24,121.24,0,0,0-.59,14.13c.14,10.55,1.39,21,2.64,31.51a2.57,2.57,0,0,0,2.5,2.5,2.52,2.52,0,0,0,2.48-2.51Z"/><path class="cls-10" d="M67.3,354.6c.7-4.6,1.4-9.31.47-13.87s-3.41-8.55-4.66-13c-2.89-10.24,1-21,4.42-31.11s6.32-21.49,1.7-31.06c4.59-.43,7.13,5.35,7.52,10,.61,7.42-.56,15.08,1.48,22.23.9,3.15,2.41,6.1,3.17,9.29,1.69,7.06-.41,14.39-2,21.48s-2.49,15,1.16,21.21"/><path class="cls-9" d="M69.71,355.26c1-6.47,1.65-12.75-.67-19-1.05-2.86-2.43-5.6-3.34-8.51A26.46,26.46,0,0,1,64.61,319c.43-12.24,7-23.24,8.9-35.22,1-6.63.77-13.27-2.13-19.42l-2.16,3.76c1.63-.1,2.64.81,3.58,2.54a14.22,14.22,0,0,1,1.51,5.91c.41,6.43-.28,12.88.88,19.26a55.61,55.61,0,0,0,2.81,8.8,24,24,0,0,1,1.51,9c-.19,6.26-2.29,12.25-3.28,18.39-1,6.45-1.12,13.22,2.21,19.06,1.59,2.8,5.91.28,4.32-2.52-2.83-5-2.49-11-1.49-16.44,1.18-6.45,3.27-12.8,3.26-19.42a28.08,28.08,0,0,0-1.77-9.64,48,48,0,0,1-2.88-9.5c-.91-6.26.08-12.63-.72-18.9-.66-5.17-3.69-12-9.91-11.58a2.54,2.54,0,0,0-2.16,3.76c4.84,10.28.36,22.23-3,32.22-2,5.82-3.77,11.71-4.32,17.85a34.24,34.24,0,0,0,.38,9,39.27,39.27,0,0,0,2.76,8.3c1.26,3,2.53,6.05,2.76,9.32a46.81,46.81,0,0,1-.76,10.36A2.59,2.59,0,0,0,66.66,357a2.51,2.51,0,0,0,3-1.75Z"/><path class="cls-10" d="M87.23,352.07A52.16,52.16,0,0,1,82.8,326.6c.5-6.34,2.17-12.62,1.72-19s-3-12.38-3.62-18.71c-.7-7.07,1-14.15,1.23-21.25.77-23.7-14.75-47-8.66-69.9a117.45,117.45,0,0,1,14.32,67.33c-.63,7-1.82,14.6,1.45,20.84,1.84,3.52,4.94,6.22,6.87,9.68,2.29,4.12,2.78,9,3,13.73a153.76,153.76,0,0,1-4.29,43.91"/><path class="cls-9" d="M89.39,350.8a48.58,48.58,0,0,1-3.94-14.53A61.17,61.17,0,0,1,86,320.86c.81-5.56,1.49-11,.63-16.59-.77-5-2.58-9.84-3.17-14.89-.64-5.46.24-10.95.79-16.38a65.44,65.44,0,0,0-.13-15.13c-1.24-9.73-4.16-19.09-6.53-28.58-2.52-10.07-4.38-20.61-1.71-30.85l-4.57.6a115.21,115.21,0,0,1,14.4,58.82c-.13,5.08-.85,10.11-1.1,15.18s.24,10.39,2.87,14.88c2.42,4.12,6.23,7.23,7.72,11.89,1.56,4.88,1.52,10.24,1.57,15.32a152,152,0,0,1-4.36,37.47c-.76,3.12,4.06,4.46,4.82,1.33a158,158,0,0,0,4.51-34.23,100.34,100.34,0,0,0-.7-16.62,27,27,0,0,0-2.19-7.58,31.45,31.45,0,0,0-4.31-6.31,22.82,22.82,0,0,1-3.74-5.83,20.83,20.83,0,0,1-1.24-6.91c-.14-5.12.73-10.21,1-15.31a119.8,119.8,0,0,0-2.5-31.49A118.91,118.91,0,0,0,75.62,196.5a2.53,2.53,0,0,0-4.57.6c-5.1,19.58,4.29,38.66,7.58,57.68a62.65,62.65,0,0,1,.92,14.34c-.33,5.64-1.43,11.24-1.33,16.91.09,5.49,1.68,10.69,2.87,16a42.39,42.39,0,0,1,.33,15.6c-.86,6.08-1.66,12-1,18.19A56.5,56.5,0,0,0,85,353.32a2.51,2.51,0,0,0,4.35-2.52Z"/><path class="cls-8" d="M46.78,357.55c-2.47-8.09,3.07-16.36,3.14-24.7.07-9.3-6.65-18.1-5.58-27.35.62-5.33,3.79-10.26,4.63-15.57,1-6.37-1.4-12.71-3.15-19a96.35,96.35,0,0,1-1.55-45.77c-.53,16,15.91,29.62,15.92,45.6,0,4-1,8-.49,12,.48,3.4,2.11,6.6,3.38,9.86C70.26,311,66.1,331,61.88,350"/><path class="cls-9" d="M49.19,356.88c-1.12-3.86-.24-7.75.78-11.53,1.08-4,2.36-8.09,2.44-12.3s-1.08-8.14-2.38-12-2.83-7.58-3.21-11.55c-.41-4.26,1-8,2.47-11.93,1.6-4.22,2.73-8.42,2.31-13-.44-4.75-1.94-9.26-3.24-13.82a93.14,93.14,0,0,1-1.68-44.9l-4.91-.66c-.39,15.2,12.07,26.29,15.32,40.46.93,4.06.39,8,.06,12.1a23,23,0,0,0,.49,7.44A46,46,0,0,0,60,291.61a62.28,62.28,0,0,1,4.43,26.73c-.42,10.47-2.67,20.75-4.94,30.94-.7,3.14,4.12,4.47,4.82,1.33,4-18.07,8.14-37.46,2.28-55.61-1.38-4.27-4-8.42-4.46-12.94s.92-9.21.42-13.85c-.81-7.54-4.43-14.28-8-20.84-3.74-6.86-8-14.11-7.76-22.18.07-2.77-4.33-3.46-4.91-.66a99.18,99.18,0,0,0-1.78,28.55,101.26,101.26,0,0,0,2.22,14.18c1.07,4.65,2.7,9.15,3.72,13.81a25.69,25.69,0,0,1,.66,6.77A21.83,21.83,0,0,1,45.29,294c-1.46,4.18-3.34,8.2-3.55,12.7-.38,8.37,4.61,15.61,5.55,23.73.54,4.68-.94,9.13-2.14,13.59-1.25,4.64-2.15,9.47-.78,14.19.89,3.08,5.71,1.76,4.82-1.34Z"/><path class="cls-4" d="M2.54,348.77c3.11,6.22,9.19,10.36,15.69,12.43,8,2.55,16.63,1.84,24.87,1.09l26.33-2.41c8.58-.79,17.19-1.44,25.75-2.38,7.46-.81,15.22-2.5,19.88-8.92a2.52,2.52,0,0,0-.9-3.42,2.55,2.55,0,0,0-3.42.9c-3.3,4.54-9.63,5.75-14.84,6.36-7.89.93-15.84,1.48-23.75,2.21l-25.09,2.3c-7.87.72-16.06,1.89-23.9.37C16.48,356,10,352.53,6.85,346.25c-1.43-2.88-5.75-.35-4.31,2.52Z"/><path class="cls-11" d="M15.37,268.26,18,267.7a1.27,1.27,0,0,0,.75-.57,1.29,1.29,0,0,0,.13-1,1.34,1.34,0,0,0-.57-.75,1.39,1.39,0,0,0-1-.13l-2.66.56a1.27,1.27,0,0,0-.75.57,1.29,1.29,0,0,0-.13,1,1.34,1.34,0,0,0,.57.75,1.32,1.32,0,0,0,1,.13Z"/><path class="cls-11" d="M16.62,281.8h7.47a1.25,1.25,0,0,0,0-2.5H16.62a1.25,1.25,0,0,0,0,2.5Z"/><path class="cls-11" d="M15.74,301l4.07-.35c.64-.06,1.29-.13,1.94-.16a7.48,7.48,0,0,1,.82,0c.16,0,.18,0,.07,0l.13,0,.26.07.08,0a1.25,1.25,0,1,0,1.26-2.16,7.94,7.94,0,0,0-4.24-.35l-4.39.38a1.28,1.28,0,0,0-1.25,1.25A1.26,1.26,0,0,0,15.74,301Z"/><path class="cls-11" d="M12.17,317c-.09.12-.14.1,0,.06l.41-.1c.44-.09.88-.17,1.32-.23.81-.12,1.62-.18,2.44-.22,1.24-.05,2.95-.22,3.83.56a1.28,1.28,0,0,0,1.77,0,1.26,1.26,0,0,0,0-1.77c-1.59-1.41-3.78-1.38-5.79-1.28a31.75,31.75,0,0,0-3.38.37A3.94,3.94,0,0,0,10,315.71,1.25,1.25,0,0,0,12.17,317Z"/><path class="cls-11" d="M18,330.28l4.26-.23a1.28,1.28,0,0,0,1.25-1.25,1.26,1.26,0,0,0-1.25-1.25l-4.26.23A1.28,1.28,0,0,0,16.79,329,1.26,1.26,0,0,0,18,330.28Z"/><path class="cls-11" d="M21.42,346.74a11.54,11.54,0,0,1,2.56.05l-.33,0,.46.07a1.33,1.33,0,0,0,1-.13,1.25,1.25,0,0,0,.44-1.71,1.2,1.2,0,0,0-.75-.57,12.6,12.6,0,0,0-3.36-.16,1.3,1.3,0,0,0-.88.37,1.28,1.28,0,0,0-.37.88,1.22,1.22,0,0,0,.37.88,1.31,1.31,0,0,0,.9.36Z"/><path class="cls-11" d="M28.16,311.44c3.51-.28,7.34-.63,10.66.83a1.29,1.29,0,0,0,1.71-.45,1.26,1.26,0,0,0-.45-1.71c-3.79-1.67-7.88-1.49-11.92-1.17a1.28,1.28,0,0,0-1.25,1.25,1.27,1.27,0,0,0,1.25,1.25Z"/><path class="cls-11" d="M27.27,325.46a12.32,12.32,0,0,1,6.05.48c2.11.7,3.7,2.26,5.74,3.07a1.26,1.26,0,0,0,1.54-.87,1.28,1.28,0,0,0-.87-1.54,21.3,21.3,0,0,1-2.87-1.77,14.43,14.43,0,0,0-3.27-1.43,15,15,0,0,0-7-.35,1.25,1.25,0,0,0,.66,2.41Z"/><path class="cls-11" d="M28.54,341.94c2.33-.22,4.75-.46,6.92.61s4.43,2.52,6.59,3.84c1.38.84,2.63-1.32,1.26-2.16a62.48,62.48,0,0,0-7.05-4.06c-2.47-1.1-5.08-1-7.72-.73a1.28,1.28,0,0,0-1.25,1.25,1.25,1.25,0,0,0,1.25,1.25Z"/><path class="cls-11" d="M29.94,296.7a12.32,12.32,0,0,1,3.21,0l-.33,0c.42.06.84.14,1.25.24a1.25,1.25,0,0,0,.67-2.41,13.31,13.31,0,0,0-4.79-.29,1.32,1.32,0,0,0-.88.37,1.28,1.28,0,0,0-.37.88,1.22,1.22,0,0,0,.37.88,1.2,1.2,0,0,0,.87.36Z"/><path class="cls-11" d="M28.52,272.26a4.39,4.39,0,0,1,.81,0l-.33,0a4.06,4.06,0,0,1,1,.27l-.3-.13.16.07a1,1,0,0,0,.46.15.94.94,0,0,0,.5,0,1.25,1.25,0,0,0,.88-1.53,1.27,1.27,0,0,0-.57-.75,5,5,0,0,0-1.25-.44,5.43,5.43,0,0,0-1.33-.1A1.26,1.26,0,0,0,27.28,271a1.22,1.22,0,0,0,.37.88,1.18,1.18,0,0,0,.87.37Z"/><path class="cls-11" d="M24.06,248.15l.62-.11.14,0c-.17,0-.19,0-.05,0l.29,0q.6-.06,1.2-.06t1.2.06l.29,0c.29,0-.22,0,.05,0l.66.12a1.25,1.25,0,1,0,.67-2.41,14.05,14.05,0,0,0-5.74,0,1.25,1.25,0,0,0-.87,1.54,1.29,1.29,0,0,0,1.54.86Z"/><path class="cls-12" d="M44.8,265.59a22.33,22.33,0,0,1,11.13-.33c1.57.36,2.23-2.05.66-2.41a24.93,24.93,0,0,0-12.46.33,1.25,1.25,0,0,0,.67,2.41Z"/><path class="cls-12" d="M50.74,296.86a9.71,9.71,0,0,1,10.06,3.53,1.3,1.3,0,0,0,1.71.45,1.26,1.26,0,0,0,.45-1.71,12.28,12.28,0,0,0-12.89-4.68,1.25,1.25,0,0,0,.67,2.41Z"/><path class="cls-12" d="M49.89,321.67a16.75,16.75,0,0,1,14.45,4.08c1.18,1.09,3-.68,1.77-1.77a19.39,19.39,0,0,0-16.88-4.73c-1.58.32-.92,2.73.66,2.42Z"/><path class="cls-12" d="M68.58,314.18a15.91,15.91,0,0,1,8.34,1.21,1.29,1.29,0,0,0,1.71-.45,1.26,1.26,0,0,0-.45-1.71,18.41,18.41,0,0,0-9.6-1.55,1.29,1.29,0,0,0-1.25,1.25,1.25,1.25,0,0,0,1.25,1.25Z"/><path class="cls-12" d="M70.26,343.24a12.16,12.16,0,0,1,1.81-.05c.3,0,.6,0,.9.07s.17,0,0,0l.19,0,.45.08a13.39,13.39,0,0,1,1.76.46,10.07,10.07,0,0,1,1.5.63,1.25,1.25,0,1,0,1.26-2.16,14.54,14.54,0,0,0-7.93-1.56,1.25,1.25,0,1,0,0,2.5Z"/><path class="cls-12" d="M86.8,301.11a22.12,22.12,0,0,1,8.94.61,1.25,1.25,0,0,0,.67-2.41,23.77,23.77,0,0,0-9.6-.7,1.29,1.29,0,0,0-1.25,1.25,1.24,1.24,0,0,0,1.24,1.25Z"/><path class="cls-12" d="M83.21,286.79l.31-.06.16,0c-.2,0-.23,0-.1,0l.56,0h.56a1.16,1.16,0,0,0,.32,0h-.1l.12,0a7,7,0,0,1,1.11.3l.15.06-.08,0s.2.09.22.1a6.12,6.12,0,0,1,.56.31,1.25,1.25,0,1,0,1.26-2.16,7.72,7.72,0,0,0-5.71-.92,1.25,1.25,0,0,0,.66,2.41Z"/><path class="cls-12" d="M82.3,277.37h3.36a1.25,1.25,0,0,0,0-2.5H82.3a1.25,1.25,0,0,0,0,2.5Z"/><path class="cls-12" d="M82.77,250.77l.17-.24c0-.07.18-.2-.06.07l.08-.1c.13-.15.26-.29.4-.43a2.73,2.73,0,0,1,.44-.39s-.23.17-.1.08l.13-.1.24-.16.48-.27.26-.12c-.36.18-.07,0,0,0a5.79,5.79,0,0,1,1.16-.29l-.33,0,.26,0a1.3,1.3,0,0,0,.88-.37,1.28,1.28,0,0,0,.37-.88,1.26,1.26,0,0,0-1.25-1.25,7,7,0,0,0-3,1,7.14,7.14,0,0,0-2.29,2.22,1.25,1.25,0,0,0,.45,1.71,1.31,1.31,0,0,0,1.72-.45Z"/><path class="cls-12" d="M78.33,241.08a7.25,7.25,0,0,1,.3-1.22l.1-.28c0-.08,0-.06,0,.07l.06-.14c.08-.18.18-.36.27-.54s.22-.37.34-.55a2.2,2.2,0,0,0,.17-.25c-.13.17,0,0,0-.06a8.63,8.63,0,0,1,.84-.87l.23-.2c.25-.22-.21.14.06,0s.33-.23.5-.34a5.39,5.39,0,0,1,.52-.3l.27-.13.07,0a7.8,7.8,0,0,1,1.13-.36l.34-.07.15,0h-.09l.65,0a1.25,1.25,0,1,0,0-2.5,8.79,8.79,0,0,0-8.35,7.19,1.28,1.28,0,0,0,.87,1.54,1.26,1.26,0,0,0,1.55-.86Z"/><path class="cls-12" d="M75.08,223.59a10.65,10.65,0,0,1,1.39-.9c.26-.14.52-.27.79-.39s.13-.06,0,0l.2-.08.36-.13a12.15,12.15,0,0,1,1.6-.43l.38-.06c.15,0,.15,0,0,0l.22,0c.29,0,.59,0,.88-.05a1.25,1.25,0,0,0,0-2.5,12.19,12.19,0,0,0-7.08,2.42,1.24,1.24,0,1,0,1.26,2.14Z"/><path class="cls-12" d="M87.67,323.33a8.58,8.58,0,0,1,8.33.84A1.25,1.25,0,1,0,97.26,322a11.1,11.1,0,0,0-10.85-.84,1.25,1.25,0,0,0,1.26,2.16Z"/><path class="cls-12" d="M86.29,341.24l.31-.06.11,0c.21,0,.42,0,.63-.05a8,8,0,0,1,1.2,0c.23,0-.29-.06.11,0l.25.05c.21,0,.41.09.62.15l.61.19.3.11.11.05a9.84,9.84,0,0,1,1.06.58l.45.31.17.14a1.54,1.54,0,0,1,.19.17,7.66,7.66,0,0,1,.88.92l0,.05.19.26c.13.2.25.4.37.6a1.25,1.25,0,0,0,2.16-1.26,9.72,9.72,0,0,0-10.42-4.64,1.26,1.26,0,0,0-.87,1.54,1.28,1.28,0,0,0,1.53.85Z"/><path class="cls-13" d="M296.43,240.62a352.53,352.53,0,0,0-5.78,66.82c.06,7.27.27,14.93-2.88,21.33-3.34,6.78-9.92,10.91-16.58,13.36-19.6,7.22-41,2.68-61.18-2.34-5.34-1.33-11.12-3-14.45-7.77-2.61-3.74-3.19-8.67-3.58-13.36-2-24.29-1.45-49.49-10-72"/><path class="cls-14" d="M294,240a358,358,0,0,0-5.83,58.16c-.08,4.72,0,9.44,0,14.16a42.51,42.51,0,0,1-1.48,12.46c-2.23,7.16-8.38,11.91-15.13,14.58-16.93,6.7-35.59,4-52.82,0-4.13-.95-8.33-1.85-12.38-3.13-3.2-1-6.46-2.52-8.53-5.27-2.38-3.16-2.91-7.39-3.26-11.21-.41-4.46-.68-8.93-1-13.39-1.09-18.06-1.79-36.47-7.06-53.91-.65-2.16-1.38-4.29-2.17-6.4a2.58,2.58,0,0,0-3.08-1.75,2.53,2.53,0,0,0-1.75,3.08c6.6,17.52,7.71,36.34,8.8,54.85.28,4.74.56,9.48.92,14.21.33,4.31.56,8.83,2.1,12.92a17.57,17.57,0,0,0,7.89,9.29c3.52,2,7.5,3,11.4,3.94,18.12,4.48,37.46,8.51,55.94,3.66,7.88-2.07,15.8-5.73,20.88-12.32,5.64-7.32,5.74-16.71,5.65-25.55a353.12,353.12,0,0,1,4.43-59.79q.59-3.63,1.25-7.23a2.57,2.57,0,0,0-1.75-3.08A2.48,2.48,0,0,0,294,240Z"/><path class="cls-15" d="M290.2,238.12a202.3,202.3,0,0,0-93.06-2.6c-6,1.27-12.88,3.51-14.33,8.1-1,3.22,1.17,6.65,4.48,8.83s7.59,3.34,11.83,4.28c19.57,4.32,40.26,4.83,60.66,4.51,6.61-.11,13.32-.31,19.6-1.85s12.18-4.62,15-9.12a9.54,9.54,0,0,0-3.49-13.53"/><path class="cls-14" d="M290.87,235.71a202.36,202.36,0,0,0-53.42-6.89,207.74,207.74,0,0,0-27.19,1.91c-4.39.6-8.77,1.34-13.11,2.24a39.61,39.61,0,0,0-10.78,3.52c-2.91,1.56-5.65,4.07-6.18,7.47-.65,4.18,2,7.81,5.18,10.18,3.47,2.56,7.85,3.79,12,4.75,4.53,1.05,9.11,1.86,13.72,2.51A248.72,248.72,0,0,0,239,263.65c9.34.27,18.76.34,28.09-.15,8.35-.44,17.45-1.69,24.37-6.78,2.9-2.13,5.46-4.92,6.42-8.47a12,12,0,0,0-1.67-9.9,13.64,13.64,0,0,0-4.13-3.8c-2.76-1.68-5.27,2.65-2.52,4.32a7.33,7.33,0,0,1,3.75,6.23c0,2.68-1.67,5-3.73,6.78-5.58,4.81-13.77,6-20.84,6.52-8.59.59-17.28.49-25.88.33s-17.32-.6-25.93-1.59q-6.3-.72-12.52-1.89a71.82,71.82,0,0,1-11.93-3c-2.8-1-6.34-2.88-7.27-6-.75-2.49,1.29-4.17,3.36-5.33a32.16,32.16,0,0,1,9-3c4-.86,8.07-1.57,12.14-2.16A201.93,201.93,0,0,1,283.62,239q3,.7,5.93,1.51c3.1.86,4.43-4,1.32-4.8Z"/><rect class="cls-5" x="258.93" y="298.98" width="5.95" height="150.7"/><rect class="cls-5" x="290.68" y="277.91" width="5.95" height="150.7"/><path class="cls-7" d="M186.37,250.35c.18,2.09,3.52,3.92,7.55,5a78.29,78.29,0,0,0,13.29,1.76q13.54,1,27.18,1.7c12.31.63,24.86,1.06,37,0,8.94-.77,18.48-2.76,21.54-6.62.51-.65.76-1.44-.22-2a9.56,9.56,0,0,0-3.72-.56q-30.7-.75-61.47-.14a143.33,143.33,0,0,1-19.49-.45c-2.51-.3-4.94-.74-7.49-1A41.71,41.71,0,0,0,185,249.59"/><path class="cls-7" d="M184,251c.43,3.07,3.89,4.79,6.44,5.79a41.72,41.72,0,0,0,10.89,2.25c8,.87,16.13,1.25,24.18,1.72,15.83.93,31.87,2,47.68.34,6.25-.65,13.42-1.49,18.86-4.92,2.3-1.45,5.51-4.57,3-7.33-1.2-1.33-3.09-1.57-4.78-1.68-2.05-.14-4.13-.12-6.18-.16q-24.29-.51-48.59-.16c-8.81.13-17.72.71-26.5-.21-4.17-.44-8.27-1.26-12.48-1.23a41.7,41.7,0,0,0-12.16,1.76c-3.06.95-1.76,5.78,1.33,4.82,6.17-1.92,12.58-1.83,18.92-.92a129.87,129.87,0,0,0,21,1c14.44-.28,28.88-.39,43.32-.24q6.07.06,12.14.17l6,.12c.93,0,1.87,0,2.8.07.31,0,.63,0,.94.06,1.18.16.33.37.23-.43v-1.33c-.08.55-.06.17,0,.11a5.33,5.33,0,0,0-.52.54,5.12,5.12,0,0,1-1,.77,16.8,16.8,0,0,1-3.26,1.55,49.82,49.82,0,0,1-9.42,2.22,144.56,144.56,0,0,1-21.91,1.26c-15.58,0-31.19-1.13-46.72-2.27a86.54,86.54,0,0,1-12.34-1.44,20.56,20.56,0,0,1-5-1.61,7.66,7.66,0,0,1-1.69-1.09s-.52-.66-.3-.32c-.14-.27-.16-.29,0-.05a3.43,3.43,0,0,1-.09-.44,2.52,2.52,0,0,0-3.08-1.75A2.57,2.57,0,0,0,184,251Z"/><path class="cls-16" d="M259.41,253.8q-2.42-23.62-3.69-47.36c-.83-15.52-1.55-31.14-1.31-46.69.12-7.61.82-15.46,4.26-22.37,1.43-2.87-2.88-5.41-4.32-2.52-3.25,6.53-4.46,13.72-4.82,20.95-.38,7.63-.08,15.31.11,22.94q.59,24,2.37,47.94,1,13.58,2.4,27.11a2.57,2.57,0,0,0,2.5,2.5,2.52,2.52,0,0,0,2.5-2.5Z"/><path class="cls-16" d="M207.81,140.63a126.37,126.37,0,0,1,25,38.43,133,133,0,0,1,10.21,45.2,125.57,125.57,0,0,1-1.48,26.13,2.58,2.58,0,0,0,1.75,3.08,2.53,2.53,0,0,0,3.08-1.75,134.82,134.82,0,0,0-.94-48.52,137,137,0,0,0-17.55-44.64,130,130,0,0,0-16.56-21.47c-2.23-2.33-5.76,1.21-3.54,3.54Z"/><path class="cls-16" d="M227.86,257.83c.44-18.84.87-37.77-1.62-56.5-2.17-16.32-6.57-32.45-14.67-46.87a88.22,88.22,0,0,0-16.34-21.11c-2.35-2.2-5.89,1.33-3.54,3.54,11.2,10.51,18.87,24.17,23.69,38.66,5.46,16.41,7.28,33.7,7.7,50.92.26,10.45,0,20.91-.23,31.36-.07,3.22,4.93,3.22,5,0Z"/><path class="cls-16" d="M226,256.59a281.82,281.82,0,0,1,16.17-133.74,2.53,2.53,0,0,0-1.75-3.08,2.56,2.56,0,0,0-3.08,1.75,283.25,283.25,0,0,0-14.09,51.56,288.75,288.75,0,0,0-4.28,53.32,282,282,0,0,0,2,30.18,2.57,2.57,0,0,0,2.5,2.5,2.51,2.51,0,0,0,2.5-2.49Z"/><path class="cls-16" d="M233,252.52c3.3-16.09,9.4-31.42,16.89-46C253.64,199.2,257.74,192,262,185a153.29,153.29,0,0,1,12.4-18.21c5.12-6.22,11.1-11.68,18.44-15.15a2.52,2.52,0,0,0,.9-3.42,2.56,2.56,0,0,0-3.42-.9c-13.76,6.52-22.93,19.47-30.72,32.06-8.83,14.26-17,29-23.19,44.61a160.65,160.65,0,0,0-8.26,27.2,2.57,2.57,0,0,0,1.75,3.08,2.52,2.52,0,0,0,3.06-1.75Z"/><path class="cls-16" d="M218.93,255.92c.78-14.55.73-29.34-2.46-43.63A80.14,80.14,0,0,0,209.1,192a76.26,76.26,0,0,0-13.37-17.66,204.69,204.69,0,0,0-19-16.26,2.59,2.59,0,0,0-3.54,0,2.52,2.52,0,0,0,0,3.54c11.22,8.82,22.81,17.93,30.19,30.39,7.09,12,9.89,25.9,10.7,39.64a216.11,216.11,0,0,1-.13,24.28c-.17,3.22,4.83,3.21,5,0Z"/><path class="cls-16" d="M246.83,243.68a285.89,285.89,0,0,0-2-65,285.71,285.71,0,0,0-16.33-62.39,282.65,282.65,0,0,0-15.39-33.24c-1.54-2.83-5.86-.31-4.32,2.52a278.2,278.2,0,0,1,23.83,59.13,282.89,282.89,0,0,1,9.94,62.87,280.46,280.46,0,0,1-.74,36.09,2.52,2.52,0,0,0,2.5,2.5,2.56,2.56,0,0,0,2.51-2.51Z"/><path class="cls-16" d="M248.77,254.09a68.74,68.74,0,0,1,28-50.17,63,63,0,0,1,14.6-7.93,2.58,2.58,0,0,0,1.75-3.08,2.53,2.53,0,0,0-3.08-1.75c-20.2,7.61-35.92,24.75-42.78,45.11a70.19,70.19,0,0,0-3.49,17.81,2.5,2.5,0,1,0,5,0Z"/><path class="cls-17" d="M209.5,88.82c2.36-15.29,3.33-31.25-.17-46.36S197.31,13.1,185,6.74a41.1,41.1,0,0,0-17.6-4.21,9.29,9.29,0,0,0-5,.86c-3.06,1.74-4.11,6.11-4.83,10q-1.53,8.13-3.05,16.25a40,40,0,0,0-8.36-20.26,17.23,17.23,0,0,1,11.36-6.5"/><path class="cls-16" d="M211.91,89.48c3.12-20.29,3.92-41.84-4.67-61A52.74,52.74,0,0,0,191.59,8a37.37,37.37,0,0,0-12.24-6.17A45.91,45.91,0,0,0,171.74.35,28.68,28.68,0,0,0,164.11.2c-5.46.85-7.65,6.08-8.69,10.91C154.15,17,153.17,23,152.05,29l4.91.66a43.5,43.5,0,0,0-9.09-22v3.54a15.2,15.2,0,0,1,9.59-5.77,2.58,2.58,0,0,0,2.5-2.5,2.51,2.51,0,0,0-2.5-2.5A20,20,0,0,0,144.34,7.6a2.6,2.6,0,0,0,0,3.54A37.32,37.32,0,0,1,152,29.63a2.54,2.54,0,0,0,2.17,2.46,2.47,2.47,0,0,0,2.74-1.79q1.44-7.65,2.87-15.29c.55-2.93,1-7.61,3.73-9.37,1.71-1.09,4.39-.62,6.29-.47a40.12,40.12,0,0,1,6.54,1,33.87,33.87,0,0,1,11.61,5.28c6.25,4.44,10.87,11,14.18,17.79a72.62,72.62,0,0,1,6.64,25.48c1,11.15,0,22.38-1.65,33.41a2.59,2.59,0,0,0,1.75,3.08,2.53,2.53,0,0,0,3.07-1.77Z"/><path class="cls-18" d="M159.92,9.6c-5,25.68,7.22,54.66,27.23,64.74,8.53,4.3,18.93,6.19,24,15.62"/><path class="cls-16" d="M157.51,8.94a70,70,0,0,0,5.67,42.76,59,59,0,0,0,11.66,16.72,46.54,46.54,0,0,0,7.73,6.19A57.3,57.3,0,0,0,191.46,79c6.71,2.8,13.83,5.5,17.51,12.23,1.54,2.82,5.86.3,4.32-2.52-3.39-6.21-9.29-9.79-15.61-12.49-5.74-2.45-11.51-4.63-16.37-8.67-10.23-8.52-16.4-21.23-18.86-34.15a62,62,0,0,1-.1-23.12,2.57,2.57,0,0,0-1.75-3.08,2.54,2.54,0,0,0-3.09,1.75Z"/><path class="cls-19" d="M239.74,123.49l-.6-14.5c-.32-7.73-.61-15.68,2-23s9-13.81,16.81-14.35,15.82,7.11,13.6,14.52a26.6,26.6,0,0,1,13-15.68c-2.8-4.52-8.54-6.69-13.91-6.38s-10.38,2.75-14.81,5.74"/><path class="cls-16" d="M242.24,123.49c-.26-6.2-.58-12.4-.75-18.61-.16-5.83,0-11.74,1.81-17.33,2.51-7.61,10.85-16.29,19.58-12.54,4,1.73,7.57,6,6.31,10.53-.87,3.11,3.87,4.4,4.82,1.33a24.3,24.3,0,0,1,11.85-14.19,2.52,2.52,0,0,0,.9-3.42c-3.14-4.88-8.71-7.43-14.41-7.64-6.4-.23-12.53,2.62-17.73,6.1-2.66,1.78-.16,6.11,2.52,4.32,4.29-2.87,9.18-5.4,14.47-5.42,4.12,0,8.53,1.59,10.83,5.17l.9-3.42a29.35,29.35,0,0,0-14.15,17.17L274,86.87c1.55-5.54-1.2-11-5.6-14.35a16.14,16.14,0,0,0-15.57-2.25,24.06,24.06,0,0,0-12.16,10.89c-3.17,5.67-4.09,12.28-4.22,18.69-.16,7.87.46,15.78.79,23.64.12,3.2,5.13,3.22,5,0Z"/><path class="cls-20" d="M236.06,122.82c8.27-.89,15.64-5.47,21.81-10.82a79.2,79.2,0,0,0,25.49-42.65"/><path class="cls-16" d="M236.06,125.32c10.53-1.21,19.45-7.36,26.89-14.59A82,82,0,0,0,280.31,86.2,80.27,80.27,0,0,0,285.77,70c.69-3.14-4.13-4.48-4.82-1.33a76.57,76.57,0,0,1-10.82,25.57,71.9,71.9,0,0,1-19.4,20.12c-4.4,3-9.36,5.34-14.68,6a2.57,2.57,0,0,0-2.5,2.5,2.53,2.53,0,0,0,2.51,2.49Z"/><path class="cls-21" d="M175.93,158.43c-6.49-1.56-14.1,2.23-19.61-1.6-1.78-1.24-3-3.13-4.78-4.42-4.78-3.52-11.41-1.56-17.27-2.28-9.65-1.19-16.67-9.57-22.68-17.35l41.94,5a30.68,30.68,0,0,1,9.12,2c6.89,3.11,10.54,10.68,13.64,17.67"/><path class="cls-16" d="M176.59,156c-4.92-1.1-9.75.35-14.69.06a8.15,8.15,0,0,1-5.51-2.48c-1.9-1.89-3.62-3.69-6.16-4.72-4.53-1.84-9.5-.9-14.23-1.12A20.3,20.3,0,0,1,124.35,143c-4.25-3.39-7.69-7.72-11-12l-1.77,4.27L143.16,139c5,.59,10.11.86,15,2a16.55,16.55,0,0,1,9.64,6.2c2.72,3.44,4.55,7.58,6.32,11.56a2.53,2.53,0,0,0,3.42.9,2.56,2.56,0,0,0,.9-3.42c-3.42-7.7-7.6-16-16-19.17a32.13,32.13,0,0,0-7.63-1.62c-2.66-.34-5.33-.63-8-.95l-16.53-2-18.75-2.22a2.45,2.45,0,0,0-2.28,1.54,2.59,2.59,0,0,0,.52,2.73c5.75,7.43,12.59,15.77,22.3,17.75a34.26,34.26,0,0,0,7.64.48,29.59,29.59,0,0,1,7,.27c2.45.54,3.93,1.91,5.63,3.66a13.39,13.39,0,0,0,6.43,4c5.44,1.31,11-1,16.4.19,3.13.68,4.46-4.14,1.32-4.84Z"/><path class="cls-22" d="M192,135.14c1.78-7.78-3.54-15.63-10.13-20s-14.4-6.26-21.52-9.62a58.85,58.85,0,0,1-23.52-20.27c7.06,10.28,2.89,25.66,10.28,35.71,5.82,7.91,16.59,9.62,26.24,10.71l23.1,2.6"/><path class="cls-16" d="M194.44,135.81c2.35-10.94-5.94-20.3-15.05-25-4.94-2.53-10.25-4.21-15.35-6.36a56.62,56.62,0,0,1-13.28-7.8A57.36,57.36,0,0,1,139,84c-1.79-2.65-6.12-.16-4.32,2.52,3.06,4.55,3.87,10,4.52,15.38.7,5.76,1.26,11.62,3.76,16.94,5.16,11,17.63,13.79,28.6,15.13,8.29,1,16.6,1.88,24.9,2.81a2.52,2.52,0,0,0,2.5-2.5,2.55,2.55,0,0,0-2.5-2.5l-21.87-2.46c-5.39-.61-10.85-1.27-16-3.14a19.34,19.34,0,0,1-11-9.22c-2.34-4.61-2.78-10-3.39-15.06-.75-6.2-1.63-12.6-5.2-17.9l-4.32,2.52a62,62,0,0,0,22.44,20.19c9.1,4.74,20.47,6.48,27.74,14.21,3.36,3.57,5.81,8.54,4.74,13.53-.67,3.13,4.15,4.47,4.83,1.33Z"/><path class="cls-23" d="M210.06,140.93a280.42,280.42,0,0,0-.23-31.76c-.36-5.58-1-11.37-3.77-16.17s-8.51-8.31-13.81-6.81c6.52,6.08,6.6,16.31,6.31,25.3s.06,19.29,6.83,25.07"/><path class="cls-16" d="M212.56,140.93a283.6,283.6,0,0,0-.12-30c-.48-8.38-1.23-18.19-8.27-23.91-3.55-2.88-8-4.41-12.58-3.22a2.52,2.52,0,0,0-1.1,4.18c5,4.77,5.64,12.11,5.67,18.64,0,7.22-.71,14.54,1.33,21.59a21.13,21.13,0,0,0,6.15,10.15,2.56,2.56,0,0,0,3.54,0,2.53,2.53,0,0,0,0-3.54c-5.15-4.5-6.05-11.64-6.16-18.1-.13-7.28.73-14.61-1.1-21.77A21.89,21.89,0,0,0,194,84.42c-.37,1.39-.74,2.79-1.1,4.18a9.13,9.13,0,0,1,8.15,2.3,17,17,0,0,1,5.07,9.09,65.16,65.16,0,0,1,1.36,11.91q.38,6.81.41,13.65,0,7.7-.34,15.38c-.18,3.21,4.82,3.21,5,0Z"/><path class="cls-24" d="M287.77,150.2c1.15-5.2.09-10.59-.23-15.91s.33-11.18,4-14.93c2.08-2.09,4.85-3.25,7.38-4.73,8.62-5,14.37-13.82,19.81-22.29-2.23,14,10.62,25.53,14.9,39.07,1.15,3.63,1.65,7.67.27,11.22a15.68,15.68,0,0,1-4.24,5.77c-5.74,5.17-13.62,7.4-21.29,7.46s-15.22-1.86-22.55-4.15"/><path class="cls-16" d="M290.18,150.87c1.09-5.22.31-10.39-.08-15.64-.29-4-.33-8.36,1.65-11.93,2.19-4,6.8-5.28,10.35-7.69a47.15,47.15,0,0,0,9.86-9.22,136.23,136.23,0,0,0,9-12.77l-4.57-1.93c-2,13.35,7.33,23.85,12.77,35.11,2.75,5.7,5.13,13,.37,18.28-4.39,4.89-11,7.45-17.45,8.09-8.7.87-17.28-1.3-25.53-3.87-3.08-1-4.4,3.87-1.33,4.82,14.62,4.55,31.85,7.42,44.87-2.78a18.38,18.38,0,0,0,6.57-8.87c1.17-3.86.6-8.12-.61-11.9-2.08-6.49-5.82-12.24-9.16-18.12S320.14,100,321.18,93a2.51,2.51,0,0,0-4.57-1.93c-4.76,7.41-9.74,15.32-17.2,20.32-4,2.65-8.47,4.21-11.3,8.27-2.53,3.64-3.2,8.37-3.15,12.7.06,5.7,1.57,11.49.39,17.16a2.57,2.57,0,0,0,1.75,3.08,2.52,2.52,0,0,0,3.08-1.73Z"/><path class="cls-25" d="M288.73,196.12c4.57,6.71,14.28,8,21.75,5s13.12-9.28,18.23-15.58,10.1-13,16.94-17.22c-7.78-1.43-15.65,2-22.32,6.3s-12.77,9.67-20,12.87c-7.91,3.49-17.14,4.41-23.76,10"/><path class="cls-16" d="M286.57,197.39c5.41,7.74,16.11,9.52,24.57,6.16,10-4,16.46-12.77,23-20.81,3.74-4.56,7.7-9.07,12.73-12.25,1.66-1.05,1.65-4.18-.6-4.57-10.7-1.84-20.32,3.64-28.73,9.62a120.06,120.06,0,0,1-12.45,8.28c-4.16,2.24-8.66,3.51-13.14,4.93-5.11,1.61-10.06,3.55-14.22,7a2.53,2.53,0,0,0,0,3.54,2.55,2.55,0,0,0,3.54,0c3.24-2.7,7.27-4.21,11.24-5.48a108.36,108.36,0,0,0,12.79-4.51c8.8-4.11,15.79-11.16,24.45-15.52,4.63-2.33,10-3.93,15.19-3l-.6-4.57c-8.57,5.42-14.09,13.94-20.64,21.43-5.75,6.57-13.05,13-22.35,12.53-4-.21-8.14-1.89-10.5-5.27a2.56,2.56,0,0,0-3.42-.9,2.51,2.51,0,0,0-.9,3.42Z"/><path class="cls-26" d="M259.26,135.38c7.45,1.11,13.08-6.48,16.7-13.2a438.64,438.64,0,0,0,20-42.35c-1.68,6-4.5,11.84-9.08,16s-10.46,6.31-15.17,10.21c-8.48,7-11.85,18.46-14.79,29.18"/><path class="cls-16" d="M259.26,137.88c8.51,1.12,14.66-6.94,18.34-13.49,5-8.91,9.47-18.19,13.7-27.49q3.7-8.13,7.07-16.41l-4.82-1.33a34.23,34.23,0,0,1-5.82,12.11c-3,3.73-7,6-11.07,8.42a38.92,38.92,0,0,0-10.72,8.62A46.26,46.26,0,0,0,259.2,120a123.34,123.34,0,0,0-4.7,14.55c-.85,3.11,4,4.43,4.82,1.33,2.27-8.3,4.63-17.21,10.15-24,2.88-3.56,6.52-6,10.42-8.26,4.09-2.41,8.18-4.9,11.24-8.62a39.47,39.47,0,0,0,7.23-14.48,2.54,2.54,0,0,0-1.75-3.08,2.57,2.57,0,0,0-3.08,1.75Q288,92.57,281.65,105.6q-3.25,6.66-6.74,13.19a47.5,47.5,0,0,1-6.13,9.57c-2.54,2.84-5.6,5-9.54,4.49a2.51,2.51,0,0,0-2.5,2.5,2.61,2.61,0,0,0,2.52,2.53Z"/><path class="cls-27" d="M158.81,9.6c2.32-1.12,4.54,1.65,5.68,4q4.74,9.77,9.49,19.53c2.18,4.49,4.56,9.21,8.75,11.85,2.48,1.56,5.41,2.26,7.88,3.83,4.06,2.58,6.38,7.16,8.51,11.51L209,80.5"/><path class="cls-16" d="M159.48,12c.67-.28,1,.06,1.62.83A16.37,16.37,0,0,1,163,16.18q2.06,4.21,4.1,8.44l4.31,8.88a68.12,68.12,0,0,0,3.73,7,22.54,22.54,0,0,0,5.39,6c2.28,1.7,5,2.47,7.5,3.74,4.7,2.39,7,7.3,9.17,11.82l9.67,19.74a2.5,2.5,0,1,0,4.32-2.52l-9-18.39c-2.51-5.12-5-10.51-9.81-13.88-2.46-1.72-5.43-2.42-8-3.93a15.7,15.7,0,0,1-5.14-5.39,78.77,78.77,0,0,1-3.95-7.57L170.85,21c-1.57-3.23-2.94-6.73-4.83-9.79-1.6-2.6-4.58-5.36-7.88-4a2.59,2.59,0,0,0-1.75,3.08A2.53,2.53,0,0,0,159.48,12Z"/><path class="cls-28" d="M241,118.84a41.58,41.58,0,0,1,4.78-22.51c3.07-5.82,7.83-11.34,14.7-14,6.05-2.36,13.82-2.67,17.67-7.25"/><path class="cls-16" d="M243.51,118.84a39.38,39.38,0,0,1,6.69-25,25.88,25.88,0,0,1,8-7.65c3.3-2,7-2.76,10.67-3.73,4-1.06,8.25-2.42,11.05-5.64a2.56,2.56,0,0,0,0-3.54,2.53,2.53,0,0,0-3.54,0c-2.33,2.67-5.9,3.58-9.2,4.44-4,1.06-8.06,2.06-11.67,4.24-7.49,4.52-12.42,12.4-15,20.59a43.35,43.35,0,0,0-2,16.27,2.55,2.55,0,0,0,2.5,2.5,2.5,2.5,0,0,0,2.49-2.49Z"/><path class="cls-2" d="M168.35,16.09A19.9,19.9,0,0,1,171,4.58.63.63,0,0,0,170,4a21.07,21.07,0,0,0-2.86,12.14c.06.8,1.31.81,1.25,0Z"/><path class="cls-2" d="M181.21,5.82A22,22,0,0,1,172.41,23c-.64.47,0,1.56.63,1.08a23.33,23.33,0,0,0,9.42-18.23.63.63,0,0,0-1.25,0Z"/><path class="cls-2" d="M187.31,9.77a66,66,0,0,1-6.2,32.45c-.34.72.73,1.36,1.08.63a67.29,67.29,0,0,0,6.37-33.08c-.05-.8-1.3-.81-1.25,0Z"/><path class="cls-2" d="M194.83,14.93a95.34,95.34,0,0,1-1.7,30.32c-.17.78,1,1.12,1.21.33a96.54,96.54,0,0,0,1.75-30.65c-.09-.79-1.34-.8-1.26,0Z"/><path class="cls-2" d="M205.39,25.2A62.21,62.21,0,0,1,200,57.75c-.34.72.74,1.36,1.08.63a63.47,63.47,0,0,0,5.58-33.18c-.08-.79-1.33-.8-1.25,0Z"/><path class="cls-29" d="M172.71,35.21a10.67,10.67,0,0,1-8.67-.9,11,11,0,0,1-5.12-7.18"/><path class="cls-2" d="M172.54,34.61A10.11,10.11,0,0,1,164,33.55,10.48,10.48,0,0,1,159.51,27c-.17-.79-1.38-.45-1.21.33a11.71,11.71,0,0,0,5,7.33,11.3,11.3,0,0,0,9.51,1.18c.77-.25.45-1.45-.32-1.2Z"/><path class="cls-2" d="M181.08,47.18a20.78,20.78,0,0,1-21.36-7.69c-.47-.64-1.56,0-1.08.63a22.08,22.08,0,0,0,22.77,8.27.63.63,0,0,0-.33-1.21Z"/><path class="cls-2" d="M195.31,55.78H171.17c-2.43,0-4.91-.06-7-1.5-.66-.46-1.29.62-.63,1.08a11.12,11.12,0,0,0,6.2,1.66c2.77.08,5.54,0,8.31,0h17.24a.63.63,0,0,0,0-1.25Z"/><path class="cls-2" d="M202.2,66.75a78.82,78.82,0,0,1-27.08,1.61c-.8-.09-.79,1.16,0,1.25A79.75,79.75,0,0,0,202.53,68c.78-.18.45-1.39-.33-1.2Z"/><path class="cls-30" d="M255.35,73.38a18,18,0,0,0,.6,8.1"/><path class="cls-2" d="M254.74,73.21a18.65,18.65,0,0,0,.6,8.43c.24.76,1.45.44,1.21-.33a17.3,17.3,0,0,1-.6-7.76.65.65,0,0,0-.44-.77.63.63,0,0,0-.77.43Z"/><path class="cls-2" d="M247.52,79.65A11.72,11.72,0,0,0,249,88a.63.63,0,0,0,1.08-.63A10.44,10.44,0,0,1,248.73,80c.16-.78-1-1.12-1.21-.33Z"/><path class="cls-2" d="M240.24,87.66c0,2.87,2.27,5.1,4.8,6.11a.63.63,0,0,0,.77-.44.64.64,0,0,0-.44-.77,6.83,6.83,0,0,1-2.83-2.09,4.81,4.81,0,0,1-1-2.82.63.63,0,0,0-1.25,0Z"/><path class="cls-2" d="M242.3,112.28a50.09,50.09,0,0,0,12.53-.64c3.34-.6,6.62-1.5,8.81-4.27.49-.62-.38-1.51-.88-.88-2.15,2.71-5.4,3.46-8.66,4a48.58,48.58,0,0,1-11.8.53c-.8-.07-.8,1.18,0,1.24Z"/><path class="cls-2" d="M244,101.67c11.13.23,22.86-.51,31.49-8.42.59-.54-.29-1.43-.88-.88-8.37,7.66-19.83,8.27-30.61,8a.63.63,0,0,0,0,1.25Z"/><path class="cls-31" d="M250.8,88.41a79.12,79.12,0,0,0,15.42-.69c5-.8,9.81-2.36,13.32-4.75"/><path class="cls-2" d="M250.8,89c9.65.36,20.74,0,29.05-5.53.66-.45,0-1.53-.63-1.08-8.14,5.46-19,5.72-28.42,5.36-.81,0-.81,1.22,0,1.25Z"/><path class="cls-2" d="M300,189.38c-1,3.45,3.67,5.42,6.15,6.34A24.05,24.05,0,0,0,317.55,197c.79-.1.8-1.35,0-1.25a23.28,23.28,0,0,1-9.64-.8,21.38,21.38,0,0,1-4.46-1.9c-1.16-.67-2.66-1.88-2.22-3.39a.62.62,0,0,0-1.2-.32Z"/><path class="cls-32" d="M310.23,185.69l18.07-.44"/><path class="cls-2" d="M310.23,186.31l18.07-.44a.63.63,0,0,0,0-1.25l-18.07.44a.63.63,0,0,0,0,1.25Z"/><path class="cls-2" d="M323.77,174.69h11.86a.63.63,0,0,0,0-1.25H323.77a.63.63,0,0,0,0,1.25Z"/><path class="cls-2" d="M166.2,144.18A24.07,24.07,0,0,1,151,152.44c-.79.1-.8,1.35,0,1.25a25.34,25.34,0,0,0,16.07-8.63c.51-.61-.37-1.5-.89-.88Z"/><path class="cls-2" d="M154.71,137.61a56.35,56.35,0,0,1-17.88,11.47c-.74.29-.42,1.5.33,1.21a58.06,58.06,0,0,0,18.43-11.8c.59-.55-.3-1.44-.88-.88Z"/><path class="cls-2" d="M142.38,136.9c-7.49,1.39-15,6.8-22.82,4.6a.63.63,0,0,0-.33,1.21c8.13,2.28,15.72-3.16,23.48-4.6.79-.15.46-1.36-.33-1.21Z"/><path class="cls-33" d="M291.37,150.62a9.36,9.36,0,0,0,3.92-3.91c1.23-2,2.34-4.06,3.5-6.1q3.61-6.39,7.13-12.84t6.93-13c2-3.85,4.76-8,4.24-12.6-.09-.79-1.34-.8-1.25,0,.52,4.6-2.48,8.93-4.53,12.83s-4.29,8.07-6.47,12.08-4.4,8-6.65,12c-1.12,2-2.25,4-3.39,5.95-1,1.78-2.11,3.58-4.06,4.46-.73.36-.1,1.44.63,1.1Z"/><path class="cls-33" d="M311.24,120.43a18.75,18.75,0,0,0,14.48-2.25c.68-.42,0-1.51-.63-1.08a17.48,17.48,0,0,1-13.51,2.12.63.63,0,0,0-.34,1.21Z"/><path class="cls-33" d="M300.84,113.11c.35,4.42,4.17,7.28,7.57,9.55.67.45,1.3-.63.63-1.08-3-2-6.64-4.57-7-8.47-.07-.8-1.32-.8-1.25,0Z"/><path class="cls-33" d="M292.66,118.73a10.08,10.08,0,0,0,6.15,11c.75.29,1.08-.92.33-1.21a8.78,8.78,0,0,1-5.28-9.43c.15-.79-1.06-1.12-1.2-.33Z"/><path class="cls-33" d="M302.87,133.55C314,134.29,325.43,135,336,131c.75-.28.42-1.49-.33-1.21-10.49,3.94-21.84,3.26-32.81,2.52-.81,0-.81,1.21,0,1.26Z"/><path class="cls-33" d="M300.93,140a44,44,0,0,0,33.8,2.08c.75-.26.43-1.47-.33-1.21a42.73,42.73,0,0,1-32.83-2c-.73-.35-1.36.73-.64,1.08Z"/><path class="cls-33" d="M286.33,129.24c-.18,5.78,5.05,11.17,10.89,10.87.8,0,.81-1.29,0-1.25-5.18.27-9.8-4.49-9.64-9.62,0-.81-1.22-.81-1.25,0Z"/><path class="cls-2" d="M264.54,52.18a.63.63,0,0,0,0-1.25.63.63,0,0,0,0,1.25Z"/></g></g></svg>