<?xml version="1.0" encoding="utf-8"?>
<!-- Generator: Adobe Illustrator 23.1.1, SVG Export Plug-In . SVG Version: 6.00 Build 0)  -->
<svg version="1.1" id="Layer_1" xmlns="http://www.w3.org/2000/svg" xmlns:xlink="http://www.w3.org/1999/xlink" x="0px" y="0px"
	 viewBox="0 0 1568.3 1262.26" style="enable-background:new 0 0 1568.3 1262.26;" xml:space="preserve">
<style type="text/css">
	.st0{fill:#D1B2C9;}
	.st1{fill:#FEF1F6;}
	.st2{fill:#3E2E1B;}
	.st3{fill:#C59C6D;}
	.st4{fill:#576D47;}
	.st5{fill:#501310;}
	.st6{fill:#4D1413;}
	.st7{fill:#668B4C;}
	.st8{fill:#557B38;}
	.st9{fill:#76955F;}
	.st10{fill:#455D34;}
	.st11{fill:#2C3E1F;}
	.st12{fill:#29461F;}
	.st13{fill:#232F1B;}
</style>
<g>
	<path class="st0" d="M1122.71,777.43c14.03,49.63,20.78,101.55,19.92,153.34c-0.45,27.23-3.09,54.84-12.52,80.19
		c-11,29.57-30.81,54.77-53.63,75.47c-59.84,54.3-140.89,79.06-219.74,76.03c-78.85-3.03-155.47-32.35-222.99-75.46
		c-21.69-13.84-43.15-29.76-56.67-52.39c-10.71-17.93-15.73-38.96-19.41-59.8c-13.23-74.88-11.06-152.75,6.32-226.67"/>
	<g>
		<path class="st0" d="M1121.27,777.83c11.24,39.92,17.81,81.1,19.5,122.54c1.61,39.53,0.79,81.7-15.46,118.48
			c-14.5,32.81-39.72,60.13-68.06,81.63c-27.94,21.2-59.82,36.96-93.38,47.03c-33.28,9.99-68.14,14.48-102.87,13.58
			c-37.67-0.97-75.03-8.13-110.81-19.81c-36.17-11.82-70.74-28.25-103.29-47.89c-15.51-9.36-30.98-19.22-44.55-31.3
			c-13.91-12.38-25.01-27.11-31.91-44.48c-7.08-17.82-10.5-36.95-13.39-55.83c-3.12-20.42-5.09-41.02-5.93-61.66
			c-1.67-40.86,1.07-81.92,8.26-122.18c1.76-9.85,3.79-19.65,6.07-29.4c0.44-1.88-2.45-2.68-2.89-0.8
			c-9.46,40.43-14.46,81.88-14.88,123.41c-0.21,20.99,0.73,41.99,2.85,62.87c2.02,19.98,4.84,40.05,9.43,59.61
			c4.31,18.34,10.89,36.23,22.35,51.38c10.73,14.18,24.56,25.59,39.12,35.64c31.46,21.7,65.79,39.81,101.3,53.89
			c35.58,14.11,72.94,23.89,111.05,27.8c35.72,3.66,71.93,1.89,107.03-5.76c34.41-7.5,67.68-20.65,97.53-39.39
			c30.12-18.91,57.7-43.59,77.02-73.64c10.25-15.94,17.74-33.4,22.13-51.84c4.67-19.58,6.24-39.77,6.62-59.84
			c0.79-41.92-3.41-83.96-12.43-124.9c-2.21-10.05-4.73-20.02-7.52-29.92C1123.64,775.17,1120.74,775.96,1121.27,777.83
			L1121.27,777.83z"/>
	</g>
</g>
<g>
	<path class="st1" d="M964.87,631.84c-94.44-2.22-188.97-4.43-283.3,3.16c-26.41,2.13-53.76,5.44-76.94,25.41
		c-23.18,19.96-41.03,61.28-35.56,101.89c6.47,48.03,39.99,72.71,69.89,87.1c140.64,67.67,294.54,65.62,434.43-5.77
		c21.64-11.04,46.6-30.97,47.97-66.61c0.95-24.81-10.53-46.31-22.43-62.7c-34.1-46.95-77.97-76.14-123.18-81.94"/>
	<g>
		<path class="st0" d="M964.87,630.34c-53.44-1.25-106.9-2.51-160.36-1.98c-26.73,0.26-53.45,0.97-80.15,2.34
			c-13.54,0.7-27.08,1.56-40.6,2.63c-10.42,0.82-20.86,1.75-31.14,3.69c-20.81,3.92-40.78,12.71-55.37,28.44
			c-13.78,14.85-22.86,34.11-27.4,53.73c-4.9,21.17-4.45,43.74,2.67,64.36c5.87,17,16.3,31.97,29.72,43.87
			c12.85,11.38,27.79,19.57,43.29,26.74c21.8,10.08,44.29,18.7,67.3,25.62c44.81,13.49,91.55,20.52,138.36,20.42
			c46.99-0.09,93.88-7.36,138.8-21.1c22.99-7.03,45.47-15.75,67.25-25.92c16.58-7.74,33.25-15.86,45.96-29.4
			c13.08-13.93,20.08-32.08,19.69-51.2c-0.44-21.87-10.3-42.05-22.96-59.42c-24.55-33.7-57.59-63.01-97.71-76.27
			c-8.62-2.85-17.47-4.84-26.47-6.03c-1.91-0.25-1.89,2.75,0,3c39.76,5.23,74.91,28.09,101.88,56.92
			c14.57,15.58,28.62,33.31,36.38,53.38c7.67,19.83,8.36,42.47-1.61,61.65c-7.7,14.81-20.73,25.93-35.1,34.01
			c-19.75,11.1-41.14,19.96-62.39,27.74c-43.22,15.82-88.6,25.7-134.55,28.67c-45.45,2.94-91.23-0.86-135.61-11.08
			c-22.51-5.18-44.63-11.99-66.19-20.26c-18.86-7.24-38.02-15.1-55.29-25.7c-14.31-8.79-27.27-20-36.68-34
			c-11.2-16.67-16.79-36.57-17.02-56.58c-0.24-21.51,5.44-43.2,16.01-61.92c10.27-18.19,25.43-32.4,44.92-40.28
			c20.14-8.14,42.25-9.34,63.67-10.87c25.76-1.84,51.56-2.98,77.38-3.62c51.8-1.29,103.62-0.56,155.42,0.56
			c12.63,0.27,25.26,0.57,37.89,0.87C966.8,633.39,966.8,630.39,964.87,630.34L964.87,630.34z"/>
	</g>
</g>
<g>
	<g>
		<path class="st0" d="M1122.61,729.77c1.93,0,1.93-3,0-3C1120.67,726.77,1120.67,729.77,1122.61,729.77L1122.61,729.77z"/>
	</g>
</g>
<g>
	<path class="st2" d="M547.23,711.57c0.58,36.1,13.62,68.49,29.97,88.37c16.35,19.89,35.72,29.24,54.84,37.07
		c100.09,41.03,203.18,49.08,305.62,56.98c14.85,1.15,29.89,2.27,44.45-3.24c15.38-5.82,29.66-18.81,43.55-32.33
		c21.14-20.57,41.83-42.66,62.51-64.74c5.72-6.11,11.61-12.49,15.53-22.33c3.91-9.83,5.32-24.14,1.55-34.16
		c-5.56-14.75-17.45-11.85-27.17-12.8c-9.48-0.92-18.54-7.02-27.7-11.61c-20.84-10.42-42.55-13.08-64.09-15.68
		c-33.69-4.07-67.58-8.14-101.13-1.23c-21.92,4.51-43.66,13.71-65.72,13.45c-20.31-0.24-40.46-8.51-60.77-7.33
		c-6.73,0.39-13.57,1.8-20.14-0.9c-7.65-3.14-14.3-11.55-21.48-17.36c-20.36-16.46-43.7-11.2-65.72-5.63
		c-35.09,8.87-70.18,17.75-105.28,26.62"/>
	<g>
		<path class="st2" d="M546.1,711.57c0.74,38.09,14.6,78.74,44.67,103.59c14.88,12.3,32.71,19.83,50.54,26.76
			c21.72,8.44,43.96,15.51,66.5,21.41c43.71,11.43,88.46,18.37,133.33,23.29c22.5,2.46,45.05,4.43,67.61,6.24
			c11.18,0.9,22.37,1.81,33.56,2.61c11.15,0.8,22.51,1.15,33.45-1.57c20.92-5.21,37.3-21.6,52.23-36.19
			c16.98-16.6,33.35-33.82,49.61-51.12c7.05-7.5,14.74-14.76,20.74-23.16c5.5-7.69,8.76-16.54,9.84-25.91
			c0.99-8.6,0.48-18.65-4.6-26.02c-3.91-5.66-10.02-7.48-16.59-7.84c-3.48-0.19-7.01-0.02-10.46-0.58
			c-5.47-0.89-10.55-3.32-15.42-5.87c-9.77-5.1-19.3-9.96-29.9-13.14c-21.49-6.44-44.48-8.26-66.7-10.6
			c-23.22-2.45-46.73-3.76-69.93-0.38c-22.84,3.33-44.46,13.03-67.55,14.85c-22.86,1.8-44.58-8.07-67.36-7.12
			c-5.6,0.23-11.32,1.42-16.9,0.36c-5.39-1.02-9.72-4.35-13.71-7.94c-7.5-6.74-14.18-13.81-23.68-17.78
			c-17.88-7.47-37.5-2.71-55.46,1.83c-23.28,5.88-46.55,11.77-69.83,17.66c-11.46,2.9-22.92,5.8-34.38,8.69
			c-1.4,0.35-0.81,2.53,0.6,2.17c22.74-5.75,45.48-11.5,68.22-17.25c11.46-2.9,22.92-5.8,34.38-8.69
			c9.38-2.37,18.81-4.85,28.47-5.74c9.68-0.89,19.59-0.08,28.52,4c9.57,4.37,16.02,12.24,23.96,18.78
			c3.22,2.65,6.73,5.01,10.81,6.09c5.06,1.34,10.3,0.72,15.43,0.3c11.19-0.92,22.17,0.9,33.12,3.01
			c10.62,2.05,21.33,4.29,32.21,4.13c10.74-0.15,21.32-2.41,31.68-5.1c10.6-2.76,21.07-6.03,31.8-8.28
			c11.67-2.44,23.57-3.55,35.48-3.75c23.05-0.4,46,2.5,68.84,5.28c22,2.68,43.82,6.29,63.64,16.77c8.32,4.4,16.7,9.58,26.32,10.25
			c6.39,0.45,13.65-0.49,19.12,3.57c7.64,5.66,8.48,17.4,7.82,26.07c-0.76,9.94-4.16,19.32-10.01,27.39
			c-6.17,8.51-14.09,15.91-21.27,23.56c-7.93,8.43-15.89,16.84-23.93,25.16c-8.08,8.36-16.24,16.63-24.55,24.75
			c-7.95,7.77-16,15.53-24.91,22.2c-8.54,6.39-17.87,11.64-28.38,13.89c-10.97,2.35-22.29,1.66-33.39,0.82
			c-22.03-1.67-44.06-3.39-66.07-5.4c-44.1-4.03-88.14-9.39-131.5-18.52c-21.85-4.6-43.51-10.16-64.8-16.89
			c-20.34-6.43-40.84-13.56-60.04-22.93c-17.32-8.45-32.72-20.24-43.86-36.11c-10.61-15.13-17.6-32.74-21.53-50.74
			c-2.21-10.15-3.38-20.48-3.58-30.86C548.33,710.12,546.08,710.11,546.1,711.57L546.1,711.57z"/>
	</g>
</g>
<g>
	<g>
		<path class="st3" d="M710.18,3.78c-4.22,45.03-12.48,89.56-22.95,133.53c-10.57,44.4-23.38,88.23-36.7,131.87
			c-13.33,43.68-27.2,87.2-39.94,131.07c-12.64,43.53-24.18,87.43-32.82,131.94c-8.69,44.79-14.5,90.25-15.6,135.89
			c-0.13,5.56-0.19,11.13-0.19,16.7c0.01,9.65,15.01,9.67,15,0c-0.02-44.98,4.62-89.81,12.54-134.07
			c7.98-44.59,19.05-88.57,31.41-132.14c12.46-43.92,26.24-87.45,39.66-131.08c13.42-43.63,26.51-87.39,37.56-131.7
			c11.11-44.58,20.07-89.72,25.29-135.39c0.63-5.53,1.2-11.07,1.72-16.62c0.38-4.04-3.72-7.5-7.5-7.5
			C713.31-3.72,710.56-0.27,710.18,3.78L710.18,3.78z"/>
	</g>
</g>
<g>
	<g>
		<path class="st3" d="M793.45,7.56c29.48,49.68,58.97,99.37,88.45,149.05c26.52,44.69,53.17,89.33,78.59,134.66
			c24.87,44.34,48.6,89.35,69.81,135.57c21.09,45.97,39.59,93.18,53.92,141.71c14.29,48.37,24.43,98.04,28.67,148.34
			c0.55,6.48,0.99,12.96,1.36,19.45c0.54,9.6,15.54,9.66,15,0c-2.9-51.63-11.68-102.83-25.17-152.72
			c-13.38-49.45-31.3-97.55-51.88-144.42c-20.61-46.94-44.01-92.61-68.75-137.5c-24.76-44.94-50.89-89.11-77.08-133.23
			c-29.61-49.89-59.22-99.78-88.82-149.68c-3.72-6.26-7.43-12.53-11.15-18.79C801.48-8.3,788.51-0.77,793.45,7.56L793.45,7.56z"/>
	</g>
</g>
<g>
	<path class="st4" d="M785.63,730.76c-36.78-108.62-116.17-195.61-208.6-250.55s-197.31-80.07-301.89-89.88
		c185.88,72.48,350.55,209.85,464.54,387.54"/>
	<g>
		<path class="st4" d="M787.07,730.36c-13.02-38.33-31.51-74.69-54.51-107.99c-22.56-32.65-49.3-62.37-79.13-88.53
			c-30.43-26.69-64.04-49.59-99.82-68.49c-40.41-21.35-83.36-37.69-127.4-49.81c-43.99-12.11-89.06-20.05-134.4-25.03
			c-5.56-0.61-11.12-1.17-16.68-1.7c-1.81-0.17-1.85,2.38-0.4,2.95c36.42,14.22,71.88,30.86,106.15,49.69
			c34.49,18.95,67.77,40.1,99.65,63.19c32.35,23.43,63.25,48.87,92.52,76.05c29.51,27.4,57.38,56.57,83.45,87.27
			c26.47,31.18,51.06,63.93,73.65,98.03c2.77,4.19,5.51,8.4,8.23,12.62c1.04,1.62,3.64,0.12,2.59-1.51
			c-22.12-34.45-46.25-67.59-72.26-99.2c-25.89-31.46-53.65-61.38-83.11-89.52c-28.92-27.62-59.48-53.52-91.51-77.47
			c-31.88-23.84-65.22-45.74-99.83-65.42c-34.02-19.34-69.26-36.53-105.49-51.34c-4.4-1.8-8.81-3.56-13.24-5.29
			c-0.13,0.98-0.27,1.96-0.4,2.95c45.11,4.25,90.01,11.3,133.98,22.33c44.15,11.08,87.35,26.18,128.23,46.27
			c36.82,18.1,71.62,40.2,103.23,66.39c30.29,25.09,57.7,53.74,81.06,85.4c23.78,32.24,43.4,67.6,57.58,105.09
			c1.73,4.59,3.38,9.2,4.96,13.85C784.8,732.98,787.7,732.2,787.07,730.36L787.07,730.36z"/>
	</g>
</g>
<g>
	<path class="st5" d="M770.47,729.78c-34.56-75.58-98.3-139.13-170.92-190.01c-72.63-50.88-154.38-90.23-235.66-129.31
		c148.23,74.42,276.7,180.24,371.15,305.68"/>
	<g>
		<path class="st5" d="M771.11,729.41c-13.12-28.62-30.26-55.25-49.98-79.75c-20.46-25.42-43.66-48.58-68.45-69.78
			c-25.82-22.07-53.41-41.99-81.99-60.33c-30.89-19.81-62.91-37.8-95.42-54.81c-32.55-17.03-65.6-33.07-98.69-49
			c-4.11-1.98-8.22-3.95-12.33-5.93c-0.86-0.41-1.62,0.86-0.76,1.3c28.81,14.48,57.01,30.18,84.46,47.1
			c27,16.64,53.3,34.43,78.76,53.35c25.51,18.95,50.19,39.02,73.91,60.17c23.17,20.66,45.42,42.34,66.63,65
			c21.21,22.67,41.38,46.32,60.35,70.9c2.28,2.95,4.53,5.91,6.78,8.89c0.57,0.76,1.88,0.01,1.3-0.76
			c-18.53-24.6-38.24-48.31-59.01-71.06c-21.12-23.14-43.33-45.28-66.48-66.38c-23.22-21.16-47.38-41.27-72.38-60.3
			c-25.48-19.4-51.81-37.66-78.89-54.75c-27.34-17.25-55.43-33.31-84.16-48.12c-3.49-1.8-7-3.58-10.51-5.35
			c-0.25,0.43-0.5,0.86-0.76,1.3c33.11,15.92,66.23,31.85,98.9,48.65c32.34,16.63,64.26,34.11,95.17,53.29
			c29.4,18.24,57.89,38.01,84.63,60c25.12,20.65,48.75,43.2,69.83,67.97c20.51,24.09,38.61,50.35,52.77,78.69
			c1.73,3.46,3.4,6.95,5.01,10.47C770.22,731.04,771.51,730.28,771.11,729.41L771.11,729.41z"/>
	</g>
</g>
<g>
	<path class="st4" d="M733.37,713.48c-54.68-6.94-109.36-13.89-164.04-20.83c-60.57-7.69-125.11-14.69-179.73,14.84
		c-29.33,15.85-53.34,41.09-76.83,65.93c-22.73,24.03-46.43,49.8-54.45,83.17c123.68-97.15,285.52-134.48,434.74-100.28"/>
	<g>
		<path class="st4" d="M733.37,711.98c-40.15-5.1-80.3-10.2-120.45-15.29c-36.76-4.67-73.64-10.47-110.72-11.93
			c-34.18-1.35-69.11,1.66-100.81,15.36c-32.76,14.15-58.53,39.51-82.79,64.97c-22.48,23.6-46.61,47.91-58.09,79.12
			c-1.44,3.93-2.65,7.93-3.64,11.99c-0.38,1.56,1.38,2.35,2.51,1.46c23.97-18.8,49.57-35.51,76.43-49.9
			c26.43-14.16,54.06-26.07,82.51-35.55c28.11-9.36,57-16.37,86.29-20.87c29.4-4.52,59.2-6.48,88.94-5.82
			c29.63,0.66,59.19,3.93,88.22,9.89c3.64,0.75,7.27,1.54,10.89,2.37c1.88,0.43,2.68-2.46,0.8-2.89
			c-29.17-6.66-58.93-10.67-88.82-11.99c-29.85-1.32-59.8,0.03-89.42,3.93c-29.74,3.92-59.14,10.38-87.78,19.3
			c-28.72,8.95-56.68,20.34-83.48,34c-27.33,13.93-53.44,30.23-77.94,48.69c-2.94,2.21-5.86,4.46-8.75,6.73
			c0.84,0.49,1.67,0.97,2.51,1.46c7.96-32.56,30.85-57.96,53.27-81.68c23.86-25.24,48.31-51.45,79.51-67.69
			c30.83-16.04,65.84-20.65,100.21-20.13c36.02,0.54,71.83,6.06,107.5,10.59c39.52,5.02,79.05,10.04,118.57,15.06
			c4.84,0.61,9.69,1.23,14.53,1.84C735.28,715.22,735.27,712.22,733.37,711.98L733.37,711.98z"/>
	</g>
</g>
<g>
	<path class="st6" d="M760.73,711.53c-59.45-6.16-119.03-12.34-178.68-11.33c-59.65,1-119.62,9.33-175.73,31.44
		c-45.05,17.75-88.34,45.37-117.14,87.7c75.14-64.98,171.76-95.85,267.27-95.59c67.13,0.18,134.69,14.95,201.05,4.17"/>
	<g>
		<path class="st5" d="M760.73,710.78c-36.25-3.76-72.52-7.52-108.91-9.66c-35.35-2.08-70.83-2.62-106.17-0.1
			c-33.81,2.41-67.5,7.6-100.17,16.72c-29.59,8.26-58.56,19.62-85.02,35.34c-24.95,14.82-47.61,33.68-65.32,56.75
			c-2.28,2.97-4.48,6.01-6.59,9.11c-0.51,0.74,0.57,1.43,1.18,0.91c23.14-19.97,48.69-37.06,75.94-50.92
			c26.82-13.64,55.2-24.15,84.37-31.5c29.01-7.31,58.78-11.51,88.67-12.64c34.11-1.29,68.13,1.93,102.1,4.64
			c34.73,2.77,69.77,5,104.49,0.93c4.16-0.49,8.3-1.07,12.43-1.73c0.95-0.15,0.55-1.6-0.4-1.45c-35.22,5.66-71.02,4.19-106.45,1.53
			c-34.64-2.6-69.28-6.32-104.06-5.65c-29.63,0.57-59.22,4.14-88.12,10.74c-29.17,6.67-57.64,16.46-84.66,29.33
			c-27.27,12.99-53.01,29.15-76.46,48.19c-3.01,2.44-5.97,4.93-8.91,7.46c0.39,0.3,0.79,0.61,1.18,0.91
			c16.71-24.46,38.83-44.68,63.71-60.6c25.52-16.33,53.68-28.24,82.6-37.08c32.33-9.87,65.78-15.75,99.42-18.71
			c34.76-3.06,69.72-3.03,104.55-1.33c35.94,1.75,71.76,5.25,107.54,8.93c4.36,0.45,8.72,0.9,13.07,1.35
			C761.68,712.38,761.68,710.88,760.73,710.78L760.73,710.78z"/>
	</g>
</g>
<g>
	<path class="st7" d="M878.6,759.98c-80.72-0.1-161.43-0.2-242.15-0.3c-24.54-0.03-49.49,0-73.02,7.56
		c-70.6,22.69-109.17,105.09-128.52,182.44c117.54-124.79,274.48-204.72,437.77-222.96"/>
	<g>
		<path class="st4" d="M878.6,758.48c-42.43-0.05-84.86-0.11-127.29-0.16c-42.15-0.05-84.32-0.42-126.47-0.13
			c-19.4,0.14-39.07,1.05-57.84,6.39c-14.11,4.01-27.43,10.55-39.4,19.01c-24.09,17.03-42.47,41.04-56.67,66.64
			c-15.27,27.51-26.2,57.34-34.49,87.63c-1.04,3.79-2.03,7.6-2.99,11.41c-0.35,1.41,1.45,2.58,2.51,1.46
			c22.71-24.09,47-46.67,72.71-67.52c25.52-20.69,52.43-39.67,80.49-56.76c27.7-16.87,56.52-31.9,86.23-44.9
			c29.57-12.94,60.03-23.84,91.11-32.56c30.88-8.66,62.39-15.19,94.2-19.33c3.99-0.52,7.98-1,11.97-1.45c1.9-0.21,1.92-3.22,0-3
			c-32.02,3.59-63.76,9.49-94.94,17.63c-31.33,8.18-62.07,18.58-91.95,31.04c-30.14,12.56-59.41,27.16-87.57,43.67
			c-28.32,16.6-55.51,35.13-81.37,55.35c-26.23,20.51-51.07,42.79-74.31,66.64c-2.92,3-5.82,6.03-8.7,9.08
			c0.84,0.49,1.67,0.97,2.51,1.46c7.61-30.35,17.68-60.28,31.83-88.24c13.33-26.33,30.54-51.4,53.63-70.11
			c10.98-8.9,23.33-16.21,36.59-21.16c17.8-6.64,36.77-8.66,55.65-9.19c20.31-0.57,40.67-0.17,60.98-0.15
			c20.84,0.03,41.69,0.05,62.53,0.08c41.84,0.05,83.67,0.11,125.51,0.16c5.17,0.01,10.35,0.01,15.52,0.02
			C880.53,761.48,880.53,758.48,878.6,758.48L878.6,758.48z"/>
	</g>
</g>
<g>
	<path class="st8" d="M853.99,728.5c-8.48,19.01-21.36,35.98-33.06,53.45c-30.57,45.63-53.94,96.75-56.54,150.7
		c-2.6,53.95,17.89,111.03,62.94,147.2c-28.87-115.54,35.79-232.73,24.15-350.37"/>
	<g>
		<path class="st9" d="M853.34,728.12c-5.77,12.85-13.44,24.7-21.35,36.32c-7.87,11.55-15.84,23.01-23.09,34.96
			c-14.05,23.17-26.05,47.74-34.24,73.62c-7.78,24.6-12.12,50.52-11.09,76.36c0.93,23.22,6.06,46.27,15.32,67.6
			c9.45,21.74,23.32,41.57,40.94,57.47c2.26,2.04,4.59,4.02,6.96,5.93c0.56,0.45,1.45,0.05,1.25-0.73
			c-5.54-22.3-7.72-45.27-7.45-68.22c0.27-22.88,2.86-45.66,6.43-68.24c3.61-22.91,8.22-45.64,12.57-68.41
			c4.31-22.52,8.4-45.12,11.05-67.91c2.66-22.81,3.85-45.85,2.29-68.79c-0.2-2.87-0.44-5.74-0.72-8.61c-0.09-0.95-1.59-0.96-1.5,0
			c2.24,22.89,1.63,45.95-0.64,68.81c-2.31,23.29-6.31,46.38-10.65,69.37c-4.3,22.8-8.97,45.54-12.77,68.43
			c-3.74,22.52-6.66,45.23-7.4,68.06c-0.74,22.59,0.71,45.3,5.39,67.45c0.6,2.83,1.25,5.65,1.95,8.46c0.42-0.24,0.84-0.49,1.25-0.73
			c-18.58-14.97-33.54-33.99-44.09-55.36c-10.3-20.87-16.4-43.79-18.25-66.97c-2.03-25.37,1.25-50.93,8.13-75.38
			c7.3-25.96,18.6-50.66,32.09-73.96c6.86-11.85,14.36-23.27,22.11-34.55c7.86-11.44,15.83-22.87,22.34-35.15
			c1.58-2.97,3.05-6,4.43-9.07C855.03,728.01,853.73,727.24,853.34,728.12L853.34,728.12z"/>
	</g>
</g>
<g>
	<path class="st10" d="M843.56,727.95c61.61,94.93,105.65,203.33,128.7,316.84c25.15-52.04,23.61-115.74,6.47-171.52
		c-17.15-55.77-48.51-104.96-81.61-151.43"/>
	<g>
		<path class="st4" d="M842.27,728.71c12.04,18.57,23.39,37.59,34.01,57.01c10.68,19.53,20.64,39.45,29.85,59.71
			c9.29,20.42,17.82,41.18,25.59,62.22c7.75,20.98,14.74,42.25,20.95,63.73c6.27,21.65,11.75,43.54,16.44,65.59
			c0.58,2.74,1.15,5.48,1.71,8.22c0.25,1.22,2.19,1.5,2.74,0.36c9.59-19.93,15.34-41.45,17.85-63.4
			c2.56-22.35,1.75-45.01-1.61-67.23c-3.42-22.63-9.67-44.71-17.98-66.02c-8.44-21.65-18.9-42.46-30.59-62.54
			c-11.67-20.05-24.55-39.37-37.89-58.34c-1.63-2.32-3.27-4.63-4.92-6.95c-1.11-1.56-3.71-0.06-2.59,1.51
			c13.27,18.64,26.17,37.57,38,57.17c11.9,19.73,22.75,40.14,31.65,61.41c8.72,20.83,15.59,42.46,19.75,64.67
			c4.11,21.94,5.67,44.43,4.07,66.71c-1.58,21.94-6.31,43.79-14.96,64.05c-1.07,2.5-2.19,4.97-3.37,7.42
			c0.91,0.12,1.83,0.24,2.74,0.36c-4.51-22.19-9.82-44.22-15.93-66.03c-6.06-21.64-12.9-43.06-20.51-64.21
			c-7.59-21.09-15.94-41.91-25.03-62.4c-9.03-20.36-18.8-40.39-29.31-60.03c-10.49-19.62-21.71-38.84-33.64-57.61
			c-1.47-2.31-2.95-4.61-4.44-6.91C843.81,725.58,841.21,727.08,842.27,728.71L842.27,728.71z"/>
	</g>
</g>
<g>
	<path class="st10" d="M849.61,755.62c35.17-72.91,22.09-163.11-19.3-239.43c-41.39-76.31-108.4-140.32-180.86-195.4
		c67.23,102.56,115.79,214.2,142.86,328.42"/>
	<g>
		<path class="st4" d="M850.9,756.38c14.12-29.4,20.6-61.87,20.52-94.41c-0.08-34.01-7.02-67.86-18.68-99.74
			c-11.7-32-28.32-61.96-47.93-89.77c-19.59-27.77-42.09-53.4-66.27-77.24c-24.69-24.36-51.14-46.9-78.52-68.17
			c-3.26-2.53-6.54-5.05-9.83-7.55c-1.21-0.92-2.84,0.85-2.05,2.05c26.04,39.76,49.52,81.18,70.1,124.02
			c20.17,41.99,37.55,85.32,51.83,129.66c7.89,24.51,14.83,49.33,20.77,74.38c0.45,1.88,3.34,1.08,2.89-0.8
			c-10.69-45.02-24.58-89.26-41.42-132.35c-17.07-43.72-37.13-86.27-59.87-127.32c-13.04-23.54-26.98-46.59-41.72-69.11
			c-0.68,0.68-1.37,1.37-2.05,2.05c27.33,20.79,53.8,42.76,78.66,66.45c24.39,23.24,47.29,48.16,67.44,75.18
			c19.98,26.81,37.42,55.73,50.16,86.69c12.81,31.12,21.19,64.28,23.08,97.93c1.81,32.35-2.54,65.13-14.73,95.26
			c-1.54,3.81-3.21,7.56-4.99,11.26C847.48,756.59,850.06,758.12,850.9,756.38L850.9,756.38z"/>
	</g>
</g>
<g>
	<path class="st4" d="M921.81,734.97c-24.78-63.54,15.24-136.44,75.87-175.05c60.64-38.62,136.91-49.93,210.62-55.54
		c78.17-5.96,160.09-6.08,230.98,24.56c-137.11-33.01-290.41-4.27-402.11,75.38c-45.22,32.24-86.56,80.57-76.08,132.03"/>
	<g>
		<path class="st4" d="M923.26,734.57c-13.58-35.17-6.93-73.76,11.05-106.07c19.68-35.36,50.94-62.08,86.79-80.14
			c39.76-20.04,83.79-30.21,127.66-36.31c22.52-3.14,45.19-5.19,67.87-6.78c23.27-1.64,46.6-2.67,69.93-2.48
			c45.93,0.37,92.38,5.46,135.81,21.07c5.45,1.96,10.84,4.08,16.16,6.37c0.39-0.91,0.77-1.83,1.16-2.74
			c-37.73-9.05-76.53-13.49-115.33-13.5c-38.96-0.01-77.94,4.4-115.91,13.07c-37.46,8.55-73.99,21.3-108.51,38.21
			c-34.18,16.75-67.73,37.38-95.19,63.94c-25.48,24.65-48.47,57.76-46.7,94.79c0.21,4.28,0.77,8.54,1.6,12.74
			c0.38,1.89,3.27,1.09,2.89-0.8c-7.32-36.84,12.68-71.46,37.17-97.37c25.88-27.38,58.47-48.37,91.73-65.66
			c33.57-17.45,69.24-30.8,105.91-40.1c37.08-9.4,75.2-14.66,113.45-15.66c38.25-1,76.63,2.25,114.09,10.07
			c4.69,0.98,9.36,2.03,14.01,3.15c1.57,0.38,2.78-2.04,1.16-2.74c-43.13-18.55-90.02-25.87-136.7-27.5
			c-23.64-0.82-47.31-0.23-70.92,1.12c-23.29,1.33-46.58,3.22-69.75,6c-44.57,5.35-89.28,14.26-130.49,32.57
			c-37.76,16.77-71.42,41.88-94.17,76.78c-20.12,30.86-30.89,69.01-21.85,105.48c1.12,4.52,2.55,8.95,4.22,13.29
			C921.05,737.15,923.95,736.38,923.26,734.57L923.26,734.57z"/>
	</g>
</g>
<g>
	<path class="st4" d="M905.23,722.73c63.59-2.84,127.18-5.68,190.77-8.52c46.68-2.08,93.98-4.09,139.51,10.44
		c45.52,14.53,89.83,47.72,115.11,102.31c-125.42-88.78-272.35-117.52-410.52-80.28"/>
	<g>
		<path class="st4" d="M905.23,724.23c35.64-1.59,71.28-3.18,106.92-4.77c35.23-1.57,70.45-3.4,105.69-4.65
			c33.98-1.21,68.41-1.01,101.66,6.95c25.85,6.18,50.24,17.25,71.52,33.23c22.17,16.65,40.34,38.29,53.34,62.75
			c1.74,3.28,3.39,6.62,4.96,9.99c0.68-0.68,1.37-1.37,2.05-2.05c-24.11-17.04-49.5-32.25-76.01-45.24
			c-25.51-12.5-52.02-22.96-79.25-31.07c-26.73-7.97-54.14-13.64-81.84-16.89c-27.42-3.21-55.12-4-82.68-2.3
			c-27.59,1.71-55.02,5.89-81.86,12.49c-3.36,0.82-6.7,1.69-10.04,2.59c-1.86,0.5-1.07,3.4,0.8,2.89
			c26.72-7.18,54.06-12.01,81.64-14.28c27.27-2.25,54.73-2.06,81.96,0.53c27.45,2.61,54.65,7.69,81.23,15
			c27.29,7.51,53.92,17.38,79.57,29.35c26.39,12.32,51.74,26.83,75.83,43.2c3.07,2.08,6.11,4.2,9.14,6.33
			c1.35,0.95,2.62-0.84,2.05-2.05c-11.91-25.61-29.08-48.67-50.7-66.91c-19.48-16.44-42.21-28.88-66.54-36.48
			c-32.71-10.22-67.22-12.08-101.27-11.44c-35.55,0.66-71.1,2.84-106.61,4.43c-36.08,1.61-72.17,3.22-108.25,4.83
			c-4.44,0.2-8.87,0.4-13.31,0.59C903.31,721.32,903.3,724.32,905.23,724.23L905.23,724.23z"/>
	</g>
</g>
<g>
	<path class="st5" d="M904.4,726.02c63.57-10.11,127.71-19.76,192.43-18.81s130.72,13.15,185.44,43.74
		c-58.1-18.85-120.88-22.37-182.6-25.57c-37.43-1.94-74.86-3.83-112.3-5.67c-26.46-1.3-54.63-2.24-77.45,9.31"/>
	<g>
		<path class="st5" d="M904.5,726.39c26.32-4.19,52.66-8.28,79.11-11.58c26.13-3.26,52.37-5.75,78.69-6.77
			c24.97-0.97,50.01-0.61,74.9,1.67c24.02,2.2,47.91,6.15,71.23,12.34c22.76,6.04,44.99,14.23,65.91,25.07
			c2.6,1.35,5.18,2.74,7.74,4.17c0.1-0.23,0.19-0.46,0.29-0.69c-23.24-7.51-47.18-12.61-71.32-16.18
			c-24.31-3.6-48.82-5.7-73.34-7.27c-25.35-1.62-50.73-2.8-76.1-4.09c-26.06-1.33-52.12-2.7-78.19-3.91
			c-22.19-1.03-45.58-1.71-66.66,6.43c-2.39,0.92-4.74,1.97-7.03,3.12c-0.43,0.22-0.05,0.86,0.38,0.65
			c20.51-10.27,44.26-10.56,66.69-9.73c25.39,0.94,50.77,2.46,76.14,3.75c25.29,1.28,50.59,2.49,75.87,3.99
			c24.4,1.45,48.79,3.3,73.02,6.52c24.18,3.21,48.22,7.8,71.62,14.74c2.92,0.86,5.82,1.77,8.72,2.7c0.41,0.13,0.66-0.48,0.29-0.69
			c-20.49-11.42-42.37-20.23-64.87-26.81c-22.96-6.72-46.57-11.16-70.33-13.84c-24.87-2.8-49.93-3.62-74.95-3.02
			c-26.58,0.64-53.1,2.87-79.5,5.97c-26.3,3.09-52.49,7.04-78.65,11.16c-3.29,0.52-6.58,1.04-9.87,1.56
			C903.83,725.74,904.03,726.46,904.5,726.39L904.5,726.39z"/>
	</g>
</g>
<g>
	<path class="st7" d="M884.72,724.8c-25.67-47.14-25.51-106.9-8.17-158.97s50.31-97.3,87.39-136.79
		c44.63-47.53,95.96-88.15,151.73-120.06c-62.87,44.42-105.06,115.72-129.73,190.53c-24.67,74.81-33.49,153.84-42.15,232.13"/>
	<g>
		<path class="st4" d="M886.01,724.05c-15.69-28.98-21.47-62.34-19.9-95.05c1.62-33.71,11.09-66.53,25.81-96.8
			c14.67-30.16,34.2-57.75,56.02-83.14c22.41-26.08,47.14-50.23,73.45-72.37c26.41-22.22,54.58-42.34,84.18-60.06
			c3.59-2.15,7.21-4.26,10.84-6.34c-0.5-0.86-1.01-1.73-1.51-2.59c-22.8,16.15-42.95,35.77-60.34,57.61
			c-17.69,22.22-32.6,46.56-45.06,72.06c-13.06,26.72-23.41,54.69-31.65,83.25c-9.31,32.29-16,65.27-21.28,98.44
			c-5.3,33.27-9.19,66.74-12.92,100.22c-0.46,4.13-0.92,8.26-1.37,12.39c-0.21,1.92,2.79,1.9,3,0c3.69-33.34,7.39-66.69,12.34-99.88
			c4.92-32.96,11.09-65.78,19.69-98c7.76-29.08,17.52-57.65,30.09-85.02c11.72-25.52,25.77-50.03,42.54-72.58
			c16.63-22.36,36.04-42.81,58.17-59.79c2.73-2.09,5.5-4.12,8.3-6.11c1.55-1.1,0.19-3.57-1.51-2.59
			c-30.36,17.39-59.27,37.25-86.44,59.29c-27.1,21.97-52.53,46.08-75.76,72.11c-22.54,25.24-43,52.6-58.81,82.59
			c-15.73,29.86-26.6,62.22-29.94,95.89c-3.25,32.83,0.57,66.77,14.07,97.06c1.65,3.71,3.46,7.35,5.39,10.92
			C884.34,727.26,886.93,725.75,886.01,724.05L886.01,724.05z"/>
	</g>
</g>
<g>
	<path class="st5" d="M914.83,745.58c-19.03-37.65-13.53-81.17-4.27-121.58c24.98-109.04,77.47-216.69,170.86-291.34
		C970.16,441.83,914.19,593.41,931.21,739.52"/>
	<g>
		<path class="st5" d="M915.48,745.2c-14.95-29.83-14.55-63.98-9.18-96.17c4.9-29.42,12.9-58.55,22.36-86.82
			c9.35-27.93,20.69-55.21,34.24-81.38c13.7-26.47,29.65-51.81,47.96-75.35c18.48-23.77,39.36-45.69,62.37-65.13
			c2.88-2.43,5.79-4.82,8.73-7.18c-0.35-0.35-0.71-0.71-1.06-1.06c-21.43,21.05-41.08,43.9-58.62,68.29
			c-17.3,24.05-32.55,49.58-45.47,76.24c-12.66,26.13-23.09,53.34-31.04,81.26c-7.89,27.73-13.34,56.17-16.13,84.87
			c-2.79,28.62-2.93,57.51-0.28,86.15c0.33,3.53,0.7,7.06,1.1,10.58c0.11,0.95,1.61,0.96,1.5,0c-3.28-28.37-3.86-57.02-1.78-85.5
			c2.1-28.71,6.88-57.2,14.13-85.06c7.33-28.14,17.17-55.61,29.3-82.03c12.24-26.67,26.81-52.27,43.42-76.46
			c16.95-24.68,36.04-47.89,56.97-69.31c2.62-2.69,5.28-5.34,7.96-7.97c0.71-0.69-0.32-1.65-1.06-1.06
			c-24.04,19.25-45.92,41.11-65.32,65.03c-18.82,23.2-35.32,48.25-49.52,74.52c-14.09,26.05-25.94,53.29-35.77,81.22
			c-9.95,28.27-18.14,57.37-23.82,86.82c-6.06,31.4-8.59,65,2.98,95.49c1.39,3.67,2.98,7.26,4.74,10.77
			C914.62,746.82,915.91,746.06,915.48,745.2L915.48,745.2z"/>
	</g>
</g>
<g>
	<path class="st4" d="M769.78,788.6c-73.65,57.65-124.75,139.65-141.47,227.03c-12.17,63.59-6.62,128.47-1.03,192.51
		c29.29-183.63,116.37-360.09,247.74-502.01"/>
	<g>
		<path class="st4" d="M768.72,787.54c-22.62,17.74-43.33,37.88-61.63,60.06c-17.91,21.7-33.54,45.27-46.39,70.3
			c-12.65,24.63-22.63,50.66-29.43,77.51c-8,31.63-11.26,64.25-11.68,96.82c-0.45,34.5,2.15,68.94,5.1,103.29
			c0.36,4.21,0.73,8.42,1.1,12.62c0.14,1.55,2.66,2.19,2.95,0.4c5.74-35.87,13.63-71.37,23.6-106.3
			c10.03-35.15,22.13-69.7,36.16-103.46c14.14-34.02,30.26-67.22,48.18-99.41c18.06-32.45,37.95-63.87,59.53-94.1
			c21.86-30.62,45.45-59.98,70.62-87.94c3.07-3.4,6.16-6.79,9.27-10.15c1.31-1.42-0.81-3.54-2.12-2.12
			c-25.45,27.52-49.38,56.45-71.61,86.63c-22.22,30.16-42.74,61.56-61.41,94.03c-18.45,32.08-35.1,65.2-49.79,99.17
			c-14.52,33.57-27.16,67.96-37.72,102.97c-10.54,34.93-19.03,70.47-25.33,106.41c-0.78,4.48-1.53,8.96-2.25,13.45
			c0.98,0.13,1.96,0.27,2.95,0.4c-2.97-34.02-5.92-68.1-6.22-102.27c-0.3-33.32,1.96-66.8,9.17-99.4
			c5.97-27,15.17-53.27,27.15-78.19c12.11-25.19,27.01-49.05,44.27-71.04c17.55-22.35,37.5-42.8,59.39-60.91
			c2.74-2.26,5.51-4.49,8.3-6.68C772.36,788.47,770.22,786.36,768.72,787.54L768.72,787.54z"/>
	</g>
</g>
<g>
	<path class="st11" d="M858.81,728.14c28.97-8.79,56.51,15.52,74.12,38.21c83.47,107.53,132.39,236.99,139.25,368.49
		c52.19-72.47,72.82-164.85,47.82-248.45c-25-83.6-97.87-155.74-189.69-178.64"/>
	<g>
		<path class="st12" d="M859.11,729.23c30.59-9.02,57.5,17.77,74.45,39.76c19.8,25.7,37.77,52.83,53.69,81.1
			c15.89,28.2,29.76,57.54,41.4,87.74c11.4,29.58,20.68,59.98,27.68,90.91c7.04,31.12,11.77,62.77,14.02,94.6
			c0.27,3.84,0.51,7.67,0.71,11.51c0.06,1.16,1.45,1.47,2.1,0.57c22.01-30.64,38.72-65.12,48.56-101.57
			c9.58-35.5,12.55-72.81,7.63-109.29c-4.52-33.47-15.83-65.67-33.18-94.64c-16.86-28.13-39-53.09-64.74-73.39
			c-26.28-20.73-56.29-36.66-88.34-46.39c-4.13-1.25-8.3-2.4-12.49-3.45c-1.4-0.35-2,1.82-0.6,2.17
			c32.54,8.16,63.32,22.64,90.53,42.25c26.53,19.12,49.65,43.07,67.67,70.38c18.07,27.4,30.72,58.06,36.82,90.33
			c6.82,36.06,5.58,73.43-2.45,109.19c-8.16,36.32-23.19,70.98-43.63,102.06c-2.5,3.8-5.08,7.54-7.73,11.23
			c0.7,0.19,1.4,0.38,2.1,0.57c-1.7-32.18-5.87-64.21-12.43-95.75c-6.6-31.73-15.61-62.95-26.84-93.34
			c-11.32-30.63-24.9-60.42-40.56-89.08c-15.84-28.99-33.8-56.82-53.69-83.19c-9.19-12.19-18.84-24-30.99-33.38
			c-11.37-8.78-25.21-15.66-39.93-14.86c-3.52,0.19-6.98,0.82-10.35,1.82C857.13,727.47,857.72,729.64,859.11,729.23L859.11,729.23z
			"/>
	</g>
</g>
<g>
	<path class="st5" d="M905.74,701.17c98.91,97.83,163.48,236.1,177.72,380.56c11.72-70.65-6.66-144.51-39.24-207.26
		c-32.58-62.75-78.56-115.89-125.75-166.42"/>
	<g>
		<path class="st5" d="M904.68,702.23c19.41,19.22,37.41,39.85,53.87,61.65c16.55,21.92,31.56,44.98,45,68.93
			c13.67,24.35,25.71,49.61,36.05,75.55c10.34,25.97,19,52.61,25.88,79.69c6.96,27.39,12.13,55.25,15.37,83.33
			c0.4,3.44,0.76,6.89,1.11,10.34c0.15,1.53,2.65,2.21,2.95,0.4c4.48-27.24,4.63-55.03,1.14-82.4c-3.5-27.48-10.49-54.45-20.2-80.38
			c-9.71-25.94-22.16-50.76-36.56-74.41c-14.42-23.69-30.73-46.17-48.11-67.77c-17.35-21.57-35.78-42.26-54.58-62.57
			c-2.35-2.54-4.71-5.07-7.07-7.6c-1.32-1.41-3.44,0.71-2.12,2.12c18.65,19.97,37,40.23,54.41,61.3
			c17.55,21.24,34.13,43.31,48.96,66.55c14.82,23.23,27.9,47.6,38.26,73.15c10.31,25.42,18.06,51.93,22.46,79.02
			c4.39,27.05,5.34,54.73,1.99,81.95c-0.42,3.43-0.92,6.85-1.49,10.25c0.98,0.13,1.96,0.27,2.95,0.4
			c-2.79-28.2-7.46-56.21-13.97-83.8c-6.5-27.53-14.82-54.62-24.87-81.06c-9.96-26.17-21.6-51.71-34.9-76.36
			c-13.2-24.47-28.03-48.07-44.42-70.53c-16.1-22.05-33.7-43.02-52.75-62.58c-2.39-2.45-4.8-4.88-7.24-7.29
			C905.43,698.74,903.3,700.86,904.68,702.23L904.68,702.23z"/>
	</g>
</g>
<g>
	<g>
		<path class="st12" d="M931.61,706.8c-8.15-0.91-16.46-0.25-24.36,1.96c-8.09,2.26-15.65,6.21-23.24,9.71
			c-4.56,2.1-9.11,4.21-13.67,6.31c-1.31,0.61-0.17,2.55,1.14,1.94c7.74-3.58,15.47-7.18,23.22-10.73
			c7.47-3.42,15.09-6.17,23.3-7.03c4.53-0.47,9.09-0.44,13.61,0.07C933.04,709.21,933.03,706.96,931.61,706.8L931.61,706.8z"/>
	</g>
</g>
<g>
	<path class="st11" d="M836.41,742.04c-0.02-36.79-17.82-70.74-36.5-101.79c-22.96-38.15-48.07-74.86-75.14-109.87
		c-14.23-18.4-29.11-36.45-46.78-51.15c-33.8-28.13-75.78-42.49-116.8-56.22c44.84,22.58,77.2,65.36,106.06,108.06
		c26.03,38.51,50.58,78.14,73.56,118.76c13.81,24.41,27.36,50.13,29.99,78.43"/>
	<g>
		<path class="st12" d="M837.53,742.04c-0.09-28.55-10.75-55.58-24.07-80.4c-6.95-12.96-14.64-25.53-22.42-38
			c-8.13-13.02-16.52-25.88-25.17-38.57c-17-24.94-34.79-49.54-54.09-72.76c-9.29-11.18-19.16-21.92-30.15-31.45
			c-10.49-9.09-21.99-16.96-34.07-23.78c-24.06-13.57-50.15-23.02-76.23-31.84c-3.28-1.11-6.56-2.21-9.84-3.31
			c-1.2-0.4-2.01,1.48-0.87,2.06c20.11,10.17,37.77,24.44,53.4,40.58c15.93,16.46,29.83,34.75,42.94,53.5
			c14.77,21.12,28.84,42.75,42.52,64.59c14.1,22.52,27.7,45.35,40.77,68.48c12.04,21.32,23.77,43.49,28.15,67.84
			c0.55,3.08,0.97,6.18,1.27,9.29c0.14,1.43,2.39,1.44,2.25,0c-2.36-24.73-12.84-47.55-24.62-69.1
			c-12.79-23.4-26.48-46.35-40.51-69.03c-13.89-22.46-28.26-44.65-43.2-66.44c-13.07-19.05-26.78-37.76-42.41-54.81
			c-15.26-16.65-32.47-31.76-52.17-42.96c-2.39-1.36-4.81-2.65-7.26-3.89c-0.29,0.69-0.58,1.37-0.87,2.06
			c26.03,8.71,52.17,17.55,76.64,30.13c12.25,6.29,24.06,13.52,34.93,21.98c11.32,8.81,21.49,18.98,30.95,29.74
			c9.75,11.1,18.81,22.81,27.72,34.59c9.12,12.05,17.99,24.29,26.62,36.69c17.07,24.54,33.45,49.71,48.29,75.67
			c13.89,24.28,26.25,50.52,28.77,78.74c0.31,3.46,0.46,6.92,0.47,10.39C835.29,743.49,837.54,743.49,837.53,742.04L837.53,742.04z"
			/>
	</g>
</g>
<g>
	<path class="st13" d="M810.66,726.91c-90.72-12.36-182.03,36.82-228.38,104.04s-54.82,148.65-48.87,226.34
		c31.79-128.34,131.26-243.51,265.99-308"/>
	<g>
		<path class="st4" d="M811.06,725.47c-32.06-4.32-64.77-1.19-95.69,8.19c-30.27,9.18-58.75,24.11-83.74,43.48
			c-24.76,19.2-45.59,42.81-61.32,69.92c-17.17,29.59-28.18,62.39-34.12,96.01c-5.91,33.5-7,67.71-5.12,101.63
			c0.23,4.21,0.51,8.41,0.83,12.61c0.12,1.61,2.52,2.13,2.95,0.4c6.28-25.28,15.11-49.89,26.17-73.47
			c11.22-23.9,24.68-46.74,39.95-68.27c15.7-22.12,33.34-42.85,52.51-62.04c19.75-19.76,41.12-37.89,63.79-54.22
			c23.23-16.73,47.79-31.59,73.37-44.44c3.15-1.59,6.32-3.14,9.51-4.66c1.74-0.83,0.22-3.42-1.51-2.59
			c-26.13,12.52-51.27,27.08-75.08,43.59c-23.02,15.97-44.82,33.73-65.02,53.16c-19.8,19.04-38.05,39.69-54.41,61.76
			c-15.87,21.4-29.92,44.15-41.76,68.02c-11.63,23.46-21.13,48.01-28.05,73.27c-0.83,3.02-1.62,6.05-2.37,9.09
			c0.98,0.13,1.96,0.27,2.95,0.4c-2.56-33.58-2.49-67.52,2.2-100.92c4.67-33.27,13.97-66.01,29.33-95.97
			c14.34-27.96,33.7-52.76,57.57-73.21c23.63-20.25,51.04-36.24,80.34-46.75c30.07-10.79,62.26-15.78,94.17-13.34
			c3.93,0.3,7.85,0.71,11.75,1.24C812.15,728.61,812.96,725.72,811.06,725.47L811.06,725.47z"/>
	</g>
</g>
<g>
	<path class="st5" d="M823.16,736.33c-35.63,12.84-62.02,44.46-84.05,76.67c-57.85,84.57-97.86,182.65-116.31,285.12
		c-0.04-14.16,5.73-27.54,11.55-40.3c52.31-114.8,117.66-222.98,194.2-321.48"/>
	<g>
		<path class="st5" d="M823.06,735.97c-24.14,8.78-43.92,26.01-60.42,45.28c-17.71,20.68-32.68,43.84-46.66,67.14
			c-14.67,24.44-27.88,49.75-39.59,75.74c-11.69,25.95-21.9,52.58-30.54,79.69c-8.73,27.39-15.89,55.29-21.4,83.51
			c-0.7,3.56-1.36,7.12-2.01,10.69c0.25,0.03,0.49,0.07,0.74,0.1c0.05-14.2,5.71-27.41,11.5-40.11
			c5.65-12.42,11.47-24.76,17.44-37.03c11.86-24.4,24.34-48.5,37.4-72.28c13.04-23.72,26.66-47.12,40.87-70.16
			c14.23-23.08,29.04-45.79,44.41-68.12c15.27-22.18,31.11-43.98,47.49-65.35c2.17-2.83,4.34-5.65,6.53-8.46
			c0.29-0.38-0.23-0.91-0.53-0.53c-16.6,21.37-32.66,43.16-48.16,65.35c-15.64,22.4-30.71,45.2-45.19,68.37
			c-14.52,23.23-28.44,46.82-41.77,70.75c-13.3,23.89-26,48.12-38.08,72.65c-6.08,12.34-12,24.75-17.76,37.23
			c-5.65,12.24-11.86,24.67-14.09,38.09c-0.53,3.18-0.8,6.38-0.82,9.61c0,0.41,0.66,0.53,0.74,0.1
			c5.05-27.99,11.7-55.69,19.91-82.93c8.23-27.31,18.03-54.15,29.35-80.33c11.19-25.89,23.86-51.15,37.96-75.58
			c13.75-23.82,28.61-47.35,45.69-68.96c15.89-20.1,34.68-38.96,58.15-49.98c2.96-1.39,5.98-2.64,9.05-3.75
			C823.71,736.53,823.51,735.8,823.06,735.97L823.06,735.97z"/>
	</g>
</g>
<g>
	<g>
		<path class="st3" d="M757.64,1.99c10.62,58.14,20.47,116.42,29.54,174.82c9.09,58.52,17.41,117.16,24.94,175.9
			c7.59,59.28,14.4,118.66,20.43,178.11c6.01,59.29,11.25,118.66,15.7,178.09c4.47,59.53,8.15,119.11,11.06,178.73
			c0.36,7.46,0.71,14.92,1.06,22.38c0.44,9.61,15.44,9.67,15,0c-2.74-59.94-6.25-119.84-10.55-179.69
			c-4.29-59.75-9.37-119.45-15.24-179.07c-5.85-59.49-12.48-118.91-19.9-178.22c-7.41-59.23-15.58-118.37-24.54-177.39
			c-8.92-58.75-18.62-117.38-29.11-175.87c-1.3-7.26-2.62-14.52-3.94-21.77c-0.73-3.99-5.57-6.24-9.23-5.24
			C758.68-6.08,756.91-2,757.64,1.99L757.64,1.99z"/>
	</g>
</g>
<g>
	<g>
		<path class="st0" d="M1123.57,784.87c1.93,0,1.93-3,0-3C1121.64,781.87,1121.64,784.87,1123.57,784.87L1123.57,784.87z"/>
	</g>
</g>
<g>
	<g>
		<path class="st0" d="M1123.57,778.59c1.93,0,1.93-3,0-3C1121.64,775.59,1121.64,778.59,1123.57,778.59L1123.57,778.59z"/>
	</g>
</g>
</svg>
