<?xml version="1.0" encoding="utf-8"?>
<!-- Generator: Adobe Illustrator 23.1.1, SVG Export Plug-In . SVG Version: 6.00 Build 0)  -->
<svg version="1.1" id="Layer_1" xmlns="http://www.w3.org/2000/svg" xmlns:xlink="http://www.w3.org/1999/xlink" x="0px" y="0px"
	 viewBox="0 0 595.28 841.89" style="enable-background:new 0 0 595.28 841.89;" xml:space="preserve">
<style type="text/css">
	.st0{fill:#9CD4B1;}
	.st1{fill:#158946;}
	.st2{fill:#0C123C;}
	.st3{fill:#285EAC;}
	.st4{fill:#C49A6C;stroke:#C49A6C;stroke-miterlimit:10;}
	.st5{fill:#142E54;}
	.st6{fill:#3C2415;}
	.st7{fill:#16562B;}
	.st8{fill:#246B35;}
	.st9{fill:#133F1E;}
	.st10{fill:#C9DE7A;}
	.st11{fill:#B7D98A;}
	.st12{fill:#AD232D;}
	.st13{fill:#72151C;}
	.st14{fill:#9E5E69;}
	.st15{fill:#0D492A;}
	.st16{fill:#729B82;}
	.st17{fill:#67997C;}
	.st18{fill:#69AA84;}
	.st19{fill:#56896A;}
	.st20{fill:#58BC77;}
	.st21{fill:#0D8341;}
	.st22{fill:#3D6E51;}
	.st23{fill:#7AC298;}
	.st24{fill:#6DB189;}
	.st25{fill:#5F8C71;}
	.st26{fill:#7FB293;}
	.st27{fill:#90CEA6;}
	.st28{fill:#8DC9A6;}
	.st29{fill:#8EB39D;}
	.st30{fill:#77C697;}
	.st31{fill:#70C492;}
	.st32{fill:#0D351C;}
</style>
<g>
	<path class="st0" d="M319.71,393.89c0.03-4.34,0.74-8.67,2.1-12.67c0.48-1.42,1.06-2.84,1.99-3.87c1.18-1.31,2.78-1.84,4.34-2.14
		c2.24-0.43,4.58-0.45,6.74,0.4s4.14,2.65,5.14,5.18c-5.61,0.11-11.19,2.28-15.84,6.18c-1.31,1.09-2.62,2.46-2.99,4.36"/>
	<g>
		<path class="st1" d="M320.34,393.89c0.03-3.12,0.39-6.23,1.13-9.27c0.65-2.65,1.39-6.17,3.86-7.75c2.28-1.46,5.79-1.68,8.35-1
			c2.61,0.7,4.71,2.6,5.74,5.09c0.2-0.26,0.4-0.53,0.6-0.79c-4.04,0.11-7.98,1.2-11.53,3.12c-3.11,1.68-7.07,4.18-7.91,7.87
			c-0.18,0.78,1.03,1.12,1.21,0.33c0.39-1.72,1.51-2.97,2.83-4.08c1.47-1.24,3.1-2.31,4.8-3.21c3.28-1.72,6.9-2.68,10.6-2.78
			c0.36-0.01,0.76-0.4,0.6-0.79c-1.1-2.67-3.17-4.79-5.92-5.75c-2.84-0.99-6.45-0.77-9.19,0.48c-2.97,1.36-4.02,4.54-4.86,7.47
			c-1.02,3.59-1.52,7.32-1.56,11.05C319.08,394.69,320.33,394.69,320.34,393.89L320.34,393.89z"/>
	</g>
</g>
<g>
	<path class="st2" d="M173.61,717.44c3.56-0.29,6.61,3.4,6.54,7.03s-2.58,6.86-5.67,8.7c-3.09,1.84-6.69,2.52-10.22,3.08
		c-13.8,2.19-27.81,2.99-41.76,2.37c-8.82-0.39-17.81-1.4-25.8-5.21c-2.6-1.24-5.39-3.28-5.45-6.2c-0.09-4.15,4.97-6.06,9-6.76"/>
	<g>
		<path class="st3" d="M173.61,719.94c2.61-0.12,4.31,2.69,4.01,5.09c-0.38,3.04-2.93,5.31-5.53,6.59
			c-3.39,1.68-7.44,2.08-11.14,2.62c-4.2,0.61-8.42,1.07-12.65,1.41c-8.58,0.69-17.2,0.85-25.8,0.47
			c-7.81-0.35-15.8-1.16-23.08-4.21c-2.13-0.89-6.73-2.95-5.47-5.76c0.29-0.64,1.44-1.48,2.49-1.99c1.4-0.67,2.96-1.03,4.48-1.31
			c1.33-0.24,2.08-1.86,1.75-3.08c-0.38-1.4-1.74-1.99-3.08-1.75c-3.28,0.6-6.96,1.79-9.13,4.47c-2.68,3.31-1.91,7.81,1.19,10.57
			c3.25,2.9,7.83,4.4,11.96,5.52c4.55,1.23,9.27,1.86,13.96,2.23c9.89,0.78,19.89,0.66,29.77-0.09c5.08-0.38,10.15-0.96,15.19-1.7
			c4.51-0.66,9.24-1.31,13.22-3.7c3.93-2.35,7.27-6.77,6.88-11.56c-0.37-4.62-4.13-9.05-9.02-8.83
			C170.41,715.08,170.39,720.08,173.61,719.94L173.61,719.94z"/>
	</g>
</g>
<rect x="288.66" y="552.11" class="st4" width="5.95" height="150.7"/>
<rect x="255.5" y="574.61" class="st4" width="5.95" height="150.7"/>
<polygon class="st4" points="365.47,645.65 257.7,659.82 257.09,654.27 364.86,640.1 "/>
<polygon class="st4" points="330.57,665.91 294.84,639.05 297.98,634.01 333.72,660.87 "/>
<g>
	<path class="st5" d="M175.18,629.17c-20.03-2.12-40.15-3.23-60.29-3.35c-9.9-0.06-20.18,0.21-29.08,4.62
		c-3.87,1.91-7.46,4.67-9.61,8.46c-2.15,3.79-2.63,8.72-0.53,12.54c3.5,6.37,12,7.25,19.18,7.37c23.5,0.38,47.06,0.77,70.44-1.7
		c7.83-0.83,17.31-3.44,19.08-11.25c1.48-6.54-3.83-12.86-9.82-15.69"/>
	<g>
		<path class="st3" d="M175.18,626.67c-19.7-2.07-39.49-3.2-59.3-3.34c-8.73-0.06-17.74,0.01-26.11,2.8
			c-7.73,2.58-15.84,7.84-17.58,16.39c-0.81,3.99-0.25,8.26,2.23,11.57c2.18,2.93,5.34,4.75,8.8,5.78
			c3.42,1.02,7.06,1.31,10.61,1.41c4.78,0.13,9.56,0.16,14.33,0.22c9.86,0.12,19.73,0.14,29.59-0.14c9.55-0.27,19.17-0.7,28.65-1.89
			c6.63-0.83,14.1-2.66,18.26-8.34c4.81-6.56,1.8-15.04-3.94-19.89c-1.51-1.28-3.14-2.37-4.92-3.23c-1.22-0.59-2.7-0.33-3.42,0.9
			c-0.64,1.1-0.32,2.83,0.9,3.42c5.13,2.48,10.89,8.42,8.15,14.48c-2.3,5.09-9.07,6.75-14.23,7.55c-3.97,0.62-8.17,0.87-12.23,1.16
			c-4.5,0.33-9.02,0.56-13.53,0.73c-9.12,0.34-18.24,0.39-27.36,0.32c-4.6-0.03-9.21-0.1-13.81-0.17c-3.71-0.06-7.44,0-11.13-0.41
			c-5.68-0.63-12.2-3.14-12.32-9.83c-0.13-7.47,6.74-12.42,13.05-14.77c7.57-2.82,15.72-3.08,23.7-3.07
			c18.26,0.04,36.52,0.96,54.7,2.67c2.3,0.22,4.6,0.45,6.9,0.69c1.34,0.14,2.5-1.25,2.5-2.5
			C177.68,627.7,176.52,626.81,175.18,626.67L175.18,626.67z"/>
	</g>
</g>
<g>
	<path class="st2" d="M74.34,650.88c-0.62,18.71,6.11,37.12,16.25,52.74c4.68,7.2,10.24,14.04,17.54,18.43
		c14.06,8.44,31.66,6.35,47.82,3.99c4.53-0.66,9.28-1.41,12.93-4.21c4.03-3.09,6.05-8.14,7.64-13.01
		c6.47-19.69,9.12-40.67,7.75-61.39"/>
	<g>
		<path class="st3" d="M71.84,650.88c-0.46,15.17,3.72,30.12,10.57,43.57c3.33,6.54,7.26,12.84,11.9,18.53
			c4.51,5.54,10.02,10.38,16.59,13.32c13.42,6.01,28.47,4.57,42.63,2.59c6.86-0.96,14.38-1.76,19.25-7.29
			c4.84-5.5,6.74-13.35,8.61-20.25c4.21-15.53,6.14-31.72,5.69-47.8c-0.06-2.04-0.16-4.09-0.29-6.13c-0.09-1.35-1.09-2.5-2.5-2.5
			c-1.29,0-2.59,1.15-2.5,2.5c0.99,15.33-0.16,30.75-3.53,45.74c-0.86,3.83-1.86,7.63-3,11.39c-0.95,3.14-1.89,6.34-3.34,9.29
			c-1.31,2.67-3.03,5.16-5.62,6.73c-2.83,1.71-6.18,2.31-9.4,2.81c-12.87,2.01-26.8,3.99-39.51,0.06
			c-13.22-4.09-21.72-15.52-28.27-27.07c-7.84-13.83-12.76-29.48-12.28-45.49C76.94,647.66,71.94,647.67,71.84,650.88L71.84,650.88z
			"/>
	</g>
</g>
<g>
	<path class="st6" d="M178.73,643.39c-14.61,2.02-29.58,1.29-43.93-2.14c-6.79-1.62-13.53-3.86-20.5-3.89
		c-10.85-0.05-20.95,5.2-30.56,10.32c-1.48,0.79-3.16,1.9-3.18,3.6c-0.02,2.16,2.55,3.2,4.63,3.61c29.41,5.74,59.71,1.28,89.33-3.19
		c2.1-0.32,4.34-0.7,5.86-2.21c1.52-1.51,1.71-4.53-0.16-5.55"/>
	<g>
		<path class="st6" d="M178.07,640.98c-14.99,2.04-30.27,1.01-44.91-2.71c-7.33-1.86-14.75-3.99-22.4-3.24
			c-7.3,0.71-14.13,3.38-20.67,6.57c-1.62,0.79-3.23,1.62-4.83,2.46c-1.43,0.75-2.94,1.44-4.26,2.38c-2.77,1.98-4.11,5.69-1.48,8.42
			c2.23,2.32,5.81,2.64,8.8,3.13c3.86,0.64,7.74,1.13,11.64,1.47c15.39,1.36,30.89,0.43,46.22-1.33c8.74-1,17.44-2.28,26.14-3.58
			c3.52-0.53,7.78-0.74,10.21-3.73c2.22-2.73,2.1-7.07-1.05-9.03c-2.74-1.71-5.25,2.62-2.52,4.32c0.06,0.04,0.11,0.11,0.1,0.14
			c-0.04,0.51,0.06,0.59-0.16,1.09c-0.06,0.13-0.27,0.42-0.56,0.65c-0.44,0.35-0.98,0.55-1.51,0.71c-3.08,0.94-6.49,1.14-9.67,1.61
			c-6.98,1.04-13.97,2.02-20.98,2.83c-14.05,1.62-28.25,2.53-42.39,1.62c-3.45-0.22-6.9-0.54-10.33-1.01
			c-1.59-0.22-3.18-0.46-4.76-0.74c-1.52-0.26-3.25-0.41-4.68-1.04c-0.19-0.08-0.7-0.4-0.76-0.44c-0.27-0.19-0.22-0.28-0.15-0.05
			c-0.05-0.18-0.01-0.25-0.05-0.19c0.56-0.69,1.47-1.19,2.34-1.65c2.85-1.52,5.71-3.02,8.64-4.4c5.66-2.67,11.75-4.92,18.05-5.31
			c6.92-0.42,13.57,1.61,20.21,3.28c15.42,3.89,31.36,4.74,47.11,2.6c1.34-0.18,2.07-1.9,1.75-3.08
			C180.74,641.29,179.41,640.8,178.07,640.98L178.07,640.98z"/>
	</g>
</g>
<g>
	<path class="st7" d="M91.6,654.25c0.75-6.99,1.42-14.41-1.6-20.72c-2.89-6.03-8.99-10.72-9.41-17.41
		c-0.41-6.41,4.62-11.79,6.11-18.03c0.94-3.95,0.43-8.09-0.08-12.12c-1.5-11.74-3.01-23.48-4.51-35.22
		c5.19-0.36,8.35,5.86,8.86,11.13c0.5,5.27-0.01,11.19,3.37,15.22c1.62,1.93,3.96,3.15,5.48,5.15c1.93,2.54,2.27,5.94,2.39,9.15
		c0.22,6.09-0.12,12.2-1.02,18.22c-0.28,1.88-0.61,3.82-0.12,5.66c0.47,1.75,1.65,3.19,2.52,4.77c5.77,10.37-1.77,24.71,4.33,34.88"
		/>
	<g>
		<path class="st8" d="M94.1,654.25c0.75-7.1,1.33-14.49-1.59-21.21c-1.25-2.88-3.17-5.36-5.01-7.88c-1.62-2.22-3.34-4.55-4.08-7.24
			c-1.68-6.09,3.24-11.83,5.13-17.28c1.22-3.51,1.33-7.26,1-10.93c-0.37-4.03-0.98-8.05-1.5-12.06c-1.15-8.97-2.3-17.94-3.45-26.91
			c-0.83,0.83-1.67,1.67-2.5,2.5c1.15-0.05,2,0.21,2.88,0.96c1.06,0.91,1.82,2.16,2.37,3.43c1.33,3.12,1.23,6.44,1.47,9.76
			c0.26,3.71,0.82,7.59,3.11,10.65c2.21,2.96,6.01,4.47,7.1,8.21c1.13,3.88,0.82,8.35,0.67,12.34c-0.16,4.45-0.89,8.78-1.32,13.2
			c-0.22,2.28,0.16,4.42,1.22,6.45c0.81,1.55,1.91,2.93,2.55,4.56c1.22,3.13,1.34,6.53,1.24,9.85c-0.24,7.89-1.84,16.31,2.36,23.51
			c1.62,2.78,5.94,0.26,4.32-2.52c-3.55-6.1-1.95-13.75-1.7-20.43c0.14-3.58,0.02-7.29-1.05-10.74c-0.57-1.84-1.43-3.52-2.44-5.15
			c-1.12-1.8-1.7-3.18-1.52-5.33c0.19-2.24,0.63-4.46,0.86-6.7c0.25-2.39,0.42-4.79,0.49-7.2c0.14-4.24,0.33-8.87-0.81-13
			c-0.56-2.02-1.54-3.87-2.97-5.4c-1.31-1.41-2.96-2.44-4.3-3.81c-2.47-2.54-2.69-6.36-2.89-9.7c-0.24-4.19-0.5-8.23-2.53-12.01
			c-1.82-3.4-5.08-6.13-9.11-5.95c-1.22,0.05-2.68,1.11-2.5,2.5c1.02,7.99,2.05,15.98,3.07,23.97c0.52,4.06,1.05,8.12,1.56,12.18
			c0.45,3.59,0.89,7.36-0.04,10.91c-1.64,6.26-6.53,11.52-6.1,18.32c0.41,6.46,5.03,10.94,8.32,16.11c4.23,6.66,3.5,14.51,2.7,22.02
			c-0.14,1.34,1.25,2.5,2.5,2.5C93.07,656.75,93.96,655.6,94.1,654.25L94.1,654.25z"/>
	</g>
</g>
<g>
	<path class="st9" d="M99.61,652.13c-1.98-16.53-3.95-33.3-1.53-49.76c0.8-5.46,2.09-10.89,1.95-16.41
		c-0.21-8.3-3.62-16.14-5.4-24.24c-3.52-16-0.65-32.66,2.23-48.8c3.84,2.45,4.54,7.74,4.86,12.34c1.2,17.4,2.41,34.79,3.61,52.19
		c0.38,5.46,0.77,11.01,2.65,16.14c1.24,3.39,3.1,6.52,4.32,9.91c2.88,7.99,2.03,16.79,2.75,25.27c0.77,9.14,3.42,18.1,7.74,26.15"
		/>
	<g>
		<path class="st8" d="M102.11,652.13c-1.11-9.25-2.21-18.52-2.55-27.84c-0.17-4.64-0.15-9.28,0.17-13.91
			c0.31-4.58,1.05-9.08,1.78-13.6c0.75-4.57,1.32-9.17,0.81-13.8c-0.49-4.43-1.64-8.72-2.88-13c-1.24-4.26-2.46-8.51-3.15-12.91
			c-0.68-4.38-0.86-8.85-0.77-13.28c0.2-10.17,1.97-20.22,3.75-30.21c-1.22,0.5-2.45,1-3.67,1.49c2.68,1.8,3.22,5.65,3.5,8.61
			c0.46,4.9,0.7,9.83,1.04,14.74c0.72,10.35,1.43,20.71,2.15,31.06c0.34,4.93,0.55,9.88,1.14,14.79c0.58,4.89,1.74,9.41,3.81,13.89
			c0.98,2.12,2.06,4.21,2.82,6.42c0.74,2.17,1.24,4.44,1.54,6.71c0.61,4.65,0.53,9.37,0.75,14.05c0.5,10.8,3.21,21.27,8.3,30.84
			c1.51,2.84,5.83,0.32,4.32-2.52c-4.38-8.25-6.96-17.39-7.53-26.71c-0.3-4.87-0.2-9.77-0.72-14.63c-0.53-4.97-1.8-9.5-3.91-14.02
			c-0.96-2.05-1.98-4.08-2.7-6.23c-0.76-2.3-1.26-4.69-1.59-7.09c-0.66-4.88-0.83-9.83-1.17-14.74
			c-0.73-10.52-1.46-21.04-2.18-31.56c-0.37-5.4-0.53-10.86-1.19-16.23c-0.56-4.53-1.86-9.01-5.84-11.68
			c-1.26-0.84-3.4-0.05-3.67,1.49c-1.62,9.1-3.23,18.25-3.77,27.5c-0.53,9.08,0.19,18.1,2.6,26.89c1.18,4.3,2.59,8.55,3.48,12.93
			c0.89,4.38,0.94,8.75,0.35,13.17c-0.62,4.6-1.56,9.13-2.05,13.75c-0.49,4.69-0.65,9.42-0.59,14.13
			c0.14,10.55,1.39,21.04,2.64,31.51c0.16,1.34,1.03,2.5,2.5,2.5C100.84,654.63,102.27,653.48,102.11,652.13L102.11,652.13z"/>
	</g>
</g>
<g>
	<path class="st9" d="M139.11,656.14c0.7-4.6,1.4-9.31,0.47-13.87c-0.93-4.52-3.41-8.55-4.66-12.99
		c-2.89-10.24,1.01-21.03,4.42-31.11c3.41-10.07,6.32-21.49,1.7-31.06c4.59-0.43,7.13,5.35,7.52,10.02
		c0.61,7.42-0.56,15.08,1.48,22.23c0.9,3.15,2.41,6.1,3.17,9.29c1.69,7.06-0.41,14.39-1.97,21.48c-1.56,7.09-2.49,14.98,1.16,21.21"
		/>
	<g>
		<path class="st8" d="M141.52,656.8c0.99-6.47,1.65-12.75-0.67-19.03c-1.05-2.86-2.43-5.6-3.34-8.51
			c-0.88-2.85-1.19-5.78-1.09-8.76c0.43-12.24,7.03-23.24,8.9-35.22c1.04-6.63,0.77-13.27-2.13-19.42
			c-0.72,1.25-1.44,2.51-2.16,3.76c1.63-0.1,2.64,0.81,3.58,2.54c1,1.84,1.38,3.91,1.51,5.91c0.41,6.43-0.28,12.88,0.88,19.26
			c0.56,3.06,1.76,5.89,2.81,8.8c1.07,2.96,1.6,5.89,1.51,9.04c-0.19,6.26-2.29,12.25-3.28,18.39c-1.04,6.45-1.12,13.22,2.21,19.06
			c1.59,2.8,5.91,0.28,4.32-2.52c-2.83-4.98-2.49-10.99-1.49-16.44c1.18-6.45,3.27-12.8,3.26-19.42c0-3.32-0.64-6.53-1.77-9.64
			c-1.14-3.14-2.4-6.17-2.88-9.5c-0.91-6.26,0.08-12.63-0.72-18.9c-0.66-5.17-3.69-11.97-9.91-11.58c-1.99,0.13-2.99,2-2.16,3.76
			c4.84,10.28,0.36,22.23-3,32.22c-1.96,5.82-3.77,11.71-4.32,17.85c-0.27,3.02-0.15,6.05,0.38,9.04c0.52,2.9,1.62,5.6,2.76,8.3
			c1.26,2.99,2.53,6.05,2.76,9.32c0.25,3.47-0.24,6.93-0.76,10.36c-0.2,1.33,0.34,2.69,1.75,3.08
			C139.63,658.87,141.32,658.14,141.52,656.8L141.52,656.8z"/>
	</g>
</g>
<g>
	<path class="st9" d="M159.04,653.61c-3.58-7.92-5.12-16.78-4.43-25.47c0.5-6.34,2.17-12.62,1.72-18.96
		c-0.45-6.35-2.99-12.38-3.62-18.71c-0.7-7.07,1-14.15,1.23-21.25c0.77-23.7-14.75-47.01-8.66-69.9
		c11.34,20.27,16.41,44.11,14.32,67.33c-0.63,7.04-1.82,14.6,1.45,20.84c1.84,3.52,4.94,6.22,6.87,9.68c2.29,4.12,2.78,9,3,13.73
		c0.69,14.75-0.76,29.59-4.29,43.91"/>
	<g>
		<path class="st8" d="M161.2,652.34c-2.04-4.57-3.41-9.55-3.94-14.53c-0.56-5.18-0.19-10.28,0.55-15.41
			c0.81-5.56,1.49-10.99,0.63-16.59c-0.77-5.02-2.58-9.84-3.17-14.89c-0.64-5.46,0.24-10.95,0.79-16.38
			c0.52-5.06,0.52-10.08-0.13-15.13c-1.24-9.73-4.16-19.09-6.53-28.58c-2.52-10.07-4.38-20.61-1.71-30.85
			c-1.52,0.2-3.05,0.4-4.57,0.6c9.96,17.88,14.93,38.37,14.4,58.82c-0.13,5.08-0.85,10.11-1.1,15.18
			c-0.25,5.1,0.24,10.39,2.87,14.88c2.42,4.12,6.23,7.23,7.72,11.89c1.56,4.88,1.52,10.24,1.57,15.32
			c0.11,12.63-1.36,25.21-4.36,37.47c-0.76,3.12,4.06,4.46,4.82,1.33c2.74-11.2,4.27-22.7,4.51-34.23c0.12-5.52,0.1-11.14-0.7-16.62
			c-0.38-2.63-1.07-5.17-2.19-7.58c-1.08-2.33-2.71-4.32-4.31-6.31c-1.44-1.8-2.9-3.66-3.74-5.83c-0.85-2.21-1.17-4.55-1.24-6.91
			c-0.14-5.12,0.73-10.21,1.01-15.31c0.58-10.54-0.3-21.17-2.5-31.49c-2.46-11.59-6.68-22.8-12.45-33.15
			c-1.04-1.87-4.03-1.47-4.57,0.6c-5.1,19.58,4.29,38.66,7.58,57.68c0.82,4.73,1.2,9.54,0.92,14.34
			c-0.33,5.64-1.43,11.24-1.33,16.91c0.09,5.49,1.68,10.69,2.87,16c1.18,5.24,1.08,10.3,0.33,15.6c-0.86,6.08-1.66,12.04-1.05,18.19
			c0.61,6.09,2.18,11.92,4.67,17.5c0.55,1.23,2.35,1.53,3.42,0.9C161.57,655.02,161.75,653.58,161.2,652.34L161.2,652.34z"/>
	</g>
</g>
<g>
	<path class="st7" d="M118.59,659.09c-2.47-8.09,3.07-16.36,3.14-24.7c0.07-9.3-6.65-18.1-5.58-27.35
		c0.62-5.33,3.79-10.26,4.63-15.57c1-6.37-1.4-12.71-3.15-18.96c-4.19-14.96-4.72-30.64-1.55-45.77
		c-0.53,15.98,15.91,29.62,15.92,45.6c0,4-1.04,8.01-0.49,11.98c0.48,3.4,2.11,6.6,3.38,9.86c7.18,18.36,3.02,38.32-1.2,57.31"/>
	<g>
		<path class="st8" d="M121,658.42c-1.12-3.86-0.24-7.75,0.78-11.53c1.08-4.03,2.36-8.09,2.44-12.3c0.08-4.12-1.08-8.14-2.38-12.01
			c-1.26-3.75-2.83-7.58-3.21-11.55c-0.41-4.26,0.98-8.02,2.47-11.93c1.6-4.22,2.73-8.42,2.31-12.98
			c-0.44-4.75-1.94-9.26-3.24-13.82c-1.28-4.49-2.26-9.07-2.86-13.7c-1.34-10.38-0.94-20.96,1.18-31.2
			c-1.64-0.22-3.27-0.44-4.91-0.66c-0.39,15.2,12.07,26.29,15.32,40.46c0.93,4.06,0.39,8,0.06,12.1c-0.2,2.5-0.12,5,0.49,7.44
			c0.55,2.21,1.48,4.31,2.35,6.41c3.55,8.54,4.8,17.52,4.43,26.73c-0.42,10.47-2.67,20.75-4.94,30.94c-0.7,3.14,4.12,4.47,4.82,1.33
			c4.02-18.07,8.14-37.46,2.28-55.61c-1.38-4.27-3.97-8.42-4.46-12.94c-0.5-4.62,0.92-9.21,0.42-13.85
			c-0.81-7.54-4.43-14.28-8.01-20.84c-3.74-6.86-7.97-14.11-7.76-22.18c0.07-2.77-4.33-3.46-4.91-0.66
			c-1.94,9.38-2.6,19.01-1.78,28.55c0.41,4.77,1.14,9.52,2.22,14.18c1.07,4.65,2.7,9.15,3.72,13.81c0.49,2.23,0.77,4.48,0.66,6.77
			c-0.1,2.13-0.69,4.17-1.39,6.17c-1.46,4.18-3.34,8.2-3.55,12.7c-0.38,8.37,4.61,15.61,5.55,23.73c0.54,4.68-0.94,9.13-2.14,13.59
			c-1.25,4.64-2.15,9.47-0.78,14.19C117.07,662.84,121.89,661.52,121,658.42L121,658.42z"/>
	</g>
</g>
<g>
	<g>
		<path class="st3" d="M74.35,650.31c3.11,6.22,9.19,10.36,15.69,12.43c8.02,2.55,16.63,1.84,24.87,1.09
			c8.78-0.8,17.55-1.61,26.33-2.41c8.58-0.79,17.19-1.44,25.75-2.38c7.46-0.81,15.22-2.5,19.88-8.92c0.79-1.09,0.19-2.79-0.9-3.42
			c-1.26-0.74-2.62-0.2-3.42,0.9c-3.3,4.54-9.63,5.75-14.84,6.36c-7.89,0.93-15.84,1.48-23.75,2.21c-8.36,0.77-16.73,1.53-25.09,2.3
			c-7.87,0.72-16.06,1.89-23.9,0.37c-6.68-1.3-13.17-4.77-16.31-11.05C77.23,644.91,72.91,647.44,74.35,650.31L74.35,650.31z"/>
	</g>
</g>
<g>
	<g>
		<path class="st10" d="M87.18,569.8c0.89-0.19,1.78-0.38,2.66-0.56c0.3-0.06,0.6-0.32,0.75-0.57c0.16-0.27,0.22-0.66,0.13-0.96
			c-0.1-0.3-0.29-0.59-0.57-0.75c-0.31-0.16-0.62-0.2-0.96-0.13c-0.89,0.19-1.78,0.38-2.66,0.56c-0.3,0.06-0.6,0.32-0.75,0.57
			c-0.16,0.27-0.22,0.66-0.13,0.96c0.1,0.3,0.29,0.59,0.57,0.75C86.52,569.84,86.83,569.87,87.18,569.8L87.18,569.8z"/>
	</g>
</g>
<g>
	<g>
		<path class="st10" d="M88.43,583.34c2.49,0,4.98,0,7.47,0c0.65,0,1.28-0.57,1.25-1.25c-0.03-0.68-0.55-1.25-1.25-1.25
			c-2.49,0-4.98,0-7.47,0c-0.65,0-1.28,0.57-1.25,1.25C87.21,582.77,87.73,583.34,88.43,583.34L88.43,583.34z"/>
	</g>
</g>
<g>
	<g>
		<path class="st10" d="M87.55,602.54c1.36-0.12,2.72-0.23,4.07-0.35c0.64-0.06,1.29-0.13,1.94-0.16c0.27-0.01,0.55-0.01,0.82,0.01
			c0.16,0.01,0.18,0.02,0.07,0.01c0.04,0.01,0.09,0.02,0.13,0.03c0.09,0.02,0.17,0.04,0.26,0.07c0.14,0.05,0.17,0.06,0.08,0.03
			c0.59,0.28,1.38,0.19,1.71-0.45c0.29-0.55,0.18-1.42-0.45-1.71c-1.38-0.64-2.78-0.48-4.24-0.35c-1.46,0.13-2.92,0.25-4.39,0.38
			c-0.65,0.06-1.28,0.53-1.25,1.25C86.33,601.92,86.85,602.6,87.55,602.54L87.55,602.54z"/>
	</g>
</g>
<g>
	<g>
		<path class="st10" d="M83.98,618.52c-0.09,0.12-0.14,0.1,0.04,0.06c0.14-0.03,0.27-0.07,0.41-0.1c0.44-0.09,0.88-0.17,1.32-0.23
			c0.81-0.12,1.62-0.18,2.44-0.22c1.24-0.05,2.95-0.22,3.83,0.56c0.51,0.45,1.27,0.5,1.77,0c0.46-0.46,0.51-1.32,0-1.77
			c-1.59-1.41-3.78-1.38-5.79-1.28c-1.13,0.06-2.27,0.19-3.38,0.37c-1.11,0.19-2.07,0.4-2.79,1.34c-0.41,0.54-0.09,1.4,0.45,1.71
			C82.91,619.35,83.57,619.06,83.98,618.52L83.98,618.52z"/>
	</g>
</g>
<g>
	<g>
		<path class="st10" d="M89.85,631.82c1.42-0.08,2.84-0.16,4.26-0.23c0.65-0.04,1.28-0.55,1.25-1.25c-0.03-0.65-0.55-1.29-1.25-1.25
			c-1.42,0.08-2.84,0.16-4.26,0.23c-0.65,0.04-1.28,0.55-1.25,1.25C88.63,631.22,89.15,631.86,89.85,631.82L89.85,631.82z"/>
	</g>
</g>
<g>
	<g>
		<path class="st10" d="M93.23,648.28c0.85-0.08,1.71-0.06,2.56,0.05c-0.11-0.01-0.22-0.03-0.33-0.04c0.15,0.02,0.31,0.04,0.46,0.07
			c0.34,0.06,0.66,0.05,0.96-0.13c0.26-0.15,0.51-0.45,0.57-0.75c0.07-0.32,0.06-0.68-0.13-0.96c-0.17-0.26-0.43-0.52-0.75-0.57
			c-1.11-0.19-2.23-0.27-3.36-0.16c-0.34,0.03-0.64,0.12-0.88,0.37c-0.22,0.22-0.38,0.57-0.37,0.88c0.01,0.32,0.12,0.66,0.37,0.88
			C92.57,648.12,92.9,648.31,93.23,648.28L93.23,648.28z"/>
	</g>
</g>
<g>
	<g>
		<path class="st10" d="M99.97,612.98c3.51-0.28,7.34-0.63,10.66,0.83c0.62,0.27,1.34,0.18,1.71-0.45c0.31-0.53,0.17-1.44-0.45-1.71
			c-3.79-1.67-7.88-1.49-11.92-1.17c-0.67,0.05-1.25,0.54-1.25,1.25C98.72,612.36,99.3,613.03,99.97,612.98L99.97,612.98z"/>
	</g>
</g>
<g>
	<g>
		<path class="st10" d="M99.08,627c2.02-0.36,4.1-0.17,6.05,0.48c2.11,0.7,3.7,2.26,5.74,3.07c0.63,0.25,1.37-0.27,1.54-0.87
			c0.2-0.71-0.24-1.29-0.87-1.54c-1.04-0.41-1.91-1.2-2.87-1.77c-1.02-0.61-2.13-1.09-3.27-1.43c-2.27-0.68-4.65-0.77-6.98-0.35
			c-0.66,0.12-1.04,0.93-0.87,1.54C97.74,626.82,98.41,627.12,99.08,627L99.08,627z"/>
	</g>
</g>
<g>
	<g>
		<path class="st10" d="M100.35,643.48c2.33-0.22,4.75-0.46,6.92,0.61c2.27,1.13,4.43,2.52,6.59,3.84c1.38,0.84,2.63-1.32,1.26-2.16
			c-2.28-1.4-4.6-2.97-7.05-4.06c-2.47-1.1-5.08-0.99-7.72-0.73c-0.67,0.06-1.25,0.53-1.25,1.25
			C99.1,642.86,99.67,643.55,100.35,643.48L100.35,643.48z"/>
	</g>
</g>
<g>
	<g>
		<path class="st10" d="M101.75,598.24c1.07-0.14,2.14-0.13,3.21,0.01c-0.11-0.01-0.22-0.03-0.33-0.04
			c0.42,0.06,0.84,0.14,1.25,0.24c0.63,0.15,1.38-0.2,1.54-0.87c0.15-0.64-0.19-1.37-0.87-1.54c-1.56-0.38-3.19-0.49-4.79-0.29
			c-0.34,0.04-0.63,0.11-0.88,0.37c-0.22,0.22-0.38,0.57-0.37,0.88c0.01,0.32,0.12,0.66,0.37,0.88
			C101.1,598.08,101.44,598.28,101.75,598.24L101.75,598.24z"/>
	</g>
</g>
<g>
	<g>
		<path class="st10" d="M100.33,573.8c0.27-0.02,0.54-0.01,0.81,0.02c-0.11-0.01-0.22-0.03-0.33-0.04c0.34,0.05,0.67,0.14,0.98,0.27
			c-0.1-0.04-0.2-0.08-0.3-0.13c0.05,0.02,0.11,0.05,0.16,0.07c0.14,0.09,0.3,0.14,0.46,0.15c0.17,0.04,0.33,0.03,0.5-0.02
			c0.29-0.08,0.6-0.3,0.75-0.57c0.15-0.29,0.23-0.64,0.13-0.96c-0.1-0.29-0.28-0.61-0.57-0.75c-0.4-0.19-0.81-0.36-1.25-0.44
			c-0.44-0.08-0.89-0.13-1.33-0.1c-0.33,0.02-0.64,0.12-0.88,0.37c-0.22,0.22-0.38,0.57-0.37,0.88c0.01,0.32,0.12,0.66,0.37,0.88
			C99.68,573.65,100,573.82,100.33,573.8L100.33,573.8z"/>
	</g>
</g>
<g>
	<g>
		<path class="st10" d="M95.87,549.69c0.2-0.04,0.41-0.08,0.62-0.11c0.05-0.01,0.1-0.01,0.14-0.02c-0.17,0.02-0.19,0.02-0.05,0.01
			c0.1-0.01,0.19-0.02,0.29-0.03c0.4-0.04,0.8-0.06,1.2-0.06c0.4,0,0.8,0.02,1.2,0.06c0.1,0.01,0.19,0.02,0.29,0.03
			c0.29,0.03-0.22-0.04,0.05,0.01c0.22,0.04,0.44,0.08,0.66,0.12c0.64,0.13,1.38-0.19,1.54-0.87c0.14-0.62-0.19-1.4-0.87-1.54
			c-1.91-0.39-3.84-0.4-5.74,0c-0.64,0.13-1.07,0.92-0.87,1.54C94.56,549.5,95.19,549.83,95.87,549.69L95.87,549.69z"/>
	</g>
</g>
<g>
	<g>
		<path class="st11" d="M116.61,567.13c3.63-1.04,7.45-1.17,11.13-0.33c1.57,0.36,2.23-2.05,0.66-2.41
			c-4.11-0.94-8.41-0.84-12.46,0.33C114.4,565.16,115.06,567.58,116.61,567.13L116.61,567.13z"/>
	</g>
</g>
<g>
	<g>
		<path class="st11" d="M122.55,598.4c3.63-0.96,7.82,0.47,10.06,3.53c0.4,0.54,1.08,0.81,1.71,0.45c0.54-0.31,0.85-1.16,0.45-1.71
			c-2.92-3.98-8.08-5.95-12.89-4.68C120.33,596.4,120.99,598.81,122.55,598.4L122.55,598.4z"/>
	</g>
</g>
<g>
	<g>
		<path class="st11" d="M121.7,623.21c5.13-1.03,10.61,0.55,14.45,4.08c1.18,1.09,2.95-0.68,1.77-1.77
			c-4.53-4.17-10.85-5.94-16.88-4.73C119.46,621.11,120.12,623.52,121.7,623.21L121.7,623.21z"/>
	</g>
</g>
<g>
	<g>
		<path class="st11" d="M140.39,615.72c2.84-0.33,5.71,0.04,8.34,1.21c0.62,0.27,1.34,0.18,1.71-0.45c0.31-0.53,0.17-1.43-0.45-1.71
			c-3.01-1.34-6.31-1.93-9.6-1.55c-0.67,0.08-1.25,0.52-1.25,1.25C139.14,615.09,139.71,615.8,140.39,615.72L140.39,615.72z"/>
	</g>
</g>
<g>
	<g>
		<path class="st11" d="M142.07,644.78c0.6-0.06,1.21-0.08,1.81-0.05c0.3,0.01,0.6,0.04,0.9,0.07c0.15,0.02,0.17,0.02,0.05,0
			c0.06,0.01,0.13,0.02,0.19,0.03c0.15,0.02,0.3,0.05,0.45,0.08c0.6,0.11,1.18,0.27,1.76,0.46c0.64,0.22,0.92,0.34,1.5,0.63
			c0.58,0.3,1.38,0.17,1.71-0.45c0.3-0.57,0.17-1.39-0.45-1.71c-2.44-1.24-5.2-1.82-7.93-1.56c-0.65,0.06-1.28,0.53-1.25,1.25
			C140.85,644.16,141.37,644.85,142.07,644.78L142.07,644.78z"/>
	</g>
</g>
<g>
	<g>
		<path class="st11" d="M158.61,602.65c3-0.4,6.02-0.21,8.94,0.61c0.65,0.18,1.36-0.23,1.54-0.87c0.18-0.66-0.22-1.35-0.87-1.54
			c-3.11-0.88-6.4-1.13-9.6-0.7c-0.67,0.09-1.25,0.51-1.25,1.25C157.36,602,157.93,602.74,158.61,602.65L158.61,602.65z"/>
	</g>
</g>
<g>
	<g>
		<path class="st11" d="M155.02,588.33c0.1-0.02,0.21-0.04,0.31-0.06c0.05-0.01,0.1-0.02,0.16-0.03c-0.2,0.03-0.23,0.03-0.1,0.01
			c0.18-0.02,0.37-0.03,0.56-0.04c0.19,0,0.37,0,0.56,0.01c0.08,0.01,0.24,0.05,0.32,0.03c-0.2-0.03-0.23-0.03-0.1-0.01
			c0.04,0.01,0.08,0.01,0.12,0.02c0.38,0.07,0.75,0.17,1.11,0.3c0.05,0.02,0.1,0.04,0.15,0.06c0.12,0.05,0.1,0.04-0.08-0.03
			c0.01,0.03,0.2,0.09,0.22,0.1c0.19,0.09,0.38,0.2,0.56,0.31c0.56,0.34,1.4,0.14,1.71-0.45c0.32-0.61,0.15-1.35-0.45-1.71
			c-1.7-1.04-3.77-1.36-5.71-0.92c-0.64,0.14-1.07,0.92-0.87,1.54C153.7,588.13,154.34,588.48,155.02,588.33L155.02,588.33z"/>
	</g>
</g>
<g>
	<g>
		<path class="st11" d="M154.11,578.91c1.12,0,2.24,0,3.36,0c0.65,0,1.28-0.57,1.25-1.25c-0.03-0.68-0.55-1.25-1.25-1.25
			c-1.12,0-2.24,0-3.36,0c-0.65,0-1.28,0.57-1.25,1.25C152.89,578.34,153.41,578.91,154.11,578.91L154.11,578.91z"/>
	</g>
</g>
<g>
	<g>
		<path class="st11" d="M154.58,552.31c0.05-0.08,0.11-0.16,0.17-0.24c0.05-0.07,0.18-0.2-0.06,0.07c0.03-0.03,0.05-0.07,0.08-0.1
			c0.13-0.15,0.26-0.29,0.4-0.43c0.13-0.13,0.28-0.29,0.44-0.39c-0.03,0.02-0.23,0.17-0.1,0.08c0.04-0.03,0.09-0.06,0.13-0.1
			c0.08-0.06,0.16-0.11,0.24-0.16c0.16-0.1,0.32-0.19,0.48-0.27c0.09-0.04,0.18-0.08,0.26-0.12c-0.36,0.18-0.07,0.03,0.03-0.01
			c0.38-0.14,0.76-0.23,1.16-0.29c-0.11,0.01-0.22,0.03-0.33,0.04c0.09-0.01,0.17-0.02,0.26-0.03c0.34-0.03,0.64-0.12,0.88-0.37
			c0.22-0.22,0.38-0.57,0.37-0.88c-0.03-0.63-0.55-1.31-1.25-1.25c-1.08,0.1-2.11,0.4-3.04,0.97c-0.93,0.56-1.7,1.32-2.29,2.22
			c-0.36,0.55-0.13,1.41,0.45,1.71C153.49,553.08,154.19,552.89,154.58,552.31L154.58,552.31z"/>
	</g>
</g>
<g>
	<g>
		<path class="st11" d="M150.14,542.62c0.07-0.42,0.16-0.82,0.3-1.22c0.03-0.09,0.07-0.19,0.1-0.28c0.03-0.08,0.02-0.06-0.03,0.07
			c0.02-0.05,0.04-0.09,0.06-0.14c0.08-0.18,0.18-0.36,0.27-0.54c0.11-0.19,0.22-0.37,0.34-0.55c0.06-0.08,0.12-0.16,0.17-0.25
			c-0.13,0.17-0.02,0.02,0.05-0.06c0.26-0.31,0.54-0.6,0.84-0.87c0.08-0.07,0.15-0.13,0.23-0.2c0.25-0.22-0.21,0.14,0.06-0.05
			c0.16-0.12,0.33-0.23,0.5-0.34c0.17-0.11,0.34-0.21,0.52-0.3c0.09-0.05,0.18-0.09,0.27-0.13c0.1-0.05,0.27-0.11,0.07-0.03
			c0.37-0.15,0.75-0.27,1.13-0.36c0.11-0.02,0.23-0.05,0.34-0.07c0.05-0.01,0.1-0.02,0.15-0.02c-0.15,0.02-0.18,0.02-0.09,0.01
			c0.22-0.01,0.43-0.03,0.65-0.04c0.65-0.01,1.28-0.57,1.25-1.25c-0.03-0.67-0.55-1.26-1.25-1.25c-4,0.05-7.73,3.22-8.35,7.19
			c-0.1,0.64,0.16,1.38,0.87,1.54C149.2,543.63,150.03,543.31,150.14,542.62L150.14,542.62z"/>
	</g>
</g>
<g>
	<g>
		<path class="st11" d="M146.89,525.13c0.44-0.33,0.9-0.64,1.39-0.9c0.26-0.14,0.52-0.27,0.79-0.39c0.13-0.06,0.13-0.06,0.01,0
			c0.07-0.03,0.14-0.06,0.2-0.08c0.12-0.05,0.24-0.09,0.36-0.13c0.52-0.18,1.05-0.32,1.6-0.43c0.13-0.02,0.25-0.04,0.38-0.06
			c0.15-0.02,0.15-0.02-0.01,0c0.07-0.01,0.15-0.02,0.22-0.02c0.29-0.03,0.59-0.04,0.88-0.05c0.65-0.01,1.28-0.57,1.25-1.25
			c-0.03-0.67-0.55-1.26-1.25-1.25c-2.54,0.05-5.06,0.89-7.08,2.42c-0.52,0.39-0.84,1.1-0.45,1.71
			C145.51,525.19,146.33,525.55,146.89,525.13L146.89,525.13z"/>
	</g>
</g>
<g>
	<g>
		<path class="st11" d="M159.48,624.87c2.66-1.22,5.88-0.84,8.33,0.84c0.56,0.38,1.39,0.1,1.71-0.45c0.36-0.62,0.11-1.33-0.45-1.71
			c-3.19-2.19-7.37-2.44-10.85-0.84c-0.61,0.28-0.76,1.17-0.45,1.71C158.14,625.06,158.87,625.15,159.48,624.87L159.48,624.87z"/>
	</g>
</g>
<g>
	<g>
		<path class="st11" d="M158.1,642.78c0.1-0.02,0.21-0.05,0.31-0.06c0.07-0.01,0.28-0.05,0.11-0.02c0.21-0.03,0.42-0.04,0.63-0.05
			c0.4-0.02,0.8,0,1.2,0.04c0.23,0.02-0.29-0.06,0.11,0.02c0.08,0.02,0.17,0.03,0.25,0.05c0.21,0.04,0.41,0.09,0.62,0.15
			c0.2,0.06,0.41,0.12,0.61,0.19c0.1,0.04,0.2,0.07,0.3,0.11c0.21,0.09-0.25-0.12,0.11,0.05c0.37,0.18,0.72,0.36,1.06,0.58
			c0.14,0.09,0.4,0.27,0.45,0.31c-0.07-0.06,0.18,0.14,0.17,0.14c0.07,0.05,0.13,0.11,0.19,0.17c0.32,0.28,0.61,0.59,0.88,0.92
			c0.03,0.04,0.12,0.15,0.04,0.05c0.06,0.09,0.13,0.17,0.19,0.26c0.13,0.2,0.25,0.4,0.37,0.6c0.33,0.59,1.13,0.79,1.71,0.45
			c0.59-0.35,0.78-1.12,0.45-1.71c-2.03-3.61-6.39-5.54-10.42-4.64c-0.66,0.15-1.05,0.91-0.87,1.54
			C156.75,642.58,157.44,642.92,158.1,642.78L158.1,642.78z"/>
	</g>
</g>
<g>
	<path class="st12" d="M368.24,542.16c-4.04,21.97-5.98,44.4-5.78,66.82c0.06,7.27,0.27,14.93-2.88,21.33
		c-3.34,6.78-9.92,10.91-16.58,13.36c-19.6,7.22-41.02,2.68-61.18-2.34c-5.34-1.33-11.12-2.99-14.45-7.77
		c-2.61-3.74-3.19-8.67-3.58-13.36c-2.02-24.29-1.45-49.49-10-72.01"/>
	<g>
		<path class="st13" d="M365.83,541.49c-3.51,19.19-5.49,38.65-5.83,58.16c-0.08,4.72,0.01,9.44-0.01,14.16
			c-0.02,4.2-0.23,8.43-1.48,12.46c-2.23,7.16-8.38,11.91-15.13,14.58c-16.93,6.7-35.59,3.96-52.82,0
			c-4.13-0.95-8.33-1.85-12.38-3.13c-3.2-1.02-6.46-2.52-8.53-5.27c-2.38-3.16-2.91-7.39-3.26-11.21
			c-0.41-4.46-0.68-8.93-0.95-13.39c-1.09-18.06-1.79-36.47-7.06-53.91c-0.65-2.16-1.38-4.29-2.17-6.4
			c-0.48-1.26-1.69-2.13-3.08-1.75c-1.21,0.33-2.22,1.81-1.75,3.08c6.6,17.52,7.71,36.34,8.8,54.85c0.28,4.74,0.56,9.48,0.92,14.21
			c0.33,4.31,0.56,8.83,2.1,12.92c1.51,3.99,4.16,7.18,7.89,9.29c3.52,1.99,7.5,2.97,11.4,3.94c18.12,4.48,37.46,8.51,55.94,3.66
			c7.88-2.07,15.8-5.73,20.88-12.32c5.64-7.32,5.74-16.71,5.65-25.55c-0.19-20.01,1.23-40.03,4.43-59.79
			c0.39-2.42,0.81-4.83,1.25-7.23c0.24-1.33-0.36-2.7-1.75-3.08C367.69,539.41,366.07,540.16,365.83,541.49L365.83,541.49z"/>
	</g>
</g>
<g>
	<path class="st14" d="M362.01,539.66c-29.66-8.07-62.68-8.99-93.06-2.6c-6.05,1.27-12.88,3.51-14.33,8.1
		c-1.02,3.22,1.17,6.65,4.48,8.83c3.32,2.18,7.59,3.34,11.83,4.28c19.57,4.32,40.26,4.83,60.66,4.51c6.61-0.11,13.32-0.31,19.6-1.85
		c6.28-1.55,12.18-4.62,14.96-9.12c2.79-4.5,1.72-10.48-3.49-13.53"/>
	<g>
		<path class="st13" d="M362.68,537.25c-17.37-4.7-35.43-6.95-53.42-6.89c-9.1,0.03-18.18,0.69-27.19,1.91
			c-4.39,0.6-8.77,1.34-13.11,2.24c-3.7,0.76-7.43,1.73-10.78,3.52c-2.91,1.56-5.65,4.07-6.18,7.47c-0.65,4.18,1.96,7.81,5.18,10.18
			c3.47,2.56,7.85,3.79,12,4.75c4.53,1.05,9.11,1.86,13.72,2.51c9.26,1.31,18.59,1.99,27.94,2.25c9.34,0.27,18.76,0.34,28.09-0.15
			c8.35-0.44,17.45-1.69,24.37-6.78c2.9-2.13,5.46-4.92,6.42-8.47c0.91-3.34,0.32-7.05-1.67-9.9c-1.1-1.56-2.5-2.81-4.13-3.8
			c-2.76-1.68-5.27,2.65-2.52,4.32c2.29,1.39,3.76,3.67,3.75,6.23c-0.01,2.68-1.67,5-3.73,6.78c-5.58,4.81-13.77,6.04-20.84,6.52
			c-8.59,0.59-17.28,0.49-25.88,0.33c-8.66-0.15-17.32-0.6-25.93-1.59c-4.2-0.48-8.37-1.11-12.52-1.89
			c-4.01-0.76-8.1-1.55-11.93-2.99c-2.8-1.05-6.34-2.88-7.27-5.98c-0.75-2.49,1.29-4.17,3.36-5.33c2.77-1.55,5.95-2.34,9.04-3
			c4.02-0.86,8.07-1.57,12.14-2.16c8.16-1.18,16.42-1.81,24.67-1.96c16.52-0.3,33.08,1.36,49.17,5.17c1.98,0.47,3.96,0.97,5.93,1.51
			C364.46,542.91,365.79,538.09,362.68,537.25L362.68,537.25z"/>
	</g>
</g>
<rect x="330.74" y="600.52" class="st4" width="5.95" height="150.7"/>
<rect x="362.49" y="579.45" class="st4" width="5.95" height="150.7"/>
<g>
	<path class="st6" d="M258.18,551.89c0.18,2.09,3.52,3.92,7.55,4.96c4.03,1.04,8.71,1.42,13.29,1.76c9.03,0.67,18.09,1.24,27.18,1.7
		c12.31,0.63,24.86,1.06,37.03,0.01c8.94-0.77,18.48-2.76,21.54-6.62c0.51-0.65,0.76-1.44-0.22-1.96c-0.87-0.46-2.38-0.53-3.72-0.56
		c-20.47-0.5-40.99-0.55-61.47-0.14c-6.53,0.13-13.18,0.3-19.49-0.45c-2.51-0.3-4.94-0.74-7.49-0.97
		c-5.35-0.47-11.11,0.09-15.56,1.51"/>
	<g>
		<path class="st6" d="M255.77,552.55c0.43,3.07,3.89,4.79,6.44,5.79c3.46,1.36,7.22,1.86,10.89,2.25
			c8.02,0.87,16.13,1.25,24.18,1.72c15.83,0.93,31.87,1.97,47.68,0.34c6.25-0.65,13.42-1.49,18.86-4.92
			c2.3-1.45,5.51-4.57,3.01-7.33c-1.2-1.33-3.09-1.57-4.78-1.68c-2.05-0.14-4.13-0.12-6.18-0.16c-16.19-0.34-32.39-0.39-48.59-0.16
			c-8.81,0.13-17.72,0.71-26.5-0.21c-4.17-0.44-8.27-1.26-12.48-1.23c-4.09,0.02-8.25,0.54-12.16,1.76
			c-3.06,0.95-1.76,5.78,1.33,4.82c6.17-1.92,12.58-1.83,18.92-0.92c7.01,1,13.98,1.1,21.05,0.96c14.44-0.28,28.88-0.39,43.32-0.24
			c4.05,0.04,8.1,0.1,12.14,0.17c1.98,0.04,3.96,0.08,5.95,0.12c0.93,0.02,1.87,0.03,2.8,0.07c0.31,0.01,0.63,0.02,0.94,0.06
			c1.18,0.16,0.33,0.37,0.23-0.43c0-0.44,0-0.89,0-1.33c-0.08,0.55-0.06,0.17,0.04,0.11c-0.18,0.12-0.36,0.39-0.52,0.54
			c-0.39,0.36-0.48,0.43-1.02,0.77c-1.02,0.64-2.12,1.14-3.26,1.55c-3.04,1.09-6.23,1.74-9.42,2.22c-7.22,1.1-14.62,1.27-21.91,1.26
			c-15.58-0.02-31.19-1.13-46.72-2.27c-4.13-0.3-8.29-0.55-12.34-1.44c-1.69-0.37-3.41-0.82-4.96-1.61
			c-0.6-0.31-1.23-0.66-1.69-1.09c0,0-0.52-0.66-0.3-0.32c-0.14-0.27-0.16-0.29-0.05-0.05c-0.04-0.15-0.07-0.29-0.09-0.44
			c-0.19-1.34-1.89-2.07-3.08-1.75C256.08,549.87,255.58,551.21,255.77,552.55L255.77,552.55z"/>
	</g>
</g>
<g>
	<g>
		<path class="st15" d="M331.22,555.34c-1.61-15.75-2.85-31.55-3.69-47.36c-0.83-15.52-1.55-31.14-1.31-46.69
			c0.12-7.61,0.82-15.46,4.26-22.37c1.43-2.87-2.88-5.41-4.32-2.52c-3.25,6.53-4.46,13.72-4.82,20.95
			c-0.38,7.63-0.08,15.31,0.11,22.94c0.39,16,1.18,31.99,2.37,47.94c0.67,9.05,1.47,18.09,2.4,27.11c0.14,1.34,1.05,2.5,2.5,2.5
			C329.96,557.84,331.36,556.69,331.22,555.34L331.22,555.34z"/>
	</g>
</g>
<g>
	<g>
		<path class="st15" d="M279.62,442.17c10.62,11.12,19.1,24.26,25.03,38.43c5.99,14.31,9.51,29.69,10.21,45.2
			c0.4,8.73-0.06,17.51-1.48,26.13c-0.22,1.33,0.35,2.69,1.75,3.08c1.2,0.33,2.85-0.41,3.08-1.75c2.65-16.09,2.28-32.53-0.94-48.52
			c-3.17-15.73-9.13-30.98-17.55-44.64c-4.75-7.7-10.31-14.92-16.56-21.47C280.93,436.3,277.4,439.84,279.62,442.17L279.62,442.17z"
			/>
	</g>
</g>
<g>
	<g>
		<path class="st15" d="M299.67,559.37c0.44-18.84,0.87-37.77-1.62-56.5c-2.17-16.32-6.57-32.45-14.67-46.87
			c-4.37-7.78-9.83-14.99-16.34-21.11c-2.35-2.2-5.89,1.33-3.54,3.54c11.2,10.51,18.87,24.17,23.69,38.66
			c5.46,16.41,7.28,33.7,7.7,50.92c0.26,10.45,0.02,20.91-0.23,31.36C294.59,562.59,299.59,562.59,299.67,559.37L299.67,559.37z"/>
	</g>
</g>
<g>
	<g>
		<path class="st15" d="M297.78,558.13c-2.13-17.59-2.6-35.36-1.41-53.04c1.18-17.6,4.03-35.07,8.48-52.14
			c2.52-9.67,5.57-19.21,9.1-28.56c0.48-1.26-0.53-2.74-1.75-3.08c-1.4-0.39-2.6,0.48-3.08,1.75
			c-6.31,16.69-11.03,33.98-14.09,51.56c-3.06,17.59-4.52,35.47-4.28,53.32c0.13,10.09,0.82,20.16,2.03,30.18
			c0.16,1.34,1.03,2.5,2.5,2.5C296.5,560.63,297.94,559.48,297.78,558.13L297.78,558.13z"/>
	</g>
</g>
<g>
	<g>
		<path class="st15" d="M304.79,554.06c3.3-16.09,9.4-31.42,16.89-45.99c3.77-7.33,7.87-14.49,12.15-21.53
			c3.81-6.27,7.72-12.54,12.4-18.21c5.12-6.22,11.1-11.68,18.44-15.15c1.22-0.58,1.54-2.33,0.9-3.42c-0.73-1.25-2.2-1.48-3.42-0.9
			c-13.76,6.52-22.93,19.47-30.72,32.06c-8.83,14.26-16.97,29.01-23.19,44.61c-3.52,8.82-6.35,17.9-8.26,27.2
			c-0.27,1.32,0.38,2.7,1.75,3.08C302.95,556.15,304.52,555.39,304.79,554.06L304.79,554.06z"/>
	</g>
</g>
<g>
	<g>
		<path class="st15" d="M290.74,557.46c0.78-14.55,0.73-29.34-2.46-43.63c-1.57-7.04-3.97-13.93-7.37-20.3
			c-3.5-6.55-8.15-12.41-13.37-17.66c-5.89-5.92-12.46-11.11-19.02-16.26c-1.06-0.83-2.5-1.03-3.54,0c-0.87,0.87-1.07,2.7,0,3.54
			c11.22,8.82,22.81,17.93,30.19,30.39c7.09,11.96,9.89,25.9,10.7,39.64c0.48,8.09,0.3,16.2-0.13,24.28
			C285.57,560.68,290.57,560.67,290.74,557.46L290.74,557.46z"/>
	</g>
</g>
<g>
	<g>
		<path class="st15" d="M318.64,545.22c1.84-21.66,1.1-43.46-2-64.97c-3.07-21.32-8.55-42.3-16.33-62.39
			c-4.41-11.39-9.54-22.51-15.39-33.24c-1.54-2.83-5.86-0.31-4.32,2.52c10.19,18.72,18.17,38.58,23.83,59.13
			c5.66,20.5,9.01,41.62,9.94,62.87c0.53,12.03,0.28,24.09-0.74,36.09c-0.11,1.35,1.23,2.5,2.5,2.5
			C317.59,547.72,318.53,546.57,318.64,545.22L318.64,545.22z"/>
	</g>
</g>
<g>
	<g>
		<path class="st15" d="M320.58,555.63c1.31-19.7,12.04-38.63,28.01-50.17c4.5-3.25,9.4-5.97,14.6-7.93
			c1.26-0.48,2.13-1.69,1.75-3.08c-0.33-1.21-1.81-2.22-3.08-1.75c-20.2,7.61-35.92,24.75-42.78,45.11
			c-1.94,5.75-3.09,11.75-3.49,17.81c-0.09,1.35,1.21,2.5,2.5,2.5C319.51,558.13,320.49,556.99,320.58,555.63L320.58,555.63z"/>
	</g>
</g>
<g>
	<path class="st16" d="M281.31,390.36c2.36-15.29,3.33-31.25-0.17-46.36c-3.5-15.12-12.02-29.36-24.38-35.72
		c-5.53-2.84-11.59-4.02-17.6-4.21c-1.7-0.05-3.47-0.01-4.99,0.86c-3.06,1.74-4.11,6.11-4.83,9.99c-1.02,5.42-2.03,10.83-3.05,16.25
		c-0.89-7.5-3.86-14.7-8.36-20.26c2.93-3.66,7.04-6.01,11.36-6.5"/>
	<g>
		<path class="st15" d="M283.72,391.02c3.12-20.29,3.92-41.84-4.67-60.97c-3.55-7.91-8.73-15.21-15.65-20.5
			c-3.66-2.8-7.82-4.88-12.24-6.17c-2.49-0.73-5.04-1.19-7.61-1.49c-2.5-0.29-5.13-0.54-7.63-0.15c-5.46,0.85-7.65,6.08-8.69,10.91
			c-1.27,5.92-2.25,11.91-3.37,17.85c1.64,0.22,3.27,0.44,4.91,0.66c-1.01-8.09-3.99-15.64-9.09-22.02c0,1.18,0,2.36,0,3.54
			c2.41-2.94,5.73-5.28,9.59-5.77c1.34-0.17,2.5-1.03,2.5-2.5c0-1.22-1.15-2.67-2.5-2.5c-5.18,0.66-9.8,3.17-13.12,7.23
			c-0.93,1.14-0.92,2.39,0,3.54c4.19,5.24,6.8,11.85,7.63,18.49c0.15,1.23,0.83,2.3,2.17,2.46c1.14,0.14,2.51-0.55,2.74-1.79
			c0.96-5.1,1.91-10.19,2.87-15.29c0.55-2.93,0.96-7.61,3.73-9.37c1.71-1.09,4.39-0.62,6.29-0.47c2.21,0.17,4.39,0.51,6.54,1.04
			c4.19,1.03,8.09,2.78,11.61,5.28c6.25,4.44,10.87,10.96,14.18,17.79c3.86,7.94,5.88,16.71,6.64,25.48
			c0.96,11.15,0.05,22.38-1.65,33.41c-0.2,1.33,0.34,2.69,1.75,3.08C281.83,393.1,283.52,392.37,283.72,391.02L283.72,391.02z"/>
	</g>
</g>
<g>
	<path class="st17" d="M231.73,311.14c-4.96,25.68,7.22,54.66,27.23,64.74c8.53,4.3,18.93,6.19,23.97,15.62"/>
	<g>
		<path class="st15" d="M229.32,310.48c-2.74,14.41-0.59,29.52,5.67,42.76c2.91,6.15,6.81,11.92,11.66,16.72
			c2.35,2.32,4.94,4.42,7.73,6.19c2.8,1.78,5.83,3.11,8.89,4.38c6.71,2.8,13.83,5.5,17.51,12.23c1.54,2.82,5.86,0.3,4.32-2.52
			c-3.39-6.21-9.29-9.79-15.61-12.49c-5.74-2.45-11.51-4.63-16.37-8.67c-10.23-8.52-16.4-21.23-18.86-34.15
			c-1.45-7.59-1.55-15.52-0.1-23.12c0.25-1.33-0.37-2.7-1.75-3.08C231.17,308.4,229.57,309.15,229.32,310.48L229.32,310.48z"/>
	</g>
</g>
<g>
	<path class="st18" d="M311.55,425.03c-0.2-4.83-0.4-9.67-0.6-14.5c-0.32-7.73-0.61-15.68,2.04-22.96s8.99-13.81,16.81-14.35
		c7.83-0.54,15.82,7.11,13.6,14.52c2-6.64,6.79-12.43,13-15.68c-2.8-4.52-8.54-6.69-13.91-6.38c-5.36,0.31-10.38,2.75-14.81,5.74"/>
	<g>
		<path class="st15" d="M314.05,425.03c-0.26-6.2-0.58-12.4-0.75-18.61c-0.16-5.83-0.04-11.74,1.81-17.33
			c2.51-7.61,10.85-16.29,19.58-12.54c4.03,1.73,7.57,6,6.31,10.53c-0.87,3.11,3.87,4.4,4.82,1.33c1.89-6.12,6.21-11.18,11.85-14.19
			c1.16-0.62,1.61-2.32,0.9-3.42c-3.14-4.88-8.71-7.43-14.41-7.64c-6.4-0.23-12.53,2.62-17.73,6.1c-2.66,1.78-0.16,6.11,2.52,4.32
			c4.29-2.87,9.18-5.4,14.47-5.42c4.12-0.02,8.53,1.59,10.83,5.17c0.3-1.14,0.6-2.28,0.9-3.42c-6.77,3.61-11.89,9.85-14.15,17.17
			c1.61,0.44,3.21,0.89,4.82,1.33c1.55-5.54-1.2-11-5.6-14.35c-4.48-3.4-10.31-4.25-15.57-2.25c-5.23,1.99-9.44,6.04-12.16,10.89
			c-3.17,5.67-4.09,12.28-4.22,18.69c-0.16,7.87,0.46,15.78,0.79,23.64C309.18,428.23,314.19,428.25,314.05,425.03L314.05,425.03z"
			/>
	</g>
</g>
<g>
	<path class="st19" d="M307.87,424.36c8.27-0.89,15.64-5.47,21.81-10.82c12.88-11.17,21.95-26.33,25.49-42.65"/>
	<g>
		<path class="st15" d="M307.87,426.86c10.53-1.21,19.45-7.36,26.89-14.59c7.21-7.01,13.18-15.39,17.36-24.53
			c2.38-5.19,4.23-10.6,5.46-16.18c0.69-3.14-4.13-4.48-4.82-1.33c-2.01,9.12-5.69,17.76-10.82,25.57
			c-5.09,7.74-11.68,14.92-19.4,20.12c-4.4,2.96-9.36,5.34-14.68,5.95c-1.34,0.15-2.5,1.04-2.5,2.5
			C305.37,425.59,306.52,427.01,307.87,426.86L307.87,426.86z"/>
	</g>
</g>
<g>
	<path class="st20" d="M247.74,459.97c-6.49-1.56-14.1,2.23-19.61-1.6c-1.78-1.24-3.04-3.13-4.78-4.42
		c-4.78-3.52-11.41-1.56-17.27-2.28c-9.65-1.19-16.67-9.57-22.68-17.35c13.98,1.65,27.96,3.31,41.94,4.96
		c3.11,0.37,6.27,0.75,9.12,2.04c6.89,3.11,10.54,10.68,13.64,17.67"/>
	<g>
		<path class="st15" d="M248.4,457.56c-4.92-1.1-9.75,0.35-14.69,0.06c-2.19-0.13-3.96-0.94-5.51-2.48
			c-1.9-1.89-3.62-3.69-6.16-4.72c-4.53-1.84-9.5-0.9-14.23-1.12c-4.34-0.2-8.29-2.08-11.65-4.76c-4.25-3.39-7.69-7.72-11-12
			c-0.59,1.42-1.18,2.85-1.77,4.27c10.53,1.25,21.05,2.49,31.58,3.74c4.97,0.59,10.11,0.86,15.01,1.95c3.99,0.89,7.12,3.01,9.64,6.2
			c2.72,3.44,4.55,7.58,6.32,11.56c0.55,1.23,2.35,1.52,3.42,0.9c1.27-0.74,1.45-2.18,0.9-3.42c-3.42-7.7-7.6-15.97-15.96-19.17
			c-2.45-0.94-5.05-1.3-7.63-1.62c-2.66-0.34-5.33-0.63-7.99-0.95c-5.51-0.65-11.02-1.3-16.53-1.96c-6.25-0.74-12.5-1.48-18.75-2.22
			c-0.96-0.11-1.96,0.72-2.28,1.54c-0.41,1.02-0.13,1.9,0.52,2.73c5.75,7.43,12.59,15.77,22.3,17.75c2.52,0.51,5.07,0.54,7.64,0.48
			c2.33-0.06,4.75-0.23,7.04,0.27c2.45,0.54,3.93,1.91,5.63,3.66c1.81,1.86,3.87,3.34,6.43,3.96c5.44,1.31,10.99-1.02,16.4,0.19
			C250.21,463.08,251.54,458.26,248.4,457.56L248.4,457.56z"/>
	</g>
</g>
<g>
	<path class="st21" d="M263.84,436.68c1.78-7.78-3.54-15.63-10.13-19.97s-14.4-6.26-21.52-9.62c-9.43-4.46-17.65-11.54-23.52-20.27
		c7.06,10.28,2.89,25.66,10.28,35.71c5.82,7.91,16.59,9.62,26.24,10.71c7.7,0.87,15.4,1.73,23.1,2.6"/>
	<g>
		<path class="st15" d="M266.25,437.35c2.35-10.94-5.94-20.3-15.05-24.97c-4.94-2.53-10.25-4.21-15.35-6.36
			c-4.73-2-9.26-4.59-13.28-7.8c-4.52-3.61-8.5-7.86-11.74-12.65c-1.79-2.65-6.12-0.16-4.32,2.52c3.06,4.55,3.87,10.04,4.52,15.38
			c0.7,5.76,1.26,11.62,3.76,16.94c5.16,11.03,17.63,13.79,28.6,15.13c8.29,1.01,16.6,1.88,24.9,2.81c1.34,0.15,2.5-1.26,2.5-2.5
			c0-1.48-1.15-2.35-2.5-2.5c-7.29-0.82-14.58-1.64-21.87-2.46c-5.39-0.61-10.85-1.27-15.98-3.14c-4.7-1.71-8.73-4.7-11.03-9.22
			c-2.34-4.61-2.78-10.01-3.39-15.06c-0.75-6.2-1.63-12.6-5.2-17.9c-1.44,0.84-2.88,1.68-4.32,2.52
			c5.71,8.42,13.4,15.47,22.44,20.19c9.1,4.74,20.47,6.48,27.74,14.21c3.36,3.57,5.81,8.54,4.74,13.53
			C260.75,439.15,265.57,440.49,266.25,437.35L266.25,437.35z"/>
	</g>
</g>
<g>
	<path class="st22" d="M281.87,442.47c0.52-10.58,0.45-21.19-0.23-31.76c-0.36-5.58-0.95-11.37-3.77-16.17s-8.51-8.31-13.81-6.81
		c6.52,6.08,6.6,16.31,6.31,25.3c-0.29,8.99,0.06,19.29,6.83,25.07"/>
	<g>
		<path class="st15" d="M284.37,442.47c0.49-10,0.45-20.02-0.12-30.02c-0.48-8.38-1.23-18.19-8.27-23.91
			c-3.55-2.88-8.05-4.41-12.58-3.22c-1.8,0.47-2.46,2.88-1.1,4.18c5,4.77,5.64,12.11,5.67,18.64c0.03,7.22-0.71,14.54,1.33,21.59
			c1.12,3.86,3.1,7.48,6.15,10.15c1.02,0.89,2.54,1,3.54,0c0.91-0.91,1.02-2.64,0-3.54c-5.15-4.5-6.05-11.64-6.16-18.1
			c-0.13-7.28,0.73-14.61-1.1-21.77c-1.01-3.95-2.91-7.67-5.88-10.51c-0.37,1.39-0.74,2.79-1.1,4.18c2.91-0.76,5.93,0.37,8.15,2.3
			c2.74,2.38,4.22,5.62,5.07,9.09c0.95,3.89,1.14,7.92,1.36,11.91c0.25,4.54,0.38,9.09,0.41,13.65c0.03,5.13-0.09,10.26-0.34,15.38
			C279.22,445.68,284.22,445.68,284.37,442.47L284.37,442.47z"/>
	</g>
</g>
<g>
	<path class="st23" d="M359.58,451.74c1.15-5.2,0.09-10.59-0.23-15.91s0.33-11.18,4.05-14.93c2.08-2.09,4.85-3.25,7.38-4.73
		c8.62-5.04,14.37-13.82,19.81-22.29c-2.23,14.04,10.62,25.53,14.9,39.07c1.15,3.63,1.65,7.67,0.27,11.22
		c-0.88,2.25-2.46,4.16-4.24,5.77c-5.74,5.17-13.62,7.4-21.29,7.46s-15.22-1.86-22.55-4.15"/>
	<g>
		<path class="st15" d="M361.99,452.41c1.09-5.22,0.31-10.39-0.08-15.64c-0.29-3.96-0.33-8.36,1.65-11.93
			c2.19-3.95,6.8-5.28,10.35-7.69c3.75-2.55,6.99-5.72,9.86-9.22c3.3-4.04,6.16-8.39,8.97-12.77c-1.52-0.64-3.05-1.28-4.57-1.93
			c-2,13.35,7.33,23.85,12.77,35.11c2.75,5.7,5.13,12.98,0.37,18.28c-4.39,4.89-11.01,7.45-17.45,8.09
			c-8.7,0.87-17.28-1.3-25.53-3.87c-3.08-0.96-4.4,3.87-1.33,4.82c14.62,4.55,31.85,7.42,44.87-2.78c2.93-2.29,5.47-5.25,6.57-8.87
			c1.17-3.86,0.6-8.12-0.61-11.9c-2.08-6.49-5.82-12.24-9.16-18.12c-3.32-5.85-6.72-12.49-5.68-19.45c0.18-1.23-0.2-2.45-1.45-2.95
			c-1.18-0.47-2.43-0.05-3.12,1.02c-4.76,7.41-9.74,15.32-17.2,20.32c-3.96,2.65-8.47,4.21-11.3,8.27c-2.53,3.64-3.2,8.37-3.15,12.7
			c0.06,5.7,1.57,11.49,0.39,17.16c-0.28,1.32,0.39,2.7,1.75,3.08C360.16,454.49,361.71,453.73,361.99,452.41L361.99,452.41z"/>
	</g>
</g>
<g>
	<path class="st24" d="M360.54,497.66c4.57,6.71,14.28,8.01,21.75,5.01s13.12-9.28,18.23-15.58c5.11-6.3,10.1-12.96,16.94-17.22
		c-7.78-1.43-15.65,1.97-22.32,6.3c-6.67,4.32-12.77,9.67-20.03,12.87c-7.91,3.49-17.14,4.41-23.76,10.03"/>
	<g>
		<path class="st15" d="M358.38,498.93c5.41,7.74,16.11,9.52,24.57,6.16c10-3.97,16.46-12.77,23.04-20.81
			c3.74-4.56,7.7-9.07,12.73-12.25c1.66-1.05,1.65-4.18-0.6-4.57c-10.7-1.84-20.32,3.64-28.73,9.62c-4.06,2.89-8.05,5.91-12.45,8.28
			c-4.16,2.24-8.66,3.51-13.14,4.93c-5.11,1.61-10.06,3.55-14.22,7.01c-1.04,0.87-0.89,2.64,0,3.54c1.03,1.03,2.5,0.87,3.54,0
			c3.24-2.7,7.27-4.21,11.24-5.48c4.31-1.39,8.68-2.59,12.79-4.51c8.8-4.11,15.79-11.16,24.45-15.52c4.63-2.33,9.97-3.93,15.19-3.04
			c-0.2-1.52-0.4-3.05-0.6-4.57c-8.57,5.42-14.09,13.94-20.64,21.43c-5.75,6.57-13.05,13.02-22.35,12.53
			c-4.01-0.21-8.14-1.89-10.5-5.27c-0.77-1.11-2.19-1.62-3.42-0.9C358.18,496.15,357.6,497.81,358.38,498.93L358.38,498.93z"/>
	</g>
</g>
<g>
	<path class="st25" d="M331.07,436.92c7.45,1.11,13.08-6.48,16.7-13.2c7.41-13.74,14.09-27.88,20-42.35
		c-1.68,6-4.5,11.84-9.08,15.99c-4.53,4.11-10.46,6.31-15.17,10.21c-8.48,7.03-11.85,18.46-14.79,29.18"/>
	<g>
		<path class="st15" d="M331.07,439.42c8.51,1.12,14.66-6.94,18.34-13.49c5.01-8.91,9.47-18.19,13.7-27.49
			c2.47-5.42,4.82-10.89,7.07-16.41c-1.61-0.44-3.21-0.89-4.82-1.33c-1.23,4.31-3,8.59-5.82,12.11c-2.98,3.73-7.02,6.02-11.07,8.42
			c-4,2.36-7.76,5-10.72,8.62c-2.88,3.53-5,7.49-6.74,11.68c-1.95,4.72-3.35,9.63-4.7,14.55c-0.85,3.11,3.97,4.43,4.82,1.33
			c2.27-8.3,4.63-17.21,10.15-24.03c2.88-3.56,6.52-5.97,10.42-8.26c4.09-2.41,8.18-4.9,11.24-8.62c3.48-4.23,5.74-9.23,7.23-14.48
			c0.37-1.3-0.45-2.72-1.75-3.08c-1.43-0.39-2.56,0.49-3.08,1.75c-3.66,8.95-7.62,17.77-11.88,26.45
			c-2.17,4.44-4.42,8.83-6.74,13.19c-1.78,3.34-3.59,6.73-6.13,9.57c-2.54,2.84-5.6,5.01-9.54,4.49c-1.34-0.18-2.5,1.27-2.5,2.5
			C328.57,438.41,329.73,439.24,331.07,439.42L331.07,439.42z"/>
	</g>
</g>
<g>
	<path class="st26" d="M230.62,311.14c2.32-1.12,4.54,1.65,5.68,3.99c3.16,6.51,6.32,13.02,9.49,19.53
		c2.18,4.49,4.56,9.21,8.75,11.85c2.48,1.56,5.41,2.26,7.88,3.83c4.06,2.58,6.38,7.16,8.51,11.51c3.3,6.73,6.59,13.46,9.89,20.19"/>
	<g>
		<path class="st15" d="M231.29,313.55c0.67-0.28,0.99,0.06,1.62,0.83c0.81,0.99,1.33,2.2,1.88,3.34c1.37,2.81,2.73,5.62,4.1,8.44
			c1.44,2.96,2.87,5.92,4.31,8.88c1.16,2.38,2.3,4.78,3.73,7.01c1.47,2.28,3.21,4.33,5.39,5.96c2.28,1.7,5,2.47,7.5,3.74
			c4.7,2.39,6.96,7.3,9.17,11.82c3.22,6.58,6.45,13.16,9.67,19.74c0.59,1.21,2.32,1.54,3.42,0.9c1.24-0.72,1.49-2.2,0.9-3.42
			c-3-6.13-6.01-12.26-9.01-18.39c-2.51-5.12-4.99-10.51-9.81-13.88c-2.46-1.72-5.43-2.42-7.99-3.93c-2.18-1.29-3.81-3.26-5.14-5.39
			c-1.51-2.41-2.71-5.01-3.95-7.57c-1.47-3.03-2.95-6.07-4.42-9.1c-1.57-3.23-2.94-6.73-4.83-9.79c-1.6-2.6-4.58-5.36-7.88-4
			c-1.25,0.51-2.13,1.66-1.75,3.08C228.54,312.99,230.03,314.07,231.29,313.55L231.29,313.55z"/>
	</g>
</g>
<g>
	<path class="st27" d="M312.82,420.38c-0.58-7.68,1.07-15.47,4.78-22.51c3.07-5.82,7.83-11.34,14.7-14.02
		c6.05-2.36,13.82-2.67,17.67-7.25"/>
	<g>
		<path class="st15" d="M315.32,420.38c-0.62-8.79,1.68-17.7,6.69-24.99c2.1-3.06,4.81-5.75,8.01-7.65c3.3-1.96,7-2.76,10.67-3.73
			c4-1.06,8.25-2.42,11.05-5.64c0.89-1.02,1-2.54,0-3.54c-0.91-0.91-2.64-1.02-3.54,0c-2.33,2.67-5.9,3.58-9.2,4.44
			c-4.03,1.06-8.06,2.06-11.67,4.24c-7.49,4.52-12.42,12.4-15.04,20.59c-1.68,5.23-2.35,10.8-1.96,16.27c0.09,1.35,1.08,2.5,2.5,2.5
			C314.1,422.88,315.42,421.73,315.32,420.38L315.32,420.38z"/>
	</g>
</g>
<g>
	<g>
		<path class="st1" d="M240.16,317.63c-0.28-4.02,0.64-8.04,2.69-11.51c0.41-0.69-0.67-1.32-1.08-0.63
			c-2.15,3.65-3.16,7.91-2.86,12.14C238.97,318.43,240.22,318.44,240.16,317.63L240.16,317.63z"/>
	</g>
</g>
<g>
	<g>
		<path class="st1" d="M253.02,307.36c-0.13,6.68-3.41,13.18-8.8,17.15c-0.64,0.47-0.02,1.56,0.63,1.08
			c5.77-4.24,9.28-11.08,9.42-18.23C254.29,306.55,253.04,306.55,253.02,307.36L253.02,307.36z"/>
	</g>
</g>
<g>
	<g>
		<path class="st1" d="M259.12,311.31c0.71,11.15-1.41,22.35-6.2,32.45c-0.34,0.72,0.73,1.36,1.08,0.63
			c4.89-10.29,7.09-21.71,6.37-33.08C260.32,310.51,259.07,310.5,259.12,311.31L259.12,311.31z"/>
	</g>
</g>
<g>
	<g>
		<path class="st1" d="M266.64,316.47c1.05,10.13,0.49,20.37-1.7,30.32c-0.17,0.78,1.03,1.12,1.21,0.33
			c2.21-10.06,2.81-20.41,1.75-30.65C267.81,315.68,266.56,315.67,266.64,316.47L266.64,316.47z"/>
	</g>
</g>
<g>
	<g>
		<path class="st1" d="M277.2,326.74c1.15,11.11-0.7,22.41-5.41,32.55c-0.34,0.72,0.74,1.36,1.08,0.63
			c4.8-10.34,6.75-21.84,5.58-33.18C278.37,325.95,277.12,325.94,277.2,326.74L277.2,326.74z"/>
	</g>
</g>
<g>
	<path class="st28" d="M244.52,336.75c-2.84,0.95-6.08,0.62-8.67-0.9c-2.59-1.52-4.5-4.2-5.12-7.18"/>
	<g>
		<path class="st1" d="M244.35,336.15c-2.85,0.92-6.01,0.57-8.55-1.06c-2.31-1.49-3.9-3.91-4.48-6.58
			c-0.17-0.79-1.38-0.45-1.21,0.33c0.65,2.99,2.47,5.67,5.05,7.33c2.79,1.8,6.36,2.2,9.51,1.18
			C245.44,337.1,245.12,335.9,244.35,336.15L244.35,336.15z"/>
	</g>
</g>
<g>
	<g>
		<path class="st1" d="M252.89,348.72c-7.86,1.97-16.54-1.19-21.36-7.69c-0.47-0.64-1.56-0.02-1.08,0.63
			c5.16,6.96,14.32,10.38,22.77,8.27C254.01,349.73,253.68,348.53,252.89,348.72L252.89,348.72z"/>
	</g>
</g>
<g>
	<g>
		<path class="st1" d="M267.12,357.32c-5.42,0-10.84-0.01-16.26-0.01c-2.63,0-5.25,0-7.88-0.01c-2.43-0.01-4.91-0.06-6.98-1.5
			c-0.66-0.46-1.29,0.62-0.63,1.08c1.83,1.28,4.01,1.59,6.2,1.66c2.77,0.08,5.54,0.02,8.31,0.02c5.75,0,11.49,0.01,17.24,0.01
			C267.92,358.57,267.92,357.32,267.12,357.32L267.12,357.32z"/>
	</g>
</g>
<g>
	<g>
		<path class="st1" d="M274.01,368.29c-8.87,2.1-18.02,2.64-27.08,1.61c-0.8-0.09-0.79,1.16,0,1.25c9.16,1.04,18.44,0.47,27.41-1.66
			C275.12,369.31,274.79,368.1,274.01,368.29L274.01,368.29z"/>
	</g>
</g>
<g>
	<path class="st29" d="M327.16,374.92c-0.42,2.7-0.21,5.57,0.6,8.1"/>
	<g>
		<path class="st1" d="M326.55,374.75c-0.43,2.81-0.26,5.71,0.6,8.43c0.24,0.76,1.45,0.44,1.21-0.33c-0.79-2.5-0.99-5.18-0.6-7.76
			c0.05-0.33-0.08-0.67-0.44-0.77C327.03,374.23,326.6,374.42,326.55,374.75L326.55,374.75z"/>
	</g>
</g>
<g>
	<g>
		<path class="st1" d="M319.33,381.19c-0.59,2.89,0,5.79,1.48,8.32c0.41,0.69,1.49,0.07,1.08-0.63c-1.3-2.23-1.87-4.8-1.35-7.36
			C320.7,380.74,319.49,380.4,319.33,381.19L319.33,381.19z"/>
	</g>
</g>
<g>
	<g>
		<path class="st1" d="M312.05,389.2c0.04,2.87,2.27,5.1,4.8,6.11c0.31,0.13,0.69-0.14,0.77-0.44c0.1-0.36-0.12-0.64-0.44-0.77
			c-1.1-0.44-2.1-1.16-2.83-2.09c-0.64-0.82-1.03-1.82-1.05-2.82C313.29,388.4,312.04,388.39,312.05,389.2L312.05,389.2z"/>
	</g>
</g>
<g>
	<g>
		<path class="st1" d="M314.11,413.82c4.19,0.31,8.4,0.1,12.53-0.64c3.34-0.6,6.62-1.5,8.81-4.27c0.49-0.62-0.38-1.51-0.88-0.88
			c-2.15,2.71-5.4,3.46-8.66,4.02c-3.9,0.67-7.86,0.82-11.8,0.53C313.31,412.51,313.31,413.76,314.11,413.82L314.11,413.82z"/>
	</g>
</g>
<g>
	<g>
		<path class="st1" d="M315.78,403.21c11.13,0.23,22.86-0.51,31.49-8.42c0.59-0.54-0.29-1.43-0.88-0.88
			c-8.37,7.66-19.83,8.27-30.61,8.05C314.98,401.95,314.98,403.2,315.78,403.21L315.78,403.21z"/>
	</g>
</g>
<g>
	<path class="st30" d="M322.61,389.95c5.17,0.2,10.41,0.11,15.42-0.69s9.81-2.36,13.32-4.75"/>
	<g>
		<path class="st1" d="M322.61,390.58c9.65,0.36,20.74,0.04,29.05-5.53c0.66-0.45,0.04-1.53-0.63-1.08
			c-8.14,5.46-18.98,5.72-28.42,5.36C321.8,389.3,321.8,390.55,322.61,390.58L322.61,390.58z"/>
	</g>
</g>
<g>
	<g>
		<path class="st1" d="M371.84,490.92c-1.02,3.45,3.67,5.42,6.15,6.34c3.62,1.35,7.54,1.8,11.37,1.32c0.79-0.1,0.8-1.35,0-1.25
			c-3.24,0.4-6.51,0.15-9.64-0.8c-1.54-0.47-3.06-1.09-4.46-1.9c-1.16-0.67-2.66-1.88-2.22-3.39
			C373.27,490.47,372.07,490.14,371.84,490.92L371.84,490.92z"/>
	</g>
</g>
<g>
	<path class="st31" d="M382.04,487.23c6.02-0.15,12.05-0.3,18.07-0.44"/>
	<g>
		<path class="st1" d="M382.04,487.85c6.02-0.15,12.05-0.3,18.07-0.44c0.8-0.02,0.81-1.27,0-1.25c-6.02,0.15-12.05,0.3-18.07,0.44
			C381.23,486.62,381.23,487.87,382.04,487.85L382.04,487.85z"/>
	</g>
</g>
<g>
	<g>
		<path class="st1" d="M395.58,476.23c3.95,0,7.91,0,11.86,0c0.8,0,0.81-1.25,0-1.25c-3.95,0-7.91,0-11.86,0
			C394.78,474.98,394.78,476.23,395.58,476.23L395.58,476.23z"/>
	</g>
</g>
<g>
	<g>
		<path class="st1" d="M238.01,445.72c-3.85,4.5-9.29,7.52-15.18,8.26c-0.79,0.1-0.8,1.35,0,1.25c6.22-0.78,11.99-3.86,16.07-8.63
			C239.41,445.99,238.53,445.1,238.01,445.72L238.01,445.72z"/>
	</g>
</g>
<g>
	<g>
		<path class="st1" d="M226.52,439.15c-5.18,4.91-11.25,8.83-17.88,11.47c-0.74,0.29-0.42,1.5,0.33,1.21
			c6.84-2.73,13.08-6.73,18.43-11.8C227.99,439.48,227.1,438.59,226.52,439.15L226.52,439.15z"/>
	</g>
</g>
<g>
	<g>
		<path class="st1" d="M214.19,438.44c-7.49,1.39-15,6.8-22.82,4.6c-0.78-0.22-1.11,0.99-0.33,1.21c8.13,2.28,15.72-3.16,23.48-4.6
			C215.31,439.5,214.98,438.29,214.19,438.44L214.19,438.44z"/>
	</g>
</g>
<g>
	<g>
		<path class="st32" d="M363.18,452.16c1.76-0.8,2.93-2.3,3.92-3.91c1.23-1.99,2.34-4.06,3.5-6.1c2.41-4.26,4.79-8.54,7.13-12.84
			c2.34-4.3,4.65-8.62,6.93-12.95c2.02-3.85,4.76-8.05,4.24-12.6c-0.09-0.79-1.34-0.8-1.25,0c0.52,4.6-2.48,8.93-4.53,12.83
			c-2.13,4.04-4.29,8.07-6.47,12.08c-2.19,4.01-4.4,8.01-6.65,11.98c-1.12,1.99-2.25,3.98-3.39,5.95c-1.03,1.78-2.11,3.58-4.06,4.46
			C361.82,451.42,362.45,452.5,363.18,452.16L363.18,452.16z"/>
	</g>
</g>
<g>
	<g>
		<path class="st32" d="M383.05,421.97c4.9,1.25,10.18,0.43,14.48-2.25c0.68-0.42,0.05-1.51-0.63-1.08
			c-4.02,2.5-8.92,3.29-13.51,2.12C382.6,420.56,382.27,421.77,383.05,421.97L383.05,421.97z"/>
	</g>
</g>
<g>
	<g>
		<path class="st32" d="M372.65,414.65c0.35,4.42,4.17,7.28,7.57,9.55c0.67,0.45,1.3-0.63,0.63-1.08c-2.98-1.98-6.64-4.57-6.95-8.47
			C373.83,413.85,372.58,413.85,372.65,414.65L372.65,414.65z"/>
	</g>
</g>
<g>
	<g>
		<path class="st32" d="M364.47,420.27c-0.79,4.54,1.82,9.31,6.15,10.97c0.75,0.29,1.08-0.92,0.33-1.21
			c-3.65-1.39-5.95-5.6-5.28-9.43C365.82,419.81,364.61,419.48,364.47,420.27L364.47,420.27z"/>
	</g>
</g>
<g>
	<g>
		<path class="st32" d="M374.68,435.09c11.08,0.74,22.56,1.41,33.15-2.57c0.75-0.28,0.42-1.49-0.33-1.21
			c-10.49,3.94-21.84,3.26-32.81,2.52C373.88,433.79,373.88,435.04,374.68,435.09L374.68,435.09z"/>
	</g>
</g>
<g>
	<g>
		<path class="st32" d="M372.74,441.54c10.47,5.15,22.77,5.94,33.8,2.08c0.75-0.26,0.43-1.47-0.33-1.21
			c-10.7,3.75-22.65,3.06-32.83-1.95C372.65,440.11,372.02,441.19,372.74,441.54L372.74,441.54z"/>
	</g>
</g>
<g>
	<g>
		<path class="st32" d="M358.14,430.78c-0.18,5.78,5.05,11.17,10.89,10.87c0.8-0.04,0.81-1.29,0-1.25c-5.18,0.27-9.8-4.49-9.64-9.62
			C359.42,429.97,358.17,429.97,358.14,430.78L358.14,430.78z"/>
	</g>
</g>
<g>
	<g>
		<path class="st1" d="M336.35,353.72c0.8,0,0.81-1.25,0-1.25C335.55,352.47,335.54,353.72,336.35,353.72L336.35,353.72z"/>
	</g>
</g>
</svg>
