<?xml version="1.0" encoding="utf-8"?>
<!-- Generator: Adobe Illustrator 23.1.1, SVG Export Plug-In . SVG Version: 6.00 Build 0)  -->
<svg version="1.1" id="Layer_1" xmlns="http://www.w3.org/2000/svg" xmlns:xlink="http://www.w3.org/1999/xlink" x="0px" y="0px"
	 viewBox="0 0 595.28 841.89" style="enable-background:new 0 0 595.28 841.89;" xml:space="preserve">
<style type="text/css">
	.st0{fill:#8B5E3C;}
	.st1{fill:url(#SVGID_1_);}
	.st2{fill:url(#SVGID_2_);}
	.st3{fill:url(#SVGID_3_);}
	.st4{fill:#BE1E2D;}
	.st5{fill:#2E3192;}
	.st6{fill:#014B4C;}
	.st7{fill:#BDE6F3;}
	.st8{fill:#4F0738;}
	.st9{fill:#4255A5;}
	.st10{fill:#47BEEE;}
	.st11{fill:#3C2415;}
	.st12{fill:#FFF1E2;}
	.st13{fill:#4A101E;}
	.st14{fill:#FAA41A;}
	.st15{fill:#014122;}
	.st16{fill:#132C18;}
	.st17{fill:#04324E;}
	.st18{fill:#E6B0D1;}
	.st19{fill:#0067AF;}
	.st20{fill:#2B0F1B;}
	.st21{fill:#467F3C;}
	.st22{fill:#4E7BBE;}
	.st23{fill:#805FA9;}
	.st24{fill:#C0E0B5;}
	.st25{fill:#18214E;}
	.st26{fill:#906DB0;}
	.st27{fill:#420F46;}
	.st28{fill:#1E3018;}
	.st29{fill:#FDDBCC;}
	.st30{fill:#087039;}
	.st31{fill:#ECF3D2;}
	.st32{fill:#690A2E;}
	.st33{fill:#460930;}
	.st34{fill:#01372C;}
	.st35{fill:#C23926;}
	.st36{fill:#EDD1E5;}
	.st37{fill:#F5BF17;}
	.st38{fill:#7E91C9;}
	.st39{fill:#352063;}
	.st40{fill:#941A26;}
	.st41{fill:#04213E;}
	.st42{fill:#EADEEE;}
	.st43{fill:#250D44;}
	.st44{fill:#034A25;}
	.st45{fill:#1E0D33;}
	.st46{fill:#FEF0F0;}
	.st47{fill:#012A44;}
	.st48{fill:#C3ADD4;}
	.st49{fill:url(#SVGID_4_);}
	.st50{fill:url(#SVGID_5_);}
	.st51{fill:url(#SVGID_6_);}
	.st52{fill:url(#SVGID_7_);}
	.st53{fill:url(#SVGID_8_);}
	.st54{fill:#BBE5F4;}
	.st55{fill:#300A3B;}
	.st56{fill:url(#SVGID_9_);}
</style>
<rect x="104" y="117.16" class="st0" width="380.68" height="646.59"/>
<linearGradient id="SVGID_1_" gradientUnits="userSpaceOnUse" x1="104" y1="217.0455" x2="484.6818" y2="217.0455">
	<stop  offset="5.618000e-03" style="stop-color:#886441"/>
	<stop  offset="0.1404" style="stop-color:#634522"/>
	<stop  offset="0.309" style="stop-color:#735229"/>
	<stop  offset="0.6517" style="stop-color:#603B0F"/>
	<stop  offset="0.8034" style="stop-color:#886441"/>
	<stop  offset="1" style="stop-color:#603B0F"/>
	<stop  offset="1" style="stop-color:#5F4421"/>
</linearGradient>
<rect x="104" y="210.23" class="st1" width="380.68" height="13.64"/>
<linearGradient id="SVGID_2_" gradientUnits="userSpaceOnUse" x1="104" y1="318.75" x2="484.6818" y2="318.75">
	<stop  offset="5.618000e-03" style="stop-color:#886441"/>
	<stop  offset="0.1404" style="stop-color:#634522"/>
	<stop  offset="0.309" style="stop-color:#735229"/>
	<stop  offset="0.6517" style="stop-color:#603B0F"/>
	<stop  offset="0.8034" style="stop-color:#886441"/>
	<stop  offset="1" style="stop-color:#603B0F"/>
	<stop  offset="1" style="stop-color:#5F4421"/>
</linearGradient>
<rect x="104" y="311.93" class="st2" width="380.68" height="13.64"/>
<linearGradient id="SVGID_3_" gradientUnits="userSpaceOnUse" x1="104" y1="648.2955" x2="484.6818" y2="648.2955">
	<stop  offset="5.618000e-03" style="stop-color:#886441"/>
	<stop  offset="0.1404" style="stop-color:#634522"/>
	<stop  offset="0.309" style="stop-color:#735229"/>
	<stop  offset="0.6517" style="stop-color:#603B0F"/>
	<stop  offset="0.8034" style="stop-color:#886441"/>
	<stop  offset="1" style="stop-color:#603B0F"/>
	<stop  offset="1" style="stop-color:#5F4421"/>
</linearGradient>
<rect x="104" y="641.48" class="st3" width="380.68" height="13.64"/>
<rect x="320.02" y="149.05" class="st4" width="14.97" height="61.18"/>
<rect x="334.99" y="130.33" class="st5" width="21.21" height="79.89"/>
<rect x="356.2" y="140.31" class="st6" width="26.2" height="69.91"/>
<rect x="197.49" y="276.69" class="st7" width="106.8" height="34.96"/>
<rect x="368.23" y="488.93" class="st8" width="105.68" height="21.59"/>
<rect x="308.46" y="464.23" class="st9" width="19.05" height="72.71"/>
<rect x="334.99" y="590.36" class="st10" width="21.21" height="51.12"/>
<rect x="222.66" y="730.13" class="st11" width="95.32" height="17.05"/>
<rect x="203.35" y="747.18" class="st5" width="105.11" height="11.36"/>
<rect x="239.71" y="708.54" class="st12" width="78.27" height="21.59"/>
<rect x="320.02" y="688.09" class="st13" width="20.82" height="70.45"/>
<rect x="274.94" y="574.45" class="st14" width="18.79" height="67.02"/>
<rect x="198.65" y="505.71" class="st15" width="74.67" height="14.77"/>
<rect x="189.71" y="519.91" class="st16" width="74.67" height="14.77"/>
<rect x="192.75" y="484.69" class="st17" width="73.86" height="21.59"/>
<rect x="234.64" y="155.93" class="st18" width="84.9" height="18.73"/>
<rect x="340.85" y="260.82" class="st19" width="20.45" height="51.12"/>
<rect x="361.3" y="238.09" class="st20" width="21.1" height="73.84"/>
<rect x="330.11" y="359.16" class="st21" width="14.97" height="61.18"/>
<rect x="345.08" y="340.45" class="st22" width="21.21" height="79.89"/>
<rect x="366.29" y="350.43" class="st6" width="26.2" height="69.91"/>
<rect x="127.33" y="473.5" class="st23" width="14.97" height="61.18"/>
<rect x="142.3" y="454.79" class="st24" width="21.21" height="79.89"/>
<rect x="163.51" y="464.77" class="st25" width="26.2" height="69.91"/>
<rect x="327.51" y="474.76" class="st26" width="14.97" height="61.18"/>
<rect x="286.58" y="456.87" class="st5" width="21.21" height="79.89"/>
<rect x="342.59" y="465.62" class="st6" width="26.2" height="69.91"/>
<rect x="145.42" y="698.1" class="st27" width="14.97" height="61.18"/>
<rect x="160.39" y="679.39" class="st28" width="21.21" height="79.89"/>
<rect x="181.6" y="689.37" class="st6" width="26.2" height="69.91"/>
<rect x="214.71" y="580.3" class="st29" width="14.97" height="61.18"/>
<rect x="229.68" y="561.58" class="st30" width="21.21" height="79.89"/>
<rect x="250.89" y="571.56" class="st31" width="26.2" height="69.91"/>
<rect x="382.4" y="250.47" class="st32" width="14.97" height="61.18"/>
<rect x="397.37" y="231.75" class="st33" width="21.21" height="79.89"/>
<rect x="418.58" y="241.73" class="st34" width="26.2" height="69.91"/>
<rect x="392.49" y="359.16" class="st35" width="14.97" height="61.18"/>
<rect x="407.46" y="340.45" class="st5" width="21.21" height="79.89"/>
<rect x="428.67" y="350.43" class="st36" width="26.2" height="69.91"/>
<rect x="382.4" y="149.05" class="st37" width="14.97" height="61.18"/>
<rect x="397.37" y="130.33" class="st38" width="21.21" height="79.89"/>
<rect x="418.58" y="140.31" class="st39" width="26.2" height="69.91"/>
<rect x="358.69" y="579.26" class="st40" width="14.97" height="61.18"/>
<rect x="373.66" y="560.55" class="st5" width="21.21" height="79.89"/>
<rect x="394.87" y="554.3" class="st41" width="26.2" height="86.14"/>
<rect x="342.48" y="695.3" class="st4" width="14.97" height="61.18"/>
<rect x="357.45" y="677.59" class="st42" width="21.21" height="79.89"/>
<rect x="378.65" y="686.57" class="st43" width="26.2" height="69.91"/>
<rect x="400.49" y="694.3" class="st11" width="14.97" height="61.18"/>
<rect x="415.46" y="675.59" class="st44" width="21.21" height="79.89"/>
<rect x="436.66" y="685.57" class="st45" width="26.2" height="69.91"/>
<rect x="198.65" y="174.93" class="st46" width="120.82" height="34.03"/>
<rect x="115.07" y="615.92" class="st47" width="96.89" height="23.84"/>
<rect x="369.01" y="511.54" class="st46" width="96.89" height="23.84"/>
<rect x="201.43" y="385.39" class="st48" width="80.76" height="34.71"/>
<linearGradient id="SVGID_4_" gradientUnits="userSpaceOnUse" x1="103.3903" y1="540.0149" x2="484.0721" y2="540.0149">
	<stop  offset="5.618000e-03" style="stop-color:#886441"/>
	<stop  offset="0.1404" style="stop-color:#634522"/>
	<stop  offset="0.309" style="stop-color:#735229"/>
	<stop  offset="0.6517" style="stop-color:#603B0F"/>
	<stop  offset="0.8034" style="stop-color:#886441"/>
	<stop  offset="1" style="stop-color:#603B0F"/>
	<stop  offset="1" style="stop-color:#5F4421"/>
</linearGradient>
<rect x="103.39" y="533.2" class="st49" width="380.68" height="13.64"/>
<linearGradient id="SVGID_5_" gradientUnits="userSpaceOnUse" x1="104" y1="763.7485" x2="484.6818" y2="763.7485">
	<stop  offset="5.618000e-03" style="stop-color:#886441"/>
	<stop  offset="0.1404" style="stop-color:#634522"/>
	<stop  offset="0.309" style="stop-color:#735229"/>
	<stop  offset="0.6517" style="stop-color:#603B0F"/>
	<stop  offset="0.8034" style="stop-color:#886441"/>
	<stop  offset="1" style="stop-color:#603B0F"/>
	<stop  offset="1" style="stop-color:#5F4421"/>
</linearGradient>
<rect x="104" y="756.93" class="st50" width="380.68" height="13.64"/>
<linearGradient id="SVGID_6_" gradientUnits="userSpaceOnUse" x1="104" y1="117.1575" x2="484.6818" y2="117.1575">
	<stop  offset="5.618000e-03" style="stop-color:#886441"/>
	<stop  offset="0.1404" style="stop-color:#634522"/>
	<stop  offset="0.309" style="stop-color:#735229"/>
	<stop  offset="0.6517" style="stop-color:#603B0F"/>
	<stop  offset="0.8034" style="stop-color:#886441"/>
	<stop  offset="1" style="stop-color:#603B0F"/>
	<stop  offset="1" style="stop-color:#5F4421"/>
</linearGradient>
<rect x="104" y="110.34" class="st51" width="380.68" height="13.64"/>
<linearGradient id="SVGID_7_" gradientUnits="userSpaceOnUse" x1="-239.2215" y1="420.984" x2="423.0709" y2="420.984" gradientTransform="matrix(-1.836970e-16 -1 1 -1.836970e-16 -310.3182 531.3451)">
	<stop  offset="5.618000e-03" style="stop-color:#886441"/>
	<stop  offset="0.1404" style="stop-color:#634522"/>
	<stop  offset="0.309" style="stop-color:#735229"/>
	<stop  offset="0.6517" style="stop-color:#603B0F"/>
	<stop  offset="0.8034" style="stop-color:#886441"/>
	<stop  offset="1" style="stop-color:#603B0F"/>
	<stop  offset="1" style="stop-color:#5F4421"/>
</linearGradient>
<polygon class="st52" points="117.33,108.27 117.33,770.57 104,770.57 104,108.27 "/>
<linearGradient id="SVGID_8_" gradientUnits="userSpaceOnUse" x1="-240.2541" y1="790.895" x2="422.0383" y2="790.895" gradientTransform="matrix(-1.836970e-16 -1 1 -1.836970e-16 -310.3182 531.3451)">
	<stop  offset="5.618000e-03" style="stop-color:#886441"/>
	<stop  offset="0.1404" style="stop-color:#634522"/>
	<stop  offset="0.309" style="stop-color:#735229"/>
	<stop  offset="0.6517" style="stop-color:#603B0F"/>
	<stop  offset="0.8034" style="stop-color:#886441"/>
	<stop  offset="1" style="stop-color:#603B0F"/>
	<stop  offset="1" style="stop-color:#5F4421"/>
</linearGradient>
<polygon class="st53" points="487.24,109.31 487.24,771.6 473.91,771.6 473.91,109.31 "/>
<rect x="304.88" y="352.98" class="st54" width="26.2" height="69.91"/>
<rect x="292.94" y="571.56" class="st6" width="26.2" height="69.91"/>
<rect x="421.29" y="570.53" class="st55" width="26.2" height="69.91"/>
<rect x="282.19" y="340.45" class="st35" width="27.12" height="81.36"/>
<linearGradient id="SVGID_9_" gradientUnits="userSpaceOnUse" x1="106.8409" y1="427.8409" x2="487.5227" y2="427.8409">
	<stop  offset="5.618000e-03" style="stop-color:#886441"/>
	<stop  offset="0.1404" style="stop-color:#634522"/>
	<stop  offset="0.309" style="stop-color:#735229"/>
	<stop  offset="0.6517" style="stop-color:#603B0F"/>
	<stop  offset="0.8034" style="stop-color:#886441"/>
	<stop  offset="1" style="stop-color:#603B0F"/>
	<stop  offset="1" style="stop-color:#5F4421"/>
</linearGradient>
<rect x="106.84" y="421.02" class="st56" width="380.68" height="13.64"/>
</svg>
