<svg xmlns="http://www.w3.org/2000/svg" xmlns:xlink="http://www.w3.org/1999/xlink" viewBox="0 0 384.13 663.33"><defs><style>.cls-1{fill:#8b5e3c;}.cls-2{fill:url(#linear-gradient);}.cls-3{fill:url(#linear-gradient-2);}.cls-4{fill:url(#linear-gradient-3);}.cls-5{fill:#be1e2d;}.cls-6{fill:#2e3192;}.cls-7{fill:#014b4c;}.cls-8{fill:#bde6f3;}.cls-9{fill:#4f0738;}.cls-10{fill:#4255a5;}.cls-11{fill:#47beee;}.cls-12{fill:#3c2415;}.cls-13{fill:#fff1e2;}.cls-14{fill:#4a101e;}.cls-15{fill:#faa41a;}.cls-16{fill:#014122;}.cls-17{fill:#132c18;}.cls-18{fill:#04324e;}.cls-19{fill:#e6b0d1;}.cls-20{fill:#0067af;}.cls-21{fill:#2b0f1b;}.cls-22{fill:#467f3c;}.cls-23{fill:#4e7bbe;}.cls-24{fill:#805fa9;}.cls-25{fill:#c0e0b5;}.cls-26{fill:#18214e;}.cls-27{fill:#906db0;}.cls-28{fill:#420f46;}.cls-29{fill:#1e3018;}.cls-30{fill:#fddbcc;}.cls-31{fill:#087039;}.cls-32{fill:#ecf3d2;}.cls-33{fill:#690a2e;}.cls-34{fill:#460930;}.cls-35{fill:#01372c;}.cls-36{fill:#c23926;}.cls-37{fill:#edd1e5;}.cls-38{fill:#f5bf17;}.cls-39{fill:#7e91c9;}.cls-40{fill:#352063;}.cls-41{fill:#941a26;}.cls-42{fill:#04213e;}.cls-43{fill:#eadeee;}.cls-44{fill:#250d44;}.cls-45{fill:#034a25;}.cls-46{fill:#1e0d33;}.cls-47{fill:#fef0f0;}.cls-48{fill:#012a44;}.cls-49{fill:#c3add4;}.cls-50{fill:url(#linear-gradient-4);}.cls-51{fill:url(#linear-gradient-5);}.cls-52{fill:url(#linear-gradient-6);}.cls-53{fill:url(#linear-gradient-7);}.cls-54{fill:url(#linear-gradient-8);}.cls-55{fill:#bbe5f4;}.cls-56{fill:#300a3b;}.cls-57{fill:url(#linear-gradient-9);}</style><linearGradient id="linear-gradient" x1="0.61" y1="516.57" x2="381.29" y2="516.57" gradientTransform="matrix(1, 0, 0, -1, 0, 625.35)" gradientUnits="userSpaceOnUse"><stop offset="0.01" stop-color="#886441"/><stop offset="0.14" stop-color="#634522"/><stop offset="0.31" stop-color="#735229"/><stop offset="0.65" stop-color="#603b0f"/><stop offset="0.8" stop-color="#886441"/><stop offset="1" stop-color="#603b0f"/><stop offset="1" stop-color="#5f4421"/></linearGradient><linearGradient id="linear-gradient-2" x1="0.61" y1="414.87" x2="381.29" y2="414.87" xlink:href="#linear-gradient"/><linearGradient id="linear-gradient-3" x1="0.61" y1="85.32" x2="381.29" y2="85.32" xlink:href="#linear-gradient"/><linearGradient id="linear-gradient-4" x1="0" y1="193.6" x2="380.68" y2="193.6" xlink:href="#linear-gradient"/><linearGradient id="linear-gradient-5" x1="0.61" y1="-30.13" x2="381.29" y2="-30.13" xlink:href="#linear-gradient"/><linearGradient id="linear-gradient-6" x1="0.61" y1="616.46" x2="381.29" y2="616.46" xlink:href="#linear-gradient"/><linearGradient id="linear-gradient-7" x1="-342.61" y1="312.64" x2="319.69" y2="312.64" gradientTransform="matrix(0, -1, -1, 0, 319.91, 319.69)" xlink:href="#linear-gradient"/><linearGradient id="linear-gradient-8" x1="-343.64" y1="-57.27" x2="318.65" y2="-57.27" gradientTransform="matrix(0, -1, -1, 0, 319.91, 319.69)" xlink:href="#linear-gradient"/><linearGradient id="linear-gradient-9" x1="3.45" y1="305.78" x2="384.13" y2="305.78" xlink:href="#linear-gradient"/></defs><title>shelf</title><g id="Layer_2" data-name="Layer 2"><g id="Layer_1-2" data-name="Layer 1"><rect class="cls-1" x="0.61" y="8.89" width="380.68" height="646.59"/><rect class="cls-2" x="0.61" y="101.96" width="380.68" height="13.64"/><rect class="cls-3" x="0.61" y="203.66" width="380.68" height="13.64"/><rect class="cls-4" x="0.61" y="533.21" width="380.68" height="13.64"/><rect class="cls-5" x="216.63" y="40.78" width="14.97" height="61.18"/><rect class="cls-6" x="231.6" y="22.06" width="21.21" height="79.89"/><rect class="cls-7" x="252.81" y="32.04" width="26.2" height="69.91"/><rect class="cls-8" x="94.1" y="168.42" width="106.8" height="34.96"/><rect class="cls-9" x="264.84" y="380.66" width="105.68" height="21.59"/><rect class="cls-10" x="205.07" y="355.96" width="19.05" height="72.71"/><rect class="cls-11" x="231.6" y="482.09" width="21.21" height="51.12"/><rect class="cls-12" x="119.27" y="621.86" width="95.32" height="17.05"/><rect class="cls-6" x="99.96" y="638.91" width="105.11" height="11.36"/><rect class="cls-13" x="136.32" y="600.27" width="78.27" height="21.59"/><rect class="cls-14" x="216.63" y="579.82" width="20.82" height="70.45"/><rect class="cls-15" x="171.55" y="466.18" width="18.79" height="67.02"/><rect class="cls-16" x="95.26" y="397.44" width="74.67" height="14.77"/><rect class="cls-17" x="86.32" y="411.64" width="74.67" height="14.77"/><rect class="cls-18" x="89.36" y="376.42" width="73.86" height="21.59"/><rect class="cls-19" x="131.25" y="47.66" width="84.9" height="18.73"/><rect class="cls-20" x="237.46" y="152.55" width="20.45" height="51.12"/><rect class="cls-21" x="257.91" y="129.82" width="21.1" height="73.84"/><rect class="cls-22" x="226.72" y="250.89" width="14.97" height="61.18"/><rect class="cls-23" x="241.69" y="232.18" width="21.21" height="79.89"/><rect class="cls-7" x="262.9" y="242.16" width="26.2" height="69.91"/><rect class="cls-24" x="23.94" y="365.23" width="14.97" height="61.18"/><rect class="cls-25" x="38.91" y="346.52" width="21.21" height="79.89"/><rect class="cls-26" x="60.12" y="356.5" width="26.2" height="69.91"/><rect class="cls-27" x="224.12" y="366.49" width="14.97" height="61.18"/><rect class="cls-6" x="183.19" y="348.6" width="21.21" height="79.89"/><rect class="cls-7" x="239.2" y="357.35" width="26.2" height="69.91"/><rect class="cls-28" x="42.03" y="589.83" width="14.97" height="61.18"/><rect class="cls-29" x="57" y="571.12" width="21.21" height="79.89"/><rect class="cls-7" x="78.21" y="581.1" width="26.2" height="69.91"/><rect class="cls-30" x="111.32" y="472.03" width="14.97" height="61.18"/><rect class="cls-31" x="126.29" y="453.31" width="21.21" height="79.89"/><rect class="cls-32" x="147.5" y="463.29" width="26.2" height="69.91"/><rect class="cls-33" x="279.01" y="142.2" width="14.97" height="61.18"/><rect class="cls-34" x="293.98" y="123.48" width="21.21" height="79.89"/><rect class="cls-35" x="315.19" y="133.46" width="26.2" height="69.91"/><rect class="cls-36" x="289.1" y="250.89" width="14.97" height="61.18"/><rect class="cls-6" x="304.07" y="232.18" width="21.21" height="79.89"/><rect class="cls-37" x="325.28" y="242.16" width="26.2" height="69.91"/><rect class="cls-38" x="279.01" y="40.78" width="14.97" height="61.18"/><rect class="cls-39" x="293.98" y="22.06" width="21.21" height="79.89"/><rect class="cls-40" x="315.19" y="32.04" width="26.2" height="69.91"/><rect class="cls-41" x="255.3" y="470.99" width="14.97" height="61.18"/><rect class="cls-6" x="270.27" y="452.28" width="21.21" height="79.89"/><rect class="cls-42" x="291.48" y="446.03" width="26.2" height="86.14"/><rect class="cls-5" x="239.09" y="587.03" width="14.97" height="61.18"/><rect class="cls-43" x="254.06" y="569.32" width="21.21" height="79.89"/><rect class="cls-44" x="275.26" y="578.3" width="26.2" height="69.91"/><rect class="cls-12" x="297.1" y="586.03" width="14.97" height="61.18"/><rect class="cls-45" x="312.07" y="567.32" width="21.21" height="79.89"/><rect class="cls-46" x="333.27" y="577.3" width="26.2" height="69.91"/><rect class="cls-47" x="95.26" y="66.66" width="120.82" height="34.03"/><rect class="cls-48" x="11.68" y="507.65" width="96.89" height="23.84"/><rect class="cls-47" x="265.62" y="403.27" width="96.89" height="23.84"/><rect class="cls-49" x="98.04" y="277.12" width="80.76" height="34.71"/><rect class="cls-50" y="424.93" width="380.68" height="13.64"/><rect class="cls-51" x="0.61" y="648.66" width="380.68" height="13.64"/><rect class="cls-52" x="0.61" y="2.07" width="380.68" height="13.64"/><polygon class="cls-53" points="13.94 0 13.94 662.3 0.61 662.3 0.61 0 13.94 0"/><polygon class="cls-54" points="383.85 1.04 383.85 663.33 370.52 663.33 370.52 1.04 383.85 1.04"/><rect class="cls-55" x="201.49" y="244.71" width="26.2" height="69.91"/><rect class="cls-7" x="189.55" y="463.29" width="26.2" height="69.91"/><rect class="cls-56" x="317.9" y="462.26" width="26.2" height="69.91"/><rect class="cls-36" x="178.8" y="232.18" width="27.12" height="81.36"/><rect class="cls-57" x="3.45" y="312.75" width="380.68" height="13.64"/></g></g></svg>