<?xml version="1.0" encoding="utf-8"?>
<!-- Generator: Adobe Illustrator 23.1.1, SVG Export Plug-In . SVG Version: 6.00 Build 0)  -->
<svg version="1.1" id="Layer_1" xmlns="http://www.w3.org/2000/svg" xmlns:xlink="http://www.w3.org/1999/xlink" x="0px" y="0px"
	 viewBox="0 0 384.13 663.33" style="enable-background:new 0 0 384.13 663.33;" xml:space="preserve">
<style type="text/css">
	.st0{fill:#8B5E3C;}
	.st1{fill:url(#SVGID_1_);}
	.st2{fill:url(#SVGID_2_);}
	.st3{fill:url(#SVGID_3_);}
	.st4{fill:#BE1E2D;}
	.st5{fill:#2E3192;}
	.st6{fill:#014B4C;}
	.st7{fill:#BDE6F3;}
	.st8{fill:#4F0738;}
	.st9{fill:#4255A5;}
	.st10{fill:#47BEEE;}
	.st11{fill:#3C2415;}
	.st12{fill:#FFF1E2;}
	.st13{fill:#4A101E;}
	.st14{fill:#FAA41A;}
	.st15{fill:#014122;}
	.st16{fill:#132C18;}
	.st17{fill:#04324E;}
	.st18{fill:#E6B0D1;}
	.st19{fill:#0067AF;}
	.st20{fill:#2B0F1B;}
	.st21{fill:#467F3C;}
	.st22{fill:#4E7BBE;}
	.st23{fill:#805FA9;}
	.st24{fill:#C0E0B5;}
	.st25{fill:#18214E;}
	.st26{fill:#906DB0;}
	.st27{fill:#420F46;}
	.st28{fill:#1E3018;}
	.st29{fill:#FDDBCC;}
	.st30{fill:#087039;}
	.st31{fill:#ECF3D2;}
	.st32{fill:#690A2E;}
	.st33{fill:#460930;}
	.st34{fill:#01372C;}
	.st35{fill:#C23926;}
	.st36{fill:#EDD1E5;}
	.st37{fill:#F5BF17;}
	.st38{fill:#7E91C9;}
	.st39{fill:#352063;}
	.st40{fill:#941A26;}
	.st41{fill:#04213E;}
	.st42{fill:#EADEEE;}
	.st43{fill:#250D44;}
	.st44{fill:#034A25;}
	.st45{fill:#1E0D33;}
	.st46{fill:#FEF0F0;}
	.st47{fill:#012A44;}
	.st48{fill:#C3ADD4;}
	.st49{fill:url(#SVGID_4_);}
	.st50{fill:url(#SVGID_5_);}
	.st51{fill:url(#SVGID_6_);}
	.st52{fill:url(#SVGID_7_);}
	.st53{fill:url(#SVGID_8_);}
	.st54{fill:#BBE5F4;}
	.st55{fill:#300A3B;}
	.st56{fill:url(#SVGID_9_);}
</style>
<title>shelf</title>
<g>
	<g id="Layer_1-2">
		<rect x="0.61" y="8.89" class="st0" width="380.68" height="646.59"/>
		
			<linearGradient id="SVGID_1_" gradientUnits="userSpaceOnUse" x1="0.61" y1="325.3198" x2="381.29" y2="325.3198" gradientTransform="matrix(1 0 0 1 0 -216.5398)">
			<stop  offset="0.01" style="stop-color:#886441"/>
			<stop  offset="0.14" style="stop-color:#634522"/>
			<stop  offset="0.31" style="stop-color:#735229"/>
			<stop  offset="0.65" style="stop-color:#603B0F"/>
			<stop  offset="0.8" style="stop-color:#886441"/>
			<stop  offset="1" style="stop-color:#603B0F"/>
			<stop  offset="1" style="stop-color:#5F4421"/>
		</linearGradient>
		<rect x="0.61" y="101.96" class="st1" width="380.68" height="13.64"/>
		
			<linearGradient id="SVGID_2_" gradientUnits="userSpaceOnUse" x1="0.61" y1="427.0198" x2="381.29" y2="427.0198" gradientTransform="matrix(1 0 0 1 0 -216.5398)">
			<stop  offset="0.01" style="stop-color:#886441"/>
			<stop  offset="0.14" style="stop-color:#634522"/>
			<stop  offset="0.31" style="stop-color:#735229"/>
			<stop  offset="0.65" style="stop-color:#603B0F"/>
			<stop  offset="0.8" style="stop-color:#886441"/>
			<stop  offset="1" style="stop-color:#603B0F"/>
			<stop  offset="1" style="stop-color:#5F4421"/>
		</linearGradient>
		<rect x="0.61" y="203.66" class="st2" width="380.68" height="13.64"/>
		
			<linearGradient id="SVGID_3_" gradientUnits="userSpaceOnUse" x1="0.61" y1="756.5698" x2="381.29" y2="756.5698" gradientTransform="matrix(1 0 0 1 0 -216.5398)">
			<stop  offset="0.01" style="stop-color:#886441"/>
			<stop  offset="0.14" style="stop-color:#634522"/>
			<stop  offset="0.31" style="stop-color:#735229"/>
			<stop  offset="0.65" style="stop-color:#603B0F"/>
			<stop  offset="0.8" style="stop-color:#886441"/>
			<stop  offset="1" style="stop-color:#603B0F"/>
			<stop  offset="1" style="stop-color:#5F4421"/>
		</linearGradient>
		<rect x="0.61" y="533.21" class="st3" width="380.68" height="13.64"/>
		<rect x="216.63" y="40.78" class="st4" width="14.97" height="61.18"/>
		<rect x="231.6" y="22.06" class="st5" width="21.21" height="79.89"/>
		<rect x="252.81" y="32.04" class="st6" width="26.2" height="69.91"/>
		<rect x="86.32" y="163.42" class="st7" width="149.36" height="39.96"/>
		<rect x="264.84" y="380.66" class="st8" width="105.68" height="21.59"/>
		<rect x="205.07" y="355.96" class="st9" width="19.05" height="72.71"/>
		<rect x="231.6" y="482.09" class="st10" width="21.21" height="51.12"/>
		<rect x="119.27" y="621.86" class="st11" width="95.32" height="17.05"/>
		<rect x="99.96" y="638.91" class="st5" width="105.11" height="11.36"/>
		<rect x="136.32" y="600.27" class="st12" width="78.27" height="21.59"/>
		<rect x="216.63" y="579.82" class="st13" width="20.82" height="70.45"/>
		<rect x="171.55" y="466.18" class="st14" width="18.79" height="67.02"/>
		<rect x="95.26" y="397.44" class="st15" width="74.67" height="14.77"/>
		<rect x="86.32" y="411.64" class="st16" width="74.67" height="14.77"/>
		<rect x="89.36" y="376.42" class="st17" width="73.86" height="21.59"/>
		<rect x="131.25" y="47.66" class="st18" width="84.9" height="18.73"/>
		<rect x="237.45" y="142.2" class="st19" width="20.46" height="61.47"/>
		<rect x="257.91" y="129.82" class="st20" width="21.1" height="73.84"/>
		<rect x="226.72" y="250.89" class="st21" width="14.97" height="61.18"/>
		<rect x="241.69" y="232.18" class="st22" width="21.21" height="79.89"/>
		<rect x="262.9" y="242.16" class="st6" width="26.2" height="69.91"/>
		<rect x="23.94" y="365.23" class="st23" width="14.97" height="61.18"/>
		<rect x="38.91" y="346.52" class="st24" width="21.21" height="79.89"/>
		<rect x="60.12" y="356.5" class="st25" width="26.2" height="69.91"/>
		<rect x="224.12" y="366.49" class="st26" width="14.97" height="61.18"/>
		<rect x="183.19" y="348.6" class="st5" width="21.21" height="79.89"/>
		<rect x="239.2" y="357.35" class="st6" width="26.2" height="69.91"/>
		<rect x="42.03" y="589.83" class="st27" width="14.97" height="61.18"/>
		<rect x="57" y="571.12" class="st28" width="21.21" height="79.89"/>
		<rect x="78.21" y="581.1" class="st6" width="26.2" height="69.91"/>
		<rect x="111.32" y="472.03" class="st29" width="14.97" height="61.18"/>
		<rect x="126.29" y="453.31" class="st30" width="21.21" height="79.89"/>
		<rect x="147.5" y="463.29" class="st31" width="26.2" height="69.91"/>
		<rect x="279.01" y="142.2" class="st32" width="14.97" height="61.18"/>
		<rect x="293.98" y="123.48" class="st33" width="21.21" height="79.89"/>
		<rect x="315.19" y="133.46" class="st34" width="26.2" height="69.91"/>
		<rect x="289.1" y="250.89" class="st35" width="14.97" height="61.18"/>
		<rect x="304.07" y="232.18" class="st5" width="21.21" height="79.89"/>
		<rect x="325.28" y="242.16" class="st36" width="26.2" height="69.91"/>
		<rect x="279.01" y="40.78" class="st37" width="14.97" height="61.18"/>
		<rect x="293.98" y="22.06" class="st38" width="21.21" height="79.89"/>
		<rect x="315.19" y="32.04" class="st39" width="26.2" height="69.91"/>
		<rect x="255.3" y="470.99" class="st40" width="14.97" height="61.18"/>
		<rect x="270.27" y="452.28" class="st5" width="21.21" height="79.89"/>
		<rect x="291.48" y="446.03" class="st41" width="26.2" height="86.14"/>
		<rect x="239.09" y="587.03" class="st4" width="14.97" height="61.18"/>
		<rect x="254.06" y="569.32" class="st42" width="21.21" height="79.89"/>
		<rect x="275.26" y="578.3" class="st43" width="26.2" height="69.91"/>
		<rect x="297.1" y="586.03" class="st11" width="14.97" height="61.18"/>
		<rect x="312.07" y="567.32" class="st44" width="21.21" height="79.89"/>
		<rect x="333.27" y="577.3" class="st45" width="26.2" height="69.91"/>
		<rect x="86.32" y="62" class="st46" width="129.76" height="38.69"/>
		<rect x="11.68" y="507.65" class="st47" width="96.89" height="23.84"/>
		<rect x="265.62" y="403.27" class="st46" width="96.89" height="23.84"/>
		<rect x="86.32" y="277.12" class="st48" width="92.48" height="34.71"/>
		
			<linearGradient id="SVGID_4_" gradientUnits="userSpaceOnUse" x1="0" y1="648.2898" x2="380.68" y2="648.2898" gradientTransform="matrix(1 0 0 1 0 -216.5398)">
			<stop  offset="0.01" style="stop-color:#886441"/>
			<stop  offset="0.14" style="stop-color:#634522"/>
			<stop  offset="0.31" style="stop-color:#735229"/>
			<stop  offset="0.65" style="stop-color:#603B0F"/>
			<stop  offset="0.8" style="stop-color:#886441"/>
			<stop  offset="1" style="stop-color:#603B0F"/>
			<stop  offset="1" style="stop-color:#5F4421"/>
		</linearGradient>
		<rect y="424.93" class="st49" width="380.68" height="13.64"/>
		
			<linearGradient id="SVGID_5_" gradientUnits="userSpaceOnUse" x1="0.61" y1="872.0198" x2="381.29" y2="872.0198" gradientTransform="matrix(1 0 0 1 0 -216.5398)">
			<stop  offset="0.01" style="stop-color:#886441"/>
			<stop  offset="0.14" style="stop-color:#634522"/>
			<stop  offset="0.31" style="stop-color:#735229"/>
			<stop  offset="0.65" style="stop-color:#603B0F"/>
			<stop  offset="0.8" style="stop-color:#886441"/>
			<stop  offset="1" style="stop-color:#603B0F"/>
			<stop  offset="1" style="stop-color:#5F4421"/>
		</linearGradient>
		<rect x="0.61" y="648.66" class="st50" width="380.68" height="13.64"/>
		
			<linearGradient id="SVGID_6_" gradientUnits="userSpaceOnUse" x1="0.61" y1="225.4298" x2="381.29" y2="225.4298" gradientTransform="matrix(1 0 0 1 0 -216.5398)">
			<stop  offset="0.01" style="stop-color:#886441"/>
			<stop  offset="0.14" style="stop-color:#634522"/>
			<stop  offset="0.31" style="stop-color:#735229"/>
			<stop  offset="0.65" style="stop-color:#603B0F"/>
			<stop  offset="0.8" style="stop-color:#886441"/>
			<stop  offset="1" style="stop-color:#603B0F"/>
			<stop  offset="1" style="stop-color:#5F4421"/>
		</linearGradient>
		<rect x="0.61" y="2.07" class="st51" width="380.68" height="13.64"/>
		
			<linearGradient id="SVGID_7_" gradientUnits="userSpaceOnUse" x1="-536.61" y1="545.2548" x2="125.69" y2="545.2548" gradientTransform="matrix(0 -1 1 0 -537.9797 125.69)">
			<stop  offset="0.01" style="stop-color:#886441"/>
			<stop  offset="0.14" style="stop-color:#634522"/>
			<stop  offset="0.31" style="stop-color:#735229"/>
			<stop  offset="0.65" style="stop-color:#603B0F"/>
			<stop  offset="0.8" style="stop-color:#886441"/>
			<stop  offset="1" style="stop-color:#603B0F"/>
			<stop  offset="1" style="stop-color:#5F4421"/>
		</linearGradient>
		<polygon class="st52" points="13.94,0 13.94,662.3 0.61,662.3 0.61,0 		"/>
		
			<linearGradient id="SVGID_8_" gradientUnits="userSpaceOnUse" x1="-537.64" y1="915.1647" x2="124.65" y2="915.1647" gradientTransform="matrix(0 -1 1 0 -537.9797 125.69)">
			<stop  offset="0.01" style="stop-color:#886441"/>
			<stop  offset="0.14" style="stop-color:#634522"/>
			<stop  offset="0.31" style="stop-color:#735229"/>
			<stop  offset="0.65" style="stop-color:#603B0F"/>
			<stop  offset="0.8" style="stop-color:#886441"/>
			<stop  offset="1" style="stop-color:#603B0F"/>
			<stop  offset="1" style="stop-color:#5F4421"/>
		</linearGradient>
		<polygon class="st53" points="383.85,1.04 383.85,663.33 370.52,663.33 370.52,1.04 		"/>
		<rect x="201.49" y="244.71" class="st54" width="26.2" height="69.91"/>
		<rect x="189.55" y="463.29" class="st6" width="26.2" height="69.91"/>
		<rect x="317.9" y="462.26" class="st55" width="26.2" height="69.91"/>
		<rect x="178.8" y="232.18" class="st35" width="27.12" height="81.36"/>
		
			<linearGradient id="SVGID_9_" gradientUnits="userSpaceOnUse" x1="3.45" y1="536.1098" x2="384.13" y2="536.1098" gradientTransform="matrix(1 0 0 1 0 -216.5398)">
			<stop  offset="0.01" style="stop-color:#886441"/>
			<stop  offset="0.14" style="stop-color:#634522"/>
			<stop  offset="0.31" style="stop-color:#735229"/>
			<stop  offset="0.65" style="stop-color:#603B0F"/>
			<stop  offset="0.8" style="stop-color:#886441"/>
			<stop  offset="1" style="stop-color:#603B0F"/>
			<stop  offset="1" style="stop-color:#5F4421"/>
		</linearGradient>
		<rect x="3.45" y="312.75" class="st56" width="380.68" height="13.64"/>
	</g>
</g>
</svg>
