<?xml version="1.0" encoding="utf-8"?>
<!-- Generator: Adobe Illustrator 23.1.1, SVG Export Plug-In . SVG Version: 6.00 Build 0)  -->
<svg version="1.1" id="Layer_1" xmlns="http://www.w3.org/2000/svg" xmlns:xlink="http://www.w3.org/1999/xlink" x="0px" y="0px"
	 viewBox="0 0 595.28 841.89" style="enable-background:new 0 0 595.28 841.89;" xml:space="preserve">
<style type="text/css">
	.st0{fill:#754C29;}
	.st1{fill:#603913;}
</style>
<g>
	<path class="st0" d="M162.04,417c-0.29,82.92-0.19,165.84,0.32,248.75c5.68-1.1,11.3-3.49,16.69-7.09
		c-1.45-81.91-2.9-163.82-4.34-245.73"/>
	<g>
		<path class="st1" d="M159.54,417c-0.11,32.36-0.17,64.72-0.16,97.07s0.08,64.72,0.2,97.07c0.07,18.2,0.16,36.4,0.28,54.6
			c0.01,1.71,1.58,2.73,3.16,2.41c3.87-0.77,7.59-2.09,11.13-3.81c1.84-0.89,3.62-1.9,5.34-3c1.06-0.68,1.97-1.32,2.05-2.69
			c0.07-1.16-0.04-2.37-0.06-3.53c-0.15-8.75-0.31-17.49-0.46-26.24c-0.31-17.41-0.62-34.82-0.92-52.22
			c-0.31-17.49-0.62-34.98-0.93-52.48c-0.31-17.41-0.62-34.82-0.92-52.22c-0.31-17.49-0.62-34.98-0.93-52.48
			c-0.04-2.19-0.08-4.37-0.12-6.56c-0.06-3.21-5.06-3.22-5,0c0.56,31.96,1.13,63.91,1.69,95.87c0.56,31.96,1.13,63.91,1.69,95.87
			c0.32,18,0.64,35.99,0.95,53.99c0.41-0.72,0.83-1.44,1.24-2.16c-4.94,3.26-10.28,5.67-16.09,6.84c1.05,0.8,2.11,1.61,3.16,2.41
			c-0.2-32.36-0.33-64.71-0.41-97.07c-0.08-32.36-0.09-64.72-0.04-97.07c0.03-18.2,0.07-36.4,0.14-54.6
			C164.55,413.79,159.55,413.78,159.54,417L159.54,417z"/>
	</g>
</g>
<g>
	<path class="st0" d="M302.86,408.03c-0.33,82.92-0.21,165.84,0.36,248.75c6.39-1.1,12.71-3.49,18.78-7.09
		c-1.63-81.91-3.26-163.82-4.89-245.73"/>
	<g>
		<path class="st1" d="M300.36,408.03c-0.13,32.36-0.19,64.72-0.18,97.07s0.08,64.72,0.23,97.07c0.08,18.2,0.19,36.4,0.31,54.6
			c0.01,1.74,1.58,2.69,3.16,2.41c6.85-1.21,13.39-3.82,19.37-7.34c0.75-0.44,1.26-1.28,1.24-2.16
			c-0.64-31.96-1.27-63.91-1.91-95.87s-1.27-63.91-1.91-95.87c-0.36-18-0.72-35.99-1.07-53.99c-0.06-3.21-5.06-3.22-5,0
			c0.64,31.96,1.27,63.91,1.91,95.87s1.27,63.91,1.91,95.87c0.36,18,0.72,35.99,1.07,53.99c0.41-0.72,0.83-1.44,1.24-2.16
			c-5.65,3.32-11.72,5.69-18.18,6.84c1.05,0.8,2.11,1.61,3.16,2.41c-0.22-32.36-0.38-64.71-0.46-97.07
			c-0.09-32.36-0.1-64.72-0.05-97.07c0.03-18.2,0.08-36.4,0.15-54.6C305.37,404.81,300.37,404.81,300.36,408.03L300.36,408.03z"/>
	</g>
</g>
<g>
	<path class="st0" d="M202.91,406.97c-0.16,61.33-0.1,122.66,0.17,183.98c3.02-0.82,6-2.58,8.86-5.24
		c-0.77-60.58-1.54-121.17-2.3-181.75"/>
	<g>
		<path class="st1" d="M200.41,406.97c-0.06,24-0.09,48-0.09,71.99c0,23.83,0.04,47.66,0.11,71.49c0.04,13.5,0.09,27,0.15,40.49
			c0.01,1.61,1.59,2.86,3.16,2.41c2.6-0.74,5.04-1.98,7.2-3.6c1.11-0.83,3.02-1.98,3.4-3.39c0.19-0.69,0.08-1.46,0.07-2.16
			c-0.01-1-0.03-2-0.04-3c-0.08-6.32-0.16-12.65-0.24-18.97c-0.16-12.82-0.33-25.63-0.49-38.45c-0.32-25.55-0.65-51.1-0.97-76.65
			c-0.18-14.4-0.37-28.79-0.55-43.19c-0.04-3.21-5.04-3.22-5,0c0.3,23.63,0.6,47.27,0.9,70.9s0.6,47.27,0.9,70.9
			c0.17,13.32,0.34,26.63,0.51,39.95c0.24-0.59,0.49-1.18,0.73-1.77c-2.25,2.06-4.8,3.76-7.76,4.6c1.05,0.8,2.11,1.61,3.16,2.41
			c-0.1-24-0.18-47.99-0.22-71.99c-0.04-23.83-0.05-47.66-0.02-71.49c0.01-13.5,0.04-27,0.07-40.5
			C205.42,403.75,200.42,403.74,200.41,406.97L200.41,406.97z"/>
	</g>
</g>
<g>
	<path class="st0" d="M350.53,389.27c1.53,71.46,3.07,142.93,4.6,214.39c3.5,2.14,7.77-1.07,9.61-5.62
		c1.84-4.55,1.89-9.99,1.88-15.18c-0.1-71.75-2.09-143.49-5.97-215.05"/>
	<g>
		<path class="st1" d="M348.03,389.27c0.66,30.82,1.32,61.63,1.99,92.45c0.66,30.82,1.32,61.63,1.99,92.45
			c0.16,7.66,0.33,15.33,0.49,22.99c0.04,1.83,0.08,3.66,0.12,5.5c0.02,1-0.01,2,0.75,2.77c0.63,0.63,1.66,1.02,2.52,1.22
			c2.87,0.68,5.7-0.61,7.77-2.56c4.91-4.63,5.39-12.23,5.47-18.55c0.09-7.54-0.02-15.08-0.07-22.61
			c-0.19-30.72-0.73-61.44-1.62-92.15c-0.88-30.53-2.11-61.04-3.67-91.54c-0.2-3.81-0.4-7.62-0.6-11.43c-0.17-3.2-5.17-3.22-5,0
			c1.74,32.15,3.11,64.32,4.09,96.5c0.98,32.2,1.58,64.41,1.8,96.62c0.06,8.79,0.32,17.62,0.04,26.41c-0.12,3.6-0.38,7.6-2.15,10.83
			c-0.7,1.27-1.63,2.47-2.9,3.2c-1.02,0.58-1.74,0.64-2.63,0.13c0.41,0.72,0.83,1.44,1.24,2.16c-0.6-27.99-1.2-55.97-1.8-83.96
			c-0.6-27.82-1.2-55.64-1.79-83.46c-0.34-15.66-0.67-31.32-1.01-46.98C352.96,386.06,347.96,386.05,348.03,389.27L348.03,389.27z"
			/>
	</g>
</g>
<g>
	<path class="st0" d="M198.27,368.34c-21.96,15.34-40.98,34.03-56,55.01c58.16-7.6,117.1-10.44,175.83-8.47
		c5.49,0.18,11.28,0.35,16.11-1.99c3.66-1.77,6.33-4.78,8.89-7.71c10.83-12.37,21.65-24.75,32.48-37.12
		c-61.49-0.08-122.98-0.16-184.47-0.24"/>
	<g>
		<path class="st1" d="M197.01,366.18c-17.08,11.95-32.69,26-46.09,41.98c-3.78,4.5-7.38,9.15-10.8,13.92
			c-1.03,1.44,0.33,4,2.16,3.76c16.71-2.18,33.47-3.97,50.26-5.37c16.89-1.4,33.82-2.41,50.76-3.02c16.86-0.6,33.74-0.81,50.62-0.63
			c8.36,0.09,16.71,0.3,25.06,0.57c3.84,0.12,7.72,0.14,11.5-0.64c3.68-0.77,6.94-2.52,9.76-4.98c2.8-2.45,5.15-5.42,7.6-8.21
			c2.84-3.25,5.69-6.5,8.53-9.75c5.58-6.37,11.15-12.75,16.73-19.12c1.42-1.62,2.84-3.25,4.26-4.87c1.39-1.59,0.5-4.26-1.77-4.27
			c-24-0.03-47.99-0.06-71.99-0.09c-24-0.03-47.99-0.06-71.99-0.09c-13.5-0.02-27-0.03-40.49-0.05c-3.22,0-3.22,5,0,5
			c24,0.03,47.99,0.06,71.99,0.09c24,0.03,47.99,0.06,71.99,0.09c13.5,0.02,27,0.03,40.49,0.05c-0.59-1.42-1.18-2.85-1.77-4.27
			c-11.05,12.63-22.04,25.3-33.14,37.88c-2.25,2.55-4.61,5.06-7.72,6.56c-3.08,1.49-6.67,1.72-10.04,1.74
			c-8.18,0.05-16.38-0.45-24.56-0.58c-16.71-0.25-33.42-0.12-50.13,0.4c-16.7,0.52-33.38,1.43-50.03,2.73
			c-16.64,1.29-33.25,2.97-49.81,5.04c-2.04,0.25-4.08,0.52-6.11,0.78c0.72,1.25,1.44,2.51,2.16,3.76
			c11.72-16.34,25.73-31,41.3-43.7c4.47-3.64,9.08-7.11,13.8-10.41c1.1-0.77,1.62-2.19,0.9-3.42
			C199.79,365.98,198.12,365.4,197.01,366.18L197.01,366.18z"/>
	</g>
</g>
</svg>
