<svg xmlns="http://www.w3.org/2000/svg" viewBox="0 0 238.26 302.89"><defs><style>.cls-1{fill:#754c29;}.cls-2{fill:#603913;}</style></defs><title>stand</title><g id="Layer_2" data-name="Layer 2"><g id="Layer_1-2" data-name="Layer 1"><path class="cls-1" d="M22.28,51.68q-.44,124.38.32,248.75a45.81,45.81,0,0,0,16.69-7.09Q37.12,170.48,35,47.61"/><path class="cls-2" d="M19.78,51.68q-.16,48.54-.16,97.07t.2,97.07q.11,27.3.28,54.6a2.53,2.53,0,0,0,3.16,2.41A46.06,46.06,0,0,0,34.39,299a51.75,51.75,0,0,0,5.34-3c1.06-.68,2-1.32,2.05-2.69.07-1.16,0-2.37-.06-3.53q-.22-13.12-.46-26.24-.46-26.12-.92-52.22l-.93-52.48q-.46-26.12-.92-52.22l-.93-52.48-.12-6.56c-.06-3.21-5.06-3.22-5,0q.84,47.94,1.69,95.87t1.69,95.87q.48,27,1,54L38,291.17A45.43,45.43,0,0,1,21.92,298l3.16,2.41q-.3-48.54-.41-97.07t0-97.07q0-27.3.14-54.6c0-3.21-5-3.22-5,0Z"/><path class="cls-1" d="M163.1,42.71q-.49,124.38.36,248.75a55.22,55.22,0,0,0,18.78-7.09L177.35,38.64"/><path class="cls-2" d="M160.6,42.71q-.19,48.54-.18,97.07t.23,97.07q.12,27.3.31,54.6a2.54,2.54,0,0,0,3.16,2.41,58.4,58.4,0,0,0,19.37-7.34,2.5,2.5,0,0,0,1.24-2.16q-1-47.94-1.91-95.87t-1.91-95.87q-.54-27-1.07-54c-.06-3.21-5.06-3.22-5,0q1,47.94,1.91,95.87t1.91,95.87q.54,27,1.07,54L181,282.2A54.73,54.73,0,0,1,162.79,289l3.16,2.41q-.33-48.54-.46-97.07t-.05-97.07q0-27.3.15-54.6c0-3.22-5-3.22-5,0Z"/><path class="cls-1" d="M63.15,41.65q-.24,92,.17,184a21.45,21.45,0,0,0,8.86-5.24Q71,129.52,69.88,38.64"/><path class="cls-2" d="M60.65,41.65q-.09,36-.09,72,0,35.74.11,71.49.06,20.25.15,40.49A2.52,2.52,0,0,0,64,228a22.14,22.14,0,0,0,7.2-3.6c1.11-.83,3-2,3.4-3.39a7.81,7.81,0,0,0,.07-2.16c0-1,0-2,0-3l-.24-19q-.24-19.23-.49-38.45-.48-38.33-1-76.65-.27-21.6-.55-43.19c0-3.21-5-3.22-5,0l.9,70.9.9,70.9.51,40,.73-1.77a19.48,19.48,0,0,1-7.76,4.6l3.16,2.41q-.15-36-.22-72-.06-35.75,0-71.49,0-20.25.07-40.5c0-3.2-5-3.21-5,0Z"/><path class="cls-1" d="M210.77,24q2.29,107.19,4.6,214.39c3.5,2.14,7.77-1.07,9.61-5.62s1.89-10,1.88-15.18q-.15-107.62-6-215"/><path class="cls-2" d="M208.27,24q1,46.23,2,92.45t2,92.45q.24,11.49.49,23l.12,5.5a3.69,3.69,0,0,0,.75,2.77,5.45,5.45,0,0,0,2.52,1.22c2.87.68,5.7-.61,7.77-2.56,4.91-4.63,5.39-12.23,5.47-18.55.09-7.54,0-15.08-.07-22.61q-.28-46.08-1.62-92.15Q226.36,59.67,224,13.92l-.6-11.43c-.17-3.2-5.17-3.22-5,0Q221,50.72,222.5,99t1.8,96.62c.06,8.79.32,17.62,0,26.41-.12,3.6-.38,7.6-2.15,10.83a8.07,8.07,0,0,1-2.9,3.2,2.33,2.33,0,0,1-2.63.13l1.24,2.16-1.8-84q-.9-41.73-1.79-83.46-.51-23.49-1-47c-.1-3.2-5.1-3.21-5,0Z"/><path class="cls-1" d="M58.51,3a232.78,232.78,0,0,0-56,55,1079.3,1079.3,0,0,1,175.83-8.47c5.49.18,11.28.35,16.11-2,3.66-1.77,6.33-4.78,8.89-7.71L235.82,2.74,51.35,2.5"/><path class="cls-2" d="M57.25.86a238.41,238.41,0,0,0-46.09,42Q5.49,49.59.36,56.76c-1,1.44.33,4,2.16,3.76q25.07-3.27,50.26-5.37t50.76-3q25.29-.9,50.62-.63c8.36.09,16.71.3,25.06.57a49.2,49.2,0,0,0,11.5-.64,21.46,21.46,0,0,0,9.76-5,85.62,85.62,0,0,0,7.6-8.21l8.53-9.75L233.34,9.37,237.6,4.5A2.53,2.53,0,0,0,235.83.23l-72-.09-72-.09L51.36,0c-3.22,0-3.22,5,0,5l72,.09,72,.09,40.49.05L234.06,1C223,13.59,212,26.26,200.92,38.84c-2.25,2.55-4.61,5.06-7.72,6.56s-6.67,1.72-10,1.74c-8.18,0-16.38-.45-24.56-.58q-25.07-.37-50.13.4t-50,2.73q-25,1.94-49.81,5c-2,.25-4.08.52-6.11.78l2.16,3.76A228.45,228.45,0,0,1,46,15.57q6.71-5.46,13.8-10.41a2.57,2.57,0,0,0,.9-3.42A2.54,2.54,0,0,0,57.25.86Z"/></g></g></svg>