<?xml version="1.0" encoding="utf-8"?>
<!-- Generator: Adobe Illustrator 23.1.1, SVG Export Plug-In . SVG Version: 6.00 Build 0)  -->
<svg version="1.1" id="Layer_1" xmlns="http://www.w3.org/2000/svg" xmlns:xlink="http://www.w3.org/1999/xlink" x="0px" y="0px"
	 viewBox="0 0 595.28 841.89" style="enable-background:new 0 0 595.28 841.89;" xml:space="preserve">
<style type="text/css">
	.st0{fill:#58595B;}
</style>
<g>
	<g>
		<path class="st0" d="M243.99,206.5c-10.81,1.82-20.97,6.57-29.51,13.42c-4.22,3.38-7.94,7.32-11.16,11.66
			c-3.62,4.87-6.63,10.66-5.74,16.91c1.38,9.77,11.51,15.2,20.23,17.21c9.83,2.26,22.15,0.98,29.84,8.72
			c7.21,7.27,6.96,18.81,3.95,27.89c-1.92,5.81-4.91,11.18-7.92,16.48c-3.09,5.44-6.14,10.9-9,16.47
			c-5.85,11.42-11.06,23.18-15.62,35.17c-2.24,5.9-4.32,11.86-6.23,17.87c-1.69,5.31-3.41,10.66-4.53,16.12
			c-1.83,8.9-2.6,19.34,2.16,27.51c2.28,3.91,5.71,6.55,9.75,8.47c1.99,0.94,4.02,1.79,5.99,2.77c1.8,0.9,3.34,1.76,4.62,3.07
			c0.85,0.87,1.19,1.89,0.97,3.02c-0.25,1.33,0.37,2.7,1.75,3.08c1.22,0.34,2.82-0.41,3.08-1.75c1.84-9.74-10.2-12.19-16.53-15.87
			c-7.54-4.38-8.63-13.77-8-21.83c0.36-4.6,1.37-9.11,2.64-13.54c1.73-6.07,3.63-12.09,5.7-18.05c4.11-11.87,8.87-23.5,14.28-34.84
			c2.72-5.69,5.59-11.31,8.62-16.85c2.92-5.34,6.1-10.55,8.85-15.99c5.03-9.96,8.46-21.29,5.07-32.35c-1.52-4.95-4.36-9.36-8.5-12.5
			c-4.34-3.3-9.7-4.82-15-5.72c-9.28-1.56-19.99-1.46-27.31-8.32c-3.25-3.05-4.76-7.08-3.64-11.51c1.33-5.21,5.09-9.83,8.69-13.7
			c7.12-7.66,16.26-13.41,26.28-16.45c2.48-0.75,5.01-1.34,7.56-1.77c1.33-0.22,2.08-1.87,1.75-3.08
			C246.68,206.83,245.32,206.27,243.99,206.5L243.99,206.5z"/>
	</g>
</g>
<g>
	<g>
		<path class="st0" d="M324.1,219.29c-0.25,5.57-0.51,11.15-0.76,16.72c-0.13,2.83-0.26,5.66-0.39,8.49
			c-0.11,2.45-0.3,4.91-0.11,7.36c0.38,4.99,2.5,8.99,6.44,12.07c3.4,2.66,7.24,4.74,10.9,7.01c6.63,4.12,13.35,8.47,18.39,14.53
			c2.3,2.77,4.12,5.98,5.13,9.44c1.36,4.65,1.15,9.55,0.2,14.26c-1.03,5.11-2.76,10.06-4.46,14.97c-1.66,4.79-3.41,9.54-5.22,14.27
			c-3.62,9.48-7.45,18.88-11.13,28.33c-7.29,18.69-14.06,37.75-17.31,57.61c-1.67,10.23-2.66,20.87-0.08,31.04
			c2.13,8.37,6.94,16.22,14.16,21.1c1.76,1.19,3.66,2.11,5.64,2.87c1.26,0.49,2.74-0.54,3.08-1.75c0.39-1.41-0.48-2.59-1.75-3.08
			c-7.33-2.83-12.63-9.67-15.22-16.9c-3.37-9.39-2.84-19.71-1.4-29.43c2.9-19.6,9.34-38.45,16.44-56.87
			c3.56-9.25,7.3-18.43,10.89-27.67c3.63-9.34,7.33-18.77,10.04-28.43c1.4-4.99,2.4-10.24,2.03-15.45
			c-0.31-4.34-1.54-8.51-3.64-12.32c-3.8-6.89-10.07-12.05-16.46-16.45c-3.31-2.28-6.73-4.37-10.15-6.47
			c-3.34-2.05-7.42-4-9.73-7.29c-2.65-3.78-1.85-8.95-1.65-13.28c0.25-5.49,0.5-10.97,0.75-16.46c0.13-2.74,0.25-5.49,0.38-8.23
			C329.25,216.07,324.25,216.08,324.1,219.29L324.1,219.29z"/>
	</g>
</g>
<g>
	<g>
		<path class="st0" d="M294,243.88c-5.38,16.75-10.95,36.8-1.11,53.05c2.45,4.05,5.69,7.57,7.91,11.76
			c2.08,3.93,2.92,8.37,2.99,12.78c0.16,9.36-2.58,18.68-5.16,27.59c-2.73,9.43-6,18.73-10.06,27.67
			c-3.96,8.73-8.79,16.93-13.92,25.01c-9.17,14.48-19.47,29.93-20.17,47.63c-0.55,13.83,4.62,29.58,17.3,36.71
			c1.56,0.88,3.21,1.59,4.9,2.17c1.28,0.44,2.73-0.51,3.08-1.75c0.38-1.38-0.47-2.63-1.75-3.08c-12.7-4.41-18.34-18.64-18.56-31.26
			c-0.29-16.84,9.3-31.81,18.02-45.56c4.97-7.83,9.84-15.69,13.86-24.06c4.24-8.83,7.74-18.01,10.66-27.36
			c2.81-9.01,5.53-18.3,6.51-27.72c0.48-4.59,0.4-9.26-0.61-13.78c-1.02-4.61-3.22-8.68-5.95-12.49c-2.57-3.58-5.33-7.07-6.98-11.2
			c-1.56-3.93-2.32-8.11-2.46-12.32c-0.29-8.86,1.8-17.6,4.3-26.04c0.64-2.15,1.31-4.3,2-6.44
			C299.81,242.13,294.98,240.82,294,243.88L294,243.88z"/>
	</g>
</g>
<g>
	<g>
		<path class="st0" d="M162.03,272.42c-4.2,17.85-8.43,35.69-12.6,53.55c-0.92,3.93-1.69,7.96-1.02,12c0.6,3.6,2.69,6.66,5.52,8.9
			c2.73,2.15,5.84,3.64,8.77,5.47c2.49,1.56,4.7,3.53,6.51,5.84c7.94,10.16,8.14,24.68,5.49,36.72
			c-3.51,15.95-11.29,30.97-12.44,47.43c-0.86,12.44,2.21,26.73,12.14,35.12c1.28,1.08,2.64,2.07,4.07,2.93
			c2.77,1.66,5.28-2.66,2.52-4.32c-10.59-6.36-14.12-19.46-13.86-31.11c0.36-15.74,7.74-30.36,11.58-45.39
			c3.3-12.94,3.94-27.34-2.41-39.51c-3.07-5.87-7.72-10.17-13.42-13.42c-2.67-1.52-5.54-2.95-7.58-5.31c-2.22-2.55-2.42-6-2.01-9.21
			c0.53-4.14,1.76-8.24,2.72-12.3c1.03-4.36,2.05-8.73,3.08-13.09c2.07-8.81,4.15-17.62,6.22-26.43c0.51-2.18,1.03-4.36,1.54-6.55
			C167.59,270.61,162.77,269.28,162.03,272.42L162.03,272.42z"/>
	</g>
</g>
</svg>
