<svg xmlns="http://www.w3.org/2000/svg" viewBox="0 0 221.53 281.91"><defs><style>.cls-1{fill:#58595b;}</style></defs><title>steam</title><g id="Layer_2" data-name="Layer 2"><g id="Layer_1-2" data-name="Layer 1"><path class="cls-1" d="M95.83.05A64.51,64.51,0,0,0,66.32,13.47,62.9,62.9,0,0,0,55.16,25.13C51.54,30,48.53,35.79,49.42,42c1.38,9.77,11.51,15.2,20.23,17.21,9.83,2.26,22.15,1,29.84,8.72,7.21,7.27,7,18.81,4,27.89-1.92,5.81-4.91,11.18-7.92,16.48s-6.14,10.9-9,16.47A350.28,350.28,0,0,0,70.9,164q-3.36,8.85-6.23,17.87A158.7,158.7,0,0,0,60.14,198c-1.83,8.9-2.6,19.34,2.16,27.51A21.43,21.43,0,0,0,72.05,234c2,.94,4,1.79,6,2.77a16.4,16.4,0,0,1,4.62,3.07,3.26,3.26,0,0,1,1,3,2.57,2.57,0,0,0,1.75,3.08,2.52,2.52,0,0,0,3.08-1.75c1.84-9.74-10.2-12.19-16.53-15.87-7.54-4.38-8.63-13.77-8-21.83a68.7,68.7,0,0,1,2.64-13.54q2.59-9.1,5.7-18.05A336.89,336.89,0,0,1,86.55,140q4.08-8.53,8.62-16.85c2.92-5.34,6.1-10.55,8.85-16,5-10,8.46-21.29,5.07-32.35a24.52,24.52,0,0,0-8.5-12.5c-4.34-3.3-9.7-4.82-15-5.72-9.28-1.56-20-1.46-27.31-8.32a11.46,11.46,0,0,1-3.64-11.51c1.33-5.21,5.09-9.83,8.69-13.7A59.76,59.76,0,0,1,89.61,6.62a61.42,61.42,0,0,1,7.56-1.77,2.53,2.53,0,0,0,1.75-3.08A2.58,2.58,0,0,0,95.83.05Z"/><path class="cls-1" d="M175.94,12.84q-.37,8.36-.76,16.72l-.39,8.49a60.26,60.26,0,0,0-.11,7.36,16.2,16.2,0,0,0,6.44,12.07,119.54,119.54,0,0,0,10.9,7C198.65,68.61,205.37,73,210.41,79a26.58,26.58,0,0,1,5.13,9.44,29.77,29.77,0,0,1,.2,14.26,116.45,116.45,0,0,1-4.46,15q-2.49,7.19-5.22,14.27c-3.62,9.48-7.45,18.88-11.13,28.33C187.64,179,180.87,198,177.62,217.9c-1.67,10.23-2.66,20.87-.08,31,2.13,8.37,6.94,16.22,14.16,21.1a27.73,27.73,0,0,0,5.64,2.87,2.53,2.53,0,0,0,3.08-1.75,2.56,2.56,0,0,0-1.75-3.08c-7.33-2.83-12.63-9.67-15.22-16.9-3.37-9.39-2.84-19.71-1.4-29.43,2.9-19.6,9.34-38.45,16.44-56.87,3.56-9.25,7.3-18.43,10.89-27.67s7.33-18.77,10-28.43a45.72,45.72,0,0,0,2-15.45A29.82,29.82,0,0,0,217.81,81C214,74.12,207.74,69,201.35,64.56c-3.31-2.28-6.73-4.37-10.15-6.47s-7.42-4-9.73-7.29c-2.65-3.78-1.85-8.95-1.65-13.28l.75-16.46c.13-2.74.25-5.49.38-8.23.14-3.21-4.86-3.2-5,0Z"/><path class="cls-1" d="M145.84,37.43c-5.38,16.75-11,36.8-1.11,53.05,2.45,4,5.69,7.57,7.91,11.76a28.17,28.17,0,0,1,3,12.78c.16,9.36-2.58,18.68-5.16,27.59a204.12,204.12,0,0,1-10.06,27.67,204.29,204.29,0,0,1-13.92,25c-9.17,14.48-19.47,29.93-20.17,47.63-.55,13.83,4.62,29.58,17.3,36.71a29.34,29.34,0,0,0,4.9,2.17,2.5,2.5,0,1,0,1.33-4.83c-12.7-4.41-18.34-18.64-18.56-31.26-.29-16.84,9.3-31.81,18-45.56a235.39,235.39,0,0,0,13.86-24.06,202.84,202.84,0,0,0,10.66-27.36c2.81-9,5.53-18.3,6.51-27.72a42.8,42.8,0,0,0-.61-13.78,34.15,34.15,0,0,0-5.95-12.49c-2.57-3.58-5.33-7.07-7-11.2a36.62,36.62,0,0,1-2.46-12.32c-.29-8.86,1.8-17.6,4.3-26q1-3.23,2-6.44c1-3.06-3.82-4.37-4.8-1.31Z"/><path class="cls-1" d="M13.87,66q-6.3,26.77-12.6,53.55c-.92,3.93-1.69,8-1,12a14.49,14.49,0,0,0,5.52,8.9c2.73,2.15,5.84,3.64,8.77,5.47a25.37,25.37,0,0,1,6.51,5.84c7.94,10.16,8.14,24.68,5.49,36.72-3.51,16-11.29,31-12.44,47.43-.86,12.44,2.21,26.73,12.14,35.12a31.54,31.54,0,0,0,4.07,2.93c2.77,1.66,5.28-2.66,2.52-4.32C22.24,263.25,18.71,250.15,19,238.5c.36-15.74,7.74-30.36,11.58-45.39,3.3-12.94,3.94-27.34-2.41-39.51a33,33,0,0,0-13.42-13.42c-2.67-1.52-5.54-3-7.58-5.31-2.22-2.55-2.42-6-2-9.21a121.09,121.09,0,0,1,2.72-12.3q1.55-6.54,3.08-13.09Q14,87.06,17.15,73.84c.51-2.18,1-4.36,1.54-6.55.74-3.13-4.08-4.46-4.82-1.32Z"/></g></g></svg>