<svg xmlns="http://www.w3.org/2000/svg" viewBox="0 0 139.87 185.99"><defs><style>.cls-1{fill:#434244;}.cls-2{isolation:isolate;}.cls-3{font-size:37px;fill:#444244;font-family:Solway-Regular, Solway;}.cls-4{letter-spacing:0em;}.cls-5{letter-spacing:0em;}</style></defs><title>tea-message</title><g id="Layer_2" data-name="Layer 2"><g id="Layer_1-2" data-name="Layer 1"><path class="cls-1" d="M43.46,86.78C28.87,88.54,20.53,103,16.34,115.44c-2.11,6.24-3,12.9-.54,18.73,2.3,5.35,7.53,9,13.83,8.05,5.66-.86,11.52-6,10.27-12-.65-3.25-3.8-4.76-6.65-5.91a25.25,25.25,0,0,0-9-1.94,17.81,17.81,0,0,0-8.68,2,19.38,19.38,0,0,0-7.18,7.09,41.39,41.39,0,0,0-5.58,17.28,42.37,42.37,0,0,0,9.11,31.55,33,33,0,0,0,2.75,2.92c1.48,1.45,4.13-1,2.58-2.52A37.62,37.62,0,0,1,6.1,154.61a41.78,41.78,0,0,1,2.29-15c1.69-5,4.51-10.57,9.8-12.83,4.88-2,10.46-.85,14.75,1.18a7.57,7.57,0,0,1,3.19,2.11,3.91,3.91,0,0,1,.3,3.27A7.76,7.76,0,0,1,32.17,138a9.4,9.4,0,0,1-11.84-3.17c-3-4.31-3-10-1.68-15.25a58.9,58.9,0,0,1,7.06-16.47c3.15-5,7.62-9.73,13.31-11.84a18.52,18.52,0,0,1,4.22-1.06,2,2,0,0,0,1.87-1.75,1.56,1.56,0,0,0-1.42-1.68h-.18Z"/><path class="cls-1" d="M2,178.85a58.61,58.61,0,0,1,14.9,6.71c1.08.71,2.22.53,2.53-.39a1.84,1.84,0,0,0,.06-.41,25.24,25.24,0,0,1,3.61-13.82c.54-.71.25-2-.69-2.92s-2.2-1.09-2.79-.41a28,28,0,0,0-4.18,15.49l2.59-.79a63.31,63.31,0,0,0-15.92-7.26c-1.11-.42-2,0-2.08,1.07a3.21,3.21,0,0,0,2,2.74Z"/><g class="cls-2"><text class="cls-3" transform="translate(45.11 31.45)">dri<tspan class="cls-4" x="49.95" y="0">n</tspan><tspan class="cls-5" x="72.93" y="0">k</tspan><tspan x="0" y="44.4">some</tspan><tspan x="0" y="88.8">tea!</tspan></text></g></g></g></svg>