<svg xmlns="http://www.w3.org/2000/svg" viewBox="0 0 135.73 135.73"><defs><style>.cls-1,.cls-2{fill:none;stroke:#2f2f30;stroke-miterlimit:10;}.cls-1{stroke-width:8px;}.cls-2{stroke-width:4px;}.cls-3{fill:#2f2f30;}</style></defs><title>vsco</title><g id="Layer_2" data-name="Layer 2"><g id="Layer_1-2" data-name="Layer 1"><circle class="cls-1" cx="67.86" cy="67.86" r="63.86"/><circle class="cls-2" cx="67.86" cy="67.86" r="36"/><path class="cls-3" d="M52.68,60.19a78.22,78.22,0,0,1,11.8,19.08c.88,2,4.1,1.36,4.57-.59A35.76,35.76,0,0,1,83.13,57.82,2.57,2.57,0,0,0,84,54.4a2.53,2.53,0,0,0-3.43-.9A41,41,0,0,0,64.23,77.35l4.57-.6a82.74,82.74,0,0,0-12.59-20.1,2.51,2.51,0,0,0-3.53,0,2.56,2.56,0,0,0,0,3.54Z"/><path class="cls-3" d="M30.83,24.22c3.33-.45,6.89-1,10.22-.3a10.51,10.51,0,0,1,4.33,1.81,25.21,25.21,0,0,1,3.11,3.09c2.33,2.5,5.2,4.74,8.82,4.55a12.55,12.55,0,0,0,9-5.09c2.38-3,3.46-6.8,4.79-10.37C72.15,15,73.63,12,76.37,10.35c2.44-1.43,5-.66,6.93,1.28,2.41,2.48,3,5.93,3,9.26,0,5.79-2.69,15.6,4.57,18.37,3.7,1.41,7.13-1,10.1-2.91s6.55-3.15,10.08-2.43a5.4,5.4,0,0,1,4.61,5.46c.1,3.18-1.42,6-3.34,8.4-2.2,2.82-5.31,5.33-6.88,8.58a7,7,0,0,0-.21,6.18,11.26,11.26,0,0,0,3.69,4c2.52,1.88,5.32,3.32,8,5a23,23,0,0,1,3.57,2.69A8.63,8.63,0,0,1,123,77.64c.29,1.14-1.49,1.81-2.3,2.26a29.48,29.48,0,0,1-4.84,2.15A32.07,32.07,0,0,1,105,83.81a30.72,30.72,0,0,1-5.25-.51,2.56,2.56,0,0,0-3.07,1.75,2.52,2.52,0,0,0,1.74,3.07,37.17,37.17,0,0,0,23.43-3.21c3.61-1.79,7.56-4.62,5.69-9.2-1.35-3.29-4.11-5.75-7-7.72s-5.72-3.35-8.44-5.26c-1-.67-2.6-1.7-2.62-3,0-1.52,1.77-3.14,2.69-4.19,4.68-5.37,10.32-11.73,7.9-19.46-2.67-8.54-13.43-8.59-20.09-5-1.7.92-3.2,2.16-4.92,3.05-1,.54-2.34.8-3.06.17-1.82-1.58-1.27-5.46-1.07-7.86.34-4.16.68-8.55-.69-12.57a14,14,0,0,0-6.67-8.14,10.22,10.22,0,0,0-10.53.81c-3.09,2.2-5,5.39-6.37,8.85S64.55,22.84,62,25.64c-1.93,2.14-4.8,3.68-7.49,1.94a18.9,18.9,0,0,1-3.35-3.22,18.86,18.86,0,0,0-4.08-3.48c-3.25-1.93-7.17-2.37-10.88-2.2-1.8.08-3.59.3-5.38.54a2.58,2.58,0,0,0-2.5,2.5c0,1.21,1.15,2.68,2.5,2.5Z"/><path class="cls-3" d="M30.74,20.23a7,7,0,0,0-6,4.15,9.26,9.26,0,0,0,.14,8C26,35,28.16,37.1,30.09,39.22a17.9,17.9,0,0,1,2.07,2.6c.42.68,1.43,2.25,1.07,3.12-.22.57-1.95.6-2.47.67-1.52.22-3,.35-4.57.48A70.06,70.06,0,0,0,17,47.32,16.47,16.47,0,0,0,9.31,50.8a7.45,7.45,0,0,0-2.06,7.48c1.71,6.06,8,7.4,13.24,8.8,2.11.57,4.75,1.38,5.93,3.39.44.77.45,1.2-.21,1.8a19.25,19.25,0,0,1-3.67,2.45c-4.86,2.7-10.38,4.86-13.35,9.89C6.6,89,7.06,95.39,11.62,98.32c2.66,1.71,6.09,1.64,9,.69s5.39-2.75,8-4.38a16.15,16.15,0,0,1,3.86-1.91,6.27,6.27,0,0,1,1.66-.33,1.38,1.38,0,0,1,.58,0c-.3-.1-.08-.19.07.22,1.19,3.18,1.11,7.09.83,10.41a2.5,2.5,0,0,0,5,0,35.76,35.76,0,0,0-.52-9.74c-.56-2.93-1.88-5.62-5.19-5.91-5.7-.49-9.79,4.31-14.6,6.4-1.74.76-4.1,1.39-5.88.39-1.59-.9-2-2.87-1.83-4.57.62-4.9,6.31-7.41,10.16-9.38a30.43,30.43,0,0,0,7-4.44,6.23,6.23,0,0,0,.78-8.18c-3.2-4.84-9.16-5.09-14.14-6.83C14.54,60.16,12.63,59,12.07,57s1.17-3.13,2.83-3.81c5.46-2.2,11.67-1.87,17.41-2.74a7.44,7.44,0,0,0,4.43-1.77,5.67,5.67,0,0,0,1.46-4.5C37.91,41,36,38.29,33.9,36c-1.83-2-4.31-4.08-5-6.85-.36-1.53.34-3.83,1.81-3.9,3.21-.15,3.23-5.15,0-5Z"/><path class="cls-3" d="M36.18,102.45l-2,6.07a21.22,21.22,0,0,0-1.36,6.38c0,3.83,2.49,7.63,6.57,7.85,4.24.23,7.08-3.48,8.6-7a33.57,33.57,0,0,1,2.59-5.11,17.11,17.11,0,0,1,1.55-2c.2-.23,2-1.7,1.93-2l-.77-.16,0,0s.2.36.15.21a8.45,8.45,0,0,0,.77,1.29c.5.9,1,1.83,1.39,2.77a30.93,30.93,0,0,1,1.78,5.47c.9,3.87,1.31,8,4.26,11s7.15,3.67,10.4,1.09,3.71-6.85,3.33-10.68c-.35-3.5-1.16-7.9,1.26-10.91a4.3,4.3,0,0,1,3.11-1.62,2.63,2.63,0,0,1,2.72,1.25c1.57,2.81,5.89.29,4.32-2.53-1.66-3-5.07-4.08-8.31-3.58a9.55,9.55,0,0,0-7.23,5.91c-1.49,3.46-1.35,7.08-.95,10.75.21,1.87.49,3.92-.18,5.73A3.33,3.33,0,0,1,68.1,125c-1.3.26-2.63-.83-3.35-1.78A12,12,0,0,1,63,118.41a45.65,45.65,0,0,0-3.65-11.47c-.81-1.62-1.73-3.64-3.32-4.62-2.15-1.3-4.23-.3-5.89,1.26a27.63,27.63,0,0,0-6.31,9.5c-.7,1.61-1.49,3.62-3.18,4.43a1.7,1.7,0,0,1-2.5-1.08c-.74-1.81.08-4,.64-5.69.74-2.32,1.49-4.64,2.23-7,1-3.07-3.84-4.39-4.82-1.33Z"/><path class="cls-3" d="M82.93,106.19a13.35,13.35,0,0,0,3.7,5,34.75,34.75,0,0,0,4.91,4.16c3.32,2.26,7.8,3.56,11.7,2.11,3.64-1.35,6.45-4.74,6.16-8.77-.33-4.39-3.5-7.39-6.4-10.34a13.92,13.92,0,0,1-3.5-5.29A7.74,7.74,0,0,1,99,90.15a2.55,2.55,0,0,1,.24-.91c.18-.41.7-.12.06-.23a2.58,2.58,0,0,0,3.08-1.74,2.52,2.52,0,0,0-1.75-3.08A5.33,5.33,0,0,0,95.46,86a7.45,7.45,0,0,0-1.33,6.14,18.47,18.47,0,0,0,5.63,10.11c1.91,1.91,5.69,5,4.47,8.17-1.12,2.93-4.82,3-7.32,2.18a15.07,15.07,0,0,1-5-3.19c-.83-.75-1.63-1.54-2.42-2.33a6.34,6.34,0,0,1-1.77-2.16,2.56,2.56,0,0,0-3.08-1.75,2.52,2.52,0,0,0-1.75,3.07Z"/></g></g></svg>